<?xml version="1.0" encoding="UTF-8" standalone="no"?>
<!-- Created with Inkscape (http://www.inkscape.org/) -->
<svg xmlns:dc="http://purl.org/dc/elements/1.1/" xmlns:cc="http://creativecommons.org/ns#" xmlns:rdf="http://www.w3.org/1999/02/22-rdf-syntax-ns#" xmlns:svg="http://www.w3.org/2000/svg" xmlns="http://www.w3.org/2000/svg" xmlns:sodipodi="http://sodipodi.sourceforge.net/DTD/sodipodi-0.dtd" xmlns:inkscape="http://www.inkscape.org/namespaces/inkscape" width="64px" height="64px" id="svg2985" version="1.1" inkscape:version="0.48.1 " sodipodi:docname="bk.svg">
  <defs id="defs2987"/>
  <sodipodi:namedview id="base" pagecolor="#ffffff" bordercolor="#666666" borderopacity="1.0" inkscape:pageopacity="0.0" inkscape:pageshadow="2" inkscape:zoom="7.7781746" inkscape:cx="28.168786" inkscape:cy="37.123605" inkscape:current-layer="layer1" showgrid="true" inkscape:document-units="px" inkscape:grid-bbox="true" inkscape:window-width="1365" inkscape:window-height="878" inkscape:window-x="-8" inkscape:window-y="-8" inkscape:window-maximized="1"/>
  <metadata id="metadata2990">
    <rdf:RDF>
      <cc:Work rdf:about="">
        <dc:format>image/svg+xml</dc:format>
        <dc:type rdf:resource="http://purl.org/dc/dcmitype/StillImage"/>
        <dc:title/>
      </cc:Work>
    </rdf:RDF>
  </metadata>
  <g id="layer1" inkscape:label="Layer 1" inkscape:groupmode="layer">
    <path style="fill:#000000" d="m 17.395619,58.589328 c -2.57099,-0.330167 -5.520385,-1.23784 -7.8601756,-2.418962 -0.648777,-0.327503 -1.469752,-0.595458 -1.824389,-0.595458 -0.90914,0 -1.618589,0.6164 -1.765279,1.533754 -0.131244,0.820752 -0.333018,0.941273 -0.634078,0.378736 -0.738002,-1.378968 0.659868,-3.488707 3.008157,-4.540067 l 0.737253,-0.330079 -0.536106,-1.323671 C 8.2261434,50.56556 7.9804224,49.691852 7.9749544,49.352009 l -0.0099,-0.617901 2.2324996,1.492112 c 4.362021,2.915394 6.182816,3.777411 8.893525,4.210449 3.369328,0.538253 8.667176,-0.963032 11.483975,-3.254284 1.530047,-1.244578 1.429019,-1.229925 2.425793,-0.351836 1.700183,1.49774 4.231739,2.742437 6.789207,3.338066 1.655742,0.38562 4.789651,0.438334 6.175,0.103868 1.593185,-0.384646 4.559854,-1.898454 7.4575,-3.805357 2.588963,-1.70376 2.6125,-1.714408 2.6125,-1.181866 0,0.29556 -0.2565,1.159403 -0.57,1.919648 -0.66241,1.606362 -0.644987,1.52 -0.30665,1.52 0.144841,0 0.797139,0.356451 1.449552,0.792116 1.918432,1.28108 2.835541,3.203607 1.922425,4.029962 -0.339594,0.307331 -0.359789,0.288975 -0.475045,-0.431798 -0.147725,-0.923825 -0.854377,-1.54028 -1.765647,-1.54028 -0.359055,0 -1.233872,0.296995 -1.976694,0.671072 -2.721112,1.370332 -6.139973,2.272611 -9.421946,2.48657 -3.54309,0.230983 -6.655459,-0.481044 -10.813411,-2.473815 l -2.102419,-1.007621 -1.860542,0.934017 C 25.656372,58.423259 21.791404,59.15383 17.39566,58.589328 z M 28.452876,49.680509 C 26.900724,49.418583 25.473594,48.93156 24.976159,48.494043 24.521907,48.094507 24.465304,47.827517 24.000235,43.89074 23.508696,39.729883 23.503254,39.706053 22.758091,38.451758 20.672946,34.94194 19.551796,30.697311 19.558312,26.33752 c 0.005,-3.313697 0.649994,-5.719301 2.168676,-8.087809 1.389768,-2.167455 3.990847,-4.482128 6.805585,-6.056219 1.008077,-0.563749 1.254673,-0.797254 1.351096,-1.279367 0.08288,-0.414419 0.02588,-0.681825 -0.191746,-0.89945 -0.790742,-0.7907419 -1.027577,-2.2317103 -0.553345,-3.3667085 0.392071,-0.9383568 1.286538,-1.4214793 2.63337,-1.4223476 1.957841,-0.00133 2.793688,0.8061472 2.792354,2.697354 -3.8e-4,0.6708736 -0.127296,1.2145569 -0.38,1.6290277 -1.020927,1.6744754 0.390978,3.3092534 2.072862,2.4000664 0.772407,-0.417545 1.137881,-1.468261 0.68772,-1.9771587 -0.847429,-0.9580042 -0.681009,-3.2471 0.295822,-4.0690495 0.944996,-0.7951614 2.848792,-0.8636982 3.949941,-0.142196 0.596292,0.3907046 0.974366,1.3256699 0.974366,2.4095782 0,0.9934565 -0.316102,1.7085049 -1.026892,2.322911 -0.271209,0.234434 -0.493108,0.593281 -0.493108,0.797438 0,0.204157 0.441772,0.952847 0.981716,1.663756 1.284702,1.691482 2.696731,4.66669 3.229109,6.803877 0.796245,3.196446 0.497532,9.168277 -0.631938,12.633685 -0.45665,1.401077 -1.393545,3.336558 -2.788997,5.761634 l -0.955709,1.66087 -0.488458,3.998793 c -0.268652,2.199335 -0.56993,4.151027 -0.669509,4.337088 -0.25129,0.469543 -1.857153,1.124185 -3.554144,1.448872 -1.519585,0.290745 -5.784804,0.336431 -7.314207,0.07834 z m 0.11974,-3.325142 c 2.955005,-0.565387 7.634798,-0.220052 9.174896,0.677038 l 0.6175,0.359687 0,-0.941043 c 0,-0.891263 -0.03429,-0.955369 -0.648285,-1.211913 -0.356558,-0.148979 -1.305023,-0.416982 -2.107699,-0.595559 -2.080515,-0.46287 -6.475329,-0.313175 -8.359016,0.284725 -0.7315,0.232183 -1.40091,0.489341 -1.487578,0.571459 -0.08667,0.08212 -0.09952,0.536457 -0.02857,1.009645 l 0.129018,0.86034 0.621952,-0.36696 c 0.342072,-0.201829 1.281572,-0.493168 2.087777,-0.647419 z m 5.287004,-4.201666 1.669608,-0.696829 -1.726821,-0.723022 -1.72682,-0.72302 -1.696379,0.692613 c -0.933008,0.380938 -1.653449,0.735545 -1.600978,0.788017 0.137533,0.137531 2.995673,1.332403 3.221782,1.346895 0.1045,0.0067 0.941325,-0.301397 1.859608,-0.684654 z m -6.609608,-3.134795 c 2.175145,-0.342203 8.150607,-0.291291 10.157571,0.08655 0.884165,0.166456 1.620915,0.285054 1.637221,0.263551 0.0163,-0.0215 0.07338,-0.446198 0.126835,-0.94377 0.10997,-1.02368 0.234632,-0.94197 -1.946627,-1.27591 -3.314092,-0.507373 -8.532064,-0.411727 -11.428693,0.20949 -0.823162,0.176536 -0.921031,0.251567 -0.918713,0.704339 0.0046,0.893356 0.210334,1.37936 0.543459,1.283652 0.169921,-0.04882 0.992947,-0.196373 1.828947,-0.327897 z m 6.365,-8.143998 0,-4.18 1.9,0 1.9,0 0,-1.52 0,-1.52 -1.9,0 -1.9,0 0,-2.66 0,-2.66 -1.615,0 -1.615,0 0,2.66 0,2.66 -1.9,0 -1.9,0 0,1.52 0,1.52 1.9,0 1.9,0 0,4.18 0,4.18 1.615,0 1.615,0 0,-4.18 z m 10.286108,-7.13929 c -0.496677,-4.86874 -1.824585,-7.881349 -4.346706,-9.861319 -1.21942,-0.957297 -1.80299,-1.063177 -2.459656,-0.446271 -0.75681,0.710986 -0.585962,1.32112 0.652754,2.33111 2.978621,2.428625 4.991732,6.078053 5.770409,10.46077 l 0.236301,1.33 0.180781,-0.855 c 0.119508,-0.565205 0.108023,-1.568234 -0.03388,-2.95929 z M 40.407513,9.0810341 C 40.74254,8.6313848 40.702406,7.693249 40.330564,7.2823689 39.931257,6.8411376 38.699348,6.8177144 38.273801,7.2432631 c -0.491515,0.4915132 -0.317009,1.8037201 0.281212,2.1146137 0.577172,0.2999545 1.528684,0.1577578 1.8525,-0.2768427 z M 32.807512,8.8831943 c 0.130625,-0.1710034 0.2375,-0.5889755 0.2375,-0.928827 0,-1.0471838 -1.140017,-1.5494678 -2.057778,-0.9066427 -0.624457,0.4373876 -0.525405,1.7664731 0.157778,2.1170299 0.559134,0.2869046 1.327694,0.1567419 1.6625,-0.2815602 z" id="path3232" inkscape:connector-curvature="0"/>
    <path style="fill:#ffffff" d="m 25.88123,46.960569 c -0.04292,-0.111849 -0.07804,-0.480149 -0.07804,-0.818445 l 0,-0.615083 0.771455,-0.281286 c 1.590196,-0.579815 2.475352,-0.692584 5.528224,-0.704295 2.644862,-0.01015 2.986341,0.01443 3.985511,0.28682 0.60104,0.163854 1.338681,0.406029 1.639202,0.538166 l 0.5464,0.240249 0,0.778618 c 0,0.42824 -0.03123,0.778619 -0.0694,0.778619 -0.03817,0 -0.284052,-0.108284 -0.5464,-0.24063 -2.270109,-1.145196 -8.4776,-1.186042 -10.938429,-0.07198 -0.818697,0.370641 -0.742045,0.360655 -0.838521,0.109242 z" id="path3234" inkscape:connector-curvature="0"/>
    <path style="fill:#ffffff" d="m 30.630942,42.219731 c -0.75762,-0.304511 -1.436767,-0.612932 -1.509216,-0.68538 -0.138721,-0.138722 0.273461,-0.35305 2.045679,-1.063724 l 0.928724,-0.372426 1.630823,0.686716 1.630823,0.686716 -1.338181,0.523073 c -0.736,0.28769 -1.489602,0.580585 -1.674671,0.650877 -0.278336,0.105716 -0.574552,0.03212 -1.713981,-0.425852 l 0,0 z" id="path3236" inkscape:connector-curvature="0"/>
    <path style="fill:#ffffff" d="m 25.190551,39.163671 c -0.07408,-0.08998 -0.174824,-0.433277 -0.223884,-0.762872 -0.07892,-0.5302 -0.05744,-0.61626 0.186355,-0.746737 1.010802,-0.540964 6.319288,-0.910325 9.626973,-0.669838 1.179232,0.08574 2.635819,0.256177 3.23686,0.378755 l 1.092801,0.22287 -0.0397,0.832515 c -0.02183,0.457884 -0.05076,0.8406 -0.06428,0.850481 -0.01352,0.0099 -0.545272,-0.06201 -1.181668,-0.159755 -3.324135,-0.510561 -10.31443,-0.420893 -12.291935,0.157675 -0.11376,0.03328 -0.267445,-0.01311 -0.341521,-0.103094 z" id="path3238" inkscape:connector-curvature="0"/>
    <path style="fill:#ffffff" d="m 30.431527,30.771911 0,-4.178359 -1.86419,0 -1.864191,0 0,-1.414213 0,-1.414214 1.864191,0 1.86419,0 0,-2.699862 0,-2.699862 1.542779,0 1.542778,0 0,2.699862 0,2.699862 1.928473,0 1.928473,0 0,1.414214 0,1.414213 -1.928473,0 -1.928473,0 0,4.178359 0,4.178358 -1.542778,0 -1.542779,0 0,-4.178358 z" id="path3240" inkscape:connector-curvature="0"/>
    <path style="fill:#ffffff" d="M 31.243462,9.1078328 C 30.869443,8.9571369 30.688657,8.5904456 30.688657,7.982509 c 0,-0.8748288 0.880579,-1.4040192 1.66302,-0.9994035 0.483621,0.2500904 0.686764,0.7122343 0.574983,1.3080739 -0.142487,0.7595223 -0.905809,1.1298706 -1.683198,0.8166534 l 0,0 z" id="path3242" inkscape:connector-curvature="0"/>
    <path style="fill:#ffffff" d="m 38.767264,9.3487168 c -0.70553,-0.2584152 -0.921673,-1.6867414 -0.319115,-2.1087895 0.401759,-0.2814028 1.440716,-0.2446981 1.747137,0.061724 0.601162,0.6011618 0.432325,1.696277 -0.309294,2.0061449 -0.50708,0.2118717 -0.638837,0.2166911 -1.118728,0.040921 z" id="path3244" inkscape:connector-curvature="0"/>
    <path style="fill:#ffffff" d="m 43.497644,25.848974 c -0.756391,-3.928119 -2.39297,-6.973498 -5.209741,-9.694391 -1.784039,-1.723314 -1.860932,-1.907378 -1.097566,-2.627325 0.539166,-0.508499 0.685216,-0.524357 1.444412,-0.156837 1.367892,0.662185 3.050212,2.695702 3.880868,4.691028 0.814443,1.95638 1.426454,5.248452 1.406185,7.564028 -0.01374,1.569837 -0.150983,1.642153 -0.424158,0.223497 l 0,0 z" id="path3246" inkscape:connector-curvature="0"/>
  </g>
</svg>