<?xml version="1.0" encoding="UTF-8" standalone="no"?>
<!-- Created with Inkscape (http://www.inkscape.org/) -->
<svg xmlns:dc="http://purl.org/dc/elements/1.1/" xmlns:cc="http://creativecommons.org/ns#" xmlns:rdf="http://www.w3.org/1999/02/22-rdf-syntax-ns#" xmlns:svg="http://www.w3.org/2000/svg" xmlns="http://www.w3.org/2000/svg" xmlns:sodipodi="http://sodipodi.sourceforge.net/DTD/sodipodi-0.dtd" xmlns:inkscape="http://www.inkscape.org/namespaces/inkscape" width="64px" height="64px" id="svg2985" version="1.1" inkscape:version="0.48.1 " sodipodi:docname="bk.svg">
  <defs id="defs2987"/>
  <sodipodi:namedview id="base" pagecolor="#ffffff" bordercolor="#666666" borderopacity="1.0" inkscape:pageopacity="0.0" inkscape:pageshadow="2" inkscape:zoom="7.7781746" inkscape:cx="28.168786" inkscape:cy="37.123605" inkscape:current-layer="layer1" showgrid="true" inkscape:document-units="px" inkscape:grid-bbox="true" inkscape:window-width="1365" inkscape:window-height="878" inkscape:window-x="-8" inkscape:window-y="-8" inkscape:window-maximized="1"/>
  <metadata id="metadata2990">
    <rdf:RDF>
      <cc:Work rdf:about="">
        <dc:format>image/svg+xml</dc:format>
        <dc:type rdf:resource="http://purl.org/dc/dcmitype/StillImage"/>
        <dc:title/>
      </cc:Work>
    </rdf:RDF>
  </metadata>
  <g id="layer1" inkscape:label="Layer 1" inkscape:groupmode="layer">
    <path style="fill:#000000" d="m 25.476394,58.411182 c -6.113825,-0.463913 -11.076298,-1.577406 -12.777978,-2.867157 -0.315893,-0.239422 -0.303706,-0.494743 0.2375,-4.975684 0.313763,-2.59782 0.568606,-5.12007 0.566319,-5.605 -0.0059,-1.247331 -0.979192,-4.912448 -1.614553,-6.079817 -0.336925,-0.619041 -1.239648,-1.632932 -2.4373696,-2.737526 -2.896567,-2.671345 -3.882039,-4.480521 -4.325921,-7.941721 -0.684859,-5.340252 2.446714,-9.6526 8.1696256,-11.250026 1.236368,-0.345104 1.97367,-0.405248 5.057377,-0.412539 3.155724,-0.0075 3.852777,0.04843 5.539264,0.444125 l 1.929266,0.45266 0.575681,-0.409921 c 0.796096,-0.56687 2.007221,-0.973672 3.355789,-1.127168 l 1.14,-0.129756 0.05335,-2.3275 0.05335,-2.3275 -1.335849,0 -1.335848,0 0,-1.045 0,-1.0449996 1.33,0 1.33,0 0,-1.805 0,-1.805 1.045,0 1.045,0 0,1.805 0,1.805 1.33,0 1.33,0 0,1.0449996 0,1.045 -1.335848,0 -1.335848,0 0.05335,2.3275 0.05335,2.3275 1.14,0.129756 c 1.348569,0.153496 2.559694,0.560298 3.35579,1.127168 l 0.575681,0.409921 1.929265,-0.451041 c 2.585883,-0.604551 8.177792,-0.661765 10.289264,-0.105275 1.64868,0.434519 4.131839,1.612301 5.093817,2.41604 1.092454,0.912752 2.555074,3.122445 3.00158,4.534717 0.768932,2.432087 0.440266,5.896863 -0.810536,8.544629 -0.486066,1.028928 -1.043344,1.697545 -3.103943,3.724085 -2.759315,2.713706 -2.938546,3.015705 -3.717244,6.263455 -0.486791,2.030286 -0.463621,2.995156 0.200908,8.366545 0.632734,5.114376 0.701262,4.652591 -0.806289,5.433331 -1.783498,0.923649 -6.830956,1.870079 -12.018293,2.253507 -3.016086,0.222936 -9.841907,0.219047 -12.825,-0.0073 z M 19.93239,54.814009 c 3.446735,-0.752259 6.490028,-1.007469 12.099004,-1.014621 5.566668,-0.0071 8.770547,0.25302 12.337912,1.001688 1.769368,0.371328 2.473523,0.308832 4.192088,-0.372066 l 0.57,-0.225834 -1.33,-0.459374 c -1.66056,-0.573549 -5.236236,-1.301952 -7.98,-1.62561 -1.317661,-0.155433 -4.266588,-0.24159 -7.98,-0.233145 -7.467477,0.01699 -10.444722,0.36088 -14.9625,1.728303 -0.914375,0.27676 -1.6625,0.561685 -1.6625,0.633169 0,0.07148 0.534375,0.281848 1.1875,0.46748 0.653125,0.18563 1.273,0.363417 1.3775,0.395082 0.1045,0.03166 0.236753,0.06432 0.293896,0.07257 0.05714,0.0082 0.892839,-0.157189 1.8571,-0.367643 z m 0.604004,-5.690884 c 0,-0.08922 -3.704606,-0.906841 -4.655,-1.027375 -0.17064,-0.02164 -0.521987,3.294321 -0.367183,3.465427 0.0346,0.03824 0.345114,0.127729 0.690042,0.198867 0.563527,0.116223 0.81505,-0.0051 2.479641,-1.196259 1.018875,-0.729081 1.8525,-1.377378 1.8525,-1.44066 z m 27.527594,2.527211 c 0.447326,-0.119719 0.451079,-0.141172 0.322528,-1.844043 -0.07153,-0.947602 -0.153753,-1.746605 -0.182709,-1.775561 -0.02896,-0.02896 -1.170273,0.182679 -2.536259,0.470299 l -2.483612,0.522949 1.927879,1.376335 c 1.946552,1.389669 2.133926,1.469008 2.952173,1.250021 z M 34.852529,48.583683 c 0.924624,-0.413364 1.608624,-0.796096 1.52,-0.850516 -0.457018,-0.280637 -4.13838,-1.846515 -4.341135,-1.846515 -0.203167,0 -3.884599,1.566163 -4.342695,1.847478 -0.08948,0.05495 0.84778,0.547558 2.082805,1.094682 2.535877,1.123405 1.957427,1.15131 5.081025,-0.245129 z M 18.351394,45.629367 c 8.494374,-1.964031 19.860746,-1.931996 27.813228,0.07839 1.213724,0.306829 2.270897,0.558102 2.349272,0.558383 0.07837,1.9e-4 0.1425,-0.466427 0.1425,-1.037128 l 0,-1.03764 -0.9975,-0.298604 c -3.027055,-0.906155 -8.415256,-1.675205 -13.3475,-1.905067 -5.55354,-0.258816 -13.260848,0.563415 -17.9075,1.910406 l -0.9975,0.289159 0,1.061842 c 0,1.003888 0.02333,1.05643 0.4275,0.962671 0.235125,-0.05454 1.368,-0.316629 2.5175,-0.582413 z m -1.425,-3.794106 1.235,-0.413609 -0.03329,-1.191338 c -0.02803,-1.003137 -0.149707,-1.393336 -0.770228,-2.47 -2.857197,-4.957518 -3.29123,-10.276811 -1.190881,-14.594857 0.689768,-1.418077 2.562048,-3.500756 3.654406,-4.065077 l 0.809991,-0.418447 -1.425,0.115519 c -5.780471,0.4686 -9.6774946,5.009224 -8.739367,10.182689 0.268522,1.480812 1.688594,4.680026 2.655577,5.982626 1.278012,1.721579 1.389145,2.058924 1.245676,3.781242 -0.138674,1.664774 0.02309,2.37838 0.70389,3.105143 0.470644,0.502419 0.308956,0.503629 1.854224,-0.01389 z M 49.156565,41.55454 c 0.502252,-0.741055 0.720138,-2.081921 0.452637,-2.785503 -0.207244,-0.545094 -0.09653,-1.618095 0.236018,-2.287385 0.103847,-0.209 0.511036,-0.8075 0.904868,-1.33 0.809867,-1.074457 2.328323,-4.293114 2.666832,-5.652863 0.129774,-0.521282 0.189862,-1.645487 0.142173,-2.66 -0.104006,-2.212666 -0.696785,-3.565036 -2.229961,-5.087449 -1.77631,-1.763842 -4.827323,-3.052978 -7.137738,-3.01589 l -0.76,0.0122 0.625997,0.273513 c 0.898312,0.392494 2.924642,2.543946 3.603164,3.825652 0.722389,1.364569 1.109767,2.666549 1.379485,4.636464 0.411744,3.007202 -0.465049,6.911204 -2.234288,9.948373 -0.762255,1.308526 -0.896249,1.696636 -0.963113,2.789599 l -0.07767,1.269601 0.828212,0.213134 c 0.455518,0.117225 1.041962,0.286904 1.303212,0.377067 0.648637,0.223858 0.792281,0.163843 1.260171,-0.526513 z m -23.89987,-1.15463 1.454699,-0.118258 0.05908,-0.611401 c 0.03874,-0.400875 -0.113181,-0.90535 -0.441203,-1.465077 -0.808479,-1.379563 -1.110771,-3.719766 -1.093906,-8.468522 0.0089,-2.502338 0.117154,-4.727054 0.279448,-5.742203 l 0.264943,-1.657201 -0.766116,-0.30654 c -0.421363,-0.168596 -1.109496,-0.561632 -1.529181,-0.873417 l -0.763065,-0.566878 -0.91343,1.01062 c -1.918689,2.122837 -2.692299,4.557115 -2.553321,8.034404 0.106711,2.669996 0.464461,3.977652 1.871145,6.839495 0.817514,1.663197 0.930606,2.039823 0.930606,3.099141 l 0,1.205864 0.872801,-0.130886 c 0.480041,-0.07199 1.527416,-0.1841 2.3275,-0.249141 z m 16.668526,-0.842903 c -0.01197,-1.039254 0.08456,-1.387465 0.722032,-2.604434 3.098744,-5.91566 2.924926,-11.570512 -0.469382,-15.270526 l -0.873523,-0.952197 -0.945121,0.606482 c -0.519817,0.333566 -1.22345,0.703509 -1.563628,0.822096 -0.496076,0.172932 -0.598718,0.295543 -0.518538,0.619419 0.54641,2.207137 0.625482,10.804724 0.122457,13.314951 -0.124669,0.622132 -0.475623,1.624318 -0.779897,2.227083 -0.304275,0.602764 -0.553227,1.264135 -0.553227,1.469711 0,0.398668 -0.0975,0.374707 3.04,0.747017 0.78375,0.093 1.516723,0.180559 1.628827,0.19457 0.12752,0.01594 0.198648,-0.423626 0.19,-1.174172 z m -8.658827,-0.293609 c 0,-0.448276 0.218293,-1.142325 0.561671,-1.785798 0.39246,-0.735456 0.622367,-1.530555 0.763154,-2.639246 0.247154,-1.946349 0.251506,-8.133887 0.007,-9.946702 -0.09866,-0.7315 -0.182414,-1.4155 -0.186111,-1.52 -0.0041,-0.116099 -0.923856,-0.19 -2.364687,-0.19 l -2.357968,0 -0.113765,0.712439 c -0.785401,4.918542 -0.462306,11.482156 0.669631,13.603356 0.334514,0.626863 0.551078,1.320854 0.551078,1.765951 l 0,0.733254 1.235,0 1.235,0 0,-0.733254 z" id="path3201" inkscape:connector-curvature="0"/>
    <path style="fill:#ffffff" d="m 16.831036,54.761375 c -0.65669,-0.200458 -1.233556,-0.404044 -1.281925,-0.452413 -0.142486,-0.142485 0.194438,-0.288594 1.632322,-0.707864 3.705643,-1.080523 5.862609,-1.381838 11.240167,-1.570186 4.5957,-0.160963 10.490629,-0.0025 12.745094,0.342599 3.16347,0.484247 7.815115,1.633601 7.55725,1.867286 -0.05527,0.05009 -0.47654,0.220695 -0.936159,0.37913 -1.0733,0.369977 -2.08781,0.358458 -4.365302,-0.04957 -3.292404,-0.58985 -6.718254,-0.847523 -11.25533,-0.846562 -5.599912,0.0012 -8.732419,0.305736 -13.885006,1.349937 -0.141421,0.02866 -0.794421,-0.111903 -1.451111,-0.312361 l 0,0 z" id="path3203" inkscape:connector-curvature="0"/>
    <path style="fill:#ffffff" d="m 15.7276,51.572115 c -0.217028,-0.05576 -0.232114,-0.151103 -0.155291,-0.981464 0.137984,-1.491435 0.225629,-2.098514 0.326539,-2.261789 0.07137,-0.115483 0.579503,-0.05438 2.045892,0.246006 2.784045,0.570312 2.668873,0.446817 1.341031,1.437942 -2.172546,1.621629 -2.595009,1.806766 -3.558171,1.559305 z" id="path3205" inkscape:connector-curvature="0"/>
    <path style="fill:#ffffff" d="m 31.315751,49.417169 c -0.25614,-0.09426 -1.15288,-0.501336 -1.992756,-0.90462 l -1.527047,-0.733244 0.835671,-0.387136 c 1.236747,-0.572939 3.234668,-1.385321 3.406969,-1.385321 0.172302,0 2.170222,0.812382 3.406969,1.385321 l 0.835672,0.387136 -1.51955,0.72968 c -2.394449,1.149802 -2.62455,1.210445 -3.445928,0.908184 z" id="path3207" inkscape:connector-curvature="0"/>
    <path style="fill:#ffffff" d="m 46.823548,51.45277 c -0.674906,-0.375452 -3.278404,-2.246473 -3.278404,-2.356047 0,-0.05793 1.026912,-0.303365 2.282026,-0.54541 l 2.282027,-0.440081 0.07819,0.522727 c 0.164009,1.096406 0.235212,2.586745 0.131395,2.750221 -0.17292,0.272289 -1.056234,0.312809 -1.495238,0.06859 z" id="path3209" inkscape:connector-curvature="0"/>
    <path style="fill:#ffffff" d="m 15.090701,41.732066 c -0.610244,-0.817714 -0.647663,-0.98302 -0.662079,-2.924851 -0.01554,-2.092599 0.008,-2.016383 -1.17381,-3.801752 -0.786872,-1.188736 -1.962796,-3.585179 -2.361274,-4.812094 -0.149275,-0.45962 -0.336582,-1.250535 -0.416238,-1.757589 -0.263757,-1.678971 0.239763,-3.830991 1.258264,-5.377761 0.459587,-0.697962 1.686655,-1.969752 2.303943,-2.387911 0.785287,-0.531965 2.137643,-1.152791 3.048081,-1.399283 0.874176,-0.236674 2.94079,-0.551979 3.030417,-0.462353 0.02197,0.02197 -0.210861,0.186933 -0.517406,0.36658 -0.704783,0.41303 -2.364374,2.142558 -2.981236,3.106869 -1.330474,2.079866 -1.927346,4.757582 -1.731068,7.766 0.170205,2.608784 0.801442,4.675098 2.322714,7.603257 0.729462,1.404075 0.779112,1.55667 0.843785,2.593296 l 0.06872,1.101437 -1.206648,0.401995 c -0.663656,0.221098 -1.275878,0.401996 -1.360493,0.401996 -0.08461,0 -0.294166,-0.188027 -0.465668,-0.417836 z" id="path3211" inkscape:connector-curvature="0"/>
    <path style="fill:#ffffff" d="m 22.054739,39.486973 c -0.04198,-1.187804 -0.07922,-1.333929 -0.664758,-2.608231 -1.689998,-3.677917 -2.009675,-4.894243 -2.022186,-7.694133 -0.0088,-1.979218 0.0519,-2.529737 0.420676,-3.812423 0.440516,-1.532223 1.224742,-2.843481 2.510268,-4.197271 l 0.445246,-0.46889 0.67181,0.46889 c 0.369496,0.257889 1.03418,0.641154 1.477075,0.8517 l 0.805264,0.38281 -0.08499,0.517144 c -0.385827,2.347546 -0.560431,7.994534 -0.332018,10.738051 0.196859,2.364525 0.392865,3.287356 0.964073,4.539034 0.480623,1.053181 0.615302,2.017775 0.281726,2.017775 -0.360948,0 -4.010171,0.39802 -4.214924,0.459721 -0.185899,0.05602 -0.218412,-0.0949 -0.257258,-1.194177 z" id="path3213" inkscape:connector-curvature="0"/>
    <path style="fill:#ffffff" d="m 30.779428,39.160768 c -0.0405,-0.445819 -0.241312,-1.206362 -0.451085,-1.708418 -0.854573,-2.045268 -1.118277,-4.340842 -1.008611,-8.780063 0.04309,-1.744345 0.151775,-3.663297 0.241519,-4.264337 l 0.16317,-1.092802 2.271563,0 c 1.24936,0 2.299249,0.02893 2.333087,0.06428 0.211666,0.221154 0.371468,4.248385 0.305129,7.689668 -0.08101,4.202301 -0.144843,4.658513 -0.906318,6.47733 -0.329148,0.786185 -0.467927,1.310476 -0.467927,1.767767 l 0,0.650103 -1.203765,0 -1.203764,0 -0.073,-0.803531 0,0 z" id="path3215" inkscape:connector-curvature="0"/>
    <path style="fill:#ffffff" d="m 39.053109,40.340115 c -0.95034,-0.13455 -1.783591,-0.300337 -1.851669,-0.368416 -0.07933,-0.07933 0.112932,-0.716498 0.535376,-1.774295 0.362535,-0.907785 0.720814,-2.053148 0.796176,-2.545251 0.340052,-2.220505 0.262541,-10.548994 -0.116229,-12.488608 -0.05771,-0.295513 -0.07005,-0.593616 -0.02743,-0.662451 0.04262,-0.06883 0.395694,-0.269478 0.784603,-0.445874 0.388908,-0.176397 1.025304,-0.526907 1.414213,-0.778911 l 0.707107,-0.458189 0.420434,0.477125 c 1.936965,2.198143 2.673406,3.768541 2.982919,6.360822 0.31224,2.615121 -0.275009,5.326637 -1.896874,8.758481 -0.797787,1.688105 -0.847958,1.849702 -0.918063,2.956992 l -0.07416,1.171301 -0.514259,0.02096 c -0.282843,0.01153 -1.29181,-0.08913 -2.24215,-0.223681 z" id="path3217" inkscape:connector-curvature="0"/>
    <path style="fill:#ffffff" d="m 47.033905,41.78463 -1.203857,-0.341835 0.07806,-1.092802 c 0.0743,-1.040101 0.127256,-1.192 1.098208,-3.149839 1.832649,-3.695373 2.463496,-6.674095 2.072069,-9.783853 -0.390793,-3.104723 -1.372869,-5.154508 -3.448067,-7.196792 -0.545806,-0.537148 -1.194863,-1.088014 -1.442351,-1.224146 l -0.449977,-0.247513 0.77139,0.07424 c 3.602723,0.346737 6.947467,2.379579 8.23739,5.006455 0.583995,1.189283 0.731783,2.092642 0.67271,4.11198 l -0.04898,1.674302 -0.69061,1.655164 c -0.615827,1.475933 -1.292151,2.710782 -2.71461,4.956396 l -0.441872,0.697576 0.03261,1.72555 c 0.03504,1.853939 -0.12572,2.525404 -0.76841,3.209516 -0.327273,0.348367 -0.253867,0.351481 -1.753708,-0.0744 z" id="path3219" inkscape:connector-curvature="0"/>
    <path style="fill:#ffffff" d="m 15.526574,46.049702 c -0.04714,-0.04714 -0.08571,-0.474708 -0.08571,-0.950152 l 0,-0.864442 1.060375,-0.28612 c 4.035793,-1.088974 8.951091,-1.749541 14.045997,-1.887643 5.22654,-0.141669 12.104791,0.590734 16.505719,1.757545 0.804994,0.213427 1.484781,0.388049 1.510637,0.388049 0.100584,0 0.03665,1.617203 -0.07063,1.786636 -0.09671,0.152736 -0.238643,0.148191 -0.949664,-0.03041 -5.054236,-1.269583 -9.501255,-1.790192 -15.260433,-1.786525 -5.859132,0.0037 -10.319861,0.507178 -15.556349,1.755723 -0.943922,0.225061 -1.079009,0.238271 -1.199939,0.117341 z" id="path3015" inkscape:connector-curvature="0"/>
  </g>
</svg>