<?xml version="1.0" encoding="UTF-8" standalone="no"?>
<!-- Created with Inkscape (http://www.inkscape.org/) -->
<svg xmlns:dc="http://purl.org/dc/elements/1.1/" xmlns:cc="http://creativecommons.org/ns#" xmlns:rdf="http://www.w3.org/1999/02/22-rdf-syntax-ns#" xmlns:svg="http://www.w3.org/2000/svg" xmlns="http://www.w3.org/2000/svg" xmlns:sodipodi="http://sodipodi.sourceforge.net/DTD/sodipodi-0.dtd" xmlns:inkscape="http://www.inkscape.org/namespaces/inkscape" width="64px" height="64px" id="svg2985" version="1.1" inkscape:version="0.48.1 " sodipodi:docname="wn.svg">
  <defs id="defs2987"/>
  <sodipodi:namedview id="base" pagecolor="#ffffff" bordercolor="#666666" borderopacity="1.0" inkscape:pageopacity="0.0" inkscape:pageshadow="2" inkscape:zoom="7.7781746" inkscape:cx="28.168786" inkscape:cy="37.123605" inkscape:current-layer="layer1" showgrid="true" inkscape:document-units="px" inkscape:grid-bbox="true" inkscape:window-width="1365" inkscape:window-height="878" inkscape:window-x="-8" inkscape:window-y="-8" inkscape:window-maximized="1"/>
  <metadata id="metadata2990">
    <rdf:RDF>
      <cc:Work rdf:about="">
        <dc:format>image/svg+xml</dc:format>
        <dc:type rdf:resource="http://purl.org/dc/dcmitype/StillImage"/>
        <dc:title/>
      </cc:Work>
    </rdf:RDF>
  </metadata>
  <g id="layer1" inkscape:label="Layer 1" inkscape:groupmode="layer">
    <path style="fill:#000000" d="m 19.252392,56.662264 c 0,-1.705032 0.508148,-5.204573 1.046309,-7.205781 0.659903,-2.453912 1.676133,-4.300617 3.833551,-6.966372 1.011569,-1.249919 2.216758,-2.784927 2.678196,-3.411133 0.812181,-1.10219 2.321944,-3.564617 2.321944,-3.787095 0,-0.06014 -0.346888,-0.109351 -0.770864,-0.109351 -0.423975,0 -1.148972,-0.09521 -1.611105,-0.211574 -0.462133,-0.116368 -1.060797,-0.15622 -1.330367,-0.08856 -0.960495,0.24107 -2.156397,1.643334 -4.002401,4.693055 -2.28145,3.769104 -2.77408,4.449144 -3.491932,4.820361 -0.517688,0.267706 -0.684276,0.268377 -1.693672,0.0068 -0.61573,-0.159557 -1.347914,-0.2901 -1.627075,-0.2901 -0.850536,0 -1.242584,-0.323733 -1.242584,-1.026063 0,-0.849104 0.550801,-1.497146 1.688462,-1.986556 1.107746,-0.476539 1.773111,-1.229902 1.693077,-1.916996 -0.131769,-1.131237 -1.599541,-0.568926 -2.888965,1.106777 -1.786719,2.321975 -2.799921,2.686051 -3.92118,1.409008 -1.308674,-1.490497 -1.986573,-4.003466 -1.532583,-5.68128 0.294385,-1.087963 1.335212,-2.376662 2.832789,-3.507419 1.450174,-1.094964 3.349474,-3.325961 4.216794,-4.95322 0.831415,-1.559894 1.231792,-2.819839 1.911726,-6.016007 0.744889,-3.5015 1.113992,-4.558434 2.135058,-6.113795 0.753928,-1.148435 0.803738,-1.302233 0.678332,-2.094449 -0.201335,-1.271883 -0.190019,-4.65554 0.01739,-5.201079 0.212867,-0.559882 0.806226,-0.925657 1.234809,-0.761193 0.166782,0.064 0.60544,0.571647 0.974795,1.128104 0.871321,1.3127 3.138049,3.759687 3.299752,3.562162 0.06889,-0.08415 0.231798,-0.580494 0.362024,-1.102994 0.311813,-1.251057 1.596464,-3.898393 2.12246,-4.373844 l 0.416155,-0.376156 0.510846,0.611454 c 0.280964,0.3363 1.04221,1.686332 1.691659,3.000072 l 1.180816,2.388616 2.896363,-0.12921 2.896362,-0.129212 0.228605,0.854728 c 0.221986,0.829979 0.25436,0.858258 1.118051,0.97664 0.489195,0.06705 1.421388,0.121912 2.071537,0.121912 l 1.182093,0 0.102203,1.127098 c 0.05621,0.619904 0.150121,1.204634 0.20869,1.2994 0.05857,0.09477 0.99666,0.367659 2.084646,0.606427 l 1.978158,0.434124 -0.354008,1.163975 c -0.194704,0.640187 -0.354661,1.2982 -0.355459,1.462252 -9.5e-4,0.185591 0.892301,0.793057 2.364295,1.607955 l 2.365747,1.309678 -1.225747,0.665914 c -0.67416,0.366252 -1.225747,0.719367 -1.225747,0.784702 0,0.06533 0.89775,0.829647 1.995,1.698475 1.09725,0.868828 1.995,1.609798 1.995,1.646599 0,0.0368 -0.428425,0.330526 -0.952056,0.65272 l -0.952055,0.585806 0.557595,0.694937 c 0.306677,0.382215 1.119852,1.248218 1.807055,1.924449 0.687204,0.676231 1.249461,1.280385 1.249461,1.342564 0,0.06218 -0.513,0.358245 -1.14,0.657925 -0.627,0.299679 -1.14,0.626626 -1.14,0.72655 0,0.09992 0.820681,1.016994 1.823736,2.037935 l 1.823736,1.856256 -1.301236,0.122294 c -0.71568,0.06726 -1.444026,0.139093 -1.618547,0.159628 -0.238359,0.02805 0.0545,0.557365 1.17701,2.127337 0.821877,1.1495 1.499041,2.187195 1.504811,2.305986 0.0058,0.118792 -0.54526,0.32085 -1.22451,0.449014 -0.67925,0.128165 -1.235,0.314591 -1.235,0.41428 0,0.09969 0.584659,1.137384 1.299239,2.305986 0.714583,1.168605 1.400226,2.314559 1.523654,2.546568 l 0.224413,0.421834 -1.54983,-0.119513 -1.549828,-0.119514 0.717717,1.312679 c 0.394744,0.721974 0.919524,1.669905 1.166176,2.106513 0.246653,0.436609 0.448459,0.841503 0.448459,0.899764 0,0.05826 -0.519673,0.368264 -1.154829,0.688889 l -1.15483,0.582956 1.20233,1.125583 1.202329,1.125583 -0.665,0.569084 -0.665,0.569086 -17.2425,0.0051 -17.2425,0.0051 0,-1.130268 z m 32.022302,-2.147232 c -0.05006,-0.548625 -0.13772,-2.3655 -0.194801,-4.0375 -0.524252,-15.356218 -3.956283,-26.769748 -9.579901,-31.858831 -3.295877,-2.982597 -8.9476,-4.711887 -8.9476,-2.737749 0,0.576935 0.362454,0.863577 1.265547,1.000839 1.038855,0.157897 3.315847,1.237071 4.711563,2.233033 3.005615,2.144762 5.339807,5.842957 7.143409,11.317708 1.866193,5.664753 2.667121,11.289813 2.955569,20.7575 l 0.131691,4.3225 1.302771,0 1.30277,0 -0.09102,-0.9975 z M 12.579541,38.345065 c 0.117523,-0.141605 0.320367,-0.563546 0.450765,-0.937644 0.140072,-0.401854 0.509201,-0.863263 0.902086,-1.127603 0.728385,-0.490069 0.929953,-1.326057 0.346808,-1.438361 -0.592187,-0.114043 -1.829262,0.343541 -2.419591,0.894992 -0.489587,0.457343 -0.587217,0.692023 -0.587217,1.41154 0,0.676408 0.0913,0.926945 0.422276,1.15877 0.516116,0.3615 0.61316,0.365703 0.884873,0.03831 z M 36.977707,35.73444 c 0.104853,-0.166702 0.133673,-0.530077 0.06404,-0.8075 -0.124098,-0.49445 -0.157472,-0.504465 -1.690477,-0.507317 -2.021745,-0.0038 -2.327445,-0.200313 -1.008724,-0.648559 0.563073,-0.191395 1.438012,-0.661075 1.944307,-1.043733 0.789117,-0.596416 0.920536,-0.789543 0.920536,-1.352771 0,-0.574247 -0.06532,-0.664554 -0.518426,-0.716754 -0.353641,-0.04074 -0.746193,0.122608 -1.235,0.513921 -0.394115,0.315506 -1.027437,0.702827 -1.407378,0.860711 l -0.690804,0.287064 0.630198,-1.252556 c 1.06529,-2.117332 1.367734,-5.673311 0.534356,-6.28269 -0.41579,-0.304034 -0.482775,-0.302081 -0.933124,0.02722 -0.305212,0.223178 -0.386728,0.588187 -0.47899,2.144817 -0.133188,2.247173 -0.676664,3.621631 -1.985168,5.020527 -0.721956,0.77183 -0.850664,1.027541 -0.850664,1.69006 0,1.038768 0.26951,1.48766 1.107793,1.845126 1.167115,0.497692 1.763392,0.589351 3.622044,0.556791 1.403713,-0.02459 1.825545,-0.09599 1.975478,-0.33436 z M 20.916752,33.99598 c 0.46167,-0.595591 1.970867,-2.043448 2.13002,-2.043448 0.07239,0 0.408559,0.427386 0.747038,0.949747 0.656901,1.01377 1.245049,1.310717 1.900886,0.959725 0.47993,-0.256852 0.539664,-1.17512 0.100168,-1.539869 -0.16364,-0.13581 -0.41892,-0.481673 -0.567289,-0.768586 -0.267925,-0.518109 -0.263959,-0.523874 0.582529,-0.847151 0.728969,-0.278396 0.852288,-0.40238 0.852288,-0.856875 0,-1.000031 -1.190876,-0.901187 -3.730125,0.309601 -1.722611,0.821393 -3.299875,2.442716 -3.299875,3.392053 0,0.339912 0.057,0.675022 0.126668,0.744688 0.261428,0.26143 0.838452,0.111959 1.157692,-0.299885 z m 0.706854,-10.056293 c 0.374123,-0.170463 0.541479,-0.170463 0.711941,0 0.122565,0.122565 0.594381,0.222845 1.048481,0.222845 1.467225,0 2.152405,-1.15688 1.468485,-2.479435 -0.259625,-0.502061 -0.259692,-0.61894 -5.7e-4,-1.119887 0.205662,-0.397705 0.238733,-0.692154 0.114456,-1.019028 -0.3426,-0.901107 -1.668363,-0.777662 -2.175247,0.202543 -0.276386,0.53447 -1.501082,1.713356 -2.483186,2.390301 -0.669564,0.461518 -0.623877,1.424399 0.0845,1.780872 0.587585,0.295687 0.628481,0.296411 1.231214,0.02179 z m 3.179385,-9.066359 c 0.151003,-0.134739 -1.053168,-1.73634 -1.491156,-1.983304 -0.504073,-0.284228 -0.829443,0.228493 -0.829443,1.307044 l 0,1.008008 1.0925,-0.105376 c 0.600875,-0.05796 1.153521,-0.159824 1.228099,-0.226372 z m 4.946901,-0.712747 c 0.391875,-0.06477 0.7125,-0.216255 0.7125,-0.336627 0,-0.456056 -1.367958,-2.771422 -1.637405,-2.771422 -0.474868,0 -1.211821,2.272832 -0.954434,2.943569 0.117194,0.305406 0.711863,0.357452 1.879339,0.16448 z" id="path3303" inkscape:connector-curvature="0"/>
    <path style="fill:#ffffff" d="M 48.760658,53.110057 C 48.51815,46.465306 48.275192,42.914405 47.843613,39.707169 46.977141,33.268072 44.835542,26.823047 42.296448,23.013277 c -0.88601,-1.329409 -3.019201,-3.524352 -4.070125,-4.187947 -1.300958,-0.821478 -2.939874,-1.589733 -4.122432,-1.932425 -1.162796,-0.336965 -1.475436,-0.560347 -1.482672,-1.05937 -0.006,-0.416788 0.469267,-0.682733 1.213743,-0.679113 2.566722,0.01248 6.651372,2.236607 8.858789,4.823686 3.065737,3.593025 5.27575,8.848538 6.70147,15.936397 0.942667,4.686402 1.351142,8.510406 1.668573,15.620632 0.03946,0.883884 0.105675,2.113285 0.147144,2.732004 l 0.0754,1.124942 -1.221195,0 -1.221195,0 -0.08329,-2.282026 z" id="path3305" inkscape:connector-curvature="0"/>
    <path style="fill:#ffffff" d="m 32.070633,35.676377 c -1.032383,-0.351824 -1.464917,-0.722047 -1.651018,-1.413171 -0.20982,-0.779213 -0.05668,-1.218648 0.791043,-2.269929 1.349898,-1.674036 1.681831,-2.549389 1.973095,-5.203324 0.159226,-1.450835 0.220619,-1.698222 0.471943,-1.901731 0.369739,-0.299397 0.603234,-0.248417 0.940564,0.205358 0.237408,0.31936 0.269552,0.533127 0.260984,1.735626 -0.01144,1.605791 -0.308452,2.835052 -1.085787,4.49384 -0.47041,1.003829 -0.483854,1.064624 -0.217204,0.982215 0.43446,-0.134272 1.268628,-0.573295 1.698457,-0.893898 0.657943,-0.490751 1.231124,-0.729161 1.556625,-0.647465 0.259155,0.06504 0.307566,0.156778 0.307566,0.582815 0,0.706671 -0.623582,1.277209 -2.282027,2.087909 -0.724784,0.354297 -1.31779,0.69452 -1.31779,0.75605 0,0.163482 0.426829,0.228505 1.818749,0.277069 1.371022,0.04784 1.652503,0.175266 1.652503,0.74811 0,0.647172 -0.353404,0.763353 -2.310633,0.759618 -1.471983,-0.0028 -1.872493,-0.04876 -2.60707,-0.299092 z" id="path3307" inkscape:connector-curvature="0"/>
    <path style="fill:#ffffff" d="m 19.846353,34.221735 c -0.127932,-0.127932 -0.103454,-0.879398 0.04102,-1.2594 0.0697,-0.183332 0.397846,-0.623173 0.729208,-0.977426 1.557228,-1.664802 5.215214,-3.238736 5.82356,-2.505724 0.32302,0.389215 0.103392,0.762357 -0.669092,1.136773 -0.473278,0.229394 -0.739138,0.437545 -0.738942,0.578542 1.67e-4,0.121129 0.232553,0.562131 0.51641,0.980004 0.554622,0.816473 0.574224,1.112809 0.100694,1.522257 -0.143111,0.123744 -0.377113,0.224989 -0.520005,0.224989 -0.258419,0 -0.953846,-0.653527 -1.720354,-1.616702 l -0.401582,-0.504618 -1.277408,1.253507 c -1.177364,1.155336 -1.620947,1.430362 -1.883511,1.167798 z" id="path3309" inkscape:connector-curvature="0"/>
    <path style="fill:#ffffff" d="m 22.8462,23.993902 c -0.509703,-0.147374 -1.00427,-0.156324 -1.699745,-0.03076 -0.419552,0.07575 -0.526267,0.03848 -0.867813,-0.303065 -0.562419,-0.56242 -0.506474,-0.874697 0.279629,-1.560848 0.75467,-0.658713 1.868158,-1.774861 2.55667,-2.562776 0.538491,-0.616234 1.093058,-0.709209 1.543495,-0.258772 0.2752,0.2752 0.280892,0.481702 0.04481,1.625717 -0.0552,0.267484 -0.01177,0.60216 0.121283,0.934697 0.327134,0.817588 0.270706,1.24648 -0.229851,1.747037 -0.240416,0.240417 -0.553882,0.437121 -0.696592,0.437121 -0.142709,0 -0.33652,0.02289 -0.430692,0.05088 -0.09417,0.02798 -0.373711,-0.0077 -0.621198,-0.07923 z" id="path3311" inkscape:connector-curvature="0"/>
    <path style="fill:#ffffff" d="m 11.87884,38.315799 c -0.427362,-0.258334 -0.547946,-0.652181 -0.495284,-1.61767 0.04205,-0.770844 1.539466,-1.74786 2.678853,-1.74786 0.375614,0 0.427075,0.0408 0.427075,0.33859 0,0.237467 -0.197394,0.532895 -0.660929,0.989176 -0.363511,0.357822 -0.791315,0.945413 -0.950676,1.305757 -0.392525,0.887569 -0.550369,1.003223 -0.999039,0.732007 l 0,0 z" id="path3313" inkscape:connector-curvature="0"/>
    <path style="fill:#ffffff" d="m 22.58907,14.271394 c 0,-0.666217 0.05836,-0.963603 0.230897,-1.176683 l 0.230898,-0.285146 0.415933,0.349985 c 0.437117,0.36781 1.17931,1.367952 1.17931,1.58918 0,0.07132 -0.274807,0.164681 -0.610683,0.207479 -0.335876,0.0428 -0.798709,0.106819 -1.028519,0.142268 l -0.417836,0.06445 0,-0.891536 z" id="path3315" inkscape:connector-curvature="0"/>
    <path style="fill:#ffffff" d="m 28.219824,14.163865 c -0.326681,-0.08599 -0.400201,-0.491613 -0.224352,-1.237794 0.182186,-0.773069 0.615332,-1.760303 0.772328,-1.760303 0.299656,0 1.76526,2.524709 1.572913,2.709563 -0.103737,0.0997 -1.514442,0.38832 -1.764847,0.36108 -0.0754,-0.0082 -0.23562,-0.04085 -0.356042,-0.07255 z" id="path3317" inkscape:connector-curvature="0"/>
  </g>
</svg>