<?xml version="1.0" encoding="UTF-8" standalone="no"?>
<!-- Created with Inkscape (http://www.inkscape.org/) -->
<svg xmlns:dc="http://purl.org/dc/elements/1.1/" xmlns:cc="http://creativecommons.org/ns#" xmlns:rdf="http://www.w3.org/1999/02/22-rdf-syntax-ns#" xmlns:svg="http://www.w3.org/2000/svg" xmlns="http://www.w3.org/2000/svg" xmlns:sodipodi="http://sodipodi.sourceforge.net/DTD/sodipodi-0.dtd" xmlns:inkscape="http://www.inkscape.org/namespaces/inkscape" width="64px" height="64px" id="svg2985" version="1.1" inkscape:version="0.48.1 " sodipodi:docname="wp.svg">
  <defs id="defs2987"/>
  <sodipodi:namedview id="base" pagecolor="#ffffff" bordercolor="#666666" borderopacity="1.0" inkscape:pageopacity="0.0" inkscape:pageshadow="2" inkscape:zoom="7.7781746" inkscape:cx="28.168786" inkscape:cy="37.123605" inkscape:current-layer="layer1" showgrid="true" inkscape:document-units="px" inkscape:grid-bbox="true" inkscape:window-width="1365" inkscape:window-height="878" inkscape:window-x="-8" inkscape:window-y="-8" inkscape:window-maximized="1"/>
  <metadata id="metadata2990">
    <rdf:RDF>
      <cc:Work rdf:about="">
        <dc:format>image/svg+xml</dc:format>
        <dc:type rdf:resource="http://purl.org/dc/dcmitype/StillImage"/>
        <dc:title/>
      </cc:Work>
    </rdf:RDF>
  </metadata>
  <g id="layer1" inkscape:label="Layer 1" inkscape:groupmode="layer">
    <path style="fill:#000000" d="m 21.453473,58.597099 c 0,-0.05384 0.906069,-1.693693 2.013487,-3.644103 l 2.013486,-3.546204 -0.825781,-0.678395 c -1.891221,-1.55368 -3.185825,-3.388173 -3.825254,-5.420506 -0.601026,-1.910277 -0.599638,-5.329776 0.0029,-7.245468 0.756558,-2.40521 2.927023,-5.205533 4.926695,-6.356399 l 0.769421,-0.442823 0.121732,-2.3866 c 0.06695,-1.31263 0.122078,-3.345675 0.122502,-4.517878 l 7.79e-4,-2.131278 -2.091459,-0.05372 -2.09145,-0.05372 3.099995,-3.610085 3.099995,-3.610084 -0.561132,-0.464713 c -1.425006,-1.180148 -1.958011,-4.092841 -1.086279,-5.936146 0.855391,-1.80875 2.961138,-3.193972 4.85532,-3.193972 1.865079,0 3.957099,1.370178 4.775538,3.127761 0.914978,1.964895 0.415855,4.807366 -1.062592,6.051397 l -0.532508,0.448076 3.116624,3.593883 3.116625,3.593883 -1.970475,0.05363 -1.970474,0.05363 -0.123869,2.303695 c -0.06813,1.267032 -0.123869,3.265397 -0.123869,4.440811 l 0,2.137116 0.821566,0.48147 c 2.114672,1.239281 4.126435,3.740969 5.039016,6.26617 0.681977,1.887097 0.719126,5.240882 0.08054,7.271045 -0.550413,1.749847 -1.958254,3.888114 -3.446917,5.235279 l -1.185403,1.072727 2.0056,3.522486 c 1.103081,1.937367 2.0056,3.570736 2.0056,3.629708 0,0.05897 -4.74525,0.107223 -10.545,0.107223 -5.79975,0 -10.545,-0.04406 -10.545,-0.0979 z" id="path3151" inkscape:connector-curvature="0"/>
  </g>
</svg>