<?xml version="1.0" encoding="UTF-8" standalone="no"?>
<!-- Created with Inkscape (http://www.inkscape.org/) -->

<svg
   xmlns:dc="http://purl.org/dc/elements/1.1/"
   xmlns:cc="http://creativecommons.org/ns#"
   xmlns:rdf="http://www.w3.org/1999/02/22-rdf-syntax-ns#"
   xmlns:svg="http://www.w3.org/2000/svg"
   xmlns="http://www.w3.org/2000/svg"
   xmlns:sodipodi="http://sodipodi.sourceforge.net/DTD/sodipodi-0.dtd"
   xmlns:inkscape="http://www.inkscape.org/namespaces/inkscape"
   width="64px"
   height="64px"
   id="svg3072"
   version="1.1"
   inkscape:version="0.48.1 "
   sodipodi:docname="wq.svg">
  <defs
     id="defs3074" />
  <sodipodi:namedview
     id="base"
     pagecolor="#ffffff"
     bordercolor="#666666"
     borderopacity="1.0"
     inkscape:pageopacity="0.0"
     inkscape:pageshadow="2"
     inkscape:zoom="7.7781746"
     inkscape:cx="29.77313"
     inkscape:cy="30.538275"
     inkscape:current-layer="layer1"
     showgrid="true"
     inkscape:document-units="px"
     inkscape:grid-bbox="true"
     inkscape:window-width="1365"
     inkscape:window-height="878"
     inkscape:window-x="-8"
     inkscape:window-y="-8"
     inkscape:window-maximized="1" />
  <metadata
     id="metadata3077">
    <rdf:RDF>
      <cc:Work
         rdf:about="">
        <dc:format>image/svg+xml</dc:format>
        <dc:type
           rdf:resource="http://purl.org/dc/dcmitype/StillImage" />
        <dc:title></dc:title>
      </cc:Work>
    </rdf:RDF>
  </metadata>
  <g
     id="layer1"
     inkscape:label="Layer 1"
     inkscape:groupmode="layer">
    <path
       style="fill:#000000"
       d="m 9.3968177,58.614746 c -0.925411,-0.620415 -1.661491,-1.601482 -2.0616171,-2.747779 -0.5473676,-1.568119 -0.5473676,-1.997567 0,-3.565687 0.7785531,-2.230431 2.8353924,-3.712714 5.1518144,-3.712714 1.646021,0 1.650106,-0.0042 1.382424,-1.428219 -0.373521,-1.987037 0.729839,-3.953441 2.716325,-4.841033 L 18.168646,41.612061 12.12123,30.011565 C 8.7951497,23.631292 6.164072,18.320989 6.2743897,18.210894 c 0.1103172,-0.110096 0.2005767,0.01374 0.2005767,0.275197 0,0.94401 3.5969096,2.624687 5.6172386,2.624687 2.109606,0 4.24952,-1.352005 4.779992,-3.020015 0.265149,-0.833732 0.330902,-0.817791 1.61109,0.390576 1.232574,1.163425 2.851715,2.206704 3.424745,2.206704 0.131802,0 0.242776,-0.523135 0.246608,-1.162522 0.01081,-1.802455 1.724975,-4.415386 3.814552,-5.814567 l 1.8969,-1.270164 -0.582703,-1.688983 c -0.505529,-1.4652919 -0.49619,-1.8945799 0.07052,-3.2413579 1.733725,-4.120199 7.338795,-4.120199 9.072519,0 0.566706,1.346778 0.576046,1.776066 0.07052,3.2413579 l -0.582703,1.688983 1.889698,1.270164 c 2.01096,1.35167 3.358574,3.26863 3.795029,5.398375 0.38973,1.901732 1.107184,1.875053 3.101582,-0.115335 1.189563,-1.187171 1.83735,-1.583562 1.963316,-1.201376 0.103393,0.31371 0.805441,1.188632 1.560103,1.944271 1.107883,1.10931 1.710621,1.373889 3.129861,1.373889 1.876781,0 3.873543,-0.823744 5.422053,-2.236813 0.524188,-0.478341 0.95307,-0.783491 0.95307,-0.678111 0,0.10538 -2.731007,5.415072 -6.068904,11.799316 l -6.068899,11.607714 1.637183,0.731518 c 2.050549,0.916211 3.158423,3.146655 2.499682,5.032514 -0.42634,1.220543 -0.425115,1.22165 1.351483,1.223231 0.991714,8.46e-4 2.355256,0.352756 3.082872,0.795562 1.382676,0.841459 2.719409,3.15098 2.719409,4.698415 0,1.547435 -1.336733,3.856955 -2.719409,4.698414 C 52.9323,59.531126 51.656482,59.576612 31.846916,59.5781 L 10.836123,59.5797 9.3968247,58.614765 z M 48.764793,49.481844 c 0.07863,-0.554967 -0.111988,-1.170305 -0.423586,-1.367418 -0.638892,-0.404151 -31.68453,-0.513002 -32.724484,-0.114734 -0.669223,0.256287 -0.926008,1.883433 -0.382784,2.425566 0.157982,0.157663 7.734888,0.236926 16.837569,0.176141 l 16.550329,-0.110525 0.142956,-1.00903 z m -3.813317,-8.240488 c 0.08428,-0.43715 -0.103792,-0.957372 -0.417932,-1.156049 -0.643072,-0.406714 -24.063128,-0.516409 -25.104541,-0.117584 -0.678761,0.25994 -0.910339,1.476335 -0.381536,2.004078 0.158668,0.158348 6.017503,0.237611 13.019632,0.176136 12.075957,-0.106013 12.739031,-0.15267 12.884377,-0.906581 z m -10.42895,-5.478318 2.420568,-1.38608 -2.324056,-1.137532 c -1.27823,-0.625643 -2.5581,-1.134289 -2.844154,-1.130324 -0.286054,0.004 -1.440348,0.547933 -2.565097,1.208818 l -2.044997,1.20161 2.256791,1.303812 c 1.241235,0.717097 2.352098,1.308754 2.468584,1.314794 0.116486,0.006 1.301049,-0.612754 2.632361,-1.375098 z m -10.054511,-2.69237 c 1.286511,-0.629696 2.33911,-1.255875 2.33911,-1.39151 0,-0.135634 -1.073464,-0.772026 -2.385476,-1.414204 l -2.385477,-1.167596 -2.27297,1.185217 c -1.250134,0.651868 -2.273423,1.288545 -2.273976,1.414836 -7.63e-4,0.171318 3.934409,2.330195 4.543165,2.492437 0.05308,0.01414 1.149113,-0.489484 2.435624,-1.11918 z m 19.484987,0 c 1.286508,-0.629696 2.339108,-1.255875 2.339108,-1.39151 0,-0.135634 -1.048376,-0.759747 -2.329726,-1.386917 l -2.329727,-1.140308 -2.329726,1.140308 c -1.28135,0.62717 -2.329727,1.251567 -2.329727,1.387549 0,0.183703 3.901534,2.338786 4.544174,2.510058 0.05308,0.01414 1.14911,-0.489484 2.435624,-1.11918 z m -9.742495,-3.381882 c 1.286511,-0.629695 2.339111,-1.255875 2.339111,-1.391509 0,-0.135635 -1.048377,-0.759748 -2.329727,-1.386917 l -2.329726,-1.140308 -2.329727,1.140308 c -1.281349,0.627169 -2.329726,1.251566 -2.329726,1.387549 0,0.183702 3.901533,2.338785 4.544172,2.510057 0.05308,0.01414 1.149112,-0.489484 2.435623,-1.11918 z m -5.393243,-7.537292 c 0.857638,-0.357624 1.870546,-0.931295 2.250906,-1.274824 0.614962,-0.555414 0.910854,-0.50228 2.671362,0.479709 1.256889,0.701077 2.917191,1.189136 4.546987,1.336623 l 2.567188,0.232317 -0.140008,-1.224322 C 40.587157,20.59443 40.390358,20.454218 38.667551,20.243184 36.424117,19.968376 34.289587,18.921048 32.880563,17.403742 l -1.011138,-1.088843 -1.366287,1.290376 c -1.794621,1.694912 -2.961511,2.263451 -5.336003,2.599839 -1.740537,0.246577 -1.975534,0.407822 -2.094528,1.437171 -0.130627,1.129975 -0.07916,1.159434 2.025641,1.159434 1.187821,0 2.861378,-0.292601 3.719016,-0.650225 z m 5.932111,-7.89407 c 0.698532,-0.576083 0.671005,-1.38061 -0.06819,-1.992851 -0.408573,-0.338403 -0.684519,-0.35478 -0.872172,-0.05176 -0.361144,0.583169 -3.315024,0.571743 -3.903047,-0.0151 -0.329985,-0.329322 -0.648219,-0.189156 -1.130416,0.497892 -0.61689,0.878964 -0.612293,0.997322 0.05688,1.46438 1.514162,1.056838 4.690203,1.10914 5.916946,0.09744 z"
       id="path3125"
       inkscape:connector-curvature="0" />
    <path
       style="fill:#ffffff;fill-opacity:1;fill-rule:evenodd"
       d="m 15.913837,50.447709 c -0.333779,-0.03069 -0.646531,-0.14263 -0.739248,-0.264586 -0.38934,-0.512127 -0.03697,-1.969082 0.522861,-2.161887 0.44672,-0.153851 23.090536,-0.217491 28.046124,-0.07883 4.405351,0.123271 4.4998,0.131452 4.724759,0.409263 0.253017,0.312463 0.321376,1.581961 0.103727,1.926336 -0.107188,0.169599 -2.048181,0.194659 -16.100781,0.207872 -8.788395,0.0083 -16.239244,-0.0089 -16.557442,-0.03817 z"
       id="path3127"
       inkscape:connector-curvature="0" />
    <path
       style="fill:#ffffff;fill-opacity:1;fill-rule:evenodd"
       d="m 19.320806,41.935452 c -0.374127,-0.08147 -0.385602,-0.10597 -0.382614,-0.817113 0.0017,-0.403221 0.07118,-0.801232 0.154422,-0.88447 0.284206,-0.284205 1.387019,-0.356689 6.720718,-0.441729 5.386878,-0.08589 17.540049,0.114447 18.384777,0.303058 0.511993,0.114318 0.842226,0.626403 0.71944,1.11562 -0.115104,0.458613 -0.695475,0.592475 -3.09789,0.714526 -2.513462,0.127693 -21.918809,0.136411 -22.498853,0.01011 l 0,0 z"
       id="path3129"
       inkscape:connector-curvature="0" />
    <path
       style="fill:#ffffff;fill-opacity:1;fill-rule:evenodd"
       d="m 29.449481,35.789507 -2.213553,-1.255056 0.670774,-0.419512 c 0.368926,-0.230731 1.380948,-0.780212 2.248938,-1.221069 l 1.578162,-0.801557 0.671723,0.236615 c 0.369447,0.130138 1.52641,0.644448 2.571028,1.142912 l 1.899305,0.906298 -2.235444,1.264294 c -1.229495,0.695362 -2.40238,1.295307 -2.606412,1.333213 -0.300671,0.05586 -0.790429,-0.16891 -2.584521,-1.186138 l 0,0 z"
       id="path3131"
       inkscape:connector-curvature="0" />
    <path
       style="fill:#ffffff;fill-opacity:1;fill-rule:evenodd"
       d="m 20.285043,33.295603 c -0.813173,-0.428427 -1.757461,-0.956851 -2.098418,-1.174277 -0.596623,-0.380462 -0.611119,-0.403813 -0.385695,-0.621318 0.281552,-0.271659 3.714622,-2.154266 4.118929,-2.258714 0.200659,-0.05184 0.884848,0.236676 2.314168,0.975852 1.116105,0.577196 2.137964,1.156094 2.270796,1.28644 0.235741,0.231329 0.228059,0.245522 -0.321412,0.593811 -0.810182,0.513544 -3.918476,1.981829 -4.190094,1.979301 -0.126378,-0.0012 -0.895101,-0.352669 -1.708274,-0.781095 z"
       id="path3133"
       inkscape:connector-curvature="0" />
    <path
       style="fill:#ffffff;fill-opacity:1;fill-rule:evenodd"
       d="m 31.123744,30.485666 c -0.673564,-0.305797 -3.228599,-1.740275 -3.574786,-2.006999 -0.254564,-0.196131 -0.253922,-0.200555 0.06428,-0.443337 0.176776,-0.134875 1.212495,-0.692274 2.301598,-1.238663 l 1.980186,-0.993434 2.069607,1.051581 c 1.138284,0.57837 2.18191,1.138662 2.319169,1.245093 0.247038,0.191554 0.247038,0.195513 0,0.39163 -0.295375,0.234491 -4.337692,2.24589 -4.505333,2.241789 -0.06349,-0.0016 -0.358114,-0.113 -0.654724,-0.24766 l 0,0 z"
       id="path3135"
       inkscape:connector-curvature="0" />
    <path
       style="fill:#ffffff;fill-opacity:1;fill-rule:evenodd"
       d="m 40.046717,33.440351 c -1.857063,-0.962159 -2.855394,-1.593497 -2.855394,-1.805733 0,-0.113991 0.871168,-0.633819 2.210559,-1.319045 l 2.210559,-1.130912 2.032082,1.0179 c 1.117645,0.559845 2.170732,1.130389 2.340193,1.267874 l 0.308111,0.249974 -0.466165,0.288106 c -0.810472,0.500899 -3.791915,1.943856 -4.16416,2.015367 -0.265268,0.05096 -0.680793,-0.0991 -1.615785,-0.583531 l 0,0 z"
       id="path3137"
       inkscape:connector-curvature="0" />
    <path
       style="fill:#ffffff;fill-opacity:1;fill-rule:evenodd"
       d="m 39.762621,22.804433 c -2.776944,-0.248587 -4.560799,-0.702541 -6.181066,-1.572952 -0.500448,-0.268842 -1.126107,-0.560157 -1.390353,-0.647366 -0.456238,-0.150572 -0.514662,-0.135845 -1.159395,0.292233 -1.883465,1.25055 -3.352591,1.727684 -5.668452,1.840967 -1.943133,0.09505 -2.249885,-5.54e-4 -2.249885,-0.701209 0,-0.744983 0.225913,-1.264379 0.619028,-1.423204 0.189865,-0.07671 1.062107,-0.280749 1.938316,-0.453423 2.308859,-0.455005 2.861522,-0.760747 5.33239,-2.94996 l 0.851487,-0.754426 1.135087,1.080183 c 1.645218,1.565638 3.209163,2.336439 5.572628,2.746507 1.901987,0.33 1.977544,0.393263 2.146578,1.797332 0.112425,0.933854 0.21932,0.849668 -0.946363,0.745318 l 0,0 z"
       id="path3139"
       inkscape:connector-curvature="0" />
    <path
       style="fill:#ffffff;fill-opacity:1;fill-rule:evenodd"
       d="m 30.342692,14.731394 c -1.13708,-0.319639 -1.958062,-0.817562 -1.958062,-1.187557 0,-0.240687 0.7469,-1.319701 0.973766,-1.406758 0.09793,-0.03758 0.434824,0.05598 0.748661,0.207905 0.450352,0.218012 0.814585,0.277388 1.728205,0.281729 1.242499,0.0059 1.63037,-0.06674 1.976053,-0.370066 0.136988,-0.120205 0.338862,-0.162998 0.535782,-0.113574 0.350593,0.08799 0.851471,0.79977 0.851471,1.209989 0,0.396432 -0.572219,0.998545 -1.188746,1.250849 -0.753636,0.308415 -2.773673,0.378638 -3.66713,0.127483 l 0,0 z"
       id="path3141"
       inkscape:connector-curvature="0" />
  </g>
</svg>
