<?xml version="1.0" encoding="UTF-8" standalone="no"?>
<!-- Created with Inkscape (http://www.inkscape.org/) -->
<svg xmlns:dc="http://purl.org/dc/elements/1.1/" xmlns:cc="http://creativecommons.org/ns#" xmlns:rdf="http://www.w3.org/1999/02/22-rdf-syntax-ns#" xmlns:svg="http://www.w3.org/2000/svg" xmlns="http://www.w3.org/2000/svg" xmlns:sodipodi="http://sodipodi.sourceforge.net/DTD/sodipodi-0.dtd" xmlns:inkscape="http://www.inkscape.org/namespaces/inkscape" width="64px" height="64px" id="svg2985" version="1.1" inkscape:version="0.48.1 " sodipodi:docname="wq.svg">
  <defs id="defs2987"/>
  <sodipodi:namedview id="base" pagecolor="#ffffff" bordercolor="#666666" borderopacity="1.0" inkscape:pageopacity="0.0" inkscape:pageshadow="2" inkscape:zoom="5.5" inkscape:cx="1.8181818" inkscape:cy="32" inkscape:current-layer="layer1" showgrid="true" inkscape:document-units="px" inkscape:grid-bbox="true" inkscape:window-width="1365" inkscape:window-height="878" inkscape:window-x="-8" inkscape:window-y="-8" inkscape:window-maximized="1"/>
  <metadata id="metadata2990">
    <rdf:RDF>
      <cc:Work rdf:about="">
        <dc:format>image/svg+xml</dc:format>
        <dc:type rdf:resource="http://purl.org/dc/dcmitype/StillImage"/>
        <dc:title/>
      </cc:Work>
    </rdf:RDF>
  </metadata>
  <g id="layer1" inkscape:label="Layer 1" inkscape:groupmode="layer">
    <path style="fill:#000000" d="m 26.067471,58.511721 c -6.208178,-0.451524 -11.570033,-1.625627 -13.136902,-2.876632 -0.159764,-0.127557 -0.125874,-0.412743 0.128653,-1.082603 0.988959,-2.602728 1.222398,-6.94378 0.543029,-10.098234 -0.256669,-1.191769 -0.441772,-3.031463 -0.544838,-5.415 -0.235378,-5.443418 -0.938954,-9.026923 -2.579591,-13.138551 -0.464943,-1.165202 -0.8453512,-2.192865 -0.8453512,-2.283692 0,-0.09083 -0.627064,-0.133477 -1.393476,-0.09477 -1.205325,0.06087 -1.524414,0.004 -2.363218,-0.421038 -1.611623,-0.816671 -2.516337,-2.346688 -2.509134,-4.243343 0.0054,-1.425057 0.472777,-2.432156 1.581655,-3.408229 3.813465,-3.356746 9.4823412,1.07104 7.1712172,5.601217 -0.211166,0.413919 -0.750262,1.071215 -1.197991,1.460656 -0.667351,0.580472 -0.712431,0.656326 -0.250152,0.420912 l 0.563902,-0.287162 2.731775,4.553348 c 3.022797,5.038428 3.323475,5.368346 4.759204,5.22201 0.972226,-0.09909 1.514015,-0.564298 1.718025,-1.475172 0.09121,-0.407244 -0.08718,-2.753862 -0.482442,-6.346182 -0.344943,-3.135 -0.629913,-5.801196 -0.633266,-5.92488 -0.0034,-0.123684 0.229026,-0.260498 0.516401,-0.304032 0.309757,-0.04692 0.135694,-0.09244 -0.4275,-0.111793 -1.729285,-0.05942 -3.330221,-1.059667 -4.144258,-2.589295 -0.570226,-1.071493 -0.564955,-3.115822 0.01085,-4.207085 0.517521,-0.980809 1.801931,-2.0992438 2.695994,-2.3476118 1.050539,-0.291836 2.50111,-0.217417 3.337416,0.17122 0.945632,0.439443 2.072511,1.5979878 2.460723,2.5298738 0.40242,0.965988 0.370182,2.722306 -0.06725,3.663603 -0.459722,0.989273 -1.67467,2.143527 -2.605417,2.475263 -0.721705,0.257229 -0.725429,0.263271 -0.168059,0.272674 0.565043,0.0095 0.581364,0.04059 1.876467,3.57084 2.51595,6.85809 2.725569,7.343006 3.32808,7.698917 0.996848,0.588852 2.526437,0.351795 3.04041,-0.471207 0.142056,-0.227464 0.554407,-3.26102 0.984259,-7.24091 0.406879,-3.767192 0.825045,-6.902137 0.929258,-6.966544 0.104213,-0.06441 -0.172311,-0.215614 -0.614498,-0.336016 -2.629688,-0.716028 -3.965308,-4.009414 -2.648355,-6.5303478 1.787309,-3.4213 6.46145,-3.4213 8.248759,0 1.316952,2.5209338 -0.01866,5.8143198 -2.648355,6.5303478 -0.442187,0.120402 -0.718016,0.272038 -0.612953,0.336971 0.105062,0.06493 0.48898,3.018748 0.853151,6.564036 0.364169,3.545286 0.750156,6.766103 0.857747,7.15737 0.231994,0.843665 0.937012,1.283606 2.057016,1.283606 1.409304,0 1.61386,-0.335082 3.824014,-6.26412 l 1.995001,-5.351859 0.95,0.119707 c 0.5225,0.06584 1.002649,0.178558 1.066996,0.250489 0.06435,0.07193 -0.185024,2.836054 -0.55416,6.142499 -0.753616,6.750322 -0.74369,6.905198 0.479733,7.485749 0.752509,0.35709 1.720614,0.28313 2.436843,-0.186162 0.244323,-0.160085 1.667404,-2.342022 3.162404,-4.848749 1.836107,-3.07867 2.802325,-4.527679 2.977471,-4.46522 0.142608,0.05085 -0.01771,-0.223024 -0.356267,-0.608618 -0.857196,-0.976292 -1.184173,-1.866068 -1.184897,-3.224367 -0.0019,-3.46564 3.571871,-5.67602 6.676,-4.129167 3.259252,1.624154 3.462896,6.139947 0.369276,8.188655 -0.705111,0.466949 -0.968949,0.526163 -2.344414,0.526163 -0.893342,0 -1.55831,0.08049 -1.569765,0.19 -0.01093,0.1045 -0.405859,1.1305 -0.877615,2.28 -1.602626,3.905011 -2.359124,7.635346 -2.523803,12.445 -0.08303,2.425133 -0.213801,3.565223 -0.577507,5.035 -0.903558,3.651382 -0.78192,7.993543 0.313082,11.17622 l 0.365952,1.063654 -0.604666,0.368461 c -1.431441,0.872273 -5.664084,1.820709 -10.294664,2.30679 -2.603547,0.2733 -11.466137,0.389816 -14.25,0.187344 z m -5.985,-4.246109 c 3.250033,-0.669447 5.015565,-0.78636 11.875,-0.78636 6.857111,0 8.299131,0.09641 11.779783,0.787537 0.835882,0.165974 2.118382,0.504957 2.85,0.753293 0.73162,0.248335 1.337043,0.452116 1.345388,0.452846 0.104628,0.0091 -0.474973,-3.099478 -0.601487,-3.225991 -0.261645,-0.261646 -3.196271,-0.905905 -5.823659,-1.27851 -2.994265,-0.424637 -15.24219,-0.483492 -18.385025,-0.08835 -2.465948,0.31004 -6.270544,1.098715 -6.524282,1.352455 -0.10365,0.103648 -0.285958,0.861076 -0.40513,1.68317 l -0.216677,1.494716 1.340545,-0.425641 c 0.737299,-0.234105 1.981794,-0.55773 2.765544,-0.719168 z m -0.989726,-6.72386 c 0.950177,-0.809875 1.732574,-1.519768 1.73866,-1.57754 0.01296,-0.122941 -4.531705,-1.020837 -4.635692,-0.915881 -0.03865,0.03901 0.0041,0.455671 0.09497,0.925921 0.09088,0.47025 0.168961,1.289625 0.173512,1.820833 0.01443,1.684483 0.39845,1.647472 2.628549,-0.253333 z m 28.3895,-0.514391 c 0.07413,-1.040541 0.113009,-1.913659 0.0864,-1.940265 -0.0266,-0.02661 -1.09315,0.142419 -2.370102,0.375607 l -2.321728,0.423982 1.760326,1.562024 c 1.330041,1.180211 1.876434,1.550844 2.235327,1.516283 0.461599,-0.04445 0.478802,-0.09911 0.609774,-1.937631 z m -13.299813,-0.21815 2.12363,-1.065042 -2.174296,-1.038416 -2.174295,-1.038417 -2.0425,1.004065 c -1.123375,0.552235 -2.0425,1.051834 -2.0425,1.110219 0,0.111152 3.787503,2.062285 4.040665,2.081547 0.08012,0.0061 1.101299,-0.468184 2.269296,-1.053956 z M 21.939134,41.292608 c 3.552519,-0.434454 16.04872,-0.498324 19.803337,-0.101219 2.164124,0.228888 4.99528,0.658141 6.006211,0.91065 0.354996,0.08867 0.416311,-0.0054 0.532283,-0.816288 0.253396,-1.771864 0.359545,-1.611525 -1.313494,-1.984065 -7.855805,-1.749273 -23.97695,-1.633248 -31.085924,0.223726 l -0.685924,0.179174 0.379217,1.28771 0.379216,1.287708 1.593371,-0.322586 c 0.876354,-0.177424 2.852623,-0.476588 4.391707,-0.66481 z M 42.854389,17.969977 c -1.861561,-0.665021 -3.015595,-2.36557 -3.007746,-4.432123 0.01205,-3.171063 2.939559,-5.2979928 6.088244,-4.4232988 0.894062,0.248368 2.178474,1.3668028 2.695994,2.3476118 0.575802,1.091263 0.581073,3.135592 0.01085,4.207085 -1.108073,2.082142 -3.612364,3.07771 -5.787339,2.300725 z" id="path3039" inkscape:connector-curvature="0"/>
    <path style="fill:#ffffff" d="m 16.208764,54.397904 c 0.07123,-0.488847 0.221121,-1.171817 0.333097,-1.517711 0.245399,-0.758034 0.49014,-0.843513 4.509325,-1.574931 2.761938,-0.502622 2.848897,-0.506834 10.421541,-0.504809 7.878902,0.0021 9.467549,0.100939 13.010164,0.80938 2.74186,0.54831 2.757874,0.559383 3.070338,2.122744 0.144276,0.721864 0.216602,1.358199 0.160724,1.414077 -0.05588,0.05588 -0.951197,-0.140445 -1.989593,-0.436275 -4.004798,-1.140928 -4.707136,-1.20181 -13.797087,-1.196002 -7.071192,0.0045 -8.536801,0.05177 -10.090909,0.325352 -1.560168,0.274646 -4.728206,1.052162 -5.510924,1.352519 -0.196643,0.07546 -0.220121,-0.08438 -0.116676,-0.794344 z" id="path3041" inkscape:connector-curvature="0"/>
    <path style="fill:#ffffff" d="m 16.57396,47.736364 c -0.06396,-0.625 -0.161003,-1.443182 -0.215652,-1.818182 -0.0851,-0.583963 -0.04967,-0.681818 0.246863,-0.681818 0.434039,0 2.275196,0.327168 3.208636,0.570165 l 0.704716,0.183455 -0.613807,0.638213 c -0.799376,0.831161 -2.67436,2.24453 -2.977606,2.24453 -0.156932,0 -0.276102,-0.383465 -0.35315,-1.136363 z" id="path3043" inkscape:connector-curvature="0"/>
    <path style="fill:#ffffff" d="m 30.063636,46.849014 c -0.975,-0.506108 -1.772727,-0.980771 -1.772727,-1.054807 0,-0.07404 0.811926,-0.559209 1.80428,-1.078163 l 1.80428,-0.943554 2.059356,0.97467 2.059357,0.97467 -2.042426,1.029994 c -1.123335,0.566497 -2.064244,1.027158 -2.090909,1.023691 -0.02667,-0.0035 -0.846211,-0.420392 -1.821211,-0.926501 z" id="path3045" inkscape:connector-curvature="0"/>
    <path style="fill:#ffffff" d="m 44.879089,47.476089 c -1.084696,-0.908384 -1.599123,-1.450025 -1.452148,-1.52897 0.18987,-0.101985 3.479761,-0.710755 3.841035,-0.710755 0.151434,0 0.111894,2.513098 -0.04862,3.089954 -0.06942,0.249475 -0.246431,0.476743 -0.393365,0.50504 -0.146934,0.0283 -1.023041,-0.581574 -1.946905,-1.355269 l 0,0 z" id="path3047" inkscape:connector-curvature="0"/>
    <path style="fill:#ffffff" d="m 15.680263,41.042572 c -0.173503,-0.624056 -0.250268,-1.192491 -0.170589,-1.263188 0.198749,-0.176346 2.821085,-0.669467 5.235781,-0.984571 7.168677,-0.93547 18.37156,-0.775791 24.818181,0.353744 2.749435,0.481737 2.639704,0.414154 2.614859,1.610491 -0.01184,0.569514 -0.07065,1.084618 -0.130704,1.144677 -0.06006,0.06006 -1.236746,-0.0708 -2.614858,-0.290802 -3.540384,-0.56518 -6.400033,-0.726691 -12.960206,-0.731981 -7.415336,-0.006 -11.5553,0.301859 -15.92032,1.1838 -0.550643,0.111257 -0.560108,0.100163 -0.872144,-1.02217 z" id="path3049" inkscape:connector-curvature="0"/>
  </g>
</svg>