<?xml version="1.0" encoding="UTF-8" standalone="no"?>
<!-- Created with Inkscape (http://www.inkscape.org/) -->

<svg
   xmlns:dc="http://purl.org/dc/elements/1.1/"
   xmlns:cc="http://creativecommons.org/ns#"
   xmlns:rdf="http://www.w3.org/1999/02/22-rdf-syntax-ns#"
   xmlns:svg="http://www.w3.org/2000/svg"
   xmlns="http://www.w3.org/2000/svg"
   xmlns:sodipodi="http://sodipodi.sourceforge.net/DTD/sodipodi-0.dtd"
   xmlns:inkscape="http://www.inkscape.org/namespaces/inkscape"
   width="64px"
   height="64px"
   id="svg3072"
   version="1.1"
   inkscape:version="0.48.1 "
   sodipodi:docname="wr.svg">
  <defs
     id="defs3074" />
  <sodipodi:namedview
     id="base"
     pagecolor="#ffffff"
     bordercolor="#666666"
     borderopacity="1.0"
     inkscape:pageopacity="0.0"
     inkscape:pageshadow="2"
     inkscape:zoom="5.5"
     inkscape:cx="9.6392431"
     inkscape:cy="13.031733"
     inkscape:current-layer="layer1"
     showgrid="true"
     inkscape:document-units="px"
     inkscape:grid-bbox="true"
     inkscape:window-width="1365"
     inkscape:window-height="878"
     inkscape:window-x="-8"
     inkscape:window-y="-8"
     inkscape:window-maximized="1" />
  <metadata
     id="metadata3077">
    <rdf:RDF>
      <cc:Work
         rdf:about="">
        <dc:format>image/svg+xml</dc:format>
        <dc:type
           rdf:resource="http://purl.org/dc/dcmitype/StillImage" />
        <dc:title></dc:title>
      </cc:Work>
    </rdf:RDF>
  </metadata>
  <g
     id="layer1"
     inkscape:label="Layer 1"
     inkscape:groupmode="layer">
    <path
       style="fill:#000000"
       d="m 9.5324618,60.203211 c -0.927029,-0.620402 -1.664396,-1.601449 -2.0652222,-2.747723 -0.5483248,-1.568088 -0.5483248,-1.994572 0,-3.541101 0.7749422,-2.185691 2.0308942,-3.127876 5.2910094,-3.969187 1.40028,-0.361359 2.681457,-0.791699 2.847059,-0.956313 0.889597,-0.884281 2.867648,-21.206579 2.877682,-29.565013 l 0.0037,-3.064768 -2.333801,0 -2.333801,0 0,-6.7636257 0,-6.7636256 4.667602,0 4.667602,0 0,3.3818129 0,3.3818127 2.333801,0 2.3338,0 0,-3.3818127 0,-3.3818129 4.243275,0 4.243274,0 0,3.3818129 0,3.3818127 2.333801,0 2.333801,0 0,-3.3818127 0,-3.3818129 4.667601,0 4.667602,0 0,6.7636256 0,6.7636257 -2.333801,0 -2.333801,0 0,3.316201 c 0,9.340007 2.038452,28.641846 3.097395,29.32884 0.280162,0.18176 1.273178,0.541412 2.206698,0.799228 3.175539,0.877018 4.052318,1.329835 4.916796,2.539306 1.904798,2.664945 1.214998,6.386118 -1.488213,8.028318 -1.232226,0.748573 -2.510275,0.794058 -22.354484,0.795546 l -21.047539,0.0016 -1.4418152,-0.964915 z m 37.3841452,-10.448703 0,-1.26818 -4.667602,0 -4.667602,0 0,-2.536359 0,-2.53636 3.818947,0 c 3.790657,0 3.818947,-0.0078 3.818947,-1.056817 0,-0.925974 -0.183874,-1.056816 -1.485146,-1.056816 l -1.485146,0 0,-2.53636 0,-2.536359 1.318381,0 c 1.027857,0 1.261623,-0.147349 1.060818,-0.668664 -0.141661,-0.367765 -0.257562,-0.938446 -0.257562,-1.26818 0,-0.467577 -0.747071,-0.599516 -3.394619,-0.599516 l -3.39462,0 0,-2.53636 0,-2.536359 3.182456,0 c 3.111733,0 3.182456,-0.02349 3.182456,-1.056817 0,-0.774999 -0.226307,-1.056816 -0.848655,-1.056816 -0.754361,0 -0.848655,-0.281818 -0.848655,-2.53636 0,-1.972724 0.141441,-2.53636 0.636491,-2.53636 0.396038,0 0.636491,-0.399241 0.636491,-1.056816 l 0,-1.056817 -11.45684,0 -11.456841,0 0,1.056817 c 0,0.657575 0.240453,1.056816 0.636491,1.056816 0.495049,0 0.636492,0.563636 0.636492,2.53636 0,2.254542 -0.0943,2.53636 -0.848655,2.53636 -0.622347,0 -0.848655,0.281817 -0.848655,1.056816 0,1.033332 0.07072,1.056817 3.182456,1.056817 l 3.182455,0 0,2.536359 0,2.53636 -3.394619,0 -3.39462,0 0,1.26818 c 0,1.070907 0.165017,1.26818 1.060819,1.26818 1.013671,0 1.060819,0.112727 1.060819,2.536359 l 0,2.53636 -1.485146,0 c -1.301271,0 -1.485146,0.130842 -1.485146,1.056816 0,1.048988 0.02829,1.056817 3.818946,1.056817 l 3.818947,0 0,2.53636 0,2.536359 -4.667601,0 -4.667602,0 0,1.26818 0,1.26818 14.85146,0 14.85146,0 0,-1.26818 z m -18.24608,-3.804539 0,-2.53636 3.39462,0 3.394619,0 0,2.53636 0,2.536359 -3.394619,0 -3.39462,0 0,-2.536359 z m -4.667601,-7.186353 0,-2.536359 3.394619,0 3.394619,0 0,2.536359 0,2.53636 -3.394619,0 -3.394619,0 0,-2.53636 z m 9.335203,0 0,-2.536359 3.394619,0 3.39462,0 0,2.536359 0,2.53636 -3.39462,0 -3.394619,0 0,-2.53636 z m -4.667602,-7.609079 0,-2.536359 3.39462,0 3.394619,0 0,2.536359 0,2.53636 -3.394619,0 -3.39462,0 0,-2.53636 z m -4.667601,-7.186352 0,-2.53636 3.394619,0 3.394619,0 0,2.53636 0,2.53636 -3.394619,0 -3.394619,0 0,-2.53636 z m 9.335203,0 0,-2.53636 3.394619,0 3.39462,0 0,2.53636 0,2.53636 -3.39462,0 -3.394619,0 0,-2.53636 z"
       id="path3210"
       inkscape:connector-curvature="0" />
    <path
       style="fill:#ffffff;fill-opacity:1;fill-rule:evenodd"
       d="m 17.31197,49.750085 0,-1.181818 4.636364,0 4.636364,0 0,-2.636363 0,-2.636364 -3.6,0 c -3.846093,0 -4.038726,-0.04298 -4.03358,-0.9 0.0048,-0.803685 0.240664,-0.958135 1.612947,-1.056322 l 1.29336,-0.09254 0,-2.302844 c 0,-2.523372 -0.07879,-2.739205 -1,-2.739205 -0.790372,0 -1,-0.292619 -1,-1.395898 l 0,-0.959535 3.318182,-0.04956 3.318182,-0.04956 0.05045,-2.590909 0.05045,-2.590909 -2.68681,-0.01812 c -3.330622,-0.02247 -3.577641,-0.08092 -3.653762,-0.864535 -0.0681,-0.701114 0.219116,-1.117342 0.771032,-1.117342 0.728859,0 0.832283,-0.31994 0.832283,-2.574649 0,-2.175188 -0.01433,-2.225769 -0.779496,-2.752244 -0.21776,-0.149829 -0.337712,-0.492646 -0.363636,-1.039253 l -0.03869,-0.815672 11.409091,-0.04682 11.409091,-0.04682 0,0.713768 c 0,0.881658 -0.146524,1.288964 -0.463688,1.288964 -0.578043,0 -0.80904,0.767697 -0.80904,2.688772 0,2.054682 0.161451,2.583955 0.788215,2.583955 0.575498,0 0.848149,0.334603 0.848149,1.040864 0,0.84941 -0.417929,0.959136 -3.653193,0.959136 l -2.720427,0 0.05045,2.590909 0.05045,2.590909 3.234296,0.09091 c 3.561444,0.100104 3.460333,0.06344 3.662575,1.328192 0.143776,0.899126 -0.02036,1.02891 -1.305962,1.03266 l -0.954546,0.0028 0,2.545454 0,2.545455 0.988164,0 c 1.538345,0 1.920927,0.2125 1.920927,1.066956 0,0.481819 -0.09307,0.748033 -0.287598,0.822682 -0.158178,0.0607 -1.87636,0.110362 -3.818182,0.110362 l -3.530583,0 0,2.636364 0,2.636363 4.636363,0 4.636364,0 0,1.181818 0,1.181819 -14.727273,0 -14.727273,0 0,-1.181819 z m 18.181819,-3.818181 0,-2.636364 -3.454546,0 -3.454545,0 0,2.636364 0,2.636363 3.454545,0 3.454546,0 0,-2.636363 z m -4.727273,-7.185831 0,-2.549466 -3.409091,0.04947 -3.409091,0.04947 -0.05058,2.5 -0.05059,2.5 3.459676,0 3.459677,0 0,-2.549467 z m 9.454545,0.004 0,-2.545455 -3.454545,0 -3.454546,0 0,2.545455 0,2.545454 3.454546,0 3.454545,0 0,-2.545454 z m -4.767734,-7.590915 0.05044,-2.590909 -3.459537,0 -3.459537,0 0,2.515152 c 0,1.383333 0.05633,2.571483 0.125181,2.640332 0.06885,0.06885 1.60294,0.102941 3.409091,0.07576 l 3.283909,-0.04942 0.05045,-2.590909 z m -4.686811,-7.231284 0,-2.640376 -3.409091,0.04947 -3.409091,0.04947 -0.05115,2.354021 c -0.02813,1.294711 -0.01025,2.460621 0.03975,2.590909 0.07016,0.182847 0.859556,0.236888 3.460245,0.236888 l 3.369343,0 0,-2.640375 z m 9.414083,0.04947 -0.05045,-2.590909 -3.409091,-0.04947 -3.409091,-0.04947 0,2.640376 0,2.640375 3.459539,0 3.459536,0 -0.05045,-2.590909 z"
       id="path3212"
       inkscape:connector-curvature="0" />
  </g>
</svg>
