<?xml version="1.0" encoding="UTF-8" standalone="no"?>
<!-- Created with Inkscape (http://www.inkscape.org/) -->
<svg xmlns:dc="http://purl.org/dc/elements/1.1/" xmlns:cc="http://creativecommons.org/ns#" xmlns:rdf="http://www.w3.org/1999/02/22-rdf-syntax-ns#" xmlns:svg="http://www.w3.org/2000/svg" xmlns="http://www.w3.org/2000/svg" xmlns:sodipodi="http://sodipodi.sourceforge.net/DTD/sodipodi-0.dtd" xmlns:inkscape="http://www.inkscape.org/namespaces/inkscape" width="64px" height="64px" id="svg2985" version="1.1" inkscape:version="0.48.1 " sodipodi:docname="br.svg">
  <defs id="defs2987"/>
  <sodipodi:namedview id="base" pagecolor="#ffffff" bordercolor="#666666" borderopacity="1.0" inkscape:pageopacity="0.0" inkscape:pageshadow="2" inkscape:zoom="7.7781746" inkscape:cx="28.168786" inkscape:cy="37.123605" inkscape:current-layer="layer1" showgrid="true" inkscape:document-units="px" inkscape:grid-bbox="true" inkscape:window-width="1365" inkscape:window-height="878" inkscape:window-x="-8" inkscape:window-y="-8" inkscape:window-maximized="1"/>
  <metadata id="metadata2990">
    <rdf:RDF>
      <cc:Work rdf:about="">
        <dc:format>image/svg+xml</dc:format>
        <dc:type rdf:resource="http://purl.org/dc/dcmitype/StillImage"/>
        <dc:title/>
      </cc:Work>
    </rdf:RDF>
  </metadata>
  <g id="layer1" inkscape:label="Layer 1" inkscape:groupmode="layer">
    <path style="fill:#000000" d="m 11.765,54.42 0,-4.275 1.045,0 1.045,0 0,-1.08699 c 0,-1.067935 0.01905,-1.106241 1.086553,-2.185 1.074109,-1.085436 1.099132,-1.09801 2.185,-1.09801 l 1.098447,0 0,-2.66 0,-2.66 1.805,0 1.805,0 0,2.66 0,2.66 -0.855,0 -0.855,0 0,1.14 0,1.14 11.875,0 11.875,0 0,-1.14 0,-1.14 -0.855,0 -0.855,0 0,-2.66 0,-2.66 1.805,0 1.805,0 0,2.66 0,2.66 1.119535,0 1.119533,0 1.065467,1.15083 c 1.022498,1.10442 1.065465,1.192535 1.065465,2.185 l 0,1.03417 1.045,0 1.045,0 0,4.275 0,4.275 -20.235,0 -20.235,0 0,-4.275 z m 36.29,-2.66 0,-1.615 -16.055,0 -16.055,0 0,1.615 0,1.615 16.055,0 16.055,0 0,-1.615 z m -24.13,-8.645 0,-2.66 3.42,0 3.42,0 0,2.66 0,2.66 -3.42,0 -3.42,0 0,-2.66 z m 9.12,0 0,-2.66 3.515,0 3.515,0 0,2.66 0,2.66 -3.515,0 -3.515,0 0,-2.66 z m -14.82,-7.41 0,-2.66 3.705,0 3.705,0 0,2.66 0,2.66 -3.705,0 -3.705,0 0,-2.66 z m 9.5,0 0,-2.66 4.275,0 4.275,0 0,2.66 0,2.66 -4.275,0 -4.275,0 0,-2.66 z m 10.64,0 0,-2.66 3.705,0 3.705,0 0,2.66 0,2.66 -3.705,0 -3.705,0 0,-2.66 z m -20.14,-7.505 0,-2.755 1.805,0 1.805,0 0,2.755 0,2.755 -1.805,0 -1.805,0 0,-2.755 z m 5.7,0 0,-2.755 3.42,0 3.42,0 0,2.755 0,2.755 -3.42,0 -3.42,0 0,-2.755 z m 9.12,0 0,-2.755 3.515,0 3.515,0 0,2.755 0,2.755 -3.515,0 -3.515,0 0,-2.755 z m 9.12,0 0,-2.755 1.805,0 1.805,0 0,2.755 0,2.755 -1.805,0 -1.805,0 0,-2.755 z m -23.94,-7.505 0,-2.66 -2.185,0 -2.185,0 0,-6.365 0,-6.365 3.705,0 3.705,0 0,2.375 0,2.375 3.23,0 3.23,0 0,-2.375 0,-2.375 4.275,0 4.275,0 0,2.375 0,2.375 3.23,0 3.23,0 0,-2.375 0,-2.375 3.705,0 3.705,0 0,6.365 0,6.365 -2.185,0 -2.185,0 0,2.66 0,2.66 -3.705,0 -3.705,0 0,-2.66 0,-2.66 2.755,0 2.755,0 0,-1.045 0,-1.045 -11.875,0 -11.875,0 0,1.045 0,1.045 2.755,0 2.755,0 0,2.66 0,2.66 -3.705,0 -3.705,0 0,-2.66 z m 9.5,0 0,-2.66 4.275,0 4.275,0 0,2.66 0,2.66 -4.275,0 -4.275,0 0,-2.66 z" id="path3109" inkscape:connector-curvature="0"/>
    <path style="fill:none;stroke:#000000;stroke-width:1px;stroke-linecap:butt;stroke-linejoin:miter;stroke-opacity:1" d="m 18.727272,23.045454 1e-6,22.500001 0.04545,1.181818" id="path3113" inkscape:connector-curvature="0" sodipodi:nodetypes="ccc"/>
    <path style="fill:none;stroke:#000000;stroke-width:1px;stroke-linecap:butt;stroke-linejoin:miter;stroke-opacity:1" d="m 45.181818,17.5 0.181818,29.181819" id="path3115" inkscape:connector-curvature="0"/>
    <path style="fill:#ffffff" d="m 20.146338,46.906802 0,-1.028519 0.899954,0 0.899954,0 0,-2.764145 0,-2.764145 -1.349931,0 -1.349931,0 0,-0.964236 0,-0.964237 3.214121,0 3.214122,0 0,-2.699862 0,-2.699862 -3.214122,0 -3.214121,0 0,-1.028519 0,-1.028519 1.349931,0 1.349931,0 0,-2.764145 0,-2.764144 -1.349931,0 -1.349931,0 0,-1.028519 0,-1.028519 3.214121,0 3.214122,0 0,-2.699863 0,-2.699862 -2.764144,0 -2.764145,0 0,-0.964236 0,-0.964237 11.827968,0 11.827968,0 0,0.964237 0,0.964236 -2.764145,0 -2.764145,0 0,2.699862 0,2.699863 3.214122,0 3.214122,0 0,1.028519 0,1.028519 -1.285649,0 -1.285649,0 0,2.764144 0,2.764145 1.285649,0 1.285649,0 0,1.028519 0,1.028519 -3.214122,0 -3.214122,0 0,2.699862 0,2.699862 3.214122,0 3.214122,0 0,0.964237 0,0.964236 -1.285649,0 -1.285649,0 0,2.764145 0,2.764145 0.835672,0 0.835672,0 0,1.028519 0,1.028519 -11.827968,0 -11.827968,0 0,-1.028519 z m 10.670884,-3.792664 0,-2.764145 -3.471251,0 -3.471252,0 0,2.764145 0,2.764145 3.471252,0 3.471251,0 0,-2.764145 z m 9.256671,0 0,-2.764145 -3.535534,0 -3.535534,0 0,2.764145 0,2.764145 3.535534,0 3.535534,0 0,-2.764145 z m -3.728382,-7.39248 0,-2.699862 -4.371205,0 -4.371206,0 0,2.699862 0,2.699862 4.371206,0 4.371205,0 0,-2.699862 z m -5.528289,-7.521045 0,-2.764144 -3.471251,0 -3.471252,0 0,2.764144 0,2.764145 3.471252,0 3.471251,0 0,-2.764145 z m 9.256671,0 0,-2.764144 -3.535534,0 -3.535534,0 0,2.764144 0,2.764145 3.535534,0 3.535534,0 0,-2.764145 z m -3.728382,-7.521045 0,-2.699862 -4.371205,0 -4.371206,0 0,2.699862 0,2.699863 4.371206,0 4.371205,0 0,-2.699863 z" id="path3117" inkscape:connector-curvature="0"/>
    <path style="fill:#ffffff" d="m 15.955123,51.792267 0,-1.542779 16.006327,0 16.006326,0 0,1.542779 0,1.542778 -16.006326,0 -16.006327,0 0,-1.542778 z" id="path3003" inkscape:connector-curvature="0"/>
    <path style="fill:#ffffff" d="m 20.197764,46.906802 0,-1.028519 0.835672,0 0.835671,0 0,-2.764145 0,-2.764145 -1.285648,0 -1.285649,0 0,-0.964236 0,-0.964237 3.214122,0 3.214121,0 0,-2.699862 0,-2.699862 -3.214121,0 -3.214122,0 0,-1.028519 0,-1.028519 1.285649,0 1.285648,0 0,-2.764145 0,-2.764145 -1.285648,0 -1.285649,0 0,-1.028518 0,-1.028519 3.214122,0 3.214121,0 0,-2.699863 0,-2.699862 -2.764144,0 -2.764145,0 0,-0.964236 0,-0.964237 11.827968,0 11.827968,0 0,0.964237 0,0.964236 -2.764145,0 -2.764144,0 0,2.699862 0,2.699863 3.149839,0 3.149839,0 0,1.028519 0,1.028518 -1.285648,0 -1.285649,0 0,2.764145 0,2.764145 1.349931,0 1.349931,0 0,1.028519 0,1.028519 -3.214122,0 -3.214121,0 0,2.699862 0,2.699862 3.214121,0 3.214122,0 0,0.964237 0,0.964236 -1.349931,0 -1.349931,0 0,2.764145 0,2.764145 0.899954,0 0.899954,0 0,1.028519 0,1.028519 -11.827968,0 -11.827968,0 0,-1.028519 z m 10.670884,-3.792664 0,-2.764145 -3.471251,0 -3.471252,0 0,2.764145 0,2.764145 3.471252,0 3.471251,0 0,-2.764145 z m 9.256671,0 0,-2.764145 -3.599817,0 -3.599816,0 0,2.764145 0,2.764145 3.599816,0 3.599817,0 0,-2.764145 z m -3.728381,-7.39248 0,-2.699862 -4.371206,0 -4.371205,0 0,2.699862 0,2.699862 4.371205,0 4.371206,0 0,-2.699862 z m -5.52829,-7.521045 0,-2.764145 -3.471251,0 -3.471252,0 0,2.764145 0,2.764145 3.471252,0 3.471251,0 0,-2.764145 z m 9.256671,0 0,-2.764145 -3.599817,0 -3.599816,0 0,2.764145 0,2.764145 3.599816,0 3.599817,0 0,-2.764145 z m -3.728381,-7.521045 0,-2.699862 -4.371206,0 -4.371205,0 0,2.699862 0,2.699863 4.371205,0 4.371206,0 0,-2.699863 z" id="path3005" inkscape:connector-curvature="0"/>
  </g>
</svg>