<?xml version="1.0" encoding="UTF-8" standalone="no"?>
<!-- Created with Inkscape (http://www.inkscape.org/) -->
<svg xmlns:dc="http://purl.org/dc/elements/1.1/" xmlns:cc="http://creativecommons.org/ns#" xmlns:rdf="http://www.w3.org/1999/02/22-rdf-syntax-ns#" xmlns:svg="http://www.w3.org/2000/svg" xmlns="http://www.w3.org/2000/svg" xmlns:sodipodi="http://sodipodi.sourceforge.net/DTD/sodipodi-0.dtd" xmlns:inkscape="http://www.inkscape.org/namespaces/inkscape" width="64px" height="64px" id="svg2985" version="1.1" inkscape:version="0.48.1 " sodipodi:docname="bb.svg">
  <defs id="defs2987"/>
  <sodipodi:namedview id="base" pagecolor="#ffffff" bordercolor="#666666" borderopacity="1.0" inkscape:pageopacity="0.0" inkscape:pageshadow="2" inkscape:zoom="7.7781746" inkscape:cx="28.168786" inkscape:cy="37.123605" inkscape:current-layer="layer1" showgrid="true" inkscape:document-units="px" inkscape:grid-bbox="true" inkscape:window-width="1365" inkscape:window-height="878" inkscape:window-x="-8" inkscape:window-y="-8" inkscape:window-maximized="1"/>
  <metadata id="metadata2990">
    <rdf:RDF>
      <cc:Work rdf:about="">
        <dc:format>image/svg+xml</dc:format>
        <dc:type rdf:resource="http://purl.org/dc/dcmitype/StillImage"/>
        <dc:title/>
      </cc:Work>
    </rdf:RDF>
  </metadata>
  <g id="layer1" inkscape:label="Layer 1" inkscape:groupmode="layer">
    <path style="fill:#000000" d="m 17.395621,58.585965 c -2.57099,-0.330166 -5.520385,-1.23784 -7.8601761,-2.418962 -0.648777,-0.327503 -1.469752,-0.595458 -1.824389,-0.595458 -0.90914,0 -1.618588,0.6164 -1.765279,1.533754 -0.131244,0.820753 -0.333018,0.941274 -0.634077,0.378737 -0.738002,-1.378969 0.659867,-3.488708 3.008156,-4.540067 l 0.737254,-0.33008 -0.536106,-1.323671 c -0.294859,-0.728021 -0.54058,-1.599684 -0.546048,-1.937029 l -0.0099,-0.613356 1.1875,0.772606 c 1.6586401,1.079136 4.6952641,2.511479 6.5611341,3.094814 4.653496,1.454841 10.005928,0.805829 14.835815,-1.798926 l 1.399449,-0.754722 2.115551,1.043655 c 4.858213,2.396679 9.741688,2.914355 14.222839,1.507699 1.851691,-0.581253 4.904896,-2.03307 6.512712,-3.096833 l 1.14,-0.754246 0.05604,0.511981 c 0.03082,0.28159 -0.204301,1.143325 -0.5225,1.914965 -0.671874,1.62931 -0.65375,1.540719 -0.315194,1.540719 0.14484,0 0.797139,0.356452 1.449551,0.792116 1.91843,1.281081 2.83554,3.203607 1.92243,4.029963 -0.3396,0.30733 -0.35979,0.288974 -0.47505,-0.431798 -0.14772,-0.923826 -0.85438,-1.540281 -1.765647,-1.540281 -0.359054,0 -1.233871,0.296995 -1.976693,0.671073 -6.204779,3.124677 -13.779157,3.331496 -20.643257,0.563667 l -1.648457,-0.664711 -1.910613,0.741173 c -4.277096,1.659186 -8.574896,2.234892 -12.715008,1.703218 z m 7.194394,-1.688626 c 1.91463,-0.353737 3.712615,-0.940001 5.62552,-1.8343 l 1.82552,-0.853444 1.30948,0.657105 c 3.307599,1.659778 6.122679,2.299059 10.144479,2.303733 3.840413,0.0045 7.27244,-0.797766 10.326151,-2.413718 1.006257,-0.532486 1.079055,-0.61146 0.771185,-0.836581 -0.186981,-0.136724 -0.523123,-0.248589 -0.746983,-0.248589 -0.59587,0 -0.678433,-0.173905 -0.367775,-0.774653 0.152583,-0.295062 0.277422,-0.577926 0.277422,-0.628586 0,-0.05066 -0.705375,0.238328 -1.5675,0.642198 -3.544345,1.66038 -6.100313,2.193784 -9.780698,2.04113 -3.083054,-0.127876 -5.438039,-0.722918 -8.295531,-2.096059 l -2.11127,-1.014553 -2.114129,1.015277 c -2.860913,1.373909 -5.210069,1.967476 -8.292673,2.095335 -3.711102,0.153929 -6.491894,-0.456095 -9.900713,-2.171924 -1.420835,-0.715175 -1.381787,-0.733685 -1.045956,0.495818 0.04815,0.176269 -0.145437,0.31659 -0.561633,0.407104 -1.1458471,0.249196 -1.1139601,0.485769 0.151586,1.124613 0.648094,0.327158 2.048015,0.884488 3.110935,1.238514 1.697077,0.56524 2.699707,0.791576 4.972583,1.122516 0.925094,0.134698 5.035936,-0.04294 6.27,-0.270936 z m 3.862863,-7.220192 C 26.900726,49.41522 25.473596,48.928197 24.976161,48.49068 24.521909,48.091144 24.465306,47.824155 24.000237,43.887377 23.508698,39.72652 23.503256,39.70269 22.758093,38.448396 20.672948,34.938577 19.551798,30.693948 19.558314,26.334157 c 0.005,-3.313697 0.649994,-5.719301 2.168676,-8.087809 1.389768,-2.167455 3.990847,-4.482128 6.805585,-6.056219 1.008078,-0.56375 1.254673,-0.797254 1.351096,-1.279367 0.08288,-0.414419 0.02588,-0.681826 -0.191746,-0.89945 -0.790742,-0.7907422 -1.027577,-2.2317102 -0.553345,-3.3667092 0.392071,-0.938356 1.286538,-1.42148 2.63337,-1.422348 1.957842,-0.0013 2.793688,0.806148 2.792354,2.697355 -3.8e-4,0.670873 -0.127296,1.214557 -0.38,1.629027 -1.020927,1.6744762 0.390978,3.3092542 2.072862,2.4000672 0.772407,-0.417546 1.137881,-1.468261 0.68772,-1.9771592 -0.847428,-0.958004 -0.681009,-3.247099 0.295822,-4.06905 0.944996,-0.795161 2.848792,-0.863697 3.949941,-0.142196 0.596292,0.390705 0.974365,1.325671 0.974365,2.409579 0,0.993456 -0.316101,1.708505 -1.026891,2.3229112 -0.27121,0.234433 -0.493109,0.593281 -0.493109,0.797438 0,0.204157 0.441773,0.952847 0.981717,1.663756 1.284702,1.691483 2.696731,4.66669 3.229109,6.803877 0.796244,3.196446 0.497532,9.168277 -0.631938,12.633685 -0.45665,1.401077 -1.393546,3.336558 -2.788997,5.761634 l -0.955709,1.66087 -0.488458,3.998793 c -0.268652,2.199336 -0.56993,4.151027 -0.669509,4.337088 -0.25129,0.469544 -1.857153,1.124185 -3.554143,1.448872 -1.519586,0.290746 -5.784805,0.336431 -7.314208,0.07834 z m 8.135752,-1.972174 c 2.030129,-0.63673 2.292858,-1.475665 0.677656,-2.163881 -3.340293,-1.42326 -11.346271,-0.77521 -11.346271,0.918431 0,0.576156 0.824613,1.063411 2.407879,1.422783 1.632064,0.370451 6.872908,0.257944 8.260736,-0.177333 z m -9.28407,-4.052669 c 0.887024,-0.274379 1.762763,-0.33383 4.790455,-0.325212 3.269453,0.0093 3.849223,0.05866 4.931845,0.419822 0.674764,0.225101 1.265417,0.370702 1.312561,0.323559 0.125267,-0.125269 0.676058,-5.961796 0.572394,-6.06546 -0.285587,-0.285587 -3.401497,-0.561098 -6.4368,-0.569146 -3.227667,-0.0086 -7.113912,0.330311 -7.303353,0.636832 -0.04117,0.06662 0.06293,1.468858 0.231336,3.116084 0.239237,2.339998 0.361952,2.973557 0.561154,2.897116 0.140225,-0.05381 0.743409,-0.248927 1.340408,-0.433595 z m 3.329345,-2.600236 c -0.751361,-0.322037 -1.412162,-0.633574 -1.468449,-0.692305 -0.05629,-0.05873 0.571837,-0.382426 1.395829,-0.719326 l 1.498165,-0.612547 1.585282,0.657932 c 1.461207,0.606438 1.548105,0.672123 1.110283,0.839245 -0.26125,0.09972 -0.817,0.327169 -1.235,0.505434 -1.476272,0.629592 -1.467654,0.629527 -2.88611,0.02157 z M 26.0252,36.010551 c 0.475852,-0.101141 1.565977,-0.242333 2.4225,-0.313766 l 1.557315,-0.129874 0,-4.152684 0,-4.152682 -1.995,0 -1.995,0 0,-2.185 0,-2.185 1.995,0 1.995,0 0,-2.66 0,-2.66 2.09,0 2.09,0 0,2.66 0,2.66 1.995,0 1.994999,0 0,2.185 0,2.185 -1.994999,0 -1.995,0 0,4.153793 0,4.153794 1.469347,0.133148 c 0.808143,0.07323 2.053482,0.256025 2.767422,0.406207 0.713941,0.150181 1.341176,0.273058 1.393859,0.273058 0.176309,0 2.119933,-4.260657 2.470213,-5.415 0.261353,-0.861279 0.345802,-1.76712 0.345407,-3.705 -5.7e-4,-2.3742 -0.04354,-2.686083 -0.578786,-4.192783 -1.322565,-3.722972 -4.968712,-7.942495 -8.920009,-10.322727 l -1.11686,-0.672788 -1.242796,0.686338 c -5.942071,3.281526 -9.312483,8.187229 -9.310735,13.55196 9.5e-4,2.838879 0.516334,5.10341 1.837879,8.075 0.829423,1.865017 0.944181,2.014916 1.454298,1.899611 0.223169,-0.05044 0.795093,-0.174466 1.270946,-0.275605 z m 6.829815,-5.329006 0,-4.75 1.995,0 1.994999,0 0,-0.855 0,-0.855 -1.994999,0 -1.995,0 0,-2.66 0,-2.66 -0.76,0 -0.76,0 0,2.66 0,2.66 -1.995,0 -1.995,0 0,0.855 0,0.855 1.995,0 1.995,0 0,4.75 0,4.75 0.76,0 0.76,0 0,-4.75 z m 11.40812,-6.504171 c -0.671122,-4.201049 -2.616669,-8.667665 -4.939421,-11.339996 -0.607996,-0.699501 -1.4356,-0.867313 -1.993576,-0.404235 -0.578248,0.479904 -0.329497,1.018854 0.94938,2.056947 1.477778,1.199547 2.851775,3.003326 3.866895,5.076455 0.706681,1.443213 1.75564,4.306107 2.009668,5.48492 0.22173,1.028941 0.303894,0.358082 0.107054,-0.874091 z M 40.407514,9.0776708 c 0.335027,-0.449649 0.294894,-1.387785 -0.07695,-1.798665 -0.399308,-0.441232 -1.631216,-0.464654 -2.056763,-0.03911 -0.491515,0.491513 -0.317009,1.80372 0.281211,2.114614 0.577173,0.299954 1.528685,0.157757 1.8525,-0.276843 z m -7.599999,-0.19784 c 0.130625,-0.171003 0.2375,-0.588975 0.2375,-0.928827 0,-1.047183 -1.140018,-1.549467 -2.057778,-0.906643 -0.624458,0.437388 -0.525405,1.766474 0.157778,2.11703 0.559133,0.286905 1.327693,0.156742 1.6625,-0.28156 z" id="path3259" inkscape:connector-curvature="0"/>
    <path style="fill:#ffffff" d="m 18.474995,57.106967 c -1.125078,-0.128113 -3.778127,-0.710164 -4.886687,-1.072088 -2.02194,-0.660125 -4.2414192,-1.670494 -4.2414192,-1.930811 0,-0.05804 0.2885905,-0.201388 0.6413122,-0.318543 0.352722,-0.117156 0.668751,-0.257407 0.702287,-0.311669 0.03354,-0.05426 0.0011,-0.315608 -0.07214,-0.580768 -0.07321,-0.265159 -0.114436,-0.500457 -0.0916,-0.522884 0.02283,-0.02243 0.648982,0.246912 1.391444,0.598532 1.649469,0.781166 3.439261,1.41579 4.888917,1.733513 1.506551,0.330192 6.06813,0.329881 7.774723,-5.3e-4 1.908199,-0.369443 4.294646,-1.227592 6.511789,-2.34159 l 0.854935,-0.429559 1.844927,0.84385 c 2.153625,0.985046 3.581548,1.483929 5.336694,1.864517 1.783978,0.38684 6.501196,0.42385 8.139902,0.06386 1.352171,-0.297042 3.129085,-0.912193 4.872429,-1.686789 0.733393,-0.325859 1.35432,-0.571593 1.379836,-0.546076 0.02552,0.02552 -0.01992,0.222073 -0.100965,0.436793 -0.180815,0.479034 -0.06958,0.814011 0.270311,0.814011 0.318305,0 0.910039,0.262517 0.910039,0.40373 0,0.369965 -3.284278,1.751647 -5.464007,2.298685 -2.141942,0.537554 -3.794266,0.687282 -6.647031,0.602329 -3.629621,-0.108086 -5.65227,-0.591316 -8.87047,-2.119237 l -1.591965,-0.755825 -1.53761,0.699239 c -2.666321,1.212528 -4.742994,1.844507 -6.808768,2.072064 -1.331194,0.146638 -4.542564,0.260888 -5.206877,0.185242 z" id="path3261" inkscape:connector-curvature="0"/>
    <path style="fill:#ffffff" d="m 29.274444,47.948089 c -1.580015,-0.185659 -2.904797,-0.720437 -3.213464,-1.297188 -0.123242,-0.230279 -0.08852,-0.321782 0.237751,-0.626565 1.797145,-1.678786 10.924275,-1.483905 11.853892,0.253102 0.117899,0.220295 0.09347,0.321068 -0.137403,0.566821 -0.381267,0.40584 -1.32334,0.793241 -2.318861,0.953565 -1.086652,0.175 -5.360378,0.275 -6.421915,0.150265 z" id="path3263" inkscape:connector-curvature="0"/>
    <path style="fill:#ffffff" d="m 25.873102,43.83035 c -0.119457,-0.193285 -0.454913,-2.916948 -0.541686,-4.398103 l -0.08013,-1.367723 0.372376,-0.07992 c 2.47109,-0.530386 10.35007,-0.590761 12.65032,-0.09694 l 0.449977,0.0966 -0.0054,1.215006 c -0.0061,1.381001 -0.297627,4.384188 -0.449376,4.629724 -0.07906,0.127925 -0.331957,0.09616 -1.172945,-0.147319 -1.032429,-0.298906 -1.222211,-0.310407 -5.121948,-0.310407 -3.841509,0 -4.097105,0.01488 -4.969706,0.289271 -1.054537,0.331604 -1.033459,0.328441 -1.131498,0.169811 z m 7.910642,-2.828012 c 0.663019,-0.277606 1.222879,-0.556908 1.244133,-0.620671 0.04244,-0.12732 -0.131165,-0.217735 -1.822314,-0.949083 L 32.05837,38.936473 30.643215,39.54681 c -1.370141,0.590922 -1.689426,0.822066 -1.342064,0.971578 0.09138,0.03933 0.628973,0.277169 1.194659,0.52853 1.338405,0.594717 1.775221,0.588794 3.287934,-0.04458 z" id="path3265" inkscape:connector-curvature="0"/>
    <path style="fill:#ffffff" d="m 31.429489,30.611205 -0.03373,-4.724759 -2.024897,-0.03541 -2.024896,-0.03541 0,-0.768125 0,-0.768124 2.057037,0 2.057038,0 0,-2.63558 0,-2.63558 0.642825,0 0.642824,0 0,2.63558 0,2.63558 1.992756,0 1.992755,0 0,0.771389 0,0.771389 -1.992755,0 -1.992756,0 0,4.7569 0,4.756901 -0.64124,0 -0.641241,0 -0.03373,-4.724759 z" id="path3267" inkscape:connector-curvature="0"/>
    <path style="fill:#ffffff" d="m 24.127986,35.844798 c -0.372998,-0.523826 -1.584979,-3.473372 -1.909301,-4.64658 -1.226882,-4.438147 -0.757368,-8.397414 1.407613,-11.869975 0.831663,-1.333961 2.725106,-3.376498 4.162521,-4.490287 0.942762,-0.730505 3.549571,-2.379549 4.083603,-2.583251 0.1457,-0.05558 0.599689,0.163928 1.349931,0.652695 4.267801,2.780379 7.277519,6.337871 8.859572,10.472031 0.367538,0.960432 0.368996,0.975902 0.369705,3.921228 6.43e-4,2.564905 -0.03149,3.050752 -0.242123,3.664099 -0.361593,1.052912 -1.979303,4.646008 -2.252503,5.003038 l -0.237535,0.310419 -1.654837,-0.283881 C 37.154471,35.8382 35.94696,35.669583 35.381275,35.619632 l -1.028519,-0.09082 -0.03395,-4.081935 -0.03395,-4.081934 1.994561,0 1.994561,0 0,-2.249886 0,-2.249885 -1.992755,0 -1.992756,0 0,-2.699862 0,-2.699862 -2.185602,0 -2.185603,0 0,2.699862 0,2.699862 -1.992756,0 -1.992755,0 0,2.249885 0,2.249886 1.992755,0 1.992756,0 0,4.047344 0,4.047344 -0.289271,0.05636 c -0.159099,0.03099 -0.954594,0.124057 -1.767767,0.206803 -0.813173,0.08274 -1.872794,0.232049 -2.354714,0.331786 -1.127666,0.23338 -1.053983,0.244601 -1.37753,-0.209779 l 0,0 z" id="path3269" inkscape:connector-curvature="0"/>
    <path style="fill:#ffffff" d="m 43.89054,23.866995 c -0.362729,-1.258612 -1.338868,-3.654307 -1.979731,-4.85877 -0.904383,-1.699731 -1.626455,-2.641512 -3.272229,-4.267887 -0.933167,-0.922168 -1.521679,-1.603036 -1.521679,-1.760477 0,-0.331432 0.46855,-0.657009 0.945526,-0.657009 0.597635,0 1.13927,0.431655 1.943898,1.549184 1.868335,2.59489 3.422546,6.266364 4.057557,9.585068 0.212858,1.11244 0.103594,1.370812 -0.173342,0.409891 l 0,0 z" id="path3271" inkscape:connector-curvature="0"/>
    <path style="fill:#ffffff" d="m 38.767264,9.3500886 c -0.705648,-0.261286 -0.921448,-1.6882707 -0.319115,-2.1101613 0.306678,-0.2148057 1.268725,-0.2507408 1.623899,-0.060657 0.315346,0.1687679 0.557818,0.9326016 0.450767,1.420002 -0.138672,0.6313719 -1.038642,1.016272 -1.755551,0.7508164 l 0,0 z" id="path3273" inkscape:connector-curvature="0"/>
    <path style="fill:#ffffff" d="M 31.243462,9.1078328 C 30.869443,8.9571369 30.688657,8.5904456 30.688657,7.982509 c 0,-0.8748288 0.880579,-1.4040192 1.66302,-0.9994035 0.483621,0.2500904 0.686764,0.7122343 0.574983,1.3080739 -0.142487,0.7595223 -0.905809,1.1298706 -1.683198,0.8166534 l 0,0 z" id="path3275" inkscape:connector-curvature="0"/>
  </g>
</svg>