<?xml version="1.0" encoding="UTF-8" standalone="no"?>
<!-- Created with Inkscape (http://www.inkscape.org/) -->

<svg
   xmlns:dc="http://purl.org/dc/elements/1.1/"
   xmlns:cc="http://creativecommons.org/ns#"
   xmlns:rdf="http://www.w3.org/1999/02/22-rdf-syntax-ns#"
   xmlns:svg="http://www.w3.org/2000/svg"
   xmlns="http://www.w3.org/2000/svg"
   xmlns:sodipodi="http://sodipodi.sourceforge.net/DTD/sodipodi-0.dtd"
   xmlns:inkscape="http://www.inkscape.org/namespaces/inkscape"
   width="64px"
   height="64px"
   id="svg3072"
   version="1.1"
   inkscape:version="0.48.1 "
   sodipodi:docname="bb.svg">
  <defs
     id="defs3074" />
  <sodipodi:namedview
     id="base"
     pagecolor="#ffffff"
     bordercolor="#666666"
     borderopacity="1.0"
     inkscape:pageopacity="0.0"
     inkscape:pageshadow="2"
     inkscape:zoom="5.5"
     inkscape:cx="16.727273"
     inkscape:cy="36.69144"
     inkscape:current-layer="layer1"
     showgrid="true"
     inkscape:document-units="px"
     inkscape:grid-bbox="true"
     inkscape:window-width="1365"
     inkscape:window-height="878"
     inkscape:window-x="-8"
     inkscape:window-y="-8"
     inkscape:window-maximized="1" />
  <metadata
     id="metadata3077">
    <rdf:RDF>
      <cc:Work
         rdf:about="">
        <dc:format>image/svg+xml</dc:format>
        <dc:type
           rdf:resource="http://purl.org/dc/dcmitype/StillImage" />
        <dc:title></dc:title>
      </cc:Work>
    </rdf:RDF>
  </metadata>
  <g
     id="layer1"
     inkscape:label="Layer 1"
     inkscape:groupmode="layer">
    <path
       style="fill:#000000"
       d="m 9.3201313,60.469534 c -0.932543,-0.624688 -1.674296,-1.612513 -2.077506,-2.766707 -0.5515861,-1.578921 -0.5515861,-2.011328 0,-3.590249 0.811439,-2.322753 2.8467437,-3.73829 5.3750387,-3.73829 1.820744,0 1.841009,-0.01609 1.418044,-1.125428 -0.567826,-1.489285 0.167125,-3.698492 1.605821,-4.826976 0.897497,-0.703983 1.730948,-0.857952 4.644137,-0.857952 l 3.550345,0 -2.025472,-2.021824 c -2.530995,-2.526438 -4.032753,-5.569299 -4.254006,-8.619468 -0.251632,-3.468962 1.659129,-8.007376 6.353735,-15.091308 3.65171,-5.510254 3.806259,-5.836774 3.182791,-6.724389 -0.360408,-0.513104 -0.655288,-1.8053837 -0.655288,-2.8717327 0,-5.3922655 6.194794,-7.66745699 9.782465,-3.5928528 1.505736,1.7101017 1.771631,4.2007588 0.672762,6.3018015 -0.86947,1.662432 -0.837933,1.808656 1.060612,4.917598 l 1.668116,2.731603 -3.817444,4.186247 c -2.099594,2.302435 -3.817444,4.434763 -3.817444,4.738505 0,0.78047 0.891254,1.573813 1.768045,1.573813 0.40898,0 2.243374,-1.722015 4.076429,-3.826699 1.833056,-2.104684 3.467662,-3.828556 3.632461,-3.830825 0.555799,-0.0077 3.034157,3.951383 4.203008,6.714065 1.080387,2.553593 1.125082,2.893853 0.64858,4.93791 -0.747874,3.208168 -2.321017,6.095629 -4.589945,8.424706 l -1.999828,2.05285 3.756385,0 c 3.119758,0 3.941754,0.145405 4.850175,0.857952 1.438698,1.128484 2.173646,3.337691 1.605818,4.826976 -0.421929,1.106627 -0.398969,1.125454 1.374457,1.12702 1.010754,8.51e-4 2.381472,0.353011 3.118273,0.801043 1.393332,0.847255 2.740368,3.172685 2.740368,4.730779 0,1.558095 -1.347036,3.883525 -2.740368,4.73078 -1.239555,0.753745 -2.525206,0.799545 -22.487447,0.801043 l -21.172727,0.0016 -1.4503907,-0.971583 z M 54.004305,58.27382 c 0.779299,-1.063126 0.779179,-3.669356 -2.17e-4,-4.732235 -0.585802,-0.798872 -1.314971,-0.826237 -22.01725,-0.826237 -20.70228,0 -21.431447,0.02737 -22.0172497,0.826237 -1.227413,1.673853 -0.586295,4.864475 1.1015367,5.481962 0.352152,0.128835 10.019909,0.198756 21.483903,0.155378 20.091822,-0.07603 20.865473,-0.108668 21.449277,-0.905105 z m -7.049611,-8.340153 c 0.946423,-0.505082 1.147534,-2.89896 0.31342,-3.730722 -0.733996,-0.731926 -29.828557,-0.731926 -30.562552,0 -0.787743,0.785519 -0.634599,3.206669 0.234768,3.711602 1.024662,0.595127 28.901764,0.612885 30.014364,0.01911 z M 36.521021,42.360508 c 4.34143,-2.230819 7.833137,-6.797855 7.8405,-10.255104 0.0038,-1.765778 -2.292635,-7.748607 -2.940433,-7.66075 -0.141322,0.01917 -1.409446,1.346874 -2.818055,2.950461 -2.705039,3.079468 -4.04172,3.872279 -5.923784,3.513515 -1.211715,-0.230981 -2.399816,-1.954055 -2.399816,-3.480395 0,-0.470069 1.627929,-2.758576 3.617619,-5.085572 3.084705,-3.607644 3.524294,-4.308137 2.984093,-4.7552 -0.34844,-0.288363 -1.042187,-1.249359 -1.541661,-2.135545 -0.857245,-1.52096 -1.0424,-1.620652 -3.30423,-1.779083 -1.317854,-0.09231 -2.552133,-0.08984 -2.742841,0.0055 -0.190709,0.09533 -1.870259,2.486198 -3.732333,5.31304 -7.473182,11.345145 -7.72234,16.61191 -1.02669,21.702466 3.832484,2.913752 8.340835,3.54056 11.987631,1.666673 z M 34.353923,10.595617 c 2.186726,-2.1805577 0.613499,-5.7655852 -2.530127,-5.7655852 -3.382911,0 -4.516889,5.1333725 -1.409746,6.3817372 1.62595,0.653263 2.86048,0.460196 3.939873,-0.616152 z"
       id="path3307"
       inkscape:connector-curvature="0" />
    <path
       style="fill:#ffffff;fill-opacity:1;fill-rule:evenodd"
       d="M 11.854545,58.963979 C 10.73704,58.877342 10.245768,58.535261 9.7556983,57.502515 9.128508,56.18081 9.5150936,53.746273 10.430062,53.255684 c 0.286522,-0.153627 2.079086,-0.281702 5.515393,-0.394063 6.3513,-0.207676 35.906221,-0.04292 36.891083,0.205648 0.390095,0.09846 0.862138,0.331887 1.048986,0.518733 0.745034,0.745035 0.746321,3.898793 0.0019,4.643219 -0.18789,0.187889 -0.660788,0.427063 -1.050882,0.531497 -0.696595,0.186489 -38.763043,0.37529 -40.981988,0.203261 z"
       id="path3309"
       inkscape:connector-curvature="0" />
    <path
       style="fill:#ffffff;fill-opacity:1;fill-rule:evenodd"
       d="m 23.218182,50.174961 c -3.400281,-0.07486 -5.832711,-0.203871 -6.131286,-0.325181 -0.58309,-0.236908 -0.781258,-0.813882 -0.750882,-2.186221 0.03114,-1.406895 0.179471,-1.495711 2.818817,-1.68782 2.519171,-0.183363 22.020185,-0.241209 24.587953,-0.07294 3.300487,0.21629 3.497741,0.256106 3.7235,0.751591 0.479051,1.051403 0.100407,2.944622 -0.650468,3.252343 -0.354551,0.145301 -11.792514,0.448889 -15.597634,0.413995 -1.3,-0.01192 -4.9,-0.07752 -8,-0.145771 z"
       id="path3311"
       inkscape:connector-curvature="0" />
    <path
       style="fill:#ffffff;fill-opacity:1;fill-rule:evenodd"
       d="M 30.901749,43.244382 C 28.096458,42.961415 25.263567,41.500624 22.71296,39.021804 19.108934,35.519211 18.927956,31.161062 22.127834,24.93132 c 1.217277,-2.369879 3.666605,-6.298066 5.726341,-9.1838 l 1.542474,-2.161039 1.910766,0.117551 c 3.04471,0.187313 2.738071,-0.003 4.865312,3.020272 0.425,0.604026 0.772728,1.232877 0.772728,1.397448 0,0.343499 -0.84024,1.488311 -3.190154,4.346526 -2.226454,2.708051 -3.333442,4.285535 -3.463429,4.935468 -0.07119,0.355946 0.02949,0.859082 0.295787,1.478094 1.019832,2.370663 3.251676,2.843064 5.391934,1.141278 0.481224,-0.382635 1.885147,-1.771762 3.119827,-3.086948 1.234682,-1.315185 2.316445,-2.391246 2.40392,-2.391246 0.254389,0 1.533433,2.841399 2.1494,4.774901 0.36342,1.140764 0.565442,2.151272 0.565442,2.828333 0,2.516129 -1.678413,5.421088 -4.62274,8.000929 -2.782374,2.437937 -5.526097,3.414809 -8.693693,3.095295 l 0,0 z"
       id="path3313"
       inkscape:connector-curvature="0" />
    <path
       style="fill:#ffffff;fill-opacity:1;fill-rule:evenodd"
       d="m 30.672727,11.235521 c -0.3,-0.104382 -0.803567,-0.433689 -1.119038,-0.731793 -1.424224,-1.3458192 -0.949782,-4.2002243 0.867943,-5.2218431 2.240109,-1.2590116 5.233971,0.875479 4.81855,3.435413 -0.137969,0.8502036 -0.961974,1.9824431 -1.746436,2.3997241 -0.694598,0.369478 -1.94833,0.422142 -2.821019,0.118499 z"
       id="path3315"
       inkscape:connector-curvature="0" />
  </g>
</svg>
