<?xml version="1.0" encoding="UTF-8" standalone="no"?>
<!-- Created with Inkscape (http://www.inkscape.org/) -->
<svg xmlns:dc="http://purl.org/dc/elements/1.1/" xmlns:cc="http://creativecommons.org/ns#" xmlns:rdf="http://www.w3.org/1999/02/22-rdf-syntax-ns#" xmlns:svg="http://www.w3.org/2000/svg" xmlns="http://www.w3.org/2000/svg" xmlns:sodipodi="http://sodipodi.sourceforge.net/DTD/sodipodi-0.dtd" xmlns:inkscape="http://www.inkscape.org/namespaces/inkscape" width="64px" height="64px" id="svg2985" version="1.1" inkscape:version="0.48.1 " sodipodi:docname="bp.svg">
  <defs id="defs2987"/>
  <sodipodi:namedview id="base" pagecolor="#ffffff" bordercolor="#666666" borderopacity="1.0" inkscape:pageopacity="0.0" inkscape:pageshadow="2" inkscape:zoom="7.7781746" inkscape:cx="28.168786" inkscape:cy="37.123605" inkscape:current-layer="layer1" showgrid="true" inkscape:document-units="px" inkscape:grid-bbox="true" inkscape:window-width="1365" inkscape:window-height="878" inkscape:window-x="-8" inkscape:window-y="-8" inkscape:window-maximized="1"/>
  <metadata id="metadata2990">
    <rdf:RDF>
      <cc:Work rdf:about="">
        <dc:format>image/svg+xml</dc:format>
        <dc:type rdf:resource="http://purl.org/dc/dcmitype/StillImage"/>
        <dc:title/>
      </cc:Work>
    </rdf:RDF>
  </metadata>
  <g id="layer1" inkscape:label="Layer 1" inkscape:groupmode="layer">
    <path style="fill:#000000" d="m 25.476394,58.411182 c -6.113826,-0.463913 -11.076298,-1.577406 -12.777979,-2.867157 -0.315892,-0.239422 -0.303705,-0.494743 0.2375,-4.975684 0.313764,-2.59782 0.568607,-5.12007 0.566319,-5.605 -0.0059,-1.247331 -0.979191,-4.912448 -1.614552,-6.079817 -0.336925,-0.619041 -1.239648,-1.632932 -2.4373695,-2.737526 -2.896567,-2.671345 -3.88204,-4.480521 -4.325921,-7.941721 -0.684859,-5.340252 2.446713,-9.6526 8.1696255,-11.250025 1.236368,-0.345105 1.97367,-0.405248 5.057377,-0.41254 3.155723,-0.0075 3.852776,0.04843 5.539264,0.444125 l 1.929266,0.452661 0.575681,-0.409922 c 0.796096,-0.56687 2.00722,-0.973671 3.355789,-1.127167 l 1.14,-0.129757 0.05335,-2.3275 0.05335,-2.3275 -1.335849,0 -1.335848,0 0,-1.045 0,-1.0449996 1.33,0 1.33,0 0,-1.8049999 0,-1.805 1.045,0 1.045,0 0,1.805 0,1.8049999 1.33,0 1.33,0 0,1.0449996 0,1.045 -1.335848,0 -1.335848,0 0.05335,2.3275 0.05335,2.3275 1.14,0.129757 c 1.348569,0.153496 2.559693,0.560297 3.35579,1.127167 l 0.575681,0.409922 1.929266,-0.451041 c 2.585883,-0.604552 8.177792,-0.661766 10.289263,-0.105276 1.64868,0.434519 4.131839,1.612302 5.093817,2.41604 1.092454,0.912753 2.555074,3.122445 3.00158,4.534717 0.768932,2.432087 0.440266,5.896863 -0.810536,8.544629 -0.486066,1.028928 -1.043343,1.697545 -3.103943,3.724085 -2.759315,2.713706 -2.938546,3.015705 -3.717243,6.263455 -0.486792,2.030286 -0.463621,2.995156 0.200907,8.366545 0.632735,5.114376 0.701262,4.652591 -0.806289,5.433331 -1.783498,0.923649 -6.830956,1.870079 -12.018293,2.253507 -3.016086,0.222936 -9.841907,0.219047 -12.825,-0.0073 z m 11.21,-2.081282 c 4.913552,-0.282601 9.747855,-1.05942 11.904855,-1.912979 0.532192,-0.210598 0.52056,-0.220511 -0.789855,-0.673119 -1.66056,-0.573549 -5.236236,-1.301952 -7.98,-1.62561 -3.167974,-0.373699 -13.201181,-0.308157 -16.34,0.106742 -3.484835,0.460636 -8.265,1.64259 -8.265,2.043621 0,0.188872 2.093487,0.811072 3.99,1.185859 4.595405,0.908137 11.179064,1.23788 17.48,0.875486 z m -19.38,-5.236209 c 6.298753,-2.150912 20.75244,-2.330258 28.287381,-0.351 0.980311,0.257505 2.169148,0.639276 2.641863,0.848381 0.472714,0.209104 0.893286,0.346383 0.934606,0.305065 0.177253,-0.177252 -0.199094,-2.035224 -0.397209,-1.960963 -0.904154,0.338914 -1.010735,0.30198 -2.688192,-0.931564 -0.936897,-0.688963 -1.725945,-1.312116 -1.753441,-1.384785 -0.0275,-0.07267 0.938315,-0.384465 2.146243,-0.69288 l 2.196235,-0.560757 -0.05624,-0.646939 c -0.05102,-0.586822 -0.135692,-0.670627 -0.911244,-0.901888 -3.047959,-0.908869 -8.564649,-1.680873 -13.49,-1.887787 -5.138179,-0.215855 -12.227416,0.458638 -16.661426,1.585222 l -2.053574,0.521768 -0.05624,0.664812 -0.05624,0.664812 2.193743,0.56012 c 1.206559,0.308066 2.19194,0.60652 2.189734,0.663231 -0.0022,0.05671 -0.806773,0.681042 -1.78793,1.387401 -1.625765,1.170427 -1.829883,1.266812 -2.302342,1.087184 -0.285131,-0.108407 -0.539645,-0.173337 -0.565586,-0.144288 -0.02594,0.02905 -0.109382,0.514598 -0.185424,1.079 -0.128748,0.955602 -0.11389,1.015385 0.216017,0.869207 0.194851,-0.08634 1.166524,-0.434344 2.159274,-0.773352 z m 12.7775,-3.741362 c -1.071125,-0.540185 -1.9475,-1.035298 -1.9475,-1.10025 0,-0.106204 3.630475,-1.885427 3.847183,-1.885427 0.04943,0 1.020914,0.436601 2.158846,0.970224 l 2.068971,0.970225 -1.995,1.015035 c -1.09725,0.558272 -2.03775,1.014433 -2.09,1.013692 -0.05225,-7.6e-4 -0.971375,-0.443314 -2.0425,-0.983499 z M 17.260099,42.454321 c 1.278204,-0.445584 1.313163,-2.585163 0.07728,-4.729567 -1.828559,-3.172763 -2.628684,-6.23842 -2.431988,-9.318102 0.268137,-4.198213 1.712816,-7.011737 4.749408,-9.249498 1.004963,-0.74059 1.063706,-0.820502 0.603149,-0.820502 -1.153087,0 -5.090962,2.802415 -6.519267,4.639479 -1.669298,2.147029 -2.236393,4.065949 -2.082152,7.045521 0.11407,2.203557 0.560646,3.662446 1.537184,5.021713 1.226042,1.706561 1.316729,1.994041 1.173071,3.718642 -0.147107,1.765995 0.09104,2.61194 0.962722,3.419788 0.557965,0.517104 1.03559,0.584527 1.930596,0.272526 z M 48.64431,42.247132 c 0.858238,-0.799571 1.190354,-1.917034 1.052359,-3.540848 -0.144565,-1.701102 -0.03137,-2.080405 1.040617,-3.486903 0.995801,-1.306542 1.531043,-3.009942 1.663081,-5.292729 0.214322,-3.705368 -0.949259,-6.269966 -4.042229,-8.909301 -1.4502,-1.237502 -3.896446,-2.680699 -4.54384,-2.680699 -0.467387,0 -0.407554,0.08119 0.640425,0.868967 2.174324,1.634467 3.451021,3.523829 4.231893,6.262704 0.346723,1.21612 0.428492,1.96111 0.416347,3.793329 -0.01945,2.933579 -0.446244,4.588175 -1.960392,7.6 -1.234555,2.455684 -1.519958,3.617433 -1.158063,4.713984 0.348804,1.056884 1.841607,1.433759 2.659802,0.671496 z M 21.411965,41.689127 c 1.161501,-0.202267 1.187172,-0.219431 1.013063,-0.677369 -0.29707,-0.781356 -0.201785,-2.344775 0.218789,-3.589883 l 0.397425,-1.176566 -0.763319,-1.893259 c -2.26818,-5.625763 -1.766561,-9.757545 1.621906,-13.359508 0.762611,-0.810659 1.386565,-1.51759 1.386565,-1.570957 0,-0.05337 -0.42343,-0.19861 -0.940956,-0.322763 -0.886128,-0.212579 -0.997507,-0.194951 -1.911539,0.302526 -1.576469,0.858022 -2.957301,2.401752 -3.89125,4.350304 -1.046536,2.18345 -1.318758,3.36505 -1.291298,5.605 0.02875,2.345582 0.516755,4.170185 1.853323,6.929445 0.944347,1.949544 1.05172,2.29702 1.05172,3.403513 0,0.677768 -0.08338,1.451621 -0.185297,1.719673 -0.216845,0.570346 -0.221799,0.569385 1.440868,0.279844 z m 22.679727,-0.279844 c -0.101914,-0.268052 -0.185298,-1.061952 -0.185298,-1.76422 0,-1.144309 0.0966,-1.473382 0.930607,-3.170131 1.384887,-2.817499 1.762186,-4.177568 1.87063,-6.74318 0.108568,-2.568583 -0.155631,-3.894392 -1.202894,-6.036385 -0.81522,-1.667385 -2.519242,-3.555662 -3.874221,-4.293133 -0.915768,-0.498424 -1.026838,-0.516039 -1.913166,-0.303412 -0.517525,0.124153 -0.940956,0.268998 -0.940956,0.321878 0,0.05288 0.581505,0.718815 1.292232,1.479856 3.678685,3.939099 4.020923,7.86713 1.263052,14.496686 -0.331619,0.797168 -0.329912,0.844379 0.07547,2.09 0.446684,1.37253 0.534247,2.870826 0.203853,3.488174 -0.263095,0.491597 -0.207458,0.536262 0.899321,0.721983 1.691604,0.283854 1.791886,0.265584 1.58137,-0.288116 z M 27.372828,41.036418 c 0.572787,-0.06298 1.105853,-0.215818 1.184589,-0.339639 0.305039,-0.479698 0.128583,-1.637294 -0.413999,-2.715939 -0.736113,-1.463382 -1.021804,-3.822164 -1.010028,-8.339188 0.0079,-3.024441 0.247367,-5.663161 0.724278,-7.980433 0.103926,-0.504973 0.05219,-0.595048 -0.450849,-0.784924 -0.5401,-0.203865 -0.616976,-0.166193 -1.551816,0.760433 -1.913699,1.896888 -2.550126,3.627187 -2.525008,6.864924 0.01689,2.176104 0.241404,3.248833 1.283695,6.133248 0.446403,1.235376 0.479286,1.494418 0.307598,2.423168 -0.105731,0.571957 -0.280586,1.204999 -0.388567,1.406762 -0.286071,0.534529 -0.240169,1.655909 0.09425,2.30261 0.259559,0.501931 0.366046,0.552395 0.9975,0.472703 0.388806,-0.04907 1.175566,-0.140744 1.748355,-0.203725 z m 12.080918,-0.303653 c 0.348901,-0.674699 0.295519,-1.496755 -0.218925,-3.371312 l -0.332122,-1.210201 0.782828,-2.304799 c 1.807244,-5.320878 1.36234,-9.194195 -1.387184,-12.076784 -1.023716,-1.073259 -1.081695,-1.105006 -1.635976,-0.895789 -0.510536,0.192707 -0.561308,0.280546 -0.455088,0.787339 1.100199,5.24921 0.880775,14.403246 -0.397533,16.584515 -0.501089,0.855043 -0.661877,2.188393 -0.306723,2.543547 0.09334,0.09334 0.846665,0.241066 1.674044,0.32827 0.82738,0.08721 1.609006,0.169929 1.736948,0.183827 0.127942,0.01391 0.370821,-0.241976 0.539731,-0.568613 z m -6.250685,-0.92108 c 0,-0.903091 0.121424,-1.366609 0.594339,-2.268797 0.765664,-1.460673 0.990147,-3.216432 0.985285,-7.706252 -0.0032,-2.995097 -0.325806,-6.832966 -0.663795,-7.897875 -0.100413,-0.316372 -0.314822,-0.347798 -2.144532,-0.314313 l -2.032964,0.0372 -0.223529,1.33 c -0.943776,5.615454 -0.694317,12.182154 0.553189,14.562043 0.469172,0.89505 0.576175,1.322463 0.563036,2.249009 l -0.01623,1.143948 1.192594,0 1.192596,0 0,-1.134967 z M 9.9564835,32.862787 c -0.453981,-1.396377 -0.449259,-5.512476 0.0081,-7.021135 0.8243485,-2.719491 2.9108335,-5.324507 5.4404465,-6.7925 1.341336,-0.778409 1.193041,-0.857759 -0.809854,-0.433337 -3.241803,0.686953 -6.2138485,3.284534 -7.0569675,6.167822 -0.55667,1.903694 -0.290634,4.424488 0.668715,6.33631 0.443404,0.883629 1.8723895,2.867165 1.9846785,2.754877 0.039,-0.039 -0.06679,-0.494415 -0.2350735,-1.012037 z M 55.765391,31.211542 c 2.122875,-4.161138 0.983582,-8.527606 -2.897099,-11.103457 -1.277019,-0.847635 -2.9664,-1.48756 -4.401898,-1.667404 l -1.045,-0.130921 1.14,0.698956 c 3.337045,2.04601 5.20813,4.722652 5.784495,8.274886 0.333467,2.055205 0.189235,3.980133 -0.474084,6.327179 -0.209167,0.740099 1.208153,-1.055694 1.893586,-2.399239 z M 35.135994,19.563078 c 1.197677,-0.355671 1.5428,-0.851691 0.9663,-1.388783 -1.226326,-1.142497 -7.201209,-1.082975 -8.167526,0.08137 -1.123041,1.353181 3.947307,2.273728 7.201226,1.307417 z" id="path3164" inkscape:connector-curvature="0"/>
    <path style="fill:#ffffff" d="m 28.374489,56.342645 c -3.407177,-0.120593 -7.219939,-0.549559 -9.77093,-1.099307 -1.501033,-0.323478 -3.214121,-0.854351 -3.214121,-0.996031 0,-0.295287 4.4094,-1.386576 7.585327,-1.877304 2.073912,-0.320451 10.169169,-0.524774 13.797898,-0.348257 3.288036,0.159944 4.518443,0.31188 7.573426,0.935203 1.922573,0.392272 4.34165,1.101459 4.34165,1.272818 0,0.263759 -3.644954,1.10571 -6.414049,1.481585 -3.560739,0.483333 -9.919564,0.772147 -13.899201,0.631293 z" id="path3166" inkscape:connector-curvature="0"/>
    <path style="fill:#ffffff" d="m 15.005158,51.374431 c 7.78e-4,-0.22981 0.03751,-0.636212 0.08162,-0.903116 0.0697,-0.421716 0.115741,-0.474001 0.351521,-0.399167 0.516992,0.164087 0.984111,0.06401 1.591132,-0.340884 1.213916,-0.809706 2.726011,-1.992003 2.728584,-2.133462 0.0024,-0.131192 -1.855487,-0.701483 -3.565044,-1.094321 l -0.674965,-0.1551 0,-0.615788 c 0,-0.602849 0.01013,-0.618509 0.482118,-0.745269 4.189509,-1.125157 8.932026,-1.785517 14.431406,-2.009465 4.468101,-0.181951 12.086309,0.604958 16.380603,1.692005 1.496665,0.378862 1.747108,0.550357 1.746882,1.196204 l -1.29e-4,0.462192 -1.923763,0.496761 c -1.05807,0.273218 -2.027054,0.573376 -2.1533,0.667016 -0.267133,0.198143 -0.415541,0.047 1.395172,1.42091 1.54704,1.173844 1.702226,1.250438 2.378946,1.174162 0.610431,-0.0688 0.564702,-0.130199 0.852484,1.144525 0.123974,0.549138 -0.07173,0.547193 -1.771086,-0.01761 -4.144033,-1.377303 -9.517948,-1.959713 -16.835986,-1.824633 -6.539878,0.120716 -10.14233,0.608641 -13.884518,1.880554 -0.845213,0.287276 -1.553926,0.522319 -1.57492,0.522319 -0.02099,0 -0.03753,-0.188026 -0.03675,-0.417836 z m 21.208999,-5.079069 c -0.0035,-0.119465 -4.021056,-1.959858 -4.278362,-1.959858 -0.365115,0 -3.839574,1.800716 -3.786676,1.96253 0.02855,0.08733 0.932205,0.60631 2.00812,1.153277 l 1.95621,0.994487 2.051749,-1.027385 c 1.128461,-0.565062 2.050492,-1.070435 2.048959,-1.123051 l 0,0 z" id="path3168" inkscape:connector-curvature="0"/>
    <path style="fill:#ffffff" d="M 9.4408568,32.869804 C 8.5124884,31.556757 8.2407844,31.072911 7.897676,30.121735 7.222773,28.250746 7.1494522,26.239148 7.6964433,24.600797 8.5987524,21.898196 11.300756,19.550194 14.42929,18.75005 c 1.703711,-0.435736 1.815271,-0.356714 0.623163,0.441408 -2.915272,1.95179 -4.839798,4.687197 -5.3298669,7.575559 -0.2099531,1.237418 -0.089115,5.337186 0.1822835,6.184498 0.1121884,0.350253 0.1828944,0.657908 0.1571254,0.683679 -0.02577,0.02577 -0.305282,-0.318657 -0.6211382,-0.76539 l 0,0 z" id="path3170" inkscape:connector-curvature="0"/>
    <path style="fill:#ffffff" d="m 15.450619,42.129933 c -0.867214,-0.761424 -1.006572,-1.215798 -1.019094,-3.322718 -0.01228,-2.066853 -0.04094,-2.163051 -1.111717,-3.731738 -1.121631,-1.643188 -1.577862,-3.313394 -1.579421,-5.782062 -0.0012,-1.867486 0.171019,-2.796056 0.75392,-4.065465 0.856862,-1.866022 2.109597,-3.301196 4.287973,-4.91244 1.523352,-1.126753 3.373507,-2.11208 3.579351,-1.906236 0.02171,0.02171 -0.512095,0.48869 -1.186237,1.037729 -2.008318,1.635624 -3.204429,3.479289 -3.861203,5.951588 -0.269185,1.013298 -0.347742,1.661008 -0.402212,3.316282 -0.105698,3.212009 0.278129,4.80932 2.023533,8.420999 0.563839,1.166726 1.081558,2.425186 1.150485,2.796577 0.294963,1.589307 -0.376369,2.603147 -1.72372,2.603147 -0.321182,0 -0.581623,-0.115889 -0.911658,-0.405663 l 0,0 z" id="path3172" inkscape:connector-curvature="0"/>
    <path style="fill:#ffffff" d="m 20.021979,41.621202 c 0.0023,-0.09812 0.05513,-0.5735 0.117363,-1.056391 0.176853,-1.372215 -6.56e-4,-2.155723 -0.999972,-4.413859 -1.514984,-3.42337 -1.92802,-5.241006 -1.777406,-7.821774 0.110333,-1.890551 0.602268,-3.412299 1.74437,-5.396028 0.704408,-1.223492 2.192082,-2.769075 3.280066,-3.407743 0.824524,-0.484013 1.292668,-0.542372 2.225266,-0.277404 l 0.544099,0.154588 -1.393472,1.660691 c -1.525225,1.817708 -2.137977,2.892853 -2.602297,4.566034 -0.697038,2.511785 -0.146283,6.05297 1.560795,10.035421 0.223385,0.521137 0.221715,0.548641 -0.09784,1.611344 -0.335761,1.116605 -0.465546,3.001694 -0.257742,3.743618 0.09017,0.321933 0.06098,0.358096 -0.385694,0.477801 -0.265787,0.07123 -0.81591,0.168343 -1.222496,0.215808 -0.587191,0.06855 -0.738383,0.0496 -0.735042,-0.09211 z" id="path3174" inkscape:connector-curvature="0"/>
    <path style="fill:#ffffff" d="m 25.061239,41.16361 c -0.256464,-0.102733 -0.522111,-0.714951 -0.609292,-1.404195 -0.0598,-0.47281 -0.01117,-0.82398 0.194209,-1.402177 0.150698,-0.424264 0.306524,-1.178354 0.346281,-1.675754 0.06699,-0.83806 0.02464,-1.05015 -0.577562,-2.89271 -0.84826,-2.595426 -0.970523,-3.290102 -0.972205,-5.523878 -0.0021,-2.839384 0.441839,-4.196329 1.967242,-6.012565 0.970253,-1.155241 1.441034,-1.468935 1.942285,-1.294198 0.208967,0.07285 0.405685,0.174103 0.437149,0.225014 0.03147,0.05091 -0.05032,0.753927 -0.181744,1.56226 -0.361037,2.220583 -0.519226,4.483356 -0.514432,7.358541 0.0069,4.119675 0.270727,6.203434 1.011545,7.988469 0.626059,1.508518 0.673654,2.358316 0.147845,2.63972 -0.136102,0.07284 -0.699498,0.190934 -1.25199,0.262433 -0.552492,0.0715 -1.178093,0.15351 -1.390225,0.182247 -0.212132,0.02874 -0.45923,0.02279 -0.549106,-0.01321 l 0,0 z" id="path3176" inkscape:connector-curvature="0"/>
    <path style="fill:#ffffff" d="m 30.91469,39.803593 c -0.05188,-0.817231 -0.174945,-1.32622 -0.53619,-2.217744 -0.944601,-2.331196 -1.165044,-4.12321 -1.067036,-8.674079 0.05115,-2.374915 0.145622,-3.780096 0.341706,-5.082362 0.149059,-0.98995 0.29657,-1.872226 0.327804,-1.960615 0.06509,-0.184185 3.608763,-0.233066 3.891361,-0.05368 0.4973,0.315679 0.864113,4.929762 0.761661,9.580794 -0.08296,3.766244 -0.197886,4.517332 -0.944051,6.169922 -0.386891,0.856878 -0.475704,1.219818 -0.529538,2.163986 l -0.06468,1.134435 -1.056846,0 -1.056847,0 -0.06734,-1.06066 0,0 z" id="path3178" inkscape:connector-curvature="0"/>
    <path style="fill:#ffffff" d="m 37.223568,41.053859 c -0.683795,-0.09328 -1.363581,-0.233987 -1.510637,-0.312689 -0.416962,-0.22315 -0.362886,-1.210958 0.12913,-2.358837 0.56767,-1.324384 0.858665,-2.9964 1.037598,-5.961891 0.174054,-2.884641 0.02746,-6.67949 -0.354208,-9.169576 -0.316513,-2.064976 -0.316409,-2.066206 0.193189,-2.277813 l 0.43741,-0.181632 0.920751,0.940452 c 1.040561,1.062825 1.703975,2.11172 2.103404,3.325599 0.835046,2.53774 0.645059,4.987226 -0.712463,9.18569 l -0.623548,1.928473 0.351679,1.349931 c 0.497462,1.909528 0.472204,2.958747 -0.08463,3.515584 -0.243462,0.243462 -0.226484,0.243311 -1.887672,0.01671 l 0,0 z" id="path3180" inkscape:connector-curvature="0"/>
    <path style="fill:#ffffff" d="m 42.38806,41.591103 c -0.649062,-0.136134 -0.703511,-0.174692 -0.663312,-0.46972 0.143164,-1.050681 0.05107,-2.572766 -0.212072,-3.504828 -0.154935,-0.548796 -0.2817,-1.159503 -0.2817,-1.357127 0,-0.197622 0.255396,-1.050326 0.567546,-1.894897 0.946601,-2.561175 1.248839,-3.882456 1.325649,-5.795287 0.08016,-1.996133 -0.115071,-3.098923 -0.802553,-4.533458 -0.561384,-1.171411 -0.929365,-1.699761 -2.290742,-3.289062 -0.739563,-0.863381 -1.048764,-1.314125 -0.945733,-1.378663 0.08419,-0.05274 0.460669,-0.160179 0.836614,-0.238756 0.636166,-0.132967 0.734172,-0.11839 1.414213,0.210345 0.824727,0.398677 2.834962,2.311804 3.434292,3.268391 0.59446,0.948814 1.173606,2.195709 1.494474,3.217585 0.269368,0.857861 0.301243,1.20177 0.297579,3.210659 -0.0056,3.091032 -0.173491,3.802847 -1.685038,7.145722 -1.091857,2.414702 -1.180529,2.937217 -0.865496,5.100082 l 0.07022,0.482118 -0.493419,-0.01239 c -0.271381,-0.0068 -0.811617,-0.07914 -1.200526,-0.16071 z" id="path3182" inkscape:connector-curvature="0"/>
    <path style="fill:#ffffff" d="m 46.728741,42.334342 c -0.383261,-0.207955 -0.659963,-0.659614 -0.798594,-1.303537 -0.138377,-0.642744 0.228382,-1.816045 1.338067,-4.280628 1.350329,-2.999045 1.656074,-4.020034 1.810156,-6.044727 0.282877,-3.717116 -0.351654,-6.482478 -2.064506,-8.997363 -0.487165,-0.715276 -1.609246,-1.846183 -2.732737,-2.754231 -0.337671,-0.272918 -0.585734,-0.524429 -0.551251,-0.558913 0.121127,-0.121127 2.019815,0.869262 3.148499,1.642313 2.854954,1.955395 4.633228,4.245665 5.21615,6.717967 0.247363,1.049124 0.247938,3.641511 0.0011,4.937473 -0.252003,1.323053 -0.617431,2.218608 -1.364271,3.343425 -1.069773,1.611186 -1.058053,1.572372 -1.139511,3.773852 -0.06932,1.873351 -0.09531,2.032154 -0.424595,2.594035 -0.192917,0.329188 -0.503237,0.718463 -0.689599,0.865055 -0.403684,0.317539 -1.227331,0.348281 -1.748904,0.06528 l 3e-6,0 z" id="path3184" inkscape:connector-curvature="0"/>
    <path style="fill:#ffffff" d="m 53.998442,33.343208 c 0.673863,-2.350492 0.743265,-4.69655 0.207,-6.997357 -0.674355,-2.893265 -2.41556,-5.28991 -5.145593,-7.082546 -1.317969,-0.865424 -1.241874,-0.947247 0.475137,-0.510904 5.04902,1.283105 8.08408,5.727013 6.979691,10.219601 -0.339596,1.381457 -1.576356,3.723008 -2.314776,4.382553 -0.271549,0.242543 -0.274204,0.242394 -0.201459,-0.01135 z" id="path3186" inkscape:connector-curvature="0"/>
    <path style="fill:#ffffff" d="m 30.367245,19.788463 c -1.431193,-0.235391 -2.507015,-0.707325 -2.507015,-1.09976 0,-0.335886 0.476263,-0.690256 1.248444,-0.928922 0.591483,-0.182816 1.193078,-0.230052 2.929914,-0.230052 2.483471,0 3.596338,0.224115 4.063793,0.818388 l 0.253592,0.32239 -0.3101,0.310101 c -0.461698,0.461697 -1.837661,0.793618 -3.557308,0.858123 -0.813173,0.0305 -1.767767,0.0079 -2.12132,-0.05027 z" id="path3188" inkscape:connector-curvature="0"/>
  </g>
</svg>