<?xml version="1.0" encoding="UTF-8" standalone="no"?>
<!-- Created with Inkscape (http://www.inkscape.org/) -->
<svg xmlns:dc="http://purl.org/dc/elements/1.1/" xmlns:cc="http://creativecommons.org/ns#" xmlns:rdf="http://www.w3.org/1999/02/22-rdf-syntax-ns#" xmlns:svg="http://www.w3.org/2000/svg" xmlns="http://www.w3.org/2000/svg" xmlns:sodipodi="http://sodipodi.sourceforge.net/DTD/sodipodi-0.dtd" xmlns:inkscape="http://www.inkscape.org/namespaces/inkscape" width="64px" height="64px" id="svg2985" version="1.1" inkscape:version="0.48.1 " sodipodi:docname="wb.svg">
  <defs id="defs2987"/>
  <sodipodi:namedview id="base" pagecolor="#ffffff" bordercolor="#666666" borderopacity="1.0" inkscape:pageopacity="0.0" inkscape:pageshadow="2" inkscape:zoom="7.7781746" inkscape:cx="28.168786" inkscape:cy="37.123605" inkscape:current-layer="layer1" showgrid="true" inkscape:document-units="px" inkscape:grid-bbox="true" inkscape:window-width="1365" inkscape:window-height="878" inkscape:window-x="-8" inkscape:window-y="-8" inkscape:window-maximized="1"/>
  <metadata id="metadata2990">
    <rdf:RDF>
      <cc:Work rdf:about="">
        <dc:format>image/svg+xml</dc:format>
        <dc:type rdf:resource="http://purl.org/dc/dcmitype/StillImage"/>
        <dc:title/>
      </cc:Work>
    </rdf:RDF>
  </metadata>
  <g id="layer1" inkscape:label="Layer 1" inkscape:groupmode="layer">
    <path style="fill:#000000" d="m 19.248515,56.662261 c 0,-1.705032 0.508148,-5.204573 1.046309,-7.205781 0.659901,-2.453912 1.676132,-4.300617 3.83355,-6.966372 1.01157,-1.249919 2.216759,-2.784927 2.678196,-3.411133 0.812182,-1.10219 2.321945,-3.564617 2.321945,-3.787095 0,-0.06014 -0.346889,-0.109351 -0.770864,-0.109351 -0.423976,0 -1.148972,-0.09521 -1.611105,-0.211574 -0.462134,-0.116368 -1.060797,-0.15622 -1.330367,-0.08856 -0.960496,0.24107 -2.156397,1.643335 -4.002402,4.693055 -2.28145,3.769104 -2.77408,4.449144 -3.491932,4.82036 -0.517687,0.267707 -0.684275,0.268377 -1.693671,0.0068 -0.615731,-0.159556 -1.385044,-0.290099 -1.709585,-0.290099 -0.812172,0 -1.422954,-0.630335 -1.258672,-1.298965 0.216628,-0.88168 0.645387,-1.343847 1.776333,-1.914748 0.605001,-0.305402 1.208821,-0.686398 1.341822,-0.846655 0.389248,-0.469015 0.178874,-0.967003 -0.438336,-1.037613 -0.479896,-0.0549 -0.774438,0.17059 -2.295693,1.7575 -1.984984,2.070652 -2.319485,2.191722 -3.410014,1.234227 -1.4216591,-1.248234 -2.3236401,-4.18928 -1.8367041,-5.988855 0.294386,-1.087963 1.335213,-2.376663 2.8327901,-3.507419 1.450173,-1.094965 3.349474,-3.325962 4.216794,-4.953221 0.831415,-1.559894 1.231792,-2.819839 1.911726,-6.016006 0.744889,-3.501501 1.113991,-4.558435 2.135058,-6.113795 0.753927,-1.148435 0.803738,-1.302234 0.678332,-2.09445 -0.201335,-1.271882 -0.190018,-4.65554 0.0174,-5.201079 0.212867,-0.559882 0.806225,-0.925656 1.234808,-0.761194 0.166782,0.064 0.60544,0.571648 0.974795,1.128104 0.871321,1.312702 3.138049,3.759689 3.299752,3.562163 0.06889,-0.08415 0.231799,-0.580494 0.362025,-1.102994 0.311812,-1.251056 1.596463,-3.898393 2.122459,-4.373843 l 0.416146,-0.376157 0.510845,0.611455 c 0.280965,0.3363 1.042211,1.686332 1.691659,3.000071 l 1.180816,2.388616 2.896364,-0.12921 2.896362,-0.129211 0.228604,0.854727 c 0.221987,0.829979 0.254361,0.858258 1.118052,0.97664 0.489194,0.06705 1.421388,0.121912 2.071537,0.121912 l 1.182093,0 0.102203,1.127098 c 0.05621,0.619904 0.150121,1.204634 0.20869,1.299401 0.05857,0.09477 0.99666,0.367658 2.084646,0.606426 l 1.978158,0.434124 -0.354008,1.163975 c -0.194704,0.640187 -0.354661,1.2982 -0.355459,1.462252 -9.5e-4,0.185591 0.8923,0.793058 2.364295,1.607955 l 2.365747,1.309679 -1.225747,0.665913 c -0.67416,0.366252 -1.225747,0.719368 -1.225747,0.784703 0,0.06533 0.89775,0.829646 1.995,1.698474 1.09725,0.868828 1.995,1.609798 1.995,1.646599 0,0.0368 -0.428425,0.330526 -0.952056,0.65272 l -0.952056,0.585806 0.557595,0.694937 c 0.306677,0.382215 1.119853,1.248218 1.807056,1.924449 0.687204,0.676231 1.249461,1.280385 1.249461,1.342565 0,0.06218 -0.513,0.358245 -1.14,0.657924 -0.627,0.29968 -1.14,0.626626 -1.14,0.726551 0,0.09992 0.82068,1.016994 1.823736,2.037934 l 1.823736,1.856256 -1.301236,0.122294 c -0.715681,0.06726 -1.444027,0.139093 -1.618547,0.159628 -0.238359,0.02805 0.0545,0.557365 1.17701,2.127337 0.821877,1.1495 1.499041,2.187195 1.504811,2.305986 0.0058,0.118792 -0.54526,0.32085 -1.22451,0.449014 -0.67925,0.128164 -1.235,0.31459 -1.235,0.41428 0,0.09969 0.584659,1.137383 1.299239,2.305986 0.714582,1.168604 1.400226,2.314559 1.523654,2.546568 l 0.224413,0.421834 -1.54983,-0.119514 -1.549829,-0.119513 0.717718,1.312679 c 0.394744,0.721974 0.919524,1.669905 1.166176,2.106513 0.246652,0.436609 0.448459,0.841503 0.448459,0.899764 0,0.05826 -0.519673,0.368264 -1.154829,0.688889 l -1.15483,0.582956 1.20233,1.125583 1.202329,1.125583 -0.665,0.569084 -0.665,0.569086 -17.2425,0.0051 -17.2425,0.0051 0,-1.130268 z m 31.97834,-3.192232 C 50.768649,39.966123 49.239392,31.69038 45.934066,24.827529 44.717099,22.300743 43.692969,20.839324 41.851227,19.001385 40.429491,17.582584 39.929042,17.223216 38.227596,16.399287 36.161901,15.398969 34.820979,14.984453 32.661401,14.678619 31.95053,14.577947 31.213734,14.355151 31.02408,14.183516 30.626359,13.823583 29.473741,11.686325 28.836238,10.126673 l -0.437012,-1.069144 -0.219089,0.57 c -0.234043,0.608906 -0.824389,3.396304 -1.038317,4.902566 -0.10185,0.717128 -0.229537,0.958096 -0.596211,1.125164 -0.40735,0.185601 -0.544412,0.1408 -1.079348,-0.352809 -0.815647,-0.752632 -2.358776,-1.969921 -2.497223,-1.969921 -0.06079,0 -0.110523,0.176621 -0.110523,0.392491 0,0.49766 -0.279426,1.024427 -1.051628,1.982509 -1.281354,1.589791 -1.817875,3.010016 -2.575037,6.816385 -0.309224,1.554512 -0.826142,3.460343 -1.148707,4.23518 -1.19417,2.868525 -3.488606,5.688058 -6.359005,7.814307 -1.461058,1.082279 -1.7856231,1.568362 -1.7856231,2.674221 0,1.447705 1.0279631,3.444907 1.7731001,3.444907 0.149185,0 0.627222,-0.471489 1.062306,-1.047753 1.027991,-1.361565 2.011775,-2.01032 3.113123,-2.052942 2.633931,-0.101939 2.583906,3.458019 -0.06094,4.336495 -1.603401,0.532564 -0.935349,1.311359 0.738302,0.860691 0.722253,-0.194483 0.909073,-0.394733 2.273262,-2.436693 0.817487,-1.223638 1.836104,-2.826661 2.263595,-3.562271 0.725937,-1.249164 2.291557,-2.957296 2.894899,-3.158409 0.241041,-0.08035 -0.115494,-0.723978 -0.968596,-1.748546 -0.196099,-0.235512 -1.363409,0.708267 -1.984475,1.604467 -0.924552,1.334128 -1.903667,0.531882 -1.14393,-0.937287 0.684089,-1.322883 3.582938,-3.00269 5.528227,-3.203461 l 1.071799,-0.11062 -0.06284,0.536013 c -0.05171,0.441068 -0.205371,0.583313 -0.867518,0.803056 -0.793039,0.263184 -0.800857,0.274388 -0.540552,0.774652 0.565965,1.087693 1.965613,1.934402 3.191628,1.930752 1.523502,-0.0045 3.443296,-1.482177 4.303625,-3.312451 0.454838,-0.967622 0.786445,-2.713165 0.757076,-3.985153 -0.01621,-0.701702 0.06462,-0.997488 0.324479,-1.1875 0.44037,-0.322006 0.561548,-0.317771 0.911165,0.03185 0.800769,0.800768 0.465603,4.223552 -0.623433,6.366636 l -0.580268,1.141889 0.660881,-0.276133 c 0.363483,-0.151873 1.048819,-0.543043 1.522968,-0.869267 1.087786,-0.748416 1.684215,-0.708176 1.764752,0.119065 0.04614,0.473925 -0.06761,0.697796 -0.57,1.121851 -0.677874,0.572174 -2.728732,1.608852 -3.192642,1.613832 -0.253333,0.0027 -0.253333,0.02352 0,0.187241 0.15675,0.101301 0.930525,0.185491 1.7195,0.187091 0.858635,0.0017 1.526029,0.09444 1.6625,0.230909 0.293075,0.293075 0.293075,0.960925 0,1.254 -0.318959,0.318959 -3.241605,0.292222 -4.527839,-0.04142 -0.571258,-0.148183 -1.048154,-0.255058 -1.05977,-0.2375 -0.01161,0.01756 -0.41732,0.801422 -0.901564,1.741922 -0.523389,1.016525 -1.655983,2.67316 -2.792802,4.085 -2.153192,2.6741 -3.963957,5.376762 -4.666058,6.964336 -0.612832,1.385721 -1.178774,3.770065 -1.334701,5.623164 l -0.123901,1.4725 14.91114,0 14.911139,0 -0.0693,-2.0425 z M 11.757086,38.113957 c -0.496865,-0.496865 -0.385791,-1.728739 0.205266,-2.276513 0.910576,-0.843893 2.536163,-1.089561 2.536163,-0.383279 0,0.331569 -0.728076,1.058364 -1.060229,1.058364 -0.125717,0 -0.286385,0.235125 -0.357041,0.5225 -0.155477,0.632366 -0.617184,1.3775 -0.853539,1.3775 -0.09463,0 -0.306406,-0.134356 -0.47062,-0.298572 z M 23.0941,23.869073 c -0.314023,-0.219949 -0.511851,-0.243745 -0.789785,-0.095 -0.551123,0.294952 -1.058008,0.241437 -1.411352,-0.149005 -0.462943,-0.511545 -0.385569,-1.107084 0.194385,-1.496169 0.559092,-0.375088 2.010261,-1.78682 2.65929,-2.587022 0.785821,-0.968854 1.932583,-0.509195 1.687523,0.676412 -0.166079,0.803505 -0.167252,1.260617 -0.0049,1.89823 0.219022,0.859995 -0.04561,1.472348 -0.766441,1.773531 -0.825296,0.34483 -1.050797,0.341815 -1.568756,-0.02098 z" id="path3288" inkscape:connector-curvature="0"/>
    <path style="fill:#ffffff" d="m 21.560551,55.163722 c 0,-0.45844 0.26863,-2.433689 0.467254,-3.435738 0.610693,-3.080929 1.741622,-5.139604 5.650146,-10.285189 1.795786,-2.36416 2.218718,-2.992904 3.012419,-4.478363 0.365216,-0.683526 0.702646,-1.242774 0.749843,-1.242774 0.0472,0 0.287921,0.05805 0.534941,0.129009 0.756534,0.217309 3.099184,0.376871 4.02622,0.274232 0.95565,-0.105806 1.110433,-0.227593 1.113558,-0.876176 0.0031,-0.64776 -0.229694,-0.771548 -1.630633,-0.867021 -0.69306,-0.04723 -1.430786,-0.119327 -1.639391,-0.160215 -0.359455,-0.07045 -0.33929,-0.08945 0.385695,-0.363373 0.420737,-0.158969 1.112102,-0.493303 1.536366,-0.742966 1.416933,-0.83381 1.802403,-1.393344 1.452754,-2.10877 -0.263735,-0.539639 -0.756384,-0.452997 -2.238335,0.393657 -0.694883,0.396994 -1.304858,0.721807 -1.355498,0.721807 -0.05064,0 0.106072,-0.428863 0.348251,-0.953027 1.305604,-2.825808 1.373626,-6.6323 0.118522,-6.6323 -0.612154,0 -0.788503,0.357952 -0.891403,1.809367 -0.181039,2.553555 -0.753221,4.043273 -2.047104,5.329788 -1.78901,1.778819 -3.627363,1.964108 -5.286681,0.532849 -0.282843,-0.243969 -0.618329,-0.622866 -0.745526,-0.841992 l -0.231265,-0.398412 0.743684,-0.355233 c 0.656703,-0.313683 0.756867,-0.41244 0.856376,-0.844349 0.06198,-0.269016 0.07983,-0.52198 0.03967,-0.562144 -0.04016,-0.04016 -0.610734,0.01763 -1.267935,0.128436 -1.666625,0.280993 -3.528504,1.207416 -4.663814,2.320594 -0.842307,0.825886 -1.039061,1.260088 -0.94494,2.085321 0.03572,0.313154 0.107615,0.380185 0.442807,0.412827 0.353712,0.03444 0.497926,-0.07003 1.242255,-0.899955 0.463148,-0.516407 1.010798,-1.037581 1.216999,-1.158163 l 0.374914,-0.219242 0.459927,0.604936 c 0.252961,0.332715 0.477007,0.691717 0.497882,0.797783 0.02087,0.106066 -0.454186,0.684608 -1.055689,1.285648 -0.872615,0.871947 -1.437367,1.629863 -2.794415,3.750204 -2.741291,4.283172 -2.977535,4.528785 -4.282778,4.452613 -0.928592,-0.05419 -0.936665,-0.29095 -0.02398,-0.703371 1.062492,-0.480118 1.410296,-0.751667 1.787806,-1.39584 0.420538,-0.717593 0.462673,-1.852505 0.08778,-2.364406 -0.403325,-0.550723 -1.029317,-0.806891 -1.797084,-0.735397 -1.00072,0.09319 -1.868211,0.629917 -2.852369,1.764814 -1.089209,1.256037 -1.227549,1.348825 -1.623858,1.089154 -0.407483,-0.266994 -1.178651,-1.900431 -1.286897,-2.725824 -0.1660458,-1.266112 0.206156,-1.864296 2.071873,-3.329813 2.170847,-1.705196 4.500409,-4.46396 5.579091,-6.606996 0.512429,-1.01805 1.062729,-2.826919 1.606371,-5.280235 0.86335,-3.896074 1.221404,-4.832536 2.553883,-6.679473 0.431282,-0.597795 0.875586,-1.367384 0.987342,-1.710197 l 0.203193,-0.623297 0.637962,0.48403 c 0.35088,0.266216 1.000331,0.789925 1.443224,1.163796 0.777216,0.656092 1.061061,0.76955 1.501963,0.600359 0.333308,-0.127902 0.445448,-0.458916 0.789109,-2.329306 0.357186,-1.943982 0.793228,-3.7746132 0.933619,-3.9196026 0.04949,-0.051107 0.334615,0.4720861 0.633618,1.1626496 0.793599,1.83286 1.720036,3.389224 2.176126,3.655777 0.212437,0.124154 1.132433,0.373859 2.044436,0.5549 1.96004,0.389085 3.092961,0.75236 4.72548,1.51524 1.708597,0.798432 2.530923,1.402482 4.073779,2.99245 1.540515,1.587555 2.254088,2.542861 3.204266,4.289757 3.481431,6.400587 5.381215,15.437245 5.851628,27.834295 0.04025,1.06066 0.106622,2.376843 0.147498,2.92485 l 0.07432,0.996378 -14.862623,0 c -14.152795,0 -14.862624,-0.01091 -14.862624,-0.228361 z M 12.680299,38.082701 c 0.146583,-0.186351 0.334655,-0.566249 0.417936,-0.844218 0.0952,-0.317754 0.274182,-0.56929 0.482064,-0.677484 0.374279,-0.194796 0.835632,-0.674336 0.942414,-0.979564 0.221098,-0.631988 -0.845996,-0.769765 -1.890738,-0.244123 -0.822818,0.413985 -1.127746,0.846046 -1.197525,1.696804 -0.04571,0.557334 -0.0054,0.744202 0.223301,1.033851 0.350875,0.44448 0.680771,0.449233 1.022548,0.01473 l 0,0 z M 24.75446,23.904002 c 0.266091,-0.13575 0.544277,-0.38163 0.61819,-0.5464 0.20146,-0.449101 0.140676,-3.886151 -0.07328,-4.143958 -0.09638,-0.11613 -0.364847,-0.205419 -0.61764,-0.205419 -0.398047,0 -0.632829,0.178946 -2.13772,1.629338 -0.929809,0.896137 -1.762879,1.717153 -1.851267,1.824481 -0.266526,0.323637 -0.18239,0.786918 0.215098,1.184406 0.404689,0.404688 0.725558,0.459087 1.358306,0.230282 0.325766,-0.117798 0.474465,-0.106532 0.780517,0.05913 0.511354,0.276798 1.125221,0.265344 1.7078,-0.03186 z" id="path3290" inkscape:connector-curvature="0"/>
  </g>
</svg>