<?xml version="1.0" encoding="UTF-8" standalone="no"?>
<!-- Created with Inkscape (http://www.inkscape.org/) -->
<svg xmlns:dc="http://purl.org/dc/elements/1.1/" xmlns:cc="http://creativecommons.org/ns#" xmlns:rdf="http://www.w3.org/1999/02/22-rdf-syntax-ns#" xmlns:svg="http://www.w3.org/2000/svg" xmlns="http://www.w3.org/2000/svg" xmlns:sodipodi="http://sodipodi.sourceforge.net/DTD/sodipodi-0.dtd" xmlns:inkscape="http://www.inkscape.org/namespaces/inkscape" width="64px" height="64px" id="svg2985" version="1.1" inkscape:version="0.48.1 " sodipodi:docname="br.svg">
  <defs id="defs2987"/>
  <sodipodi:namedview id="base" pagecolor="#ffffff" bordercolor="#666666" borderopacity="1.0" inkscape:pageopacity="0.0" inkscape:pageshadow="2" inkscape:zoom="7.7781746" inkscape:cx="28.168786" inkscape:cy="37.123605" inkscape:current-layer="layer1" showgrid="true" inkscape:document-units="px" inkscape:grid-bbox="true" inkscape:window-width="1365" inkscape:window-height="878" inkscape:window-x="-8" inkscape:window-y="-8" inkscape:window-maximized="1"/>
  <metadata id="metadata2990">
    <rdf:RDF>
      <cc:Work rdf:about="">
        <dc:format>image/svg+xml</dc:format>
        <dc:type rdf:resource="http://purl.org/dc/dcmitype/StillImage"/>
        <dc:title/>
      </cc:Work>
    </rdf:RDF>
  </metadata>
  <g id="layer1" inkscape:label="Layer 1" inkscape:groupmode="layer">
    <path style="fill:#000000" d="m 21.453452,58.597099 c 0,-0.05384 0.906069,-1.693693 2.013486,-3.644103 l 2.013487,-3.546204 -0.825781,-0.678395 c -1.891221,-1.553679 -3.185825,-3.388173 -3.825254,-5.420506 -0.601027,-1.910277 -0.599638,-5.329776 0.0029,-7.245468 0.756558,-2.40521 2.927023,-5.205532 4.926695,-6.356399 l 0.769421,-0.442823 0.121732,-2.3866 c 0.06695,-1.31263 0.122078,-3.345675 0.122501,-4.517878 l 7.79e-4,-2.131278 -2.091458,-0.05372 -2.09145,-0.05372 3.099995,-3.610085 3.099995,-3.610084 -0.561132,-0.464713 C 26.804404,13.25497 26.271399,10.342277 27.143132,8.4989718 27.998523,6.6902216 30.10427,5.305 31.998452,5.305 c 1.865079,0 3.957098,1.3701774 4.775538,3.1277606 0.914977,1.9648964 0.415855,4.8073664 -1.062592,6.0513974 l -0.532507,0.448076 3.116623,3.593883 3.116625,3.593883 -1.970475,0.05364 -1.970475,0.05363 -0.123868,2.303695 c -0.06813,1.267032 -0.123869,3.265397 -0.123869,4.440811 l 0,2.137116 0.821566,0.48147 c 2.114671,1.239281 4.126435,3.740969 5.039016,6.26617 0.681976,1.887097 0.719125,5.240882 0.08054,7.271045 -0.550413,1.749847 -1.958253,3.888114 -3.446917,5.235279 l -1.185402,1.072727 2.0056,3.522486 c 1.103081,1.937367 2.005599,3.570736 2.005599,3.629708 0,0.05897 -4.745249,0.107223 -10.544999,0.107223 -5.79975,0 -10.545,-0.04406 -10.545,-0.0979 z m 17.67,-2.268262 c 0,-0.04739 -0.523305,-0.952417 -1.162902,-2.011171 -1.006698,-1.666437 -1.217249,-1.909352 -1.5675,-1.808456 -2.376943,0.684722 -2.82579,0.757239 -4.584598,0.740711 -1.377507,-0.01294 -2.23962,-0.128151 -3.135,-0.418937 -0.67925,-0.220595 -1.295353,-0.402184 -1.369119,-0.403533 -0.07377,-0.0013 -0.491212,0.617424 -0.927658,1.375049 -0.436447,0.757625 -0.960192,1.655375 -1.163878,1.995 l -0.370337,0.6175 7.140496,0 c 3.927273,0 7.140496,-0.03877 7.140496,-0.08616 z m -4.132853,-5.618984 c 1.43745,-0.440635 2.703787,-1.272441 3.989922,-2.620818 2.791176,-2.926257 3.412572,-7.22381 1.570217,-10.859524 C 39.825924,35.79916 37.98482,33.945404 36.554513,33.205827 L 35.324858,32.57 l -7.03e-4,-5.1775 -7.03e-4,-5.1775 -3.325,0 -3.325,0 0,5.192521 0,5.192524 -0.992722,0.459976 c -1.348858,0.624994 -3.371399,2.566805 -4.102781,3.939018 -2.036321,3.820529 -1.378528,8.339871 1.649192,11.330707 1.244542,1.229381 2.214491,1.865427 3.519879,2.308171 2.022928,0.686109 4.159698,0.710727 6.243579,0.07194 z M 36.49595,19.2225 c -0.419589,-0.496375 -1.228358,-1.448534 -1.797268,-2.115909 l -1.034381,-1.213409 -1.661227,0 -1.661227,0 -1.224366,1.403409 c -0.673401,0.771875 -1.483474,1.724034 -1.800163,2.115909 l -0.575797,0.7125 5.258658,0 5.258659,0 -0.762888,-0.9025 z m -2.689533,-5.721488 c 0.967938,-0.517554 1.374535,-1.333934 1.374535,-2.759845 0,-1.8794688 -0.665701,-2.8221415 -2.242082,-3.17492 -0.777938,-0.1740951 -1.209349,-0.1726587 -1.921772,0.0064 -1.579848,0.3970761 -2.201146,1.2927264 -2.201146,3.173125 0,2.111277 1.021468,3.109227 3.1825,3.109227 0.754299,0 1.372185,-0.120978 1.807965,-0.353988 z" id="path3130" inkscape:connector-curvature="0"/>
    <path style="fill:#ffffff" d="m 25.21335,55.938484 c 0.103483,-0.194455 0.588781,-1.018877 1.07844,-1.83205 1.018241,-1.690984 0.872008,-1.625906 2.596959,-1.155725 0.920381,0.250873 1.407216,0.298257 3.085557,0.300319 1.766182,0.0022 2.134638,-0.03655 3.240642,-0.340584 0.686337,-0.188668 1.335074,-0.309575 1.441637,-0.268683 0.252082,0.09673 2.260224,3.26813 2.260224,3.569502 0,0.04443 -3.125612,0.08077 -6.945805,0.08077 l -6.945804,0 0.18815,-0.353553 z" id="path3132" inkscape:connector-curvature="0"/>
    <path style="fill:#ffffff" d="m 31.138634,51.057477 c -2.276882,-0.180347 -4.375122,-1.226739 -6.04863,-3.01645 -1.745792,-1.867015 -2.563223,-3.96285 -2.548412,-6.53395 0.0092,-1.602963 0.239413,-2.578794 0.970426,-4.114076 0.445328,-0.935283 0.708182,-1.278311 1.823587,-2.379803 1.011298,-0.998683 1.540872,-1.410565 2.363919,-1.838558 l 1.06066,-0.551556 0,-5.200368 0,-5.200369 3.278404,0 3.278404,0 0,5.189525 0,5.189525 1.001939,0.582165 c 4.809615,2.794578 6.485268,7.945775 4.118183,12.659889 -0.894198,1.780821 -2.871707,3.685213 -4.622487,4.451575 -1.258589,0.550917 -3.249059,0.875477 -4.675993,0.762451 l 0,0 z" id="path3134" inkscape:connector-curvature="0"/>
    <path style="fill:#ffffff" d="m 27.103278,19.811756 c 0.321455,-0.414496 1.579339,-1.886627 2.47172,-2.89271 l 0.883771,-0.996378 1.568423,0 1.568422,0 1.599937,1.882776 c 0.879966,1.035526 1.646203,1.961193 1.702749,2.057037 0.0858,0.145425 -0.730612,0.174263 -4.933348,0.174263 -4.777104,0 -5.027185,-0.01157 -4.861674,-0.224988 z" id="path3136" inkscape:connector-curvature="0"/>
    <path style="fill:#ffffff" d="m 30.624375,13.580019 c -1.039758,-0.368641 -1.600139,-1.187757 -1.704828,-2.491967 -0.189634,-2.3624395 1.053701,-3.6430808 3.391307,-3.4930624 0.75403,0.048391 1.068147,0.1364665 1.546689,0.4336784 0.836494,0.5195288 1.125547,1.1233285 1.183518,2.472239 0.07187,1.672417 -0.384973,2.53226 -1.619481,3.048071 -0.523177,0.218597 -2.21524,0.237375 -2.797205,0.03104 z" id="path3138" inkscape:connector-curvature="0"/>
  </g>
</svg>