<?xml version="1.0" encoding="UTF-8" standalone="no"?>
<!-- Created with Inkscape (http://www.inkscape.org/) -->

<svg
   xmlns:dc="http://purl.org/dc/elements/1.1/"
   xmlns:cc="http://creativecommons.org/ns#"
   xmlns:rdf="http://www.w3.org/1999/02/22-rdf-syntax-ns#"
   xmlns:svg="http://www.w3.org/2000/svg"
   xmlns="http://www.w3.org/2000/svg"
   xmlns:sodipodi="http://sodipodi.sourceforge.net/DTD/sodipodi-0.dtd"
   xmlns:inkscape="http://www.inkscape.org/namespaces/inkscape"
   width="64px"
   height="64px"
   id="svg3072"
   version="1.1"
   inkscape:version="0.48.1 "
   sodipodi:docname="bp.svg">
  <defs
     id="defs3074" />
  <sodipodi:namedview
     id="base"
     pagecolor="#ffffff"
     bordercolor="#666666"
     borderopacity="1.0"
     inkscape:pageopacity="0.0"
     inkscape:pageshadow="2"
     inkscape:zoom="5.5"
     inkscape:cx="5.2272727"
     inkscape:cy="39.372263"
     inkscape:current-layer="layer1"
     showgrid="true"
     inkscape:document-units="px"
     inkscape:grid-bbox="true"
     inkscape:window-width="1365"
     inkscape:window-height="878"
     inkscape:window-x="-8"
     inkscape:window-y="-8"
     inkscape:window-maximized="1" />
  <metadata
     id="metadata3077">
    <rdf:RDF>
      <cc:Work
         rdf:about="">
        <dc:format>image/svg+xml</dc:format>
        <dc:type
           rdf:resource="http://purl.org/dc/dcmitype/StillImage" />
        <dc:title></dc:title>
      </cc:Work>
    </rdf:RDF>
  </metadata>
  <g
     id="layer1"
     inkscape:label="Layer 1"
     inkscape:groupmode="layer">
    <path
       style="fill:#000000"
       d="m 9.2561556,60.542063 c -0.935174,-0.626455 -1.679019,-1.617074 -2.0833667,-2.774533 -0.5531421,-1.583388 -0.5531421,-2.017017 0,-3.600405 0.7870507,-2.25296 2.8652021,-3.748864 5.2080251,-3.748864 3.193292,0 5.561288,-2.009317 7.547501,-6.404276 1.357148,-3.00301 2.416162,-7.195048 2.884162,-11.416765 l 0.295743,-2.667821 -2.730637,-6.83e-4 c -3.687955,-8.96e-4 -5.535444,-0.94077 -6.324894,-3.217667 -0.52817,-1.523328 -0.51571,-1.897003 0.106889,-3.205342 1.069561,-2.247592 2.112444,-2.688437 6.835985,-2.889694 L 25.20029,20.436861 24.121672,19.313915 C 20.886459,15.945745 20.893821,9.8390226 24.137652,6.0599982 27.112213,2.5946679 32.37501,1.482329 36.461851,3.4551698 42.403526,6.3233941 44.210472,14.776256 39.851933,19.313915 l -1.078618,1.122946 4.298885,0.172181 c 4.033797,0.161562 4.377586,0.247366 5.575109,1.391439 1.650611,1.576937 2.002075,3.20641 1.100321,5.101373 -0.921254,1.93595 -2.865165,2.827545 -6.164748,2.827545 l -2.614396,0 0.262218,2.454395 c 0.671735,6.287446 2.29115,11.574764 4.459284,14.559368 1.679852,2.312446 2.911813,3.053246 5.706492,3.431428 1.284166,0.173775 2.807033,0.62447 3.38415,1.001546 1.176215,0.768521 2.461438,3.165781 2.461438,4.591191 0,1.562502 -1.350835,3.89451 -2.748098,4.744162 -1.243051,0.755877 -2.532329,0.801806 -22.55088,0.803309 l -21.232452,0.0016 -1.4544824,-0.974331 z m 44.6347784,-1.86636 c 0.525738,-0.474449 0.782802,-1.305473 0.782802,-2.530618 0,-1.951179 -0.709061,-3.008055 -2.277224,-3.394261 -0.513256,-0.126408 -10.146663,-0.174715 -21.40757,-0.107358 -19.697927,0.117833 -20.497412,0.153897 -21.0817274,0.951051 -0.83189,1.134908 -0.773169,4.043703 0.1010794,5.007021 0.668142,0.736211 1.913704,0.7806 21.904132,0.7806 19.122129,0 21.272285,-0.06911 21.978508,-0.706435 z M 44.684101,49.030994 C 42.029807,45.50411 39.576248,38.543228 39.026531,32.98015 l -0.301462,-3.050751 -6.759565,0 -6.759565,0 -0.225127,1.173841 c -0.123819,0.645613 -0.348527,2.038215 -0.499351,3.094672 -0.80282,5.62339 -3.0366,12.037518 -5.158124,14.811155 l -1.077876,1.409194 13.741341,0 13.741339,0 -1.04404,-1.387267 z m 2.042744,-21.652138 c 0.874762,-0.331648 1.098005,-0.70483 1.098005,-1.83546 0,-0.780546 -0.23115,-1.649674 -0.513666,-1.931396 -0.736067,-0.733995 -29.912699,-0.733995 -30.648764,0 -0.282517,0.281722 -0.513667,1.152286 -0.513667,1.934586 0,1.076094 0.23447,1.516344 0.963125,1.808404 1.319177,0.528752 28.226078,0.550437 29.614967,0.02386 z M 35.855876,19.676536 C 39.001555,18.076244 40.790544,13.827529 39.7027,10.540607 38.993816,8.3987066 37.266339,6.4767165 35.214926,5.5475099 27.853993,2.2133075 20.791313,10.910288 25.545364,17.454604 c 0.656547,0.903788 1.84474,1.963061 2.640428,2.353939 2.020703,0.992663 5.579734,0.93141 7.670084,-0.132007 z"
       id="path3244"
       inkscape:connector-curvature="0" />
    <path
       style="fill:#ffffff;fill-opacity:1;fill-rule:evenodd"
       d="M 12.868807,59.138707 C 10.426035,58.996906 9.9291089,58.780198 9.6373076,57.729456 9.3665243,56.754398 9.4009929,54.867924 9.7027894,54.145623 9.8443236,53.806884 10.144219,53.43121 10.369223,53.310791 c 0.741277,-0.396719 6.354878,-0.518399 24.348959,-0.527786 16.528989,-0.0086 17.769414,0.01224 18.350713,0.308651 1.022198,0.521232 1.361105,1.151789 1.438054,2.675591 0.0781,1.546588 -0.187191,2.537587 -0.783991,2.928625 -0.29272,0.191798 -1.278567,0.323885 -3.301956,0.442407 -3.248897,0.190306 -34.275098,0.19066 -37.552195,4.36e-4 l 0,-8e-6 z"
       id="path3246"
       inkscape:connector-curvature="0" />
    <path
       style="fill:#ffffff;fill-opacity:1;fill-rule:evenodd"
       d="m 18.48933,50.182283 c 1.159225,-1.4693 1.705568,-2.349192 2.511902,-4.045455 1.670009,-3.513147 2.802552,-7.428781 3.6286,-12.545454 0.258308,-1.6 0.512099,-3.052273 0.56398,-3.227273 0.08763,-0.295584 0.571239,-0.318182 6.809349,-0.318182 5.924106,0 6.715021,0.03297 6.715021,0.279893 0,0.153942 0.08628,1.074396 0.191731,2.045455 0.657298,6.052778 2.733618,12.195483 5.497985,16.265561 l 1.204026,1.772727 -13.650953,0 c -10.89518,0 -13.614753,-0.04588 -13.471641,-0.227272 z"
       id="path3248"
       inkscape:connector-curvature="0" />
    <path
       style="fill:#ffffff;fill-opacity:1;fill-rule:evenodd"
       d="m 19.712287,27.509937 c -2.555553,-0.146842 -3.09375,-0.315123 -3.375179,-1.055336 -0.225931,-0.594243 -0.02477,-2.340504 0.307948,-2.673218 0.147878,-0.147878 0.956601,-0.306949 2.023367,-0.397984 2.313142,-0.197398 24.333886,-0.197214 26.647952,2.23e-4 2.126274,0.181414 2.349856,0.380097 2.381927,2.116666 0.02304,1.247635 -0.196013,1.565992 -1.272718,1.849678 -0.85718,0.225847 -23.234664,0.359852 -26.713297,0.159971 l 0,0 z"
       id="path3250"
       inkscape:connector-curvature="0" />
    <path
       style="fill:#ffffff;fill-opacity:1;fill-rule:evenodd"
       d="m 29.2975,20.125623 c -2.559024,-0.688672 -4.73627,-3.406154 -5.105267,-6.372029 -0.08843,-0.710779 -0.121974,-1.52896 -0.07454,-1.818182 0.465028,-2.8354268 2.264071,-5.24174 4.782307,-6.3965832 1.342012,-0.6154362 3.670485,-0.7582706 5.184796,-0.3180485 2.745936,0.7982653 5.104697,3.3246726 5.730175,6.1374397 0.647893,2.913566 -1.238257,6.859553 -3.914971,8.190457 -1.74626,0.868267 -4.594987,1.117197 -6.6025,0.576946 z"
       id="path3252"
       inkscape:connector-curvature="0" />
  </g>
</svg>
