<?xml version="1.0" encoding="UTF-8" standalone="no"?>
<!-- Created with Inkscape (http://www.inkscape.org/) -->

<svg
   xmlns:dc="http://purl.org/dc/elements/1.1/"
   xmlns:cc="http://creativecommons.org/ns#"
   xmlns:rdf="http://www.w3.org/1999/02/22-rdf-syntax-ns#"
   xmlns:svg="http://www.w3.org/2000/svg"
   xmlns="http://www.w3.org/2000/svg"
   xmlns:sodipodi="http://sodipodi.sourceforge.net/DTD/sodipodi-0.dtd"
   xmlns:inkscape="http://www.inkscape.org/namespaces/inkscape"
   width="64px"
   height="64px"
   id="svg3072"
   version="1.1"
   inkscape:version="0.48.1 "
   sodipodi:docname="New document 6">
  <defs
     id="defs3074" />
  <sodipodi:namedview
     id="base"
     pagecolor="#ffffff"
     bordercolor="#666666"
     borderopacity="1.0"
     inkscape:pageopacity="0.0"
     inkscape:pageshadow="2"
     inkscape:zoom="7.7781746"
     inkscape:cx="14.08987"
     inkscape:cy="31.187931"
     inkscape:current-layer="layer1"
     showgrid="true"
     inkscape:document-units="px"
     inkscape:grid-bbox="true"
     inkscape:window-width="1365"
     inkscape:window-height="878"
     inkscape:window-x="-8"
     inkscape:window-y="-8"
     inkscape:window-maximized="1" />
  <metadata
     id="metadata3077">
    <rdf:RDF>
      <cc:Work
         rdf:about="">
        <dc:format>image/svg+xml</dc:format>
        <dc:type
           rdf:resource="http://purl.org/dc/dcmitype/StillImage" />
        <dc:title></dc:title>
      </cc:Work>
    </rdf:RDF>
  </metadata>
  <g
     id="layer1"
     inkscape:label="Layer 1"
     inkscape:groupmode="layer">
    <path
       style="fill:#000000"
       d="m 9.2792096,58.70307 c -0.930227,-0.622474 -1.670136,-1.606797 -2.072345,-2.756898 -0.550215,-1.573323 -0.550215,-2.004196 0,-3.577519 0.782605,-2.237833 2.8501474,-3.725035 5.1786224,-3.725035 1.654585,0 1.658692,-0.0042 1.389617,-1.432959 -0.375464,-1.993631 0.733637,-3.96656 2.730459,-4.857098 l 1.591119,-0.7096 -6.078884,-11.638992 C 8.6744116,23.603522 6.0296426,18.275597 6.1405342,18.165137 c 0.1108913,-0.110461 0.2016205,0.01379 0.2016205,0.27611 0,0.947143 3.6156259,2.633397 5.6464673,2.633397 2.120583,0 4.271633,-1.356492 4.804865,-3.030037 0.266529,-0.836498 0.332624,-0.820505 1.619473,0.391872 1.238988,1.167286 2.866554,2.214027 3.442565,2.214027 0.132488,0 0.24404,-0.524871 0.247892,-1.166379 0.01086,-1.808437 1.73395,-4.430039 3.834401,-5.833864 l 1.90677,-1.274379 -0.585735,-1.694587 c -0.508159,-1.4701546 -0.498772,-1.9008666 0.07088,-3.2521146 1.742746,-4.1338717 7.376982,-4.1338717 9.119728,0 0.569655,1.351248 0.579042,1.78196 0.07088,3.2521146 l -0.585735,1.694587 1.899531,1.274379 c 2.021423,1.356156 3.37605,3.279478 3.814777,5.41629 0.391757,1.908044 1.112944,1.881276 3.117721,-0.115718 1.195752,-1.19111 1.846909,-1.588817 1.973531,-1.205363 0.103931,0.314751 0.809633,1.192577 1.568222,1.950724 1.113647,1.112991 1.719521,1.378448 3.146146,1.378448 1.886547,0 3.893699,-0.826477 5.450266,-2.244236 0.526916,-0.479928 0.95803,-0.786091 0.95803,-0.680361 0,0.105729 -2.745218,5.433042 -6.100483,11.838472 l -6.100479,11.646234 1.645703,0.733946 c 2.061219,0.919251 3.174857,3.157097 2.512689,5.049215 -0.428559,1.224593 -0.427328,1.225704 1.358515,1.22729 0.996874,8.48e-4 2.367511,0.353926 3.098914,0.798202 1.38987,0.844251 2.733559,3.161436 2.733559,4.714006 0,1.552571 -1.343689,3.869755 -2.733559,4.714006 -1.236476,0.751073 -2.518932,0.79671 -22.431576,0.798203 l -21.120122,0.0016 -1.4467874,-0.968137 z M 53.677849,56.848573 c 0.522956,-0.471434 0.778661,-1.297176 0.778661,-2.514533 0,-1.938777 -0.70531,-2.988934 -2.265177,-3.372686 -0.51054,-0.125604 -10.092983,-0.173604 -21.294314,-0.106675 -19.593716,0.117083 -20.38897,0.152919 -20.9701944,0.945005 -0.82749,1.127694 -0.769079,4.018 0.1005444,4.975195 0.664607,0.731532 1.903579,0.775638 21.788249,0.775638 19.020963,0 21.159744,-0.06867 21.862231,-0.701944 z m -6.857581,-8.644014 c 0.944071,-0.503291 1.144683,-2.888682 0.312641,-3.717494 -0.732173,-0.729331 -29.754447,-0.729331 -30.486618,0 -0.785786,0.782734 -0.633022,3.195299 0.234185,3.698441 1.022116,0.593017 28.829955,0.610712 29.939792,0.01904 z M 45.956377,36.873787 c 1.455254,-2.740992 3.689055,-6.93326 4.964,-9.31615 l 2.31809,-4.332528 -1.989111,0.03977 c -1.673452,0.03346 -2.193014,-0.163341 -3.273986,-1.240117 l -1.284875,-1.279888 -1.489833,1.007102 c -1.540328,1.041237 -3.936133,1.861005 -5.450922,1.865131 -1.771253,0.0048 -5.964855,-1.340851 -6.897006,-2.213163 L 31.8896,20.502639 30.931571,21.371847 c -1.704236,1.54623 -2.985197,1.94906 -6.095765,1.91696 -3.14171,-0.03242 -5.423092,-0.706657 -6.702136,-1.980736 -0.69686,-0.694154 -0.814306,-0.663796 -2.233331,0.577289 -1.457157,1.274435 -2.31185,1.537494 -4.392725,1.352002 -0.962362,-0.08579 -0.901489,0.110112 1.330395,4.281451 1.286395,2.404243 3.529561,6.613981 4.984813,9.354973 l 2.645912,4.983622 11.420866,0 11.420866,0 2.645911,-4.983622 z m -16.404384,-1.670137 -2.124712,-1.100466 2.23116,-1.088197 2.231159,-1.088196 2.232302,1.088754 2.232303,1.088754 -2.218148,1.119657 c -1.219981,0.615812 -2.272418,1.110771 -2.33875,1.09991 -0.06633,-0.01086 -1.076723,-0.514959 -2.245314,-1.120216 z m -8.941606,-2.544828 -2.124712,-1.100466 2.23116,-1.088197 2.231159,-1.088196 2.232303,1.088754 2.232303,1.088754 -2.218148,1.119657 c -1.219981,0.615812 -2.272419,1.110771 -2.33875,1.09991 -0.06633,-0.01086 -1.076723,-0.514959 -2.245315,-1.120216 z m 17.883212,0 -2.124712,-1.100466 2.231159,-1.088197 2.23116,-1.088196 2.232301,1.088754 2.232302,1.088754 -2.218144,1.119657 c -1.219984,0.615812 -2.27242,1.110771 -2.338754,1.09991 -0.06633,-0.01086 -1.076722,-0.514959 -2.245312,-1.120216 z m -8.941606,-2.970131 -2.124712,-1.099302 2.21521,-1.080417 2.21521,-1.080418 2.144903,1.00072 c 1.179697,0.550395 2.144903,1.133026 2.144903,1.294734 0,0.161708 -0.90923,0.653953 -2.020512,1.093878 -1.111282,0.439926 -2.117213,0.838169 -2.235401,0.884985 -0.118189,0.04682 -1.17101,-0.409564 -2.339601,-1.01418 z m -1.495378,-9.299395 c 0.94574,-0.376941 2.184931,-1.277716 2.753758,-2.001721 l 1.034232,-1.316373 1.583151,1.577006 c 1.9169,1.90946 6.126077,3.275863 6.126077,1.988675 0,-1.128436 -1.296452,-3.308294 -2.695112,-4.531567 -4.152105,-3.631446 -10.94377,-1.598393 -11.995777,3.59088 -0.243075,1.199023 -0.165322,1.378448 0.597347,1.378448 0.482238,0 1.650584,-0.308406 2.596324,-0.685348 z m 5.71863,-9.312192 c 0.368004,-0.366576 0.669099,-1.2118216 0.669099,-1.8783246 0,-2.171724 -2.165967,-3.235917 -4.285899,-2.105768 -0.951403,0.507199 -1.161897,3.2956706 -0.312641,4.1416296 0.728794,0.725966 3.139522,0.629316 3.929441,-0.157537 z"
       id="path3102"
       inkscape:connector-curvature="0" />
    <path
       style="fill:#ffffff;fill-opacity:1;fill-rule:evenodd"
       d="M 12.737614,57.339685 C 10.685058,57.217809 10.201478,57.032575 9.7858652,56.209028 9.255357,55.157814 9.2769359,53.099327 9.8296687,52.03046 10.34592,51.032141 11.050367,51.001259 33.59316,50.988724 c 18.078902,-0.01005 18.78705,-0.0016 19.220448,0.229227 1.226988,0.653515 1.600804,1.492009 1.517881,3.404703 -0.08225,1.897159 -0.40793,2.341086 -1.910654,2.60436 -0.984291,0.172447 -36.956443,0.27458 -39.683221,0.112671 l 0,0 z"
       id="path3104"
       inkscape:connector-curvature="0" />
    <path
       style="fill:#ffffff;fill-opacity:1;fill-rule:evenodd"
       d="m 21.718094,48.473357 c -4.114157,-0.136453 -4.673377,-0.199729 -5.019282,-0.567928 -0.571038,-0.607842 -0.672157,-2.539077 -0.165591,-3.162582 0.324157,-0.398988 1.249688,-0.486047 6.967597,-0.6554 7.549011,-0.223586 21.673067,-0.01519 23.314306,0.343996 0.48573,0.106302 0.727325,0.701194 0.727325,1.790935 0,0.919907 -0.320357,1.759244 -0.733771,1.922488 -0.588703,0.23246 -3.905521,0.332882 -12.572693,0.380658 -5.16188,0.02845 -10.79493,0.005 -12.517891,-0.05217 l 0,0 z"
       id="path3106"
       inkscape:connector-curvature="0" />
    <path
       style="fill:#ffffff;fill-opacity:1;fill-rule:evenodd"
       d="m 16.015791,33.39704 c -4.723981,-8.884505 -4.978498,-9.3863 -4.982942,-9.82415 -0.0027,-0.266346 0.05884,-0.280078 1.443532,-0.322086 1.706131,-0.05176 1.869826,-0.116983 3.493676,-1.392005 0.630713,-0.495226 1.267381,-0.900411 1.414817,-0.900411 0.147436,0 0.585854,0.260849 0.974261,0.579664 0.904374,0.742333 2.222152,1.288563 3.744386,1.552077 1.641266,0.284121 5.395869,0.200578 6.347045,-0.141226 0.840936,-0.302191 1.797632,-0.916322 2.698857,-1.732474 l 0.727381,-0.658721 0.557309,0.513709 c 0.880883,0.81197 2.302178,1.452104 4.776224,2.151153 2.833136,0.800512 5.343309,0.281674 8.45038,-1.746644 l 1.001798,-0.653981 1.034406,0.973095 c 1.471598,1.384375 1.510498,1.399891 3.646209,1.45443 l 1.807924,0.04617 -4.666244,8.763011 c -2.566434,4.819656 -4.786665,8.979964 -4.933849,9.245129 l -0.267605,0.482118 -11.403563,0 -11.403562,0 -4.46044,-8.388857 0,0 z m 18.991583,1.412479 1.414214,-0.71601 -2.268678,-1.104347 -2.268676,-1.104346 -2.192831,1.061454 c -1.206055,0.583798 -2.195584,1.104509 -2.198952,1.157133 -0.0034,0.05262 0.961725,0.580275 2.144649,1.172558 l 2.150772,1.076877 0.902644,-0.413654 c 0.496454,-0.227511 1.539041,-0.735861 2.316858,-1.129665 z M 25.14002,32.728185 c 1.21976,-0.596387 2.217744,-1.120781 2.217744,-1.165321 0,-0.04454 -0.992022,-0.560127 -2.204494,-1.145749 l -2.204493,-1.064768 -2.13457,1.023094 c -1.174014,0.562702 -2.185449,1.070927 -2.247634,1.129389 -0.08716,0.08194 4.004692,2.276945 4.291421,2.302063 0.03535,0.0031 1.062267,-0.482322 2.282026,-1.078708 z m 17.870517,0 c 1.219759,-0.596387 2.217744,-1.118918 2.217744,-1.16118 0,-0.04226 -0.985666,-0.561592 -2.190369,-1.154066 l -2.190369,-1.077227 -2.148695,1.037204 c -1.181782,0.570463 -2.197485,1.080342 -2.257117,1.133065 -0.08517,0.07531 4.030055,2.285498 4.28678,2.302329 0.03536,0.0023 1.062267,-0.483739 2.282026,-1.080125 z m -9.489631,-2.643597 c 2.030228,-0.834541 2.579269,-1.119815 2.579269,-1.340152 0,-0.232631 -0.569973,-0.578989 -2.593332,-1.575901 l -1.648538,-0.812238 -2.185987,1.094425 c -1.202294,0.601933 -2.185989,1.124264 -2.185989,1.160736 0,0.09556 4.109382,2.117861 4.303552,2.117861 0.08941,0 0.868369,-0.290129 1.731025,-0.644731 z"
       id="path3108"
       inkscape:connector-curvature="0" />
    <path
       style="fill:#ffffff;fill-opacity:1;fill-rule:evenodd"
       d="m 25.059426,20.945179 c -0.281743,-0.109843 -0.299072,-0.168221 -0.222127,-0.748261 0.293637,-2.213549 1.685996,-4.11268 3.720402,-5.074507 1.199019,-0.566873 2.098738,-0.77383 3.364116,-0.77383 2.474173,0 4.582585,1.075818 6.073919,3.09922 1.182237,1.604029 1.748339,3.062442 1.345209,3.465574 -0.472247,0.472247 -2.890362,-0.19328 -4.513139,-1.242132 C 34.395917,19.3921 33.545085,18.686121 32.93707,18.102402 l -1.105483,-1.061308 -0.395251,0.512292 c -1.27961,1.658528 -2.925404,2.789185 -4.657114,3.199429 -1.275682,0.30221 -1.401852,0.316322 -1.719796,0.192364 z"
       id="path3110"
       inkscape:connector-curvature="0" />
    <path
       style="fill:#ffffff;fill-opacity:1;fill-rule:evenodd"
       d="m 30.538527,11.526331 c -0.652881,-0.244282 -0.827046,-0.408024 -1.003862,-0.943781 -0.232713,-0.7051289 -0.09774,-2.5321162 0.219096,-2.9657275 0.520201,-0.7119249 1.985566,-1.1153783 2.925012,-0.805333 1.075292,0.3548783 1.660169,1.1876599 1.673771,2.3832134 0.01128,0.9918111 -0.413509,1.8222501 -1.105046,2.1602801 -0.640288,0.312979 -2.086037,0.404425 -2.708971,0.171348 z"
       id="path3112"
       inkscape:connector-curvature="0" />
  </g>
</svg>
