<?xml version="1.0" encoding="UTF-8" standalone="no"?>
<!-- Created with Inkscape (http://www.inkscape.org/) -->
<svg xmlns:dc="http://purl.org/dc/elements/1.1/" xmlns:cc="http://creativecommons.org/ns#" xmlns:rdf="http://www.w3.org/1999/02/22-rdf-syntax-ns#" xmlns:svg="http://www.w3.org/2000/svg" xmlns="http://www.w3.org/2000/svg" xmlns:sodipodi="http://sodipodi.sourceforge.net/DTD/sodipodi-0.dtd" xmlns:inkscape="http://www.inkscape.org/namespaces/inkscape" width="64px" height="64px" id="svg2985" version="1.1" inkscape:version="0.48.1 " sodipodi:docname="New document 2">
  <defs id="defs2987"/>
  <sodipodi:namedview id="base" pagecolor="#ffffff" bordercolor="#666666" borderopacity="1.0" inkscape:pageopacity="0.0" inkscape:pageshadow="2" inkscape:zoom="5.5" inkscape:cx="1.8181818" inkscape:cy="32" inkscape:current-layer="layer1" showgrid="true" inkscape:document-units="px" inkscape:grid-bbox="true" inkscape:window-width="1365" inkscape:window-height="878" inkscape:window-x="-8" inkscape:window-y="-8" inkscape:window-maximized="1"/>
  <metadata id="metadata2990">
    <rdf:RDF>
      <cc:Work rdf:about="">
        <dc:format>image/svg+xml</dc:format>
        <dc:type rdf:resource="http://purl.org/dc/dcmitype/StillImage"/>
        <dc:title/>
      </cc:Work>
    </rdf:RDF>
  </metadata>
  <g id="layer1" inkscape:label="Layer 1" inkscape:groupmode="layer">
    <path style="fill:#000000" d="M 26.067471,58.511725 C 19.859293,58.060201 14.497438,56.886098 12.930569,55.635093 12.770805,55.507536 12.804695,55.22235 13.059222,54.55249 c 0.988959,-2.602728 1.222397,-6.94378 0.543029,-10.098234 -0.256669,-1.191769 -0.441773,-3.031463 -0.544838,-5.415 -0.235378,-5.443418 -0.938954,-9.026923 -2.57959,-13.138551 -0.464944,-1.165202 -0.8453522,-2.192865 -0.8453522,-2.283692 0,-0.09083 -0.627065,-0.133477 -1.393477,-0.09477 -1.205324,0.06087 -1.524414,0.004 -2.363218,-0.421038 -1.611622,-0.816671 -2.516336,-2.346688 -2.509133,-4.243343 0.0054,-1.425057 0.472777,-2.432156 1.581655,-3.408229 3.813465,-3.356746 9.4823412,1.07104 7.1712172,5.601217 -0.211166,0.413919 -0.750262,1.071215 -1.197991,1.460656 -0.66735,0.580472 -0.712432,0.656326 -0.250152,0.420912 l 0.563902,-0.287162 2.731775,4.553348 c 3.022797,5.038428 3.323475,5.368346 4.759204,5.22201 0.972226,-0.09909 1.514014,-0.564298 1.718025,-1.475172 0.09121,-0.407244 -0.08718,-2.753862 -0.482442,-6.346182 -0.344943,-3.135 -0.629913,-5.801196 -0.633266,-5.92488 -0.0034,-0.123684 0.229026,-0.260498 0.516401,-0.304032 0.309757,-0.04692 0.135694,-0.09244 -0.4275,-0.111793 -1.729285,-0.05942 -3.330221,-1.059667 -4.144258,-2.589295 -0.570226,-1.071493 -0.564955,-3.115822 0.01085,-4.207085 0.517521,-0.980809 1.801931,-2.0992438 2.695993,-2.3476118 1.05054,-0.291836 2.501111,-0.217417 3.337417,0.17122 0.945632,0.439443 2.072511,1.5979878 2.460722,2.5298738 0.40242,0.965988 0.370183,2.722306 -0.06725,3.663603 -0.459722,0.989273 -1.674669,2.143527 -2.605416,2.475263 -0.721706,0.257229 -0.72543,0.263271 -0.168059,0.272674 0.565043,0.0095 0.581364,0.04059 1.876466,3.57084 2.51595,6.85809 2.725569,7.343006 3.32808,7.698917 0.996849,0.588852 2.526438,0.351795 3.040411,-0.471207 0.142055,-0.227464 0.554406,-3.26102 0.984259,-7.24091 0.406879,-3.767196 0.825045,-6.902141 0.929258,-6.966548 0.104213,-0.06441 -0.172311,-0.215614 -0.614498,-0.336016 -2.629688,-0.716028 -3.965308,-4.009414 -2.648355,-6.5303478 1.787309,-3.4213 6.46145,-3.4213 8.248759,0 1.316952,2.5209338 -0.01866,5.8143198 -2.648355,6.5303478 -0.442187,0.120402 -0.718016,0.272038 -0.612953,0.336971 0.105062,0.06493 0.48898,3.018748 0.853151,6.564036 0.364169,3.545286 0.750156,6.766103 0.857747,7.15737 0.231994,0.843665 0.937012,1.283606 2.057016,1.283606 1.409304,0 1.61386,-0.335082 3.824014,-6.26412 l 1.995,-5.351859 0.95,0.119707 c 0.5225,0.06584 1.002649,0.178558 1.066997,0.250489 0.06435,0.07193 -0.185024,2.836054 -0.55416,6.142499 -0.753616,6.750322 -0.74369,6.905198 0.479733,7.485749 0.752508,0.35709 1.720613,0.28313 2.436843,-0.186162 0.244323,-0.160085 1.667404,-2.342022 3.162404,-4.848749 1.836107,-3.07867 2.802325,-4.527679 2.977471,-4.46522 0.142608,0.05085 -0.01771,-0.223024 -0.356267,-0.608618 -0.857196,-0.976292 -1.184173,-1.866068 -1.184897,-3.224367 -0.0019,-3.46564 3.571871,-5.67602 6.676,-4.129167 3.259252,1.624154 3.462896,6.139947 0.369276,8.188655 -0.705111,0.466949 -0.968949,0.526163 -2.344414,0.526163 -0.893342,0 -1.55831,0.08049 -1.569765,0.19 -0.01093,0.1045 -0.405859,1.1305 -0.877615,2.28 -1.602626,3.905011 -2.359124,7.635346 -2.523803,12.445 -0.08304,2.425133 -0.213801,3.565223 -0.577507,5.035 -0.903558,3.651382 -0.78192,7.993543 0.313082,11.17622 l 0.365952,1.063654 -0.604666,0.368461 c -1.431441,0.872273 -5.664084,1.820709 -10.294664,2.30679 -2.603547,0.2733 -11.466137,0.389816 -14.25,0.187344 z m 11.685,-2.088877 c 4.334882,-0.321925 9.425009,-1.222414 10.587588,-1.873041 0.29907,-0.167373 0.272639,-0.213634 -0.232588,-0.407109 -1.297075,-0.49671 -4.153862,-1.165891 -6.65,-1.557715 -2.354594,-0.369605 -3.412605,-0.418108 -9.215,-0.422444 -5.241635,-0.0039 -7.030857,0.06191 -8.93,0.328553 -2.696532,0.378598 -5.729455,1.066763 -7.127451,1.617208 l -0.947549,0.373086 1.615,0.486596 c 2.497899,0.752609 5.95026,1.289059 9.785,1.520454 2.394585,0.144495 8.794665,0.106727 11.115,-0.06559 z M 17.802443,51.094197 c 7.53154,-1.643781 20.029928,-1.685503 27.82853,-0.0929 1.250424,0.255358 2.284792,0.447113 2.298591,0.426122 0.01379,-0.02099 -0.01461,-0.61529 -0.06314,-1.320665 -0.08495,-1.234873 -0.106808,-1.282671 -0.588593,-1.287096 -0.343421,-0.0032 -0.977005,-0.419957 -2.019981,-1.328847 -0.83579,-0.72834 -1.54265,-1.393355 -1.570803,-1.477812 -0.02815,-0.08446 0.935733,-0.313916 2.141967,-0.509907 2.078108,-0.337653 2.198851,-0.381984 2.301744,-0.845092 0.05972,-0.26881 0.177435,-0.761328 0.261584,-1.094483 0.152867,-0.605217 0.152171,-0.605914 -0.809749,-0.812208 -5.080944,-1.089668 -13.876458,-1.578311 -20.925001,-1.162508 -4.369346,0.257754 -6.036938,0.44129 -8.997626,0.990292 -1.695468,0.314389 -2.137281,0.460856 -2.136441,0.708259 0.002,0.590607 0.386797,1.699257 0.620152,1.786767 0.128584,0.04822 1.110164,0.240791 2.181289,0.427932 1.071125,0.18714 1.9475,0.403634 1.9475,0.481099 0,0.07746 -0.673951,0.748402 -1.497671,1.490973 -1.162586,1.048057 -1.626708,1.350131 -2.074409,1.350131 l -0.576738,0 -0.06309,1.330427 c -0.0347,0.731736 -0.05909,1.330236 -0.05419,1.33 0.0049,-1.9e-4 0.813127,-0.175953 1.796077,-0.390486 z M 29.819971,46.77533 c -0.966625,-0.487656 -1.7575,-0.933436 -1.7575,-0.990622 0,-0.05719 0.876375,-0.539756 1.9475,-1.072379 l 1.9475,-0.968405 1.9475,0.968481 c 1.071125,0.532665 1.9475,1.015195 1.9475,1.072286 0,0.17825 -3.59717,1.900167 -3.945012,1.888425 -0.181494,-0.0061 -1.120863,-0.41013 -2.087488,-0.897786 z m 3.272417,-0.458935 c 0.473045,-0.229823 0.860083,-0.468639 0.860083,-0.530703 0,-0.06206 -0.448875,-0.332745 -0.9975,-0.601513 l -0.9975,-0.488669 -0.9975,0.488954 c -0.548625,0.268924 -0.9975,0.539797 -0.9975,0.601941 0,0.168497 1.56454,0.922461 1.942417,0.936065 0.18008,0.0065 0.714455,-0.176251 1.1875,-0.406075 z M 17.526422,47.31629 18.33787,46.568323 17.395818,46.36629 c -1.330024,-0.285239 -1.303347,-0.300549 -1.303347,0.747966 0,1.199172 0.30549,1.242212 1.433951,0.202034 z m 30.296049,-0.317362 c 0,-0.824783 -0.05887,-1.042739 -0.260709,-0.965284 -0.143389,0.05502 -0.675547,0.162253 -1.182573,0.238285 l -0.921863,0.138242 0.939869,0.827041 c 1.254622,1.104011 1.425276,1.075478 1.425276,-0.238284 z m -27.55,-6.996608 c 8.824126,-1.192261 22.729101,-0.720782 28.1675,0.955083 0.299033,0.09215 0.332994,-0.06616 0.337402,-1.572843 0.0047,-1.618371 0.241285,-4.668121 0.483633,-6.235304 l 0.117527,-0.76 -0.730531,0.741596 c -1.857083,1.885217 -4.333475,1.943556 -6.132554,0.144476 -1.17208,-1.172081 -1.492697,-2.230237 -1.1562,-3.815887 0.227571,-1.072362 0.171998,-1.535185 -0.18434,-1.535185 -0.09082,0 -0.342471,0.473974 -0.559215,1.053274 -0.795224,2.125426 -1.888064,2.936726 -3.95584,2.936726 -1.488798,0 -2.044005,-0.218118 -3.046074,-1.196673 -0.873736,-0.853235 -1.371308,-2.086115 -1.371308,-3.397812 0,-0.501988 -0.0836,-0.725515 -0.271328,-0.725515 -0.1895,0 -0.308125,0.329481 -0.393338,1.0925 -0.155583,1.393108 -0.413698,2.054078 -1.113297,2.850878 -0.843395,0.960573 -1.807334,1.376622 -3.189481,1.376622 -2.117309,0 -3.23854,-0.852287 -4.061786,-3.0875 -0.546833,-1.484723 -1.002027,-1.070002 -0.69282,0.63122 0.361042,1.986419 -0.50185,3.735576 -2.279943,4.621638 -1.733624,0.863901 -3.509102,0.57045 -4.889641,-0.80816 l -0.836633,-0.835466 0.128374,0.926634 c 0.239109,1.725949 0.513377,6.607708 0.400188,7.123053 l -0.112512,0.512266 1.578608,-0.350198 c 0.868235,-0.192609 2.561859,-0.483051 3.763609,-0.645423 z M 8.9196668,21.074349 c 0.889365,-0.24699 1.2828042,-0.94482 1.2828042,-2.275273 0,-0.823249 -0.08598,-1.060035 -0.5553852,-1.529436 -0.466623,-0.466623 -0.708121,-0.555384 -1.511059,-0.555384 -1.237829,0 -1.83571,0.286121 -2.1994,1.05254 -0.587526,1.238119 -0.167943,2.763186 0.886232,3.221204 0.755877,0.328415 1.164573,0.345245 2.096808,0.08635 z M 57.749971,20.512947 c 0.408669,-0.449485 0.5225,-0.762358 0.5225,-1.436125 0,-1.624752 -0.712029,-2.362566 -2.28,-2.362566 -1.067633,0 -1.649704,0.28227 -2.00705,0.973302 -0.432421,0.836211 -0.285034,2.302096 0.293368,2.917778 0.512633,0.545674 0.948464,0.662068 2.093682,0.559142 0.652986,-0.05869 0.978452,-0.212627 1.3775,-0.651531 z M 21.087246,15.309896 c 0.609972,-0.565305 0.826023,-1.62321 0.53195,-2.604736 -0.30076,-1.003851 -0.946908,-1.396703 -2.26589,-1.377638 -0.929668,0.01344 -1.112522,0.08423 -1.585835,0.61396 -0.450752,0.504478 -0.535,0.765159 -0.535,1.655387 0,0.914507 0.0747,1.131314 0.555384,1.612002 0.48899,0.48899 0.6901,0.555385 1.682255,0.555385 0.925004,0 1.214699,-0.08139 1.617136,-0.45436 z m 12.483082,-3.438701 c 0.87334,-0.790362 0.87608,-2.8210368 0.0049,-3.6094718 -0.455007,-0.411774 -1.985611,-0.588981 -2.70029,-0.312627 -1.529597,0.591467 -1.595973,3.5713118 -0.09386,4.2136808 0.658626,0.281656 2.351393,0.104701 2.78928,-0.291582 z m 9.284061,6.098786 c -1.861561,-0.665021 -3.015595,-2.36557 -3.007746,-4.432123 0.01205,-3.171063 2.939559,-5.2979928 6.088244,-4.4232988 0.894062,0.248368 2.178474,1.3668028 2.695994,2.3476118 0.575802,1.091263 0.581073,3.135592 0.01085,4.207085 -1.108073,2.082142 -3.612364,3.07771 -5.787339,2.300725 z m 3.272697,-2.76111 c 0.479212,-0.479212 0.555385,-0.698714 0.555385,-1.600422 0,-1.321421 -0.572626,-2.105282 -1.665631,-2.28006 -2.058994,-0.329246 -3.363823,1.202705 -2.710497,3.182298 0.286877,0.869247 0.950433,1.23617 2.253243,1.245962 0.870654,0.0065 1.089741,-0.07002 1.5675,-0.547778 z" id="path3004" inkscape:connector-curvature="0"/>
    <path style="fill:#ffffff" d="m 25.927273,56.321719 c -3.590514,-0.228492 -9.520154,-1.298144 -10.067656,-1.81611 -0.220433,-0.208542 1.839375,-0.818741 5.067656,-1.501246 l 2.727272,-0.576584 8.272728,-0.0048 8.272727,-0.0048 2.545455,0.508951 c 2.997858,0.599406 5.330992,1.200228 5.45785,1.405489 0.191008,0.309056 -2.805154,1.037792 -6.349694,1.544394 -3.881575,0.554773 -11.050981,0.75496 -15.926338,0.444703 z" id="path3006" inkscape:connector-curvature="0"/>
    <path style="fill:#ffffff" d="m 16.109091,50.413905 c 0,-1.235893 0.124504,-1.541178 0.628536,-1.541178 0.224298,0 0.726908,-0.235945 1.116912,-0.524323 0.913193,-0.675237 2.535484,-2.34626 2.404753,-2.476991 -0.05533,-0.05533 -1.009384,-0.278376 -2.120117,-0.495654 -2.11822,-0.414359 -2.12468,-0.418561 -2.397975,-1.559336 -0.18068,-0.754186 -0.126395,-0.777643 3.018239,-1.304223 7.071294,-1.184112 18.75079,-1.219456 26.349652,-0.07974 3.215153,0.482226 3.096802,0.430032 3.053407,1.346573 -0.02063,0.435638 -0.146923,0.901494 -0.280663,1.035233 -0.13374,0.13374 -1.080479,0.402713 -2.103864,0.597717 -2.241258,0.427067 -2.337322,0.475451 -1.907996,0.960984 0.648372,0.733257 2.996269,2.499757 3.322483,2.499757 0.182751,0 0.381937,0.129419 0.442635,0.287598 0.176789,0.460703 0.127176,2.076039 -0.06376,2.076039 -0.09577,0 -1.343494,-0.199355 -2.772727,-0.443011 C 43.369371,50.549697 41.3,50.244165 40.2,50.114392 c -2.73108,-0.3222 -13.864666,-0.322828 -16.545455,-9.34e-4 -2.089705,0.250921 -5.6941,0.831949 -6.863636,1.106418 l -0.681818,0.160011 0,-0.965982 z m 18.136364,-3.646024 c 0.925,-0.446794 1.681818,-0.875317 1.681818,-0.952275 0,-0.07696 -0.898933,-0.612405 -1.997629,-1.189885 L 31.932013,43.575757 29.9318,44.633333 c -1.100117,0.581667 -2.001184,1.106572 -2.00237,1.166457 -0.0012,0.05989 0.836479,0.533666 1.861479,1.052847 1.355193,0.68643 1.987647,0.914451 2.318182,0.835781 0.25,-0.0595 1.211364,-0.473743 2.136364,-0.920537 l 0,0 z" id="path3008" inkscape:connector-curvature="0"/>
    <path style="fill:#ffffff" d="m 16.207553,47.303591 c -0.163721,-0.872708 0.03786,-1.032687 1.100443,-0.873343 l 0.879136,0.131835 -0.789677,0.700776 c -0.434322,0.385428 -0.851866,0.700777 -0.927876,0.700777 -0.07601,0 -0.193922,-0.29702 -0.262026,-0.660045 z" id="path3010" inkscape:connector-curvature="0"/>
    <path style="fill:#ffffff" d="m 30.881818,46.238024 c -0.325,-0.141258 -0.590909,-0.328099 -0.590909,-0.415201 0,-0.0871 0.382333,-0.349313 0.849628,-0.582691 l 0.849628,-0.424325 0.786736,0.417362 c 0.432704,0.229549 0.786735,0.48571 0.786735,0.569246 0,0.249538 -1.034904,0.707206 -1.58188,0.699559 -0.279966,-0.0039 -0.774938,-0.122692 -1.099938,-0.26395 z" id="path3012" inkscape:connector-curvature="0"/>
    <path style="fill:#ffffff" d="m 46.560629,47.209334 c -0.358613,-0.314867 -0.58646,-0.633719 -0.506326,-0.70856 0.08013,-0.07484 0.493424,-0.192597 0.918424,-0.261679 l 0.772728,-0.125603 0,0.834163 c 0,1.018734 -0.257751,1.075661 -1.184826,0.261679 z" id="path3014" inkscape:connector-curvature="0"/>
    <path style="fill:#ffffff" d="m 15.133674,40.6015 c 0.11408,-0.297287 -0.229492,-6.283007 -0.416008,-7.247707 l -0.100331,-0.518934 0.939012,0.742246 c 1.520802,1.202124 3.10485,1.399766 4.699309,0.586334 1.740897,-0.888139 2.497128,-2.323278 2.358932,-4.476668 -0.0484,-0.754227 -0.02973,-1.407341 0.0415,-1.451364 0.07123,-0.04402 0.281666,0.257374 0.467632,0.669773 1.06337,2.358132 1.988525,3.05047 4.076275,3.05047 2.499519,0 4.095976,-1.480533 4.451407,-4.128174 0.07046,-0.524888 0.188323,-0.991553 0.261911,-1.037033 0.07359,-0.04548 0.224062,0.500482 0.334388,1.213248 0.222711,1.438834 0.760941,2.369783 1.900816,3.28774 0.578638,0.465986 0.869127,0.556635 2.020569,0.63053 2.339894,0.150165 3.516054,-0.54372 4.38426,-2.58653 0.27816,-0.654487 0.577467,-1.189976 0.665124,-1.189976 0.08779,0 0.108496,0.716818 0.0461,1.595873 -0.129019,1.817631 0.12281,2.554417 1.237674,3.621112 1.723482,1.649016 3.738002,1.717416 5.767386,0.195824 l 0.978725,-0.733829 -0.102545,0.615055 c -0.0564,0.338281 -0.202893,2.128692 -0.325539,3.978692 -0.122645,1.85 -0.241965,3.388676 -0.265156,3.41928 -0.02319,0.03061 -0.521671,-0.06856 -1.107735,-0.220366 -1.33508,-0.345822 -4.000983,-0.738428 -7.065567,-1.040541 -3.183263,-0.313812 -13.626226,-0.319044 -16.909091,-0.0085 -2.310229,0.218557 -7.353241,0.979681 -8.135219,1.227819 -0.236403,0.07502 -0.288246,0.02557 -0.203834,-0.194403 l 0,1e-6 z" id="path3016" inkscape:connector-curvature="0"/>
    <path style="fill:#ffffff" d="M 7.2025202,20.982811 C 6.3128307,20.687153 5.8363636,19.941379 5.8363636,18.84448 c 0,-0.798813 0.072935,-0.97584 0.5937776,-1.441213 0.5051957,-0.451392 0.7446197,-0.53054 1.6048952,-0.53054 0.8751267,0 1.0825976,0.07148 1.542586,0.531469 0.4149576,0.414957 0.5314686,0.695251 0.5314686,1.278567 0,0.757564 -0.3672321,1.876538 -0.6791132,2.069291 -0.4775903,0.295167 -1.6638354,0.418058 -2.2274576,0.230757 z" id="path3018" inkscape:connector-curvature="0"/>
    <path style="fill:#ffffff" d="m 17.87038,15.090051 c -0.662927,-0.691947 -0.699752,-2.22388 -0.07231,-3.007967 0.496388,-0.620312 1.784337,-0.850865 2.680215,-0.47978 1.141629,0.472878 1.486509,2.402133 0.614639,3.438291 C 20.660154,15.554919 20.531024,15.6 19.490581,15.6 c -1.002527,0 -1.18738,-0.05818 -1.620201,-0.509949 z" id="path3020" inkscape:connector-curvature="0"/>
    <path style="fill:#ffffff" d="M 30.377221,11.668767 C 29.53888,10.764182 29.6236,9.2103911 30.559187,8.3314527 c 0.384359,-0.3610866 0.581121,-0.4026883 1.567221,-0.3313603 0.889427,0.064335 1.197565,0.1678762 1.458466,0.4900757 0.777032,0.9595932 0.553302,2.9481809 -0.384874,3.4208959 -0.25,0.125966 -0.887998,0.230236 -1.417773,0.23171 -0.807736,0.0022 -1.034542,-0.07427 -1.405006,-0.474007 z" id="path3022" inkscape:connector-curvature="0"/>
    <path style="fill:#ffffff" d="m 43.254975,15.416038 c -0.538936,-0.217037 -0.964066,-1.092797 -0.964066,-1.985959 0,-0.553472 0.130178,-0.879127 0.53054,-1.327211 0.488465,-0.546686 0.61784,-0.593777 1.631313,-0.593777 0.875662,0 1.178821,0.07805 1.482417,0.381644 0.793577,0.793576 0.813383,2.474752 0.03829,3.249847 -0.37599,0.375991 -0.628254,0.457325 -1.38917,0.447893 -0.511363,-0.0063 -1.109558,-0.08394 -1.329322,-0.172437 z" id="path3024" inkscape:connector-curvature="0"/>
    <path style="fill:#ffffff" d="m 54.458741,20.523077 c -0.446529,-0.446529 -0.531468,-0.677627 -0.531468,-1.44599 0,-1.676571 0.527788,-2.20436 2.204359,-2.20436 0.768363,0 0.999461,0.08494 1.44599,0.531469 0.456614,0.456614 0.530655,0.667881 0.525687,1.5 -0.0086,1.445611 -0.73963,2.150349 -2.230478,2.150349 -0.733104,0 -0.972652,-0.09003 -1.41409,-0.531468 z" id="path3026" inkscape:connector-curvature="0"/>
  </g>
</svg>