<?xml version="1.0" encoding="UTF-8" standalone="no"?>
<!-- Created with Inkscape (http://www.inkscape.org/) -->
<svg xmlns:dc="http://purl.org/dc/elements/1.1/" xmlns:cc="http://creativecommons.org/ns#" xmlns:rdf="http://www.w3.org/1999/02/22-rdf-syntax-ns#" xmlns:svg="http://www.w3.org/2000/svg" xmlns="http://www.w3.org/2000/svg" xmlns:sodipodi="http://sodipodi.sourceforge.net/DTD/sodipodi-0.dtd" xmlns:inkscape="http://www.inkscape.org/namespaces/inkscape" width="64px" height="64px" id="svg2985" version="1.1" inkscape:version="0.48.1 " sodipodi:docname="wr.svg">
  <defs id="defs2987"/>
  <sodipodi:namedview id="base" pagecolor="#ffffff" bordercolor="#666666" borderopacity="1.0" inkscape:pageopacity="0.0" inkscape:pageshadow="2" inkscape:zoom="5.5" inkscape:cx="1.8181818" inkscape:cy="32" inkscape:current-layer="layer1" showgrid="true" inkscape:document-units="px" inkscape:grid-bbox="true" inkscape:window-width="1365" inkscape:window-height="878" inkscape:window-x="-8" inkscape:window-y="-8" inkscape:window-maximized="1"/>
  <metadata id="metadata2990">
    <rdf:RDF>
      <cc:Work rdf:about="">
        <dc:format>image/svg+xml</dc:format>
        <dc:type rdf:resource="http://purl.org/dc/dcmitype/StillImage"/>
        <dc:title/>
      </cc:Work>
    </rdf:RDF>
  </metadata>
  <g id="layer1" inkscape:label="Layer 1" inkscape:groupmode="layer">
    <path style="fill:#000000" d="m 11.765,54.42 0,-4.275 1.045,0 1.045,0 0,-1.08699 c 0,-1.067935 0.01905,-1.106241 1.086552,-2.185 1.074109,-1.085436 1.099132,-1.09801 2.185,-1.09801 l 1.098448,0 0,-13.87 0,-13.87 -2.185,0 -2.185,0 0,-6.365 0,-6.365 3.705,0 3.705,0 0,2.375 0,2.375 3.23,0 3.23,0 0,-2.375 0,-2.375 4.275,0 4.275,0 0,2.375 0,2.375 3.23,0 3.23,0 0,-2.375 0,-2.375 3.705,0 3.705,0 0,6.365 0,6.365 -2.185,0 -2.185,0 0,13.87 0,13.87 1.08699,0 c 1.067935,0 1.106241,0.01905 2.185,1.086553 1.085436,1.074108 1.09801,1.099131 1.09801,2.185 l 0,1.098447 1.045,0 1.045,0 0,4.275 0,4.275 -20.235,0 -20.235,0 0,-4.275 z m 38.38,0 0,-2.185 -18.145,0 -18.145,0 0,2.185 0,2.185 18.145,0 18.145,0 0,-2.185 z m -2.09,-4.788454 c 0,-0.320156 -0.228619,-0.74933 -0.607272,-1.14 l -0.60727,-0.626546 -14.821185,0 -14.821183,0 -0.626545,0.607272 c -0.415363,0.402585 -0.626545,0.786832 -0.626545,1.14 l 0,0.532728 16.055,0 16.055,0 0,-0.513454 z M 22.405,43.115 l 0,-2.66 -1.14,0 -1.14,0 0,2.66 0,2.66 1.14,0 1.14,0 0,-2.66 z m 8.55,0 0,-2.66 -3.23,0 -3.23,0 0,2.66 0,2.66 3.23,0 3.23,0 0,-2.66 z m 8.55,0 0,-2.66 -3.23,0 -3.23,0 0,2.66 0,2.66 3.23,0 3.23,0 0,-2.66 z m 4.37,0 0,-2.66 -1.14,0 -1.14,0 0,2.66 0,2.66 1.14,0 1.14,0 0,-2.66 z m -17.29,-7.41 0,-2.66 -3.23,0 -3.23,0 0,2.66 0,2.66 3.23,0 3.23,0 0,-2.66 z m 8.74,0 0,-2.66 -3.325,0 -3.325,0 0,2.66 0,2.66 3.325,0 3.325,0 0,-2.66 z m 8.55,0 0,-2.66 -3.325,0 -3.325,0 0,2.66 0,2.66 3.325,0 3.325,0 0,-2.66 z m -21.47,-7.505 0,-2.755 -1.14,0 -1.14,0 0,2.755 0,2.755 1.14,0 1.14,0 0,-2.755 z m 8.55,0 0,-2.755 -3.23,0 -3.23,0 0,2.755 0,2.755 3.23,0 3.23,0 0,-2.755 z m 8.55,0 0,-2.755 -3.23,0 -3.23,0 0,2.755 0,2.755 3.23,0 3.23,0 0,-2.755 z m 4.37,0 0,-2.755 -1.14,0 -1.14,0 0,2.755 0,2.755 1.14,0 1.14,0 0,-2.755 z m -17.29,-7.505 0,-2.66 -3.23,0 -3.23,0 0,2.66 0,2.66 3.23,0 3.23,0 0,-2.66 z m 8.74,0 0,-2.66 -3.325,0 -3.325,0 0,2.66 0,2.66 3.325,0 3.325,0 0,-2.66 z m 8.55,0 0,-2.66 -3.325,0 -3.325,0 0,2.66 0,2.66 3.325,0 3.325,0 0,-2.66 z m 4.18,-9.025 0,-4.275 -1.615,0 -1.615,0 0,2.47 0,2.47 -5.32,0 -5.32,0 0,-2.47 0,-2.47 -2.185,0 -2.185,0 0,2.47 0,2.47 -5.32,0 -5.32,0 0,-2.47 0,-2.47 -1.615,0 -1.615,0 0,4.275 0,4.275 16.055,0 16.055,0 0,-4.275 z" id="path3062" inkscape:connector-curvature="0"/>
    <path style="fill:#ffffff" d="m 13.927273,54.418182 0,-2.090909 18.090909,0 18.090909,0 0,2.090909 0,2.090909 -18.090909,0 -18.090909,0 0,-2.090909 z" id="path3064" inkscape:connector-curvature="0"/>
    <path style="fill:#ffffff" d="m 16.109091,49.635667 c 0,-0.33796 0.202088,-0.70566 0.599565,-1.090909 l 0.599565,-0.581122 14.745236,0 14.745238,0 0.564289,0.642691 c 0.310358,0.353479 0.564289,0.844388 0.564289,1.090909 l 0,0.448219 -15.909091,0 -15.909091,0 0,-0.509788 z" id="path3066" inkscape:connector-curvature="0"/>
    <path style="fill:#ffffff" d="m 20.290909,43.054545 0,-2.545454 1,0 1,0 0,2.545454 0,2.545455 -1,0 -1,0 0,-2.545455 z" id="path3068" inkscape:connector-curvature="0"/>
    <path style="fill:#ffffff" d="m 24.654545,43.054545 0,-2.545454 3.09091,0 3.090909,0 0,2.545454 0,2.545455 -3.090909,0 -3.09091,0 0,-2.545455 z" id="path3070" inkscape:connector-curvature="0"/>
    <path style="fill:#ffffff" d="m 33.2,43.054545 0,-2.545454 3.090909,0 3.090909,0 0,2.545454 0,2.545455 -3.090909,0 -3.090909,0 0,-2.545455 z" id="path3072" inkscape:connector-curvature="0"/>
    <path style="fill:#ffffff" d="m 41.745455,43.054545 0,-2.545454 1,0 1,0 0,2.545454 0,2.545455 -1,0 -1,0 0,-2.545455 z" id="path3074" inkscape:connector-curvature="0"/>
    <path style="fill:#ffffff" d="m 37.381818,35.690909 0,-2.636364 3.181818,0 3.181819,0 0,2.636364 0,2.636364 -3.181819,0 -3.181818,0 0,-2.636364 z" id="path3076" inkscape:connector-curvature="0"/>
    <path style="fill:#ffffff" d="m 28.836364,35.690909 0,-2.636364 3.181818,0 3.181818,0 0,2.636364 0,2.636364 -3.181818,0 -3.181818,0 0,-2.636364 z" id="path3078" inkscape:connector-curvature="0"/>
    <path style="fill:#ffffff" d="m 20.290909,35.690909 0,-2.636364 3.090909,0 3.090909,0 0,2.636364 0,2.636364 -3.090909,0 -3.090909,0 0,-2.636364 z" id="path3080" inkscape:connector-curvature="0"/>
    <path style="fill:#ffffff" d="m 20.290909,28.236364 0,-2.636364 1,0 1,0 0,2.636364 0,2.636363 -1,0 -1,0 0,-2.636363 z" id="path3082" inkscape:connector-curvature="0"/>
    <path style="fill:#ffffff" d="m 24.654545,28.236364 0,-2.636364 3.09091,0 3.090909,0 0,2.636364 0,2.636363 -3.090909,0 -3.09091,0 0,-2.636363 z" id="path3084" inkscape:connector-curvature="0"/>
    <path style="fill:#ffffff" d="m 33.2,28.236364 0,-2.636364 3.090909,0 3.090909,0 0,2.636364 0,2.636363 -3.090909,0 -3.090909,0 0,-2.636363 z" id="path3086" inkscape:connector-curvature="0"/>
    <path style="fill:#ffffff" d="m 43.818171,28.236364 c 2.55e-4,-1.5 0.02842,-2.089443 0.06258,-1.309872 0.03416,0.779571 0.03396,2.006843 -4.63e-4,2.727273 -0.03442,0.720429 -0.06237,0.0826 -0.06212,-1.417401 z" id="path3088" inkscape:connector-curvature="0"/>
    <path style="fill:#ffffff" d="m 37.381818,20.690909 0,-2.545454 3.181818,0 3.181819,0 0,2.545454 0,2.545455 -3.181819,0 -3.181818,0 0,-2.545455 z" id="path3090" inkscape:connector-curvature="0"/>
    <path style="fill:#ffffff" d="m 28.836364,20.690909 0,-2.545454 3.181818,0 3.181818,0 0,2.545454 0,2.545455 -3.181818,0 -3.181818,0 0,-2.545455 z" id="path3092" inkscape:connector-curvature="0"/>
    <path style="fill:#ffffff" d="m 20.290909,20.690909 0,-2.545454 3.090909,0 3.090909,0 0,2.545454 0,2.545455 -3.090909,0 -3.090909,0 0,-2.545455 z" id="path3094" inkscape:connector-curvature="0"/>
    <path style="fill:#ffffff" d="m 16.109091,11.6 0,-4.1818182 1.449415,0 1.449414,0 0.05059,2.5 0.05059,2.5000002 5.409091,0.04816 5.409091,0.04816 0,-2.54816 0,-2.5481602 2.090909,0 2.090909,0 0,2.5454546 0,2.5454546 5.363636,0 5.363637,0 0,-2.5454546 0,-2.5454546 1.545454,0 1.545455,0 0,4.1818182 0,4.181818 -15.909091,0 -15.909091,0 0,-4.181818 z" id="path3096" inkscape:connector-curvature="0"/>
    <path style="fill:#ffffff" d="m 41.636364,28.236364 0,-2.636364 1.090909,0 1.090909,0 0,2.636364 0,2.636363 -1.090909,0 -1.090909,0 0,-2.636363 z" id="path3031" inkscape:connector-curvature="0"/>
  </g>
</svg>