<?xml version="1.0" encoding="UTF-8" standalone="no"?>
<!-- Created with Inkscape (http://www.inkscape.org/) -->

<svg
   xmlns:dc="http://purl.org/dc/elements/1.1/"
   xmlns:cc="http://creativecommons.org/ns#"
   xmlns:rdf="http://www.w3.org/1999/02/22-rdf-syntax-ns#"
   xmlns:svg="http://www.w3.org/2000/svg"
   xmlns="http://www.w3.org/2000/svg"
   xmlns:sodipodi="http://sodipodi.sourceforge.net/DTD/sodipodi-0.dtd"
   xmlns:inkscape="http://www.inkscape.org/namespaces/inkscape"
   width="48.000000px"
   height="48.000000px"
   id="svg97"
   sodipodi:version="0.32"
   inkscape:version="0.92.3 (2405546, 2018-03-11)"
   sodipodi:docname="play-white.svg"
   inkscape:export-filename="/home/jimmac/ximian_art/icons/nautilus/snowdunes/gnome-fs-directory-accept.png"
   inkscape:export-xdpi="90.000000"
   inkscape:export-ydpi="90.000000"
   inkscape:output_extension="org.inkscape.output.svg.inkscape"
   version="1.1">
  <defs
     id="defs3">
    <inkscape:perspective
       sodipodi:type="inkscape:persp3d"
       inkscape:vp_x="0 : 24 : 1"
       inkscape:vp_y="0 : 1000 : 0"
       inkscape:vp_z="48 : 24 : 1"
       inkscape:persp3d-origin="24 : 16 : 1"
       id="perspective90" />
    <linearGradient
       id="linearGradient5048">
      <stop
         style="stop-color:black;stop-opacity:0;"
         offset="0"
         id="stop5050" />
      <stop
         id="stop5056"
         offset="0.5"
         style="stop-color:black;stop-opacity:1;" />
      <stop
         style="stop-color:black;stop-opacity:0;"
         offset="1"
         id="stop5052" />
    </linearGradient>
    <linearGradient
       id="linearGradient269">
      <stop
         id="stop270"
         offset="0.0000000"
         style="stop-color:#a3a3a3;stop-opacity:1.0000000;" />
      <stop
         id="stop271"
         offset="1.0000000"
         style="stop-color:#4c4c4c;stop-opacity:1.0000000;" />
    </linearGradient>
    <linearGradient
       id="linearGradient259">
      <stop
         id="stop260"
         offset="0.0000000"
         style="stop-color:#fafafa;stop-opacity:1.0000000;" />
      <stop
         style="stop-color:#a8a8a8;stop-opacity:1;"
         offset="0.5"
         id="stop8238" />
      <stop
         id="stop261"
         offset="1"
         style="stop-color:#cdcdcd;stop-opacity:1;" />
    </linearGradient>
    <linearGradient
       id="linearGradient9766">
      <stop
         style="stop-color:#6194cb;stop-opacity:1;"
         offset="0"
         id="stop9768" />
      <stop
         style="stop-color:#729fcf;stop-opacity:1;"
         offset="1"
         id="stop9770" />
    </linearGradient>
    <linearGradient
       id="linearGradient148">
      <stop
         style="stop-color:#ffffff;stop-opacity:0.13402061;"
         offset="0.0000000"
         id="stop149" />
      <stop
         style="stop-color:#ffffff;stop-opacity:0.051546391;"
         offset="1.0000000"
         id="stop150" />
    </linearGradient>
    <linearGradient
       id="linearGradient335">
      <stop
         style="stop-color:#ffffff;stop-opacity:1.0000000;"
         offset="0.0000000"
         id="stop336" />
      <stop
         style="stop-color:#ffffff;stop-opacity:0.0000000;"
         offset="1.0000000"
         id="stop337" />
    </linearGradient>
    <linearGradient
       id="linearGradient1789">
      <stop
         style="stop-color:#a0a0a0;stop-opacity:1;"
         offset="0"
         id="stop1790" />
      <stop
         style="stop-color:#a8a8a8;stop-opacity:1;"
         offset="1"
         id="stop1791" />
    </linearGradient>
    <linearGradient
       id="linearGradient137">
      <stop
         style="stop-color:#ffffff;stop-opacity:0.70059878;"
         offset="0.0000000"
         id="stop138" />
      <stop
         style="stop-color:#ffffff;stop-opacity:0.0000000;"
         offset="1.0000000"
         id="stop139" />
    </linearGradient>
  </defs>
  <sodipodi:namedview
     id="base"
     pagecolor="#ffffff"
     bordercolor="#666666"
     borderopacity="1.0"
     inkscape:pageopacity="0.0"
     inkscape:pageshadow="2"
     inkscape:zoom="7.59"
     inkscape:cx="27.35139"
     inkscape:cy="35.235876"
     inkscape:current-layer="layer3"
     showgrid="false"
     inkscape:grid-bbox="true"
     inkscape:document-units="px"
     inkscape:window-width="1280"
     inkscape:window-height="961"
     inkscape:window-x="-8"
     inkscape:window-y="-8"
     inkscape:showpageshadow="false"
     inkscape:window-maximized="1" />
  <metadata
     id="metadata4">
    <rdf:RDF>
      <cc:Work
         rdf:about="">
        <dc:format>image/svg+xml</dc:format>
        <dc:type
           rdf:resource="http://purl.org/dc/dcmitype/StillImage" />
        <dc:title></dc:title>
        <dc:date>2005-01-31</dc:date>
        <dc:creator>
          <cc:Agent>
            <dc:title>Jakub Steiner</dc:title>
          </cc:Agent>
        </dc:creator>
        <cc:license
           rdf:resource="http://creativecommons.org/licenses/publicdomain/" />
        <dc:source>http://jimmac.musichall.cz</dc:source>
        <dc:description>Active state - when files are being dragged to.</dc:description>
        <dc:publisher>
          <cc:Agent>
            <dc:title>Novell, Inc.</dc:title>
          </cc:Agent>
        </dc:publisher>
      </cc:Work>
      <cc:License
         rdf:about="http://creativecommons.org/licenses/publicdomain/">
        <cc:permits
           rdf:resource="http://creativecommons.org/ns#Reproduction" />
        <cc:permits
           rdf:resource="http://creativecommons.org/ns#Distribution" />
        <cc:permits
           rdf:resource="http://creativecommons.org/ns#DerivativeWorks" />
      </cc:License>
    </rdf:RDF>
  </metadata>
  <g
     id="layer1"
     inkscape:label="Folder"
     inkscape:groupmode="layer" />
  <g
     inkscape:label="Open"
     id="layer3"
     inkscape:groupmode="layer">
    <path
       style="fill:#000000;stroke-width:0.67603171"
       d="M 2.9182546,44.596072 C 2.0554495,41.73643 2.318876,38.464759 3.6220847,35.854745 4.9094823,33.276395 7.0551326,31.160351 9.5319511,30.026425 L 10.243507,29.700665 9.6236163,29.282758 C 8.7211286,28.674332 7.946658,27.774871 7.4835055,26.797256 7.0974231,25.982321 7.0770354,25.861979 7.0770354,24.397935 c 0,-1.462692 0.02049,-1.58396 0.4014891,-2.376252 0.7590062,-1.578361 2.0903347,-2.713634 3.6900735,-3.146663 l 0.823603,-0.22294 -0.472088,-0.472088 c -0.764411,-0.764411 -1.0828,-1.57156 -1.093949,-2.773278 -0.02532,-2.730064 1.595864,-4.424925 4.229187,-4.421371 1.520031,0.002 2.768318,0.601974 3.492134,1.678308 0.542283,0.806389 0.747919,1.571701 0.737051,2.743063 -0.01112,1.201718 -0.329535,2.008867 -1.093947,2.773278 l -0.472088,0.472088 0.823603,0.22294 c 1.599739,0.433029 2.931067,1.568302 3.690074,3.146663 0.380999,0.792292 0.401488,0.91356 0.401488,2.376252 0,1.458052 -0.0215,1.586473 -0.397846,2.376251 -0.482743,1.013062 -1.41992,2.079499 -2.23808,2.546769 l -0.605685,0.345921 1.126127,0.555948 c 2.329404,1.149985 4.341932,3.192263 5.525135,5.606807 1.335671,2.725682 1.5847,5.6029 0.752034,8.688803 l -0.272224,1.008872 H 14.661176 3.1992248 Z M 25.239804,43.375835 c 0.722997,-3.523087 -0.221177,-6.881491 -2.693046,-9.579101 -1.131937,-1.235311 -3.23952,-2.655383 -3.940953,-2.655383 -0.63114,0 -1.159637,-0.907977 -1.005801,-1.727997 0.09201,-0.490458 0.593569,-1.043189 1.162202,-1.280779 0.580497,-0.242547 1.676512,-1.507344 1.916479,-2.211609 0.31951,-0.937711 0.272214,-2.403642 -0.103586,-3.210755 -0.611764,-1.313884 -1.726547,-2.228642 -3.032621,-2.488481 -1.050195,-0.208932 -1.275616,-0.338059 -1.491291,-0.854242 -0.290508,-0.695285 -0.1358,-1.227018 0.590271,-2.028771 1.087031,-1.200338 1.161282,-2.621845 0.205466,-3.933609 -0.985351,-1.352301 -2.972015,-1.525942 -4.085048,-0.357049 -0.619023,0.650091 -0.86475,1.135816 -0.953053,1.883887 -0.106523,0.902399 0.1451,1.633003 0.805588,2.339119 0.665953,0.711958 0.842269,1.195369 0.687081,1.883793 -0.140299,0.622373 -0.468189,0.886182 -1.242529,0.999693 -1.406283,0.206148 -2.6439592,1.132424 -3.2671634,2.44514 -0.3020834,0.636308 -0.3658914,0.940245 -0.3659751,1.743252 -5.82e-5,0.556392 0.088177,1.231658 0.2061957,1.578023 0.2412041,0.707895 1.2901816,1.915008 1.9648518,2.261054 0.672238,0.3448 1.052717,0.810695 1.121479,1.373242 0.0819,0.670032 -0.277078,1.354375 -0.787931,1.502081 -1.9203237,0.555236 -3.9054662,2.116525 -5.3190188,4.183339 -1.5648011,2.287962 -2.1623185,5.485725 -1.533809,8.208575 L 4.2311257,44.1144 H 14.659684 25.088243 Z"
       id="path3116"
       inkscape:connector-curvature="0" />
    <path
       style="fill:#ffffff;stroke-width:0.67603171"
       d="m 4.1277246,43.380994 c -0.096448,-0.419848 -0.1569711,-1.380379 -0.1490887,-2.366111 0.011386,-1.423606 0.060437,-1.816512 0.3452563,-2.765584 0.697737,-2.324978 2.1459727,-4.370321 4.1512711,-5.862839 0.3170866,-0.236004 1.1032739,-0.667992 1.7470837,-0.959974 0.96033,-0.435531 1.204473,-0.602342 1.359387,-0.928797 0.430471,-0.907152 0.153197,-1.662957 -0.855762,-2.332665 C 9.8948039,27.613393 9.112525,26.751101 8.7888421,26.029874 8.6102061,25.631839 8.5432743,25.206299 8.537513,24.431981 c -0.00676,-0.90472 0.039757,-1.154706 0.3256776,-1.751168 0.6105373,-1.273667 1.7402834,-2.147029 3.1754554,-2.454818 0.903501,-0.193766 1.329708,-0.641178 1.329708,-1.395869 0,-0.637407 -0.105704,-0.886057 -0.679835,-1.599267 -0.606695,-0.753655 -0.795144,-1.214747 -0.795144,-1.945523 0,-2.723917 3.261184,-3.941119 4.880945,-1.821761 0.921742,1.206043 0.867075,2.535664 -0.155565,3.783662 -0.580832,0.708828 -0.81951,1.310437 -0.723319,1.823184 0.111087,0.592125 0.45079,0.893332 1.254728,1.112529 1.533714,0.418172 2.661745,1.233127 3.200771,2.312421 0.556744,1.114773 0.603058,2.775575 0.103984,3.728685 -0.317974,0.607248 -1.089465,1.412622 -1.770539,1.8483 -1.085115,0.69414 -1.399136,1.543022 -0.921625,2.491386 0.176668,0.350872 0.347138,0.471984 0.958015,0.680626 1.556111,0.53148 3.711384,2.300701 4.838323,3.971684 1.686232,2.500279 2.240305,5.621176 1.525957,8.595145 l -0.06643,0.276559 H 14.654346 4.2900797 L 4.1277219,43.380994 v 0 z"
       id="path3118"
       inkscape:connector-curvature="0" />
    <path
       style="fill:none;stroke:#000000;stroke-width:1.32235849;stroke-linecap:butt;stroke-linejoin:miter;stroke-miterlimit:4;stroke-dasharray:none;stroke-opacity:1"
       d="m 45.639862,2.4912523 c 0,0 -1.893101,0.4449676 -2.790926,0.8082431 -0.873153,0.3532929 -2.497137,1.322578 -2.497137,1.322578 0,0 -7.202491,-1.6060181 -10.869904,-1.8369129 -1.173822,-0.073902 -2.35478,0.032821 -3.525376,0.1469452 -0.961475,0.093737 -2.864372,0.4408594 -2.864372,0.4408594 L 19.50025,5.1182829 c -1.285058,0.8289374 -1.541554,0.7080604 -2.634874,1.8208097 0,0 1.218059,0.4911116 1.780994,0.8243507 0.825428,0.4886267 2.31587,1.7080798 2.31587,1.7080798 v 0 c 0,0 2.30071,-1.1215757 3.525368,-1.4695336 0.596238,-0.1694071 1.22805,-0.4140118 1.836139,-0.2939023 0.506711,0.1000853 0.911161,0.495226 1.32201,0.8082372 0.427183,0.3254555 0.927309,0.6257136 1.175127,1.1021513 0.239751,0.4609283 0.224157,1.0234683 0.220339,1.5430073 -0.0035,0.471099 -0.03489,0.962978 -0.220339,1.396054 -0.206297,0.481762 -0.954788,1.249102 -0.954788,1.249102 0,0 -1.078653,1.468467 -1.615799,2.204296 -0.392772,0.538052 -1.016848,0.969398 -1.175121,1.616484 -0.117683,0.481136 0.07014,1.043798 0.220333,1.469531 0.150195,0.425733 0.313625,0.801438 0.66101,1.028671 0.347385,0.227233 0.775739,0.232878 1.248572,0.22043 0.472833,-0.01245 1.285291,-0.244923 1.542349,-0.293907 0.257058,-0.04898 3.305036,-3.306443 3.305036,-3.306443 l 1.542355,-1.616485 c 0,0 1.619569,-0.122355 2.350248,-0.440859 0.641963,-0.279832 1.689244,-1.249101 1.689244,-1.249101 l 0.807899,-0.587812 c 0,0 0.536849,0.607706 0.881344,0.808241 0.689209,0.401197 2.276804,0.734765 2.276804,0.734765 l 2.276804,0.440861 1.909576,0.14696 z"
       id="path2143"
       inkscape:connector-curvature="0"
       sodipodi:nodetypes="cacaacccaccaaaaaacaazzzzccaccacccc" />
    <path
       style="fill:none;stroke:#000000;stroke-width:1px;stroke-linecap:butt;stroke-linejoin:miter;stroke-opacity:1"
       d="M 40.351799,4.6220734 38.442222,12.851444"
       id="path2162"
       inkscape:connector-curvature="0" />
  </g>
  <g
     inkscape:groupmode="layer"
     id="layer2"
     inkscape:label="pattern" />
</svg>
