<?xml version="1.0" encoding="UTF-8" standalone="no"?>
<!-- Created with Inkscape (http://www.inkscape.org/) -->

<svg
   xmlns:dc="http://purl.org/dc/elements/1.1/"
   xmlns:cc="http://creativecommons.org/ns#"
   xmlns:rdf="http://www.w3.org/1999/02/22-rdf-syntax-ns#"
   xmlns:svg="http://www.w3.org/2000/svg"
   xmlns="http://www.w3.org/2000/svg"
   xmlns:sodipodi="http://sodipodi.sourceforge.net/DTD/sodipodi-0.dtd"
   xmlns:inkscape="http://www.inkscape.org/namespaces/inkscape"
   width="64px"
   height="64px"
   id="svg3072"
   version="1.1"
   inkscape:version="0.48.1 "
   sodipodi:docname="bn.svg">
  <defs
     id="defs3074" />
  <sodipodi:namedview
     id="base"
     pagecolor="#ffffff"
     bordercolor="#666666"
     borderopacity="1.0"
     inkscape:pageopacity="0.0"
     inkscape:pageshadow="2"
     inkscape:zoom="5.5"
     inkscape:cx="16.727273"
     inkscape:cy="40.712674"
     inkscape:current-layer="layer1"
     showgrid="true"
     inkscape:document-units="px"
     inkscape:grid-bbox="true"
     inkscape:window-width="1365"
     inkscape:window-height="878"
     inkscape:window-x="-8"
     inkscape:window-y="-8"
     inkscape:window-maximized="1" />
  <metadata
     id="metadata3077">
    <rdf:RDF>
      <cc:Work
         rdf:about="">
        <dc:format>image/svg+xml</dc:format>
        <dc:type
           rdf:resource="http://purl.org/dc/dcmitype/StillImage" />
        <dc:title></dc:title>
      </cc:Work>
    </rdf:RDF>
  </metadata>
  <g
     id="layer1"
     inkscape:label="Layer 1"
     inkscape:groupmode="layer">
    <path
       style="fill:#000000"
       d="m 9.4060658,60.237437 c -0.929913,-0.621154 -1.669573,-1.60339 -2.071646,-2.751054 -0.550031,-1.569988 -0.550031,-1.999948 0,-3.569936 0.805415,-2.298949 2.8402662,-3.717139 5.3334392,-3.717139 l 1.815493,0 -0.475593,-1.252859 c -0.697599,-1.837695 0.470883,-4.066129 2.63794,-5.03086 l 1.655028,-0.736783 -1.377342,-4.089778 C 15.325041,34.343029 14.135811,32.403892 10.499355,28.61412 6.6008258,24.551225 6.1521886,23.271507 7.7263918,20.704361 8.8850858,18.814813 10.6011,18.461515 18.63364,18.458744 l 6.843049,-0.0024 -0.181232,-1.227828 c -0.259463,-1.757834 1.113258,-3.004562 3.308201,-3.004562 l 1.702589,0 0,-2.064206 0,-2.064205 -1.915412,0.214673 -1.915413,0.214674 0,-2.1971721 0,-2.1971712 1.949507,0.2906928 1.949508,0.2906924 -0.295248,-1.9577152 -0.295248,-1.9577157 2.224895,0 2.224896,0 -0.295248,1.9577157 -0.295248,1.9577152 1.949507,-0.2906924 1.949508,-0.2906928 0,2.1971712 0,2.1971721 -1.915413,-0.214674 -1.915413,-0.214673 0,2.064205 0,2.064206 1.702589,0 c 2.175534,0 3.567388,1.248604 3.313004,2.972029 l -0.17643,1.195293 7.689539,0.138344 c 8.489185,0.15273 9.088152,0.316767 10.280641,2.815535 0.98857,2.071472 0.499995,3.210112 -2.937485,6.845905 -3.541394,3.745703 -5.084412,6.364386 -6.70778,11.383898 l -1.164639,3.601099 1.677953,0.746992 c 1.964732,0.874661 3.062519,2.936597 2.651476,4.980181 -0.254908,1.26733 -0.224146,1.296072 1.3887,1.297621 0.90716,8.47e-4 2.239338,0.359301 2.960393,0.796511 1.389402,0.842461 2.732639,3.154734 2.732639,4.704013 0,1.549279 -1.343237,3.861552 -2.732639,4.704014 -1.236058,0.74948 -2.518082,0.79502 -22.424015,0.79651 l -21.113006,0.0016 -1.4462992,-0.966085 z m 39.5518532,-8.874221 -0.136016,-0.952288 -16.813067,0 -16.813066,0 -0.136016,0.952288 -0.136016,0.952287 17.085098,0 17.085098,0 -0.136015,-0.952287 z m -4.49066,-6.348585 c 0.535579,-1.526712 0.0608,-1.587147 -12.468491,-1.587147 -9.427461,0 -12.305672,0.122325 -12.448354,0.529049 -0.535578,1.526712 -0.0608,1.587146 12.468491,1.587146 9.427459,0 12.305673,-0.122324 12.448354,-0.529048 z m -9.701145,-4.849608 c 1.292769,-0.630445 2.350489,-1.262028 2.350489,-1.403515 0,-0.141488 -1.11073,-0.785128 -2.468291,-1.430311 l -2.468291,-1.17306 -2.426652,1.183408 c -1.334659,0.650874 -2.426652,1.294799 -2.426652,1.430943 0,0.251388 4.211273,2.465848 4.779101,2.513047 0.170393,0.01418 1.367526,-0.490064 2.660296,-1.120512 z m 10.87033,-3.6718 c -0.414027,-0.411686 -5.54031,1.687676 -5.54031,2.268918 0,0.141835 1.005592,0.74975 2.234648,1.350921 l 2.234648,1.093036 0.747135,-2.146009 c 0.49527,-1.422577 0.604453,-2.287882 0.323879,-2.566866 z m -23.641705,3.464012 c 1.05974,-0.511948 1.926799,-1.043645 1.926799,-1.181548 0,-0.463636 -4.731004,-2.563181 -5.16909,-2.293961 -0.435971,0.267921 -0.281815,1.337608 0.479833,3.329561 0.497439,1.300957 0.38398,1.294964 2.762458,0.145948 z M 47.267605,34.16484 c 0.315669,-0.198915 0.504588,-0.719757 0.41982,-1.157426 -0.147486,-0.761511 -0.822337,-0.795763 -15.678589,-0.795763 -14.856251,0 -15.5311,0.03425 -15.678588,0.795763 -0.08477,0.437669 0.104151,0.958511 0.419818,1.157426 0.315667,0.198915 7.182114,0.361663 15.25877,0.361663 8.076657,0 14.943105,-0.162748 15.258769,-0.361663 z M 37.465443,19.620291 c -0.132769,-0.929556 -0.263023,-0.952288 -5.456607,-0.952288 -5.193584,0 -5.323837,0.02273 -5.456606,0.952288 -0.135133,0.946102 -0.09969,0.952288 5.456606,0.952288 5.556293,0 5.591739,-0.0062 5.456607,-0.952288 z"
       id="path3370"
       inkscape:connector-curvature="0" />
    <path
       style="fill:#ffffff;fill-opacity:1;fill-rule:evenodd"
       d="m 15.063295,51.660053 c 0.05224,-0.375 0.126345,-0.784091 0.164681,-0.909091 0.0551,-0.179664 3.570443,-0.227273 16.781476,-0.227273 l 16.711773,0 0.109631,0.409091 c 0.0603,0.225 0.110751,0.634091 0.112117,0.909091 l 0.0025,0.5 -16.988569,0 -16.988569,0 0.09498,-0.681818 z"
       id="path3372"
       inkscape:connector-curvature="0" />
    <path
       style="fill:#ffffff;fill-opacity:1;fill-rule:evenodd"
       d="m 21.4,45.313372 c -0.3,-0.03571 -0.857247,-0.150951 -1.238326,-0.256095 -0.607209,-0.167536 -0.685885,-0.251512 -0.636363,-0.679233 0.05028,-0.434257 0.156727,-0.503594 0.965598,-0.628957 1.250194,-0.193762 21.204735,-0.261107 22.500109,-0.07594 2.146791,0.306877 2.155507,1.365083 0.0132,1.603115 C 41.798604,45.410222 22.492273,45.443382 21.4,45.313372 z"
       id="path3374"
       inkscape:connector-curvature="0" />
    <path
       style="fill:#ffffff;fill-opacity:1;fill-rule:evenodd"
       d="m 19.51708,40.387326 c -0.285625,-0.539541 -0.935262,-2.787067 -0.935262,-3.235694 0,-0.233565 0.08376,-0.476427 0.186123,-0.539694 0.43543,-0.26911 5.02395,1.745374 4.975728,2.184479 -0.02685,0.244523 -3.256332,1.909091 -3.703886,1.909091 -0.194844,0 -0.43006,-0.143182 -0.522703,-0.318182 z"
       id="path3376"
       inkscape:connector-curvature="0" />
    <path
       style="fill:#ffffff;fill-opacity:1;fill-rule:evenodd"
       d="m 29.930018,40.242098 c -2.627301,-1.342819 -2.667784,-1.387673 -1.766137,-1.956857 0.394869,-0.24927 1.448475,-0.820113 2.341348,-1.268541 l 1.623404,-0.815322 2.181138,1.037919 c 2.52653,1.202278 2.86614,1.490028 2.23876,1.896892 -0.543528,0.352485 -3.760118,1.874859 -4.254876,2.013783 -0.253104,0.07107 -1.038559,-0.230625 -2.363637,-0.907874 l 0,0 z"
       id="path3378"
       inkscape:connector-curvature="0" />
    <path
       style="fill:#ffffff;fill-opacity:1;fill-rule:evenodd"
       d="m 42.322165,40.018941 c -1.09281,-0.572388 -2.018765,-1.139025 -2.057677,-1.259192 -0.126541,-0.390772 4.062752,-2.23606 5.076449,-2.23606 0.55577,0 0.416773,1.120994 -0.433979,3.5 -0.205625,0.575 -0.424264,1.043318 -0.485865,1.040706 -0.0616,-0.0026 -1.006119,-0.473066 -2.098928,-1.045454 l 0,0 z"
       id="path3380"
       inkscape:connector-curvature="0" />
    <path
       style="fill:#ffffff;fill-opacity:1;fill-rule:evenodd"
       d="M 22.836899,34.357728 C 16.616585,34.243928 16.4,34.209747 16.4,33.341871 c 0,-0.939209 -0.518743,-0.909091 15.657815,-0.909091 14.045092,0 15.077652,0.02118 15.371794,0.315325 0.24978,0.249778 0.278582,0.419804 0.13856,0.817952 -0.155736,0.442833 -0.29522,0.51642 -1.172467,0.618552 -1.534964,0.178707 -17.029741,0.292568 -23.558803,0.173119 l 0,0 z"
       id="path3382"
       inkscape:connector-curvature="0" />
    <path
       style="fill:#ffffff;fill-opacity:1;fill-rule:evenodd"
       d="m 27.309091,20.371229 c -0.510673,-0.09651 -0.647157,-0.21312 -0.691011,-0.590375 -0.105386,-0.906602 0.214867,-0.979421 4.582587,-1.041986 2.209633,-0.03165 4.460748,0.0094 5.002477,0.09125 0.862411,0.130283 1.006344,0.212945 1.156818,0.664366 0.119204,0.357613 0.107167,0.580325 -0.03929,0.726933 -0.234451,0.234692 -8.878073,0.364034 -10.011581,0.149812 z"
       id="path3384"
       inkscape:connector-curvature="0" />
  </g>
</svg>
