<?xml version="1.0" encoding="UTF-8" standalone="no"?>
<!-- Created with Inkscape (http://www.inkscape.org/) -->

<svg
   xmlns:dc="http://purl.org/dc/elements/1.1/"
   xmlns:cc="http://creativecommons.org/ns#"
   xmlns:rdf="http://www.w3.org/1999/02/22-rdf-syntax-ns#"
   xmlns:svg="http://www.w3.org/2000/svg"
   xmlns="http://www.w3.org/2000/svg"
   xmlns:sodipodi="http://sodipodi.sourceforge.net/DTD/sodipodi-0.dtd"
   xmlns:inkscape="http://www.inkscape.org/namespaces/inkscape"
   width="64px"
   height="64px"
   id="svg3072"
   version="1.1"
   inkscape:version="0.48.1 "
   sodipodi:docname="wp.svg">
  <defs
     id="defs3074" />
  <sodipodi:namedview
     id="base"
     pagecolor="#ffffff"
     bordercolor="#666666"
     borderopacity="1.0"
     inkscape:pageopacity="0.0"
     inkscape:pageshadow="2"
     inkscape:zoom="5.5"
     inkscape:cx="5.2272727"
     inkscape:cy="38.031851"
     inkscape:current-layer="layer1"
     showgrid="true"
     inkscape:document-units="px"
     inkscape:grid-bbox="true"
     inkscape:window-width="1365"
     inkscape:window-height="878"
     inkscape:window-x="-8"
     inkscape:window-y="-8"
     inkscape:window-maximized="1" />
  <metadata
     id="metadata3077">
    <rdf:RDF>
      <cc:Work
         rdf:about="">
        <dc:format>image/svg+xml</dc:format>
        <dc:type
           rdf:resource="http://purl.org/dc/dcmitype/StillImage" />
        <dc:title></dc:title>
      </cc:Work>
    </rdf:RDF>
  </metadata>
  <g
     id="layer1"
     inkscape:label="Layer 1"
     inkscape:groupmode="layer">
    <path
       style="fill:#000000"
       d="m 9.4699828,60.317769 c -0.927282,-0.622921 -1.66485,-1.607952 -2.0657854,-2.75888 -0.5484743,-1.574455 -0.5484743,-2.005639 0,-3.580093 0.8031364,-2.305491 2.8322316,-3.727715 5.3183516,-3.727715 l 1.810357,0 -0.474248,-1.256423 c -0.695626,-1.842924 0.469551,-4.077698 2.630477,-5.045173 l 1.650347,-0.738879 -1.373446,-4.101414 C 15.372214,34.34969 14.186348,32.405036 10.56018,28.604482 6.6726786,24.530028 6.2253109,23.246669 7.7950608,20.67222 8.9504768,18.777296 10.661636,18.422993 18.671453,18.420214 l 6.823691,-0.0024 -0.18072,-1.231321 c -0.258729,-1.762835 1.110109,-3.01311 3.298843,-3.01311 l 1.697772,0 0,-2.070079 0,-2.070078 -1.909994,0.215284 -1.909994,0.215284 0,-2.2034222 0,-2.2034224 1.943992,0.2915198 1.943993,0.2915194 -0.294413,-1.963285 -0.294413,-1.9632854 2.218602,0 2.218601,0 -0.294413,1.9632854 -0.294412,1.963285 1.943992,-0.2915194 1.943992,-0.2915198 0,2.2034224 0,2.2034222 -1.909994,-0.215284 -1.909994,-0.215284 0,2.070078 0,2.070079 1.697773,0 c 2.169379,0 3.557295,1.252156 3.303631,2.980484 l -0.175931,1.198694 7.667786,0.138737 c 8.46517,0.153165 9.062442,0.317668 10.251557,2.823546 0.985774,2.077365 0.498581,3.219245 -2.929175,6.865382 -3.531375,3.75636 -5.070028,6.382493 -6.688803,11.416285 l -1.161345,3.611345 1.673206,0.749117 c 1.959174,0.87715 3.053856,2.944952 2.643975,4.99435 -0.254186,1.270935 -0.223512,1.299759 1.384771,1.301313 0.904595,8.49e-4 2.233004,0.360322 2.952019,0.798776 1.385472,0.844859 2.724908,3.16371 2.724908,4.717397 0,1.553687 -1.339436,3.872539 -2.724908,4.717397 -1.232561,0.751612 -2.510959,0.797282 -22.360579,0.798776 l -21.053278,0.0016 -1.4422082,-0.968834 z M 53.728101,58.461938 c 0.521301,-0.471773 0.776196,-1.298108 0.776196,-2.516341 0,-1.940172 -0.703077,-2.991084 -2.258007,-3.375112 -0.508925,-0.125695 -10.061038,-0.173729 -21.226918,-0.106752 -19.531702,0.117168 -20.324439,0.153029 -20.903824,0.945685 -0.8248702,1.128505 -0.7666452,4.02089 0.100226,4.978773 0.662504,0.732058 1.897555,0.776196 21.719289,0.776196 18.960763,0 21.092775,-0.06872 21.793038,-0.702449 z m -6.835877,-8.650232 c 1.135343,-0.607615 1.135343,-3.182508 0,-3.790124 -0.518538,-0.277509 -6.001507,-0.439375 -14.883412,-0.439375 -8.881907,0 -14.364876,0.161866 -14.883413,0.439375 -1.082492,0.579335 -1.135908,3.155005 -0.07821,3.771058 1.018882,0.593444 28.738709,0.611152 29.845033,0.01906 z m -2.9885,-7.440454 c 0.227667,-0.598804 0.413938,-1.139154 0.413938,-1.200775 0,-0.06162 -0.954997,-0.559335 -2.122215,-1.106031 -1.167219,-0.546695 -2.122216,-1.117224 -2.122216,-1.26784 0,-0.450482 4.964312,-2.681977 5.386289,-2.421179 0.214323,0.132458 0.612892,-0.350533 0.885711,-1.073313 l 0.496034,-1.314147 -8.970213,0.27936 c -4.933618,0.153647 -11.491424,0.279359 -14.572902,0.279359 l -5.602688,0 0.207549,1.085725 c 0.135667,0.709692 0.412738,1.006987 0.799991,0.858384 0.595846,-0.228647 5.24139,1.824234 5.24139,2.316188 0,0.144909 -0.936672,0.702184 -2.081493,1.23839 -2.007406,0.940217 -2.066357,1.018336 -1.656251,2.194769 l 0.425242,1.219849 11.428948,0 11.428948,0 0.413938,-1.088739 z m -14.33546,-2.208195 c -1.22558,-0.617686 -2.228327,-1.234773 -2.228327,-1.371305 0,-0.136532 1.075635,-0.775781 2.3903,-1.420553 l 2.3903,-1.172313 2.277566,1.190005 c 1.252662,0.654502 2.27802,1.293465 2.278575,1.419918 8.91e-4,0.200653 -4.528919,2.571097 -4.78338,2.503139 -0.05319,-0.0142 -1.099455,-0.531203 -2.325034,-1.148891 z m 18.942234,-8.905805 c 0.221492,-0.408527 1.656292,-2.175271 3.188438,-3.926099 2.20196,-2.516242 2.787781,-3.474594 2.79554,-4.573269 0.0078,-1.106031 -0.21257,-1.474498 -1.078918,-1.803884 -1.458556,-0.554543 -41.354934,-0.554543 -42.813493,0 -0.8690772,0.330423 -1.0887392,0.700267 -1.0887392,1.833102 0,1.170096 0.5586842,2.03718 3.1833232,4.940557 1.750828,1.936767 3.183324,3.690363 3.183324,3.896881 0,0.211094 7.054879,0.375487 16.113905,0.375487 14.910201,0 16.143989,-0.05548 16.51662,-0.742775 z M 36.107888,17.937909 c 1.020541,-0.846974 -0.03014,-1.329938 -3.333708,-1.532401 -4.548994,-0.27879 -7.1988,1.020502 -4.054803,1.98821 1.706166,0.52515 6.567921,0.225221 7.388511,-0.455809 z"
       id="path3265"
       inkscape:connector-curvature="0" />
    <path
       style="fill:#ffffff;fill-opacity:1;fill-rule:evenodd"
       d="M 11.726056,58.841868 C 10.347552,58.660266 9.8894601,58.183795 9.7096389,56.744555 9.4460082,54.634526 9.9027758,53.302991 11.003223,52.973594 c 0.873539,-0.261476 18.640862,-0.527191 30.351322,-0.453912 10.735544,0.06718 10.920986,0.07447 11.656799,0.458387 0.997118,0.520256 1.343201,1.281298 1.343201,2.953716 0,1.598007 -0.346323,2.426937 -1.151072,2.755107 -0.457248,0.186461 -4.68632,0.24144 -20.485291,0.266311 -10.95,0.01724 -20.396457,-0.03286 -20.992126,-0.111335 z"
       id="path3267"
       inkscape:connector-curvature="0" />
    <path
       style="fill:#ffffff;fill-opacity:1;fill-rule:evenodd"
       d="m 19.809091,49.998914 c -2.707319,-0.170899 -2.919882,-0.230366 -3.197374,-0.894498 -0.49792,-1.191688 -0.206966,-2.604128 0.615515,-2.988028 1.024038,-0.477979 27.889341,-0.552723 29.452777,-0.08194 0.545949,0.164396 0.947264,0.968217 0.947264,1.89734 0,1.064357 -0.405588,1.74769 -1.129869,1.903604 -0.606859,0.130636 -24.855613,0.279214 -26.688313,0.163525 z"
       id="path3269"
       inkscape:connector-curvature="0" />
    <path
       style="fill:#ffffff;fill-opacity:1;fill-rule:evenodd"
       d="m 20.562415,43.068149 c -0.348551,-0.657936 -0.52694,-1.624838 -0.356098,-1.930115 0.09379,-0.167588 0.885859,-0.663969 1.760161,-1.10307 1.951257,-0.97998 2.214462,-1.243145 1.627508,-1.627255 -0.972177,-0.636205 -3.736862,-1.808399 -4.456528,-1.889516 -0.901943,-0.101662 -1.069579,-0.257709 -1.236487,-1.151008 l -0.122478,-0.655508 6.606208,-0.120783 c 3.633414,-0.06643 10.107786,-0.210782 14.387492,-0.320783 4.279707,-0.11 7.824349,-0.156935 7.876983,-0.1043 0.05264,0.05264 -0.115927,0.543045 -0.374583,1.0898 -0.420244,0.88832 -0.542582,1.006152 -1.149711,1.107366 -0.778133,0.129721 -3.075895,1.105295 -4.318626,1.833584 -0.76818,0.450184 -0.818661,0.521109 -0.568025,0.798059 0.151294,0.167181 1.104631,0.712121 2.118525,1.21098 2.041769,1.004597 2.017968,0.961204 1.37078,2.498912 l -0.286961,0.681818 -11.3548,0 c -10.628668,0 -11.365578,-0.02035 -11.52336,-0.318181 z m 13.386068,-2.660877 c 1.073334,-0.538483 2.147597,-1.138036 2.387252,-1.332341 l 0.435736,-0.353281 -0.640415,-0.395797 c -0.352227,-0.217689 -1.401575,-0.797845 -2.331885,-1.289236 l -1.691472,-0.893439 -2.01294,1.008762 c -1.107118,0.554819 -2.199106,1.154753 -2.42664,1.333186 l -0.4137,0.324425 0.552309,0.393279 c 0.430868,0.306805 3.920874,2.140131 4.141755,2.175694 0.02667,0.0043 0.926666,-0.43277 2,-0.971252 z"
       id="path3271"
       inkscape:connector-curvature="0" />
    <path
       style="fill:#ffffff;fill-opacity:1;fill-rule:evenodd"
       d="m 18.644846,31.7578 c -2.62213,-0.10897 -2.719081,-0.127075 -3,-0.560221 -0.159665,-0.246187 -1.30952,-1.630483 -2.555233,-3.076213 -3.1061222,-3.604855 -3.4623403,-4.159364 -3.4623403,-5.38967 0,-1.36792 0.3076098,-1.633291 2.1192473,-1.828249 0.784414,-0.08441 9.894389,-0.15348 20.244389,-0.15348 10.35,0 19.459975,0.06907 20.244389,0.15348 1.811638,0.194958 2.119247,0.460329 2.119247,1.828249 0,0.822635 -0.104236,1.136623 -0.643212,1.93754 -0.532749,0.79166 -3.2219,4.1116 -5.189653,6.406974 -0.442109,0.51572 -0.573458,0.55575 -2.272727,0.692636 -2.068237,0.166608 -23.535931,0.158018 -27.604107,-0.01105 l 0,0 z"
       id="path3273"
       inkscape:connector-curvature="0" />
    <path
       style="fill:#ffffff;fill-opacity:1;fill-rule:evenodd"
       d="m 29.529334,18.479096 c -1.109296,-0.162977 -2.083879,-0.638045 -2.083879,-1.015803 0,-0.152535 0.306818,-0.416343 0.681818,-0.58624 0.557783,-0.252709 1.227571,-0.306504 3.681818,-0.295711 3.19743,0.01406 4.393379,0.240414 4.511509,0.853874 0.09444,0.490437 -0.924219,0.823016 -3.17438,1.036395 -2.155691,0.20442 -2.274778,0.204667 -3.616886,0.0075 z"
       id="path3275"
       inkscape:connector-curvature="0" />
  </g>
</svg>
