<?xml version="1.0" encoding="UTF-8" standalone="no"?>
<!-- Created with Inkscape (http://www.inkscape.org/) -->

<svg
   xmlns:dc="http://purl.org/dc/elements/1.1/"
   xmlns:cc="http://creativecommons.org/ns#"
   xmlns:rdf="http://www.w3.org/1999/02/22-rdf-syntax-ns#"
   xmlns:svg="http://www.w3.org/2000/svg"
   xmlns="http://www.w3.org/2000/svg"
   xmlns:sodipodi="http://sodipodi.sourceforge.net/DTD/sodipodi-0.dtd"
   xmlns:inkscape="http://www.inkscape.org/namespaces/inkscape"
   width="64px"
   height="64px"
   id="svg3072"
   version="1.1"
   inkscape:version="0.48.1 "
   sodipodi:docname="bq.svg">
  <defs
     id="defs3074" />
  <sodipodi:namedview
     id="base"
     pagecolor="#ffffff"
     bordercolor="#666666"
     borderopacity="1.0"
     inkscape:pageopacity="0.0"
     inkscape:pageshadow="2"
     inkscape:zoom="7.7781746"
     inkscape:cx="12.382339"
     inkscape:cy="28.264481"
     inkscape:current-layer="layer1"
     showgrid="true"
     inkscape:document-units="px"
     inkscape:grid-bbox="true"
     inkscape:window-width="1365"
     inkscape:window-height="878"
     inkscape:window-x="-8"
     inkscape:window-y="-8"
     inkscape:window-maximized="1" />
  <metadata
     id="metadata3077">
    <rdf:RDF>
      <cc:Work
         rdf:about="">
        <dc:format>image/svg+xml</dc:format>
        <dc:type
           rdf:resource="http://purl.org/dc/dcmitype/StillImage" />
        <dc:title></dc:title>
      </cc:Work>
    </rdf:RDF>
  </metadata>
  <g
     id="layer1"
     inkscape:label="Layer 1"
     inkscape:groupmode="layer">
    <path
       style="fill:#000000"
       d="M 9.3420113,60.381309 C 5.5484414,57.824822 6.5628712,51.42982 10.910678,50.492375 c 0.673222,-0.145155 2.014498,-0.5448 2.980614,-0.888094 l 1.756573,-0.624172 0.702877,-4.512925 c 0.759858,-4.878782 1.941305,-20.120634 1.9471,-25.119552 l 0.0036,-3.083349 -2.339092,0 -2.339092,0 0,-6.8046329 0,-6.8046322 4.678184,0 4.678184,0 0,3.4023163 0,3.4023159 2.339093,0 2.339092,0 0,-3.4023159 0,-3.4023163 4.252895,0 4.252894,0 0,3.4023163 0,3.4023159 2.339093,0 2.339092,0 0,-3.4023159 0,-3.4023163 4.678184,0 4.678184,0 0,6.8046322 0,6.8046329 -2.406364,0 -2.406369,0 0.276774,7.974178 c 0.294267,8.478157 0.705092,12.947798 1.840441,20.023355 0.782732,4.878032 1.036311,5.229508 4.298962,5.958561 0.998847,0.223196 2.262055,0.698023 2.807131,1.055169 1.124483,0.736793 2.394057,3.14471 2.394057,4.540663 0,1.556785 -1.342107,3.880261 -2.730341,4.726804 -1.23502,0.753111 -2.515966,0.798872 -22.405168,0.800369 l -21.095258,0.0016 -1.4299807,-0.963664 z M 53.673278,58.514675 c 0.522341,-0.472713 0.777744,-1.300697 0.777744,-2.521358 0,-1.944041 -0.704479,-2.99705 -2.26251,-3.381843 C 51.678573,52.485529 42.107412,52.437399 30.919267,52.504509 11.348618,52.62191 10.5543,52.657843 9.9737603,53.45208 c -0.826515,1.130755 -0.768173,4.028908 0.1004257,4.988701 0.663825,0.733518 1.901338,0.777744 21.762598,0.777744 18.998572,0 21.134835,-0.06886 21.836494,-0.70385 z m -27.291362,-10.778967 0,-2.551737 -3.771959,0 -3.77196,0 -0.26361,1.594836 c -0.603779,3.652854 -0.758623,3.508638 3.767279,3.508638 l 4.04025,0 0,-2.551737 z m 8.931079,0 0,-2.551737 -3.402315,0 -3.402316,0 0,2.551737 0,2.551737 3.402316,0 3.402315,0 0,-2.551737 z m 10.202266,1.594836 c -0.0026,-0.526296 -0.123305,-1.674578 -0.26829,-2.551737 l -0.263607,-1.594836 -3.771961,0 -3.77196,0 0,2.551737 0,2.551737 4.04025,0 c 3.907751,0 4.040097,-0.03139 4.035568,-0.956901 z M 21.703732,40.080496 c 0,-2.551737 0,-2.551737 -1.275869,-2.551737 -1.275868,0 -1.275868,0 -1.275868,2.551737 0,2.551738 0,2.551738 1.275868,2.551738 1.275869,0 1.275869,0 1.275869,-2.551738 z m 8.931079,0 0,-2.551737 -3.402316,0 -3.402316,0 0,2.551737 0,2.551738 3.402316,0 3.402316,0 0,-2.551738 z m 9.356369,0 0,-2.551737 -3.402316,0 -3.402316,0 0,2.551737 0,2.551738 3.402316,0 3.402316,0 0,-2.551738 z m 4.94624,1.594836 c -0.141043,-0.526296 -0.259057,-1.674577 -0.262251,-2.551737 -0.0054,-1.487223 -0.0919,-1.594836 -1.281673,-1.594836 -1.275869,0 -1.275869,0 -1.275869,2.551737 l 0,2.551738 1.538115,0 c 1.387541,0 1.51301,-0.09368 1.281678,-0.956902 z m -18.555504,-9.250047 0,-2.551737 -3.13651,0 -3.13651,0 -0.265806,1.32903 c -0.146193,0.730966 -0.265805,1.879248 -0.265805,2.551737 l 0,1.222707 3.402315,0 3.402316,0 0,-2.551737 z m 8.931079,0 0,-2.551737 -3.402315,0 -3.402316,0 0,2.551737 0,2.551737 3.402316,0 3.402315,0 0,-2.551737 z m 8.93108,0.672717 c 0,-3.119722 -0.118894,-3.224454 -3.660463,-3.224454 l -3.144169,0 0,2.551737 0,2.551737 3.402316,0 3.402316,0 0,-1.87902 z M 21.703732,24.770073 c 0,-1.984684 -0.141763,-2.551737 -0.637934,-2.551737 -0.470794,0 -0.637935,0.492306 -0.637935,1.87902 0,1.03346 -0.116165,2.181742 -0.258146,2.551737 -0.185059,0.482257 -0.0044,0.672718 0.637935,0.672718 0.811683,0 0.89608,-0.240336 0.89608,-2.551738 z m 8.931079,0 0,-2.551737 -3.402316,0 -3.402316,0 0,2.551737 0,2.551738 3.402316,0 3.402316,0 0,-2.551738 z m 9.356369,0 0,-2.551737 -3.402316,0 -3.402316,0 0,2.551737 0,2.551738 3.402316,0 3.402316,0 0,-2.551738 z m 3.660462,1.87902 c -0.141983,-0.369995 -0.258146,-1.518277 -0.258146,-2.551737 0,-1.386714 -0.167139,-1.87902 -0.637935,-1.87902 -0.496172,0 -0.637934,0.567053 -0.637934,2.551737 0,2.311402 0.0844,2.551738 0.896081,2.551738 0.642378,0 0.822995,-0.190461 0.637934,-0.672718 z m -0.258146,-9.746876 0,-2.764382 2.126447,0 2.126447,0 0,-4.6781849 0,-4.6781845 -2.126447,0 -2.126447,0 0,3.4023165 0,3.4023159 -4.678185,0 -4.678184,0 0,-3.4023159 0,-3.4023165 -2.126447,0 -2.126448,0 0,3.4023165 0,3.4023159 -4.678184,0 -4.678185,0 0,-3.4023159 0,-3.4023165 -2.126447,0 -2.126447,0 0,4.6781845 0,4.6781849 2.126447,0 2.126447,0 0,2.764382 0,2.764382 11.482817,0 11.482816,0 0,-2.764382 z"
       id="path3154"
       inkscape:connector-curvature="0" />
    <path
       style="fill:#ffffff;fill-opacity:1;fill-rule:evenodd"
       d="M 20.764768,59.091872 C 12.072488,59.013052 11.039929,58.963049 10.337083,58.586897 10.190021,58.508192 9.9449681,58.173938 9.7925202,57.84411 9.5643336,57.350417 9.5153423,57.005821 9.5153423,55.894491 c 0,-1.68787 0.2891874,-2.463518 1.0346017,-2.774972 0.955035,-0.399039 4.649849,-0.476444 23.392723,-0.490068 l 18.384777,-0.01336 0.514259,0.276759 c 1.112464,0.598696 1.512382,1.387785 1.521258,3.001645 0.0062,1.130703 -0.179956,1.944046 -0.541134,2.364053 -0.375383,0.436523 -1.00693,0.590799 -2.93629,0.717283 -2.424458,0.158942 -18.542127,0.221038 -30.120769,0.116045 z"
       id="path3167"
       inkscape:connector-curvature="0" />
    <path
       style="fill:#ffffff;fill-opacity:1;fill-rule:evenodd"
       d="m 37.478201,47.742193 0,-2.518586 3.719718,0 c 3.43125,0 3.724935,0.01745 3.786992,0.224988 0.130124,0.435181 0.464312,3.133663 0.464312,3.749201 0,0.422116 -0.06843,0.679492 -0.21245,0.79911 -0.166609,0.138375 -1.026573,0.18588 -3.985511,0.220161 l -3.773061,0.04371 0,-2.518587 z"
       id="path3169"
       inkscape:connector-curvature="0" />
    <path
       style="fill:#ffffff;fill-opacity:1;fill-rule:evenodd"
       d="m 28.607225,47.730622 0,-2.507015 3.342687,0 3.342687,0 0,2.507015 0,2.507015 -3.342687,0 -3.342687,0 0,-2.507015 z"
       id="path3171"
       inkscape:connector-curvature="0" />
    <path
       style="fill:#ffffff;fill-opacity:1;fill-rule:evenodd"
       d="m 19.099706,50.10686 c -0.870044,-0.204828 -0.922857,-0.536672 -0.503754,-3.165265 l 0.273917,-1.717988 3.711594,0 3.711595,0 0,2.507015 0,2.507015 -3.374828,-0.01316 c -1.856155,-0.0072 -3.574491,-0.06017 -3.818524,-0.117617 z"
       id="path3173"
       inkscape:connector-curvature="0" />
    <path
       style="fill:#ffffff;fill-opacity:1;fill-rule:evenodd"
       d="m 19.993379,42.54869 c -0.247487,-0.02164 -0.522295,-0.133938 -0.610683,-0.249561 -0.228717,-0.299191 -0.225137,-4.137895 0.0042,-4.451465 0.129381,-0.176939 0.354513,-0.225455 1.046196,-0.225455 0.484737,0 0.945703,0.0642 1.024369,0.142671 0.187605,0.187138 0.269516,3.935689 0.09597,4.392139 -0.136969,0.360254 -0.597304,0.47583 -1.560007,0.391671 z"
       id="path3175"
       inkscape:connector-curvature="0" />
    <path
       style="fill:#ffffff;fill-opacity:1;fill-rule:evenodd"
       d="m 23.850325,40.081012 0,-2.571297 3.342687,0 3.342686,0 0,2.571297 0,2.571297 -3.342686,0 -3.342687,0 0,-2.571297 z"
       id="path3177"
       inkscape:connector-curvature="0" />
    <path
       style="fill:#ffffff;fill-opacity:1;fill-rule:evenodd"
       d="m 33.235561,40.081012 0,-2.571297 3.342686,0 3.342687,0 0,2.571297 0,2.571297 -3.342687,0 -3.342686,0 0,-2.571297 z"
       id="path3179"
       inkscape:connector-curvature="0" />
    <path
       style="fill:#ffffff;fill-opacity:1;fill-rule:evenodd"
       d="m 42.15443,42.463112 c -0.140676,-0.366594 0.05314,-4.443903 0.220849,-4.645978 0.202019,-0.243418 1.828517,-0.247366 2.029724,-0.0049 0.07939,0.09566 0.175007,0.630812 0.21248,1.189225 0.03747,0.558414 0.133024,1.524304 0.212336,2.146424 0.08721,0.684095 0.09771,1.177621 0.02656,1.248772 -0.0647,0.06471 -0.679539,0.157143 -1.366298,0.205418 -1.122022,0.07887 -1.257476,0.06478 -1.335648,-0.138934 l 0,0 z"
       id="path3181"
       inkscape:connector-curvature="0" />
    <path
       style="fill:#ffffff;fill-opacity:1;fill-rule:evenodd"
       d="m 37.478201,32.420534 0,-2.517882 2.796286,0.04763 c 3.921415,0.0668 3.803122,-0.02383 3.86782,2.963236 l 0.04386,2.024897 -3.353982,0 -3.353982,0 0,-2.517883 z"
       id="path3183"
       inkscape:connector-curvature="0" />
    <path
       style="fill:#ffffff;fill-opacity:1;fill-rule:evenodd"
       d="m 28.607225,32.431402 0,-2.507015 3.342687,0 3.342687,0 0,2.507015 0,2.507015 -3.342687,0 -3.342687,0 0,-2.507015 z"
       id="path3185"
       inkscape:connector-curvature="0" />
    <path
       style="fill:#ffffff;fill-opacity:1;fill-rule:evenodd"
       d="m 19.607685,34.112048 c 0,-0.857755 0.169238,-2.346484 0.399323,-3.512695 l 0.133166,-0.674966 3.076442,0 3.076442,0 0,2.507015 0,2.507015 -3.342687,0 -3.342686,0 0,-0.826369 z"
       id="path3187"
       inkscape:connector-curvature="0" />
    <path
       style="fill:#ffffff;fill-opacity:1;fill-rule:evenodd"
       d="m 20.195203,27.110485 c -0.03876,-0.06272 -0.01264,-0.424311 0.05806,-0.803531 0.0707,-0.379219 0.177077,-1.378151 0.236395,-2.219847 0.08634,-1.22517 0.152659,-1.563122 0.33254,-1.694654 0.301582,-0.220522 0.567021,-0.09834 0.682925,0.314341 0.125733,0.447681 0.122943,3.711829 -0.0036,4.164178 -0.08879,0.317485 -0.15687,0.353553 -0.667378,0.353553 -0.312678,0 -0.600221,-0.05132 -0.638986,-0.11404 z"
       id="path3189"
       inkscape:connector-curvature="0" />
    <path
       style="fill:#ffffff;fill-opacity:1;fill-rule:evenodd"
       d="m 23.850325,24.71751 0,-2.507015 3.342687,0 3.342686,0 0,2.507015 0,2.507015 -3.342686,0 -3.342687,0 0,-2.507015 z"
       id="path3191"
       inkscape:connector-curvature="0" />
    <path
       style="fill:#ffffff;fill-opacity:1;fill-rule:evenodd"
       d="m 33.235561,24.71751 0,-2.507015 3.342686,0 3.342687,0 0,2.507015 0,2.507015 -3.342687,0 -3.342686,0 0,-2.507015 z"
       id="path3193"
       inkscape:connector-curvature="0" />
    <path
       style="fill:#ffffff;fill-opacity:1;fill-rule:evenodd"
       d="m 42.388877,27.006525 c -0.350509,-0.678258 -0.260139,-4.230506 0.117226,-4.607871 0.181046,-0.181046 0.226845,-0.17811 0.481727,0.03088 0.252573,0.207093 0.295796,0.423458 0.418534,2.095133 0.07528,1.025305 0.146277,2.037753 0.157771,2.249885 0.01977,0.364804 -0.0082,0.387814 -0.51724,0.424824 -0.414527,0.03014 -0.565673,-0.01415 -0.658018,-0.192847 z"
       id="path3195"
       inkscape:connector-curvature="0" />
    <path
       style="fill:#ffffff;fill-opacity:1;fill-rule:evenodd"
       d="m 20.507639,16.875053 0,-2.764145 -2.121321,0 -2.12132,0 0,-4.628335 0,-4.6283353 2.057038,0 2.057038,0 0,3.406969 0,3.4069693 4.692617,0 4.692618,0 0,-3.4069693 0,-3.406969 2.121321,0 2.12132,0 0,3.406969 0,3.4069693 4.692618,0 4.692617,0 0,-3.4069693 0,-3.406969 2.121321,0 2.12132,0 0,4.6283353 0,4.628335 -2.12132,0 -2.121321,0 0,2.764145 0,2.764145 -11.442273,0 -11.442273,0 0,-2.764145 z"
       id="path3197"
       inkscape:connector-curvature="0" />
  </g>
</svg>
