<?xml version="1.0" encoding="UTF-8" standalone="no"?>
<!-- Created with Inkscape (http://www.inkscape.org/) -->

<svg
   xmlns:dc="http://purl.org/dc/elements/1.1/"
   xmlns:cc="http://creativecommons.org/ns#"
   xmlns:rdf="http://www.w3.org/1999/02/22-rdf-syntax-ns#"
   xmlns:svg="http://www.w3.org/2000/svg"
   xmlns="http://www.w3.org/2000/svg"
   xmlns:sodipodi="http://sodipodi.sourceforge.net/DTD/sodipodi-0.dtd"
   xmlns:inkscape="http://www.inkscape.org/namespaces/inkscape"
   width="64px"
   height="64px"
   id="svg2985"
   version="1.1"
   inkscape:version="0.48.1 "
   sodipodi:docname="bk.svg">
  <defs
     id="defs2987" />
  <sodipodi:namedview
     id="base"
     pagecolor="#efefef"
     bordercolor="#666666"
     borderopacity="1.0"
     inkscape:pageopacity="0.0"
     inkscape:pageshadow="2"
     inkscape:zoom="5.5"
     inkscape:cx="1.8181818"
     inkscape:cy="32"
     inkscape:current-layer="layer1"
     showgrid="true"
     inkscape:document-units="px"
     inkscape:grid-bbox="true"
     inkscape:window-width="1365"
     inkscape:window-height="878"
     inkscape:window-x="-8"
     inkscape:window-y="-8"
     inkscape:window-maximized="1" />
  <metadata
     id="metadata2990">
    <rdf:RDF>
      <cc:Work
         rdf:about="">
        <dc:format>image/svg+xml</dc:format>
        <dc:type
           rdf:resource="http://purl.org/dc/dcmitype/StillImage" />
        <dc:title></dc:title>
      </cc:Work>
    </rdf:RDF>
  </metadata>
  <g
     id="layer1"
     inkscape:label="Layer 1"
     inkscape:groupmode="layer">
    <path
       style="fill:#000000"
       d="m 19.864842,57.764397 c -0.201778,-0.80395 0.08409,-3.53317 0.517748,-4.94297 0.462142,-1.50241 1.682666,-4.039485 2.409878,-5.009363 0.274238,-0.36575 1.904,-2.132051 3.621691,-3.925115 1.717691,-1.793062 3.351146,-3.631312 3.629902,-4.085 0.96687,-1.573627 1.704215,-3.868958 1.713802,-5.335025 l 0.0046,-0.71014 -0.9975,0.63541 c -0.548625,0.349474 -1.758703,0.944748 -2.689062,1.322829 -4.628425,1.88091 -7.447713,4.330373 -9.530216,8.280069 -0.496949,0.942517 -1.136926,1.937264 -1.422171,2.210545 -1.074098,1.029051 -2.831409,0.937718 -3.87878,-0.201596 -0.565104,-0.61471 -0.603482,-0.625818 -1.820909,-0.527067 -1.076707,0.08734 -1.372337,0.03566 -2.202438,-0.384982 C 7.946167,44.445762 6.438944,42.769738 5.900323,41.39893 5.54618,40.497623 5.469228,39.92296 5.459409,38.106209 l -0.01191,-2.200858 0.898176,-1.789142 c 0.493994,-0.984029 1.592287,-2.729644 2.44065,-3.879144 2.82235,-3.824184 3.653031,-5.603562 3.858415,-8.265 0.172502,-2.235348 0.773236,-3.454727 3.021541,-6.133173 L 16.385063,14.982595 15.992226,13.58483 C 15.453181,11.666834 15.044964,8.872654 15.043621,7.091761 15.042321,5.360086 14.862477,5.397015 17.4634,6.594863 c 2.279448,1.049794 4.577975,2.616353 6.386882,4.352977 0.873217,0.838324 1.629158,1.524225 1.679869,1.524225 0.05071,0 0.190228,-0.327189 0.310041,-0.727086 0.306443,-1.022814 1.522553,-2.810612 2.663382,-3.915425 0.933806,-0.904328 0.985949,-0.927943 1.473199,-0.667175 0.703325,0.376408 2.590861,2.476147 3.116345,3.466697 l 0.43679,0.823354 1.770142,0.223574 c 5.718704,0.722287 11.41506,4.057197 15.121253,8.852681 4.054115,5.245663 6.529221,11.495911 7.45606,18.828379 0.394103,3.117853 0.675138,9.140292 0.675138,14.467853 l 0,4.43715 -19.281381,0 -19.28138,0 -0.124906,-0.49767 z m 34.983696,-4.11068 c 0.224383,-3.89026 3.8e-4,-14.225433 -0.351125,-16.196653 C 53.529923,32.030619 51.528649,26.770237 48.968831,22.925091 45.995409,18.45866 41.149244,15.191395 35.610009,13.918622 l -1.1875,-0.272856 0.0019,1.455649 0.0019,1.45565 1.675197,0.627344 c 2.292774,0.858621 5.28341,2.535545 6.575136,3.686843 2.394441,2.13413 4.682237,6.56781 6.2618,12.135184 1.306712,4.605672 1.346306,5.030829 1.347835,14.473107 l 0.0013,8.502484 2.213369,2e-5 2.213367,2e-5 0.134294,-2.32835 z M 15.020967,43.331296 c 0.212321,-0.269923 0.563337,-0.964641 0.780035,-1.54382 0.361795,-0.966982 0.369835,-1.089926 0.09837,-1.50423 -0.500537,-0.763918 -1.217878,-0.472429 -1.827686,0.742672 -0.221134,0.440631 -0.571484,0.986248 -0.778554,1.212481 -0.448935,0.490483 -0.331059,1.058207 0.281056,1.353636 0.67828,0.327364 1.034702,0.263129 1.446778,-0.260739 z M 10.874999,40.01538 c 0.20213,-0.108176 0.36751,-0.37286 0.36751,-0.588185 0,-0.548004 0.551252,-1.420884 1.074021,-1.700663 0.831572,-0.445043 0.805856,-1.4695 -0.04664,-1.857923 -1.211022,-0.551778 -3.307385,1.571184 -3.307385,3.349352 0,0.295958 0.1026,0.640703 0.228,0.766103 0.280018,0.280018 1.188235,0.296904 1.68449,0.03132 z m 22.704765,-8.400815 c 1.255069,-1.487436 2.251306,-4.360812 2.136158,-6.161182 -0.0502,-0.784838 -0.132859,-0.948848 -0.587639,-1.165908 -0.363995,-0.17373 -0.690257,-0.199086 -1.045,-0.08121 -0.492498,0.163647 -0.521397,0.244407 -0.64034,1.789515 -0.129043,1.676292 -0.603406,2.938781 -1.606688,4.276108 -0.566504,0.755123 -0.576479,1.282665 -0.03147,1.664404 0.653028,0.457398 1.201443,0.357994 1.774979,-0.321727 z M 16.821491,25.86594 c 0.157368,-0.15737 0.337575,-0.448229 0.400458,-0.646359 0.100588,-0.316926 0.250927,-0.347847 1.250519,-0.257207 0.917114,0.08316 1.207483,0.0385 1.505959,-0.231616 0.55241,-0.499924 0.836084,-1.518786 0.606347,-2.177804 -0.175303,-0.50288 -0.145333,-0.566654 0.365809,-0.778376 0.645162,-0.267235 0.887954,-0.945886 0.580112,-1.621524 -0.649464,-1.425422 -4.251974,0.575135 -5.821536,3.232833 -0.760817,1.288272 -0.82771,1.845118 -0.28665,2.386178 0.451784,0.451784 1.004016,0.488839 1.398982,0.09387 z m 6.745305,-8.733819 c 0.484392,-0.258469 1.115838,-0.555603 1.403213,-0.660297 0.491119,-0.178922 0.5225,-0.259103 0.5225,-1.335057 0,-0.965116 -0.05216,-1.144048 -0.3325,-1.14053 -0.932942,0.01171 -3.8475,1.859856 -3.8475,2.439733 0,0.508371 0.554203,1.166095 0.982562,1.166095 0.215057,0 0.787333,-0.211475 1.271725,-0.469944 z"
       id="path3052"
       inkscape:connector-curvature="0" />
    <path
       style="fill:#efefef"
       d="m 50.290178,47.463636 c -8.1e-4,-9.415072 -0.06517,-10.18866 -1.175461,-14.128807 -1.998869,-7.093483 -4.610419,-11.577078 -7.984457,-13.707975 -1.4277,-0.901675 -3.640663,-2.005933 -5.339351,-2.664311 l -1.318182,-0.510902 0,-1.334911 c 0,-0.734202 0.06136,-1.333895 0.136364,-1.332653 0.427102,0.0071 3.432754,0.943545 4.633792,1.443751 5.321507,2.216287 8.951526,5.814457 11.758121,11.654959 2.257554,4.697953 3.362029,9.018195 3.646263,14.262668 0.21164,3.905001 0.248075,10.658709 0.07096,13.153887 l -0.118136,1.664294 -2.154591,0 -2.154593,0 -7.27e-4,-8.5 -4e-6,0 z"
       id="path3054"
       inkscape:connector-curvature="0" />
    <path
       style="fill:#efefef"
       d="m 31.967728,31.862417 c -0.54411,-0.381109 -0.509552,-0.752994 0.168914,-1.81773 0.7285,-1.143255 1.205939,-2.492134 1.359236,-3.840164 0.18507,-1.627433 0.321725,-1.87725 1.026895,-1.87725 0.839882,0 1.041197,0.280148 1.038705,1.445454 -0.004,1.847838 -1.026935,4.593277 -2.165772,5.812406 -0.591044,0.632714 -0.849013,0.682807 -1.427978,0.277284 l 0,0 z"
       id="path3056"
       inkscape:connector-curvature="0" />
    <path
       style="fill:#efefef"
       d="m 21.620069,16.936536 c -0.315378,-0.481328 -0.315077,-0.482085 0.457436,-1.14742 0.838851,-0.722472 2.52261,-1.643661 3.004297,-1.643661 0.242869,0 0.300016,0.192734 0.300016,1.01183 l 0,1.011831 -1.35172,0.624533 c -1.625252,0.750913 -1.997186,0.772964 -2.410029,0.142887 z"
       id="path3058"
       inkscape:connector-curvature="0" />
    <path
       style="fill:#efefef"
       d="m 15.500907,25.631138 c -0.397763,-0.439523 -0.379575,-0.799444 0.08692,-1.720199 0.595985,-1.176328 1.402656,-2.109485 2.560153,-2.961585 1.199985,-0.883379 2.142815,-1.252618 2.786175,-1.091145 0.82346,0.206675 0.751212,1.563236 -0.0976,1.832639 -0.30878,0.098 -0.36383,0.274972 -0.36383,1.169612 0,0.791133 -0.09402,1.173662 -0.376832,1.533202 -0.340227,0.432527 -0.49538,0.479065 -1.597163,0.479065 -1.163108,0 -1.235438,0.02558 -1.542537,0.545455 -0.373052,0.631527 -0.994225,0.722425 -1.455288,0.212956 z"
       id="path3060"
       inkscape:connector-curvature="0" />
    <path
       style="fill:#efefef"
       d="m 13.418182,43.381818 c -0.339594,-0.339593 -0.266659,-0.654448 0.4094,-1.767362 0.994115,-1.636489 1.706734,-2.048962 2.039908,-1.180724 0.151206,0.394038 -0.395062,2.092946 -0.865111,2.690516 -0.402904,0.512209 -1.199966,0.641801 -1.584197,0.25757 z"
       id="path3062"
       inkscape:connector-curvature="0" />
    <path
       style="fill:#efefef"
       d="m 9.2889093,39.844753 c -0.5913786,-0.591378 -0.031688,-2.124986 1.1725717,-3.212962 0.83941,-0.758357 1.58846,-0.872145 2.090364,-0.317548 0.395063,0.436541 0.250714,0.965135 -0.375632,1.375533 -0.255284,0.167268 -0.65528,0.736295 -0.888879,1.264504 -0.233599,0.528209 -0.560049,1.012309 -0.725446,1.075777 -0.507995,0.194937 -0.958286,0.129389 -1.2729787,-0.185304 l 0,0 z"
       id="path3064"
       inkscape:connector-curvature="0" />
  </g>
</svg>
