<?xml version="1.0" encoding="UTF-8" standalone="no"?>
<!-- Created with Inkscape (http://www.inkscape.org/) -->

<svg
   xmlns:dc="http://purl.org/dc/elements/1.1/"
   xmlns:cc="http://creativecommons.org/ns#"
   xmlns:rdf="http://www.w3.org/1999/02/22-rdf-syntax-ns#"
   xmlns:svg="http://www.w3.org/2000/svg"
   xmlns="http://www.w3.org/2000/svg"
   xmlns:sodipodi="http://sodipodi.sourceforge.net/DTD/sodipodi-0.dtd"
   xmlns:inkscape="http://www.inkscape.org/namespaces/inkscape"
   width="64px"
   height="64px"
   id="svg2985"
   version="1.1"
   inkscape:version="0.48.1 "
   sodipodi:docname="bb.svg">
  <defs
     id="defs2987" />
  <sodipodi:namedview
     id="base"
     pagecolor="#efefef"
     bordercolor="#666666"
     borderopacity="1.0"
     inkscape:pageopacity="0.0"
     inkscape:pageshadow="2"
     inkscape:zoom="5.5"
     inkscape:cx="1.8181818"
     inkscape:cy="32"
     inkscape:current-layer="layer1"
     showgrid="true"
     inkscape:document-units="px"
     inkscape:grid-bbox="true"
     inkscape:window-width="1365"
     inkscape:window-height="878"
     inkscape:window-x="-8"
     inkscape:window-y="-8"
     inkscape:window-maximized="1" />
  <metadata
     id="metadata2990">
    <rdf:RDF>
      <cc:Work
         rdf:about="">
        <dc:format>image/svg+xml</dc:format>
        <dc:type
           rdf:resource="http://purl.org/dc/dcmitype/StillImage" />
        <dc:title></dc:title>
      </cc:Work>
    </rdf:RDF>
  </metadata>
  <g
     id="layer1"
     inkscape:label="Layer 1"
     inkscape:groupmode="layer">
    <path
       style="fill:#000000"
       d="m 26.717842,58.606065 c -4.43889,-0.312045 -9.245831,-1.062706 -11.266324,-1.759374 -1.432692,-0.493992 -2.603676,-1.158393 -2.603676,-1.477289 0,-0.139251 0.42622,-1.869975 0.947155,-3.846049 l 0.947155,-3.592866 -0.453965,-2.453036 c -0.43588,-2.355305 -0.508458,-2.548653 -1.821711,-4.853036 l -1.367745,-2.399998 -1.3082243,-9.55343 c -0.719523,-5.254385 -1.309222,-9.616405 -1.310444,-9.693378 -0.0011,-0.07697 0.316725,-0.273214 0.706546,-0.436092 0.604758,-0.252684 0.737196,-0.257082 0.9025003,-0.02997 0.106554,0.146395 2.031983,3.370697 4.278733,7.165113 l 4.085,6.898942 0.16567,-8.571139 0.165669,-8.571138 0.499331,-0.07692 c 0.274632,-0.0423 0.02908,-0.0916 -0.54567,-0.109557 -3.260282,-0.101836 -5.15331,-3.261079 -3.6575,-6.1039398 0.738726,-1.403983 1.813034,-2.1376385 3.286233,-2.244201 1.531839,-0.1108023 2.616714,0.3154276 3.575621,1.4048038 1.974679,2.243355 1.135094,5.635397 -1.684354,6.805025 -0.15675,0.06503 -0.09549,0.08329 0.136127,0.04058 0.356857,-0.0658 0.477349,0.07161 0.789513,0.900393 2.635226,6.996401 6.124185,16.166204 6.167425,16.209444 0.03044,0.03044 0.805091,-3.939922 1.721445,-8.823026 0.916357,-4.883105 1.709795,-9.065014 1.763197,-9.293133 0.07813,-0.333749 -0.04801,-0.488786 -0.645767,-0.793741 -1.666112,-0.849987 -2.682319,-2.653239 -2.450076,-4.3476398 0.306481,-2.2360184 1.992661,-3.725607 4.220654,-3.7285691 3.717658,-0.00494 5.602927,4.2863147 3.083767,7.0192819 -0.420679,0.456382 -1.059984,0.9365 -1.420678,1.066929 -0.514723,0.186126 -0.636338,0.320115 -0.565303,0.622822 0.04978,0.212123 0.84017,4.380706 1.756428,9.263518 0.916258,4.88281 1.713701,8.830542 1.772096,8.772737 0.0584,-0.05781 1.531225,-3.881833 3.272957,-8.49784 3.000099,-7.950972 3.190116,-8.389435 3.61,-8.330004 0.285236,0.04037 0.138461,-0.09893 -0.411785,-0.39083 C 40.633078,13.51316 40.10859,10.047304 42.0521,8.15344 c 2.196503,-2.1403939 5.494002,-1.6037769 6.8218,1.1101436 0.433236,0.8855054 0.490601,1.1967374 0.401561,2.1786904 -0.196076,2.162347 -1.630844,3.554588 -3.902246,3.78658 -0.698704,0.07136 -1.045753,0.14189 -0.771218,0.156726 l 0.499153,0.02698 0.165847,8.578673 0.165845,8.578671 4.246139,-7.153671 c 2.335376,-3.93452 4.284747,-7.153673 4.331936,-7.153673 0.07511,0 1.231063,0.561216 1.344852,0.652924 0.02361,0.01903 -0.543506,4.39003 -1.260257,9.713336 l -1.303181,9.67874 -1.379098,2.34054 c -1.353085,2.296389 -1.387443,2.387397 -1.821541,4.824668 l -0.442446,2.484128 0.967989,3.629027 c 0.532392,1.995965 1.006041,3.728195 1.052553,3.849402 0.245527,0.639833 -4.129667,2.018387 -8.301946,2.615812 -4.052244,0.580237 -11.93633,0.851143 -16.15,0.554929 z m -9.341656,-4.419007 c 4.030996,-1.01145 9.296041,-1.429034 16.276656,-1.290943 5.387256,0.106571 8.566971,0.407648 12.255,1.160388 1.20175,0.245281 2.201403,0.43371 2.22145,0.418728 0.105545,-0.07887 -0.784354,-3.281245 -0.964438,-3.47061 -0.116607,-0.122617 -1.280762,-0.397816 -2.587012,-0.611553 -4.848766,-0.793385 -11.40189,-1.097106 -17.128737,-0.793873 -4.850486,0.256828 -10.209784,0.930637 -10.669127,1.341398 -0.114953,0.102794 -1.082136,3.287422 -1.082136,3.563131 0,0.09087 0.218442,0.04965 1.678344,-0.316666 z m 5.173476,-6.77194 c 3.195353,-0.420747 12.359511,-0.582432 16.074374,-0.283602 1.550343,0.124715 3.844806,0.406215 5.098806,0.625558 3.456283,0.604559 3.188354,0.68195 3.442975,-0.994515 0.142669,-0.939356 0.151981,-1.46581 0.02733,-1.544747 C 46.885824,45.0232 44.259363,44.495905 42.012844,44.177801 39.11735,43.767804 28.719612,43.599065 25.141025,43.904 c -2.766758,0.235756 -6.495683,0.790445 -7.803499,1.160793 l -0.735318,0.208229 0.129452,1.172268 c 0.237227,2.148235 0.07963,2.01292 1.887743,1.620825 0.861895,-0.186905 2.630513,-0.479853 3.930261,-0.650997 z m -4.847924,-5.388202 c 2.5139,-0.540351 4.610456,-0.749104 9.685827,-0.96441 7.027308,-0.298114 14.764397,0.09782 18.781261,0.961109 0.92729,0.199289 1.753982,0.320318 1.837093,0.268953 0.227516,-0.140613 1.559376,-2.575889 1.46201,-2.673254 -0.0465,-0.04651 -0.917141,-0.295758 -1.934747,-0.553896 -6.04363,-1.533093 -16.206195,-2.004097 -24.521377,-1.136493 -2.967726,0.309653 -7.123576,1.068937 -8.066956,1.473853 l -0.546998,0.234781 0.762613,1.3775 c 0.419437,0.757625 0.780063,1.3775 0.801391,1.3775 0.02133,0 0.804276,-0.16454 1.739883,-0.365643 z M 6.2952647,18.621171 c -1.005311,-0.240726 -1.88848,-0.858794 -2.520726,-1.764077 -0.713068,-1.021012 -0.844419,-3.1033 -0.267135,-4.234871 1.496484,-2.9333516 5.564243,-3.1653098 7.3804343,-0.420859 0.603648,0.912171 0.803928,2.583495 0.441272,3.682357 -0.651024,1.972617 -2.9673803,3.232273 -5.0338453,2.73745 z m 49.3672233,0.03651 c -3.760022,-0.940201 -4.431551,-6.022076 -1.039712,-7.868146 3.824379,-2.0814881 7.882083,2.316557 5.541868,6.006694 -0.918427,1.448209 -2.891815,2.264122 -4.502156,1.861452 z"
       id="path3243"
       inkscape:connector-curvature="0" />
    <path
       style="fill:#efefef"
       d="m 15.927273,54.15484 c 0,-0.09484 0.209318,-0.835041 0.465151,-1.644896 0.379757,-1.202143 0.550968,-1.505091 0.932606,-1.650189 0.598733,-0.227638 5.429325,-0.830637 8.593133,-1.072675 4.986034,-0.381441 11.589426,-0.197699 16.827292,0.468226 2.649507,0.33685 3.778012,0.569353 4.152198,0.855467 0.291931,0.223221 1.172656,2.952251 1.006414,3.118494 -0.0513,0.0513 -0.945574,-0.06913 -1.987278,-0.267628 -4.732289,-0.901729 -5.877876,-0.983402 -13.898607,-0.990882 -8.087699,-0.0075 -9.446674,0.0845 -13.615913,0.922231 -2.457553,0.493798 -2.474996,0.495643 -2.474996,0.261852 z"
       id="path3245"
       inkscape:connector-curvature="0" />
    <path
       style="fill:#efefef"
       d="m 17.038502,47.736364 c -0.21685,-0.581725 -0.357603,-2.313009 -0.196159,-2.412787 0.315127,-0.194759 2.987661,-0.666642 5.619681,-0.992254 3.967281,-0.490799 8.602243,-0.617834 14.010703,-0.384006 4.562206,0.197242 6.788706,0.446497 9.425408,1.055166 l 1.334496,0.308062 -0.118026,1.008364 c -0.182458,1.558829 -0.22948,1.644727 -0.900341,1.644727 -0.328677,0 -1.652709,-0.160651 -2.942293,-0.357002 -6.497815,-0.989354 -16.942052,-0.948683 -22.943301,0.08934 -3.159929,0.546568 -3.101744,0.545854 -3.290168,0.04039 z"
       id="path3247"
       inkscape:connector-curvature="0" />
    <path
       style="fill:#efefef"
       d="m 15.272489,40.989806 -0.745692,-1.340442 0.946866,-0.298473 c 1.235042,-0.389313 5.579074,-1.117521 8.45361,-1.417115 3.038225,-0.316653 13.037234,-0.318665 15.909091,-0.0032 3.193701,0.350818 5.38744,0.711651 7.588927,1.24825 l 1.952564,0.475926 -0.672642,1.245352 c -0.416404,0.770939 -0.787915,1.245352 -0.975233,1.245352 -0.166424,0 -1.274205,-0.161722 -2.461738,-0.359383 -5.060611,-0.842319 -13.356971,-1.11482 -20.25006,-0.665129 -3.770732,0.245995 -7.832285,0.763707 -8.755614,1.116047 -0.158966,0.06066 -0.505028,-0.375266 -0.990079,-1.247184 z"
       id="path3249"
       inkscape:connector-curvature="0" />
  </g>
</svg>
