<?xml version="1.0" encoding="UTF-8" standalone="no"?>
<!-- Created with Inkscape (http://www.inkscape.org/) -->

<svg
   xmlns:dc="http://purl.org/dc/elements/1.1/"
   xmlns:cc="http://creativecommons.org/ns#"
   xmlns:rdf="http://www.w3.org/1999/02/22-rdf-syntax-ns#"
   xmlns:svg="http://www.w3.org/2000/svg"
   xmlns="http://www.w3.org/2000/svg"
   xmlns:sodipodi="http://sodipodi.sourceforge.net/DTD/sodipodi-0.dtd"
   xmlns:inkscape="http://www.inkscape.org/namespaces/inkscape"
   width="64px"
   height="64px"
   id="svg2985"
   version="1.1"
   inkscape:version="0.48.1 "
   sodipodi:docname="New document 2">
  <defs
     id="defs2987" />
  <sodipodi:namedview
     id="base"
     pagecolor="#efefef"
     bordercolor="#666666"
     borderopacity="1.0"
     inkscape:pageopacity="0.0"
     inkscape:pageshadow="2"
     inkscape:zoom="5.5"
     inkscape:cx="1.8181818"
     inkscape:cy="32"
     inkscape:current-layer="layer1"
     showgrid="true"
     inkscape:document-units="px"
     inkscape:grid-bbox="true"
     inkscape:window-width="1365"
     inkscape:window-height="878"
     inkscape:window-x="-8"
     inkscape:window-y="-8"
     inkscape:window-maximized="1" />
  <metadata
     id="metadata2990">
    <rdf:RDF>
      <cc:Work
         rdf:about="">
        <dc:format>image/svg+xml</dc:format>
        <dc:type
           rdf:resource="http://purl.org/dc/dcmitype/StillImage" />
        <dc:title></dc:title>
      </cc:Work>
    </rdf:RDF>
  </metadata>
  <g
     id="layer1"
     inkscape:label="Layer 1"
     inkscape:groupmode="layer">
    <path
       style="fill:#000000"
       d="m 26.023081,58.519039 c -6.627343,-0.477005 -12.973306,-1.960327 -13.42524,-3.13805 -0.05906,-0.153911 0.340689,-1.941897 0.888336,-3.973301 l 0.995721,-3.693459 -0.499409,-2.8351 c -0.274675,-1.559306 -0.499409,-2.884451 -0.499409,-2.94477 0,-0.06032 -0.595691,-0.495019 -1.323757,-0.966004 -1.925938,-1.245883 -5.1217128,-4.493728 -5.7736998,-5.86777 -1.23815,-2.609371 -1.584064,-5.710532 -0.886973,-7.951791 0.703195,-2.260882 2.757859,-4.776588 4.9958668,-6.116881 2.278499,-1.36454 5.823128,-1.728527 9.070253,-0.931397 1.633568,0.401022 5.954292,1.98631 6.382651,2.341815 0.179194,0.148717 0.23213,-0.12009 0.23213,-1.178728 0,-5.155952 6.279117,-7.791736 9.910657,-4.160195 1.158927,1.158926 1.708738,2.46233 1.711016,4.056204 9.5e-4,0.714085 0.06598,1.269835 0.144356,1.235 1.33768,-0.594523 4.522151,-1.765453 5.842898,-2.148434 6.184076,-1.793211 11.52216,0.338502 14.155535,5.652876 0.694382,1.401318 0.810413,1.817825 0.891887,3.201557 0.11973,2.033485 -0.279216,3.974572 -1.205558,5.865669 -0.547551,1.117806 -1.076623,1.798089 -2.454249,3.155679 -0.965922,0.951874 -2.361323,2.13295 -3.100891,2.624615 -0.739567,0.491663 -1.385562,0.9601 -1.435543,1.04097 -0.04998,0.08087 -0.31235,1.464793 -0.583045,3.075385 l -0.492174,2.928351 0.946279,3.515 c 0.520456,1.93325 0.973524,3.683237 1.006822,3.888861 0.121904,0.75281 -2.584306,1.814165 -6.347209,2.489328 -4.518821,0.810793 -13.835556,1.216882 -19.147251,0.83457 z M 36.66308,56.429527 c 4.913552,-0.2826 9.747855,-1.059419 11.904855,-1.912979 0.532192,-0.210598 0.52056,-0.22051 -0.789855,-0.673119 -1.66056,-0.573549 -5.236236,-1.301952 -7.98,-1.625609 -3.167974,-0.3737 -13.20118,-0.308157 -16.339999,0.106742 -3.484836,0.460636 -8.265,1.64259 -8.265,2.043621 0,0.188871 2.093487,0.811072 3.99,1.185858 4.595404,0.908138 11.179064,1.237881 17.479999,0.875486 z m -19.379999,-5.40957 c 1.883431,-0.507919 6.103995,-1.029851 10.07,-1.245298 6.393868,-0.347339 13.711842,0.06706 18.518501,1.048663 1.250425,0.255359 2.295826,0.441965 2.32311,0.414679 0.06502,-0.06502 -0.807578,-3.331023 -0.920007,-3.44345 -0.154937,-0.154937 -4.640155,-0.83314 -7.132803,-1.07854 -3.150664,-0.310179 -13.116939,-0.310179 -16.267603,0 -2.365811,0.232913 -6.97523,0.920966 -7.116563,1.062299 -0.05888,0.05888 -0.994635,3.332049 -0.994635,3.479134 0,0.111557 0.536563,0.02772 1.52,-0.237487 z m 1.995,-5.784671 c 3.777133,-0.659101 6.813061,-0.854499 13.11,-0.843785 6.320528,0.01075 9.807127,0.2678 13.529478,0.99744 l 1.749476,0.342925 0.09823,-0.490293 c 0.261879,-1.307113 0.690585,-4.055427 0.639979,-4.102716 -0.153153,-0.143112 -4.338054,-0.888356 -6.612164,-1.177491 -3.660811,-0.465441 -15.881505,-0.464352 -19.539594,0.0017 -2.754876,0.35101 -6.313861,1.027083 -6.531485,1.240735 -0.07484,0.07348 0.03203,1.06582 0.2375,2.205206 0.205469,1.139417 0.37358,2.152628 0.37358,2.251612 0,0.09898 0.192375,0.125831 0.4275,0.05966 0.235125,-0.06617 1.368,-0.284422 2.5175,-0.485007 z m -1.678705,-6.669717 c 2.574908,-0.545682 6.188231,-0.932018 9.991205,-1.068259 l 3.3725,-0.12082 -0.0015,-0.587605 c -0.0038,-1.41847 -0.410163,-3.93931 -0.837756,-5.196485 -1.515468,-4.455665 -4.013824,-7.130415 -8.019334,-8.585539 -5.617741,-2.040804 -10.361581,-1.30804 -12.8469678,1.984419 -1.173863,1.555047 -1.530503,2.722206 -1.538506,5.035 -0.01187,3.432276 0.828957,4.9628 4.2839148,7.797754 l 2.034831,1.669672 0.910169,-0.279558 c 0.500593,-0.153758 1.693751,-0.445617 2.651464,-0.648579 z M 51.67308,38.063428 c 1.935489,-1.562307 3.552649,-3.298761 3.985249,-4.279233 1.256863,-2.848636 0.846239,-6.598864 -0.974778,-8.902621 -2.717435,-3.437815 -8.3676,-4.000925 -14.005907,-1.395868 -2.82526,1.305352 -4.499827,3.044357 -6.02377,6.255574 -1.027098,2.164278 -1.386004,3.522774 -1.5355,5.812033 l -0.118984,1.822032 3.304345,0.12103 c 4.750076,0.173985 10.0404,0.865735 12.492833,1.633534 0.589332,0.184505 1.157012,0.278833 1.261512,0.209616 0.1045,-0.06922 0.83125,-0.643462 1.615,-1.276097 z M 32.406285,30.26378 c 0.172599,-0.600875 0.738284,-2.02578 1.257079,-3.166457 1.513466,-3.327671 2.049716,-4.861237 2.049716,-5.861779 0,-2.40427 -2.115355,-4.019149 -4.644375,-3.545549 -1.724956,0.323025 -2.603317,1.291001 -2.727341,3.005599 -0.09825,1.358339 0.316488,2.730895 1.786011,5.910686 0.555383,1.20175 1.187804,2.762125 1.405381,3.4675 0.217576,0.705375 0.43252,1.2825 0.477652,1.2825 0.04513,0 0.223275,-0.491625 0.395877,-1.0925 z m -1.443204,-17.045103 0,-1.987603 -1.655805,-0.0549 c -1.565341,-0.0519 -1.671122,-0.08225 -1.936197,-0.555504 -0.25136,-0.44877 -0.24668,-0.552056 0.04518,-0.9975001 0.308726,-0.471175 0.408941,-0.496893 1.936197,-0.496893 l 1.610621,0 0,-1.703315 c 0,-1.489561 0.04612,-1.727998 0.367509,-1.9 0.527237,-0.282169 1.079371,-0.242662 1.423919,0.101886 0.224198,0.224197 0.298572,0.697489 0.298572,1.9 l 0,1.601429 1.601428,0 c 1.738167,0 2.198571,0.215509 2.198571,1.0291231 0,0.802251 -0.547897,1.060877 -2.24746,1.060877 l -1.552539,0 0,1.995 0,1.995 -1.045,0 -1.045,0 0,-1.987603 z"
       id="path3004"
       inkscape:connector-curvature="0" />
    <path
       style="fill:#ffffff"
       d="m 26.563636,56.308872 c -4.048852,-0.23413 -9.850731,-1.197592 -10.812916,-1.795598 -0.419065,-0.260452 -0.155734,-0.383101 2.035793,-0.948193 4.401208,-1.134866 5.666086,-1.270238 12.800182,-1.36992 7.115903,-0.09943 9.346247,0.03022 13.079936,0.760321 2.55302,0.499228 4.806096,1.13659 4.806096,1.359572 0,0.161339 -2.104912,0.759763 -3.818182,1.085503 -4.837078,0.919665 -11.826206,1.270578 -18.090909,0.908315 l 0,0 z"
       id="path3006"
       inkscape:connector-curvature="0" />
    <path
       style="fill:#ffffff"
       d="m 15.931088,51.119453 c 0.0046,-0.186768 0.879834,-3.192283 0.948347,-3.256482 0.102712,-0.09625 4.87259,-0.800715 6.593292,-0.973772 5.479614,-0.551106 15.333377,-0.34833 20.522995,0.422334 1.687647,0.250617 3.104509,0.491728 3.148582,0.535801 0.196158,0.196158 0.922956,3.207211 0.774145,3.207211 -0.09148,0 -1.374651,-0.198044 -2.851482,-0.440098 -4.735671,-0.776181 -6.882665,-0.923927 -13.321512,-0.916722 -4.649427,0.0052 -6.73635,0.08312 -8.818182,0.329235 -2.538624,0.300118 -6.114614,0.908554 -6.731755,1.145373 -0.147535,0.05662 -0.266529,0.03282 -0.26443,-0.05288 z"
       id="path3008"
       inkscape:connector-curvature="0" />
    <path
       style="fill:#ffffff"
       d="m 16.385611,45.372727 c -0.120759,-0.362532 -0.660503,-3.994914 -0.602118,-4.052143 0.144447,-0.141588 2.508455,-0.648426 4.780143,-1.024851 2.418804,-0.400802 2.988733,-0.421789 11.454546,-0.421789 8.488111,0 9.029371,0.02007 11.454545,0.424666 2.546933,0.424913 4.612398,0.853182 4.74258,0.983364 0.08264,0.08264 -0.552031,4.097175 -0.665703,4.210847 -0.04335,0.04335 -1.22384,-0.115004 -2.623304,-0.351902 -3.88318,-0.657335 -8.239404,-0.876421 -15.085763,-0.758702 -5.90816,0.101586 -8.3202,0.29989 -11.523621,0.947405 -1.626985,0.328866 -1.834576,0.333499 -1.931305,0.0431 z"
       id="path3010"
       inkscape:connector-curvature="0" />
    <path
       style="fill:#ffffff"
       d="m 48.018182,38.859353 c -1.973883,-0.533802 -5.858921,-1.054964 -9.454546,-1.268289 -1.8,-0.106792 -3.766589,-0.234925 -4.370197,-0.28474 l -1.09747,-0.09057 0.138104,-1.580603 c 0.255794,-2.927553 0.889162,-4.874264 2.433165,-7.478545 1.623049,-2.737608 4.015617,-4.445585 7.805489,-5.572087 1.345088,-0.399814 2.024731,-0.490271 3.818182,-0.508182 2.599178,-0.02596 4.150576,0.373374 5.725689,1.473795 2.116418,1.478594 3.183402,3.689154 3.183402,6.595326 0,2.293996 -0.381871,3.438896 -1.666462,4.996264 -1.222098,1.481607 -4.346376,4.100749 -4.864773,4.078232 -0.207821,-0.009 -0.950583,-0.171296 -1.650583,-0.360598 z"
       id="path3012"
       inkscape:connector-curvature="0" />
    <path
       style="fill:#ffffff"
       d="M 12.836364,38.390815 C 9.2305616,35.310425 8.2549449,33.947692 7.9172643,31.519857 7.0721742,25.443885 11.437856,21.300073 17.833239,22.107827 c 3.08691,0.389884 6.171391,1.604168 8.031396,3.16176 2.785647,2.332737 4.566445,6.122322 4.905476,10.438981 l 0.115625,1.472204 -0.706503,0.116704 c -0.388578,0.06419 -1.328715,0.117604 -2.089193,0.118705 -4.181741,0.0061 -11.112292,0.954994 -13.799131,1.889399 -0.161478,0.05616 -0.754808,-0.316989 -1.454545,-0.914765 z"
       id="path3014"
       inkscape:connector-curvature="0" />
    <path
       style="fill:#ffffff"
       d="M 31.661032,30.098688 C 31.47561,29.57441 30.81309,27.959091 30.188765,26.509091 c -1.491607,-3.464267 -1.786499,-4.507186 -1.662162,-5.878403 0.118012,-1.30146 0.492886,-1.878252 1.593132,-2.451236 0.659027,-0.343208 1.028576,-0.409253 2.00945,-0.359126 1.532815,0.07833 2.484118,0.65863 3.072615,1.874302 0.627731,1.296719 0.452668,2.372409 -0.91829,5.642513 -0.626584,1.494572 -1.397117,3.391814 -1.712295,4.216092 l -0.573052,1.498689 -0.337131,-0.953234 0,0 z"
       id="path3016"
       inkscape:connector-curvature="0" />
  </g>
</svg>
