<?xml version="1.0" encoding="UTF-8" standalone="no"?>
<!-- Created with Inkscape (http://www.inkscape.org/) -->

<svg
   xmlns:dc="http://purl.org/dc/elements/1.1/"
   xmlns:cc="http://creativecommons.org/ns#"
   xmlns:rdf="http://www.w3.org/1999/02/22-rdf-syntax-ns#"
   xmlns:svg="http://www.w3.org/2000/svg"
   xmlns="http://www.w3.org/2000/svg"
   xmlns:sodipodi="http://sodipodi.sourceforge.net/DTD/sodipodi-0.dtd"
   xmlns:inkscape="http://www.inkscape.org/namespaces/inkscape"
   width="64px"
   height="64px"
   id="svg2985"
   version="1.1"
   inkscape:version="0.48.1 "
   sodipodi:docname="bn.svg">
  <defs
     id="defs2987" />
  <sodipodi:namedview
     id="base"
     pagecolor="#efefef"
     bordercolor="#666666"
     borderopacity="1.0"
     inkscape:pageopacity="0.0"
     inkscape:pageshadow="2"
     inkscape:zoom="5.5"
     inkscape:cx="1.8181818"
     inkscape:cy="32"
     inkscape:current-layer="layer1"
     showgrid="true"
     inkscape:document-units="px"
     inkscape:grid-bbox="true"
     inkscape:window-width="1365"
     inkscape:window-height="878"
     inkscape:window-x="-8"
     inkscape:window-y="-8"
     inkscape:window-maximized="1" />
  <metadata
     id="metadata2990">
    <rdf:RDF>
      <cc:Work
         rdf:about="">
        <dc:format>image/svg+xml</dc:format>
        <dc:type
           rdf:resource="http://purl.org/dc/dcmitype/StillImage" />
        <dc:title></dc:title>
      </cc:Work>
    </rdf:RDF>
  </metadata>
  <g
     id="layer1"
     inkscape:label="Layer 1"
     inkscape:groupmode="layer">
    <path
       style="fill:#000000"
       d="m 19.864833,57.764395 c -0.201778,-0.803945 0.08409,-3.533168 0.517748,-4.942962 0.462143,-1.502414 1.682666,-4.039489 2.409878,-5.009367 0.274239,-0.36575 1.904,-2.132051 3.621691,-3.925115 1.717691,-1.793063 3.351146,-3.631313 3.629902,-4.085 0.96687,-1.573628 1.704215,-3.868959 1.713802,-5.335025 l 0.0047,-0.710141 -0.9975,0.63541 c -0.548625,0.349474 -1.758702,0.944748 -2.689062,1.322829 -4.628425,1.880911 -7.447713,4.330374 -9.530216,8.280069 -0.496949,0.942518 -1.136926,1.937265 -1.422171,2.210546 -1.074098,1.029051 -2.831409,0.937718 -3.878779,-0.201596 -0.565104,-0.614711 -0.603484,-0.625818 -1.820909,-0.527068 -1.076707,0.08734 -1.372338,0.03566 -2.202438,-0.384982 C 7.946168,44.445764 6.438946,42.769739 5.900324,41.398931 5.546181,40.497624 5.469229,39.922962 5.45941,38.10621 L 5.4475,35.905353 6.345676,34.11621 c 0.493994,-0.984029 1.592287,-2.729644 2.44065,-3.879144 2.82235,-3.824183 3.653032,-5.603562 3.858416,-8.265 0.172501,-2.235348 0.773235,-3.454727 3.02154,-6.133173 l 0.718783,-0.856297 -0.392838,-1.397765 C 15.45318,11.666835 15.044963,8.8726546 15.04362,7.0917616 15.04232,5.3600864 14.862476,5.3970167 17.463399,6.5948641 c 2.279448,1.0497941 4.577975,2.6163531 6.386882,4.3529769 0.873217,0.838324 1.629159,1.524225 1.67987,1.524225 0.05071,0 0.190228,-0.327189 0.31004,-0.727086 0.306443,-1.022814 1.522553,-2.8106124 2.663382,-3.9154254 0.933806,-0.904328 0.98595,-0.9279431 1.473199,-0.6671757 0.703325,0.376409 2.590861,2.4761483 3.116346,3.4666981 l 0.436789,0.823354 1.770142,0.223574 c 5.718696,0.722287 11.415052,4.057198 15.121245,8.852681 4.054123,5.245664 6.529228,11.495911 7.456067,18.82838 0.394104,3.117852 0.675139,9.140292 0.675139,14.467856 l 0,4.437144 -19.281381,0 -19.28138,0 -0.124906,-0.497671 z M 54.84853,53.65372 C 55.072912,49.763459 54.84891,39.428285 54.497404,37.457066 53.529914,32.03062 51.528641,26.770238 48.968822,22.925092 46.001738,18.468182 41.146615,15.190429 35.637694,13.925084 l -1.159804,-0.266395 0.09123,1.744189 c 0.100268,1.916971 -0.0977,2.389188 -1.001623,2.389188 -0.769238,0 -1.045,-0.474616 -1.045,-1.798558 0,-2.054091 -0.765503,-3.948394 -2.348058,-5.810481 L 29.631386,9.5440483 29.08026,10.200557 c -0.822268,0.979498 -1.630082,2.77915 -1.872474,4.171509 -0.306501,1.760596 -0.360018,1.886418 -0.855253,2.010714 -0.621918,0.156092 -1.205018,-0.209608 -1.378237,-0.86438 L 24.8275,14.963506 23.241815,15.709739 c -1.729376,0.813855 -2.196472,0.793083 -2.422563,-0.107733 -0.186682,-0.743802 0.01915,-0.997087 1.339341,-1.648102 L 23.397716,13.342865 22.877608,12.79784 C 22.081912,11.964024 19.837423,10.297988 18.482379,9.5353572 L 17.26726,8.8514761 17.383707,9.9492708 c 0.175785,1.6571862 0.808767,3.9240722 1.574968,5.6403972 0.891929,1.997958 0.961862,2.40763 0.484715,2.839443 -0.565442,0.511718 -1.194932,0.325139 -1.737613,-0.515025 l -0.473448,-0.732979 -0.57748,0.668045 c -0.317613,0.367425 -0.895825,1.303572 -1.284914,2.080327 -0.592747,1.183326 -0.70823,1.609686 -0.71234,2.629934 -0.003,0.755307 -0.166507,1.686586 -0.430507,2.452653 -0.389967,1.131596 -2.579104,4.761696 -5.201786,8.625776 -1.192025,1.756247 -1.680781,3.171977 -1.658928,4.80525 0.02167,1.619755 0.482302,2.703736 1.588712,3.738652 1.039729,0.972546 1.551031,1.159911 2.785552,1.020762 1.042013,-0.117448 1.601485,-0.603829 2.38456,-2.073025 0.317139,-0.595016 0.696021,-1.127665 0.84196,-1.183668 0.363804,-0.139604 0.782627,0.04483 0.92107,0.405603 0.162036,0.422259 -0.415437,2.083141 -1.061387,3.052674 -0.78219,1.174024 -0.656357,1.937976 0.319211,1.937976 0.535733,0 0.807281,-0.341081 1.845448,-2.317989 1.304518,-2.484104 2.102125,-3.591283 3.638476,-5.050667 1.87047,-1.776762 3.395606,-2.78145 5.902734,-3.888436 2.824665,-1.247188 3.449739,-1.636227 4.624176,-2.878021 1.427951,-1.509846 2.157116,-3.162284 2.298601,-5.209101 0.108042,-1.563006 0.130752,-1.626679 0.6406,-1.795984 0.395825,-0.13144 0.646363,-0.09836 0.9975,0.131715 0.408823,0.267872 0.468913,0.447652 0.468913,1.402943 0,1.465409 -0.42998,3.084428 -1.235164,4.65082 -0.603552,1.174136 -0.64664,1.362268 -0.478689,2.09 0.492497,2.134 0.0163,5.053138 -1.234989,7.570493 -0.608274,1.223735 -1.131167,1.828165 -4.169136,4.819227 -1.910497,1.881 -3.729517,3.80475 -4.042267,4.275 -1.347925,2.026737 -2.1307,4.236477 -2.136947,6.0325 l -0.0028,0.8075 16.225869,0 16.225867,0 0.134294,-2.328346 z M 9.432007,39.324429 c -0.905206,-0.905205 0.929898,-4.242363 2.332875,-4.242363 0.449795,0 0.997618,0.570391 0.997618,1.038713 0,0.189086 -0.342,0.714818 -0.76,1.168294 -0.458244,0.497135 -0.76,1.010508 -0.76,1.292973 0,0.498361 -0.619246,1.06002 -1.168705,1.06002 -0.178283,0 -0.467089,-0.142937 -0.641788,-0.317637 z m 7.362769,-13.468136 c -0.556343,-0.389679 -0.536096,-1.012246 0.07194,-2.212153 0.64498,-1.272807 2.187197,-2.794208 3.485586,-3.438544 1.273006,-0.631739 1.976903,-0.658791 2.374423,-0.09125 0.447341,0.638672 0.358866,1.06494 -0.304815,1.468548 -0.565549,0.343931 -0.601575,0.433431 -0.6175,1.534089 -0.01455,1.006468 -0.0829,1.222327 -0.491912,1.553797 -0.396017,0.320943 -0.65873,0.368332 -1.579943,0.28501 -0.916311,-0.08288 -1.12397,-0.04606 -1.21638,0.215669 -0.178978,0.506903 -0.657631,0.980611 -0.990849,0.980611 -0.169552,0 -0.4983,-0.133099 -0.730552,-0.295773 z"
       id="path3088"
       inkscape:connector-curvature="0" />
    <path
       style="fill:#ffffff"
       d="m 22.385569,54.827273 c 0.181053,-1.578213 0.684672,-3.089408 1.542617,-4.628895 0.569067,-1.021125 1.556918,-2.157691 4.471159,-5.144263 3.321977,-3.404428 3.808399,-3.980224 4.345424,-5.143833 1.016155,-2.201775 1.25678,-3.375533 1.274993,-6.219373 0.01414,-2.208124 0.06662,-2.641834 0.395967,-3.272727 1.04022,-1.992604 1.545106,-5.53492 0.868882,-6.096137 -0.305446,-0.253496 -1.319889,-0.287228 -1.5542,-0.05168 -0.08087,0.0813 -0.266029,0.948661 -0.411462,1.927473 -0.335571,2.258492 -0.932745,3.475221 -2.482585,5.058201 -1.057288,1.079896 -1.497935,1.361185 -4.181819,2.669485 -3.300728,1.608993 -4.171595,2.190688 -6.152251,4.1094 -1.501172,1.454224 -2.235834,2.4674 -3.7307,5.14503 -1.010098,1.809303 -1.393538,2.183092 -2.000525,1.95017 -0.45018,-0.17275 -0.364828,-0.671954 0.357086,-2.088507 0.735139,-1.442502 0.967749,-2.564807 0.618743,-2.985333 -0.417719,-0.503321 -0.887414,-0.31108 -1.439493,0.58917 -0.858173,1.399381 -1.353582,2.009947 -1.797778,2.215667 -0.591939,0.274143 -1.966627,0.2397 -2.5459288,-0.06379 C 9.4218975,42.513487 8.5173097,41.587925 8.0639321,40.853518 7.3555192,39.705991 7.3444522,37.333116 8.0397381,35.666122 c 0.1611498,-0.386367 1.3624052,-2.379758 2.6694559,-4.429758 3.243863,-5.087727 3.717614,-6.056202 3.960339,-8.096008 0.230622,-1.938099 0.636249,-3.051563 1.670578,-4.585811 0.709001,-1.05168 1.041707,-1.365028 1.041707,-0.981095 0,0.386252 0.922304,1.117459 1.4095,1.117459 1.202787,0 1.229126,-0.720272 0.129206,-3.533313 -0.77713,-1.987508 -1.620541,-5.2871731 -1.501679,-5.8749961 0.0665,-0.3288958 3.391788,1.8255391 4.840036,3.1358351 l 0.967971,0.875769 -1.198056,0.632449 c -1.292697,0.682409 -1.586309,1.154218 -1.219406,1.959482 0.282255,0.619482 1.085955,0.569408 2.658889,-0.165662 l 1.26828,-0.592696 0.277175,0.540677 c 0.381202,0.743602 0.780886,0.958093 1.384035,0.742746 0.434615,-0.155174 0.533916,-0.358866 0.882966,-1.8112 0.45345,-1.886728 1.103554,-3.369067 1.86828,-4.259971 L 29.6843,9.7164212 30.434053,10.709463 c 1.0376,1.374291 1.622687,2.741285 1.85974,4.345082 0.110856,0.75 0.241776,1.633244 0.290934,1.962765 0.104424,0.699974 0.7174,1.036752 1.408658,0.773936 0.583351,-0.22179 0.66116,-0.504259 0.66116,-2.400187 0,-1.469362 0.03202,-1.6246 0.318182,-1.542853 0.175,0.04999 0.85,0.233195 1.5,0.407119 3.737544,1.000074 7.849068,3.463395 10.369926,6.212894 3.105598,3.387276 5.815447,9.120312 7.152376,15.131781 0.332482,1.494991 0.518373,3.075469 0.652238,5.545455 0.21164,3.905001 0.248075,10.658709 0.07096,13.153887 l -0.118136,1.664294 -16.172444,0 -16.172444,0 0.130364,-1.136363 0,0 z M 10.539179,39.609298 c 0.286496,-0.108925 0.591113,-0.483027 0.826376,-1.01488 0.20494,-0.463298 0.578825,-1.087425 0.830857,-1.386947 0.637541,-0.757675 0.757941,-1.357553 0.360594,-1.796615 -0.472291,-0.521876 -1.240863,-0.447176 -1.968024,0.19128 -1.2719111,1.116753 -1.8256873,3.307728 -0.98489,3.896646 0.477975,0.334785 0.3766978,0.322816 0.935087,0.110516 l 0,0 z m 7.497238,-13.602991 c 0.11003,-0.07347 0.297,-0.317671 0.415488,-0.542671 0.188907,-0.358717 0.357691,-0.409091 1.370713,-0.409091 1.583602,0 1.887049,-0.271514 2.07506,-1.8567 0.120294,-1.014233 0.227138,-1.285152 0.632621,-1.604106 0.584508,-0.459774 0.634796,-1.119553 0.124246,-1.630103 -0.499988,-0.499988 -1.027765,-0.457022 -2.320378,0.188905 -1.791786,0.895366 -3.65402,3.092181 -3.972931,4.686731 -0.178184,0.890921 0.931213,1.663796 1.675181,1.167035 z"
       id="path3090"
       inkscape:connector-curvature="0" />
  </g>
</svg>
