<?xml version="1.0" encoding="UTF-8" standalone="no"?>
<!-- Created with Inkscape (http://www.inkscape.org/) -->

<svg
   xmlns:dc="http://purl.org/dc/elements/1.1/"
   xmlns:cc="http://creativecommons.org/ns#"
   xmlns:rdf="http://www.w3.org/1999/02/22-rdf-syntax-ns#"
   xmlns:svg="http://www.w3.org/2000/svg"
   xmlns="http://www.w3.org/2000/svg"
   xmlns:sodipodi="http://sodipodi.sourceforge.net/DTD/sodipodi-0.dtd"
   xmlns:inkscape="http://www.inkscape.org/namespaces/inkscape"
   width="64px"
   height="64px"
   id="svg2985"
   version="1.1"
   inkscape:version="0.48.1 "
   sodipodi:docname="wp.svg">
  <defs
     id="defs2987" />
  <sodipodi:namedview
     id="base"
     pagecolor="#efefef"
     bordercolor="#666666"
     borderopacity="1.0"
     inkscape:pageopacity="0.0"
     inkscape:pageshadow="2"
     inkscape:zoom="5.5"
     inkscape:cx="1.8181818"
     inkscape:cy="32"
     inkscape:current-layer="layer1"
     showgrid="true"
     inkscape:document-units="px"
     inkscape:grid-bbox="true"
     inkscape:window-width="1365"
     inkscape:window-height="878"
     inkscape:window-x="-8"
     inkscape:window-y="-8"
     inkscape:window-maximized="1" />
  <metadata
     id="metadata2990">
    <rdf:RDF>
      <cc:Work
         rdf:about="">
        <dc:format>image/svg+xml</dc:format>
        <dc:type
           rdf:resource="http://purl.org/dc/dcmitype/StillImage" />
        <dc:title></dc:title>
      </cc:Work>
    </rdf:RDF>
  </metadata>
  <g
     id="layer1"
     inkscape:label="Layer 1"
     inkscape:groupmode="layer">
    <path
       style="fill:#000000"
       d="m 26.717842,58.701063 c -4.43889,-0.312045 -9.245831,-1.062706 -11.266324,-1.759373 -1.432692,-0.493993 -2.603676,-1.158394 -2.603676,-1.47729 0,-0.139251 0.42622,-1.869975 0.947155,-3.846049 l 0.947155,-3.592866 -0.453965,-2.453036 c -0.43588,-2.355305 -0.508458,-2.548653 -1.821711,-4.853035 L 11.098731,38.319415 9.7905067,28.765985 C 9.0709837,23.5116 8.4812847,19.14958 8.4800627,19.072607 c -0.0011,-0.07697 0.316725,-0.273214 0.706546,-0.436092 0.604758,-0.252684 0.737196,-0.257082 0.9025003,-0.02997 0.106554,0.146396 2.031983,3.370697 4.278733,7.165113 l 4.085,6.898942 0.16567,-8.571139 0.165669,-8.571138 0.499331,-0.07692 c 0.274633,-0.0423 0.02908,-0.0916 -0.54567,-0.109557 -3.336648,-0.104221 -5.132222,-3.281593 -3.59492,-6.36142 1.183124,-2.3702642 4.367206,-2.9782338 6.373247,-1.2169084 1.50505,1.3214519 1.949149,3.8314504 0.972705,5.4976264 -0.442121,0.754422 -1.420334,1.606078 -2.231032,1.94239 -0.15675,0.06503 -0.09549,0.08329 0.136128,0.04058 0.356856,-0.0658 0.477348,0.07161 0.789512,0.900393 2.635226,6.996401 6.124185,16.166204 6.167425,16.209444 0.03044,0.03044 0.805091,-3.939922 1.721445,-8.823026 0.916357,-4.883104 1.709795,-9.065014 1.763197,-9.293133 0.07813,-0.333748 -0.048,-0.488786 -0.645767,-0.793741 -1.688195,-0.861253 -2.6703,-2.63174 -2.457918,-4.4310034 0.271795,-2.3025875 1.958251,-3.8321863 4.228496,-3.8352054 3.745208,-0.00498 5.643331,4.4324826 3.083767,7.2092818 -0.420679,0.456382 -1.059984,0.9365 -1.420678,1.066929 -0.514723,0.186126 -0.636338,0.320115 -0.565303,0.622822 0.04978,0.212123 0.84017,4.380706 1.756428,9.263518 0.916258,4.88281 1.713701,8.830542 1.772096,8.772737 0.0584,-0.05781 1.531225,-3.881833 3.272957,-8.49784 3.000098,-7.950972 3.190115,-8.389435 3.61,-8.330004 0.285236,0.04037 0.138461,-0.09893 -0.411785,-0.39083 -0.514172,-0.272756 -1.091719,-0.803439 -1.448834,-1.331268 -1.939976,-2.86736 0.05645,-6.7768455 3.468132,-6.7914584 1.860274,-0.00796 3.303659,1.0255335 3.943111,2.8233722 1.003711,2.8219592 -0.652074,5.4228612 -3.647036,5.7287542 -0.698704,0.07136 -1.045753,0.14189 -0.771218,0.156726 l 0.499153,0.02698 0.165847,8.578673 0.165845,8.578671 4.246139,-7.153671 c 2.335376,-3.93452 4.284747,-7.153673 4.331936,-7.153673 0.07511,0 1.231063,0.561216 1.344852,0.652924 0.02361,0.01903 -0.543506,4.39003 -1.260257,9.713336 l -1.303181,9.67874 -1.379098,2.34054 C 50.060148,43.039491 50.02579,43.1305 49.591692,45.56777 l -0.442446,2.484129 0.967989,3.629026 c 0.532392,1.995965 1.006041,3.728195 1.052553,3.849402 0.245527,0.639833 -4.129667,2.018387 -8.301946,2.615812 -4.052244,0.580237 -11.93633,0.851143 -16.15,0.554929 z m 14.435759,-2.426919 c 2.677532,-0.352589 5.123763,-0.864259 6.627702,-1.38629 l 1.018463,-0.353518 -1.968463,-0.610202 C 40.726578,52.031736 29.601776,51.610518 21.397842,52.96115 c -2.417526,0.398002 -5.89,1.384636 -5.89,1.673525 0,0.42402 5.685454,1.584199 9.31,1.89981 3.140035,0.273422 13.541207,0.107658 16.335759,-0.260341 z M 17.827985,51.240985 c 7.336286,-1.707641 21.899816,-1.667539 28.639381,0.07886 0.655882,0.169957 1.229283,0.272242 1.274223,0.227301 0.04494,-0.04494 -0.103534,-0.820304 -0.329946,-1.723032 -0.336275,-1.340771 -0.485556,-1.65802 -0.815229,-1.732492 -4.091352,-0.924232 -6.822046,-1.135866 -14.653572,-1.135674 -4.679854,1.16e-4 -7.855037,0.08363 -9.025,0.237392 -2.80291,0.36836 -5.645058,0.841626 -5.834195,0.971491 -0.143416,0.09847 -1.005805,2.947724 -1.005805,3.323084 0,0.162914 -0.02693,0.166714 1.750143,-0.246927 z m 0.471975,-5.416252 c 3.490937,-0.734341 6.658326,-0.954382 13.737882,-0.954382 7.079556,0 10.246945,0.220041 13.737882,0.954382 0.713328,0.150054 1.364342,0.272824 1.446696,0.272824 0.123342,0 0.585422,-2.217064 0.585422,-2.808865 0,-0.483618 -6.149732,-1.324446 -11.463737,-1.567388 -6.584304,-0.301018 -13.298864,0.06688 -18.145497,0.994227 l -2.154234,0.412186 0.101656,0.50828 c 0.05591,0.279553 0.159956,0.947768 0.231212,1.48492 0.14655,1.104748 0.09918,1.087408 1.922718,0.703816 z m -0.607118,-5.145001 c 4.206935,-0.867168 7.395638,-1.113014 14.345,-1.105986 6.942064,0.007 9.857905,0.235062 14.170392,1.108243 1.325746,0.268434 2.453636,0.444874 2.506421,0.39209 0.130137,-0.130139 1.908136,-3.233557 1.874723,-3.272247 -0.01459,-0.01689 -0.625036,0.104018 -1.356536,0.268702 -2.645066,0.595491 -5.457982,-0.251159 -7.406263,-2.229182 l -0.911401,-0.925316 -0.713144,0.450188 c -2.475586,1.562767 -5.839857,1.284488 -7.660677,-0.633663 l -0.541486,-0.570429 -0.978514,0.745839 c -1.159853,0.884059 -2.443622,1.309586 -3.950873,1.309586 -1.154706,0 -2.773764,-0.506067 -3.556595,-1.11168 -0.447748,-0.346385 -0.451383,-0.344888 -1.353706,0.557435 -1.116634,1.116634 -2.77521,1.974279 -4.385538,2.267745 -1.238795,0.22576 -3.031608,0.129744 -3.925872,-0.210256 -0.265998,-0.101131 -0.520915,-0.146592 -0.566482,-0.101027 -0.0953,0.09531 1.886836,3.539797 2.033567,3.533856 0.05334,-0.0022 1.122984,-0.215412 2.376984,-0.473898 z m 32.085563,-5.039349 c 0.56915,-0.212946 1.1238,-0.494393 1.232556,-0.625436 0.208307,-0.250994 1.793129,-9.886257 1.697483,-10.320198 -0.03058,-0.138742 -1.531607,2.275218 -3.335615,5.364352 -1.804007,3.089136 -3.231087,5.695776 -3.171287,5.792533 0.202748,0.328053 2.49771,0.192512 3.576863,-0.211251 z m -32.135683,-0.08783 c -0.115081,-0.436255 -6.398031,-11.150514 -6.44897,-10.997373 -0.03062,0.09205 0.313846,2.429226 0.765481,5.193711 l 0.821156,5.02634 1.126226,0.534616 c 0.955859,0.453745 1.327421,0.52691 2.456227,0.483662 0.769588,-0.02948 1.308881,-0.131014 1.27988,-0.240956 z m 25.561813,-11.796795 -0.05169,-3.531799 -1.784564,4.909299 c -3.468812,9.542628 -3.306359,9.037074 -2.822089,8.782303 0.23466,-0.123452 0.668339,-0.425507 0.963732,-0.671232 0.957974,-0.796898 2.741052,-0.413009 3.393295,0.730561 0.214039,0.375271 0.256996,-0.07022 0.301319,-3.124833 0.02843,-1.959375 0.02843,-5.15181 0,-7.094299 z m -21.390638,9.108843 c 0.241419,-0.133967 0.738195,-0.246159 1.103945,-0.249311 0.625389,-0.0054 0.929568,0.137146 2.167123,1.015505 0.277605,0.19703 0.532427,0.32528 0.566272,0.285 0.04685,-0.05576 -4.4944,-12.622909 -4.901198,-13.563238 -0.04521,-0.1045 -0.08838,2.9735 -0.09594,6.84 -0.01372,7.012207 -0.01282,7.028591 0.353552,6.472812 0.202017,-0.306455 0.564828,-0.666799 0.80625,-0.800768 z m 12.771866,0.550456 c -0.04208,-0.182875 -0.630032,-3.529084 -1.306567,-7.436022 -0.676535,-3.906936 -1.259674,-7.133131 -1.295863,-7.169321 -0.06329,-0.06329 -2.62207,14.281257 -2.61094,14.636957 0.003,0.09576 0.327239,-0.174446 0.720537,-0.600464 1.156731,-1.252967 2.857395,-1.284541 3.608835,-0.067 0.25829,0.418498 0.780463,0.968352 0.919604,0.968352 0.02249,0 0.0065,-0.149625 -0.03561,-0.3325 z M 20.272457,12.672173 c 0.748802,-0.748802 0.795201,-2.184622 0.09684,-2.9965207 -0.399166,-0.464059 -0.594026,-0.5330951 -1.504693,-0.5330951 -0.843963,0 -1.140339,0.088492 -1.533542,0.4578869 -0.600973,0.5645849 -0.79278,1.4844249 -0.496643,2.3817269 0.271535,0.822759 0.945243,1.227459 2.060543,1.237779 0.661081,0.0061 0.930902,-0.10118 1.377499,-0.547777 z m 26.008996,0.273689 c 1.071974,-0.55434 1.226735,-2.449594 0.273174,-3.3454179 -0.393203,-0.3693944 -0.68958,-0.4578869 -1.533543,-0.4578869 -0.910666,0 -1.105527,0.069036 -1.504692,0.5330951 -0.698366,0.8118987 -0.651966,2.2477187 0.09683,2.9965207 0.640387,0.640388 1.740827,0.753264 2.668225,0.273689 z M 33.51415,11.077613 C 34.022175,10.569588 34.168694,9.5129158 33.880783,8.4335131 33.621285,7.4606338 31.888517,7.0120055 30.721431,7.61553 c -0.659158,0.340864 -0.773589,0.6190004 -0.773589,1.8802906 0,1.6047504 0.703262,2.2708364 2.254863,2.1356674 0.569044,-0.04957 0.981221,-0.223651 1.311445,-0.553875 z M 6.2952647,18.716169 c -1.005311,-0.240726 -1.88848,-0.858794 -2.520726,-1.764077 -0.713068,-1.021012 -0.844419,-3.1033 -0.267135,-4.234871 1.496484,-2.9333515 5.564243,-3.1653098 7.3804343,-0.420859 0.603648,0.912171 0.803928,2.583495 0.441272,3.682357 -0.651024,1.972617 -2.9673803,3.232273 -5.0338453,2.73745 z m 2.588208,-2.579798 c 0.493263,-0.493263 0.667176,-1.773634 0.346175,-2.548599 -0.587142,-1.417486 -3.267064,-1.455389 -3.799968,-0.05375 -0.373694,0.982889 -0.223451,1.961147 0.396393,2.580991 0.534641,0.534642 0.657235,0.571678 1.62629,0.491317 0.71192,-0.05904 1.170913,-0.209767 1.43111,-0.469964 z m 46.7790153,2.616313 c -3.760022,-0.940201 -4.431551,-6.022076 -1.039712,-7.868146 3.824379,-2.081488 7.882083,2.316557 5.541868,6.006694 -0.918427,1.448209 -2.891815,2.264122 -4.502156,1.861452 z m 2.085345,-2.326162 c 0.678642,-0.361446 0.877587,-0.769001 0.883967,-1.810869 0.0048,-0.774852 -0.09248,-1.10145 -0.452507,-1.52 -0.399166,-0.46406 -0.594026,-0.533096 -1.504692,-0.533096 -0.832751,0 -1.141856,0.08992 -1.515362,0.440809 -0.914343,0.85898 -0.793606,2.805516 0.207727,3.348987 0.624874,0.339149 1.813808,0.376187 2.380867,0.07417 z"
       id="path3131"
       inkscape:connector-curvature="0" />
    <path
       style="fill:#ffffff"
       d="M 23.018182,56.229083 C 20.867138,55.93376 16.8676,55.129763 16.173949,54.853239 l -0.519404,-0.20706 0.636364,-0.270966 c 0.999877,-0.42575 3.792917,-1.093242 5.84893,-1.397801 5.99205,-0.887607 13.672606,-0.888146 19.787434,-0.0014 1.944671,0.282011 5.973747,1.262304 6.234889,1.516977 0.390214,0.380548 -5.158951,1.525882 -8.871253,1.831005 -3.161042,0.259814 -14.15608,0.195677 -16.272727,-0.09492 l 0,0 z"
       id="path3133"
       inkscape:connector-curvature="0" />
    <path
       style="fill:#ffffff"
       d="m 16.300072,51.1 c 0.005,-0.175 0.19157,-0.888054 0.414511,-1.584564 0.467666,-1.461072 0.06835,-1.275891 4.21269,-1.953623 2.391851,-0.391144 3.050152,-0.416145 10.909091,-0.414311 8.44294,0.002 9.794932,0.07875 13.272727,0.753725 0.8,0.155266 1.54456,0.355399 1.65458,0.44474 0.218584,0.177501 0.898847,2.852121 0.760576,2.990392 -0.04693,0.04693 -0.8873,-0.07968 -1.867482,-0.281357 C 41.548898,50.209776 39.662322,50.071135 32.2,50.066094 24.720472,50.061041 22.467045,50.221376 18.366026,51.050403 16.180155,51.49228 16.28885,51.489671 16.300072,51.1 z"
       id="path3135"
       inkscape:connector-curvature="0" />
    <path
       style="fill:#ffffff"
       d="m 16.571375,45.554545 c -0.346305,-1.572392 -0.399004,-2.303559 -0.172299,-2.390554 0.563012,-0.216048 6.390544,-1.014132 8.853233,-1.212455 5.60573,-0.451436 16.98216,0.04705 20.953095,0.918114 1.556454,0.341424 1.536572,0.327984 1.431718,0.967787 -0.164502,1.003764 -0.479767,2.126211 -0.597115,2.125918 -0.062,-1.56e-4 -0.971825,-0.160191 -2.021825,-0.355634 -3.154009,-0.587078 -5.75058,-0.733728 -13,-0.73422 -7.221898,-4.91e-4 -9.559645,0.131334 -12.946011,0.730021 -2.507884,0.443378 -2.391859,0.44565 -2.500796,-0.04898 z"
       id="path3137"
       inkscape:connector-curvature="0" />
    <path
       style="fill:#ffffff"
       d="m 14.776049,40.11078 c -0.789021,-1.238384 -1.26095,-2.159212 -1.158906,-2.261257 0.04418,-0.04418 0.438846,0.0023 0.877043,0.103361 2.601215,0.599699 5.378156,-0.174634 7.601614,-2.11966 l 0.945024,-0.826684 0.943224,0.473677 c 2.498271,1.254603 5.16036,1.012614 7.377973,-0.670674 l 0.616566,-0.468006 0.806975,0.710328 c 1.079894,0.950561 2.333465,1.365311 4.075873,1.348521 1.19972,-0.01156 1.574443,-0.101586 2.753498,-0.661516 l 1.364787,-0.648135 0.701049,0.718799 c 2.003527,2.054258 4.965178,2.950964 7.679591,2.325168 0.438196,-0.101024 0.827645,-0.152757 0.86544,-0.114962 0.0378,0.0378 -0.27982,0.693414 -0.705813,1.45693 -0.59446,1.065464 -0.867052,1.389124 -1.17248,1.392135 -0.218871,0.0022 -1.568871,-0.195374 -3,-0.438958 -1.431129,-0.243585 -3.583871,-0.540682 -4.783871,-0.660218 -2.8554,-0.284434 -14.626293,-0.287222 -17.363636,-0.0041 -1.879315,0.194368 -6.699123,0.976417 -7.495362,1.216177 -0.228475,0.0688 -0.480416,-0.167495 -0.928589,-0.870913 l 0,0 z"
       id="path3139"
       inkscape:connector-curvature="0" />
    <path
       style="fill:#ffffff"
       d="M 15.358295,35.596288 C 14.895358,35.51836 14.148508,35.29178 13.698629,35.092777 12.89046,34.735286 12.878147,34.716488 12.670283,33.522847 12.2177,30.923919 11.394676,25.344718 11.454979,25.284415 c 0.07524,-0.07524 2.548341,4.060382 4.619347,7.724676 1.37064,2.425114 1.437008,2.590909 1.037153,2.590909 -0.234956,0 -0.536157,0.03104 -0.669336,0.06899 -0.133179,0.03794 -0.62091,0.0052 -1.083848,-0.0727 l 0,0 z"
       id="path3141"
       inkscape:connector-curvature="0" />
    <path
       style="fill:#ffffff"
       d="m 20.799224,30.489687 c -0.02957,-1.739328 -0.02697,-4.594232 0.0058,-6.344232 l 0.05955,-3.181819 0.638478,1.727273 c 1.781626,4.819831 3.880067,10.786594 3.816038,10.850623 -0.03984,0.03984 -0.490095,-0.187191 -1.000563,-0.504516 -0.777564,-0.48336 -1.05009,-0.560595 -1.679969,-0.476111 -0.471696,0.06327 -0.944431,0.285354 -1.268696,0.59602 l -0.516853,0.495176 -0.05377,-3.162414 z"
       id="path3143"
       inkscape:connector-curvature="0" />
    <path
       style="fill:#ffffff"
       d="m 33.735443,32.666839 c -0.520786,-0.616163 -0.76425,-0.7563 -1.444534,-0.83147 -0.714162,-0.07891 -0.939538,-0.0087 -1.772727,0.552089 -0.525,0.353373 -0.954546,0.583901 -0.954546,0.512284 0,-0.47944 2.316272,-13.131165 2.423719,-13.238612 0.03707,-0.03707 0.161476,0.486277 0.276448,1.163004 0.114973,0.676726 0.658528,3.760444 1.207901,6.852705 0.549373,3.092262 0.974387,5.646767 0.944475,5.676679 -0.02991,0.02991 -0.336243,-0.279094 -0.680736,-0.686679 l 0,0 z"
       id="path3145"
       inkscape:connector-curvature="0" />
    <path
       style="fill:#ffffff"
       d="m 38.472727,33.65975 c 0,-0.173215 4.339219,-12.277756 4.43601,-12.374548 0.25696,-0.25696 0.375243,6.919597 0.172141,10.44428 l -0.117468,2.038573 -0.511759,-0.430616 c -0.981788,-0.82612 -2.279634,-0.757513 -3.569833,0.188709 -0.225,0.165013 -0.409091,0.225134 -0.409091,0.133602 z"
       id="path3147"
       inkscape:connector-curvature="0" />
    <path
       style="fill:#ffffff"
       d="m 46.472727,35.801883 c 0,-0.305784 0.741452,-1.734593 2.41636,-4.656428 2.369506,-4.133544 3.477628,-5.852739 3.546852,-5.502759 0.131255,0.663592 -1.314144,8.977017 -1.626133,9.35294 -0.47819,0.576185 -4.337079,1.293537 -4.337079,0.806247 z"
       id="path3149"
       inkscape:connector-curvature="0" />
    <path
       style="fill:#ffffff"
       d="m 55.56722,16.275555 c -0.649307,-0.328533 -0.940921,-0.997101 -0.84718,-1.942283 0.111689,-1.126154 0.725636,-1.642363 1.953326,-1.642363 1.232442,0 1.799361,0.576529 1.799361,1.829861 0,0.477219 -0.05082,1.000116 -0.112942,1.161993 -0.274079,0.71424 -1.879151,1.054957 -2.792565,0.592792 l 0,0 z"
       id="path3151"
       inkscape:connector-curvature="0" />
    <path
       style="fill:#ffffff"
       d="m 43.731469,12.523077 c -0.722885,-0.722885 -0.749311,-1.909014 -0.06076,-2.7273088 0.409769,-0.4869827 0.588119,-0.5594046 1.377622,-0.5594046 0.759955,0 0.993036,0.086121 1.438383,0.5314686 0.435146,0.4351458 0.531469,0.6848238 0.531469,1.3776228 0,0.692798 -0.09632,0.942476 -0.531469,1.377622 -0.435146,0.435146 -0.684824,0.531468 -1.377622,0.531468 -0.692799,0 -0.942476,-0.09632 -1.377622,-0.531468 z"
       id="path3153"
       inkscape:connector-curvature="0" />
    <path
       style="fill:#ffffff"
       d="m 31.249077,11.47753 c -0.728486,-0.150362 -1.139986,-0.902575 -1.139986,-2.083868 0,-0.8137673 0.08374,-1.1501304 0.353495,-1.4198844 0.802624,-0.8026237 2.74173,-0.5871956 3.24312,0.3602997 0.365888,0.6914318 0.179159,2.1199567 -0.344208,2.6332897 -0.442458,0.433976 -1.382097,0.660904 -2.112421,0.510163 z"
       id="path3155"
       inkscape:connector-curvature="0" />
    <path
       style="fill:#ffffff"
       d="m 17.367832,12.523077 c -0.392015,-0.392015 -0.531468,-0.704485 -0.531468,-1.190847 0,-0.778838 0.408524,-1.6461532 0.899019,-1.9086583 0.486641,-0.2604421 1.876212,-0.2342675 2.254674,0.04247 0.477084,0.3488531 0.831625,1.5511882 0.647116,2.1945332 -0.277181,0.966472 -0.843456,1.39397 -1.846489,1.39397 -0.742789,0 -0.97998,-0.0886 -1.422852,-0.531468 z"
       id="path3157"
       inkscape:connector-curvature="0" />
    <path
       style="fill:#ffffff"
       d="m 6.2454505,16.312707 c -0.7451296,-0.433998 -1.081147,-1.854568 -0.6582288,-2.782772 0.4944593,-1.08522 2.5838928,-1.164049 3.3797232,-0.127509 0.2937484,0.382597 0.2836838,2.024804 -0.014818,2.417699 -0.4713209,0.620363 -2.0073505,0.899902 -2.7066771,0.492582 l 9e-7,0 z"
       id="path3159"
       inkscape:connector-curvature="0" />
  </g>
</svg>
