<?xml version="1.0" encoding="UTF-8" standalone="no"?>
<!-- Created with Inkscape (http://www.inkscape.org/) -->

<svg
   xmlns:dc="http://purl.org/dc/elements/1.1/"
   xmlns:cc="http://creativecommons.org/ns#"
   xmlns:rdf="http://www.w3.org/1999/02/22-rdf-syntax-ns#"
   xmlns:svg="http://www.w3.org/2000/svg"
   xmlns="http://www.w3.org/2000/svg"
   xmlns:sodipodi="http://sodipodi.sourceforge.net/DTD/sodipodi-0.dtd"
   xmlns:inkscape="http://www.inkscape.org/namespaces/inkscape"
   width="64px"
   height="64px"
   id="svg2985"
   version="1.1"
   inkscape:version="0.48.1 "
   sodipodi:docname="wk.svg">
  <defs
     id="defs2987" />
  <sodipodi:namedview
     id="base"
     pagecolor="#ffffff"
     bordercolor="#666666"
     borderopacity="1.0"
     inkscape:pageopacity="0.0"
     inkscape:pageshadow="2"
     inkscape:zoom="7.7781746"
     inkscape:cx="18.684289"
     inkscape:cy="27.700696"
     inkscape:current-layer="layer1"
     showgrid="true"
     inkscape:document-units="px"
     inkscape:grid-bbox="true"
     inkscape:window-width="1365"
     inkscape:window-height="878"
     inkscape:window-x="-8"
     inkscape:window-y="-8"
     inkscape:window-maximized="1" />
  <metadata
     id="metadata2990">
    <rdf:RDF>
      <cc:Work
         rdf:about="">
        <dc:format>image/svg+xml</dc:format>
        <dc:type
           rdf:resource="http://purl.org/dc/dcmitype/StillImage" />
        <dc:title></dc:title>
      </cc:Work>
    </rdf:RDF>
  </metadata>
  <g
     id="layer1"
     inkscape:label="Layer 1"
     inkscape:groupmode="layer">
    <path
       style="fill:#000000"
       d="m 26.698509,59.177336 c -6.495981,-0.35444 -10.457405,-1.663241 -12.545569,-4.144883 -0.462262,-0.549368 -0.479101,-0.686327 -0.847622,-6.894161 -0.206795,-3.483513 -0.376792,-6.63291 -0.377772,-6.99866 -0.0016,-0.601929 -0.135979,-0.768605 -1.416719,-1.75738 C 9.0224022,37.461103 6.5289732,34.187734 4.8528642,30.64169 2.0826282,24.780866 2.5183902,19.878651 6.1047542,16.558227 10.232306,12.736747 16.409521,12.575009 22.127245,16.138711 c 0.768535,0.479007 1.449832,0.870921 1.513993,0.870921 0.06416,0 0.116656,-2.77875 0.116656,-6.175 l 0,-6.1750002 8.265,0 8.265,0 0,6.1750002 c 0,3.39625 0.0525,6.175 0.116656,6.175 0.06416,0 0.726786,-0.380129 1.4725,-0.844732 4.591721,-2.86078 9.544878,-3.370596 13.570347,-1.396761 1.743385,0.854846 3.778557,2.873318 4.558902,4.521493 2.011614,4.248761 0.753485,10.085983 -3.360399,15.590918 -1.350389,1.807002 -3.716134,4.284562 -4.986652,5.222338 l -0.503645,0.371744 -0.307291,5.7 c -0.481163,8.92521 -0.3865,8.286983 -1.378398,9.293096 -2.244273,2.276428 -5.871785,3.346601 -12.611712,3.720656 -3.708354,0.205806 -6.23568,0.203059 -10.159693,-0.01106 z m -6.766886,-6.916044 c 3.982987,-1.009635 5.16347,-1.118872 12.091271,-1.118872 6.927801,0 8.108284,0.109237 12.091271,1.118872 1.016177,0.257587 2.009569,0.46834 2.207542,0.46834 0.568012,0 1.225103,-0.82502 1.153216,-1.447944 -0.179157,-1.552488 -4.943205,-2.491863 -13.562833,-2.67432 -9.996057,-0.211592 -17.137416,0.887767 -17.341226,2.669553 -0.0718,0.627741 0.583088,1.452711 1.153217,1.452711 0.197972,0 1.191365,-0.210753 2.207542,-0.46834 z m -0.983368,-5.918504 c 0.821991,-0.613704 0.950914,-0.943177 0.544703,-1.392033 -0.575035,-0.635408 -2.292188,-0.399646 -3.280421,0.450397 -0.470378,0.404601 -0.495054,0.489765 -0.279184,0.963547 0.226709,0.497572 0.285228,0.516217 1.373224,0.437519 0.734029,-0.0531 1.315328,-0.215774 1.641678,-0.45943 z m 29.174382,-5.7e-4 c 0.203247,-0.446076 0.173424,-0.543064 -0.289385,-0.941155 -0.930717,-0.800569 -2.602217,-1.075205 -3.207898,-0.527072 -0.456326,0.412971 -0.438312,0.673961 0.08014,1.16102 0.595217,0.559176 1.227168,0.778449 2.283976,0.792488 0.799032,0.01062 0.933453,-0.04695 1.13317,-0.485281 z M 34.482664,44.592117 c 0.728111,-0.425241 1.014545,-1.168732 0.708791,-1.839791 -0.3317,-0.728 -1.392073,-1.09417 -3.168561,-1.09417 -1.757504,0 -2.837033,0.366544 -3.158689,1.072504 -0.458128,1.005482 0.241672,1.922513 1.702544,2.231041 1.058747,0.223601 3.255188,0.0163 3.915915,-0.369584 z m -15.28477,-4.198649 c 9.402095,-2.376615 16.840036,-2.326913 26.379279,0.176271 2.374521,0.623097 2.669912,0.587533 3.066186,-0.369157 0.344038,-0.830585 0.124495,-1.386654 -0.845983,-2.142748 l -0.857381,-0.667979 0.760093,-0.526745 c 1.216352,-0.842931 3.31547,-3.173739 4.06448,-4.513094 0.894923,-1.600275 1.622099,-3.740606 1.758327,-5.175384 0.272327,-2.868147 -1.190956,-4.541986 -4.400001,-5.033138 -3.631286,-0.555774 -7.862213,1.947985 -10.932957,6.469856 -0.914689,1.34694 -2.34646,4.243213 -2.784344,5.632341 l -0.317095,1.005941 -3.100302,0 c -2.186691,0 -3.100302,-0.06357 -3.100302,-0.215728 0,-0.118649 -0.341316,-1.066462 -0.758482,-2.106252 -1.584653,-3.94977 -4.115373,-7.367657 -6.693723,-9.040269 -5.09123,-3.302756 -10.970276,-1.853921 -10.976735,2.70511 -0.0017,1.220218 0.547728,3.127317 1.433735,4.976317 0.629122,1.312909 1.175684,2.100592 2.249964,3.242559 0.780439,0.82961 1.766415,1.749157 2.191059,2.043435 l 0.77208,0.535051 -0.857379,0.667979 c -0.969619,0.755423 -1.190015,1.312182 -0.847126,2.139989 0.282009,0.680831 0.712374,0.975842 1.231607,0.844258 0.209,-0.05297 1.36325,-0.344841 2.565,-0.648613 z m -0.185852,-5.791149 c -3.858246,-4.494402 -4.841281,-6.547534 -3.745109,-7.82191 0.362711,-0.421677 0.58922,-0.507399 1.302883,-0.493075 2.919943,0.05861 5.845046,2.773827 7.758028,7.201365 0.493231,1.141562 0.651374,1.702951 0.502421,1.78354 -0.119553,0.06468 -1.072371,0.268399 -2.117371,0.452703 -1.045,0.184304 -1.993288,0.370439 -2.107309,0.413636 -0.114019,0.0432 -0.831113,-0.648121 -1.593543,-1.536259 z m 22.510852,1.173024 c -2.80653,-0.543702 -2.649529,-0.344283 -1.804886,-2.29253 1.028436,-2.372188 1.827445,-3.64102 3.134886,-4.978224 1.24537,-1.273722 2.332001,-1.88854 3.844914,-2.175459 1.200614,-0.227692 1.999587,0.006 2.303896,0.6739 0.468048,1.027248 0.164563,2.081222 -1.170947,4.066602 -0.763494,1.13502 -4.123374,5.137638 -4.282634,5.101896 -0.06888,-0.01546 -0.980229,-0.19374 -2.025229,-0.396185 z M 33.564951,26.52614 c 1.940785,-0.881346 2.588938,-3.39948 1.276483,-4.959246 -2.31425,-2.75033 -6.834663,-0.878933 -6.270757,2.596018 0.236811,1.459295 1.835788,2.718376 3.452217,2.718376 0.418,0 1.111925,-0.159817 1.542057,-0.355148 z M 28.43477,16.969638 c 0.301468,-0.230998 1.197257,-1.000498 1.990642,-1.71 0.793385,-0.709503 1.508142,-1.290006 1.58835,-1.290006 0.08021,0 0.927326,0.694468 1.882482,1.543262 2.444527,2.172312 2.45872,2.176489 3.47419,1.022487 0.455104,-0.517189 0.82746,-1.079907 0.82746,-1.250485 0,-0.287732 -0.799397,-1.108947 -2.812707,-2.889471 l -0.813238,-0.719208 1.100472,-0.987906 c 2.42915,-2.1806762 2.572011,-2.3549202 2.325156,-2.8359732 -0.318871,-0.621393 -1.540228,-1.862706 -1.832761,-1.862706 -0.135276,0 -1.092185,0.7695 -2.126463,1.71 -1.03428,0.9405 -1.941236,1.71 -2.015459,1.71 -0.07422,0 -0.981179,-0.7695 -2.015459,-1.71 -1.034279,-0.9405 -1.991187,-1.71 -2.126463,-1.71 -0.292534,0 -1.51389,1.241313 -1.832761,1.862706 -0.246856,0.481053 -0.103995,0.655297 2.325155,2.8359732 l 1.100473,0.987906 -0.813238,0.719208 c -2.008177,1.775985 -2.81262,2.601254 -2.81148,2.884268 0.0016,0.386344 1.466188,2.109939 1.792933,2.109939 0.134526,0 0.491249,-0.188997 0.792716,-0.419994 z"
       id="path3033"
       inkscape:connector-curvature="0" />
    <path
       style="fill:#ffffff"
       d="m 17.03723,52.205771 c -0.392769,-0.46678 -0.443322,-1.138805 -0.107852,-1.433727 0.757122,-0.665608 2.889668,-1.274212 5.753278,-1.64192 5.905897,-0.758358 16.449901,-0.561096 21.190693,0.396445 2.390868,0.482905 3.689768,1.239343 3.493421,2.034456 -0.116433,0.471497 -0.698418,1.040304 -1.064406,1.040304 -0.170245,0 -1.330968,-0.22916 -2.579386,-0.509244 -4.116565,-0.923557 -4.575491,-0.961197 -11.719369,-0.961197 -7.133567,0 -7.547478,0.0341 -11.696081,0.963665 -1.239264,0.277677 -2.407164,0.505297 -2.595332,0.505822 -0.224954,6.3e-4 -0.456116,-0.134517 -0.674966,-0.394604 l 0,0 z"
       id="path3035"
       inkscape:connector-curvature="0" />
    <path
       style="fill:#ffffff"
       d="m 30.62752,44.888649 c -1.855817,-0.3926 -2.454558,-1.905575 -1.063502,-2.687392 1.022303,-0.574566 3.765602,-0.583391 4.878383,-0.01569 1.236511,0.630821 0.937193,2.067251 -0.521,2.500288 -0.810961,0.240829 -2.594917,0.350664 -3.293881,0.202797 l 0,0 z"
       id="path3037"
       inkscape:connector-curvature="0" />
    <path
       style="fill:#ffffff"
       d="m 16.19013,46.55878 c -0.434545,-0.434545 -0.331299,-0.826595 0.333678,-1.267058 0.791328,-0.524153 1.784653,-0.745987 2.412516,-0.538774 1.332455,0.43975 0.509719,1.626638 -1.335033,1.925934 -1.100835,0.178602 -1.113539,0.17752 -1.411161,-0.120102 z"
       id="path3039"
       inkscape:connector-curvature="0" />
    <path
       style="fill:#ffffff"
       d="m 46.229754,46.681106 c -0.648152,-0.108766 -1.551866,-0.642061 -1.765976,-1.042129 -0.335366,-0.626637 0.711792,-1.152959 1.769164,-0.889215 0.73031,0.182163 1.659874,0.696725 1.823719,1.009522 0.167727,0.320209 -0.04971,0.782555 -0.437339,0.929931 -0.372802,0.141739 -0.501055,0.140991 -1.389568,-0.0081 l 0,10e-7 z"
       id="path3041"
       inkscape:connector-curvature="0" />
    <path
       style="fill:#ffffff"
       d="m 15.972322,40.837858 c -0.151261,-0.105946 -0.372189,-0.447063 -0.490951,-0.758037 -0.198814,-0.520588 -0.199652,-0.599584 -0.01057,-0.996593 0.112949,-0.237153 0.55083,-0.710271 0.97307,-1.051371 l 0.767708,-0.620185 -0.928561,-0.741833 c -1.193305,-0.953336 -2.845454,-2.689029 -3.497782,-3.674652 -1.225936,-1.852307 -2.339548,-5.20845 -2.228524,-6.716209 0.230392,-3.128857 3.555925,-4.818669 7.497608,-3.809779 1.044772,0.267413 2.744908,1.076996 3.714137,1.768623 2.547732,1.818024 5.309804,5.848284 6.641709,9.691209 0.321249,0.926893 0.473207,1.204605 0.685319,1.252449 0.149899,0.03381 1.565574,0.07641 3.145945,0.09468 l 2.873402,0.0332 0.442047,-1.218632 c 0.565332,-1.558501 1.801264,-4.019278 2.681115,-5.338176 3.147216,-4.717684 7.538029,-7.22279 11.29585,-6.444662 1.778487,0.36827 2.983278,1.171348 3.578615,2.385401 0.412407,0.841005 0.407276,2.746818 -0.01126,4.181898 -0.380569,1.304907 -1.173575,3.108816 -1.729626,3.934504 -0.737071,1.094488 -2.511755,3.014684 -3.505902,3.793363 -0.521698,0.408627 -0.944537,0.776471 -0.939639,0.817433 0.0049,0.04096 0.337557,0.339527 0.739248,0.66348 0.88868,0.716699 1.113416,1.099044 1.000328,1.701858 -0.124799,0.665242 -0.531491,1.116105 -1.006757,1.116105 -0.218185,0 -1.501241,-0.263991 -2.851237,-0.586648 -5.220108,-1.247632 -8.233622,-1.639107 -12.675446,-1.646619 -3.312839,-0.0056 -4.89526,0.120169 -7.991548,0.635166 -1.796435,0.298798 -6.44072,1.325189 -7.230432,1.597933 -0.496032,0.171315 -0.61348,0.163313 -0.937871,-0.0639 l 6e-6,0 z M 44.298341,35.47006 c 1.939311,-2.037916 3.854114,-4.582064 4.515706,-5.999898 0.389535,-0.834796 0.438095,-1.049606 0.389415,-1.722595 -0.04828,-0.667512 -0.109701,-0.817195 -0.465893,-1.135452 -0.358718,-0.320515 -0.511003,-0.366392 -1.211781,-0.365058 -1.797564,0.0034 -3.026763,0.60415 -4.72273,2.308072 -1.330789,1.33703 -2.017309,2.385305 -2.99201,4.568623 -1.009476,2.26121 -1.074361,2.150774 1.592778,2.711019 1.087776,0.228493 2.011994,0.420701 2.053819,0.427131 0.04182,0.0064 0.420138,-0.3499 0.840696,-0.791842 l 0,0 z m -21.465993,0.289271 c 1.042791,-0.212132 1.941931,-0.385694 1.998088,-0.385694 0.323462,0 -0.229015,-1.620443 -1.148623,-3.368967 -1.888714,-3.591165 -4.627102,-5.759139 -7.274421,-5.759139 -0.54061,0 -0.688478,0.05981 -1.05565,0.426981 -1.18204,1.18204 -0.424818,3.102748 2.741497,6.953861 1.425351,1.733619 2.22165,2.518653 2.554795,2.518653 0.158581,0 1.141522,-0.173563 2.184314,-0.385695 z"
       id="path3043"
       inkscape:connector-curvature="0" />
    <path
       style="fill:#ffffff"
       d="m 30.486092,26.366423 c -1.262045,-0.630651 -1.845917,-1.531231 -1.849102,-2.852104 -0.0033,-1.371795 1.063856,-2.675298 2.51072,-3.066756 0.664248,-0.179717 1.83919,-0.08393 2.376095,0.193719 2.09746,1.084638 2.542199,3.482572 0.942582,5.082189 -1.103547,1.103547 -2.580974,1.342201 -3.980295,0.642952 l 0,0 z"
       id="path3045"
       inkscape:connector-curvature="0" />
    <path
       style="fill:#ffffff"
       d="m 26.747717,16.48064 c -0.350312,-0.420943 -0.674859,-0.88485 -0.721215,-1.030905 -0.108584,-0.342119 0.124262,-0.614878 2.029215,-2.377043 l 1.516116,-1.402474 -0.294749,-0.274176 C 29.114972,11.245245 28.359505,10.553711 27.598268,9.8593005 26.837032,9.1648898 26.179476,8.4583758 26.137033,8.2892696 c -0.09169,-0.3653043 0.374115,-1.0986161 1.1338,-1.7849457 0.487278,-0.4402266 0.509391,-0.4466173 0.848777,-0.2452955 0.191656,0.1136889 1.10057,0.8663647 2.019808,1.6726129 0.919239,0.8062482 1.758125,1.4667237 1.864191,1.4677234 0.106066,9.996e-4 1.002806,-0.6972083 1.992755,-1.5515731 0.98995,-0.8543649 1.901346,-1.6080789 2.025325,-1.67492 0.178668,-0.096326 0.358827,0.00326 0.868731,0.4802168 0.353823,0.3309603 0.766308,0.8007522 0.916632,1.0439821 l 0.273317,0.4422361 -0.255379,0.3428423 c -0.140459,0.1885634 -0.914724,0.9502108 -1.72059,1.6925501 -0.805866,0.742339 -1.481117,1.407662 -1.500558,1.478496 -0.01944,0.07083 0.661355,0.762416 1.51288,1.53685 1.566249,1.424453 1.929436,1.834909 1.929436,2.180557 0,0.267088 -1.224345,1.710039 -1.534494,1.808476 -0.354601,0.112546 -0.606425,-0.04632 -2.104926,-1.3279 -0.72068,-0.616357 -1.556208,-1.316457 -1.856728,-1.555779 l -0.546401,-0.43513 -0.546401,0.437669 c -0.30052,0.240719 -1.20362,1.002506 -2.006888,1.692861 -0.952555,0.818657 -1.565724,1.255191 -1.76308,1.255191 -0.212531,0 -0.492163,-0.227792 -0.939523,-0.76535 z"
       id="path3047"
       inkscape:connector-curvature="0" />
  </g>
</svg>
