<?xml version="1.0" encoding="UTF-8" standalone="no"?>
<!-- Created with Inkscape (http://www.inkscape.org/) -->

<svg
   xmlns:dc="http://purl.org/dc/elements/1.1/"
   xmlns:cc="http://creativecommons.org/ns#"
   xmlns:rdf="http://www.w3.org/1999/02/22-rdf-syntax-ns#"
   xmlns:svg="http://www.w3.org/2000/svg"
   xmlns="http://www.w3.org/2000/svg"
   xmlns:sodipodi="http://sodipodi.sourceforge.net/DTD/sodipodi-0.dtd"
   xmlns:inkscape="http://www.inkscape.org/namespaces/inkscape"
   width="64px"
   height="64px"
   id="svg2985"
   version="1.1"
   inkscape:version="0.48.1 "
   sodipodi:docname="wq.svg">
  <defs
     id="defs2987" />
  <sodipodi:namedview
     id="base"
     pagecolor="#ffffff"
     bordercolor="#666666"
     borderopacity="1.0"
     inkscape:pageopacity="0.0"
     inkscape:pageshadow="2"
     inkscape:zoom="7.7781746"
     inkscape:cx="8.8678454"
     inkscape:cy="41.288792"
     inkscape:current-layer="layer1"
     showgrid="true"
     inkscape:document-units="px"
     inkscape:grid-bbox="true"
     inkscape:window-width="1365"
     inkscape:window-height="878"
     inkscape:window-x="-8"
     inkscape:window-y="-8"
     inkscape:window-maximized="1" />
  <metadata
     id="metadata2990">
    <rdf:RDF>
      <cc:Work
         rdf:about="">
        <dc:format>image/svg+xml</dc:format>
        <dc:type
           rdf:resource="http://purl.org/dc/dcmitype/StillImage" />
        <dc:title></dc:title>
      </cc:Work>
    </rdf:RDF>
  </metadata>
  <g
     id="layer1"
     inkscape:label="Layer 1"
     inkscape:groupmode="layer">
    <path
       style="fill:#000000"
       d="m 26.669999,58.725998 c -5.1088,-0.48649 -9.311407,-1.81522 -11.562648,-3.65576 l -0.542648,-0.44365 -0.902818,-7.601987 -0.902817,-7.601982 -3.0195346,-6.962626 -3.019534,-6.962626 -0.739882,-0.126538 c -1.01495,-0.173582 -2.32467,-1.396652 -2.603178,-2.430955 -0.759005,-2.818729 1.997361,-5.338154 4.634631,-4.236232 0.723774,0.302412 1.788882,1.454815 1.9545,2.114689 0.1058336,0.421678 0.03067,1.825477 -0.138558,2.587706 -0.08177,0.368301 7.3882416,6.388539 7.6090976,6.132333 0.0789,-0.09153 1.100994,-3.836383 2.27131,-8.321885 1.630612,-6.249693 2.071089,-8.187623 1.884963,-8.293098 -1.924913,-1.090816 -2.489073,-1.918798 -2.509554,-3.6831101 -0.04206,-3.623088 4.358598,-5.443535 7.002811,-2.896897 1.350317,1.300487 1.58909,2.825502 0.714016,4.5603441 l -0.53484,1.06033 2.750635,5.616445 c 1.512851,3.089045 2.800904,5.614117 2.862343,5.611271 0.06144,-0.0029 1.41192,-2.527454 3.001073,-5.610241 l 2.889367,-5.605068 -0.466868,-0.878057 c -0.690381,-1.2984311 -0.657017,-2.9172281 0.08422,-4.0860331 0.802891,-1.266026 2.265374,-1.955704 3.843653,-1.81259 2.3306,0.211331 3.775263,1.73228 3.775263,3.974616 0,1.7493871 -0.76306,2.9442101 -2.282131,3.5734301 -0.323226,0.133884 -0.552089,0.338081 -0.508585,0.453771 0.0435,0.11569 0.96684,3.865471 2.05186,8.332846 1.085017,4.467375 2.033615,8.1225 2.107998,8.1225 0.07438,0 1.870129,-1.330654 3.990549,-2.95701 2.760738,-2.117476 3.834826,-3.048001 3.783161,-3.2775 -0.03968,-0.176269 -0.08243,-0.882896 -0.095,-1.57028 -0.02018,-1.103516 0.04128,-1.33387 0.525091,-1.968181 1.012068,-1.326889 2.713833,-1.759384 4.224114,-1.073537 1.16383,0.528515 1.83903,1.523807 1.93514,2.852508 0.13208,1.825986 -0.68554,3.032697 -2.4624,3.634225 l -0.981096,0.332134 -3.168805,6.911307 -3.168803,6.911309 -0.698976,7.215012 c -0.384436,3.968257 -0.697431,7.365697 -0.695546,7.549877 0.0044,0.43145 -1.718235,1.53796 -3.701571,2.37763 -1.881355,0.79649 -4.323119,1.44891 -6.935,1.85296 -2.326086,0.35984 -9.652742,0.5264 -12.254999,0.2786 z m -5.95898,-6.155677 c 3.930975,-1.001133 5.511188,-1.160104 11.37398,-1.144234 5.812801,0.01573 7.636183,0.216266 11.383317,1.251914 l 2.168318,0.599289 0.349182,-0.431222 c 0.912781,-1.127236 7.6e-4,-2.504187 -2.126193,-3.210297 -2.985468,-0.991097 -8.13458,-1.468482 -13.959624,-1.294225 -8.311782,0.248645 -12.445,1.410634 -12.445,3.498715 0,0.676261 0.282475,1.376683 0.555206,1.376683 0.08901,0 1.304377,-0.290979 2.700814,-0.646623 z M 19.02143,46.812937 c 0.674531,-0.392827 0.888291,-1.041529 0.498118,-1.511659 -0.180821,-0.217877 -0.494335,-0.273727 -1.202085,-0.214145 -1.709716,0.143932 -2.713853,0.925841 -2.360869,1.838381 0.164661,0.425685 0.245247,0.447239 1.310857,0.350614 0.624475,-0.05662 1.413765,-0.265061 1.753979,-0.463191 z m 28.824889,0.239464 c 0.125317,-0.150996 0.199911,-0.471621 0.165764,-0.7125 -0.131077,-0.924638 -2.973078,-1.735741 -3.568405,-1.018415 -0.125317,0.150997 -0.199911,0.471622 -0.165764,0.7125 0.131077,0.924639 2.973078,1.735741 3.568405,1.018415 z m -14.257142,-1.62092 c 1.00088,-0.287048 1.535822,-0.895774 1.535822,-1.747656 0,-1.244168 -1.060128,-1.863579 -3.193365,-1.865821 -2.336853,-0.0025 -3.597019,0.770252 -3.385169,2.075722 0.05818,0.358547 0.224339,0.770453 0.369237,0.915349 0.702679,0.702679 3.223154,1.038352 4.673475,0.622406 z M 19.259999,40.66908 c 4.840248,-1.347399 9.023457,-1.825393 14.345,-1.639134 4.760727,0.166632 8.132716,0.741103 12.56078,2.139928 1.429349,0.451529 1.557475,0.463245 1.879482,0.171834 0.828478,-0.749764 0.600056,-2.201923 -0.453587,-2.883597 -1.500069,-0.9705 -5.552576,-2.078129 -9.331676,-2.550534 -2.83056,-0.353831 -10.488564,-0.30164 -13.394999,0.09129 -4.062998,0.54929 -8.374653,1.849502 -9.215967,2.779144 -0.180936,0.199931 -0.371605,0.741739 -0.42371,1.204014 -0.0777,0.689366 -0.01977,0.91547 0.32216,1.257401 0.260663,0.260663 0.535999,0.370658 0.734707,0.293512 0.174795,-0.06786 1.51481,-0.4566 2.97781,-0.863859 z"
       id="path3087"
       inkscape:connector-curvature="0" />
    <path
       style="fill:#ffffff"
       d="m 17.822554,52.970467 c -0.199748,-0.240682 -0.321061,-1.111923 -0.214143,-1.53792 0.322083,-1.283279 2.886407,-2.212784 7.535747,-2.731525 2.557129,-0.285306 10.546184,-0.326734 12.985052,-0.06733 5.390348,0.573319 8.097013,1.67119 8.099106,3.285141 4.87e-4,0.375307 -0.445912,1.236541 -0.640931,1.236541 -0.0584,0 -0.964884,-0.233247 -2.014411,-0.518328 -2.491389,-0.67673 -4.32627,-0.980801 -7.030102,-1.165007 -2.92145,-0.199032 -9.923338,-0.07897 -11.784409,0.202075 -1.072956,0.162028 -5.598111,1.144802 -6.570798,1.427048 -0.113761,0.03301 -0.278061,-0.0258 -0.365111,-0.13069 z"
       id="path3089"
       inkscape:connector-curvature="0" />
    <path
       style="fill:#ffffff"
       d="m 30.929577,45.440376 c -0.388909,-0.06282 -0.938524,-0.194718 -1.221366,-0.293103 -0.934022,-0.324893 -1.382505,-1.458303 -0.880315,-2.22474 0.504649,-0.770193 2.331486,-1.211802 3.991558,-0.964897 1.51745,0.225693 2.086092,0.638016 2.182167,1.582292 0.147836,1.453009 -1.649388,2.291784 -4.072044,1.900448 z"
       id="path3091"
       inkscape:connector-curvature="0" />
    <path
       style="fill:#ffffff"
       d="m 16.176758,47.099626 c -0.08839,-0.09174 -0.160706,-0.303665 -0.160706,-0.470948 0,-0.857048 0.87154,-1.36087 2.373839,-1.372275 1.003812,-0.0076 1.02638,-8.29e-4 1.149852,0.346039 0.268158,0.753331 -0.788228,1.448083 -2.424328,1.594405 -0.547199,0.04894 -0.825619,0.0201 -0.938657,-0.09722 z"
       id="path3093"
       inkscape:connector-curvature="0" />
    <path
       style="fill:#ffffff"
       d="m 45.884779,47.056317 c -0.736609,-0.230324 -1.426158,-0.675801 -1.524197,-0.984694 -0.109748,-0.345784 0.259152,-0.88384 0.617671,-0.900899 1.486966,-0.07075 2.921887,0.591356 2.921887,1.348232 0,0.695795 -0.814293,0.912912 -2.015361,0.537361 z"
       id="path3095"
       inkscape:connector-curvature="0" />
    <path
       style="fill:#ffffff"
       d="m 15.747781,41.291171 c -0.571685,-0.438926 -0.623038,-1.415614 -0.118089,-2.245937 0.729768,-1.200006 6.149463,-2.724998 11.105927,-3.124982 1.235394,-0.0997 3.525286,-0.129741 6.609781,-0.08673 4.38454,0.06114 4.851441,0.08992 6.578028,0.405412 2.284788,0.41749 3.528051,0.724856 5.276849,1.304566 2.477525,0.821277 3.214122,1.428974 3.214122,2.651671 0,0.497103 -0.06643,0.696088 -0.315569,0.945224 -0.173562,0.173562 -0.404906,0.315568 -0.514096,0.315568 -0.10919,0 -1.196587,-0.284571 -2.416434,-0.63238 -4.149166,-1.18303 -6.60541,-1.584936 -11.088884,-1.814433 -5.619952,-0.28767 -10.261138,0.270481 -15.964172,1.91986 -1.999747,0.578349 -2.071572,0.589336 -2.367463,0.362158 z"
       id="path3097"
       inkscape:connector-curvature="0" />
  </g>
</svg>
