<?xml version="1.0" encoding="UTF-8" standalone="no"?>
<!-- Created with Inkscape (http://www.inkscape.org/) -->

<svg
   xmlns:dc="http://purl.org/dc/elements/1.1/"
   xmlns:cc="http://creativecommons.org/ns#"
   xmlns:rdf="http://www.w3.org/1999/02/22-rdf-syntax-ns#"
   xmlns:svg="http://www.w3.org/2000/svg"
   xmlns="http://www.w3.org/2000/svg"
   xmlns:sodipodi="http://sodipodi.sourceforge.net/DTD/sodipodi-0.dtd"
   xmlns:inkscape="http://www.inkscape.org/namespaces/inkscape"
   width="64px"
   height="64px"
   id="svg2985"
   version="1.1"
   inkscape:version="0.48.1 "
   sodipodi:docname="New document 2">
  <defs
     id="defs2987" />
  <sodipodi:namedview
     id="base"
     pagecolor="#ffffff"
     bordercolor="#666666"
     borderopacity="1.0"
     inkscape:pageopacity="0.0"
     inkscape:pageshadow="2"
     inkscape:zoom="7.7781746"
     inkscape:cx="25.272847"
     inkscape:cy="32.368399"
     inkscape:current-layer="layer1"
     showgrid="true"
     inkscape:document-units="px"
     inkscape:grid-bbox="true"
     inkscape:window-width="1365"
     inkscape:window-height="878"
     inkscape:window-x="-8"
     inkscape:window-y="-8"
     inkscape:window-maximized="1" />
  <metadata
     id="metadata2990">
    <rdf:RDF>
      <cc:Work
         rdf:about="">
        <dc:format>image/svg+xml</dc:format>
        <dc:type
           rdf:resource="http://purl.org/dc/dcmitype/StillImage" />
        <dc:title></dc:title>
      </cc:Work>
    </rdf:RDF>
  </metadata>
  <g
     id="layer1"
     inkscape:label="Layer 1"
     inkscape:groupmode="layer">
    <path
       style="fill:#000000"
       d="M 26.509975,59.276676 C 20.82767,58.843772 17.40565,57.893347 15.161074,56.124652 c -1.502861,-1.184234 -1.453927,-0.976887 -1.861897,-7.889515 -0.202156,-3.425322 -0.373155,-6.56986 -0.379997,-6.98786 -0.01146,-0.699939 -0.09624,-0.82006 -1.072853,-1.52 C 9.4929017,38.04057 6.8073174,34.643354 5.0873386,31.177277 2.7306774,26.428165 2.4079263,22.292442 4.1394837,19.031501 4.8302724,17.73058 6.8768783,15.731863 8.2710274,14.996631 10.139381,14.011319 11.429472,13.712108 13.779975,13.71894 c 1.303503,0.0038 2.582806,0.127313 3.39956,0.328248 1.538845,0.37858 3.989952,1.491281 5.447412,2.472899 l 1.033028,0.695759 0.05006,-6.271784 0.05006,-6.2717846 8.259878,0 8.259878,0 0.05006,6.2717846 0.05006,6.271784 1.033028,-0.695759 c 1.387257,-0.934335 3.828854,-2.057871 5.288568,-2.433611 6.657296,-1.713632 12.999897,1.780727 14.122908,7.780801 0.424336,2.267166 -0.195467,5.806241 -1.53376,8.757786 -1.340084,2.955488 -4.756285,7.350114 -7.001842,9.007214 -0.962854,0.710536 -1.159977,0.951311 -1.166652,1.425 -0.0044,0.3135 -0.177629,3.46208 -0.384917,6.996844 -0.340491,5.806248 -0.414188,6.479233 -0.763207,6.969386 -1.345348,1.889365 -4.89239,3.392347 -9.404126,3.98479 -1.649447,0.216592 -12.117081,0.4164 -14.06,0.268379 z m 9.12,-2.174702 c 5.973532,-0.446348 9.797251,-1.310983 11.065133,-2.502097 0.522933,-0.49127 0.573689,-1.482266 0.09737,-1.901015 -2.726198,-2.396679 -15.267566,-3.357754 -24.122715,-1.848582 -3.943134,0.672025 -5.754785,1.534528 -5.754785,2.739777 0,1.453632 2.329172,2.40632 7.695,3.147445 3.82439,0.528225 7.293125,0.642947 11.02,0.364472 z M 17.211274,50.454503 c 2.814622,-1.936511 8.258276,-2.791475 16.518009,-2.594266 6.833379,0.163151 10.670355,0.923045 13.099393,2.594266 0.461871,0.317777 0.888485,0.577774 0.948033,0.577774 0.05955,0 0.108266,-0.64634 0.108266,-1.43631 l 0,-1.436311 -1.51081,-1.746189 -1.510809,-1.74619 1.770321,-0.05407 1.770321,-0.05407 0.133049,-1.986244 c 0.07318,-1.092436 0.08531,-2.06349 0.02696,-2.157897 -0.193718,-0.313441 -3.551719,-1.555182 -5.711744,-2.112122 -3.763807,-0.970457 -6.005613,-1.22371 -10.832293,-1.22371 -4.82668,0 -7.068486,0.253253 -10.832293,1.22371 -2.160025,0.55694 -5.518027,1.798681 -5.711744,2.112122 -0.05835,0.09441 -0.04621,1.065461 0.02696,2.157897 l 0.133051,1.986244 1.770321,0.05407 1.770321,0.05407 -1.51081,1.74619 -1.51081,1.746189 0,1.436311 c 0,0.78997 0.04872,1.43631 0.108267,1.43631 0.05955,0 0.486161,-0.259997 0.948032,-0.577774 z M 29.552489,43.905862 C 28.267502,43.448285 27.934451,42.526 28.770553,41.740523 c 1.048736,-0.985235 5.445959,-0.989134 6.492718,-0.0058 0.877916,0.82476 0.419152,1.860461 -0.998459,2.254113 -1.028846,0.285697 -3.814708,0.236616 -4.712323,-0.08302 z M 14.781251,37.860265 c 2.64031,-1.646694 7.600104,-2.82529 13.058724,-3.103146 1.3585,-0.06915 2.661075,-0.176242 2.894614,-0.237979 l 0.424612,-0.112252 -0.773042,-2.279804 C 27.486795,23.576468 22.566193,17.89089 16.912094,16.558289 c -1.394909,-0.328762 -4.246806,-0.380215 -5.467487,-0.09864 -2.2597516,0.521255 -4.0444372,1.95571 -5.1062875,4.104219 -0.9244944,1.870588 -1.0679045,3.755973 -0.4687167,6.162171 0.481194,1.932367 1.949195,4.949854 3.228517,6.63624 0.8573414,1.130138 4.6096292,4.94 4.8653462,4.94 0.05998,0 0.427986,-0.198905 0.817785,-0.442012 z m 36.683677,-0.745488 c 3.202842,-2.787541 5.454971,-6.056438 6.516978,-9.459195 0.349592,-1.120122 0.443224,-1.857702 0.445362,-3.508305 0.0025,-1.950171 -0.03683,-2.172625 -0.588261,-3.325 -0.861578,-1.800521 -1.927847,-2.902513 -3.615432,-3.736563 -1.337203,-0.660881 -1.559621,-0.709935 -3.55009,-0.782961 -2.51422,-0.09224 -4.090276,0.215271 -6.129027,1.195871 -3.577942,1.72092 -6.657946,5.190217 -9.107527,10.258653 -0.969513,2.006026 -2.637599,6.542692 -2.468028,6.712262 0.04491,0.04491 1.217781,0.154173 2.606367,0.242795 5.379601,0.343337 9.912682,1.308176 12.655408,2.693628 0.907113,0.458217 1.698917,0.847339 1.759565,0.864718 0.06065,0.01738 0.724256,-0.502778 1.474685,-1.155903 z M 33.132993,27.554869 c 0.863301,-1.750071 2.292656,-4.067264 3.654874,-5.925092 l 0.313457,-0.4275 -5.081349,0 -5.081349,0 0.313844,0.4275 c 1.336261,1.820176 2.908701,4.381081 3.740342,6.091589 0.544535,1.119991 1.018243,2.008165 1.052688,1.97372 0.03445,-0.03444 0.523816,-0.997542 1.087493,-2.140217 z m 3.462965,-8.796731 c -0.05579,-0.09028 -1.109857,-1.107447 -2.34236,-2.260378 l -2.240917,-2.096238 -2.371354,2.25217 -2.371352,2.25217 4.713714,0.0082 c 2.601364,0.0045 4.668252,-0.06535 4.612269,-0.155932 z M 28.34358,15.441745 30.557184,13.101374 28.264293,10.786826 C 27.003204,9.513824 25.942956,8.472277 25.908188,8.472277 c -0.03477,0 -0.06321,2.09475 -0.06321,4.655 0,2.56025 0.06413,4.654964 0.1425,4.65492 0.07838,-4.5e-5 1.138623,-1.053248 2.356105,-2.340452 z m 9.851395,-2.314468 c 0,-2.56025 -0.02845,-4.655 -0.06321,-4.655 -0.03477,0 -1.095016,1.041547 -2.356104,2.314549 l -2.292892,2.314548 2.213605,2.340371 c 1.217482,1.287204 2.277729,2.340407 2.356104,2.340452 0.07838,4.4e-5 0.1425,-2.09467 0.1425,-4.65492 z m -3.61,-3.712819 2.375,-2.268755 -4.94,0 -4.94,0 2.375,2.268755 c 1.30625,1.247815 2.4605,2.268755 2.565,2.268755 0.1045,0 1.25875,-1.02094 2.565,-2.268755 z"
       id="path3004"
       inkscape:connector-curvature="0" />
    <path
       style="fill:#ffffff"
       d="m 28.949802,57.112636 c -3.231124,-0.226803 -7.460385,-0.88227 -9.172214,-1.421544 -1.38222,-0.435438 -1.889205,-0.704385 -2.378656,-1.261839 -1.494682,-1.702348 1.298516,-3.066674 7.951053,-3.883659 2.693231,-0.33075 10.821784,-0.32798 13.499312,0.0046 3.413556,0.424003 5.249951,0.84945 6.754254,1.564793 0.497505,0.236579 1.017086,0.55449 1.154625,0.706469 0.355132,0.392416 0.314297,1.198686 -0.08225,1.624077 -1.350057,1.448243 -7.171883,2.552594 -14.062021,2.667447 -1.626346,0.02711 -3.27519,0.02696 -3.664099,-3.44e-4 z"
       id="path3006"
       inkscape:connector-curvature="0" />
    <path
       style="fill:#ffffff"
       d="m 16.295681,50.793001 c -0.04059,-0.04059 -0.0738,-0.639675 -0.0738,-1.331296 l 0,-1.257494 1.477762,-1.710212 c 0.812769,-0.940616 1.478092,-1.745289 1.478496,-1.788161 3.98e-4,-0.04287 -0.754399,-0.108576 -1.67734,-0.146009 -0.92294,-0.03743 -1.707599,-0.09759 -1.743687,-0.133673 -0.09613,-0.09613 -0.280685,-3.384177 -0.210549,-3.75107 0.04815,-0.251875 0.266079,-0.398851 1.123767,-0.757886 2.589167,-1.083846 6.201016,-2.051091 9.193916,-2.462108 2.085513,-0.286406 7.580464,-0.395775 10.109353,-0.201212 4.082239,0.314071 8.006079,1.235668 11.540833,2.710609 l 1.015525,0.423747 -0.07766,1.98844 c -0.04271,1.093643 -0.105569,2.016354 -0.139684,2.050469 -0.03412,0.03412 -0.850824,0.09939 -1.814907,0.145053 l -1.752878,0.08302 1.552003,1.789958 1.552003,1.789957 -0.002,1.167035 c -0.001,0.641869 -0.04577,1.235922 -0.0993,1.320118 -0.06981,0.109798 -0.278285,0.04012 -0.73728,-0.246417 -2.997643,-1.871335 -6.325245,-2.502201 -13.88213,-2.631849 -8.181811,-0.14037 -12.558765,0.539721 -15.797734,2.454652 -0.528519,0.31247 -0.994154,0.534915 -1.034745,0.494325 l 0,0 z m 18.409805,-6.901413 c 1.413549,-0.593558 1.415543,-1.892778 0.0039,-2.526296 -0.61528,-0.276125 -0.861742,-0.305928 -2.545432,-0.307806 -2.102027,-0.0023 -2.885415,0.157773 -3.477378,0.710749 -0.298327,0.27868 -0.379569,0.464913 -0.379569,0.870102 0,0.734423 0.520116,1.149039 1.864191,1.486063 0.141421,0.03546 1.096016,0.04944 2.12132,0.03106 1.445586,-0.02592 1.987426,-0.08517 2.412998,-0.263867 l 0,0 z"
       id="path3008"
       inkscape:connector-curvature="0" />
    <path
       style="fill:#ffffff"
       d="M 11.638722,35.944952 C 9.0210802,33.286066 7.9560451,31.780964 6.8398098,29.163156 6.0717859,27.361976 5.5486174,25.279291 5.5532279,24.041392 c 0.00652,-1.75157 0.9183971,-3.983779 2.1766431,-5.328286 1.3227208,-1.413401 2.940034,-2.167328 5.020757,-2.340478 1.255972,-0.104517 3.622253,0.0983 4.643473,0.398006 5.613935,1.647544 10.308044,7.429844 13.224112,16.289729 0.228382,0.693896 0.390469,1.286401 0.360191,1.316678 -0.03028,0.03028 -1.462545,0.172835 -3.182818,0.316793 -3.840571,0.321391 -5.32915,0.533459 -7.673267,1.093156 -2.060176,0.491901 -3.695991,1.087211 -5.090431,1.852525 -0.524296,0.28775 -1.01099,0.523181 -1.081544,0.523181 -0.07055,0 -1.110784,-0.997984 -2.311622,-2.217744 z"
       id="path3010"
       inkscape:connector-curvature="0" />
    <path
       style="fill:#ffffff"
       d="M 49.005921,37.711611 C 45.885226,36.07369 42.474434,35.275403 36.086763,34.68792 c -1.62546,-0.149497 -2.984037,-0.300467 -3.01906,-0.335489 -0.09736,-0.09736 0.823508,-2.725904 1.660325,-4.739298 2.849779,-6.856611 6.959707,-11.321392 11.77029,-12.786542 1.173501,-0.357411 3.546849,-0.534922 5.167035,-0.386461 1.125213,0.103106 1.38945,0.179757 2.441092,0.708118 1.836182,0.922527 3.307088,2.56607 3.964299,4.42958 0.507508,1.439031 0.347995,4.572362 -0.330688,6.495779 -0.913014,2.587518 -2.476207,5.066579 -4.577518,7.259467 -1.300899,1.357592 -2.979761,2.835774 -3.206692,2.823384 -0.06284,-0.0034 -0.490305,-0.203612 -0.949925,-0.444847 l 0,0 z"
       id="path3012"
       inkscape:connector-curvature="0" />
    <path
       style="fill:#ffffff"
       d="m 27.588229,18.768237 c 0.0373,-0.06035 1.047325,-1.045033 2.244502,-2.188182 l 2.176686,-2.078454 2.220358,2.091759 2.220358,2.091759 -0.95388,0.07962 c -1.481722,0.123679 -7.984077,0.126556 -7.908024,0.0035 z"
       id="path3014"
       inkscape:connector-curvature="0" />
    <path
       style="fill:#ffffff"
       d="m 25.947588,15.321984 c -0.04688,-1.242733 -0.04666,-3.24088 4.92e-4,-4.440326 l 0.08573,-2.1808117 2.165101,2.1622907 c 1.190805,1.18926 2.1651,2.204275 2.1651,2.255589 0,0.101836 -3.457032,3.714048 -3.997642,4.177088 L 26.03283,17.5815 25.947588,15.321984 z"
       id="path3016"
       inkscape:connector-curvature="0" />
    <path
       style="fill:#ffffff"
       d="M 30.598607,10.334631 C 29.868541,9.6663062 28.80838,8.6850801 28.242695,8.1541292 l -1.028519,-0.9653653 4.790838,-0.0051 4.790837,-0.0051 -1.319586,1.2646611 c -1.816413,1.7408089 -3.333934,3.1065449 -3.451801,3.1065449 -0.05416,0 -0.695791,-0.546812 -1.425857,-1.215138 z"
       id="path3018"
       inkscape:connector-curvature="0" />
    <path
       style="fill:#ffffff"
       d="m 35.720327,15.354171 c -1.107494,-1.16027 -2.013625,-2.158893 -2.013625,-2.219162 0,-0.06027 0.983521,-1.091826 2.185603,-2.292347 l 2.185603,-2.1827664 0,4.4019284 c 0,3.589705 -0.03173,4.401929 -0.171978,4.401929 -0.09459,0 -1.078109,-0.949312 -2.185603,-2.109582 l 0,0 z"
       id="path3020"
       inkscape:connector-curvature="0" />
  </g>
</svg>
