<?xml version="1.0" encoding="UTF-8" standalone="no"?>
<!-- Created with Inkscape (http://www.inkscape.org/) -->

<svg
   xmlns:dc="http://purl.org/dc/elements/1.1/"
   xmlns:cc="http://creativecommons.org/ns#"
   xmlns:rdf="http://www.w3.org/1999/02/22-rdf-syntax-ns#"
   xmlns:svg="http://www.w3.org/2000/svg"
   xmlns="http://www.w3.org/2000/svg"
   xmlns:sodipodi="http://sodipodi.sourceforge.net/DTD/sodipodi-0.dtd"
   xmlns:inkscape="http://www.inkscape.org/namespaces/inkscape"
   width="64px"
   height="64px"
   id="svg2985"
   version="1.1"
   inkscape:version="0.48.1 "
   sodipodi:docname="bb.svg">
  <defs
     id="defs2987" />
  <sodipodi:namedview
     id="base"
     pagecolor="#ffffff"
     bordercolor="#666666"
     borderopacity="1.0"
     inkscape:pageopacity="0.0"
     inkscape:pageshadow="2"
     inkscape:zoom="5.5"
     inkscape:cx="9.6306914"
     inkscape:cy="20.61924"
     inkscape:current-layer="layer1"
     showgrid="true"
     inkscape:document-units="px"
     inkscape:grid-bbox="true"
     inkscape:window-width="1365"
     inkscape:window-height="878"
     inkscape:window-x="-8"
     inkscape:window-y="-8"
     inkscape:window-maximized="1" />
  <metadata
     id="metadata2990">
    <rdf:RDF>
      <cc:Work
         rdf:about="">
        <dc:format>image/svg+xml</dc:format>
        <dc:type
           rdf:resource="http://purl.org/dc/dcmitype/StillImage" />
        <dc:title></dc:title>
      </cc:Work>
    </rdf:RDF>
  </metadata>
  <g
     id="layer1"
     inkscape:label="Layer 1"
     inkscape:groupmode="layer">
    <path
       style="fill:#000000"
       d="m 19.619065,59.088211 c -1.040106,-1.229783 -1.497888,-2.548064 -1.502407,-4.326496 -0.0037,-1.445442 0.06175,-1.752777 0.610276,-2.866997 0.675159,-1.371441 1.401689,-2.113636 4.711913,-4.8135 2.989974,-2.438664 6.149994,-5.667567 6.832795,-6.981738 0.308974,-0.594678 0.5081,-1.134905 0.442502,-1.200504 -0.0656,-0.0656 -1.00076,-0.0168 -2.078136,0.10846 -1.077378,0.125251 -2.927957,0.184965 -4.1124,0.132696 l -2.153536,-0.09504 -0.398007,0.782807 c -1.830403,3.600065 -4.611663,5.817808 -7.296084,5.817808 -1.068233,0 -2.168437,-0.404883 -2.168437,-0.797998 0,-0.120033 -0.220843,-0.01096 -0.490762,0.242379 -0.646852,0.607122 -2.1795987,0.603826 -3.7615947,-0.0081 -2.423564,-0.937432 -3.252643,-2.322982 -3.252643,-5.435792 0,-1.866252 0.02005,-1.954845 0.795408,-3.515 0.784514,-1.578577 1.328741,-2.289171 4.3473857,-5.676351 1.980549,-2.222346 2.81802,-3.6502 3.219533,-5.489174 0.4061,-1.85998 0.87081,-2.64362 2.609249,-4.39997 l 1.410468,-1.425 -0.332473,-2.291786 c -0.456838,-3.149046 -0.81888,-8.1541711 -0.616044,-8.5166191 0.135094,-0.241399 0.507389,-0.02138 2.060678,1.217828 l 1.895795,1.5124571 0.139619,-1.0750761 c 0.229095,-1.764044 0.692713,-3.3126821 1.350697,-4.5117715 0.3411,-0.6216097 0.70107,-1.1527091 0.799933,-1.1802249 0.09886,-0.027514 0.479001,0.4260845 0.844751,1.0079975 0.36575,0.5819111 1.421489,1.8599609 2.346088,2.8401079 l 1.681088,1.782087 1.548912,0.0011 c 3.536894,0.0026 7.559342,0.9487841 10.858912,2.5544131 7.881799,3.83542 13.66199,11.510835 17.012302,22.590338 1.784522,5.901421 2.251329,9.622874 1.927029,15.362532 -0.242151,4.285747 -0.638267,7.010007 -1.216891,8.369096 l -0.384235,0.9025 -18.579712,0 -18.579713,0 -0.522259,-0.6175 z m 5.238479,-2.127035 c 8.900567,-0.916461 20.036141,-0.852118 27.979092,0.161669 l 1.854093,0.236645 0.20492,-0.774391 c 0.112708,-0.425913 0.484377,-1.7708 0.825932,-2.988637 l 0.621011,-2.214248 -1.274518,-1.393352 -1.274518,-1.393352 1.301994,-2.114035 c 0.716097,-1.162718 1.301994,-2.179997 1.301994,-2.26062 0,-0.08062 -0.641924,-0.853651 -1.426499,-1.717845 l -1.426497,-1.57126 1.149857,-1.94766 c 0.632423,-1.071214 1.08197,-2.008604 0.998999,-2.083089 -0.08297,-0.07449 -1.069985,-0.747061 -2.19336,-1.494609 -1.123375,-0.747549 -2.042876,-1.421394 -2.043338,-1.497432 -3.8e-4,-0.07604 0.352334,-1.01808 0.783988,-2.093429 0.431653,-1.075349 0.752654,-1.984216 0.713338,-2.019704 -0.03932,-0.03549 -0.969238,-0.64079 -2.066488,-1.345116 -1.09725,-0.704326 -2.020545,-1.303005 -2.051768,-1.330399 -0.03122,-0.02739 0.152042,-0.872134 0.407256,-1.877204 0.255215,-1.005068 0.451761,-1.836363 0.43677,-1.847323 -0.01499,-0.01096 -0.879961,-0.160582 -1.922152,-0.3325 l -1.894895,-0.312574 -0.356524,-1.824187 -0.356521,-1.824187 -1.871728,-0.238531 -1.871727,-0.238531 -0.417994,-1.408019 -0.417994,-1.408019 -0.683861,0.13766 c -0.376124,0.07571 -0.936501,0.141294 -1.245279,0.145736 -0.510377,0.0073 -0.585178,-0.07532 -0.822721,-0.909207 l -0.2613,-0.917284 -1.457281,0.124841 c -0.801505,0.06866 -1.590864,0.161486 -1.754133,0.206274 -0.209163,0.05738 -0.458018,-0.255762 -0.842435,-1.060057 -0.300071,-0.627819 -0.641068,-1.141489 -0.757773,-1.141489 -0.116704,0 -0.977359,0.169149 -1.912565,0.375888 -0.935207,0.206738 -1.922243,0.377738 -2.193417,0.38 -0.698429,0.0058 -2.704842,-1.332619 -4.201166,-2.802528 l -1.274209,-1.2517131 -0.203083,0.534148 c -0.779667,2.0506761 -0.632206,3.0780391 0.701073,4.8844341 1.032875,1.399389 1.424809,2.385362 1.265279,3.183008 l -0.113449,0.567249 -1.722039,-1.157895 -1.722036,-1.157896 -0.412159,0.516897 c -0.226688,0.284293 -0.780626,1.208434 -1.230974,2.053647 -0.481315,0.903331 -1.38162,2.147948 -2.184245,3.019586 -1.683518,1.828275 -2.371718,3.093962 -3.141006,5.776709 -0.70669,2.46445 -1.346301,3.39434 -4.8309787,7.023466 -2.489935,2.593148 -2.763377,3.127841 -2.762255,5.401346 5.51e-4,1.10023 0.08953,1.584321 0.378264,2.05789 0.461601,0.757088 1.335522,1.311021 2.334659,1.479825 0.7370077,0.124516 0.7708377,0.10423 1.8851787,-1.130445 1.117624,-1.238316 2.456177,-2.203616 3.055686,-2.203616 0.27556,0 0.278635,0.06576 0.03081,0.658897 -0.333869,0.799062 -0.360404,2.220004 -0.04731,2.533103 0.306981,0.306981 1.350311,0.288123 2.13212,-0.03854 0.881995,-0.36852 2.098029,-1.501543 3.163798,-2.947823 l 0.898552,-1.21936 -0.646235,-0.93946 c -0.451761,-0.656745 -0.646233,-1.152875 -0.646233,-1.648649 l 0,-0.70919 0.9975,0.335207 c 1.382194,0.464484 3.615548,0.746077 5.903749,0.74438 3.449205,-0.0026 5.772274,-0.555223 7.00137,-1.665639 l 0.740894,-0.669352 -0.119367,0.835713 c -0.268013,1.876367 -1.084652,4.483141 -1.89751,6.056983 -1.503236,2.910544 -4.479941,6.078782 -9.586636,10.203483 -1.963091,1.585597 -2.32452,2.197466 -2.235558,3.784612 0.08754,1.561741 0.525965,2.241918 1.349297,2.093302 0.330694,-0.05969 1.841011,-0.236182 3.356261,-0.392202 z M 9.7514933,38.99401 c -0.25839,-0.418085 0.155108,-0.926911 1.0747637,-1.322535 1.179785,-0.50753 1.871287,-0.404432 1.871287,0.278994 0,0.353368 -0.183716,0.561243 -0.752431,0.851381 -0.798169,0.407195 -1.9958767,0.512115 -2.1936197,0.19216 z M 20.14982,27.679938 c -0.849085,-0.594723 -0.246605,-2.836088 0.888753,-3.306369 0.945028,-0.391444 2.904431,-0.14824 4.651359,0.577332 l 1.49739,0.621927 -2.35239,1.19157 c -1.931523,0.978386 -2.523287,1.193335 -3.307612,1.20144 -0.571629,0.0059 -1.124799,-0.108902 -1.3775,-0.2859 z m 0.455294,-12.344524 c 0.395074,-0.395074 0.456907,-0.588925 0.34848,-1.0925 -0.312486,-1.4513 -0.956986,-2.012334 -1.899889,-1.653843 -0.626726,0.238281 -0.904687,0.857981 -0.753167,1.679146 0.265971,1.441428 1.403555,1.968217 2.304576,1.067197 z"
       id="path3200"
       inkscape:connector-curvature="0" />
    <path
       style="fill:#ffffff"
       d="m 21.059657,57.144437 c -0.194124,-0.07181 -0.45763,-0.38328 -0.58557,-0.692153 -0.303784,-0.733402 -0.169978,-2.559393 0.23257,-3.173758 0.170785,-0.260651 1.679924,-1.647149 3.35364,-3.081104 5.586496,-4.786229 7.673616,-7.436253 9.012754,-11.443538 0.436749,-1.306946 1.101315,-4.308237 0.980671,-4.42888 -0.02913,-0.02913 -0.405789,0.226253 -0.837032,0.567507 -1.65207,1.307329 -4.279817,1.846802 -8.105031,1.663949 -2.06479,-0.0987 -4.460276,-0.505749 -5.624149,-0.955673 -0.316978,-0.122534 -0.333248,-0.06642 -0.213084,0.734893 0.07155,0.477155 0.376123,1.267397 0.67682,1.756093 l 0.546722,0.888536 -0.591578,0.772953 c -1.587446,2.074149 -3.109666,3.319778 -4.167994,3.410655 -1.084616,0.09314 -1.251024,0.01913 -1.368815,-0.608751 -0.09899,-0.527673 0.07021,-1.54526 0.399724,-2.40396 0.07071,-0.184259 -0.03363,-0.261355 -0.353705,-0.261355 -0.526611,0 -2.22059,1.213276 -3.395492,2.431947 -0.924563,0.959006 -1.3159406,1.032011 -2.4887925,0.464244 -1.1932848,-0.57766 -1.5726269,-1.340756 -1.5643203,-3.146835 0.010313,-2.242303 0.1337825,-2.453005 3.7586758,-6.41425 2.289662,-2.502119 3.029024,-3.651399 3.759367,-5.843631 0.977494,-2.934091 1.396641,-3.691103 3.358174,-6.065107 0.606886,-0.734502 1.578636,-2.112732 2.159444,-3.062732 0.580808,-0.95 1.136212,-1.828036 1.234232,-1.951191 0.134218,-0.168638 0.57023,0.04458 1.76609,0.863636 0.87333,0.598156 1.682746,1.087555 1.798702,1.087555 0.267139,0 0.27794,-1.253898 0.01675,-1.942709 -0.106762,-0.28151 -0.618125,-1.166381 -1.136373,-1.966381 -0.914117,-1.411086 -0.941847,-1.492574 -0.928092,-2.727273 0.0078,-0.7 0.111354,-1.506428 0.230124,-1.7920616 l 0.215944,-0.5193341 1.226255,1.1556977 c 1.519898,1.432446 3.126193,2.511801 3.932875,2.642707 0.336901,0.05467 1.397391,-0.04191 2.356643,-0.214629 0.959253,-0.172717 1.860213,-0.269473 2.002133,-0.215013 0.14192,0.05446 0.487942,0.52143 0.768938,1.037712 l 0.510902,0.938694 1.746165,-0.12498 1.746168,-0.12498 0.216583,0.722888 c 0.306615,1.023391 0.503995,1.133087 1.737591,0.965684 0.721784,-0.09795 1.076337,-0.08029 1.120669,0.0558 0.03567,0.109495 0.222749,0.729583 0.415737,1.377972 l 0.350887,1.17889 1.704104,0.22823 c 0.937256,0.125527 1.789681,0.261052 1.894276,0.301167 0.104595,0.04012 0.337705,0.856245 0.518022,1.813621 0.368062,1.954181 0.198885,1.802939 2.382714,2.130117 0.8,0.119854 1.510322,0.268294 1.578493,0.329865 0.06817,0.06157 -0.03347,0.766493 -0.225854,1.566493 -0.192391,0.8 -0.349848,1.618182 -0.349906,1.818182 -7.6e-5,0.26311 0.539862,0.711144 1.953126,1.620675 1.074278,0.691372 1.977461,1.274692 2.007074,1.296267 0.02961,0.02157 -0.281362,0.950176 -0.691054,2.06356 -0.409693,1.113384 -0.70304,2.092058 -0.651884,2.174831 0.05116,0.08277 0.992096,0.756683 2.090978,1.49758 1.662387,1.120829 1.979973,1.408163 1.890835,1.710723 -0.05892,0.2 -0.512117,1.083284 -1.007099,1.962853 -0.494981,0.879569 -0.860496,1.697751 -0.812254,1.818182 0.04824,0.120431 0.672149,0.887971 1.386464,1.705645 l 1.298754,1.486679 -1.233836,2.058776 c -0.678611,1.132325 -1.262415,2.124053 -1.297342,2.203838 -0.03493,0.07978 0.504074,0.775238 1.197784,1.545455 l 1.261289,1.400391 -0.77962,2.793958 c -0.428791,1.536676 -0.82256,2.836896 -0.875042,2.88938 -0.05248,0.05248 -1.304293,-0.03748 -2.781802,-0.199917 -8.443167,-0.928236 -20.719022,-0.841392 -29.168145,0.206348 -0.664972,0.08246 -1.367869,0.09117 -1.561993,0.01936 l 0,0 z M 12.03174,38.837304 c 0.58501,-0.313089 0.839671,-0.714544 0.710812,-1.120546 -0.08915,-0.280881 -0.272946,-0.372361 -0.748134,-0.372361 -1.18678,0 -2.612981,0.914089 -2.3787139,1.52458 0.1812002,0.4722 1.5070159,0.45482 2.4160359,-0.03167 l 0,0 z M 24.876146,26.843985 c 1.275,-0.611045 2.318182,-1.179517 2.318182,-1.263272 0,-0.213414 -2.428186,-1.107743 -3.669115,-1.351379 -2.516443,-0.494061 -3.930486,0.513414 -3.752628,2.673668 0.129493,1.572815 1.737392,1.554222 5.103561,-0.05902 l 0,0 z"
       id="path3202"
       inkscape:connector-curvature="0" />
    <path
       style="fill:#ffffff"
       d="m 19.060031,15.429945 c -0.218364,-0.152948 -0.479471,-0.57668 -0.580237,-0.941626 -0.463378,-1.678214 1.326235,-2.611919 2.056519,-1.07296 0.427907,0.901748 0.372391,1.477644 -0.184687,1.915841 -0.572296,0.450169 -0.768456,0.465165 -1.291595,0.09874 z"
       id="path3204"
       inkscape:connector-curvature="0" />
  </g>
</svg>
