<?xml version="1.0" encoding="UTF-8" standalone="no"?>
<!-- Created with Inkscape (http://www.inkscape.org/) -->

<svg
   xmlns:dc="http://purl.org/dc/elements/1.1/"
   xmlns:cc="http://creativecommons.org/ns#"
   xmlns:rdf="http://www.w3.org/1999/02/22-rdf-syntax-ns#"
   xmlns:svg="http://www.w3.org/2000/svg"
   xmlns="http://www.w3.org/2000/svg"
   xmlns:sodipodi="http://sodipodi.sourceforge.net/DTD/sodipodi-0.dtd"
   xmlns:inkscape="http://www.inkscape.org/namespaces/inkscape"
   width="64px"
   height="64px"
   id="svg2985"
   version="1.1"
   inkscape:version="0.48.1 "
   sodipodi:docname="bk.svg">
  <defs
     id="defs2987" />
  <sodipodi:namedview
     id="base"
     pagecolor="#ffffff"
     bordercolor="#666666"
     borderopacity="1.0"
     inkscape:pageopacity="0.0"
     inkscape:pageshadow="2"
     inkscape:zoom="7.7781746"
     inkscape:cx="28.291799"
     inkscape:cy="27.656895"
     inkscape:current-layer="layer1"
     showgrid="true"
     inkscape:document-units="px"
     inkscape:grid-bbox="true"
     inkscape:window-width="1365"
     inkscape:window-height="878"
     inkscape:window-x="-8"
     inkscape:window-y="-8"
     inkscape:window-maximized="1" />
  <metadata
     id="metadata2990">
    <rdf:RDF>
      <cc:Work
         rdf:about="">
        <dc:format>image/svg+xml</dc:format>
        <dc:type
           rdf:resource="http://purl.org/dc/dcmitype/StillImage" />
        <dc:title></dc:title>
      </cc:Work>
    </rdf:RDF>
  </metadata>
  <g
     id="layer1"
     inkscape:label="Layer 1"
     inkscape:groupmode="layer">
    <path
       style="fill:#000000"
       d="m 26.587063,58.73061 c -0.26125,-0.03774 -1.2445,-0.163582 -2.185,-0.279657 -3.553258,-0.438534 -6.635039,-1.49219 -8.794111,-3.006691 L 14.510609,54.674518 13.613816,47.023724 12.717023,39.372927 9.7151664,32.445111 6.71331,25.517295 5.7919962,25.187674 c -1.6270821,-0.582128 -2.5749331,-1.821996 -2.5749331,-3.36823 0,-1.345004 0.7301053,-2.539366 1.9380645,-3.170433 0.6658246,-0.347843 2.304187,-0.343858 2.9831672,0.0073 0.8006657,0.41404 1.6939402,1.530841 1.8377995,2.297678 0.1116677,0.595238 0.083934,1.034581 -0.1508131,2.389105 -0.043674,0.252007 3.1175718,2.929455 7.2188728,6.11409 0.133151,0.103391 0.281649,0.148424 0.329997,0.100077 0.04835,-0.04835 1.031409,-3.672907 2.184579,-8.054575 1.15317,-4.381668 2.143309,-8.116294 2.200308,-8.299169 0.06515,-0.209016 0.0036,-0.3325 -0.165663,-0.3325 -0.541502,0 -1.879138,-1.171705 -2.236677,-1.959223 -1.383482,-3.0472611 1.319414,-6.3353943 4.640967,-5.6458425 1.188081,0.2466447 2.491715,1.2448705 2.899121,2.2199306 0.425518,1.0184095 0.330398,2.6894859 -0.206546,3.6286019 l -0.462243,0.808467 2.749203,5.637362 c 1.611044,3.303518 2.817974,5.564571 2.915315,5.461534 0.09136,-0.09671 1.44878,-2.642651 3.016487,-5.657655 l 2.85038,-5.481826 -0.446319,-0.657688 C 36.431103,9.9250375 36.520854,7.9991507 37.525418,6.6679672 38.839709,4.926355 42.159389,4.721516 43.852034,6.2775856 c 1.115264,1.0252742 1.47983,3.126838 0.801536,4.6204884 -0.324121,0.713737 -1.421122,1.778779 -1.839441,1.785853 -0.715384,0.0121 -0.673326,0.27953 1.345228,8.55394 1.105399,4.531226 2.047545,8.276324 2.093658,8.322435 0.109455,0.109455 0.21766,0.03163 4.448082,-3.199285 2.67524,-2.043171 3.572914,-2.828638 3.474276,-3.04 -0.07315,-0.15675 -0.133073,-0.8835 -0.133156,-1.615 -1.26e-4,-1.089374 0.08008,-1.442497 0.443346,-1.951801 1.120838,-1.571448 3.722607,-1.851439 5.139065,-0.553043 0.594962,0.545373 1.153041,1.778094 1.158262,2.558447 0.0054,0.805585 -0.456712,1.901432 -1.073228,2.545092 -0.483318,0.504598 -1.048528,0.78948 -1.962599,0.989204 -0.417001,0.09112 -0.863467,0.95718 -3.656478,7.092945 l -3.181478,6.989156 -0.735989,7.580301 c -0.851425,8.76922 -0.443373,7.704772 -3.541055,9.237245 -3.850479,1.904893 -8.270484,2.672035 -15.162232,2.63158 -2.424273,-0.01423 -4.621518,-0.05675 -4.882768,-0.09449 z m 10.64,-2.181261 c 2.906665,-0.281002 6.048762,-0.851088 7.333491,-1.330551 1.178716,-0.439899 2.356509,-1.425925 2.356509,-1.972825 0,-0.604236 -1.184979,-1.537795 -2.510544,-1.977877 -3.299823,-1.095527 -8.44436,-1.632227 -14.181693,-1.4795 -9.212715,0.245245 -14.547209,1.891059 -13.30467,4.104796 1.199605,2.137246 11.600782,3.497625 20.306907,2.655957 z M 17.424981,50.133296 c 3.787767,-1.90829 9.900272,-2.744776 17.01333,-2.328243 5.593367,0.327541 9.216361,1.044613 11.760833,2.32773 0.597896,0.301505 1.132271,0.54819 1.1875,0.54819 0.05523,0 0.09964,-0.705375 0.09869,-1.5675 l -0.0017,-1.5675 -1.534017,-1.6625 -1.534016,-1.6625 1.804535,0 1.804532,0 0.116212,-1.4725 c 0.06392,-0.809875 0.152241,-1.755957 0.196277,-2.102403 0.07781,-0.612154 0.04576,-0.645295 -1.137408,-1.176148 -4.323758,-1.939938 -9.168706,-2.839134 -15.330427,-2.84524 -5.823124,-0.0058 -10.066459,0.719195 -14.465693,2.47144 l -2.026558,0.807185 0.0016,1.161333 c 9.12e-4,0.638732 0.05557,1.610208 0.121465,2.158833 l 0.119814,0.9975 1.799094,0 1.799095,0 -1.54056,1.687479 -1.540561,1.68748 0,1.54252 c 0,0.848386 0.04519,1.542521 0.100418,1.542521 0.05523,0 0.589605,-0.246455 1.1875,-0.547677 z m 12.306605,-6.506329 c -0.92064,-0.215706 -1.434523,-0.655202 -1.434523,-1.22687 0,-1.026857 1.336787,-1.486232 3.99,-1.37112 2.191614,0.09508 3.04,0.448789 3.04,1.267427 0,0.659228 -0.430878,1.06278 -1.425,1.334625 -0.899692,0.246023 -3.112291,0.243869 -4.170477,-0.0041 z M 15.876942,37.268706 c 1.94428,-0.733343 5.775842,-1.747918 8.175686,-2.164873 7.738563,-1.344515 16.396626,-0.594186 23.395017,2.027471 0.977246,0.366086 1.809258,0.633161 1.848915,0.593504 0.140822,-0.14082 5.733254,-12.029855 5.686427,-12.088858 -0.0262,-0.03301 -2.086877,1.540304 -4.57928,3.496257 -2.492405,1.955955 -4.640584,3.641023 -4.773736,3.744598 -0.133151,0.103576 -0.287655,0.142754 -0.343344,0.08706 -0.05569,-0.05569 -1.209838,-4.401836 -2.564776,-9.658108 -1.354937,-5.256272 -2.482933,-9.575767 -2.506656,-9.598878 -0.02372,-0.02311 -0.344807,-0.09836 -0.713521,-0.167211 l -0.670388,-0.12519 -3.48992,7.053437 c -1.919454,3.879391 -3.548943,6.984727 -3.621086,6.900745 -0.07214,-0.08398 -1.616729,-3.254885 -3.432417,-7.046454 l -3.30125,-6.893761 -0.577275,0.123456 c -0.317501,0.0679 -0.594571,0.137889 -0.615708,0.155529 -0.02114,0.01764 -1.211792,4.304026 -2.645895,9.525304 -1.434103,5.22128 -2.672963,9.569489 -2.753022,9.662689 -0.120372,0.140131 -3.615366,-2.662719 -9.0595189,-7.265383 l -1.006867,-0.85124 0.6447327,1.408584 c 3.5419812,7.738362 5.3528832,11.573584 5.4647752,11.573584 0.07369,0 0.72129,-0.221519 1.439107,-0.492267 z M 58.530629,23.204647 c 0.484845,-0.43878 0.481034,-1.777703 -0.0068,-2.380125 -0.283969,-0.350691 -0.549051,-0.448549 -1.215049,-0.448549 -1.189126,0 -1.651734,0.452321 -1.651734,1.615 0,0.883624 0.253697,1.306611 0.95,1.583918 0.463178,0.184465 1.539547,-0.02271 1.923566,-0.370244 z m -50.7300003,-0.19 c 0.5204955,-0.471042 0.4938708,-1.980401 -0.043514,-2.466726 -0.6034438,-0.54611 -1.994031,-0.497292 -2.4668384,0.0866 -0.6577724,0.812314 -0.4004193,2.330359 0.4567068,2.693973 0.5651797,0.239761 1.6200483,0.07855 2.0536454,-0.313848 z M 24.202873,11.082058 c 0.817191,-0.341445 1.05419,-0.7927 1.05419,-2.0072305 0,-1.370266 -0.546265,-1.9054772 -1.938865,-1.899629 -1.430179,0.006 -2.241135,0.7529892 -2.241135,2.0643436 0,1.6695649 1.468309,2.5350639 3.12581,1.8425159 z m 18.057001,-0.18718 c 0.956181,-0.626513 0.987149,-2.7751682 0.04946,-3.4319488 -0.502917,-0.3522566 -2.380981,-0.3845129 -2.81874,-0.048414 -1.132407,0.8694358 -0.951255,3.1157908 0.29686,3.6811538 0.684327,0.309983 1.835571,0.216487 2.472417,-0.200791 z"
       id="path3060"
       inkscape:connector-curvature="0" />
    <path
       style="fill:#ffffff"
       d="m 29.011762,56.673665 c -3.024894,-0.130302 -6.65715,-0.632678 -8.819813,-1.219866 -2.541191,-0.689962 -3.671264,-1.571417 -3.266732,-2.548044 0.55109,-1.330448 3.674259,-2.27872 9.386683,-2.85003 2.114291,-0.211454 9.261058,-0.214933 11.185144,-0.0054 3.58167,0.389961 6.155165,0.93045 7.535457,1.582606 0.763265,0.360626 1.849778,1.344029 1.849778,1.674235 0,0.245688 -1.043943,1.171824 -1.739638,1.543324 -2.26813,1.211175 -10.014311,2.086701 -16.130879,1.82322 z"
       id="path3062"
       inkscape:connector-curvature="0" />
    <path
       style="fill:#ffffff"
       d="m 16.234142,49.970519 c -0.04338,-0.316469 -0.07873,-0.957839 -0.07857,-1.425267 l 3e-4,-0.849869 1.53697,-1.671343 c 0.845334,-0.919239 1.539449,-1.714734 1.542478,-1.767767 0.003,-0.05303 -0.798579,-0.09642 -1.781352,-0.09642 l -1.78686,0 -0.07501,-0.867813 c -0.04126,-0.477297 -0.110138,-1.417427 -0.153073,-2.089179 l -0.07806,-1.221366 1.907792,-0.729558 c 3.065918,-1.172437 5.032402,-1.715604 7.564646,-2.089449 4.429082,-0.653882 10.812523,-0.576705 15.127155,0.18289 1.308295,0.230327 3.678778,0.851944 4.920252,1.290248 1.526596,0.538968 3.27371,1.353467 3.352718,1.563027 0.03495,0.09269 -0.0092,1.007422 -0.09809,2.032727 l -0.161631,1.864191 -1.825857,0.06428 -1.825855,0.06428 1.535101,1.671343 1.5351,1.671343 0.0021,1.509016 0.0021,1.509016 -0.739248,-0.33666 c -2.931889,-1.335206 -5.274994,-1.891123 -9.674508,-2.295339 -8.006439,-0.73561 -14.524141,-0.08416 -19.099534,1.90902 l -1.570241,0.684045 -0.07887,-0.575397 z m 17.820759,-6.327445 c 0.69272,-0.176753 1.196263,-0.613992 1.296259,-1.125572 0.208268,-1.065521 -0.751971,-1.474138 -3.510971,-1.494043 -2.046524,-0.01476 -2.788439,0.127723 -3.293182,0.632466 -0.599823,0.599822 -0.250218,1.561492 0.679169,1.868217 1.173227,0.3872 3.548096,0.445693 4.828725,0.118932 l 0,0 z"
       id="path3064"
       inkscape:connector-curvature="0" />
    <path
       style="fill:#ffffff"
       d="M 13.425342,35.578144 C 11.73688,32.05328 8.675762,25.369274 8.7266252,25.318411 c 0.026892,-0.02689 1.5502408,1.198319 3.3852188,2.722694 3.528354,2.931114 6.058868,4.933601 6.234522,4.933601 0.05816,0 0.135084,-0.101245 0.170937,-0.224989 0.03585,-0.123744 0.221963,-0.745676 0.413577,-1.382072 0.191614,-0.636396 1.374307,-4.848122 2.628207,-9.35939 1.253899,-4.511269 2.303261,-8.225751 2.331916,-8.254406 0.02866,-0.02866 0.281719,-0.08882 0.562366,-0.133694 l 0.510265,-0.0816 1.21273,2.550581 c 0.667001,1.40282 2.154132,4.481972 3.304732,6.84256 1.1506,2.360589 2.11653,4.356559 2.146511,4.435488 0.03262,0.08589 0.138074,0.04026 0.26262,-0.11362 0.114459,-0.141421 1.726551,-3.284481 3.582428,-6.984578 l 3.37432,-6.727448 0.573348,0.07545 c 0.315341,0.0415 0.617908,0.120012 0.672373,0.174476 0.05446,0.05446 0.710592,2.440394 1.458061,5.302067 1.337964,5.122369 3.477468,13.216249 3.60982,13.656181 0.03723,0.123744 0.156142,0.224989 0.264253,0.224989 0.108113,0 1.593959,-1.087667 3.301882,-2.417037 4.781448,-3.721662 5.880538,-4.557548 5.926722,-4.507426 0.03881,0.04212 -2.557909,5.655479 -4.556253,9.849313 -0.446436,0.936917 -0.87732,1.703485 -0.957519,1.703485 -0.0802,0 -0.895727,-0.264907 -1.812284,-0.588682 -7.817926,-2.761697 -16.764379,-3.35371 -24.900948,-1.64777 -1.729459,0.362605 -4.442035,1.118071 -6.392839,1.780439 -0.738678,0.250807 -1.40948,0.456013 -1.490672,0.456013 -0.08119,0 -0.584101,-0.911204 -1.117577,-2.024897 l 0,0 z"
       id="path3066"
       inkscape:connector-curvature="0" />
    <path
       style="fill:#ffffff"
       d="M 22.248769,11.070594 C 21.27296,10.628409 20.842818,9.062411 21.449761,8.1616859 21.917564,7.46745 22.479772,7.2348723 23.528596,7.3017005 c 0.736268,0.046913 0.935977,0.1113033 1.217087,0.3924138 0.283401,0.2834014 0.34416,0.4755359 0.386319,1.2216418 0.06325,1.1192989 -0.183412,1.7026099 -0.854933,2.0217949 -0.626098,0.297595 -1.533781,0.357133 -2.0283,0.133043 l 0,0 z"
       id="path3068"
       inkscape:connector-curvature="0" />
    <path
       style="fill:#ffffff"
       d="M 5.436653,22.942861 C 4.8230481,22.213633 4.8870918,20.989858 5.5620019,20.54764 c 0.7818575,-0.512292 2.1051959,-0.277407 2.370645,0.420778 0.1650922,0.434225 0.156111,1.419082 -0.015872,1.740434 -0.1866683,0.348793 -0.8832906,0.623488 -1.5811546,0.623488 -0.4781175,0 -0.624669,-0.06349 -0.8989677,-0.389479 z"
       id="path3070"
       inkscape:connector-curvature="0" />
    <path
       style="fill:#ffffff"
       d="m 39.854164,10.988692 c -0.599125,-0.304134 -0.947061,-0.885766 -1.034324,-1.7290403 -0.06593,-0.6370885 0.386286,-1.5987829 0.862806,-1.8348813 0.416589,-0.2064047 1.901386,-0.2054819 2.310309,0.00144 1.168641,0.5913394 1.212168,2.7983898 0.06814,3.4551748 -0.656492,0.376893 -1.586764,0.422126 -2.206932,0.107311 l 0,0 z"
       id="path3072"
       inkscape:connector-curvature="0" />
    <path
       style="fill:#ffffff"
       d="m 56.574543,23.47028 c -0.530473,-0.227644 -0.821288,-0.764136 -0.821288,-1.515098 0,-0.601887 0.05252,-0.752174 0.375805,-1.075464 0.333551,-0.333551 0.464339,-0.375805 1.163223,-0.375805 0.682482,0 0.828628,0.04447 1.096651,0.333669 0.581465,0.627411 0.542459,1.934249 -0.0713,2.388888 -0.368558,0.273007 -1.353891,0.410827 -1.743088,0.24381 l 0,0 z"
       id="path3074"
       inkscape:connector-curvature="0" />
  </g>
</svg>
