<?xml version="1.0" encoding="UTF-8" standalone="no"?>
<!-- Created with Inkscape (http://www.inkscape.org/) -->

<svg
   xmlns:dc="http://purl.org/dc/elements/1.1/"
   xmlns:cc="http://creativecommons.org/ns#"
   xmlns:rdf="http://www.w3.org/1999/02/22-rdf-syntax-ns#"
   xmlns:svg="http://www.w3.org/2000/svg"
   xmlns="http://www.w3.org/2000/svg"
   xmlns:sodipodi="http://sodipodi.sourceforge.net/DTD/sodipodi-0.dtd"
   xmlns:inkscape="http://www.inkscape.org/namespaces/inkscape"
   width="64px"
   height="64px"
   id="svg2985"
   version="1.1"
   inkscape:version="0.48.1 "
   sodipodi:docname="bq.svg">
  <defs
     id="defs2987" />
  <sodipodi:namedview
     id="base"
     pagecolor="#ffffff"
     bordercolor="#666666"
     borderopacity="1.0"
     inkscape:pageopacity="0.0"
     inkscape:pageshadow="2"
     inkscape:zoom="11"
     inkscape:cx="18.450662"
     inkscape:cy="10.365108"
     inkscape:current-layer="layer1"
     showgrid="true"
     inkscape:document-units="px"
     inkscape:grid-bbox="true"
     inkscape:window-width="1365"
     inkscape:window-height="878"
     inkscape:window-x="-8"
     inkscape:window-y="-8"
     inkscape:window-maximized="1" />
  <metadata
     id="metadata2990">
    <rdf:RDF>
      <cc:Work
         rdf:about="">
        <dc:format>image/svg+xml</dc:format>
        <dc:type
           rdf:resource="http://purl.org/dc/dcmitype/StillImage" />
        <dc:title></dc:title>
      </cc:Work>
    </rdf:RDF>
  </metadata>
  <g
     id="layer1"
     inkscape:label="Layer 1"
     inkscape:groupmode="layer">
    <path
       style="fill:#000000"
       d="m 10.244999,54.938538 0,-3.566461 1.71,-1.702077 c 1.583966,-1.576626 1.71025,-1.758385 1.713391,-2.466039 0.0031,-0.710506 0.148758,-0.916846 2.080928,-2.948961 l 2.077537,-2.185 0.0091,-10.452639 0.0091,-10.452641 -2.565,-2.55972 -2.565,-2.55972 0,-5.27514 0,-5.27514 3.8,0 3.8,0 0,2.47 0,2.47 3.325,0 3.325,0 0,-2.47 0,-2.47 5.035001,0 5.035,0 0,2.47 0,2.47 3.325,0 3.325,0 0,-2.47 0,-2.47 3.8,0 3.8,0 0,5.27514 0,5.27514 -2.565,2.55972 -2.565,2.55972 0,10.45588 0,10.455881 2.09,2.083519 c 2.058655,2.052274 2.09,2.096703 2.09,2.962626 0,0.86459 0.02824,0.904919 1.71,2.441985 l 1.71,1.562875 0,3.688757 0,3.688757 -21.755,0 -21.755001,0 0,-3.566462 z M 51.269874,53.6125 51.254754,51.19 49.464878,49.601279 c -1.771899,-1.572765 -1.789875,-1.59753 -1.789875,-2.465797 0,-0.839677 -0.0626,-0.940042 -1.468042,-2.353779 L 44.738918,43.305 l -12.635488,0 -12.63549,0 -1.571468,1.563305 c -1.466067,1.458451 -1.571469,1.616299 -1.571469,2.353406 0,0.747736 -0.09169,0.877358 -1.71,2.417387 l -1.71,1.627288 0,2.384308 0,2.384306 19.19,0 19.19,0 -0.01512,-2.4225 z m -7.584875,-22.2775 0,-9.69 -11.685,0 -11.685,0 0,9.69 0,9.69 11.685,0 11.685,0 0,-9.69 z M 46.666493,17.410197 48.792984,15.47 l 0.011,-3.8475 0.011,-3.8475 -1.33,0 -1.33,0 0,2.47 0,2.47 -5.795,0 -5.795,0 0,-2.47 0,-2.47 -2.565,0 -2.565,0 0,2.47 0,2.47 -5.795,0 -5.795,0 0,-2.47 0,-2.47 -1.33,0 -1.33,0 0,3.799475 0,3.799475 2.0425,1.989152 2.0425,1.989152 12.635,-9.31e-4 12.635,-9.31e-4 2.126493,-1.940198 z"
       id="path3110"
       inkscape:connector-curvature="0" />
    <path
       style="fill:#ffffff"
       d="m 12.965263,53.72641 c 0,-2.112297 0.04686,-2.217521 1.642473,-3.688308 0.90336,-0.832688 1.741846,-1.940603 1.863303,-2.462034 0.121456,-0.521431 0.889141,-1.643511 1.705966,-2.493511 l 1.485136,-1.545454 12.627216,0 12.627215,0 1.297073,1.582906 c 0.71339,0.870598 1.297072,1.925156 1.297072,2.343461 0,0.461462 0.714944,1.376252 1.818004,2.326185 l 1.818004,1.56563 1.78e-4,2.272727 1.78e-4,2.272727 -19.090909,0 -19.090909,0 0,-2.174329 z"
       id="path3112"
       inkscape:connector-curvature="0" />
    <path
       style="fill:#ffffff"
       d="m 20.601627,31.355285 0,-9.636364 11.454545,0 11.454545,0 0,9.636364 0,9.636363 -11.454545,0 -11.454545,0 0,-9.636363 z"
       id="path3114"
       inkscape:connector-curvature="0" />
    <path
       style="fill:#ffffff"
       d="m 17.407386,17.252941 -1.896669,-1.920526 0,-3.715838 0,-3.7158378 1.09091,0 1.090909,0 0,2.5454548 0,2.545454 6,0 6,0 0,-2.545454 0,-2.5454548 2.363636,0 2.363636,0 0,2.5454548 0,2.545454 6,0 6,0 0,-2.545454 0,-2.5454548 1.090909,0 1.09091,0 0,3.7636488 0,3.763648 -2.153108,1.872715 -2.153107,1.872715 -12.495678,0 -12.495678,0 -1.89667,-1.920525 z"
       id="path3116"
       inkscape:connector-curvature="0" />
  </g>
</svg>
