<?xml version="1.0" encoding="UTF-8" standalone="no"?>
<!-- Created with Inkscape (http://www.inkscape.org/) -->

<svg
   xmlns:dc="http://purl.org/dc/elements/1.1/"
   xmlns:cc="http://creativecommons.org/ns#"
   xmlns:rdf="http://www.w3.org/1999/02/22-rdf-syntax-ns#"
   xmlns:svg="http://www.w3.org/2000/svg"
   xmlns="http://www.w3.org/2000/svg"
   xmlns:sodipodi="http://sodipodi.sourceforge.net/DTD/sodipodi-0.dtd"
   xmlns:inkscape="http://www.inkscape.org/namespaces/inkscape"
   width="64px"
   height="64px"
   id="svg2985"
   version="1.1"
   inkscape:version="0.48.1 "
   sodipodi:docname="bp.svg">
  <defs
     id="defs2987" />
  <sodipodi:namedview
     id="base"
     pagecolor="#efefef"
     bordercolor="#666666"
     borderopacity="1.0"
     inkscape:pageopacity="0.0"
     inkscape:pageshadow="2"
     inkscape:zoom="5.5"
     inkscape:cx="1.8181818"
     inkscape:cy="32"
     inkscape:current-layer="layer1"
     showgrid="true"
     inkscape:document-units="px"
     inkscape:grid-bbox="true"
     inkscape:window-width="1365"
     inkscape:window-height="878"
     inkscape:window-x="-8"
     inkscape:window-y="-8"
     inkscape:window-maximized="1" />
  <metadata
     id="metadata2990">
    <rdf:RDF>
      <cc:Work
         rdf:about="">
        <dc:format>image/svg+xml</dc:format>
        <dc:type
           rdf:resource="http://purl.org/dc/dcmitype/StillImage" />
        <dc:title></dc:title>
      </cc:Work>
    </rdf:RDF>
  </metadata>
  <g
     id="layer1"
     inkscape:label="Layer 1"
     inkscape:groupmode="layer">
    <path
       style="fill:#000000"
       d="m 14.651091,56.170095 c -1.276279,-4.230042 -0.886613,-9.069564 1.041119,-12.930351 1.904345,-3.813948 5.078235,-6.944044 8.741997,-8.62137 l 1.052547,-0.48187 -0.916955,-0.618178 c -1.334978,-0.899996 -2.480591,-2.230498 -3.165696,-3.676605 -0.571101,-1.20547 -0.601259,-1.383483 -0.601259,-3.549126 0,-2.163644 0.03031,-2.343026 0.593891,-3.515 1.122738,-2.334744 3.092066,-4.014063 5.458432,-4.654609 l 1.218292,-0.329776 -0.698324,-0.698324 c -1.130733,-1.130733 -1.601699,-2.324684 -1.61819,-4.102291 -0.03746,-4.0383654 2.360634,-6.5454389 6.255899,-6.5401816 2.248462,0.00304 4.094954,0.8904534 5.165636,2.4825878 0.802156,1.1928268 1.106338,2.3248918 1.090262,4.0575938 -0.01649,1.777607 -0.487456,2.971558 -1.618188,4.102291 l -0.698324,0.698324 1.218291,0.329776 c 2.366367,0.640546 4.335694,2.319865 5.458433,4.654609 0.563582,1.171974 0.59389,1.351356 0.59389,3.515 0,2.156782 -0.0318,2.346744 -0.588502,3.515 -0.714084,1.498542 -2.100376,3.076038 -3.310615,3.767233 l -0.895941,0.511693 1.66579,0.822371 c 3.445702,1.70108 6.422675,4.722059 8.172894,8.293703 1.975752,4.031884 2.34412,8.287924 1.112424,12.852657 l -0.402679,1.492343 -16.954754,0 -16.954754,0 -0.415616,-1.3775 z m 33.018493,-1.805 c 1.069473,-5.211422 -0.327169,-10.179244 -3.983609,-14.169603 -1.674384,-1.827297 -4.791964,-3.927897 -5.829538,-3.927897 -0.933594,0 -1.715358,-1.343098 -1.487801,-2.556089 0.136104,-0.725494 0.87802,-1.543106 1.719154,-1.894554 0.858682,-0.358781 2.479931,-2.229694 2.834895,-3.271458 0.472625,-1.38708 0.402663,-3.555516 -0.153235,-4.749415 -0.904934,-1.943523 -2.553944,-3.296652 -4.485915,-3.681012 -1.553469,-0.309057 -1.886917,-0.500063 -2.205948,-1.263611 -0.429726,-1.028481 -0.200879,-1.815032 0.87314,-3.001001 1.60796,-1.775565 1.717792,-3.878287 0.303929,-5.818676 -1.45755,-2.0003496 -4.396264,-2.2572035 -6.042686,-0.5281524 -0.915672,0.9616264 -1.279156,1.6801214 -1.409775,2.7866844 -0.157565,1.334847 0.214634,2.415571 1.191642,3.460071 0.985092,1.053144 1.245902,1.768215 1.016344,2.786546 -0.207532,0.920627 -0.692555,1.310859 -1.837973,1.478767 -2.080204,0.304939 -3.910999,1.675104 -4.832856,3.6169 -0.446848,0.941241 -0.541234,1.390831 -0.541358,2.578654 -8.6e-5,0.823027 0.130433,1.821895 0.305009,2.334245 0.356794,1.047133 1.908463,2.832719 2.906448,3.344598 0.994389,0.510036 1.557202,1.199197 1.658917,2.031328 0.121148,0.991124 -0.409861,2.003419 -1.165524,2.22191 -2.840583,0.821316 -5.777047,3.130806 -7.868003,6.188079 -2.314686,3.3844 -3.198546,8.114598 -2.268842,12.142292 l 0.22711,0.983894 15.426138,0 15.426138,0 0.224199,-1.0925 z"
       id="path3116"
       inkscape:connector-curvature="0" />
    <path
       style="fill:#ffffff"
       d="m 16.440163,54.372727 c -0.142668,-0.621049 -0.232195,-2.041885 -0.220535,-3.5 0.01684,-2.105829 0.0894,-2.687023 0.51071,-4.090909 1.032107,-3.439156 3.174367,-6.464669 6.140646,-8.672433 0.469041,-0.349101 1.631985,-0.988107 2.584321,-1.420012 1.420541,-0.644248 1.781683,-0.890997 2.010834,-1.373897 0.636762,-1.341878 0.226613,-2.459878 -1.26586,-3.450525 -1.229333,-0.815984 -2.386497,-2.091504 -2.865295,-3.158358 -0.264242,-0.588782 -0.363249,-1.218249 -0.371771,-2.363636 -0.01,-1.33828 0.05881,-1.708065 0.481749,-2.590363 0.903119,-1.884035 2.574262,-3.175929 4.6972,-3.631217 1.336477,-0.286623 1.966929,-0.948445 1.966929,-2.064798 0,-0.942867 -0.156352,-1.310674 -1.005625,-2.36567 -0.897434,-1.114822 -1.176193,-1.796879 -1.176193,-2.877857 0,-4.0292732 4.82401,-5.8297834 7.219994,-2.694786 1.36346,1.784004 1.282595,3.750805 -0.230116,5.59687 -0.859178,1.048513 -1.212235,1.938424 -1.069946,2.696891 0.164317,0.875883 0.666817,1.321435 1.856019,1.645676 2.268701,0.61857 3.937307,1.824067 4.734645,3.420581 0.823547,1.648995 0.892056,4.105687 0.153809,5.515547 -0.470354,0.898254 -1.611558,2.08958 -2.619018,2.734044 -1.605124,1.026785 -2.069631,2.282469 -1.363287,3.685309 0.261332,0.519018 0.513494,0.698169 1.417116,1.006796 2.301831,0.786176 5.489955,3.403244 7.156946,5.874995 2.494309,3.698465 3.313907,8.31496 2.257227,12.714116 l -0.09827,0.409091 -15.331034,0 -15.331036,0 -0.240163,-1.045455 0,0 z"
       id="path3118"
       inkscape:connector-curvature="0" />
  </g>
</svg>
