<?xml version="1.0" encoding="UTF-8" standalone="no"?>
<!-- Created with Inkscape (http://www.inkscape.org/) -->

<svg
   xmlns:dc="http://purl.org/dc/elements/1.1/"
   xmlns:cc="http://creativecommons.org/ns#"
   xmlns:rdf="http://www.w3.org/1999/02/22-rdf-syntax-ns#"
   xmlns:svg="http://www.w3.org/2000/svg"
   xmlns="http://www.w3.org/2000/svg"
   xmlns:sodipodi="http://sodipodi.sourceforge.net/DTD/sodipodi-0.dtd"
   xmlns:inkscape="http://www.inkscape.org/namespaces/inkscape"
   width="64px"
   height="64px"
   id="svg2985"
   version="1.1"
   inkscape:version="0.48.1 "
   sodipodi:docname="br.svg">
  <defs
     id="defs2987" />
  <sodipodi:namedview
     id="base"
     pagecolor="#efefef"
     bordercolor="#666666"
     borderopacity="1.0"
     inkscape:pageopacity="0.0"
     inkscape:pageshadow="2"
     inkscape:zoom="5.5"
     inkscape:cx="1.8181818"
     inkscape:cy="32"
     inkscape:current-layer="layer1"
     showgrid="true"
     inkscape:document-units="px"
     inkscape:grid-bbox="true"
     inkscape:window-width="1365"
     inkscape:window-height="878"
     inkscape:window-x="-8"
     inkscape:window-y="-8"
     inkscape:window-maximized="1" />
  <metadata
     id="metadata2990">
    <rdf:RDF>
      <cc:Work
         rdf:about="">
        <dc:format>image/svg+xml</dc:format>
        <dc:type
           rdf:resource="http://purl.org/dc/dcmitype/StillImage" />
        <dc:title></dc:title>
      </cc:Work>
    </rdf:RDF>
  </metadata>
  <g
     id="layer1"
     inkscape:label="Layer 1"
     inkscape:groupmode="layer">
    <path
       style="fill:#000000"
       d="m 19.067018,56.895841 c -2.4035,-0.355889 -4.84025,-0.650864 -5.415,-0.6555 -1.267489,-0.01022 -3.035468,0.384467 -3.7141725,0.82917 -0.274339,0.179755 -0.525549,0.298619 -0.558244,0.264143 -0.03269,-0.03447 -0.708867,-1.126356 -1.502604,-2.426406 l -1.443157,-2.363723 0.426588,-0.465677 c 0.599361,-0.654278 2.464205,-1.466812 4.1797775,-1.821173 2.042508,-0.421891 4.152111,-0.375533 7.931812,0.174298 4.018735,0.584604 5.131647,0.600079 6.193359,0.08611 0.777843,-0.376547 2.633026,-1.868059 2.495099,-2.005987 -0.03743,-0.03743 -0.746517,-0.196774 -1.575753,-0.354105 -0.829238,-0.15733 -2.244464,-0.510912 -3.144947,-0.785738 l -1.637241,-0.499681 1.036659,-2.5903 c 0.570163,-1.424666 1.285546,-3.160382 1.589741,-3.857146 0.304196,-0.696767 0.553083,-1.313607 0.553083,-1.370757 0,-0.05715 -0.675925,-0.537497 -1.502055,-1.067437 -0.826129,-0.529941 -1.859439,-1.351244 -2.296241,-1.825118 -2.474127,-2.684111 -2.981363,-7.270032 -1.237677,-11.189843 0.65016,-1.461561 1.673632,-2.556266 4.465973,-4.776798 1.41075,-1.121859 3.365679,-2.826174 4.344287,-3.787366 l 1.779287,-1.747619 -0.952815,-0.924107 C 27.778931,12.470519 27.474904,11.3559 27.935209,9.52787 c 0.409399,-1.6258709 2.323653,-3.0818966 4.051808,-3.0818966 1.476824,0 3.026153,0.9687251 3.751874,2.3458786 0.307806,0.584103 0.413905,1.109982 0.408372,2.024121 -0.0089,1.473779 -0.327902,2.168755 -1.427388,3.109875 l -0.792108,0.678015 1.499624,1.547563 c 0.824796,0.85116 2.807909,2.600424 4.40692,3.887255 3.197035,2.572864 3.814254,3.233046 4.626871,4.948929 1.758706,3.713599 1.317614,8.257444 -1.072261,11.045722 -0.378243,0.441298 -1.409781,1.282806 -2.292309,1.87002 -0.882527,0.587214 -1.604596,1.109571 -1.604596,1.160795 0,0.05122 0.248887,0.663214 0.553083,1.359981 0.304196,0.696764 1.02038,2.434479 1.591524,3.861584 l 1.038439,2.594741 -2.019024,0.579441 c -1.110461,0.318695 -2.524568,0.668357 -3.142454,0.77703 -0.617891,0.108672 -1.15598,0.23013 -1.195754,0.269904 -0.141286,0.141284 1.700325,1.627582 2.490827,2.010257 1.061713,0.513967 2.174623,0.498492 6.19336,-0.08611 1.795907,-0.26125 4.00547,-0.473516 4.91014,-0.471701 2.770543,0.0055 5.644786,0.81104 6.948962,1.947388 l 0.70504,0.614313 -1.466908,2.375 c -0.806799,1.30625 -1.488813,2.403208 -1.515586,2.437681 -0.02677,0.03448 -0.273139,-0.08439 -0.547478,-0.264143 -0.649957,-0.425868 -2.419507,-0.836832 -3.619171,-0.840524 -0.522499,-0.0015 -3.044749,0.295423 -5.605,0.660069 -2.56025,0.364646 -5.009369,0.663876 -5.442485,0.664955 -2.612274,0.0065 -6.251623,-2.322235 -7.017178,-4.490151 l -0.345048,-0.977113 -0.429518,1.072113 c -0.545332,1.361202 -1.729142,2.447883 -3.779191,3.469119 -2.136193,1.06415 -3.144861,1.095094 -8.731579,0.267862 z m 11.277414,-5.942368 c 0.192263,-0.481775 0.582131,-2.043381 0.59294,-2.375 0.0026,-0.07838 -0.248847,-0.1425 -0.558671,-0.1425 -0.389751,0 -0.633775,0.131718 -0.792004,0.4275 -0.12578,0.235125 -0.697552,0.919125 -1.270606,1.52 l -1.041918,1.0925 1.430871,0 c 1.383734,0 1.43774,-0.01721 1.639387,-0.5225 z m 5.769526,0.05364 c -0.306468,-0.257878 -0.882991,-0.941878 -1.281159,-1.52 -0.59041,-0.857248 -0.823258,-1.051136 -1.262364,-1.051136 -0.39384,0 -0.538417,0.09278 -0.538417,0.345515 0,0.33965 0.52745,2.273031 0.696214,2.551985 0.04742,0.07837 0.728976,0.1425 1.514575,0.1425 l 1.428365,0 -0.557215,-0.468864 z m -9.82694,-5.540461 c 3.44432,-0.626613 8.922067,-0.525753 12.52082,0.23054 0.720953,0.151512 1.341554,0.244743 1.379117,0.207182 0.08539,-0.08539 -1.037324,-2.826782 -1.241177,-3.030635 -0.08227,-0.08227 -1.168645,-0.284556 -2.414171,-0.449521 -2.586852,-0.342623 -8.235299,-0.252522 -10.310244,0.164468 l -1.205652,0.242291 -0.4714,1.14 c -0.924998,2.23695 -0.896004,2.054805 -0.303251,1.905068 0.289277,-0.07308 1.209958,-0.257302 2.045958,-0.409393 z M 30.65803,39.38657 c 1.92173,-0.0782 3.732315,-0.04221 4.919231,0.09777 1.03302,0.12183 1.916083,0.183645 1.962363,0.137365 0.04628,-0.04628 -0.094,-0.486868 -0.311731,-0.979087 -0.217731,-0.492218 -0.395876,-1.128665 -0.395876,-1.414326 0,-0.484675 -0.06666,-0.527389 -0.9975,-0.639196 -1.301681,-0.156349 -6.032481,-0.157011 -7.524629,-0.0011 -1.120559,0.117121 -1.16787,0.143423 -1.16787,0.649247 0,0.289949 -0.171,0.926107 -0.380001,1.413685 -0.209,0.487578 -0.38,0.93187 -0.38,0.987316 0,0.05545 0.277875,0.04934 0.6175,-0.01358 0.339625,-0.06292 1.985956,-0.17008 3.658512,-0.238138 z m 2.268215,-7.142869 c 0.206148,-0.294318 0.295772,-0.870052 0.295772,-1.9 l 0,-1.477724 1.601428,0 c 1.791842,0 2.198572,-0.210898 2.198572,-1.14 0,-0.929101 -0.40673,-1.14 -2.198572,-1.14 l -1.601428,0 0,-1.615 c 0,-1.791271 -0.303539,-2.375 -1.235,-2.375 -0.931461,0 -1.235,0.583729 -1.235,2.375 l 0,1.615 -1.552539,0 c -1.724451,0 -2.24746,0.257608 -2.24746,1.106988 0,0.925657 0.466967,1.173012 2.214448,1.173012 l 1.585552,0 0,1.477724 c 0,1.798697 0.278443,2.322276 1.235,2.322276 0.449538,0 0.732588,-0.12726 0.939227,-0.422276 z"
       id="path3220"
       inkscape:connector-curvature="0" />
    <path
       style="fill:#efefef"
       d="m 28.670186,50.1 c 1.039771,-1.219865 1.827809,-1.808066 2.081911,-1.553964 0.183839,0.183839 -0.472294,2.408764 -0.779977,2.644873 -0.162892,0.125 -0.775269,0.227273 -1.360837,0.227273 l -1.06467,0 L 28.670186,50.1 z"
       id="path3222"
       inkscape:connector-curvature="0" />
    <path
       style="fill:#efefef"
       d="M 33.992534,51.279034 C 33.769196,51.135235 33.2,49.383331 33.2,48.839727 c 0,-0.710903 0.6927,-0.295854 1.875759,1.123909 l 1.212042,1.454546 -1.0439,-0.0028 c -0.574146,-0.0015 -1.137261,-0.0629 -1.251367,-0.136363 l 0,-10e-7 z"
       id="path3224"
       inkscape:connector-curvature="0" />
    <path
       style="fill:#efefef"
       d="m 24.31392,44.827273 c 0.209738,-0.525 0.459765,-1.173126 0.555615,-1.440279 0.153612,-0.428147 0.329034,-0.51437 1.479642,-0.727273 1.784018,-0.330106 9.965357,-0.290346 11.486353,0.05582 l 1.090076,0.248093 0.534452,1.314866 c 0.293949,0.723176 0.496771,1.352547 0.450716,1.398603 -0.04606,0.04606 -1.186183,-0.08263 -2.533619,-0.285958 -2.101509,-0.317123 -3.018682,-0.35605 -6.449882,-0.273746 -2.563085,0.06148 -4.489858,0.197976 -5.363637,0.379968 -0.75,0.156212 -1.423806,0.284117 -1.497347,0.284235 -0.07354,1.18e-4 0.03789,-0.429331 0.247631,-0.954331 z"
       id="path3226"
       inkscape:connector-curvature="0" />
    <path
       style="fill:#efefef"
       d="M 26.845561,38.710726 C 27.040502,38.197681 27.2,37.618038 27.2,37.422629 c 0,-0.195409 0.143182,-0.428803 0.318182,-0.518652 0.739599,-0.37973 8.338247,-0.412143 8.943381,-0.03815 0.107327,0.06633 0.311538,0.565475 0.453802,1.109207 0.142264,0.543731 0.307005,1.113115 0.36609,1.265297 0.09425,0.242767 -0.132664,0.258307 -1.85065,0.126736 -1.901578,-0.145632 -6.907176,-0.04206 -8.267062,0.171057 l -0.672622,0.10541 0.35444,-0.932808 0,0 z"
       id="path3228"
       inkscape:connector-curvature="0" />
    <path
       style="fill:#efefef"
       d="m 31.176808,32.208739 c -0.156924,-0.188881 -0.273119,-0.89741 -0.31308,-1.909091 l -0.06354,-1.608739 -1.527364,0 c -1.28494,0 -1.585081,-0.05772 -1.891001,-0.363636 -0.430295,-0.430296 -0.455435,-0.713994 -0.105675,-1.192522 0.215191,-0.294416 0.528829,-0.363361 1.891651,-0.415827 l 1.63369,-0.06289 0.0629,-1.600098 c 0.06899,-1.755265 0.372655,-2.365023 1.177791,-2.365023 0.664798,0 0.97848,0.693235 1.101322,2.433918 l 0.11052,1.566082 1.324794,0 c 1.833549,0 2.257558,0.185771 2.257558,0.989103 0,0.845058 -0.355969,1.010897 -2.169866,1.010897 l -1.466498,0 -0.01084,0.863636 c -0.01659,1.321853 -0.272609,2.61037 -0.554078,2.788603 -0.411518,0.260584 -1.189701,0.188859 -1.458276,-0.134409 l 0,0 z"
       id="path3230"
       inkscape:connector-curvature="0" />
  </g>
</svg>
