<?xml version="1.0" encoding="UTF-8" standalone="no"?>
<!-- Created with Inkscape (http://www.inkscape.org/) -->

<svg
   xmlns:dc="http://purl.org/dc/elements/1.1/"
   xmlns:cc="http://creativecommons.org/ns#"
   xmlns:rdf="http://www.w3.org/1999/02/22-rdf-syntax-ns#"
   xmlns:svg="http://www.w3.org/2000/svg"
   xmlns="http://www.w3.org/2000/svg"
   xmlns:sodipodi="http://sodipodi.sourceforge.net/DTD/sodipodi-0.dtd"
   xmlns:inkscape="http://www.inkscape.org/namespaces/inkscape"
   width="64px"
   height="64px"
   id="svg2985"
   version="1.1"
   inkscape:version="0.48.1 "
   sodipodi:docname="wb.svg">
  <defs
     id="defs2987" />
  <sodipodi:namedview
     id="base"
     pagecolor="#ffffff"
     bordercolor="#666666"
     borderopacity="1.0"
     inkscape:pageopacity="0.0"
     inkscape:pageshadow="2"
     inkscape:zoom="5.5"
     inkscape:cx="0.54863636"
     inkscape:cy="32"
     inkscape:current-layer="layer1"
     showgrid="true"
     inkscape:document-units="px"
     inkscape:grid-bbox="true"
     inkscape:window-width="1365"
     inkscape:window-height="878"
     inkscape:window-x="-8"
     inkscape:window-y="-8"
     inkscape:window-maximized="1" />
  <metadata
     id="metadata2990">
    <rdf:RDF>
      <cc:Work
         rdf:about="">
        <dc:format>image/svg+xml</dc:format>
        <dc:type
           rdf:resource="http://purl.org/dc/dcmitype/StillImage" />
        <dc:title></dc:title>
      </cc:Work>
    </rdf:RDF>
  </metadata>
  <g
     id="layer1"
     inkscape:label="Layer 1"
     inkscape:groupmode="layer">
    <path
       style="fill:#000000"
       d="M 8.2506502,54.282273 6.8056088,51.248366 7.5422612,50.582845 C 8.5271027,49.6931 10.284413,48.827682 11.852652,48.46012 c 1.944528,-0.455757 3.864534,-0.279783 6.507503,0.596432 1.920051,0.63655 2.41566,0.726222 4.087229,0.739507 2.718012,0.02161 3.802416,-0.529853 4.273768,-2.173359 l 0.150642,-0.525258 -1.73832,-0.317901 c -1.784368,-0.326321 -3.174869,-0.832971 -3.773878,-1.375066 -0.276497,-0.250228 -0.338668,-0.610016 -0.335269,-1.940244 0.0047,-1.840876 0.305217,-2.721611 1.324885,-3.88295 0.953342,-1.085797 0.765995,-1.699123 -1.105577,-3.619337 -2.102227,-2.156866 -2.917853,-3.839702 -3.271766,-6.750451 -0.371537,-3.055694 0.368805,-5.406499 2.390321,-7.589977 1.185577,-1.280565 2.570518,-2.30514 4.267965,-3.157424 1.34564,-0.675644 3.930748,-2.378012 4.623482,-3.044697 l 0.538483,-0.518234 -0.657438,-0.541916 c -2.04933,-1.689231 -1.945797,-5.1143945 0.204277,-6.7580695 2.888137,-2.207904 6.938595,-0.186776 6.949113,3.4675215 0.0038,1.322725 -0.587216,2.562866 -1.598647,3.35443 l -0.580957,0.454666 0.826945,0.762251 c 0.732949,0.675609 2.186757,1.593362 5.643188,3.562406 0.568396,0.323801 1.659843,1.17798 2.425439,1.898175 2.410906,2.267939 3.318251,4.789404 2.915482,8.101978 -0.366706,3.015954 -1.188986,4.723493 -3.245026,6.738576 -1.817144,1.780946 -2.07745,2.541729 -1.218817,3.562158 0.928733,1.103737 1.468434,2.435874 1.56149,3.854207 0.08088,1.232792 0.04872,1.382666 -0.415023,1.933792 -0.56247,0.668458 -2.029998,1.228625 -4.164536,1.589639 -1.261934,0.21343 -1.294177,0.232867 -1.174867,0.70824 0.193434,0.770699 0.788339,1.479511 1.56617,1.866039 0.568492,0.282504 1.108183,0.351282 2.616242,0.33341 1.604607,-0.01901 2.174812,-0.11689 3.667617,-0.62954 2.739927,-0.940929 4.056316,-1.164039 5.664814,-0.9601 2.277961,0.288817 4.045434,1.059516 5.857187,2.554004 l 0.559618,0.46162 -1.499848,3.050766 c -0.824916,1.67792 -1.523804,3.050765 -1.553081,3.050765 -0.02928,0 -0.647644,-0.433696 -1.374145,-0.963769 -1.791016,-1.306767 -3.457012,-1.877065 -5.498482,-1.882224 -1.368502,-0.0035 -1.903321,0.104194 -3.895,0.784003 -2.13169,0.727597 -2.469945,0.789503 -4.412222,0.8075 l -2.103541,0.01949 -1.606471,-0.795649 c -0.942858,-0.466977 -1.948304,-1.142524 -2.433976,-1.635357 l -0.827505,-0.839705 -0.661438,0.732133 c -1.545815,1.711031 -3.909791,2.695511 -6.380751,2.657266 -1.440578,-0.0223 -2.003536,-0.139242 -3.989999,-0.828847 -2.177643,-0.755976 -2.434895,-0.802775 -4.402777,-0.800958 -2.509781,0.0023 -3.633818,0.372086 -5.515721,1.814486 -0.668526,0.512398 -1.2443553,0.931631 -1.2796218,0.931631 -0.035266,0 -0.7143892,-1.365258 -1.509162,-3.033906 z m 23.0295048,-5.896094 0,-0.95 -1.2825,-0.0026 c -0.705375,-0.0015 -1.459554,-0.05014 -1.675954,-0.108258 -0.391121,-0.105036 -0.438826,-0.02201 -0.882442,1.535852 -0.05413,0.190091 1.24085,0.38578 2.938396,0.44403 l 0.9025,0.03098 0,-0.95 z m 5.176802,0.635812 c 0.07799,-0.04806 0.01387,-0.33478 -0.1425,-0.637159 -0.156366,-0.302379 -0.284302,-0.69225 -0.284302,-0.866377 0,-0.2356 -0.109368,-0.287286 -0.4275,-0.202031 -0.235125,0.06301 -1.047375,0.115735 -1.805,0.117162 l -1.3775,0.0026 0,0.974476 0,0.974475 1.9475,-0.137881 c 1.071125,-0.07583 2.011311,-0.177199 2.089302,-0.225258 z M 25.200155,43.361017 c 4.435652,-1.002538 13.905718,-0.551081 15.903891,0.758173 0.232506,0.152344 0.468498,0.276989 0.524424,0.276989 0.05593,0 0.101685,-0.424188 0.101685,-0.942639 l 0,-0.94264 -0.985606,-0.292693 c -2.455452,-0.729191 -4.358141,-0.932976 -8.704394,-0.932269 -4.357253,7.6e-4 -6.546946,0.22922 -8.8825,0.926961 l -0.9975,0.298001 0,0.815973 c 0,0.448785 0.05334,0.86931 0.118526,0.934499 0.06519,0.06519 0.428564,-0.03825 0.807499,-0.229877 0.378936,-0.191621 1.330225,-0.493335 2.113975,-0.670478 z m -0.0914,-3.939482 c 3.275423,-2.206909 10.252537,-2.153666 14.005574,0.10688 l 1.089175,0.656038 -0.281675,-0.544701 c -0.154922,-0.299587 -0.281676,-0.810153 -0.281676,-1.134593 0,-0.529918 -0.10277,-0.635341 -1.010827,-1.036925 -4.074294,-1.801846 -9.369943,-1.792059 -13.456338,0.02487 -1.067382,0.47459 -1.071735,0.479908 -0.976157,1.192505 0.0528,0.393685 -0.0066,0.907584 -0.132092,1.141998 -0.254678,0.475871 -0.278943,0.485308 1.044016,-0.406073 z m 7.653398,-7.603356 c 0.152617,-0.152617 0.228,-1.000667 0.228,-2.565 l 0,-2.337 2.337,0 c 2.526644,0 2.793,-0.09293 2.793,-0.974428 0,-0.97223 -0.367947,-1.115572 -2.863572,-1.115572 l -2.266428,0 0,-2.337 c 0,-2.577263 -0.08314,-2.793 -1.076316,-2.793 -0.879117,0 -1.013684,0.389291 -1.013684,2.932509 l 0,2.197491 -2.21754,0 c -1.796811,0 -2.283462,0.05966 -2.565,0.314448 -0.432104,0.391049 -0.44554,0.972255 -0.03301,1.428092 0.270917,0.29936 0.625998,0.34746 2.565,0.34746 l 2.250552,0 0,2.266429 c 0,1.807055 0.06052,2.326945 0.298571,2.565 0.353336,0.353335 1.240615,0.393385 1.563429,0.07057 z"
       id="path3253"
       inkscape:connector-curvature="0" />
    <path
       style="fill:#ffffff"
       d="m 32.475909,48.469384 0,-0.8168 1.227273,-0.115909 c 2.144403,-0.202525 2.173462,-0.196092 2.414615,0.534609 0.119644,0.362526 0.146141,0.720961 0.05955,0.80562 -0.08579,0.08388 -0.953716,0.210289 -1.928716,0.280899 l -1.772727,0.128382 0,-0.816801 z"
       id="path3255"
       inkscape:connector-curvature="0" />
    <path
       style="fill:#ffffff"
       d="m 28.714338,49.070405 c -0.518865,-0.06312 -0.994112,-0.165482 -1.056106,-0.227476 -0.06199,-0.06199 0.01063,-0.407923 0.161385,-0.768732 0.303028,-0.725249 0.358873,-0.738538 2.265985,-0.539205 l 1.11758,0.11681 0,0.792281 0,0.792281 -0.772727,-0.0256 c -0.425,-0.01408 -1.197253,-0.07724 -1.716117,-0.140359 z"
       id="path3257"
       inkscape:connector-curvature="0" />
    <path
       style="fill:#ffffff"
       d="m 22.294091,43.349597 0,-0.795857 1.519165,-0.381017 c 2.228814,-0.559003 4.33179,-0.751558 8.208108,-0.751558 3.910784,0 6.093366,0.201052 8.136363,0.749493 l 1.409091,0.378269 0,0.817716 c 0,0.708262 -0.04259,0.799904 -0.318182,0.684639 -2.190257,-0.916058 -4.812281,-1.254486 -9.681818,-1.249644 -4.128417,0.0041 -6.118448,0.248404 -8.072047,0.990934 -0.510374,0.193985 -0.989316,0.35274 -1.064316,0.352791 -0.075,5e-5 -0.136364,-0.358044 -0.136364,-0.795766 z"
       id="path3259"
       inkscape:connector-curvature="0" />
    <path
       style="fill:#ffffff"
       d="m 24.294091,38.875583 c 0,-0.861748 0.0054,-0.869463 0.863636,-1.234499 2.385295,-1.01454 4.134679,-1.359273 6.863637,-1.352543 2.207054,0.0054 4.062054,0.33294 5.931022,1.047112 1.418145,0.541904 1.526261,0.647598 1.677274,1.639702 l 0.112485,0.738992 -1.133118,-0.544163 c -1.832918,-0.880231 -3.432911,-1.233856 -6.057009,-1.338697 -3.002288,-0.11995 -4.848923,0.205245 -6.848836,1.206091 l -1.409091,0.705171 0,-0.867166 z"
       id="path3261"
       inkscape:connector-curvature="0" />
    <path
       style="fill:#ffffff"
       d="m 31.304401,31.559544 c -0.216873,-0.309629 -0.283037,-0.899537 -0.283037,-2.523505 l 0,-2.119414 -2.253983,-0.07504 c -2.399771,-0.07989 -2.836926,-0.229188 -2.836926,-0.96886 0,-0.723834 0.425644,-0.869374 2.811337,-0.961278 l 2.251628,-0.08674 0.05943,-2.346611 c 0.06315,-2.493595 0.135673,-2.687469 1.007575,-2.693497 0.632596,-0.0044 0.779124,0.539961 0.779124,2.894354 l 0,2.193771 1.863637,0.001 c 1.025,5.64e-4 2.175088,0.0875 2.555751,0.193208 0.657752,0.182651 0.689347,0.225439 0.636364,0.861805 -0.06847,0.82243 -0.301153,0.89164 -3.101206,0.922457 l -1.954546,0.02151 0,2.193771 c 0,1.206575 -0.0847,2.352029 -0.188215,2.545455 -0.255325,0.47708 -0.996254,0.44825 -1.346929,-0.05241 z"
       id="path3263"
       inkscape:connector-curvature="0" />
  </g>
</svg>
