<?xml version="1.0" encoding="UTF-8" standalone="no"?>
<!-- Created with Inkscape (http://www.inkscape.org/) -->

<svg
   xmlns:dc="http://purl.org/dc/elements/1.1/"
   xmlns:cc="http://creativecommons.org/ns#"
   xmlns:rdf="http://www.w3.org/1999/02/22-rdf-syntax-ns#"
   xmlns:svg="http://www.w3.org/2000/svg"
   xmlns="http://www.w3.org/2000/svg"
   xmlns:sodipodi="http://sodipodi.sourceforge.net/DTD/sodipodi-0.dtd"
   xmlns:inkscape="http://www.inkscape.org/namespaces/inkscape"
   width="64px"
   height="64px"
   id="svg2985"
   version="1.1"
   inkscape:version="0.48.1 "
   sodipodi:docname="bn.svg">
  <defs
     id="defs2987" />
  <sodipodi:namedview
     id="base"
     pagecolor="#ffffff"
     bordercolor="#666666"
     borderopacity="1.0"
     inkscape:pageopacity="0.0"
     inkscape:pageshadow="2"
     inkscape:zoom="5.5"
     inkscape:cx="0.54863636"
     inkscape:cy="32"
     inkscape:current-layer="layer1"
     showgrid="true"
     inkscape:document-units="px"
     inkscape:grid-bbox="true"
     inkscape:window-width="1365"
     inkscape:window-height="878"
     inkscape:window-x="-8"
     inkscape:window-y="-8"
     inkscape:window-maximized="1" />
  <metadata
     id="metadata2990">
    <rdf:RDF>
      <cc:Work
         rdf:about="">
        <dc:format>image/svg+xml</dc:format>
        <dc:type
           rdf:resource="http://purl.org/dc/dcmitype/StillImage" />
        <dc:title></dc:title>
      </cc:Work>
    </rdf:RDF>
  </metadata>
  <g
     id="layer1"
     inkscape:label="Layer 1"
     inkscape:groupmode="layer">
    <path
       style="fill:#000000"
       d="m 26.786657,57.980901 c -7.403431,-0.466112 -11.947235,-1.620335 -12.542526,-3.186072 -0.425379,-1.118832 0.377683,-4.157114 1.53575,-5.810308 0.42006,-0.599657 0.763746,-1.217484 0.763746,-1.37295 0,-0.808541 -0.814264,-1.889795 -3.471634,-4.609954 -3.1936114,-3.26907 -4.5610393,-5.143344 -5.4676528,-7.494271 -1.9681891,-5.103685 -0.382052,-10.459318 3.8284378,-12.92683 1.171712,-0.686669 3.548098,-1.269406 5.176603,-1.269406 3.565902,0 7.710293,2.010742 10.691139,5.187038 0.804152,0.856879 1.400045,1.386962 1.324208,1.177962 -0.422886,-1.165447 -1.082118,-4.3989 -1.184927,-5.81194 -0.143982,-1.978917 0.128436,-3.28012 0.913659,-4.36409 0.572166,-0.789851 1.78587,-1.49702 2.582668,-1.504797 0.419351,-0.0041 0.4275,-0.04763 0.4275,-2.284173 l 0,-2.28 -1.615,0 -1.615,0 0,-0.665 0,-0.665 1.615,0 1.615,0 0,-2.0900002 0,-2.09 0.665,0 0.665,0 0,2.09 0,2.0900002 1.615,0 1.615,0 0,0.665 0,0.665 -1.615,0 -1.615,0 0,2.28 c 0,2.236541 0.0082,2.280079 0.4275,2.284173 1.16784,0.0114 2.723502,1.20512 3.26742,2.507225 0.500804,1.198887 0.389977,3.951923 -0.27492,6.829276 -0.3135,1.356674 -0.57,2.518666 -0.57,2.582202 0,0.06354 0.317096,-0.263241 0.70466,-0.726176 1.595115,-1.905327 3.99575,-3.744873 6.107902,-4.680332 6.253016,-2.769422 12.564694,-0.502453 14.390469,5.168632 0.39918,1.239904 0.488974,1.887625 0.487279,3.515 -0.0045,4.3211 -1.399564,6.923357 -6.627669,12.362768 -1.819742,1.893293 -2.734486,2.992715 -2.895218,3.479738 -0.22431,0.67967 -0.203173,0.759863 0.465922,1.767593 1.539693,2.318948 2.212016,5.543436 1.354046,6.494076 -1.391128,1.541391 -7.441251,2.593407 -15.887391,2.762559 -2.35125,0.04709 -5.436888,0.01246 -6.856971,-0.07694 z M 16.376975,53.626103 c 2.382826,-1.045806 7.76668,-1.594166 15.651653,-1.594166 7.884971,0 13.268826,0.54836 15.651653,1.594166 0.457407,0.200754 0.863532,0.365007 0.9025,0.365007 0.112221,0 0.07731,-1.191513 -0.04868,-1.661641 -0.233442,-0.871038 -3.877733,-1.621889 -9.570471,-1.971854 -3.922355,-0.241129 -14.246601,-0.117082 -17.005,0.204316 -2.220969,0.258778 -4.511175,0.714708 -5.423252,1.079649 -0.74598,0.298482 -1.131749,0.9471 -1.131749,1.902882 0,0.536915 -0.05371,0.53241 0.973348,0.08164 z m 4.82647,-5.847702 c 1.181831,-0.300578 2.363123,-0.337322 10.920183,-0.339663 8.494092,-0.0023 9.742151,0.03521 10.877504,0.327138 1.298511,0.333883 3.434654,1.304669 3.654868,1.660982 0.06603,0.106839 0.197931,0.194252 0.293115,0.194252 0.09518,0 -0.03811,-0.311182 -0.296214,-0.691514 -0.263716,-0.388607 -0.469273,-0.965212 -0.469273,-1.316349 0,-0.586418 -0.06717,-0.650066 -1.0925,-1.035234 -2.547338,-0.956912 -3.319433,-1.018269 -12.9675,-1.03048 -9.707559,-0.01229 -10.567447,0.05708 -13.201187,1.064956 -1.005668,0.384848 -1.048814,0.429757 -1.048814,1.0917 0,0.488803 -0.168707,0.895012 -0.577885,1.391415 l -0.577886,0.701076 1.580203,-0.840621 c 0.869111,-0.46234 2.176535,-0.992287 2.905386,-1.177658 z m -2.697331,-4.531846 c 2.031395,-0.930002 6.787487,-1.592607 11.502609,-1.602506 l 1.400094,-0.0029 -0.137001,-1.827347 C 30.883572,34.63532 29.179606,30.58543 25.992113,27.265264 24.146731,25.343072 22.369805,24.194647 20.030601,23.412351 16.128439,22.107355 12.151546,22.987834 9.9614376,25.641649 8.8462695,26.992931 8.34637,28.432339 8.2318019,30.62195 8.0188936,34.691079 9.2889243,37.212227 13.947111,41.967464 l 2.460105,2.511357 0.533662,-0.38 c 0.293515,-0.209 0.99787,-0.592523 1.565236,-0.852272 z m -3.740889,-3.326453 c -1.934183,-2.034197 -3.195613,-3.799543 -3.929307,-5.498992 -0.366881,-0.849801 -0.45266,-1.382159 -0.459221,-2.85 -0.01102,-2.466055 0.379886,-3.553712 1.779854,-4.952204 2.165885,-2.1636 5.300778,-2.436326 8.852076,-0.770104 4.187886,1.964902 7.128128,6.766618 7.587719,12.391521 l 0.118002,1.444211 -3.09286,0.115013 c -3.6174,0.134516 -6.000793,0.579646 -7.70212,1.438472 -0.646197,0.3262 -1.211396,0.593091 -1.255997,0.593091 -0.0446,0 -0.898766,-0.859953 -1.898146,-1.911008 z m 35.264751,2.17595 c 2.666878,-2.749686 3.992125,-4.487983 4.914354,-6.446047 1.953331,-4.147289 1.096422,-8.820537 -2.058637,-11.22698 -1.338983,-1.021276 -2.736142,-1.454314 -4.994499,-1.548003 -1.862758,-0.07728 -2.123237,-0.04115 -3.863245,0.535828 -2.98324,0.989223 -5.382174,2.736786 -7.360025,5.361592 -1.403456,1.862527 -2.879313,4.863398 -3.387679,6.888192 -0.357563,1.424155 -0.771516,4.318881 -0.775059,5.419904 l -0.0015,0.484428 4.7025,0.229816 c 6.134226,0.29979 7.882399,0.659811 9.7375,2.005355 0.36575,0.265286 0.728606,0.486531 0.806348,0.491656 0.07774,0.0051 1.103743,-0.98296 2.28,-2.195741 z M 46.347147,41.543448 C 44.570581,40.578263 40.19658,39.74111 36.930195,39.74111 l -1.63397,0 0.12084,-1.8525 c 0.149443,-2.290955 0.509154,-3.688116 1.45909,-5.667265 2.420592,-5.043194 7.427246,-8.172171 11.686411,-7.303581 3.292465,0.671447 5.070456,2.93132 5.085147,6.463346 0.0076,1.816913 -0.379886,3.147711 -1.42937,4.909623 -0.661071,1.10983 -4.793384,5.54552 -5.15436,5.53277 -0.118446,-0.0042 -0.441022,-0.130209 -0.716836,-0.280055 z M 34.77742,25.622982 c 0.741031,-2.916025 0.903105,-5.382891 0.438313,-6.671412 -0.4663,-1.292699 -1.075191,-1.695696 -2.700831,-1.787553 -2.797056,-0.158048 -4.001274,1.009077 -4.001274,3.878024 0,1.614094 0.384147,3.339629 1.646108,7.394069 0.58547,1.881 1.237609,3.997414 1.449201,4.70314 l 0.38471,1.283141 1.106871,-3.278141 c 0.608779,-1.802976 1.363385,-4.287547 1.676902,-5.521268 z m -3.679948,-1.051654 c -1.33197,-3.891241 -1.136219,-4.970218 0.901708,-4.970218 1.434684,0 1.730656,0.360746 1.594955,1.944014 -0.09941,1.159857 -1.375914,5.085986 -1.653608,5.085986 -0.0759,0 -0.455271,-0.926902 -0.843055,-2.059782 z"
       id="path3180"
       inkscape:connector-curvature="0" />
    <path
       style="fill:#ffffff"
       d="m 15.566818,53.246503 c 0,-1.288736 1.347817,-1.877129 5.636364,-2.460571 2.951035,-0.401478 14.027509,-0.580218 18.090909,-0.291931 3.902174,0.276848 7.211067,0.811744 8.272727,1.337321 0.763273,0.377859 0.822013,0.458505 0.875258,1.201681 0.05059,0.706132 0.01961,0.782167 -0.272727,0.669248 -3.109318,-1.201024 -8.097711,-1.738615 -16.13289,-1.738615 -7.09959,0 -13.13436,0.569897 -15.371237,1.451591 -0.511526,0.201625 -0.967928,0.366591 -1.014226,0.366591 -0.0463,0 -0.08418,-0.240892 -0.08418,-0.535315 z"
       id="path3182"
       inkscape:connector-curvature="0" />
    <path
       style="fill:#ffffff"
       d="m 17.594085,48.827273 c 0.122034,-0.225 0.269405,-0.694981 0.327492,-1.044401 0.120537,-0.725089 0.435745,-0.924156 2.342124,-1.479149 1.689526,-0.491863 5.003972,-0.690446 11.575844,-0.693562 7.376895,-0.0035 10.488979,0.197974 12.404328,0.803032 1.58608,0.501043 1.764438,0.636556 1.920992,1.459534 0.05707,0.3 0.158026,0.685698 0.22435,0.857107 0.0973,0.251455 -0.15486,0.192929 -1.30545,-0.303 -2.35903,-1.016792 -2.654609,-1.037875 -13.607856,-0.970653 -11.057465,0.06786 -10.38443,2.28e-4 -12.952588,1.301612 -1.148953,0.582218 -1.209798,0.586768 -0.929236,0.06948 z"
       id="path3184"
       inkscape:connector-curvature="0" />
    <path
       style="fill:#ffffff"
       d="m 46.501669,43.407156 c -1.752163,-1.061258 -4.174708,-1.476125 -10.02576,-1.716936 -3.838134,-0.157965 -3.818182,-0.15306 -3.818182,-0.938761 0,-1.184993 0.561678,-4.456818 1.006015,-5.860132 0.471471,-1.489008 1.762511,-4.120877 2.664699,-5.432162 0.944298,-1.37249 2.859281,-3.275507 4.178903,-4.15279 1.476645,-0.981672 3.869243,-1.996775 5.352811,-2.271027 1.429618,-0.264279 4.193104,0.0641 5.47386,0.650451 4.855789,2.223054 5.960174,8.596203 2.401303,13.857373 -1.0659,1.575748 -5.105651,6.041952 -5.804863,6.41765 -0.181783,0.09767 -0.658232,-0.08695 -1.428786,-0.553666 l 0,0 z m 2.562265,-3.305479 c 3.782935,-3.890231 4.909899,-6.172628 4.629028,-9.37499 -0.286987,-3.272099 -2.005858,-5.224956 -5.171113,-5.875043 -1.967015,-0.40399 -4.728739,0.219422 -6.670868,1.505835 -3.838856,2.542753 -6.167366,6.733557 -6.555392,11.798256 l -0.11919,1.555735 2.786118,0.203677 c 3.285206,0.240162 6.143594,0.793742 7.786119,1.507928 0.65,0.282625 1.254465,0.51987 1.343256,0.527212 0.08879,0.0073 0.976209,-0.824532 1.972042,-1.84861 l 0,0 z"
       id="path3186"
       inkscape:connector-curvature="0" />
    <path
       style="fill:#ffffff"
       d="M 14.202146,42.064936 C 11.316572,38.991799 10.224497,37.59171 9.3721961,35.872727 7.5560814,32.209853 8.1180545,27.538615 10.660991,25.159996 c 4.251953,-3.977204 11.586376,-2.4495 16.255224,3.385839 2.533216,3.166128 3.856223,6.705715 4.250696,11.372347 L 31.309076,41.6 l -2.189311,0.0016 c -2.31213,0.0018 -5.982357,0.370086 -8.046122,0.807506 -1.613839,0.342056 -2.613006,0.705233 -3.784958,1.375756 l -0.957272,0.547697 -2.129267,-2.267671 0,1.2e-5 z m 3.616635,-0.650552 c 1.922239,-0.871585 3.865392,-1.251653 7.566219,-1.479902 1.85,-0.1141 3.382935,-0.221242 3.40652,-0.238094 0.09832,-0.07025 -0.362913,-3.362286 -0.612144,-4.369115 -1.284427,-5.188766 -4.285212,-8.668362 -8.794376,-10.197626 -1.463855,-0.49646 -4.15232,-0.461318 -5.325592,0.06962 -1.208235,0.546753 -2.728885,2.037209 -3.246698,3.18223 -0.372763,0.824278 -0.42771,1.226075 -0.42771,3.127599 0,2.068405 0.02946,2.24325 0.566683,3.363636 0.727526,1.517257 1.954881,3.178382 3.956514,5.354821 0.878157,0.954848 1.619731,1.736088 1.647942,1.736088 0.02821,0 0.5964,-0.247163 1.262642,-0.549252 l 0,0 z"
       id="path3188"
       inkscape:connector-curvature="0" />
    <path
       style="fill:#ffffff"
       d="m 31.876022,33.690909 c -0.06034,-0.2 -0.610164,-2 -1.221833,-4 -2.115814,-6.918172 -2.441216,-9.136405 -1.587371,-10.820951 0.58792,-1.159904 1.345737,-1.543229 3.045455,-1.540478 2.536321,0.0041 3.190879,0.792509 3.168149,3.815975 -0.0164,2.181318 -0.189579,3.040353 -1.447832,7.181818 -1.437358,4.730979 -1.826006,5.796398 -1.956568,5.363636 z M 32.347719,26.1 c 0.43964,-0.938268 1.222972,-3.660768 1.341678,-4.663054 0.08143,-0.687576 0.03323,-1.031383 -0.19303,-1.376694 C 33.225658,19.647097 33.075644,19.6 32.030369,19.6 c -1.05343,0 -1.20204,0.04766 -1.558968,0.5 -0.320992,0.406795 -0.374268,0.648939 -0.285803,1.298985 0.201428,1.480101 1.452752,5.291924 1.737203,5.291924 0.08142,0 0.272634,-0.265909 0.424918,-0.590909 z"
       id="path3190"
       inkscape:connector-curvature="0" />
  </g>
</svg>
