<?xml version="1.0" encoding="UTF-8" standalone="no"?>
<!-- Created with Inkscape (http://www.inkscape.org/) -->

<svg
   xmlns:dc="http://purl.org/dc/elements/1.1/"
   xmlns:cc="http://creativecommons.org/ns#"
   xmlns:rdf="http://www.w3.org/1999/02/22-rdf-syntax-ns#"
   xmlns:svg="http://www.w3.org/2000/svg"
   xmlns="http://www.w3.org/2000/svg"
   xmlns:sodipodi="http://sodipodi.sourceforge.net/DTD/sodipodi-0.dtd"
   xmlns:inkscape="http://www.inkscape.org/namespaces/inkscape"
   width="64px"
   height="64px"
   id="svg2985"
   version="1.1"
   inkscape:version="0.48.1 "
   sodipodi:docname="wn.svg">
  <defs
     id="defs2987" />
  <sodipodi:namedview
     id="base"
     pagecolor="#ffffff"
     bordercolor="#666666"
     borderopacity="1.0"
     inkscape:pageopacity="0.0"
     inkscape:pageshadow="2"
     inkscape:zoom="5.5"
     inkscape:cx="0.54863636"
     inkscape:cy="32"
     inkscape:current-layer="layer1"
     showgrid="true"
     inkscape:document-units="px"
     inkscape:grid-bbox="true"
     inkscape:window-width="1365"
     inkscape:window-height="878"
     inkscape:window-x="-8"
     inkscape:window-y="-8"
     inkscape:window-maximized="1" />
  <metadata
     id="metadata2990">
    <rdf:RDF>
      <cc:Work
         rdf:about="">
        <dc:format>image/svg+xml</dc:format>
        <dc:type
           rdf:resource="http://purl.org/dc/dcmitype/StillImage" />
        <dc:title></dc:title>
      </cc:Work>
    </rdf:RDF>
  </metadata>
  <g
     id="layer1"
     inkscape:label="Layer 1"
     inkscape:groupmode="layer">
    <path
       style="fill:#000000"
       d="m 21.169045,57.587744 c 0,-1.088127 0.423499,-4.485779 0.689301,-5.530131 0.687669,-2.701893 2.236864,-4.807935 4.663898,-6.340294 3.318646,-2.095301 5.273305,-5.536836 6.298855,-11.090291 l 0.271571,-1.470583 -1.230567,1.329125 c -1.255537,1.356098 -1.600066,1.563109 -5.780254,3.473097 -1.454855,0.664743 -2.109181,1.277436 -4.943799,4.629234 -3.481702,4.116949 -4.189417,4.600755 -6.752862,4.616373 -3.110463,0.01894 -6.4576024,-2.064021 -7.7720544,-4.836661 -0.375358,-0.79176 -0.450686,-1.251917 -0.452232,-2.762581 -0.003,-2.904674 0.734954,-4.947775 2.860942,-7.921069 4.0295054,-5.635454 4.3302554,-6.23338 4.5529784,-9.051841 0.0919,-1.16298 0.245768,-2.375954 0.341924,-2.695497 0.311249,-1.034327 1.176557,-2.64114 2.045604,-3.798535 0.46686,-0.621762 0.900824,-1.333615 0.964366,-1.581895 0.06354,-0.24828 -0.02453,-1.235535 -0.195707,-2.1939 -0.235269,-1.317167 -0.270287,-2.064943 -0.143464,-3.0635815 0.168994,-1.330697 0.699911,-2.7461002 1.030062,-2.7461002 0.098,0 0.714194,0.3824905 1.36932,0.8499788 1.432323,1.0220837 3.687125,3.4231449 4.300605,4.5795639 0.287413,0.541778 0.544821,0.808803 0.730202,0.757481 0.157472,-0.0436 0.63357,-0.133053 1.057996,-0.198794 0.764129,-0.118359 0.773891,-0.13021 0.997,-1.210396 0.303286,-1.4683639 1.548666,-3.9677693 2.36327,-4.7429479 l 0.662163,-0.6301122 0.68929,0.9389994 c 0.961183,1.3093942 2.334623,3.9523707 2.593329,4.9904707 l 0.216626,0.869243 1.838509,0.215706 c 10.1861,1.195102 17.119678,8.498938 20.736256,21.843583 1.628118,6.007513 2.657982,14.26748 2.665035,21.374724 l 0.0019,1.8525 -18.335,0 -18.335,0 0,-0.454869 z m 34.00989,-1.967631 c -6e-5,-0.287375 -0.08941,-2.10425 -0.198565,-4.0375 -0.681439,-12.069543 -3.52458,-22.280889 -8.041047,-28.88 -1.224092,-1.788548 -4.019345,-4.628992 -5.596526,-5.687005 -2.283051,-1.531528 -4.789151,-2.444791 -7.586252,-2.764552 l -1.1875,-0.135754 0,0.865046 c 0,0.852584 0.01026,0.866696 0.7125,0.979564 3.822305,0.614345 6.082243,1.646616 8.43138,3.851196 3.736517,3.506587 6.303882,8.440522 8.029757,15.431505 1.25958,5.102165 1.877095,9.648502 2.238766,16.4825 l 0.233784,4.4175 1.481907,0 1.481907,0 -1.11e-4,-0.5225 z M 14.709046,45.773331 c 0,-0.164605 0.344605,-0.879339 0.765789,-1.588296 0.511273,-0.860601 0.804235,-1.61363 0.881465,-2.265717 l 0.115676,-0.976705 -0.858909,0 -0.85891,0 -0.225198,0.894345 c -0.123859,0.491889 -0.514355,1.368264 -0.867768,1.9475 -0.840107,1.376913 -1.003445,2.033378 -0.535958,2.154042 0.827137,0.213493 1.583813,0.134584 1.583813,-0.165169 z m -4.112151,-5.458567 c 1.58715,-1.58715 2.331299,-3.943028 1.291963,-4.090183 -0.866871,-0.122738 -3.0618634,2.78383 -3.0679564,4.062532 -0.0021,0.443418 0.333697,0.8455 0.706144,0.8455 0.1386,0 0.6200314,-0.368032 1.0698494,-0.817849 z m 25.14602,-8.587151 c 0.412838,-1.181997 0.792476,-3.147977 0.932798,-4.830564 l 0.127967,-1.534436 -0.866106,0 -0.866107,0 -0.125541,1.4725 c -0.156267,1.832928 -0.545197,3.451436 -1.143665,4.759295 l -0.460704,1.006795 1.067957,-0.0568 c 1.058792,-0.05631 1.070234,-0.06332 1.333401,-0.816795 z M 18.31932,24.697045 c 0.402243,-0.830923 0.759725,-0.979378 0.759725,-0.315495 0,0.594582 0.559704,1.171063 1.136983,1.171063 0.860803,0 1.381442,-0.805326 1.28794,-1.992184 -0.04129,-0.524049 -0.140676,-1.097222 -0.22087,-1.273717 -0.11775,-0.259151 0.0035,-0.361104 0.630071,-0.529824 0.774056,-0.208431 0.775876,-0.21111 0.775876,-1.141357 l 0,-0.932436 -0.9975,0.286631 c -2.496877,0.717474 -3.854175,1.788177 -4.78014,3.770806 -0.831571,1.780518 -0.829082,1.812081 0.142887,1.812081 0.820519,0 0.865621,-0.0305 1.265028,-0.855568 z m 5.367225,-8.366141 1.6625,-0.363925 0,-0.884357 0,-0.884356 -1.403486,0.265006 c -1.746701,0.329811 -3.352121,0.875171 -4.421955,1.502136 l -0.820806,0.481024 0.476221,0.719617 0.47622,0.719617 1.184403,-0.595418 c 0.651421,-0.32748 1.932528,-0.759184 2.846903,-0.959344 z"
       id="path3155"
       inkscape:connector-curvature="0" />
    <path
       style="fill:#ffffff"
       d="m 52.294091,55.635173 c 0,-0.862244 -0.563638,-8.873666 -0.7316,-10.398809 -0.82532,-7.4941 -2.599997,-14.343374 -4.893808,-18.887388 -1.027837,-2.036134 -2.81401,-4.481544 -4.464766,-6.112612 -2.392727,-2.36419 -4.201693,-3.345935 -7.532162,-4.087785 -0.938769,-0.209107 -1.775967,-0.42291 -1.86044,-0.475117 -0.08447,-0.05221 -0.153588,-0.406035 -0.153588,-0.786284 l 0,-0.691361 1.590909,0.251439 c 4.4909,0.709776 7.517144,2.482274 11.101836,6.502442 4.170974,4.677674 7.451583,13.431431 8.844792,23.600858 0.370936,2.707573 0.820474,8.167568 0.823658,10.003989 l 0.0024,1.409091 -1.363637,0 c -1.193751,0 -1.363636,-0.04092 -1.363636,-0.328463 z"
       id="path3157"
       inkscape:connector-curvature="0" />
    <path
       style="fill:#ffffff"
       d="m 33.661286,32.190909 c 0.567031,-1.352745 1.025459,-2.95373 1.191664,-4.161699 0.399046,-2.900242 0.278782,-2.611028 1.085743,-2.611028 0.680768,0 0.719034,0.02959 0.719034,0.556081 0,0.908168 -0.353198,3.065532 -0.767479,4.687833 -0.417603,1.635306 -0.624967,1.846995 -1.809264,1.846995 -0.456331,0 -0.529742,-0.05565 -0.419698,-0.318182 z"
       id="path3159"
       inkscape:connector-curvature="0" />
    <path
       style="fill:#ffffff"
       d="m 19.315002,17.151851 c -0.161501,-0.246481 -0.293638,-0.531466 -0.293638,-0.6333 0,-0.429882 3.025178,-1.564811 5.590909,-2.097491 l 0.590909,-0.12268 0,0.799384 0,0.799384 -1.409091,0.325542 c -0.775,0.179049 -1.980269,0.562191 -2.678375,0.851427 C 20.417609,17.363352 19.792928,17.6 19.727536,17.6 c -0.06539,0 -0.251033,-0.201667 -0.412534,-0.448149 z"
       id="path3161"
       inkscape:connector-curvature="0" />
    <path
       style="fill:#ffffff"
       d="m 16.475909,25.12545 c 0,-0.403021 0.995834,-2.236345 1.637771,-3.015127 0.541273,-0.656657 2.590643,-1.778879 3.8721,-2.120336 l 0.69169,-0.184308 -0.05533,0.760448 c -0.04945,0.679627 -0.127905,0.794508 -0.738233,1.080922 l -0.682907,0.320474 0.111803,1.22533 c 0.0988,1.082836 0.06568,1.283473 -0.284835,1.725329 -0.224026,0.282407 -0.576443,0.5 -0.809807,0.5 -0.507895,0 -1.014983,-0.529464 -1.014983,-1.059771 0,-0.629062 -0.497396,-0.463678 -1,0.332498 -0.392459,0.621695 -0.551157,0.727273 -1.09319,0.727273 -0.461675,0 -0.634083,-0.07959 -0.634083,-0.292732 z"
       id="path3163"
       inkscape:connector-curvature="0" />
    <path
       style="fill:#ffffff"
       d="m 9.2570123,40.905495 c -0.5572741,-0.345815 -0.2677141,-1.414131 0.7820117,-2.88519 1.195199,-1.674921 1.960812,-2.113412 2.178145,-1.247491 0.286462,1.141356 -2.195876,4.606954 -2.9601567,4.132681 z"
       id="path3165"
       inkscape:connector-curvature="0" />
    <path
       style="fill:#ffffff"
       d="m 13.076455,45.663133 c -0.06821,-0.177751 0.185748,-0.901895 0.621695,-1.772728 0.405355,-0.809723 0.834341,-1.779041 0.953303,-2.154041 0.203137,-0.640347 0.261175,-0.681819 0.954179,-0.681819 l 0.737886,0 -0.111524,0.813654 c -0.06134,0.447509 -0.482371,1.552055 -0.935629,2.454545 -0.803552,1.599967 -0.840073,1.640892 -1.464351,1.640892 -0.427683,0 -0.678529,-0.09977 -0.755559,-0.300503 z"
       id="path3167"
       inkscape:connector-curvature="0" />
  </g>
</svg>
