<?xml version="1.0" encoding="UTF-8" standalone="no"?>
<!-- Created with Inkscape (http://www.inkscape.org/) -->

<svg
   xmlns:dc="http://purl.org/dc/elements/1.1/"
   xmlns:cc="http://creativecommons.org/ns#"
   xmlns:rdf="http://www.w3.org/1999/02/22-rdf-syntax-ns#"
   xmlns:svg="http://www.w3.org/2000/svg"
   xmlns="http://www.w3.org/2000/svg"
   xmlns:sodipodi="http://sodipodi.sourceforge.net/DTD/sodipodi-0.dtd"
   xmlns:inkscape="http://www.inkscape.org/namespaces/inkscape"
   width="64px"
   height="64px"
   id="svg2985"
   version="1.1"
   inkscape:version="0.48.1 "
   sodipodi:docname="wp.svg">
  <defs
     id="defs2987" />
  <sodipodi:namedview
     id="base"
     pagecolor="#ffffff"
     bordercolor="#666666"
     borderopacity="1.0"
     inkscape:pageopacity="0.0"
     inkscape:pageshadow="2"
     inkscape:zoom="5.5"
     inkscape:cx="0.54863636"
     inkscape:cy="32"
     inkscape:current-layer="layer1"
     showgrid="true"
     inkscape:document-units="px"
     inkscape:grid-bbox="true"
     inkscape:window-width="1365"
     inkscape:window-height="878"
     inkscape:window-x="-8"
     inkscape:window-y="-8"
     inkscape:window-maximized="1" />
  <metadata
     id="metadata2990">
    <rdf:RDF>
      <cc:Work
         rdf:about="">
        <dc:format>image/svg+xml</dc:format>
        <dc:type
           rdf:resource="http://purl.org/dc/dcmitype/StillImage" />
        <dc:title></dc:title>
      </cc:Work>
    </rdf:RDF>
  </metadata>
  <g
     id="layer1"
     inkscape:label="Layer 1"
     inkscape:groupmode="layer">
    <path
       style="fill:#000000"
       d="m 14.695709,51.017504 c 0.0044,-3.575201 0.04448,-4.05858 0.429678,-5.188486 1.157414,-3.395041 3.975715,-6.301148 7.844037,-8.088423 1.410177,-0.651542 4.534048,-1.578615 5.40138,-1.602971 l 0.475,-0.01334 -0.475,-0.199042 c -3.625363,-1.51916 -5.280814,-2.837764 -6.3217,-5.03538 -0.559435,-1.181133 -0.612764,-1.453392 -0.607194,-3.09986 0.0049,-1.446914 0.08924,-1.987782 0.425153,-2.726348 1.297224,-2.852169 4.065295,-4.921206 7.537368,-5.633919 l 1.128627,-0.231672 -0.624412,-0.262545 c -1.883333,-0.791882 -3.126278,-2.624986 -3.142729,-4.634918 -0.0137,-1.67417 0.448505,-2.79555 1.593843,-3.86688 0.657983,-0.6154657 1.238637,-0.9542627 2.0335,-1.1864957 2.8705,-0.838665 5.933125,0.9544777 6.528499,3.8223867 0.508832,2.451027 -0.604654,4.628032 -2.950821,5.769225 l -0.713644,0.347122 1.386909,0.339879 c 3.18204,0.7798 5.709276,2.67513 6.889495,5.166861 0.56278,1.188168 0.612106,1.445737 0.612106,3.196302 0,1.766249 -0.04492,1.995234 -0.620863,3.165149 -1.016734,2.065275 -2.764278,3.45497 -6.124137,4.870076 l -0.475,0.200061 0.475,0.01334 c 0.867331,0.02436 3.991202,0.951429 5.40138,1.602971 2.858307,1.32062 5.059938,3.125211 6.573307,5.387885 1.521757,2.275216 1.753061,3.261247 1.850607,7.889024 l 0.0831,3.9425 -17.309197,0 -17.309199,0 0.0049,-3.9425 z"
       id="path3127"
       inkscape:connector-curvature="0" />
  </g>
</svg>
