<?xml version="1.0" encoding="UTF-8" standalone="no"?>
<!-- Created with Inkscape (http://www.inkscape.org/) -->

<svg
   xmlns:dc="http://purl.org/dc/elements/1.1/"
   xmlns:cc="http://creativecommons.org/ns#"
   xmlns:rdf="http://www.w3.org/1999/02/22-rdf-syntax-ns#"
   xmlns:svg="http://www.w3.org/2000/svg"
   xmlns="http://www.w3.org/2000/svg"
   xmlns:sodipodi="http://sodipodi.sourceforge.net/DTD/sodipodi-0.dtd"
   xmlns:inkscape="http://www.inkscape.org/namespaces/inkscape"
   width="64px"
   height="64px"
   id="svg2985"
   version="1.1"
   inkscape:version="0.48.1 "
   sodipodi:docname="wq.svg">
  <defs
     id="defs2987" />
  <sodipodi:namedview
     id="base"
     pagecolor="#ffffff"
     bordercolor="#666666"
     borderopacity="1.0"
     inkscape:pageopacity="0.0"
     inkscape:pageshadow="2"
     inkscape:zoom="5.5"
     inkscape:cx="1.8181818"
     inkscape:cy="32"
     inkscape:current-layer="layer1"
     showgrid="true"
     inkscape:document-units="px"
     inkscape:grid-bbox="true"
     inkscape:window-width="1365"
     inkscape:window-height="878"
     inkscape:window-x="-8"
     inkscape:window-y="-8"
     inkscape:window-maximized="1" />
  <metadata
     id="metadata2990">
    <rdf:RDF>
      <cc:Work
         rdf:about="">
        <dc:format>image/svg+xml</dc:format>
        <dc:type
           rdf:resource="http://purl.org/dc/dcmitype/StillImage" />
        <dc:title></dc:title>
      </cc:Work>
    </rdf:RDF>
  </metadata>
  <g
     id="layer1"
     inkscape:label="Layer 1"
     inkscape:groupmode="layer">
    <path
       style="fill:#000000"
       d="m 26.309584,57.948084 c -4.478521,-0.228885 -8.749635,-0.973953 -10.420203,-1.817733 -1.19485,-0.603505 -1.455177,-0.988285 -1.450625,-2.14412 0.0046,-1.171274 0.402436,-2.215172 1.343659,-3.5258 0.552703,-0.769625 0.592155,-0.925824 0.520011,-2.058826 -0.0624,-0.98002 -0.254676,-1.583042 -0.958263,-3.005386 C 14.399532,43.486592 13.298085,39.887102 10.264742,28.79685 7.8158001,19.843235 7.9780571,20.342545 7.5158171,20.337677 c -0.688671,-0.0072 -1.897253,-0.670845 -2.525991,-1.386939 -1.485013,-1.691336 -0.912424,-4.435293 1.148733,-5.504938 2.162175,-1.12207 4.9339549,0.370204 5.2082829,2.80404 0.129602,1.149823 -0.248152,2.115945 -1.182713,3.024833 L 9.3598591,20.05685 13.78359,27.253717 c 2.433051,3.958278 4.515364,7.288503 4.627361,7.4005 0.144843,0.144843 0.203633,-2.713855 0.203633,-9.901817 l 0,-10.10545 -0.709907,-0.296619 c -2.002238,-0.836588 -2.861624,-3.050511 -1.930644,-4.9736581 0.74842,-1.54603 2.314338,-2.236532 4.248939,-1.8736 0.776782,0.145726 1.884087,1.040379 2.312108,1.868082 0.801091,1.5491401 0.111837,3.7657351 -1.448454,4.6581391 -0.471373,0.269601 -0.879073,0.504123 -0.906,0.52116 -0.06791,0.04297 6.587583,18.719072 6.800269,19.082369 0.09467,0.161715 0.174734,0.207837 0.177911,0.102493 0.0032,-0.105343 0.934289,-4.775302 2.069138,-10.377687 l 2.06336,-10.186156 -0.720934,-0.318075 c -2.160971,-0.953419 -2.844173,-3.6608491 -1.401665,-5.5545981 0.531962,-0.698371 1.865726,-1.397406 2.663365,-1.39589 2.449036,0.0047 4.30537,2.282962 3.697991,4.5385991 -0.257894,0.957746 -1.20308,2.074412 -2.058323,2.431756 -0.549184,0.229463 -0.619495,0.333473 -0.526743,0.779198 0.328016,1.57628 3.910529,19.980962 3.915366,20.114665 0.0032,0.08785 0.08324,0.02741 0.177911,-0.134305 0.21508,-0.367388 6.867335,-19.038418 6.800269,-19.086464 -0.02693,-0.01929 -0.420717,-0.239902 -0.875089,-0.490249 -1.13495,-0.625327 -1.791559,-1.772776 -1.779546,-3.109819 0.01075,-1.1968001 0.34713,-1.9236801 1.26191,-2.7268651 0.760443,-0.667679 1.610423,-0.884199 2.961433,-0.754383 2.294127,0.220436 3.678267,2.8024241 2.680199,4.9996671 -0.386922,0.851804 -1.325854,1.735434 -2.032508,1.912793 l -0.460356,0.115542 0.0074,10.191903 0.0074,10.191902 0.46257,-0.76 c 0.254412,-0.418 2.293269,-3.7525 4.530791,-7.41 l 4.068225,-6.65 -0.724005,-0.621461 c -2.591619,-2.224555 -1.042953,-6.367825 2.380155,-6.367825 2.319161,0 3.894746,2.068484 3.436437,4.511478 -0.232383,1.238708 -2.015594,2.745621 -3.264441,2.758635 -0.346435,0.0036 -0.470887,0.266814 -0.922823,1.951673 -3.050275,11.371747 -6.063415,21.405675 -6.997057,23.300608 -0.605876,1.229693 -0.802502,1.869047 -0.861956,2.802755 -0.07325,1.150374 -0.03925,1.267826 0.693874,2.396893 0.992009,1.52777 1.173402,2.03369 1.173402,3.272724 0,0.89417 -0.06787,1.072846 -0.567036,1.49287 -2.29117,1.927894 -11.930775,2.943681 -22.707964,2.392884 z m -7.119137,-4.253577 c 1.052045,-0.254739 2.784982,-0.574423 3.850973,-0.71041 2.657762,-0.339044 15.512774,-0.335648 17.993164,0.0048 2.455704,0.337014 5.534067,1.080623 6.487842,1.567204 l 0.786384,0.401183 -0.131716,-0.825195 c -0.197342,-1.236338 -0.514512,-1.582979 -1.77095,-1.935519 -2.936123,-0.823834 -7.925311,-1.260754 -14.39656,-1.260754 -6.677431,0 -11.811122,0.469233 -14.617696,1.336095 -1.175153,0.362968 -1.207397,0.390651 -1.414931,1.214845 -0.360569,1.431952 -0.325293,1.50047 0.544154,1.056911 0.41609,-0.212272 1.617291,-0.594373 2.669336,-0.849114 z m 0.209726,-4.728855 c 1.777374,-0.876295 4.077628,-1.366385 7.669411,-1.634038 5.085802,-0.378985 10.764883,-0.156894 14.31941,0.559985 1.533424,0.309261 2.366091,0.630475 4.82309,1.860575 0.07837,0.03924 0.1425,-0.401666 0.1425,-0.979784 l 0,-1.05113 -1.201369,-0.573359 C 42.307646,45.789836 40.123722,45.51685 32.104584,45.51685 c -8.140784,0 -10.405784,0.279057 -13.238632,1.631051 l -1.201368,0.573359 0,1.05113 c 0,0.578118 0.06413,1.019023 0.1425,0.979784 0.07837,-0.03924 0.795265,-0.393174 1.593089,-0.786522 z M 18.156057,44.12526 c 0.981507,-0.492319 3.285191,-1.079447 5.493527,-1.40011 2.351495,-0.341448 14.368035,-0.341419 16.72,4.1e-5 2.615401,0.379706 4.626167,0.94461 5.964341,1.675616 0.714622,0.390378 1.284322,0.59338 1.384399,0.493303 0.09353,-0.09353 0.216438,-0.461928 0.273127,-0.818659 0.09531,-0.599743 0.04111,-0.688448 -0.719399,-1.177578 -1.077621,-0.693082 -3.416818,-1.421593 -5.666678,-1.764815 -4.393604,-0.670252 -14.71439,-0.713703 -18.81079,-0.07919 -2.925759,0.453184 -5.192683,1.185575 -6.457669,2.086323 -0.507685,0.361506 -0.53367,0.437506 -0.343232,1.003888 0.341606,1.015972 0.528213,1.15505 0.986918,0.735543 0.21944,-0.200687 0.748396,-0.540151 1.175456,-0.75436 z"
       id="path3045"
       inkscape:connector-curvature="0" />
    <path
       style="fill:#ffffff"
       d="m 16.232474,44.36177 c -0.343362,-0.851861 -0.171445,-1.072806 1.374623,-1.76664 3.31538,-1.487854 8.128651,-2.03119 16.266648,-1.836226 6.588837,0.15785 10.475879,0.743502 12.7485,1.920788 1.220257,0.632128 1.36094,0.797284 1.221182,1.433598 -0.06978,0.317691 -0.235465,0.577619 -0.368198,0.577619 -0.132733,0 -0.789465,-0.245931 -1.459407,-0.546513 -1.454609,-0.652639 -3.462457,-1.180751 -5.452186,-1.434055 -2.384952,-0.303618 -9.555138,-0.423421 -13.545454,-0.226323 -5.00222,0.247079 -7.686188,0.807842 -9.649976,2.016172 l -0.865327,0.532441 -0.270405,-0.670861 z"
       id="path3047"
       inkscape:connector-curvature="0" />
    <path
       style="fill:#ffffff"
       d="m 17.745455,48.683305 0,-0.916695 1.227272,-0.553966 c 2.740716,-1.237101 5.786967,-1.610634 13.145474,-1.611905 7.196519,-0.0012 10.226661,0.378652 12.945435,1.622995 l 1.227273,0.561705 0,0.786068 c 0,0.432338 -0.04708,0.833148 -0.10462,0.890688 -0.05754,0.05754 -0.710753,-0.171604 -1.451584,-0.509211 -0.74083,-0.337607 -1.777841,-0.736047 -2.30447,-0.885421 -2.820359,-0.799974 -9.372499,-1.188795 -14.412053,-0.855249 -4.552711,0.301325 -6.908236,0.786662 -9.04027,1.862674 C 18.405764,49.363745 17.8944,49.6 17.841548,49.6 c -0.05285,0 -0.09609,-0.412513 -0.09609,-0.916695 z"
       id="path3049"
       inkscape:connector-curvature="0" />
    <path
       style="fill:#ffffff"
       d="m 16.006,53.907929 c 0.06622,-0.414136 0.246877,-0.892723 0.401452,-1.063526 0.357968,-0.395551 2.93881,-0.991349 5.974366,-1.379208 1.855147,-0.237036 3.928221,-0.302006 9.636364,-0.302006 7.744656,0 10.420618,0.194111 13.610409,0.987284 1.673727,0.41619 2.211018,0.830445 2.395124,1.846655 l 0.121356,0.669855 -1.310746,-0.455833 c -0.720909,-0.250708 -2.304005,-0.671 -3.517989,-0.933982 l -2.207245,-0.47815 -9,-0.0025 -9,-0.0025 -2.430258,0.504594 c -1.336641,0.277526 -2.961928,0.69758 -3.611748,0.933452 l -1.18149,0.428858 0.120405,-0.752976 0,0 z"
       id="path3051"
       inkscape:connector-curvature="0" />
  </g>
</svg>
