<?xml version="1.0" encoding="UTF-8" standalone="no"?>
<!-- Created with Inkscape (http://www.inkscape.org/) -->

<svg
   xmlns:dc="http://purl.org/dc/elements/1.1/"
   xmlns:cc="http://creativecommons.org/ns#"
   xmlns:rdf="http://www.w3.org/1999/02/22-rdf-syntax-ns#"
   xmlns:svg="http://www.w3.org/2000/svg"
   xmlns="http://www.w3.org/2000/svg"
   xmlns:sodipodi="http://sodipodi.sourceforge.net/DTD/sodipodi-0.dtd"
   xmlns:inkscape="http://www.inkscape.org/namespaces/inkscape"
   width="64px"
   height="64px"
   id="svg2985"
   version="1.1"
   inkscape:version="0.48.1 "
   sodipodi:docname="wk.svg">
  <defs
     id="defs2987" />
  <sodipodi:namedview
     id="base"
     pagecolor="#ffffff"
     bordercolor="#666666"
     borderopacity="1.0"
     inkscape:pageopacity="0.0"
     inkscape:pageshadow="2"
     inkscape:zoom="5.5"
     inkscape:cx="0.54863636"
     inkscape:cy="32"
     inkscape:current-layer="layer1"
     showgrid="true"
     inkscape:document-units="px"
     inkscape:grid-bbox="true"
     inkscape:window-width="1365"
     inkscape:window-height="878"
     inkscape:window-x="-8"
     inkscape:window-y="-8"
     inkscape:window-maximized="1" />
  <metadata
     id="metadata2990">
    <rdf:RDF>
      <cc:Work
         rdf:about="">
        <dc:format>image/svg+xml</dc:format>
        <dc:type
           rdf:resource="http://purl.org/dc/dcmitype/StillImage" />
        <dc:title></dc:title>
      </cc:Work>
    </rdf:RDF>
  </metadata>
  <g
     id="layer1"
     inkscape:label="Layer 1"
     inkscape:groupmode="layer">
    <path
       style="fill:#000000"
       d="m 7.707894,54.156234 -1.77889,-3.708828 0.44889,-0.489531 c 0.798129,-0.870388 3.119391,-2.260516 4.557507,-2.729341 1.084355,-0.353499 1.809724,-0.456207 3.206385,-0.454009 1.631685,0.0026 2.042168,0.08354 4.275,0.843287 2.180025,0.741779 2.670752,0.841569 4.18,0.850005 1.946993,0.01089 2.746982,-0.29139 3.226783,-1.219224 0.417757,-0.80785 0.374407,-0.89267 -0.519283,-1.016046 -1.259183,-0.173835 -3.268612,-0.848765 -3.821291,-1.283502 -0.473524,-0.372476 -0.500979,-0.48532 -0.497036,-2.042961 0.0048,-1.905396 0.314843,-2.7745 1.430016,-4.008862 0.698067,-0.772676 0.707464,-0.803206 0.480447,-1.56092 -0.164453,-0.548899 -0.659631,-1.197477 -1.708948,-2.238365 -2.410131,-2.390774 -3.370758,-4.953583 -3.194908,-8.523535 0.07687,-1.560434 0.16879,-1.928786 0.800156,-3.206269 1.043486,-2.11135 2.655908,-3.656201 5.514064,-5.282989 2.507134,-1.426995 3.585002,-2.124127 4.784325,-3.094359 l 0.794324,-0.642594 -0.917852,-0.890409 c -1.256297,-1.218732 -1.60531,-2.554258 -1.12644,-4.310408 0.318026,-1.1662884 1.937187,-2.6541423 3.177961,-2.9202411 3.15678,-0.6770078 5.914782,2.1601347 5.159684,5.3077411 -0.188214,0.784565 -0.445818,1.214411 -1.149491,1.918084 l -0.906915,0.906915 0.679447,0.596562 c 0.863945,0.758554 2.643596,1.8951 5.179957,3.3081 4.934488,2.748988 6.809575,6.461755 5.780229,11.445139 -0.450676,2.181868 -1.279154,3.712824 -2.855715,5.277117 -1.334434,1.324049 -1.974514,2.251011 -1.974514,2.859492 0,0.17203 0.335578,0.694017 0.745731,1.159975 0.954336,1.084183 1.344269,2.245511 1.344269,4.003598 0,1.220311 -0.05789,1.457676 -0.451457,1.851248 -0.474552,0.474551 -2.285917,1.115619 -3.789182,1.341048 -0.97694,0.146502 -1.024084,0.228568 -0.601144,1.046441 0.457484,0.884678 1.163468,1.133781 3.213247,1.133781 1.612779,0 2.06165,-0.08432 4.113274,-0.772633 2.767481,-0.928488 4.272929,-1.090718 6.255262,-0.674075 1.778339,0.373766 4.242905,1.572908 5.416453,2.63539 l 0.892757,0.808263 -1.83915,3.702741 c -1.011534,2.036506 -1.871438,3.735024 -1.910899,3.774485 -0.03946,0.03946 -0.567288,-0.371138 -1.172953,-0.912441 -0.605665,-0.541302 -1.737965,-1.299757 -2.516224,-1.685457 -1.333887,-0.661067 -1.51907,-0.701212 -3.23,-0.700209 -1.640133,9.5e-4 -2.016329,0.07418 -3.904984,0.76 -2.001981,0.726974 -2.18602,0.758936 -4.37,0.758936 -2.743106,0 -4.036506,-0.402095 -5.948511,-1.849287 L 31.96598,53.310505 31.271382,53.93721 c -1.847634,1.667045 -3.561637,2.275339 -6.351878,2.254261 -1.854375,-0.014 -2.264236,-0.08697 -4.34979,-0.774357 -1.266379,-0.417392 -2.696684,-0.811182 -3.178454,-0.87509 -1.997889,-0.265029 -4.646693,0.693074 -6.53803,2.364884 -0.606957,0.536507 -1.162707,0.971571 -1.235,0.966811 -0.07229,-0.0048 -0.931944,-1.677627 -1.910336,-3.717485 z m 5.263463,-0.303355 c 0.662514,-0.302372 1.871678,-0.647002 2.687032,-0.765839 1.326077,-0.19328 1.639952,-0.174196 2.975428,0.180897 0.821133,0.218333 2.091469,0.617346 2.822969,0.886696 1.113323,0.409942 1.657136,0.490378 3.338015,0.493734 3.198876,0.0064 4.909851,-0.734339 6.006782,-2.600483 0.489061,-0.832012 0.540992,-1.101897 0.602343,-3.130398 l 0.06714,-2.219888 -2.013,-0.06011 c -2.112449,-0.06308 -2.20628,-0.02821 -2.20628,0.819863 0,0.760401 -0.586804,1.523696 -1.48599,1.932927 -0.738941,0.3363 -1.225776,0.401288 -2.88401,0.38498 -1.992535,-0.01959 -2.290691,-0.07915 -5.51,-1.100565 -3.308567,-1.049737 -7.018513,-0.416535 -9.2800433,1.583885 l -0.563903,0.498798 1.210365,2.521288 1.210365,2.521291 0.9091083,-0.698653 c 0.500009,-0.384258 1.451165,-0.946048 2.113679,-1.248421 z m 43.125891,-3.505341 c -0.568049,-0.615056 -2.373761,-1.512757 -3.764195,-1.87135 -2.159469,-0.556924 -3.736861,-0.443091 -6.556267,0.473136 -2.253987,0.732483 -2.65278,0.804679 -4.56,0.825529 -1.760546,0.01925 -2.229739,-0.04098 -2.976475,-0.382042 -1.015463,-0.463807 -1.481495,-1.067108 -1.618865,-2.095698 l -0.09612,-0.719739 -1.976769,0.05972 -1.97677,0.05973 0,1.75829 c 0,1.012533 0.121315,2.166802 0.286028,2.72145 0.339441,1.143019 1.40262,2.294045 2.716947,2.941432 0.805368,0.396695 1.150435,0.438911 3.552025,0.43457 2.551742,-0.0046 2.717996,-0.02921 4.085,-0.604407 0.78375,-0.329777 1.99569,-0.704581 2.693197,-0.832897 2.307734,-0.424536 5.118813,0.344768 7.186803,1.966802 l 0.855,0.670622 1.264488,-2.497657 1.264486,-2.497654 -0.378512,-0.409836 z M 37.986786,45.154403 c 1.627316,-0.312867 3.019453,-0.730647 3.426509,-1.028293 0.330925,-0.241979 0.319117,-0.272679 -0.207825,-0.540345 -0.864451,-0.439107 -2.839731,-0.887883 -4.928684,-1.119776 -2.564189,-0.284649 -9.044954,-0.09837 -10.925,0.31402 -1.378684,0.302416 -3.04,0.915464 -3.04,1.121802 0,0.409005 2.658187,1.157212 5.116231,1.440078 1.900011,0.218649 9.11246,0.09058 10.558769,-0.187486 z M 26.986468,41.273685 c 4.475644,-0.546941 10.188796,-0.274732 13.499059,0.643177 l 1.249651,0.346516 -0.111971,-0.689996 c -0.438759,-2.703753 -4.827045,-4.971008 -9.621421,-4.971008 -4.799995,0 -9.18264,2.26712 -9.622502,4.977671 l -0.113053,0.69666 1.127297,-0.350854 c 0.620012,-0.19297 2.236836,-0.486444 3.59294,-0.652166 z m -1.423463,-4.647348 c 2.145687,-0.965267 3.605478,-1.246611 6.438781,-1.240942 2.87044,0.0057 4.413947,0.307052 6.427366,1.254679 0.661302,0.311246 1.227553,0.536966 1.258337,0.5016 0.03078,-0.03537 0.205474,-0.36355 0.388201,-0.7293 0.182728,-0.36575 0.961132,-1.315782 1.729786,-2.111181 2.206045,-2.282807 3.088059,-4.697114 2.883045,-7.891673 -0.176681,-2.753047 -2.222827,-5.422757 -5.568571,-7.265598 -3.191442,-1.757849 -4.539921,-2.617549 -5.472732,-3.489048 -0.794882,-0.742636 -1.0915,-0.9025 -1.67454,-0.9025 -0.58714,0 -0.870867,0.155632 -1.655884,0.9083 -0.521035,0.499565 -1.679082,1.33319 -2.573432,1.8525 -0.894351,0.51931 -2.367503,1.3717 -3.273668,1.8942 -2.200563,1.268856 -3.633542,2.702793 -4.546011,4.549048 -0.692805,1.401798 -0.720043,1.530492 -0.698392,3.29982 0.0388,3.170788 0.862033,5.06673 3.150013,7.254618 0.693249,0.662923 1.375141,1.516201 1.539071,1.925898 0.161884,0.404588 0.325951,0.735616 0.364593,0.735616 0.03864,0 0.616459,-0.245716 1.284037,-0.546037 z m 5.868781,-7.623963 0,-2.28 -2.28,0 -2.28,0 0,-0.665 0,-0.665 2.28,0 2.28,0 0,-2.185 0,-2.185 0.57,0 0.57,0 0,2.185 0,2.185 2.28,0 2.28,0 0,0.665 0,0.665 -2.28,0 -2.28,0 0,2.28 0,2.28 -0.57,0 -0.57,0 0,-2.28 z m 2.28,-15.931062 c 1.24215,-0.912333 1.716772,-2.719874 1.051825,-4.0057406 -1.042078,-2.0151552 -3.930659,-2.2185635 -5.249333,-0.3696488 -0.649215,0.9102672 -0.649846,2.6517534 -0.0013,3.5610914 0.921684,1.29229 2.999395,1.695233 4.198796,0.814298 z"
       id="path3228"
       inkscape:connector-curvature="0" />
    <path
       style="fill:#ffffff"
       d="m 8.8348442,53.226871 -1.160302,-2.342746 0.4164971,-0.443341 c 0.5600175,-0.596112 2.2334357,-1.465836 3.5538467,-1.847038 1.672797,-0.482937 4.174896,-0.289211 6.905883,0.53469 1.961094,0.591635 2.369734,0.653382 4.324022,0.653382 2.33116,0 3.077984,-0.187609 3.860056,-0.969681 0.244329,-0.24433 0.502369,-0.760196 0.57342,-1.146368 0.07105,-0.386173 0.219657,-0.762243 0.330231,-0.835712 0.110577,-0.07347 1.010782,-0.134832 2.000458,-0.136364 l 1.799409,-0.0028 -0.12665,2.118432 c -0.142204,2.378549 -0.332531,2.979253 -1.274204,4.021571 -1.049827,1.162033 -2.169986,1.547809 -4.74342,1.633602 -1.953429,0.06512 -2.343594,0.02334 -3.727273,-0.399113 -3.865949,-1.180333 -4.330775,-1.260555 -5.906508,-1.019372 -1.754888,0.268605 -3.141978,0.810127 -4.584739,1.789887 l -1.0804248,0.733702 -1.160302,-2.342747 z"
       id="path3230"
       inkscape:connector-curvature="0" />
    <path
       style="fill:#ffffff"
       d="m 53.22746,55.06169 c -1.579973,-1.351385 -4.64286,-2.318333 -6.660642,-2.10275 -0.6,0.06411 -1.95,0.415539 -3,0.780964 -1.857639,0.646503 -1.980144,0.664395 -4.545454,0.663896 -2.991153,-5.83e-4 -3.554595,-0.176577 -4.912444,-1.534425 -1.042069,-1.04207 -1.291507,-1.776272 -1.40415,-4.133011 l -0.09776,-2.045455 1.91847,0 1.91847,0 0.121968,0.721921 c 0.152783,0.904313 0.651851,1.549008 1.556302,2.010425 0.58476,0.298322 1.072013,0.358563 2.900188,0.358563 2.007293,0 2.397131,-0.05897 4.507243,-0.681818 2.113298,-0.623787 2.495598,-0.681457 4.491717,-0.677577 2.055889,0.004 2.26196,0.03859 3.570336,0.599312 0.763685,0.327289 1.694002,0.85914 2.067371,1.181891 l 0.678853,0.586822 -1.205037,2.404776 c -0.662769,1.322627 -1.224903,2.401451 -1.249189,2.397387 -0.02428,-0.0041 -0.319591,-0.242978 -0.656238,-0.530921 l 0,0 z"
       id="path3232"
       inkscape:connector-curvature="0" />
    <path
       style="fill:#ffffff"
       d="m 27.515041,45.227812 c -1.680568,-0.175279 -3.427407,-0.571504 -4.493677,-1.019274 -0.760185,-0.319231 -0.63441,-0.426966 1.123924,-0.962715 1.843412,-0.561672 3.732076,-0.736732 7.948343,-0.736732 3.149255,0 4.362951,0.07345 5.957163,0.360513 2.065454,0.371917 3.334206,0.787162 3.334206,1.091239 0,0.224635 -2.11542,0.8538 -3.636364,1.081521 -1.726405,0.258485 -8.377682,0.379015 -10.233595,0.185448 z"
       id="path3234"
       inkscape:connector-curvature="0" />
    <path
       style="fill:#ffffff"
       d="m 22.479902,41.795061 c 0.0083,-0.595355 0.694269,-1.765603 1.416756,-2.417001 1.625822,-1.465851 4.411869,-2.453497 7.397433,-2.622371 4.76102,-0.269301 9.645069,2.0242 10.198005,4.788881 l 0.114997,0.574984 -1.338319,-0.348734 c -4.206979,-1.096237 -12.24891,-1.097692 -16.559538,-0.003 -1.109928,0.281869 -1.232927,0.284594 -1.229334,0.02724 z"
       id="path3236"
       inkscape:connector-curvature="0" />
    <path
       style="fill:#ffffff"
       d="m 23.982413,36.347896 c -0.210152,-0.361343 -1.011015,-1.349992 -1.779694,-2.196998 -2.211503,-2.436852 -2.811944,-3.937233 -2.815561,-7.035525 -0.002,-1.738634 0.03289,-1.914021 0.588751,-2.956873 1.262899,-2.369335 2.244206,-3.257143 6.205136,-5.613912 1.512175,-0.899751 3.322137,-2.093543 4.022137,-2.652872 0.797243,-0.63703 1.446848,-1.017341 1.738796,-1.017975 0.292362,-6.37e-4 1.080722,0.456398 2.115234,1.226259 0.907041,0.675 2.782476,1.881818 4.167633,2.681818 4.9142,2.838205 6.729373,5.529757 6.3488,9.414046 -0.234567,2.394083 -1.016556,3.96715 -3.183567,6.404136 -0.622451,0.7 -1.266871,1.526662 -1.43204,1.837024 l -0.300311,0.564298 -1.86622,-0.705198 c -3.74965,-1.416897 -8.462336,-1.348126 -12.144026,0.177218 l -1.282972,0.531542 -0.382096,-0.656988 0,0 z m 8.675314,-7.202441 0,-2.272728 2.272728,0 2.272727,0 0,-0.818182 0,-0.818181 -2.272727,0 -2.272728,0 0,-2.181819 0,-2.181818 -0.636363,0 -0.636364,0 0,2.181818 0,2.181819 -2.272727,0 -2.272728,0 0,0.818181 0,0.818182 2.272728,0 2.272727,0 0,2.272728 0,2.272727 0.636364,0 0.636363,0 0,-2.272727 z"
       id="path3238"
       inkscape:connector-curvature="0" />
    <path
       style="fill:#ffffff"
       d="m 30.682831,13.035695 c -1.053493,-0.535229 -1.47829,-1.261266 -1.47829,-2.526604 0,-1.7671415 1.089778,-2.9070947 2.780397,-2.9084113 1.073386,-8.36e-4 1.77471,0.3450979 2.42314,1.1952341 0.892654,1.1703298 0.546753,3.2036552 -0.703829,4.1373492 -0.727332,0.543032 -2.064926,0.588379 -3.021418,0.102432 l 0,0 z"
       id="path3240"
       inkscape:connector-curvature="0" />
  </g>
</svg>
