<?xml version="1.0" encoding="UTF-8" standalone="no"?>
<!-- Created with Inkscape (http://www.inkscape.org/) -->

<svg
   xmlns:dc="http://purl.org/dc/elements/1.1/"
   xmlns:cc="http://creativecommons.org/ns#"
   xmlns:rdf="http://www.w3.org/1999/02/22-rdf-syntax-ns#"
   xmlns:svg="http://www.w3.org/2000/svg"
   xmlns="http://www.w3.org/2000/svg"
   xmlns:sodipodi="http://sodipodi.sourceforge.net/DTD/sodipodi-0.dtd"
   xmlns:inkscape="http://www.inkscape.org/namespaces/inkscape"
   width="64px"
   height="64px"
   id="svg2985"
   version="1.1"
   inkscape:version="0.48.1 "
   sodipodi:docname="bk.svg">
  <defs
     id="defs2987" />
  <sodipodi:namedview
     id="base"
     pagecolor="#ffffff"
     bordercolor="#666666"
     borderopacity="1.0"
     inkscape:pageopacity="0.0"
     inkscape:pageshadow="2"
     inkscape:zoom="5.5"
     inkscape:cx="0.54863636"
     inkscape:cy="32"
     inkscape:current-layer="layer1"
     showgrid="true"
     inkscape:document-units="px"
     inkscape:grid-bbox="true"
     inkscape:window-width="1365"
     inkscape:window-height="878"
     inkscape:window-x="-8"
     inkscape:window-y="-8"
     inkscape:window-maximized="1" />
  <metadata
     id="metadata2990">
    <rdf:RDF>
      <cc:Work
         rdf:about="">
        <dc:format>image/svg+xml</dc:format>
        <dc:type
           rdf:resource="http://purl.org/dc/dcmitype/StillImage" />
        <dc:title></dc:title>
      </cc:Work>
    </rdf:RDF>
  </metadata>
  <g
     id="layer1"
     inkscape:label="Layer 1"
     inkscape:groupmode="layer">
    <path
       style="fill:#000000"
       d="m 26.756624,57.980901 c -7.403431,-0.466112 -11.947235,-1.620335 -12.542526,-3.186072 -0.406468,-1.069092 0.358022,-4.089738 1.43975,-5.688723 0.747535,-1.104989 0.841233,-1.832248 0.356764,-2.769108 -0.172141,-0.332884 -1.52429,-1.846262 -3.004776,-3.363064 -4.8587556,-4.97794 -6.2076556,-7.536113 -6.2129716,-11.782824 -0.002,-1.595591 0.08999,-2.283828 0.459464,-3.437666 1.237884,-3.865818 4.2764076,-6.113015 8.6364106,-6.387219 3.841069,-0.241568 7.822514,1.543758 11.254978,5.046862 0.882816,0.900986 1.539416,1.468252 1.459107,1.260589 -0.300869,-0.777997 -1.066202,-4.192781 -1.264821,-5.643405 -0.376644,-2.750857 0.332833,-4.630609 2.082161,-5.516661 0.567365,-0.287375 1.22999,-0.5225 1.4725,-0.5225 0.436745,0 0.440931,-0.02165 0.440931,-2.28 l 0,-2.28 -1.615,0 -1.615,0 0,-0.665 0,-0.665 1.615,0 1.615,0 0,-2.0900002 0,-2.09 0.665,0 0.665,0 0,2.09 0,2.0900002 1.615,0 1.615,0 0,0.665 0,0.665 -1.615,0 -1.615,0 0,2.28 c 0,2.236542 0.0082,2.28008 0.4275,2.284173 1.239007,0.01209 2.924199,1.392459 3.377765,2.76678 0.387328,1.173617 0.121809,4.375958 -0.557931,6.729047 -0.316966,1.09725 -0.578784,2.061926 -0.581818,2.143725 -0.003,0.0818 0.614359,-0.478306 1.371984,-1.244675 3.036789,-3.071844 7.236194,-5.07905 10.626206,-5.07905 4.601703,0 8.104651,2.374639 9.389325,6.365 0.397687,1.23526 0.489578,1.893721 0.490538,3.515 0.0025,4.241387 -1.625874,7.250814 -6.66707,12.321449 -2.304552,2.318007 -3.056499,3.326431 -3.056499,4.099012 0,0.155466 0.343685,0.773293 0.763746,1.37295 0.964465,1.37682 1.516254,3.133415 1.516254,4.826933 0,1.249263 -0.02476,1.3192 -0.630548,1.781259 -1.831727,1.397125 -7.550734,2.30554 -15.519452,2.465131 -2.35125,0.04709 -5.436888,0.01246 -6.856971,-0.07694 z m 13.031971,-1.530167 c 4.11939,-0.354944 8.645,-1.494798 8.645,-2.17739 0,-0.552214 -2.616043,-1.227961 -6.365,-1.644131 -3.599373,-0.399566 -16.905856,-0.341464 -20.371688,0.08895 -2.928994,0.363748 -5.345703,0.908977 -5.971331,1.347186 -0.384275,0.269156 -0.374765,0.286413 0.36616,0.664405 1.417035,0.722918 4.708139,1.425581 8.021859,1.712702 2.655155,0.230058 13.037454,0.235539 15.675,0.0083 z m -22.871389,-4.27453 c 2.803625,-0.994489 9.277271,-1.50712 17.171389,-1.359754 7.019343,0.131035 9.909579,0.463273 13.755496,1.581218 0.424671,0.123444 0.446282,0.09505 0.319326,-0.419577 -0.418759,-1.697462 -1.545124,-3.037035 -3.130265,-3.722784 -2.18805,-0.946573 -2.890223,-1.000347 -13.034557,-0.998203 -10.507196,0.0022 -11.14708,0.06033 -13.524631,1.228171 -1.220914,0.59971 -1.977501,1.513728 -2.497091,3.016687 -0.382985,1.107818 -0.349557,1.131786 0.940333,0.674242 z m 2.489888,-5.486594 c 2.41483,-0.806693 4.04593,-0.926984 12.591501,-0.928589 8.569057,-0.0015 10.161175,0.116686 12.61824,0.937564 1.412715,0.471972 1.714458,0.432321 1.723851,-0.226531 0.0015,-0.112231 0.298908,-0.620386 0.660687,-1.129235 0.749635,-1.054376 0.725705,-1.125385 -0.62746,-1.86187 -1.1186,-0.608817 -3.462313,-1.178895 -5.96033,-1.449773 -2.330937,-0.252759 -14.688555,-0.259239 -16.964988,-0.0089 -3.40443,0.37439 -6.025131,1.164282 -6.815441,2.054208 -0.349363,0.393399 -0.346686,0.410647 0.156555,1.008714 0.281597,0.334658 0.643203,0.936394 0.80357,1.33719 0.160367,0.400797 0.323242,0.72872 0.361946,0.72872 0.0387,0 0.692044,-0.207676 1.451869,-0.461501 z m -3.395927,-3.843413 c 0.698379,-0.590234 2.125406,-1.245015 3.3927,-1.556718 1.439819,-0.354137 5.316238,-0.751661 8.75601,-0.897925 l 3.191284,-0.135696 -0.122645,-1.349874 C 31.16106,38.163553 30.978812,36.91486 30.823521,36.13111 29.82509,31.092067 26.257933,26.283304 21.892365,24.091323 c -3.553029,-1.783999 -8.16179,-1.64303 -10.746926,0.328719 -1.8701066,1.426378 -2.7958516,3.376796 -2.9436696,6.201914 -0.152291,2.910621 0.474101,4.911505 2.3753076,7.587429 0.773707,1.088985 4.518483,5.141725 4.751008,5.141725 0.04711,0 0.354497,-0.227211 0.683082,-0.504913 z m 34.687055,-1.550262 c 2.499541,-2.683047 3.327926,-3.794285 4.208827,-5.64593 2.382605,-5.008217 0.609174,-10.511831 -3.949815,-12.257731 -1.524004,-0.583628 -4.445231,-0.722956 -6.134844,-0.2926 -6.431667,1.638189 -11.411605,8.083295 -12.069031,15.619913 l -0.133563,1.531118 2.9194,0.128214 c 7.317424,0.321362 10.680538,1.008862 12.514399,2.558236 0.26125,0.220721 0.532378,0.404157 0.602507,0.407634 0.07013,0.0035 0.989083,-0.918508 2.04212,-2.048854 z M 34.090905,27.536679 c 1.16563,-3.995966 1.513691,-5.858963 1.364565,-7.30385 -0.239096,-2.316604 -1.283142,-3.190657 -3.667389,-3.070258 -2.275995,0.114933 -3.168835,1.035457 -3.275158,3.376708 -0.08499,1.871505 0.252157,3.519144 1.61588,7.896831 0.585964,1.881 1.24324,4.013629 1.460612,4.739174 l 0.395223,1.319174 0.533987,-1.699174 c 0.293694,-0.934545 1.00122,-3.300918 1.57228,-5.258605 z"
       id="path3203"
       inkscape:connector-curvature="0" />
    <path
       style="fill:#ffffff"
       d="m 24.021364,56.311229 c -3.794753,-0.306761 -8.414529,-1.460756 -8.220466,-2.053428 0.0987,-0.301429 2.469055,-0.930758 4.947738,-1.313623 1.908391,-0.294777 3.343887,-0.33746 11.454546,-0.340595 9.438445,-0.0036 10.668313,0.06405 13.716303,0.754952 0.643968,0.145971 1.451706,0.382752 1.794975,0.526179 0.524196,0.219024 0.587965,0.304348 0.398276,0.532909 -0.509627,0.614063 -4.895065,1.593197 -8.545918,1.908041 -2.433803,0.209887 -12.890603,0.200177 -15.545454,-0.01444 z"
       id="path3205"
       inkscape:connector-curvature="0" />
    <path
       style="fill:#ffffff"
       d="m 16.013517,51.827273 c 0.43944,-1.793871 1.792969,-3.087063 4.061893,-3.880824 1.20971,-0.423205 1.29022,-0.426813 10.937241,-0.490184 10.715814,-0.07039 11.847236,0.0014 13.771207,0.873766 1.361467,0.617318 1.901835,1.048746 2.501567,1.997242 0.426955,0.675242 0.876059,1.829577 0.757815,1.947821 -0.03887,0.03887 -0.714742,-0.09377 -1.501935,-0.294761 -2.44539,-0.624363 -4.729374,-0.908093 -9.065396,-1.126157 -7.652931,-0.384875 -16.999392,0.128891 -20.115757,1.105743 -1.478261,0.463374 -1.492302,0.461991 -1.346635,-0.132646 z"
       id="path3207"
       inkscape:connector-curvature="0" />
    <path
       style="fill:#ffffff"
       d="m 17.614861,46.286496 c -0.215929,-0.427573 -0.564168,-1.036374 -0.773865,-1.352891 l -0.381266,-0.575486 0.598999,-0.44705 c 0.74449,-0.555635 2.405868,-1.129186 4.370203,-1.50871 1.969158,-0.380456 14.762952,-0.574998 18.306744,-0.278372 2.662789,0.222883 5.134046,0.761963 6.388017,1.393482 1.281258,0.645261 1.368263,0.829417 0.809814,1.714059 -0.260325,0.412383 -0.549576,0.950355 -0.642776,1.195493 -0.204329,0.537423 -0.425242,0.548023 -1.977038,0.09486 -2.407564,-0.703061 -3.819778,-0.794246 -12.292329,-0.793704 -5.272196,3.46e-4 -8.69607,0.0758 -9.627887,0.212211 -1.196727,0.175187 -3.252453,0.688518 -4.174985,1.042527 -0.116068,0.04454 -0.387702,-0.268851 -0.603631,-0.696424 l 0,0 z"
       id="path3209"
       inkscape:connector-curvature="0" />
    <path
       style="fill:#ffffff"
       d="M 47.686665,42.584978 C 45.893751,41.330245 42.647514,40.695364 36.120419,40.322915 34.274899,40.217606 32.751993,40.114142 32.736183,40.092995 32.720372,40.071848 32.778627,39.4 32.865637,38.6 33.566228,32.158537 37.199573,26.644821 42.385,24.154065 c 0.8,-0.38427 1.887145,-0.797757 2.415878,-0.918859 1.292319,-0.295996 4.269441,-0.258729 5.450303,0.06822 3.021903,0.8367 5.14067,3.490026 5.467519,6.84696 0.365605,3.755008 -1.063853,6.823663 -5.103176,10.955113 l -2.048706,2.095431 -0.880153,-0.615957 z"
       id="path3211"
       inkscape:connector-curvature="0" />
    <path
       style="fill:#ffffff"
       d="M 13.996896,41.911549 C 9.854548,37.530023 8.5659889,35.329308 8.3530516,32.272495 8.0486437,27.902581 9.6821505,24.830962 12.963388,23.603293 c 5.568847,-2.083572 12.226537,1.088541 15.829628,7.542162 1.195589,2.141458 1.682253,3.59882 2.145666,6.425407 0.442823,2.700999 0.541183,2.516989 -1.417318,2.651473 -8.203781,0.563325 -9.933342,0.780838 -11.602791,1.459196 -0.620756,0.252236 -1.383392,0.649694 -1.694747,0.883242 -0.311354,0.233545 -0.658927,0.479187 -0.772385,0.545869 -0.118448,0.06962 -0.737805,-0.440967 -1.454545,-1.199093 l 0,0 z"
       id="path3213"
       inkscape:connector-curvature="0" />
    <path
       style="fill:#ffffff"
       d="m 31.28734,31.842667 c -2.239857,-7.162129 -2.629613,-8.778427 -2.629613,-10.90487 0,-1.677745 0.416509,-2.707943 1.31432,-3.25086 0.463896,-0.280523 0.921902,-0.359664 2.081438,-0.359664 1.672993,0 2.216388,0.26115 2.87697,1.382642 0.544152,0.923826 0.47794,3.49287 -0.152437,5.914609 -0.521388,2.003029 -2.653511,9.205665 -2.755145,9.3073 -0.03443,0.03443 -0.36542,-0.905691 -0.735533,-2.089157 z"
       id="path3215"
       inkscape:connector-curvature="0" />
  </g>
</svg>
