<?xml version="1.0" encoding="UTF-8" standalone="no"?>
<!-- Created with Inkscape (http://www.inkscape.org/) -->

<svg
   xmlns:dc="http://purl.org/dc/elements/1.1/"
   xmlns:cc="http://creativecommons.org/ns#"
   xmlns:rdf="http://www.w3.org/1999/02/22-rdf-syntax-ns#"
   xmlns:svg="http://www.w3.org/2000/svg"
   xmlns="http://www.w3.org/2000/svg"
   xmlns:sodipodi="http://sodipodi.sourceforge.net/DTD/sodipodi-0.dtd"
   xmlns:inkscape="http://www.inkscape.org/namespaces/inkscape"
   width="64px"
   height="64px"
   id="svg2985"
   version="1.1"
   inkscape:version="0.48.1 "
   sodipodi:docname="bp.svg">
  <defs
     id="defs2987" />
  <sodipodi:namedview
     id="base"
     pagecolor="#ffffff"
     bordercolor="#666666"
     borderopacity="1.0"
     inkscape:pageopacity="0.0"
     inkscape:pageshadow="2"
     inkscape:zoom="5.5"
     inkscape:cx="0.54863636"
     inkscape:cy="32"
     inkscape:current-layer="layer1"
     showgrid="true"
     inkscape:document-units="px"
     inkscape:grid-bbox="true"
     inkscape:window-width="1365"
     inkscape:window-height="878"
     inkscape:window-x="-8"
     inkscape:window-y="-8"
     inkscape:window-maximized="1" />
  <metadata
     id="metadata2990">
    <rdf:RDF>
      <cc:Work
         rdf:about="">
        <dc:format>image/svg+xml</dc:format>
        <dc:type
           rdf:resource="http://purl.org/dc/dcmitype/StillImage" />
        <dc:title></dc:title>
      </cc:Work>
    </rdf:RDF>
  </metadata>
  <g
     id="layer1"
     inkscape:label="Layer 1"
     inkscape:groupmode="layer">
    <path
       style="fill:#000000"
       d="m 21.298903,56.2725 c 0.250371,-3.453446 0.799226,-5.629548 1.838206,-7.288126 0.854181,-1.363575 1.588166,-2.075239 3.415193,-3.311334 3.43618,-2.324785 5.158006,-5.249396 6.140859,-10.430574 0.387556,-2.043036 0.385295,-2.317103 -0.01417,-1.717243 -1.13718,1.707635 -3.192165,3.129403 -5.907567,4.087223 -1.439592,0.507798 -2.567835,1.442972 -4.583806,3.799415 -4.689777,5.481821 -4.867915,5.621234 -7.349148,5.751465 -1.259687,0.06612 -1.808061,5.7e-4 -2.823084,-0.337153 C 9.6769315,46.047986 7.7047112,44.414838 6.6159117,42.355 6.1685375,41.508639 6.1142526,41.197721 6.1183053,39.505 c 0.00775,-3.235345 0.864116,-5.217814 4.1449367,-9.595418 0.900486,-1.20152 1.988082,-2.87577 2.41688,-3.720555 0.722826,-1.424058 0.791537,-1.695467 0.943001,-3.724873 0.196081,-2.627208 0.591537,-3.797723 1.953675,-5.782709 1.689217,-2.461624 1.578782,-2.070729 1.210661,-4.285277 -0.368984,-2.219735 -0.253365,-3.680674 0.409965,-5.180243 l 0.389658,-0.880886 1.331867,0.968719 c 1.562122,1.136191 3.783326,3.481914 4.402779,4.649594 0.412458,0.777489 0.470724,0.815049 1.110203,0.715669 1.251748,-0.194532 1.468913,-0.349583 1.577832,-1.126543 C 26.181911,10.31451 26.877214,8.738891 27.872137,7.322171 28.394413,6.578477 28.902232,5.97 29.000625,5.97 c 0.574936,0 3.012595,4.186713 3.415482,5.866137 l 0.217483,0.906575 1.841621,0.218264 c 6.506827,0.771172 11.665601,3.983315 15.458054,9.625056 3.643315,5.419879 6.207108,13.433336 7.267018,22.713968 0.349465,3.059946 0.677158,8.304053 0.679711,10.8775 l 0.0019,1.8525 -18.35517,0 -18.355171,0 0.127417,-1.7575 z m 33.649306,-3.135 C 54.578835,43.129009 53.809054,37.11097 52.185175,31.536489 49.032338,20.713382 43.065052,14.908727 34.394235,14.230421 l -1.729747,-0.135315 -0.09116,0.9487 c -0.117926,1.227283 -0.807527,2.400408 -1.258752,2.141348 -0.835905,-0.479915 -0.839376,-0.489374 -0.42747,-1.165025 0.53979,-0.885418 0.548407,-3.165106 0.01733,-4.584538 -0.45223,-1.208696 -1.527079,-3.035576 -1.846237,-3.137983 -0.127781,-0.041 -0.546822,0.539927 -0.95,1.317016 l -0.721371,1.390376 0,2.619376 0,2.619376 -0.57,0.152125 c -0.533967,0.142509 -0.584091,0.109044 -0.792899,-0.529376 -0.122594,-0.374825 -0.229469,-0.970998 -0.2375,-1.324827 l -0.0146,-0.643325 -0.8967,0.122906 c -1.419068,0.194505 -3.195303,1.422108 -3.966687,2.741484 -0.01857,0.03176 -0.296805,-0.102231 -0.618308,-0.297749 l -0.584551,-0.355486 0.632392,-0.937252 c 0.354764,-0.525787 0.977338,-1.130267 1.418123,-1.376909 0.432152,-0.241811 0.785731,-0.510281 0.785731,-0.596598 0,-0.370478 -1.745153,-2.480226 -2.954352,-3.571573 C 18.331628,8.493723 18.267444,8.46068 18.11388,8.868553 c -0.150873,0.400726 -0.08439,2.389444 0.166728,4.987528 l 0.110292,1.141081 -1.2334,1.844778 c -1.596405,2.387721 -2.01839,3.53827 -2.214567,6.03806 -0.08611,1.09725 -0.292737,2.369558 -0.459173,2.82735 -0.315061,0.866596 -2.267474,3.89455 -4.302499,6.67265 -1.9244995,2.627216 -2.7056231,4.730704 -2.7164038,7.315 -0.00425,1.01878 0.095015,1.523374 0.4242093,2.156388 0.857726,1.649339 2.5838745,3.1328 4.3530075,3.740999 l 0.684455,0.235304 1.00765,-2.001078 c 0.554207,-1.100592 1.00765,-2.159823 1.00765,-2.353846 0,-0.278863 0.144403,-0.352767 0.689283,-0.352767 l 0.689284,0 -0.129103,0.8075 c -0.07101,0.444125 -0.509434,1.456265 -0.974283,2.249199 -0.46485,0.792935 -0.845181,1.538922 -0.845181,1.65775 0,0.249335 0.89386,0.12186 1.84768,-0.263498 0.6223,-0.251419 0.904474,-0.532617 5.408521,-5.3898 2.701948,-2.913792 2.736841,-2.938973 6.423799,-4.635654 3.48342,-1.603015 5.138225,-4.194809 5.448136,-8.532997 l 0.118767,-1.6625 0.665296,0 0.665298,0 -0.112719,3.2775 c -0.247794,7.20495 -1.893753,12.716561 -4.721631,15.810709 -0.542847,0.593961 -1.818342,1.669369 -2.834437,2.389796 -3.151528,2.234483 -4.23822,4.25661 -4.616001,8.589495 l -0.09525,1.0925 16.251693,0 16.251696,0 -0.124465,-3.3725 z M 9.3618085,40.796649 C 9.1171445,40.551984 9.2537595,39.561472 9.6353245,38.813543 10.162503,37.78019 11.484486,36.37 11.926026,36.37 c 0.815214,0 0.175043,2.017754 -1.081409,3.408497 -0.769479,0.851721 -1.2910845,1.209875 -1.4828085,1.018152 z M 16.565754,25.1125 c 0.318147,-1.049982 1.512118,-3.020655 2.103336,-3.471599 0.761417,-0.580761 2.378867,-1.332878 3.255238,-1.513691 0.60329,-0.124471 0.6175,-0.112104 0.6175,0.537424 0,0.628934 -0.05122,0.681839 -0.948725,0.979942 -0.86391,0.286945 -0.921938,0.341904 -0.649088,0.614754 0.991497,0.991497 0.592682,3.09067 -0.587187,3.09067 -0.736667,0 -1.106063,-0.627667 -1.002669,-1.703707 l 0.09169,-0.954246 -0.468284,0.616477 c -0.257556,0.339061 -0.633712,0.979851 -0.835902,1.423976 -0.331187,0.727478 -0.433907,0.8075 -1.036531,0.8075 -0.605401,0 -0.656614,-0.04059 -0.539379,-0.4275 z"
       id="path3140"
       inkscape:connector-curvature="0" />
    <path
       style="fill:#ffffff"
       d="m 22.746568,55.372727 c 0.192193,-1.753578 0.641934,-3.585891 1.137244,-4.633298 0.62783,-1.32764 1.581723,-2.348231 3.880139,-4.151444 2.422071,-1.900227 3.409218,-3.078532 4.559574,-5.44253 C 33.855085,37.998082 34.690005,33.844938 34.9461,28.1 l 0.127653,-2.863636 -0.740384,0 -0.740385,0 -0.107706,1.045454 c -0.381236,3.700517 -1.137011,5.678378 -2.786582,7.292482 -0.821371,0.803713 -1.610256,1.306595 -3.592196,2.289876 -2.788622,1.383497 -2.823691,1.413737 -8.59439,7.410889 -1.543939,1.604528 -2.215706,2.175857 -2.724517,2.31717 -1.292691,0.359018 -1.332687,0.301314 -0.656251,-0.94678 0.487442,-0.89938 1.344567,-3.142744 1.344567,-3.519153 0,-0.03947 -0.329298,-0.07176 -0.731773,-0.07176 -0.632569,0 -0.756667,0.06778 -0.915404,0.5 C 14.297546,43.000882 12.928099,45.6 12.697227,45.6 12.156868,45.6 10.171944,44.389795 9.3604795,43.565589 7.6594228,41.837824 7.2543218,40.261015 7.8278488,37.6 8.2249,35.757787 8.8753426,34.510153 11.282506,30.973518 c 3.307497,-4.859415 3.288275,-4.818645 3.733465,-7.918973 0.425965,-2.966451 0.780641,-3.902108 2.449899,-6.462976 l 0.999377,-1.533179 -0.209096,-3.005677 c -0.14539,-2.0899124 -0.151213,-3.0635602 -0.01911,-3.1956604 0.224963,-0.2249628 2.762073,2.2074684 3.652786,3.5020744 l 0.565417,0.821805 -0.798665,0.562951 c -0.826443,0.58253 -2.127175,2.193935 -1.972705,2.443874 0.0483,0.07816 0.330262,0.267471 0.626575,0.420701 0.536529,0.277449 0.542466,0.274785 1.439394,-0.646058 0.89554,-0.919416 2.264809,-1.675891 3.407887,-1.882742 0.56648,-0.10251 0.590951,-0.08269 0.591924,0.479433 5.45e-4,0.3225 0.08754,0.89798 0.193307,1.278844 0.176738,0.636459 0.239171,0.687941 0.771715,0.636364 l 0.579418,-0.05612 0.09091,-2.727273 0.09091,-2.727273 0.69646,-1.2375432 c 0.383053,-0.6806489 0.79088,-1.2060706 0.90628,-1.1676037 0.356687,0.1188957 1.384533,1.9819109 1.763835,3.1970259 0.456532,1.462528 0.459038,2.854258 0.0072,4.000572 -0.33808,0.857719 -0.339439,0.90954 -0.03114,1.188549 0.1773,0.16045 0.446419,0.291728 0.598046,0.291728 0.592834,0 1.241136,-1.299566 1.241136,-2.48794 l 0,-0.615494 0.954546,0.109168 c 5.536863,0.633231 8.437169,1.858457 11.561383,4.884075 5.768189,5.586152 8.657302,14.826252 9.471439,30.292009 0.10265,1.95 0.233049,4.343182 0.289778,5.318182 l 0.10314,1.772727 -16.207995,0 -16.207995,0 0.124545,-1.136364 z M 10.706886,39.989462 c 1.017918,-1.088238 1.587205,-2.17092 1.587205,-3.018582 0,-0.914816 -0.536514,-0.853842 -1.536016,0.174571 -0.9628899,0.99074 -1.5548932,2.154805 -1.5548932,3.057407 0,0.950911 0.4780947,0.883062 1.5037042,-0.213396 z M 18.47237,24.382891 c 0.357433,-0.61941 0.688542,-1.164864 0.735799,-1.212121 0.04726,-0.04726 0.08592,0.303776 0.08592,0.780073 0,1.021186 0.306812,1.467339 1.009066,1.467339 0.805907,0 1.31964,-0.787381 1.217147,-1.865479 -0.04525,-0.476013 -0.217575,-1.014979 -0.382938,-1.197702 -0.284888,-0.314798 -0.2623,-0.344884 0.430636,-0.573573 0.904613,-0.29855 1.132541,-0.560639 1.057409,-1.215888 -0.05122,-0.446655 -0.131076,-0.507828 -0.634269,-0.485843 -0.681286,0.02977 -2.437448,0.80302 -3.275493,1.442228 -0.691104,0.527131 -1.996519,2.634699 -2.17039,3.504054 l -0.119796,0.598979 0.698514,-0.05793 c 0.645078,-0.0535 0.748231,-0.144089 1.348393,-1.184134 l 0,0 z"
       id="path3142"
       inkscape:connector-curvature="0" />
  </g>
</svg>
