<?xml version="1.0" encoding="UTF-8" standalone="no"?>
<!-- Created with Inkscape (http://www.inkscape.org/) -->

<svg
   xmlns:dc="http://purl.org/dc/elements/1.1/"
   xmlns:cc="http://creativecommons.org/ns#"
   xmlns:rdf="http://www.w3.org/1999/02/22-rdf-syntax-ns#"
   xmlns:svg="http://www.w3.org/2000/svg"
   xmlns="http://www.w3.org/2000/svg"
   xmlns:sodipodi="http://sodipodi.sourceforge.net/DTD/sodipodi-0.dtd"
   xmlns:inkscape="http://www.inkscape.org/namespaces/inkscape"
   width="64px"
   height="64px"
   id="svg2985"
   version="1.1"
   inkscape:version="0.48.1 "
   sodipodi:docname="br.svg">
  <defs
     id="defs2987" />
  <sodipodi:namedview
     id="base"
     pagecolor="#ffffff"
     bordercolor="#666666"
     borderopacity="1.0"
     inkscape:pageopacity="0.0"
     inkscape:pageshadow="2"
     inkscape:zoom="5.5"
     inkscape:cx="1.8181818"
     inkscape:cy="32"
     inkscape:current-layer="layer1"
     showgrid="true"
     inkscape:document-units="px"
     inkscape:grid-bbox="true"
     inkscape:window-width="1365"
     inkscape:window-height="878"
     inkscape:window-x="-8"
     inkscape:window-y="-8"
     inkscape:window-maximized="1" />
  <metadata
     id="metadata2990">
    <rdf:RDF>
      <cc:Work
         rdf:about="">
        <dc:format>image/svg+xml</dc:format>
        <dc:type
           rdf:resource="http://purl.org/dc/dcmitype/StillImage" />
        <dc:title></dc:title>
      </cc:Work>
    </rdf:RDF>
  </metadata>
  <g
     id="layer1"
     inkscape:label="Layer 1"
     inkscape:groupmode="layer">
    <path
       style="fill:#000000"
       d="m 13.952542,51.372889 c 0.0025,-4.242181 0.01244,-4.350943 0.535425,-5.853212 1.464019,-4.205407 5.468583,-7.685989 10.715672,-9.313569 l 1.088639,-0.337681 -0.943946,-0.53911 c -3.211571,-1.834205 -5.1458,-5.531017 -4.580073,-8.753702 0.568669,-3.239444 3.137851,-6.07068 6.611502,-7.285871 l 0.984761,-0.3445 -0.764192,-0.82905 C 26.485616,16.906871 26.037315,15.780308 26.03413,14.180389 26.02953,11.86445 27.24008,9.934626 29.393851,8.824467 30.202942,8.407422 30.64675,8.31196 31.81,8.304759 c 2.43697,-0.01509 4.304465,1.123987 5.360869,3.269848 0.525865,1.068184 0.624131,1.477822 0.624131,2.601787 0,1.569465 -0.602182,3.015255 -1.69842,4.077772 l -0.66963,0.649029 1.290752,0.502195 c 2.641292,1.027654 4.440914,2.615289 5.59508,4.936004 0.583159,1.172577 0.612218,1.335091 0.612218,3.423995 0,2.10125 -0.02648,2.246788 -0.633078,3.478955 -0.703209,1.42842 -2.078355,2.943227 -3.597766,3.963155 l -1.000846,0.671834 1.931211,0.683797 c 5.762214,2.040265 9.607514,6.233888 10.223952,11.150078 0.11084,0.883965 0.201527,3.04158 0.201527,4.794697 l 0,3.187484 -18.05,0 -18.05,0 0.0025,-4.3225 z M 48.72,51.256322 c 0,-3.770818 -0.158694,-4.71037 -1.129206,-6.685467 -1.244683,-2.533063 -3.54134,-4.706652 -6.565794,-6.213958 -1.232239,-0.614114 -3.610428,-1.40555 -4.726431,-1.572905 -0.831548,-0.124699 -0.878294,-0.163644 -0.873412,-0.727676 0.0048,-0.556462 0.104969,-0.643165 1.512339,-1.309242 1.955102,-0.925306 3.403667,-2.318321 4.234203,-4.071826 0.541964,-1.144244 0.613267,-1.483246 0.613003,-2.914459 -1.9e-4,-1.444591 -0.06735,-1.755809 -0.620863,-2.880149 C 40.056205,22.630718 37.340735,20.627334 34.5175,19.977194 33.559642,19.756616 33.52,19.722321 33.52,19.114242 c 0,-0.477433 0.09867,-0.664562 0.401003,-0.76052 0.657196,-0.208585 1.913548,-1.458784 2.284522,-2.273333 0.429819,-0.94376 0.458789,-2.706804 0.0602,-3.663603 -0.388212,-0.931886 -1.51509,-2.090431 -2.460722,-2.529874 -0.999723,-0.464579 -2.789891,-0.46742 -3.8,-0.006 -0.994614,0.454312 -2.293235,1.884142 -2.549517,2.807114 -0.259097,0.933111 -0.259097,2.051675 0,2.984786 0.238934,0.860493 1.463799,2.260939 2.26929,2.594584 0.46835,0.193997 0.565227,0.343531 0.565227,0.872454 0,0.541697 -0.0791,0.655811 -0.5225,0.753811 -3.385669,0.748292 -5.902312,2.510815 -7.121636,4.987614 -0.562068,1.141722 -0.620864,1.423469 -0.620864,2.975148 0,1.480051 0.07044,1.857417 0.516062,2.764776 0.992008,2.019874 2.940328,3.732884 5.130321,4.5107 0.608575,0.216148 0.881564,0.409965 0.816446,0.57966 -0.05381,0.140216 -0.09783,0.418946 -0.09783,0.6194 0,0.225163 -0.131559,0.36446 -0.344216,0.36446 -0.891634,0 -3.545359,0.866358 -5.260784,1.717482 -3.931729,1.950764 -6.528872,4.844647 -7.403984,8.249937 -0.20647,0.803426 -0.291016,2.086804 -0.291016,4.4175 l 0,3.285081 16.815,0 16.815,0 0,-3.109067 z"
       id="path3112"
       inkscape:connector-curvature="0" />
    <path
       style="fill:#ffffff"
       d="m 15.236126,50.645455 c 0.07474,-3.530086 0.09916,-3.73427 0.592478,-4.954546 0.718562,-1.777447 1.532435,-2.943142 3.083637,-4.416631 2.317954,-2.201831 5.390262,-3.724651 9.039589,-4.480567 0.364151,-0.07543 0.498494,-0.231366 0.559926,-0.649927 0.09537,-0.649815 0.06854,-0.67504 -1.612627,-1.516315 -1.833396,-0.917449 -3.299626,-2.33312 -4.148413,-4.005364 -0.671914,-1.323776 -0.685822,-1.391665 -0.609994,-2.977674 0.06396,-1.337724 0.171866,-1.811128 0.613892,-2.693196 1.060786,-2.116808 3.331989,-3.852696 6.172659,-4.717783 1.236978,-0.376705 1.274258,-0.405458 1.327232,-1.023677 0.04967,-0.579664 -0.03022,-0.699428 -0.900602,-1.350203 -1.269923,-0.949501 -1.973628,-2.268681 -1.968092,-3.689425 0.0053,-1.361645 0.457584,-2.297566 1.611738,-3.33525 1.21334,-1.0908967 2.405877,-1.4099941 3.965262,-1.0610192 0.877749,0.1964318 1.193704,0.3899092 2.073554,1.2697602 1.097853,1.097853 1.440102,1.863391 1.427368,3.192726 -0.014,1.462551 -0.877926,2.939744 -2.197204,3.756958 -0.764365,0.473478 -1.099122,1.307381 -0.6763,1.684711 0.135375,0.120809 0.737044,0.36576 1.337044,0.544337 2.581085,0.768202 4.993992,2.619855 6.087531,4.671542 0.550494,1.032836 0.599436,1.259334 0.606696,2.807779 0.0073,1.547194 -0.04108,1.783796 -0.593682,2.906293 -0.792445,1.609683 -2.268013,3.04476 -4.164474,4.050194 -1.41108,0.748102 -1.481526,0.814938 -1.481526,1.405626 0,0.527865 0.07443,0.637051 0.5,0.733534 6.125333,1.388693 10.138566,4.313486 12.015829,8.756982 0.530329,1.255293 0.744428,3.017022 0.751284,6.182044 l 0.0056,2.590909 -16.748187,0 -16.748188,0 0.07796,-3.681818 z"
       id="path3114"
       inkscape:connector-curvature="0" />
  </g>
</svg>
