<?xml version="1.0" encoding="UTF-8" standalone="no"?>
<!-- Created with Inkscape (http://www.inkscape.org/) -->

<svg
   xmlns:dc="http://purl.org/dc/elements/1.1/"
   xmlns:cc="http://creativecommons.org/ns#"
   xmlns:rdf="http://www.w3.org/1999/02/22-rdf-syntax-ns#"
   xmlns:svg="http://www.w3.org/2000/svg"
   xmlns="http://www.w3.org/2000/svg"
   xmlns:sodipodi="http://sodipodi.sourceforge.net/DTD/sodipodi-0.dtd"
   xmlns:inkscape="http://www.inkscape.org/namespaces/inkscape"
   width="64px"
   height="64px"
   id="svg2985"
   version="1.1"
   inkscape:version="0.48.1 "
   sodipodi:docname="New document 2">
  <defs
     id="defs2987" />
  <sodipodi:namedview
     id="base"
     pagecolor="#ffffff"
     bordercolor="#666666"
     borderopacity="1.0"
     inkscape:pageopacity="0.0"
     inkscape:pageshadow="2"
     inkscape:zoom="5.5"
     inkscape:cx="1.8181818"
     inkscape:cy="32"
     inkscape:current-layer="layer1"
     showgrid="true"
     inkscape:document-units="px"
     inkscape:grid-bbox="true"
     inkscape:window-width="1365"
     inkscape:window-height="878"
     inkscape:window-x="-8"
     inkscape:window-y="-8"
     inkscape:window-maximized="1" />
  <metadata
     id="metadata2990">
    <rdf:RDF>
      <cc:Work
         rdf:about="">
        <dc:format>image/svg+xml</dc:format>
        <dc:type
           rdf:resource="http://purl.org/dc/dcmitype/StillImage" />
        <dc:title></dc:title>
      </cc:Work>
    </rdf:RDF>
  </metadata>
  <g
     id="layer1"
     inkscape:label="Layer 1"
     inkscape:groupmode="layer">
    <path
       style="fill:#000000"
       d="m 24.479421,57.841112 c -4.785941,-0.468103 -8.49664,-1.396549 -9.527049,-2.383744 -0.981808,-0.940631 -0.650091,-2.885949 0.870352,-5.104085 0.770223,-1.123659 0.645185,-2.542292 -0.41222,-4.676892 C 14.506762,43.851992 13.348172,40.127885 10.523948,29.969319 9.4282057,26.027999 8.3863907,22.303315 8.2088047,21.692243 7.8789357,20.55717 7.7073437,20.395541 6.5754051,20.153687 5.8813997,20.005403 4.7239824,18.965607 4.4061181,18.204854 c -0.3288691,-0.787098 -0.3288691,-2.176045 0,-2.963142 0.3269387,-0.782472 1.4097639,-1.736885 2.306253,-2.032753 1.5599766,-0.514838 3.4889429,0.366313 4.2518349,1.942238 0.743534,1.535936 0.424898,3.058052 -0.900311,4.30076 l -0.7372213,0.691326 4.4277413,7.196867 c 2.435258,3.958278 4.519376,7.288503 4.631374,7.4005 0.144842,0.144843 0.203632,-2.733336 0.203632,-9.969292 l 0,-10.172926 -0.739134,-0.22145 c -0.933492,-0.279681 -2.046143,-1.485482 -2.218502,-2.404233 -0.331279,-1.76587 0.352778,-3.3135616 1.822396,-4.1232046 0.901536,-0.4966739 2.976847,-0.4095532 3.741665,0.1570762 1.247221,0.924023 1.833497,2.6348784 1.399413,4.0837224 -0.272331,0.908957 -1.146162,1.939129 -1.914964,2.257577 -0.313981,0.130056 -0.570874,0.292849 -0.570874,0.361762 0,0.231447 6.675167,18.922005 6.805859,19.056498 0.07103,0.07309 1.017851,-4.415657 2.104052,-9.975 1.086202,-5.559344 2.009784,-10.202553 2.052407,-10.318243 0.04262,-0.11569 -0.171333,-0.313414 -0.475458,-0.439386 -0.702708,-0.291072 -1.853464,-1.4688 -2.115548,-2.165137 -0.654525,-1.7390134 0.313329,-3.8300695 2.122678,-4.5860624 2.68645,-1.1224706 5.654655,1.4485401 4.901487,4.2455894 -0.257894,0.957747 -1.20308,2.074412 -2.058323,2.431757 -0.549183,0.229463 -0.619495,0.333473 -0.526742,0.779198 0.328016,1.576279 3.910528,19.980962 3.915366,20.114665 0.0032,0.08785 0.08324,0.02741 0.17791,-0.134305 0.21508,-0.367388 6.867335,-19.038419 6.800269,-19.086465 -0.02693,-0.01929 -0.420717,-0.239901 -0.875089,-0.490248 -1.136477,-0.626169 -1.791563,-1.772508 -1.779507,-3.113974 0.01003,-1.1167631 0.213366,-1.6311674 0.966355,-2.4447485 0.740284,-0.7998552 1.403492,-1.0755376 2.587418,-1.0755376 1.3523,0 2.403688,0.5215687 3.064601,1.5202759 1.298872,1.9627302 0.459302,4.5529432 -1.732669,5.3455702 l -0.665066,0.240491 0,10.164832 c 0,5.767873 0.07143,10.086752 0.165133,9.984331 0.234921,-0.256784 8.954867,-14.507673 8.954867,-14.634819 0,-0.05787 -0.268666,-0.331282 -0.597037,-0.607588 -1.220028,-1.026585 -1.619501,-2.854164 -0.943856,-4.318093 1.149282,-2.490156 4.204098,-2.891301 6.04565,-0.793889 1.8068,2.057829 0.515324,5.463694 -2.238781,5.904093 -0.410288,0.06561 -0.745976,0.155865 -0.745976,0.200573 0,0.185238 -2.362122,8.916521 -3.677718,13.594223 -1.89168,6.726003 -2.870418,9.684822 -3.776704,11.417339 -0.582067,1.112716 -0.777484,1.728745 -0.855091,2.695564 -0.09839,1.225688 -0.08098,1.286688 0.792262,2.776198 1.049079,1.789445 1.336484,3.271436 0.794771,4.098194 -0.690627,1.054029 -3.214435,1.879332 -7.62252,2.492616 -2.676008,0.372307 -14.235936,0.54234 -17.195,0.252918 z m 16.91,-1.572259 c 3.173788,-0.445136 6.432564,-1.325039 6.738061,-1.819345 0.278967,-0.451376 -2.024118,-1.254675 -5.196124,-1.812368 -4.008399,-0.704747 -15.00011,-0.856148 -20.066937,-0.276407 -3.323666,0.380291 -7.125,1.48376 -7.125,2.068278 0,0.555499 5.327322,1.782695 9.025,2.078989 3.281461,0.262941 14.160973,0.106444 16.625,-0.239147 z M 17.980448,51.95941 c 3.205099,-0.935735 8.949591,-1.401127 15.664911,-1.269102 6.300959,0.12388 10.647834,0.634376 13.2362,1.554457 0.460425,0.163666 0.858006,0.275287 0.883513,0.248047 0.02551,-0.02724 -0.287082,-0.599403 -0.694638,-1.271471 -0.407558,-0.672068 -0.741013,-1.409602 -0.741013,-1.638964 0,-0.842985 -3.255876,-2.185512 -6.935,-2.859575 -2.441899,-0.447385 -11.549722,-0.510518 -14.25,-0.09878 -2.345286,0.357614 -4.679493,1.056566 -6.204204,1.857778 -1.064679,0.559473 -1.300303,0.77202 -1.409684,1.271617 -0.07223,0.329924 -0.419283,1.050398 -0.771222,1.601052 -0.731564,1.144625 -0.768894,1.276911 -0.30739,1.089293 0.182875,-0.07435 0.870712,-0.292305 1.528527,-0.484355 z m 1.047458,-5.027374 c 3.13399,-1.447992 6.889682,-1.901026 14.520158,-1.751511 6.488906,0.127148 9.352267,0.601764 11.804749,1.956696 0.820445,0.453273 1.162399,0.4598 1.171118,0.02235 0.0025,-0.124458 0.217472,-0.739286 0.477761,-1.366286 l 0.47325,-1.14 -0.551633,-0.500945 c -0.756676,-0.687144 -2.351728,-1.249052 -4.851522,-1.709097 -1.747639,-0.321623 -3.188951,-0.405046 -8.443536,-0.488711 -9.791881,-0.155906 -14.68609,0.49511 -16.60382,2.208602 -0.559259,0.499698 -0.565701,0.525335 -0.273834,1.089743 0.164394,0.317902 0.399032,0.975671 0.521417,1.461706 0.122385,0.486035 0.243077,0.883702 0.268205,0.883702 0.02513,0 0.694587,-0.299811 1.487687,-0.666247 z m -2.301879,-4.175894 c 2.350623,-1.59729 7.332187,-2.378714 15.153873,-2.377086 7.074281,0.0015 11.612511,0.581618 14.153231,1.809288 0.737709,0.356459 1.486815,0.754619 1.664677,0.884802 0.177863,0.130184 0.373451,0.186631 0.434642,0.12544 0.06119,-0.06119 0.311074,-0.758887 0.555293,-1.550435 l 0.444035,-1.439177 -0.651289,-0.309058 C 44.718736,38.114847 36.195896,37.213238 27.709421,37.7026 c -5.667315,0.326798 -9.418659,0.975682 -11.811664,2.043106 l -1.076664,0.480257 0.278667,0.97866 c 0.371317,1.304036 0.658862,2.02366 0.808606,2.02366 0.06756,0 0.435511,-0.212464 0.817661,-0.472141 z m 0.105894,-4.862062 c 0.757625,-0.242326 1.3775,-0.507119 1.3775,-0.588426 0,-0.08131 -1.479041,-2.565354 -3.286758,-5.520102 -1.807717,-2.954747 -3.521321,-5.778394 -3.80801,-6.274769 -0.286688,-0.496375 -0.554196,-0.9025 -0.594463,-0.9025 -0.144265,0 2.648142,10.144772 3.723518,13.527483 0.215806,0.678845 0.239935,0.694011 0.717017,0.450697 0.271533,-0.138484 1.113571,-0.450055 1.871196,-0.692383 z m 34.625218,-5.875797 c 2.155157,-7.68852 2.106252,-7.502701 1.920925,-7.298837 -0.08692,0.09561 -1.21111,1.926587 -2.498204,4.068837 -1.287092,2.14225 -2.965731,4.898979 -3.730304,6.126065 -0.764575,1.227087 -1.390135,2.300383 -1.390135,2.385102 0,0.08472 0.619875,0.352127 1.3775,0.594239 0.757625,0.242111 1.59125,0.550762 1.8525,0.685888 0.595663,0.308099 0.385645,0.866509 2.467718,-6.561294 z m -29.447718,4.768823 c 0.67925,-0.09786 1.897625,-0.234918 2.7075,-0.304582 0.809875,-0.06966 1.4725,-0.18729 1.4725,-0.261388 0,-0.297208 -6.118893,-17.610499 -6.283256,-17.778353 -0.109043,-0.111361 -0.176744,3.442391 -0.176744,9.277597 l 0,9.458095 0.5225,-0.106724 c 0.287375,-0.0587 1.07825,-0.186788 1.7575,-0.284645 z M 44.03442,27.695783 c -0.0082,-5.198875 -0.05362,-9.367 -0.100814,-9.2625 -0.0472,0.1045 -1.483943,4.16575 -3.192771,9.025 l -3.10696,8.835 1.450274,0.160513 c 1.14943,0.127219 4.032005,0.52703 4.822772,0.668918 0.07838,0.01406 0.135749,-4.228056 0.127499,-9.426931 z m -8.210521,7.98 c -1.033233,-5.408368 -3.859975,-19.237117 -3.932044,-19.236026 -0.09707,0.0015 -3.815643,19.069168 -3.806985,19.521026 0.0035,0.182172 0.917075,0.2375 3.921701,0.2375 l 3.917148,0 -0.09982,-0.5225 z M 9.1233537,18.408253 c 0.538138,-0.47934 0.9588093,-1.524667 0.817502,-2.031417 -0.36285,-1.301246 -1.058686,-1.838553 -2.381,-1.838553 -0.6433186,0 -0.9073357,0.1189 -1.4344352,0.646 -1.4921308,1.49213 -0.3301269,3.877005 1.7842102,3.661883 0.448366,-0.04562 0.994541,-0.24268 1.213723,-0.437913 z M 57.955637,18.169696 c 0.890057,-0.996147 0.681157,-2.667955 -0.414221,-3.315012 -1.228645,-0.725777 -2.793194,-0.198275 -3.347633,1.128684 -0.419275,1.003468 -0.115148,1.911471 0.875638,2.614304 0.766312,0.543598 2.209295,0.329628 2.886216,-0.427976 z m -37.982613,-5.03019 c 0.853633,-0.361305 1.291855,-0.916891 1.408369,-1.785554 0.247821,-1.8476408 -1.656535,-3.112585 -3.359874,-2.2317542 -1.249038,0.645903 -1.552874,2.2387502 -0.635095,3.3294682 0.795266,0.94512 1.522088,1.138399 2.5866,0.68784 z m 25.748781,-0.0068 c 0.766211,-0.396194 1.180859,-0.937187 1.305089,-1.70272 0.147698,-0.91016 -0.220549,-1.7408078 -0.979754,-2.2100235 -1.571217,-0.9710639 -3.517719,0.052265 -3.517719,1.8493595 0,0.844744 0.376794,1.456663 1.209675,1.964529 0.707505,0.431415 1.28406,0.460169 1.982709,0.09888 z M 33.047258,11.584058 c 0.618874,-0.320031 1.31032,-1.30178 1.311452,-1.8620611 C 34.36001,9.1062114 33.801328,8.1672476 33.234535,7.8324343 32.3595,7.3155393 31.059516,7.4054207 30.36582,8.0307824 c -1.969401,1.7753953 0.301141,4.7841756 2.681438,3.5532756 z"
       id="path3004"
       inkscape:connector-curvature="0" />
    <path
       style="fill:#ffffff"
       d="m 23.745455,56.305388 c -3.15509,-0.424001 -6.648665,-1.191585 -7.521212,-1.65251 -0.285145,-0.150628 -0.299676,-0.216608 -0.09091,-0.41278 0.737173,-0.692702 4.99183,-1.645527 8.662118,-1.93987 2.889907,-0.23176 14.232463,-0.08966 16.495457,0.20666 3.260066,0.426873 6.732958,1.424019 6.586462,1.891122 -0.1938,0.617929 -4.959906,1.661726 -8.76828,1.920291 -3.252467,0.220822 -13.689636,0.21205 -15.363636,-0.01291 l 0,0 z"
       id="path3006"
       inkscape:connector-curvature="0" />
    <path
       style="fill:#ffffff"
       d="m 16.799428,51.463636 c 0.265606,-0.475 0.648483,-1.190909 0.850837,-1.590909 0.448414,-0.886395 1.499503,-1.504836 3.822462,-2.249066 C 24.461728,46.666044 25.142092,46.6 32.018182,46.6 c 5.976514,0 6.477105,0.02542 8.228874,0.417842 1.891251,0.423669 3.699946,1.033835 4.940315,1.666624 0.565714,0.288607 0.824551,0.632733 1.509962,2.007512 0.511683,1.026322 0.725187,1.620048 0.559738,1.556559 -0.625104,-0.239874 -3.153751,-0.815276 -4.329798,-0.98526 -3.394944,-0.490698 -6.27496,-0.609973 -12.574035,-0.52075 -7.038969,0.0997 -9.421201,0.319094 -12.297718,1.132552 -0.879465,0.248707 -1.630523,0.452194 -1.669019,0.452194 -0.0385,0 0.147321,-0.388637 0.412927,-0.863637 z"
       id="path3008"
       inkscape:connector-curvature="0" />
    <path
       style="fill:#ffffff"
       d="m 17.14907,46.119234 c -0.254644,-0.714421 -0.427894,-1.389421 -0.385,-1.5 0.123817,-0.319199 1.22551,-1.008759 2.208273,-1.38218 1.73974,-0.661049 3.984123,-0.927811 9.093044,-1.080778 10.950504,-0.32787 16.868702,0.362319 18.884306,2.202319 l 0.386056,0.352422 -0.511876,1.308128 c -0.574638,1.468523 -0.586315,1.472712 -2.04476,0.733662 -2.313553,-1.172366 -5.675253,-1.583721 -13.033658,-1.594866 -7.155517,-0.01084 -9.741742,0.334481 -12.807813,1.710134 -0.674347,0.302559 -1.248472,0.550107 -1.275834,0.550107 -0.02736,0 -0.258094,-0.584527 -0.512738,-1.298948 z"
       id="path3010"
       inkscape:connector-curvature="0" />
    <path
       style="fill:#ffffff"
       d="m 15.417606,41.814373 c -0.219683,-0.682094 -0.399424,-1.328902 -0.399424,-1.43735 0,-0.108448 0.675,-0.439443 1.5,-0.735545 6.4715,-2.322692 20.728922,-2.643258 28.863636,-0.648975 0.91718,0.224853 3.318087,1.055676 3.590518,1.242481 0.0551,0.03778 -0.832323,2.667427 -0.934725,2.76983 -0.04019,0.04019 -0.633729,-0.2071 -1.318978,-0.549529 -1.570324,-0.784717 -2.65892,-1.132749 -4.609542,-1.473702 -3.053126,-0.533662 -6.58698,-0.710315 -11.968203,-0.598274 -7.117503,0.148191 -10.105619,0.604558 -12.826332,1.958933 -0.786994,0.391767 -1.445889,0.712303 -1.464212,0.712303 -0.01832,0 -0.213055,-0.558077 -0.432738,-1.240172 z"
       id="path3012"
       inkscape:connector-curvature="0" />
    <path
       style="fill:#ffffff"
       d="m 14.22416,37.645455 c -0.901809,-2.80367 -3.449052,-12.044806 -3.347925,-12.145932 0.08991,-0.08991 7.051038,11.449439 7.051038,11.688383 0,0.173835 -2.797905,1.321185 -3.221813,1.321185 -0.11193,0 -0.328515,-0.388636 -0.4813,-0.863636 z"
       id="path3014"
       inkscape:connector-curvature="0" />
    <path
       style="fill:#ffffff"
       d="m 19.76963,31.574256 c 0.0133,-3.035841 0.07466,-7.093771 0.136364,-9.017623 l 0.112188,-3.497913 1.594915,4.407003 c 0.877202,2.423853 2.235332,6.269903 3.018064,8.546778 1.36382,3.967186 1.407238,4.143355 1.04145,4.225666 -0.209936,0.04724 -1.443946,0.212568 -2.742243,0.367394 -1.298298,0.154826 -2.546025,0.328055 -2.772727,0.384953 l -0.412186,0.103453 0.02417,-5.519711 z"
       id="path3016"
       inkscape:connector-curvature="0" />
    <path
       style="fill:#ffffff"
       d="m 28.7,36.01714 c -0.225,-0.04334 -0.409091,-0.206378 -0.409091,-0.362313 0,-0.383407 2.211822,-11.974236 2.976926,-15.600282 0.337604,-1.6 0.659403,-2.786363 0.715109,-2.636363 0.206059,0.554853 3.762511,18.033565 3.762511,18.491418 0,0.185549 -0.707726,0.230573 -3.318182,0.211095 C 30.602273,36.107076 28.925,36.060476 28.7,36.01714 l 0,0 z"
       id="path3018"
       inkscape:connector-curvature="0" />
    <path
       style="fill:#ffffff"
       d="m 42.472727,36.845705 c -0.55,-0.09148 -1.818182,-0.272948 -2.818182,-0.403261 -1.393188,-0.181549 -1.804462,-0.297074 -1.759488,-0.494233 0.03228,-0.141516 1.382282,-4.012389 3,-8.60194 l 2.941307,-8.344639 0.05214,8.435548 c 0.04972,8.043309 0.0017,9.644118 -0.287657,9.59611 -0.07047,-0.01169 -0.578125,-0.0961 -1.128125,-0.187585 z"
       id="path3020"
       inkscape:connector-curvature="0" />
    <path
       style="fill:#ffffff"
       d="m 47.576551,37.959027 c -0.742896,-0.293258 -1.41049,-0.596281 -1.483541,-0.673385 -0.07305,-0.0771 0.2075,-0.714687 0.623448,-1.416853 1.979175,-3.341066 6.356607,-10.45633 6.403849,-10.409088 0.05426,0.05426 -2.971481,10.913278 -3.407397,12.228724 -0.132101,0.398634 -0.36291,0.742567 -0.51291,0.764294 -0.15,0.02173 -0.880552,-0.200434 -1.623449,-0.493692 z"
       id="path3022"
       inkscape:connector-curvature="0" />
    <path
       style="fill:#ffffff"
       d="M 6.3110417,18.225403 C 5.7305063,17.736915 5.4382073,16.827076 5.6487224,16.163801 c 0.065794,-0.207297 0.366222,-0.623501 0.6676189,-0.924898 0.4209396,-0.420939 0.7113892,-0.547994 1.252726,-0.547994 1.0222269,0 1.5518154,0.309752 2.0116865,1.176617 l 0.4065577,0.766369 -0.396339,0.818727 c -0.4421056,0.913268 -0.9728136,1.238287 -2.0219412,1.238287 -0.4909124,0 -0.8726376,-0.141253 -1.2579896,-0.465506 z"
       id="path3024"
       inkscape:connector-curvature="0" />
    <path
       style="fill:#ffffff"
       d="m 17.724064,12.530481 c -0.583653,-0.583653 -0.705882,-0.831273 -0.705882,-1.430025 0,-1.3977054 1.354979,-2.4154309 2.724777,-2.0465825 C 20.674274,9.3046505 21.2,10.038459 21.2,11.087612 c 0,0.953908 -0.378732,1.552191 -1.199741,1.89523 -1.006495,0.420541 -1.50171,0.322125 -2.276195,-0.452361 z"
       id="path3026"
       inkscape:connector-curvature="0" />
    <path
       style="fill:#ffffff"
       d="m 30.919492,11.452208 c -0.30428,-0.190573 -0.692916,-0.559675 -0.863637,-0.820228 -0.868408,-1.3253589 0.278485,-3.0338248 2.034913,-3.0313003 1.219349,0.00175 2.437713,1.5322771 2.020866,2.5386363 -0.552916,1.334855 -2.124822,1.981363 -3.192142,1.312892 z"
       id="path3028"
       inkscape:connector-curvature="0" />
    <path
       style="fill:#ffffff"
       d="m 43.81213,12.887625 c -1.243649,-0.75834 -1.539395,-2.078696 -0.691353,-3.0865374 1.03158,-1.2259622 2.936315,-0.9896596 3.618992,0.4489744 0.297945,0.627874 0.305877,0.773402 0.07781,1.427702 -0.28667,0.822442 -1.214572,1.558995 -1.962654,1.55792 -0.260211,-3.82e-4 -0.729472,-0.157 -1.0428,-0.348059 z"
       id="path3030"
       inkscape:connector-curvature="0" />
    <path
       style="fill:#ffffff"
       d="m 55.745455,18.67702 c -0.381863,-0.08393 -0.841649,-0.381803 -1.149667,-0.744808 -0.711933,-0.83903 -0.595116,-1.813847 0.317596,-2.650285 1.612433,-1.477684 4.056021,-0.01052 3.382325,2.030802 -0.237681,0.720181 -0.437183,0.91412 -1.291472,1.255464 -0.4093,0.163542 -0.840312,0.200805 -1.258782,0.108827 z"
       id="path3032"
       inkscape:connector-curvature="0" />
  </g>
</svg>
