<?xml version="1.0" encoding="UTF-8" standalone="no"?>
<!-- Created with Inkscape (http://www.inkscape.org/) -->

<svg
   xmlns:dc="http://purl.org/dc/elements/1.1/"
   xmlns:cc="http://creativecommons.org/ns#"
   xmlns:rdf="http://www.w3.org/1999/02/22-rdf-syntax-ns#"
   xmlns:svg="http://www.w3.org/2000/svg"
   xmlns="http://www.w3.org/2000/svg"
   xmlns:sodipodi="http://sodipodi.sourceforge.net/DTD/sodipodi-0.dtd"
   xmlns:inkscape="http://www.inkscape.org/namespaces/inkscape"
   width="64px"
   height="64px"
   id="svg2985"
   version="1.1"
   inkscape:version="0.48.1 "
   sodipodi:docname="bq.svg">
  <defs
     id="defs2987" />
  <sodipodi:namedview
     id="base"
     pagecolor="#ffffff"
     bordercolor="#666666"
     borderopacity="1.0"
     inkscape:pageopacity="0.0"
     inkscape:pageshadow="2"
     inkscape:zoom="5.5"
     inkscape:cx="1.8181818"
     inkscape:cy="32"
     inkscape:current-layer="layer1"
     showgrid="true"
     inkscape:document-units="px"
     inkscape:grid-bbox="true"
     inkscape:window-width="1365"
     inkscape:window-height="878"
     inkscape:window-x="-8"
     inkscape:window-y="-8"
     inkscape:window-maximized="1" />
  <metadata
     id="metadata2990">
    <rdf:RDF>
      <cc:Work
         rdf:about="">
        <dc:format>image/svg+xml</dc:format>
        <dc:type
           rdf:resource="http://purl.org/dc/dcmitype/StillImage" />
        <dc:title></dc:title>
      </cc:Work>
    </rdf:RDF>
  </metadata>
  <g
     id="layer1"
     inkscape:label="Layer 1"
     inkscape:groupmode="layer">
    <path
       style="fill:#000000"
       d="m 11.764982,53.09 0,-2.945 1.995,0 1.995,0 0.0038,-1.3775 c 0.0021,-0.757625 0.08554,-1.976 0.185481,-2.7075 l 0.181718,-1.33 2.094594,-1.995 2.094594,-1.995 -7.6e-5,-8.93297 -7.5e-5,-8.93297 -2.28,-2.27406 -2.28,-2.27406 0,-5.18047 0,-5.18047 3.61,0 3.61,0 0,2.28 0,2.28 2.47,0 2.47,0 0,-2.28 0,-2.28 4.085,0 4.085,0 0,2.28 0,2.28 2.565,0 2.565,0 0,-2.28 0,-2.28 3.639866,0 3.639866,0 -0.129253,4.335751 c -0.07109,2.384663 -0.211308,4.839917 -0.311596,5.456119 -0.177713,1.091901 -0.233117,1.171296 -2.180615,3.124851 l -1.998268,2.004484 0,8.948852 0,8.948852 2.185,2.116695 2.185,2.116697 0,2.56385 0,2.563849 1.995,0 1.995,0 0,2.945 0,2.945 -20.235,0 -20.235,0 0,-2.945 z m 39.33,0 0,-1.615 -19,0 -19,0 0,1.615 0,1.615 19,0 19,0 0,-1.615 z m -3.99,-5.035 0,-2.09 -15.01,0 -15.01,0 0,2.09 0,2.09 15.01,0 15.01,0 0,-2.09 z M 44.707748,43.302133 43.165516,41.785 l -11.097225,0 -11.097224,0 -1.511085,1.52 -1.511085,1.52 14.150542,-0.0029 14.150543,-0.0029 -1.542234,-1.517135 z M 42.734982,31.81 l 0,-8.645 -10.64,0 -10.64,0 0,8.645 0,8.645 10.64,0 10.64,0 0,-8.645 z m 1.869005,-11.502351 1.584006,-1.702649 -14.215044,0 -14.215044,0 1.702077,1.71 1.702077,1.71 10.928961,-0.0074 10.928962,-0.0074 1.584005,-1.702649 z M 47.104982,13.38 l 0,-4.085 -2.375,0 -2.375,0 0,2.28 0,2.28 -3.8,0 -3.8,0 0,-2.28 0,-2.28 -2.755,0 -2.755,0 0,2.28 0,2.28 -3.8,0 -3.8,0 0,-2.28 0,-2.28 -2.375,0 -2.375,0 0,4.085 0,4.085 15.105,0 15.105,0 0,-4.085 z"
       id="path3064"
       inkscape:connector-curvature="0" />
    <path
       style="fill:#ffffff"
       d="m 13.2,53.145455 0,-1.545455 18.909091,0 18.909091,0 0,1.545455 0,1.545454 -18.909091,0 -18.909091,0 0,-1.545454 z"
       id="path3066"
       inkscape:connector-curvature="0" />
    <path
       style="fill:#ffffff"
       d="m 17.2,48.054545 0,-2.090909 14.909091,0 14.909091,0 0,2.090909 0,2.09091 -14.909091,0 -14.909091,0 0,-2.09091 z"
       id="path3068"
       inkscape:connector-curvature="0" />
    <path
       style="fill:#ffffff"
       d="m 19.563636,43.327273 1.354536,-1.363637 11.095459,0.0025 11.09546,0.0025 1.454545,1.352733 1.454546,1.352732 -13.904541,0.0084 -13.90454,0.0084 1.354535,-1.363636 z"
       id="path3070"
       inkscape:connector-curvature="0" />
    <path
       style="fill:#ffffff"
       d="m 21.563636,31.781818 0,-8.545454 10.545455,0 10.545454,0 0,8.545454 0,8.545455 -10.545454,0 -10.545455,0 0,-8.545455 z"
       id="path3072"
       inkscape:connector-curvature="0" />
    <path
       style="fill:#ffffff"
       d="m 19.654545,20.327273 -1.628782,-1.636364 13.963049,0 13.96305,0 -1.509091,1.636364 -1.509091,1.636363 -10.825176,0 -10.825177,0 -1.628782,-1.636363 z"
       id="path3074"
       inkscape:connector-curvature="0" />
    <path
       style="fill:#ffffff"
       d="m 17.018182,13.418182 0,-4.0000002 2.272727,0 2.272727,0 0,2.2727272 0,2.272727 3.909091,0 3.909091,0 0,-2.272727 0,-2.2727272 2.636364,0 2.636363,0 0,2.2727272 0,2.272727 3.909091,0 3.909091,0 0,-2.272727 0,-2.2727272 2.272728,0 2.272727,0 0,4.0000002 0,4 -15,0 -15,0 0,-4 z"
       id="path3076"
       inkscape:connector-curvature="0" />
  </g>
</svg>
