<?xml version="1.0" encoding="UTF-8" standalone="no"?>
<!-- Created with Inkscape (http://www.inkscape.org/) -->

<svg
   xmlns:dc="http://purl.org/dc/elements/1.1/"
   xmlns:cc="http://creativecommons.org/ns#"
   xmlns:rdf="http://www.w3.org/1999/02/22-rdf-syntax-ns#"
   xmlns:svg="http://www.w3.org/2000/svg"
   xmlns="http://www.w3.org/2000/svg"
   xmlns:sodipodi="http://sodipodi.sourceforge.net/DTD/sodipodi-0.dtd"
   xmlns:inkscape="http://www.inkscape.org/namespaces/inkscape"
   width="64px"
   height="64px"
   id="svg2985"
   version="1.1"
   inkscape:version="0.48.1 "
   sodipodi:docname="wr.svg">
  <defs
     id="defs2987" />
  <sodipodi:namedview
     id="base"
     pagecolor="#efefef"
     bordercolor="#666666"
     borderopacity="1.0"
     inkscape:pageopacity="0.0"
     inkscape:pageshadow="2"
     inkscape:zoom="5.5"
     inkscape:cx="1.8181818"
     inkscape:cy="32"
     inkscape:current-layer="layer1"
     showgrid="true"
     inkscape:document-units="px"
     inkscape:grid-bbox="true"
     inkscape:window-width="1365"
     inkscape:window-height="878"
     inkscape:window-x="-8"
     inkscape:window-y="-8"
     inkscape:window-maximized="1" />
  <metadata
     id="metadata2990">
    <rdf:RDF>
      <cc:Work
         rdf:about="">
        <dc:format>image/svg+xml</dc:format>
        <dc:type
           rdf:resource="http://purl.org/dc/dcmitype/StillImage" />
        <dc:title></dc:title>
      </cc:Work>
    </rdf:RDF>
  </metadata>
  <g
     id="layer1"
     inkscape:label="Layer 1"
     inkscape:groupmode="layer">
    <path
       style="fill:#000000"
       d="m 10.624954,53.755 0,-3.705 2.375,0 2.375,0 0,-3.215809 0,-3.215807 2.755612,-2.626693 2.755612,-2.626691 -0.04811,-7.404868 -0.04811,-7.404866 -3.46646,-2.665133 -3.46646,-2.665133 -10e-4,-5.8425 -10e-4,-5.8425 4.275,0 4.275,0 0,2.09 0,2.09 2.66,0 2.66,0 0,-2.09 0,-2.09 4.275,0 4.275,0 0,2.09 0,2.09 2.66,0 2.66,0 0,-2.09 0,-2.09 4.275,0 4.275,0 -9.5e-4,5.8425 -9.5e-4,5.8425 -3.466629,2.665133 -3.466461,2.665133 -0.04889,7.404866 -0.04889,7.404868 2.661391,2.531509 2.661391,2.531506 0,3.310994 0,3.310991 2.47,0 2.47,0 0,3.705 0,3.705 -21.375,0 -21.375,0 0,-3.705 z m 35.72,-2.66 0,-1.615 -14.345,0 -14.345,0 0,1.615 0,1.615 14.345,0 14.345,0 0,-1.615 z m 0,-5.738454 c 0,-0.747561 -0.09916,-0.995765 -0.607272,-1.52 L 45.130411,43.21 l -13.111183,0 -13.111183,0 -0.626546,0.607272 c -0.5375,0.520965 -0.626545,0.736989 -0.626545,1.52 l 0,0.912728 14.345,0 14.345,0 0,-0.893454 z M 41.925907,40.1152 c -0.776847,-0.687614 -0.903828,-0.900448 -0.9025,-1.5127 l 0.0015,-0.7125 -9.024999,0 -9.025,0 0.0015,0.7125 c 0.0013,0.612252 -0.125652,0.825086 -0.9025,1.5127 l -0.904039,0.8002 10.83,0 10.829999,0 -0.904046,-0.8002 z M 41.024954,23.276182 c 0,-0.906325 0.02923,-0.955272 0.992853,-1.6625 L 43.010659,20.885 37.444243,20.834609 c -3.061531,-0.02772 -8.016349,-0.02772 -11.010711,0 l -5.444294,0.05039 0.992858,0.728682 c 0.963628,0.707229 0.992858,0.756174 0.992858,1.6625 l 0,0.933818 9.025,0 9.025,0 0,-0.933818 z m 5.9375,-5.447987 c 0.947532,-0.753673 1.0925,-0.955181 1.0925,-1.518588 l 0,-0.649607 -16.055,0 -16.055,0 0,0.6528 c 0,0.568541 0.141013,0.763576 1.0925,1.511038 l 1.0925,0.858237 13.87,0.0076 13.87,0.0075 1.0925,-0.868981 z"
       id="path3197"
       inkscape:connector-curvature="0" />
    <path
       style="fill:#efefef"
       d="m 17.745455,51.145455 0,-1.545455 14.272727,0 14.272727,0 0,1.545455 0,1.545454 -14.272727,0 -14.272727,0 0,-1.545454 z"
       id="path3199"
       inkscape:connector-curvature="0" />
    <path
       style="fill:#efefef"
       d="m 17.745455,45.418706 c 0,-0.579645 0.133091,-0.874065 0.65752,-1.454546 l 0.65752,-0.727796 12.943177,0 12.943177,0 0.579296,0.597683 c 0.417951,0.431216 0.61201,0.836339 0.696746,1.454546 l 0.117445,0.856862 -14.297441,0 -14.29744,0 0,-0.726749 z"
       id="path3201"
       inkscape:connector-curvature="0" />
    <path
       style="fill:#efefef"
       d="m 22.253053,40.093118 c 0.621539,-0.633302 0.765129,-0.906273 0.765129,-1.454546 l 0,-0.674936 9,0 9,0 0,0.674936 c 0,0.548273 0.143589,0.821244 0.765129,1.454546 l 0.765129,0.779609 -10.530258,0 -10.530258,0 0.765129,-0.779609 z"
       id="path3203"
       inkscape:connector-curvature="0" />
    <path
       style="fill:#eeeeee"
       d="m 23.018182,23.250531 c 0,-0.82035 -0.06111,-0.94723 -0.733365,-1.522655 -0.703202,-0.601915 -0.716288,-0.632308 -0.318182,-0.738958 0.542113,-0.145229 19.560981,-0.145229 20.103092,0 0.398108,0.10665 0.385022,0.137043 -0.318182,0.738958 -0.672254,0.575425 -0.733363,0.702305 -0.733363,1.522655 l 0,0.894924 -9,0 -9,0 0,-0.894924 z"
       id="path3205"
       inkscape:connector-curvature="0" />
    <path
       style="fill:#eeeeee"
       d="m 24.15404,18.512684 -6.227778,-0.0945 -0.908585,-0.782815 c -0.707287,-0.60938 -0.908586,-0.901426 -0.908586,-1.318182 l 0,-0.535367 15.909091,0 15.909091,0 0,0.538826 c 0,0.436993 -0.207957,0.711889 -1.100349,1.454546 l -1.100348,0.915719 -7.67238,-0.04186 C 33.834389,18.626024 27.579318,18.56466 24.15404,18.512684 z"
       id="path3207"
       inkscape:connector-curvature="0" />
  </g>
</svg>
