<?xml version="1.0" encoding="UTF-8" standalone="no"?>
<!-- Created with Inkscape (http://www.inkscape.org/) -->

<svg
   xmlns:dc="http://purl.org/dc/elements/1.1/"
   xmlns:cc="http://creativecommons.org/ns#"
   xmlns:rdf="http://www.w3.org/1999/02/22-rdf-syntax-ns#"
   xmlns:svg="http://www.w3.org/2000/svg"
   xmlns="http://www.w3.org/2000/svg"
   xmlns:sodipodi="http://sodipodi.sourceforge.net/DTD/sodipodi-0.dtd"
   xmlns:inkscape="http://www.inkscape.org/namespaces/inkscape"
   width="64px"
   height="64px"
   id="svg2985"
   version="1.1"
   inkscape:version="0.48.1 "
   sodipodi:docname="wk.svg">
  <defs
     id="defs2987" />
  <sodipodi:namedview
     id="base"
     pagecolor="#efefef"
     bordercolor="#666666"
     borderopacity="1.0"
     inkscape:pageopacity="0.0"
     inkscape:pageshadow="2"
     inkscape:zoom="5.5"
     inkscape:cx="1.8181818"
     inkscape:cy="32"
     inkscape:current-layer="layer1"
     showgrid="true"
     inkscape:document-units="px"
     inkscape:grid-bbox="true"
     inkscape:window-width="1365"
     inkscape:window-height="878"
     inkscape:window-x="-8"
     inkscape:window-y="-8"
     inkscape:window-maximized="1" />
  <metadata
     id="metadata2990">
    <rdf:RDF>
      <cc:Work
         rdf:about="">
        <dc:format>image/svg+xml</dc:format>
        <dc:type
           rdf:resource="http://purl.org/dc/dcmitype/StillImage" />
        <dc:title></dc:title>
      </cc:Work>
    </rdf:RDF>
  </metadata>
  <g
     id="layer1"
     inkscape:label="Layer 1"
     inkscape:groupmode="layer">
    <path
       style="fill:#000000"
       d="M 26.023081,58.519037 C 19.395738,58.042033 13.049775,56.55871 12.597842,55.380988 c -0.05906,-0.153912 0.340689,-1.941897 0.888335,-3.973301 l 0.995721,-3.693459 -0.499409,-2.835101 c -0.274675,-1.559305 -0.499409,-2.88445 -0.499409,-2.94477 0,-0.06032 -0.595691,-0.495018 -1.323758,-0.966003 -1.925937,-1.245884 -5.1217118,-4.493728 -5.7736988,-5.86777 -1.23815,-2.609371 -1.584064,-5.710532 -0.886973,-7.951791 0.703195,-2.260882 2.757859,-4.77659 4.9958668,-6.11688 2.278499,-1.364541 5.823128,-1.728529 9.070252,-0.931399 1.633569,0.401022 5.954293,1.98631 6.382652,2.341816 0.179194,0.148717 0.23213,-0.120089 0.23213,-1.178729 0,-5.155952 6.279117,-7.791735 9.910657,-4.160195 1.158928,1.158927 1.708738,2.462331 1.711016,4.056205 9.5e-4,0.714084 0.06598,1.269834 0.144357,1.235 1.337679,-0.594524 4.52215,-1.765454 5.842897,-2.148435 6.184076,-1.79321 11.52216,0.338502 14.155535,5.652877 0.694382,1.401318 0.810413,1.817825 0.891887,3.201557 0.11973,2.033484 -0.279216,3.974572 -1.205558,5.865668 -0.547551,1.117806 -1.076623,1.79809 -2.454249,3.15568 -0.965922,0.951873 -2.361323,2.132949 -3.100891,2.624614 -0.739567,0.491663 -1.385562,0.960101 -1.435543,1.04097 -0.04998,0.08087 -0.31235,1.464794 -0.583045,3.075386 l -0.492174,2.92835 0.946279,3.515 c 0.520456,1.93325 0.973524,3.683238 1.006822,3.888861 0.121904,0.752811 -2.584306,1.814166 -6.347209,2.489329 -4.518821,0.810793 -13.835556,1.216882 -19.147251,0.834569 z m -8.581657,-4.72826 c 4.030997,-1.01145 9.296041,-1.429034 16.276657,-1.290943 5.387256,0.106571 8.56697,0.407648 12.254999,1.160388 1.20175,0.245281 2.201403,0.43371 2.22145,0.418728 0.105545,-0.07887 -0.784354,-3.281245 -0.964438,-3.47061 -0.116607,-0.122617 -1.280762,-0.397816 -2.587012,-0.611553 -4.848765,-0.793385 -11.40189,-1.097106 -17.128737,-0.793873 -4.850485,0.256828 -10.209784,0.930637 -10.669127,1.341398 -0.114953,0.102794 -1.082136,3.287422 -1.082136,3.563131 0,0.09087 0.218443,0.04965 1.678344,-0.316666 z m 5.173477,-6.77194 c 3.195353,-0.420747 12.359511,-0.582432 16.074374,-0.283602 1.550343,0.124715 3.844805,0.406215 5.098805,0.625558 3.456283,0.604559 3.188354,0.68195 3.442975,-0.994515 0.142669,-0.939356 0.151981,-1.46581 0.02733,-1.544747 -0.307325,-0.194612 -2.933786,-0.721907 -5.180304,-1.040011 -2.895494,-0.409997 -13.293233,-0.578736 -16.87182,-0.273801 -2.766757,0.235756 -6.495683,0.790445 -7.803499,1.160793 l -0.735318,0.208229 0.129452,1.172268 c 0.237227,2.148235 0.07963,2.01292 1.887743,1.620825 0.861896,-0.186905 2.630513,-0.479853 3.930262,-0.650997 z m 26.255394,-6.685059 c 0.40053,-0.391875 1.768541,-1.52475 3.040025,-2.5175 1.271484,-0.99275 2.586081,-2.165612 2.921326,-2.606361 1.368578,-1.799273 1.932667,-4.897525 1.323434,-7.268955 -1.536327,-5.98013 -8.338716,-7.781312 -15.80307,-4.184441 -2.521505,1.215047 -4.502065,3.32824 -5.797929,6.186209 -0.89381,1.971253 -1.251665,3.695044 -1.401547,6.751235 l -0.135977,2.772687 3.485761,0.116754 c 4.015304,0.134487 8.705661,0.719459 11.552752,1.440832 0.04784,0.01212 0.414694,-0.298585 0.815225,-0.69046 z m -1.901128,-2.143943 c -1.206323,-0.484756 -6.836464,-1.127824 -9.907242,-1.131596 l -1.596158,-0.002 0.116886,-1.7575 c 0.145172,-2.182803 0.452377,-3.217864 1.456907,-4.908741 1.126276,-1.895803 2.746727,-3.547517 4.399693,-4.48457 2.075108,-1.176366 3.24447,-1.453882 5.659239,-1.343066 2.484127,0.113996 3.905165,0.603932 5.03572,1.736178 0.94237,0.943779 1.248868,1.866549 1.248868,3.759938 0,2.000433 -0.495677,2.904044 -2.814679,5.131102 -1.014639,0.974414 -2.119054,2.092284 -2.454254,2.484159 -0.335202,0.391875 -0.633445,0.707081 -0.662762,0.700456 -0.02932,-0.0066 -0.246316,-0.0896 -0.482218,-0.184399 z m -29.781087,2.48229 c 1.935395,-0.445305 6.420739,-0.964573 9.864784,-1.142047 2.081628,-0.107266 3.820254,-0.230504 3.86361,-0.273858 0.04335,-0.04336 -0.0092,-1.475204 -0.116693,-3.181885 C 30.584435,32.656652 30.250999,31.349003 28.980328,28.93895 27.432601,26.003414 25.308424,24.170807 22.104433,23.006859 16.48673,20.966055 11.742889,21.69882 9.2575032,24.991278 c -1.173863,1.555048 -1.530503,2.722206 -1.538506,5.035 -0.01191,3.444769 0.843009,5.00471 4.1780378,7.623412 1.114825,0.875374 2.457014,1.954963 2.982643,2.399088 1.020506,0.862266 1.13529,0.893262 2.308402,0.623347 z m -3.31635,-4.943981 c -1.390658,-1.424436 -2.697668,-2.91969 -2.90447,-3.322786 -0.2068,-0.403097 -0.41945,-1.212054 -0.472553,-1.797682 -0.366894,-4.046179 2.383277,-6.30112 7.377571,-6.049077 3.832918,0.193431 6.878213,2.206291 9.139515,6.040978 0.744724,1.262894 1.176201,2.834562 1.386069,5.048797 l 0.127678,1.347095 -3.00873,0.12244 c -3.46399,0.140966 -5.749979,0.398023 -7.725769,0.868754 l -1.390844,0.331365 -2.528467,-2.589884 z m 18.534555,-5.464366 c 0.172599,-0.600875 0.738284,-2.02578 1.257079,-3.166456 1.513466,-3.327672 2.049717,-4.861237 2.049717,-5.861779 0,-2.404271 -2.115356,-4.019149 -4.644376,-3.54555 -1.724956,0.323026 -2.603317,1.291002 -2.727341,3.0056 -0.09825,1.358339 0.316488,2.730895 1.786011,5.910685 0.555383,1.20175 1.187804,2.762125 1.405381,3.4675 0.217576,0.705375 0.43252,1.2825 0.477652,1.2825 0.04513,0 0.223275,-0.491625 0.395877,-1.0925 z m -1.218674,-6.301979 c -0.846816,-2.002388 -0.918027,-2.386597 -0.579884,-3.128739 0.436721,-0.958499 2.125411,-1.112801 2.730118,-0.249461 0.450678,0.643434 0.342,1.378325 -0.493871,3.339598 -0.428509,1.005444 -0.79772,1.848168 -0.820469,1.872716 -0.02275,0.02455 -0.398901,-0.800801 -0.835894,-1.834114 z m -0.22453,-10.743123 0,-1.987603 -1.655805,-0.0549 c -1.565341,-0.0519 -1.671122,-0.08225 -1.936197,-0.555504 -0.25136,-0.448771 -0.24668,-0.552056 0.04518,-0.9974998 0.308726,-0.4711755 0.408941,-0.4968939 1.936197,-0.4968939 l 1.610621,0 0,-1.7033158 c 0,-1.4895601 0.04612,-1.7279968 0.367509,-1.9 0.527237,-0.282169 1.079371,-0.2426604 1.423919,0.1018875 0.224198,0.2241962 0.298572,0.6974881 0.298572,1.9 l 0,1.6014283 1.601428,0 c 1.738167,0 2.198572,0.2155096 2.198572,1.0291237 0,0.802251 -0.547898,1.060876 -2.247461,1.060876 l -1.552539,0 0,1.995 0,1.995 -1.045,0 -1.045,0 0,-1.987602 z"
       id="path3029"
       inkscape:connector-curvature="0" />
    <path
       style="fill:#efefef"
       d="m 16.038465,53.463636 c 0.188048,-0.796006 0.830721,-2.668531 0.967999,-2.820411 0.196541,-0.217448 2.585519,-0.629586 5.560872,-0.959341 3.671385,-0.406897 11.815,-0.552323 15.573455,-0.278107 3.209542,0.234168 7.499662,0.798636 8.4476,1.111484 0.617674,0.20385 0.901309,0.782988 1.317138,2.689396 0.171162,0.784706 0.169769,0.787919 -0.291547,0.672136 -1.376887,-0.345577 -5.943477,-1.016437 -7.981209,-1.172489 -8.319794,-0.63714 -16.178017,-0.31087 -21.787897,0.904625 -2.03552,0.441037 -1.947101,0.448247 -1.806411,-0.147293 z"
       id="path3031"
       inkscape:connector-curvature="0" />
    <path
       style="fill:#efefef"
       d="m 17.134954,47.641848 c -0.04758,-0.07698 -0.143933,-0.722763 -0.214122,-1.435065 L 16.793217,44.911688 18.0671,44.621949 c 6.913931,-1.57254 21.182956,-1.56784 27.929544,0.0092 l 1.251187,0.29247 -0.108676,1.163785 c -0.05977,0.640082 -0.15718,1.242267 -0.216464,1.33819 -0.158109,0.255826 -0.906255,0.216204 -3.400558,-0.180096 -3.256368,-0.517377 -6.404555,-0.736408 -10.584594,-0.736408 -5.13951,0 -9.72976,0.295766 -12.790687,0.824151 -2.918216,0.503749 -2.892896,0.501154 -3.011898,0.308606 z"
       id="path3033"
       inkscape:connector-curvature="0" />
    <path
       style="fill:#efefef"
       d="M 15.558637,40.382078 C 14.315168,39.527837 10.629662,36.436763 9.7876244,35.541868 8.6462018,34.328795 8.162199,33.280873 7.9117842,31.480457 c -0.8393511,-6.03471 3.5463638,-10.177821 9.9214548,-9.37263 4.952689,0.625537 8.652374,2.812023 10.715696,6.332895 1.509034,2.575029 1.94535,4.271051 2.194912,8.53191 l 0.128318,2.190813 -4.245174,0.323945 c -4.219726,0.322002 -7.169741,0.652957 -9.042716,1.014481 -1.308659,0.2526 -1.500044,0.241282 -2.025638,-0.119793 l 0,0 z m 3.91409,-2.568189 c 1.2,-0.207632 3.732225,-0.466105 5.627167,-0.574383 1.894941,-0.108278 3.466302,-0.217823 3.491911,-0.243433 0.15713,-0.157129 -0.527432,-4.051827 -0.884538,-5.032437 -1.263343,-3.469136 -4.470008,-6.393495 -7.8915,-7.196755 -1.711244,-0.401747 -4.681721,-0.274881 -6.070312,0.259256 -2.250314,0.865609 -3.115666,2.122144 -3.236709,4.699868 -0.105761,2.252295 0.120243,2.674255 3.198601,5.971916 2.29957,2.463392 2.523415,2.653541 3.03318,2.576578 0.30271,-0.0457 1.5322,-0.252977 2.7322,-0.46061 z"
       id="path3035"
       inkscape:connector-curvature="0" />
    <path
       style="fill:#efefef"
       d="M 31.661032,30.098688 C 31.47561,29.57441 30.81309,27.959091 30.188765,26.509091 c -1.491607,-3.464267 -1.786499,-4.507186 -1.662162,-5.878403 0.118012,-1.30146 0.492886,-1.878252 1.593132,-2.451236 0.659027,-0.343208 1.028576,-0.409253 2.00945,-0.359126 1.532815,0.07833 2.484118,0.65863 3.072615,1.874302 0.627731,1.296719 0.452668,2.372409 -0.91829,5.642513 -0.626584,1.494572 -1.397117,3.391814 -1.712295,4.216092 l -0.573052,1.498689 -0.337131,-0.953234 0,0 z m 1.000686,-5.514674 c 0.888259,-1.979763 1.156037,-3.097791 0.89366,-3.731225 -0.122888,-0.296677 -0.370469,-0.618105 -0.55018,-0.714283 -0.545389,-0.291883 -1.544528,-0.19832 -2.039446,0.190982 -0.883315,0.694816 -0.792083,1.620293 0.425459,4.315967 0.282291,0.625 0.562718,1.136363 0.623172,1.136363 0.06045,0 0.351755,-0.539012 0.647335,-1.197804 z"
       id="path3037"
       inkscape:connector-curvature="0" />
    <path
       style="fill:#efefef"
       d="m 45.836364,40.499833 c -2.258517,-0.45588 -6.161035,-0.86326 -9.708614,-1.013472 l -2.981341,-0.126237 0.116388,-2.426806 c 0.184955,-3.856515 0.686349,-5.786562 2.160391,-8.31613 2.070114,-3.552472 5.657225,-5.747244 10.58332,-6.4754 3.534386,-0.522438 6.970954,0.686087 8.717788,3.065753 1.125482,1.533212 1.453195,2.597025 1.46514,4.756095 0.01367,2.470171 -0.447467,3.922032 -1.6844,5.303246 -1.125209,1.256459 -6.389084,5.611713 -6.749633,5.584547 -0.155472,-0.01171 -1.019039,-0.169931 -1.919039,-0.351596 z m 3.748002,-4.127106 c 2.458439,-2.51022 3.304707,-3.54544 3.589345,-4.390768 0.334722,-0.994064 0.257171,-3.620694 -0.132062,-4.472868 -0.366894,-0.803268 -1.301582,-1.800371 -2.059907,-2.197461 -1.605706,-0.840812 -5.436299,-1.065879 -7.466826,-0.438713 -3.022694,0.933615 -6.218461,4.04985 -7.404737,7.220456 -0.387491,1.035663 -0.870569,4.697752 -0.648933,4.919388 0.06909,0.06909 1.490845,0.181554 3.159458,0.249922 3.246794,0.133031 6.522123,0.529808 7.852023,0.951204 0.45,0.142589 0.863444,0.267341 0.918763,0.277228 0.05532,0.0099 1.042114,-0.943388 2.192876,-2.118388 z"
       id="path3039"
       inkscape:connector-curvature="0" />
  </g>
</svg>
