<?xml version="1.0" encoding="UTF-8" standalone="no"?>
<!-- Created with Inkscape (http://www.inkscape.org/) -->

<svg
   xmlns:dc="http://purl.org/dc/elements/1.1/"
   xmlns:cc="http://creativecommons.org/ns#"
   xmlns:rdf="http://www.w3.org/1999/02/22-rdf-syntax-ns#"
   xmlns:svg="http://www.w3.org/2000/svg"
   xmlns="http://www.w3.org/2000/svg"
   xmlns:sodipodi="http://sodipodi.sourceforge.net/DTD/sodipodi-0.dtd"
   xmlns:inkscape="http://www.inkscape.org/namespaces/inkscape"
   width="64px"
   height="64px"
   id="svg2985"
   version="1.1"
   inkscape:version="0.48.1 "
   sodipodi:docname="wb.svg">
  <defs
     id="defs2987" />
  <sodipodi:namedview
     id="base"
     pagecolor="#ffffff"
     bordercolor="#666666"
     borderopacity="1.0"
     inkscape:pageopacity="0.0"
     inkscape:pageshadow="2"
     inkscape:zoom="11"
     inkscape:cx="31.985232"
     inkscape:cy="36.598533"
     inkscape:current-layer="layer1"
     showgrid="true"
     inkscape:document-units="px"
     inkscape:grid-bbox="true"
     inkscape:window-width="1365"
     inkscape:window-height="878"
     inkscape:window-x="-8"
     inkscape:window-y="-8"
     inkscape:window-maximized="1" />
  <metadata
     id="metadata2990">
    <rdf:RDF>
      <cc:Work
         rdf:about="">
        <dc:format>image/svg+xml</dc:format>
        <dc:type
           rdf:resource="http://purl.org/dc/dcmitype/StillImage" />
        <dc:title />
      </cc:Work>
    </rdf:RDF>
  </metadata>
  <g
     id="layer1"
     inkscape:label="Layer 1"
     inkscape:groupmode="layer">
    <path
       style="fill:#000000"
       d="m 19.390271,56.95333 c -5.27928,-0.800063 -7.351805,-0.809647 -8.904602,-0.04118 L 9.4881358,57.405823 9.2334588,57.0019 c -0.140073,-0.222155 -0.809486,-1.317167 -1.487583,-2.433358 l -1.232906,-2.029438 0.406151,-0.357985 c 0.71821,-0.633038 1.399641,-0.983394 2.914145,-1.498305 2.2546262,-0.76654 5.2481162,-0.824108 9.4210332,-0.181177 4.221423,0.650406 4.93856,0.640874 6.339178,-0.08426 1.042072,-0.539509 1.966794,-1.335563 1.966794,-1.693134 0,-0.08665 -0.705375,-0.25889 -1.5675,-0.382751 -1.332116,-0.191387 -6.025198,-1.267876 -6.173353,-1.416032 -0.02674,-0.02674 0.800178,-1.860132 1.837602,-4.074198 l 1.886226,-4.025577 -0.983988,-0.498522 c -3.920379,-1.986205 -5.563163,-3.989911 -6.049995,-7.379184 -0.26439,-1.840651 0.06545,-3.803091 0.960776,-5.716366 0.795409,-1.69975 1.950608,-2.840945 4.930211,-4.870442 2.808568,-1.913 4.617987,-3.311463 6.391349,-4.939742 l 1.136329,-1.043363 -0.585624,-0.302838 c -1.185993,-0.6133 -2.159914,-2.172199 -2.159914,-3.457249 0,-1.3756379 1.109807,-3.0121629 2.536165,-3.7398359 1.075699,-0.548781 2.660447,-0.652616 4.003114,-0.262293 1.402357,0.407677 2.822239,1.745112 3.151722,2.968715 0.445012,1.6526529 -0.136494,3.1645589 -1.619085,4.2095849 l -0.857406,0.604355 0.714186,0.739986 c 1.140387,1.181586 3.537235,3.04709 6.553529,5.100718 2.78619,1.896961 4.23545,3.237827 4.88956,4.523845 1.68977,3.322214 1.57876,7.173708 -0.28783,9.985839 -0.79502,1.197751 -1.63125,1.880312 -3.857658,3.14875 -0.951404,0.542038 -1.694652,1.042433 -1.651664,1.111991 0.106045,0.171583 3.120108,6.609875 3.438132,7.344134 l 0.25372,0.585789 -2.031803,0.520347 c -1.117491,0.28619 -2.920785,0.665755 -4.007319,0.843477 l -1.975515,0.323129 0.66314,0.703133 c 0.930715,0.986847 2.459377,1.660169 3.762893,1.657423 0.57475,-0.0011 2.413,-0.212957 4.085004,-0.470548 3.45794,-0.532739 6.21502,-0.596948 8.17,-0.190274 1.41549,0.294451 4.02297,1.507903 4.33677,2.018226 0.14585,0.237183 -0.1427,0.84629 -1.276,2.693554 l -1.46447,2.387061 -0.9339,-0.484523 c -1.54981,-0.804072 -3.37128,-0.797373 -9.1174,0.03354 -5.200927,0.752073 -6.071961,0.760907 -7.891797,0.08002 -1.100662,-0.41181 -3.346806,-2.183782 -3.906283,-3.081648 -0.207169,-0.332472 -0.42679,-0.839618 -0.488048,-1.126993 -0.15852,-0.743669 -0.308252,-0.653227 -0.687815,0.415454 -0.753914,2.122695 -4.572827,4.413976 -7.261061,4.35651 -0.418,-0.0089 -2.68375,-0.307787 -5.035,-0.664113 z m 5.642774,-1.594369 c 1.71445,-0.278248 2.802401,-0.814304 3.831914,-1.888066 1.211079,-1.263132 1.928548,-2.623239 2.06106,-3.907155 l 0.107416,-1.040761 -0.555617,0 c -0.410178,0 -0.639874,0.142639 -0.877509,0.544922 -0.720229,1.219253 -2.085849,2.497531 -3.273947,3.064558 -1.935203,0.923588 -2.789852,1.008115 -5.673558,0.561134 -1.373643,-0.212918 -3.010533,-0.521003 -3.637533,-0.684634 -1.625033,-0.424094 -5.255481,-0.257488 -6.896505,0.31649 -0.6580782,0.230174 -1.1710782,0.474685 -1.1400002,0.543356 0.03108,0.06867 0.355077,0.61641 0.719998,1.217196 0.4715222,0.776288 0.7463882,1.058127 0.9500002,0.974097 0.665215,-0.274525 2.432916,-0.634077 3.148218,-0.640351 0.424442,-0.0037 2.219942,0.202783 3.99,0.458903 1.770059,0.256118 3.474789,0.499807 3.788289,0.541531 1.113984,0.14826 2.295981,0.127334 3.457774,-0.06122 z m 20.84219,-0.405639 c 4.03968,-0.562047 4.45303,-0.587947 5.795,-0.363134 0.79477,0.133147 1.6072,0.328461 1.8054,0.434033 0.26441,0.140839 0.40252,0.122962 0.51871,-0.06715 0.0871,-0.142502 0.41868,-0.699408 0.73684,-1.237567 l 0.57848,-0.97847 -1.1922,-0.41797 c -1.63062,-0.571675 -5.4993,-0.750621 -6.99878,-0.323727 -2.10715,0.599892 -5.939516,1.098247 -6.958904,0.904924 -2.188238,-0.41499 -4.191605,-1.748374 -5.326882,-3.545417 -0.423837,-0.670896 -0.635166,-0.835257 -1.074301,-0.835529 -0.54044,-3.8e-4 -0.545648,0.01034 -0.456759,0.935433 0.188332,1.960008 2.046484,4.554503 3.825487,5.34144 0.882878,0.390541 2.377943,0.691923 3.637945,0.733356 0.418,0.01374 2.717482,-0.247355 5.109964,-0.580226 z M 34.970271,46.618579 c 2.500658,-0.2602 6.27,-0.975403 6.27,-1.189687 0,-0.09759 -0.608008,-1.530304 -1.351128,-3.183813 l -1.351128,-3.00638 -1.261372,-0.155262 c -1.633732,-0.201096 -8.681324,-0.201027 -10.314592,1.01e-4 l -1.263219,0.155557 -1.426891,3.074443 c -0.784789,1.690943 -1.37059,3.134113 -1.301779,3.207044 0.150818,0.159853 3.934767,0.849201 5.920109,1.07851 2.005,0.231578 3.980833,0.237911 6.08,0.01949 z m -2.85,-9.777628 c 2.14225,0.0017 4.6645,0.04438 5.605,0.095 1.650304,0.08882 1.75643,0.06924 3.04,-0.560692 1.639436,-0.804582 3.064597,-2.194662 3.811094,-3.71728 0.51067,-1.041624 0.55891,-1.312159 0.55891,-3.135 0,-1.835681 -0.0468,-2.093627 -0.58645,-3.23 -0.735922,-1.549796 -1.730505,-2.567547 -4.258554,-4.357747 -3.085775,-2.185148 -4.894845,-3.581921 -6.600813,-5.096457 l -1.565812,-1.390108 -1.949188,1.672373 c -1.072052,0.919805 -3.359937,2.69715 -5.084187,3.949656 -3.68428,2.676284 -4.534865,3.475811 -5.286496,4.969163 -1.167278,2.319167 -1.203101,4.592505 -0.106468,6.756605 0.906576,1.78904 2.288145,3.000967 4.422469,3.879434 0.942117,0.387767 1.241504,0.422541 2.585495,0.300314 0.836,-0.07603 3.27275,-0.136895 5.415,-0.135261 z m -0.912,-4.315972 c -0.144645,-0.144645 -0.228,-0.874 -0.228,-1.995 l 0,-1.767 -1.62749,0 c -0.895121,0 -1.783036,-0.08325 -1.973145,-0.184988 -0.505593,-0.270586 -0.655741,-1.095148 -0.298655,-1.640131 0.279701,-0.426875 0.408909,-0.454881 2.09867,-0.454881 l 1.80062,0 0,-1.893316 c 0,-2.059792 0.119955,-2.286684 1.208938,-2.286684 0.879903,0 1.071062,0.426302 1.071062,2.388572 l 0,1.791428 1.775552,0 c 1.478829,0 1.828102,0.05807 2.09,0.347461 0.394113,0.435491 0.40066,0.964901 0.01868,1.510262 -0.270138,0.385677 -0.451286,0.422277 -2.09,0.422277 l -1.794227,0 0,1.767 c 0,1.991614 -0.118659,2.223 -1.14,2.223 -0.3762,0 -0.7866,-0.1026 -0.912,-0.228 z m 2.477534,-20.129697 c 0.906286,-0.475905 1.154325,-2.4013429 0.414635,-3.2186899 -0.47827,-0.528483 -1.607214,-0.814196 -2.618141,-0.662597 -2.300093,0.34492 -2.542474,3.5595809 -0.309022,4.0985179 0.714153,0.172327 1.978915,0.06298 2.512528,-0.217231 z"
       id="path3262"
       inkscape:connector-curvature="0" />
    <path
       style="fill:#ffffff"
       d="m 20.745455,55.221377 c -0.5,-0.08472 -2.249333,-0.323959 -3.887407,-0.531645 -3.011449,-0.381812 -3.882639,-0.366514 -5.51235,0.0968 l -0.854301,0.24287 -0.6456987,-0.972785 C 9.4905642,53.521583 9.2,53.039211 9.2,52.984676 c 0,-0.05454 0.1785058,-0.194688 0.3966795,-0.311451 1.5721605,-0.841395 5.4528775,-0.942017 9.0790275,-0.235407 1.497022,0.291717 3.136402,0.484116 4.260363,0.5 1.769559,0.02501 1.870536,0.0043 3.21284,-0.658799 1.059665,-0.523476 1.667426,-0.988734 2.582112,-1.976678 0.657938,-0.710634 1.196251,-1.363921 1.196251,-1.451747 0,-0.08783 0.215942,-0.159685 0.479871,-0.159685 0.469445,0 0.477514,0.01989 0.371429,0.915622 -0.213991,1.806823 -1.947493,4.17096 -3.648349,4.975594 -1.604373,0.75899 -4.165003,1.015364 -6.384769,0.639252 z"
       id="path3264"
       inkscape:connector-curvature="0" />
    <path
       style="fill:#ffffff"
       d="m 38.684668,55.139292 c -0.633432,-0.13749 -1.506129,-0.457693 -1.939326,-0.711564 -1.551538,-0.909262 -3.059397,-3.139051 -3.295411,-4.873183 -0.110029,-0.808449 -0.09149,-0.863636 0.290097,-0.863636 0.229359,0 0.577441,0.218673 0.795898,0.5 1.50139,1.93348 2.775846,2.901891 4.631763,3.5195 1.145367,0.381154 1.308907,0.39023 3.300513,0.183168 1.152489,-0.119821 2.790889,-0.375974 3.640889,-0.56923 2.153505,-0.489621 5.571771,-0.485926 7.532727,0.0081 0.793002,0.199799 1.464218,0.385668 1.491593,0.413043 0.02737,0.02737 -0.267922,0.552224 -0.656215,1.166333 l -0.705985,1.116561 -0.91718,-0.241947 c -1.854486,-0.489203 -2.585096,-0.480957 -7.060026,0.07969 -4.886166,0.612171 -5.447874,0.63375 -7.109337,0.273122 l 0,0 z"
       id="path3266"
       inkscape:connector-curvature="0" />
    <path
       style="fill:#ffffff"
       d="M 29.745455,46.578572 C 28.447835,46.460534 24.059476,45.745471 23.609091,45.57868 23.384091,45.495356 23.2,45.329861 23.2,45.210913 c 0,-0.118948 0.578668,-1.500379 1.285928,-3.069846 l 1.285928,-2.853577 1.377868,-0.116472 c 1.769589,-0.149585 8.499759,-0.148711 10.088116,0.0013 l 1.219658,0.115197 1.166436,2.656238 c 1.572753,3.581511 1.532582,3.401306 0.810378,3.635342 -1.931707,0.625986 -8.274603,1.219082 -10.688857,0.999468 z"
       id="path3268"
       inkscape:connector-curvature="0" />
    <path
       style="fill:#ffffff"
       d="m 23.647134,36.31904 c -3.333456,-1.530191 -5.197543,-5.032329 -4.436244,-8.334557 0.509722,-2.210982 1.669045,-3.621562 5.042526,-6.135381 2.909755,-2.168264 6.349882,-4.888974 7.173857,-5.673624 l 0.681818,-0.649277 0.681818,0.644495 c 1.206424,1.140384 3.703502,3.130774 6.461978,5.150762 3.198729,2.342379 4.407444,3.505362 5.134448,4.940184 0.509507,1.005572 0.539938,1.188597 0.539938,3.247449 0,1.959779 -0.04604,2.274334 -0.452428,3.090909 -0.634538,1.275015 -2.400309,2.970435 -3.823552,3.671215 l -1.178566,0.580305 -7.363636,-0.01415 -7.363636,-0.01415 -1.098321,-0.504173 z m 9.290842,-3.704193 c 0.29792,-0.217684 0.362754,-0.529432 0.415939,-2 l 0.063,-1.74212 1.59867,0 c 1.258083,0 1.678781,-0.06779 1.974695,-0.318182 0.549093,-0.464624 0.66316,-1.169334 0.266357,-1.645556 -0.280611,-0.336775 -0.588746,-0.412849 -2.08152,-0.513894 l -1.752151,-0.118602 -0.07452,-1.70388 c -0.08621,-1.971161 -0.295599,-2.328699 -1.346326,-2.298915 -0.361962,0.01026 -0.743676,0.104218 -0.848254,0.208795 -0.104577,0.104578 -0.229175,1.000776 -0.276884,1.991553 l -0.08674,1.801412 -1.749667,0.114555 c -1.895733,0.124119 -2.204211,0.293456 -2.204211,1.209987 0,0.964837 0.343898,1.156196 2.225752,1.238502 l 1.723275,0.07537 0.104147,1.745638 c 0.08202,1.374837 0.172061,1.795297 0.423873,1.979427 0.421837,0.308455 1.184934,0.297139 1.624565,-0.02409 l 0,0 z"
       id="path3270"
       inkscape:connector-curvature="0" />
    <path
       style="fill:#ffffff"
       d="M 30.674558,12.255362 C 29.685305,11.707061 29.456561,10.334867 30.20595,9.4442685 31.008705,8.4902481 32.284682,8.3137065 33.583481,8.97696 c 0.996684,0.5089729 1.133724,2.213273 0.249097,3.0979 -0.367667,0.367667 -0.609692,0.433243 -1.578859,0.427788 -0.629545,-0.0035 -1.340168,-0.114822 -1.579161,-0.247286 l 0,0 z"
       id="path3272"
       inkscape:connector-curvature="0" />
    <path
       style="fill:none;stroke:#000000;stroke-width:1.96581864px;stroke-linecap:butt;stroke-linejoin:miter;stroke-opacity:1"
       d="m 20.933854,46.400565 c 4.572883,-1.677347 7.375737,-1.987583 11.404766,-2.237139 4.45357,0.170866 6.544111,0.339901 10.995165,2.092696"
       id="path3015"
       inkscape:connector-curvature="0"
       sodipodi:nodetypes="ccc" />
  </g>
</svg>
