<?xml version="1.0" encoding="UTF-8" standalone="no"?>
<!-- Created with Inkscape (http://www.inkscape.org/) -->

<svg
   xmlns:dc="http://purl.org/dc/elements/1.1/"
   xmlns:cc="http://creativecommons.org/ns#"
   xmlns:rdf="http://www.w3.org/1999/02/22-rdf-syntax-ns#"
   xmlns:svg="http://www.w3.org/2000/svg"
   xmlns="http://www.w3.org/2000/svg"
   xmlns:sodipodi="http://sodipodi.sourceforge.net/DTD/sodipodi-0.dtd"
   xmlns:inkscape="http://www.inkscape.org/namespaces/inkscape"
   width="64px"
   height="64px"
   id="svg2985"
   version="1.1"
   inkscape:version="0.48.1 "
   sodipodi:docname="wq.svg">
  <defs
     id="defs2987" />
  <sodipodi:namedview
     id="base"
     pagecolor="#ffffff"
     bordercolor="#666666"
     borderopacity="1.0"
     inkscape:pageopacity="0.0"
     inkscape:pageshadow="2"
     inkscape:zoom="5.5"
     inkscape:cx="1.8181818"
     inkscape:cy="32"
     inkscape:current-layer="layer1"
     showgrid="true"
     inkscape:document-units="px"
     inkscape:grid-bbox="true"
     inkscape:window-width="1365"
     inkscape:window-height="878"
     inkscape:window-x="-8"
     inkscape:window-y="-8"
     inkscape:window-maximized="1" />
  <metadata
     id="metadata2990">
    <rdf:RDF>
      <cc:Work
         rdf:about="">
        <dc:format>image/svg+xml</dc:format>
        <dc:type
           rdf:resource="http://purl.org/dc/dcmitype/StillImage" />
        <dc:title></dc:title>
      </cc:Work>
    </rdf:RDF>
  </metadata>
  <g
     id="layer1"
     inkscape:label="Layer 1"
     inkscape:groupmode="layer">
    <path
       style="fill:#000000"
       d="m 10.624865,53.945 0,-3.705 2.375,0 2.375,0 0,-3.184957 0,-3.184958 2.757162,-2.752243 2.757162,-2.752244 -0.04966,-7.405166 -0.04966,-7.405166 -3.46646,-2.665133 -3.46646,-2.665133 -10e-4,-5.9375 -0.001,-5.9375 4.275,0 4.274999,0 0,2.185 0,2.185 2.66,0 2.66,0 0,-2.185 0,-2.185 4.275,0 4.275,0 0,2.185 0,2.185 2.66,0 2.66,0 0,-2.185 0,-2.185 4.275001,0 4.274999,0 -9.5e-4,5.9375 -9.49e-4,5.9375 -3.466459,2.665133 -3.466462,2.665133 -0.04966,7.405253 -0.04966,7.405254 2.662164,2.657069 2.662161,2.657068 0,3.280044 0,3.280046 2.47,0 2.47,0 0,3.705 0,3.705 -21.374999,0 -21.375001,0 0,-3.705 z m 40.659999,0 0,-1.615 -19.285,0 -19.285,0 0,1.615 0,1.615 19.285,0 19.285,0 0,-1.615 z m -4.94,-5.795 0,-2.09 -14.345,0 -14.345,0 0,2.09 0,2.09 14.345,0 14.345,0 0,-2.09 z m -2.47,-5.985 -1.60661,-1.615 -10.264195,0.0086 -10.264195,0.0086 -1.685959,1.60642 -1.685959,1.606419 13.556766,0 13.556761,0 L 43.874864,42.165 z m -2.85,-11.115 0,-7.41 -9.025,0 -9.025,0 0,7.41 0,7.41 9.025,0 9.025,0 0,-7.41 z M 44.198859,19.7925 46.136501,18.225 39.12973,18.1752 c -3.853724,-0.02739 -10.217166,-0.02739 -14.140982,0 l -7.134213,0.0498 1.942665,1.559364 1.942664,1.559363 10.260678,0.0081 10.260678,0.0081 1.937639,-1.5675 z m 3.856005,-7.4575 0,-3.705 -2.185,0 -2.184999,0 0,2.09 0,2.09 -4.750001,0 -4.75,0 0,-2.09 0,-2.09 -2.185,0 -2.185,0 0,2.09 0,2.09 -4.75,0 -4.75,0 0,-2.09 0,-2.09 -2.185,0 -2.185,0 0,3.705 0,3.705 16.055,0 16.055,0 0,-3.705 z"
       id="path3172"
       inkscape:connector-curvature="0" />
    <path
       style="fill:#ffffff"
       d="m 12.836364,53.872727 0,-1.545454 19.181818,0 19.181818,0 0,1.545454 0,1.545455 -19.181818,0 -19.181818,0 0,-1.545455 z"
       id="path3174"
       inkscape:connector-curvature="0" />
    <path
       style="fill:#ffffff"
       d="m 17.745455,48.145455 0,-2 14.272727,0 14.272727,0 0,2 0,2 -14.272727,0 -14.272727,0 0,-2 z"
       id="path3176"
       inkscape:connector-curvature="0" />
    <path
       style="fill:#ffffff"
       d="m 20.162647,42.229424 1.599011,-1.538515 10.223185,0 10.223186,0 1.537426,1.545455 1.537425,1.545454 -13.359621,-0.0069 -13.359623,-0.0069 1.599011,-1.538514 z"
       id="path3178"
       inkscape:connector-curvature="0" />
    <path
       style="fill:#ffffff"
       d="m 23.018182,31.054545 0,-7.272727 9,0 9,0 0,7.272727 0,7.272728 -9,0 -9,0 0,-7.272728 z"
       id="path3180"
       inkscape:connector-curvature="0" />
    <path
       style="fill:#ffffff"
       d="m 20.025421,19.827273 -1.772104,-1.409091 6.941351,-0.04763 c 3.817743,-0.02619 9.998994,-0.02619 13.736114,0 l 6.794762,0.04763 -1.738213,1.409091 -1.738211,1.409091 -10.225798,0 -10.225797,0 -1.772104,-1.409091 z"
       id="path3182"
       inkscape:connector-curvature="0" />
    <path
       style="fill:#ffffff"
       d="m 16.109091,12.327273 0,-3.6363639 2.090909,0 2.090909,0 0,2.0909089 0,2.090909 4.818182,0 4.818182,0 0,-2.090909 0,-2.0909089 2.090909,0 2.090909,0 0,2.0909089 0,2.090909 4.818182,0 4.818182,0 0,-2.090909 0,-2.0909089 2.090909,0 2.090909,0 0,3.6363639 0,3.636363 -15.909091,0 -15.909091,0 0,-3.636363 z"
       id="path3184"
       inkscape:connector-curvature="0" />
  </g>
</svg>
