<?xml version="1.0" encoding="UTF-8" standalone="no"?>
<!-- Created with Inkscape (http://www.inkscape.org/) -->

<svg
   xmlns:dc="http://purl.org/dc/elements/1.1/"
   xmlns:cc="http://creativecommons.org/ns#"
   xmlns:rdf="http://www.w3.org/1999/02/22-rdf-syntax-ns#"
   xmlns:svg="http://www.w3.org/2000/svg"
   xmlns="http://www.w3.org/2000/svg"
   xmlns:sodipodi="http://sodipodi.sourceforge.net/DTD/sodipodi-0.dtd"
   xmlns:inkscape="http://www.inkscape.org/namespaces/inkscape"
   width="64px"
   height="64px"
   id="svg2985"
   version="1.1"
   inkscape:version="0.48.1 "
   sodipodi:docname="wn.svg">
  <defs
     id="defs2987" />
  <sodipodi:namedview
     id="base"
     pagecolor="#ffffff"
     bordercolor="#666666"
     borderopacity="1.0"
     inkscape:pageopacity="0.0"
     inkscape:pageshadow="2"
     inkscape:zoom="7.7781746"
     inkscape:cx="31.567091"
     inkscape:cy="35.282097"
     inkscape:current-layer="layer1"
     showgrid="true"
     inkscape:document-units="px"
     inkscape:grid-bbox="true"
     inkscape:window-width="1365"
     inkscape:window-height="878"
     inkscape:window-x="-8"
     inkscape:window-y="-8"
     inkscape:window-maximized="1" />
  <metadata
     id="metadata2990">
    <rdf:RDF>
      <cc:Work
         rdf:about="">
        <dc:format>image/svg+xml</dc:format>
        <dc:type
           rdf:resource="http://purl.org/dc/dcmitype/StillImage" />
        <dc:title></dc:title>
      </cc:Work>
    </rdf:RDF>
  </metadata>
  <g
     id="layer1"
     inkscape:label="Layer 1"
     inkscape:groupmode="layer">
    <path
       style="fill:#000000"
       d="m 20.125708,58.813836 c -1.0847,-0.472796 -1.27896,-1.444809 -0.647696,-3.240868 0.472001,-1.34293 1.402682,-2.853249 2.928439,-4.752303 1.04417,-1.299638 1.436212,-1.631857 2.656801,-2.251397 4.790802,-2.431687 7.321127,-6.6562 7.667609,-12.80149 0.128302,-2.275571 -0.0017,-2.606385 -0.640638,-1.631131 -0.600922,0.917125 -3.737146,3.488875 -5.070004,4.157482 -1.336082,0.670223 -2.143576,0.805132 -2.780102,0.464474 -0.312583,-0.16729 -0.456914,-0.02257 -1.134407,1.137459 -1.075987,1.842343 -2.914564,4.241697 -3.760258,4.907161 -0.958576,0.754288 -2.103744,1.314982 -3.347251,1.638875 -1.334384,0.347563 -1.824953,0.226366 -1.824953,-0.45086 0,-0.605884 0.349351,-0.949531 2.28,-2.242781 2.188388,-1.465898 2.66,-2.127081 2.66,-3.729233 0,-1.170993 -0.349439,-1.551145 -1.389597,-1.511733 -1.808751,0.06853 -3.305238,1.538377 -3.929806,3.859839 -0.442757,1.645685 -2.032961,3.051669 -3.137866,2.774357 -0.7109363,-0.178433 -2.6306703,-2.163164 -3.2230533,-3.332177 -0.607356,-1.198558 -0.787585,-2.715734 -0.476602,-4.012057 0.199199,-0.830355 0.476704,-1.255567 1.61095,-2.468421 1.8122013,-1.937791 2.8135693,-3.263064 4.3701663,-5.783754 1.200428,-1.943924 1.313699,-2.222794 1.620641,-3.99 0.529809,-3.05035 1.77133,-5.791831 3.689304,-8.146586 l 0.815422,-1.001117 -0.349998,-0.651148 c -0.837306,-1.557752 -1.349244,-3.642928 -1.451008,-5.9101089 -0.05478,-1.2204284 -0.04187,-2.3694135 0.0287,-2.5533 0.105215,-0.274185 0.429264,-0.034769 1.801083,1.3306944 1.526209,1.5191385 1.729471,1.6596245 2.319725,1.6033005 l 0.646941,-0.06173 0.1371,-2.4667988 c 0.0754,-1.3567389 0.160903,-2.5816347 0.19,-2.7219896 0.02909,-0.1403549 0.48913,0.3712049 1.022301,1.1367985 1.482904,2.1293431 2.623981,3.2907656 4.133535,4.2072379 1.229479,0.746434 1.731339,0.911714 4.691902,1.545207 3.909244,0.83649 4.930451,1.161397 7.584832,2.413186 3.075819,1.450537 5.504568,3.161265 7.896797,5.562233 3.969359,3.98386 6.552091,8.738958 8.160358,15.024125 1.159501,4.531381 1.32335,5.842033 1.318248,10.545 -0.0049,4.552438 -0.362864,7.838232 -1.283216,11.78 l -0.421445,1.805 -17.380206,0.0406 C 23.668099,59.069608 20.62633,59.032078 20.12571,58.81384 z m 33.263787,-2.716058 c 0.698875,-3.43067 0.974004,-8.25117 0.713007,-12.4925 C 53.560158,34.791961 52.238881,30.519019 48.499368,25.485024 43.44,18.674296 37.410242,14.270117 33.42955,14.477924 c -0.965409,0.0504 -1.13323,0.119156 -1.383707,0.56692 -0.213581,0.381809 -0.238099,0.643066 -0.09779,1.042033 0.153763,0.437225 0.513817,0.673503 2.012934,1.32095 3.781169,1.633032 5.378516,2.826485 9.12276,6.816047 3.82076,4.07109 5.326453,6.876357 6.684143,12.453288 1.102994,4.530715 1.397154,8.382789 1.078038,14.11707 -0.126991,2.281925 -0.174306,4.5263 -0.105144,4.9875 l 0.125747,0.838546 1.208262,0 c 1.165632,0 1.212015,-0.01843 1.314701,-0.5225 z m -41.463312,-15.7225 c 0.620799,-0.57475 1.244501,-1.045 1.386005,-1.045 0.359849,0 1.271249,-1.127921 1.201991,-1.487548 -0.178021,-0.924391 -2.83376,-1.39992 -4.090215,-0.732381 -1.2839123,0.682126 -1.8181843,3.085319 -0.8918603,4.011643 0.5573473,0.557346 1.2030793,0.355942 2.3940793,-0.746714 z m 10.844565,-11.842242 1.4725,0.06506 -0.0042,-0.57141 c -0.01034,-1.414789 -1.129524,-2.812325 -2.746845,-3.429986 -1.768042,-0.67522 -5.253159,0.04173 -5.528111,1.137226 -0.162612,0.647898 0.07847,0.901937 1.25868,1.326335 0.783288,0.281667 1.035503,0.481108 1.24624,0.985473 0.145315,0.347787 0.264208,0.795473 0.264208,0.994861 0,0.346318 0.05732,0.341623 1.2825,-0.105048 1.045515,-0.38117 1.554595,-0.455547 2.755,-0.402511 z m 3.516204,-7.64509 c 0.792667,-0.276324 1.069028,-1.012482 0.906335,-2.414255 -0.157719,-1.358912 -0.19571,-1.41766 -1.145039,-1.770631 -0.655113,-0.243578 -0.817466,-0.425776 -1.176389,-1.320179 -0.229013,-0.570682 -0.464679,-1.208603 -0.523703,-1.417603 -0.102543,-0.363093 -0.124072,-0.358867 -0.483932,0.095 -0.782798,0.987294 -1.18475,2.457033 -1.091206,3.99 0.04783,0.78375 0.203745,1.672369 0.346488,1.974708 0.435364,0.922135 1.873632,1.313987 3.167446,0.86296 z"
       id="path3217"
       inkscape:connector-curvature="0" />
    <path
       style="fill:#ffffff"
       d="m 50.851295,56.121502 c -0.05178,-0.272235 -0.02464,-2.722358 0.06031,-5.444719 0.231393,-7.415419 -0.07267,-10.52657 -1.534464,-15.700571 -0.79134,-2.800934 -1.588702,-4.62398 -2.917196,-6.669717 -1.11962,-1.724095 -2.081675,-2.839621 -4.778854,-5.541195 -2.929297,-2.934072 -4.135305,-3.809999 -7.079571,-5.141918 -2.208505,-0.999078 -2.590079,-1.284635 -2.60901,-1.952496 -0.02138,-0.754175 0.347387,-1.036601 1.433638,-1.09798 2.904965,-0.164145 6.840534,2.109117 11.066223,6.392069 3.555977,3.604164 6.29945,7.635982 7.544403,11.087282 1.740197,4.824232 2.491071,13.010135 1.838106,20.038739 -0.14001,1.507086 -0.579378,4.233078 -0.70207,4.355883 -0.04374,0.04378 -0.562798,0.09985 -1.153456,0.1246 l -1.073924,0.045 -0.09414,-0.494974 0,0 z"
       id="path3219"
       inkscape:connector-curvature="0" />
    <path
       style="fill:#ffffff"
       d="M 9.5437822,40.957093 C 8.8227783,40.040485 9.188582,38.162175 10.245028,37.356374 c 0.420043,-0.320387 0.62263,-0.377899 1.466262,-0.416255 0.538383,-0.02448 1.215124,0.01911 1.503867,0.09686 0.632832,0.170404 1.20138,0.592502 1.20138,0.89192 0,0.311038 -0.720866,1.144935 -1.200796,1.38908 -0.223445,0.113669 -0.695536,0.451602 -1.049089,0.750962 -1.531003,1.296329 -2.139674,1.502435 -2.6228698,0.888152 z"
       id="path3221"
       inkscape:connector-curvature="0" />
    <path
       style="fill:#ffffff"
       d="m 18.741474,28.724331 c -0.142338,-0.867213 -0.510586,-1.285104 -1.549749,-1.758666 -1.457728,-0.664308 -1.582295,-1.209141 -0.42727,-1.868803 1.362058,-0.777904 3.833245,-0.86956 5.172704,-0.191855 1.275277,0.645231 2.250308,2.031604 2.250308,3.199656 l 0,0.395187 -1.639202,0.0098 c -1.437699,0.0086 -1.75655,0.05205 -2.593816,0.3533 -0.525037,0.188907 -0.99494,0.343466 -1.044228,0.343466 -0.04929,0 -0.125224,-0.216953 -0.168747,-0.482118 z"
       id="path3223"
       inkscape:connector-curvature="0" />
    <path
       style="fill:#ffffff"
       d="m 24.123185,20.804873 c -0.541601,-0.252038 -0.916122,-0.70471 -1.079762,-1.305071 -0.226774,-0.831991 -0.175905,-2.888484 0.09274,-3.749068 0.235104,-0.753151 0.840661,-1.843504 1.023838,-1.843504 0.05383,0 0.264221,0.44837 0.467542,0.996378 0.496041,1.336978 0.617981,1.497928 1.424007,1.879563 0.380993,0.180392 0.758694,0.451267 0.839333,0.601944 0.22495,0.420321 0.310792,2.066036 0.135476,2.597249 -0.08361,0.253337 -0.304678,0.560641 -0.491265,0.682898 -0.452677,0.296606 -1.895122,0.3801 -2.411905,0.139611 z"
       id="path3225"
       inkscape:connector-curvature="0" />
  </g>
</svg>
