<?xml version="1.0" encoding="UTF-8" standalone="no"?>
<!-- Created with Inkscape (http://www.inkscape.org/) -->

<svg
   xmlns:dc="http://purl.org/dc/elements/1.1/"
   xmlns:cc="http://creativecommons.org/ns#"
   xmlns:rdf="http://www.w3.org/1999/02/22-rdf-syntax-ns#"
   xmlns:svg="http://www.w3.org/2000/svg"
   xmlns="http://www.w3.org/2000/svg"
   xmlns:sodipodi="http://sodipodi.sourceforge.net/DTD/sodipodi-0.dtd"
   xmlns:inkscape="http://www.inkscape.org/namespaces/inkscape"
   width="64px"
   height="64px"
   id="svg2985"
   version="1.1"
   inkscape:version="0.48.1 "
   sodipodi:docname="wb.svg">
  <defs
     id="defs2987" />
  <sodipodi:namedview
     id="base"
     pagecolor="#ffffff"
     bordercolor="#666666"
     borderopacity="1.0"
     inkscape:pageopacity="0.0"
     inkscape:pageshadow="2"
     inkscape:zoom="7.7781746"
     inkscape:cx="37.124967"
     inkscape:cy="16.165823"
     inkscape:current-layer="layer1"
     showgrid="true"
     inkscape:document-units="px"
     inkscape:grid-bbox="true"
     inkscape:window-width="1365"
     inkscape:window-height="878"
     inkscape:window-x="-8"
     inkscape:window-y="-8"
     inkscape:window-maximized="1" />
  <metadata
     id="metadata2990">
    <rdf:RDF>
      <cc:Work
         rdf:about="">
        <dc:format>image/svg+xml</dc:format>
        <dc:type
           rdf:resource="http://purl.org/dc/dcmitype/StillImage" />
        <dc:title></dc:title>
      </cc:Work>
    </rdf:RDF>
  </metadata>
  <g
     id="layer1"
     inkscape:label="Layer 1"
     inkscape:groupmode="layer">
    <path
       style="fill:#000000"
       d="m 2.9397899,59.859623 c -0.367756,-0.962669 -0.409252,-2.910863 -0.08864,-4.161454 0.658555,-2.568791 2.432979,-4.056198 5.741326,-4.812658 1.5757331,-0.360295 7.2282601,-0.311087 9.6651381,0.08414 1.040734,0.168792 1.908496,0.289156 1.928359,0.267473 0.01986,-0.02168 -0.08899,-0.637921 -0.241893,-1.369421 -0.159205,-0.76164 -0.295306,-2.588513 -0.318486,-4.275 -0.04036,-2.936317 -0.04228,-2.948141 -0.65139,-4.010577 -2.600695,-4.536209 -3.878183,-9.567141 -3.435067,-13.527792 0.455882,-4.074765 3.405173,-9.798913 8.038339,-15.60126 0.892592,-1.117837 1.622893,-2.099716 1.622893,-2.181954 0,-0.08224 -0.179753,-0.3121969 -0.399452,-0.5110219 -0.743385,-0.672753 -0.975016,-1.379329 -0.898145,-2.739735 0.05905,-1.045089 0.170097,-1.40318 0.6167,-1.988707 1.572472,-2.061616 4.867207,-1.775844 5.977879,0.518497 0.736764,1.521954 0.439291,3.208625 -0.741067,4.201831 l -0.625755,0.5265389 1.402663,1.412089 c 0.771467,0.77665 1.497654,1.41209 1.61375,1.41209 0.254931,0 2.594019,-2.398464 2.898961,-2.972549 0.174523,-0.3285579 0.15618,-0.4574479 -0.09464,-0.6649999 -0.454512,-0.37611 -1.00191,-1.681663 -1.006725,-2.401053 -0.006,-0.903592 0.412933,-1.767789 1.186229,-2.446753 1.316305,-1.155731 3.092408,-1.310051 4.483381,-0.389547 1.722616,1.139972 2.07483,4.337928 0.578024,5.24819 l -0.549021,0.333879 0.881353,1.1239159 c 3.631615,4.631104 6.125027,9.941261 6.832537,14.551082 0.688414,4.485391 -0.368104,11.57937 -2.387986,16.034127 -0.551451,1.216196 -0.578689,1.394591 -0.578689,3.790101 0,1.402757 -0.12841,3.250188 -0.290531,4.179856 -0.159792,0.916313 -0.265555,1.690998 -0.235032,1.721521 0.03052,0.03053 0.909388,-0.08098 1.953031,-0.247779 2.331629,-0.372658 8.116794,-0.436962 9.515772,-0.105771 2.960183,0.700787 4.856784,2.05854 5.599051,4.008294 0.4766,1.251908 0.580384,3.694147 0.204541,4.813311 l -0.231994,0.690823 -1.274919,-0.439462 c -3.354027,-1.15613 -7.234139,-1.508907 -15.00531,-1.364273 l -5.750393,0.107023 -0.277125,-0.535897 c -0.41412,-0.800822 -1.73637,-1.84734 -2.932011,-2.320595 -0.908816,-0.359726 -1.426074,-0.419596 -3.625077,-0.419596 -2.243594,0 -2.706643,0.05587 -3.69539,0.445903 -1.123367,0.443133 -2.844343,1.833513 -3.042582,2.458108 -0.09208,0.290117 -0.737538,0.317494 -7.368974,0.312554 -8.0531231,-0.006 -10.1454051,0.185586 -13.2218831,1.210687 l -1.583828,0.527742 -0.187922,-0.491921 z M 25.07959,50.633438 c 2.453647,-1.118164 3.469438,-1.314287 6.865779,-1.325606 3.437636,-0.01146 4.244811,0.137254 6.84,1.260164 1.091121,0.472116 1.867153,0.700847 2.14422,0.631995 0.781087,-0.194098 1.080832,-1.816801 0.46828,-2.535083 -0.490504,-0.575166 -3.228379,-1.879039 -4.727228,-2.251272 -1.851978,-0.459931 -7.062574,-0.462914 -8.879206,-0.0051 -1.748547,0.440673 -4.062285,1.38184 -4.822441,1.961638 -0.526165,0.401326 -0.618625,0.591873 -0.618625,1.274904 0,0.906528 0.421477,1.647606 0.937053,1.647606 0.190029,0 0.996503,-0.29667 1.792168,-0.659264 z m -1.251498,-6.286509 c 0.555864,-0.389343 0.536292,-0.808373 -0.04457,-0.95416 -0.766044,-0.192264 -1.519327,0.159692 -1.588273,0.742085 -0.0546,0.461201 -0.0017,0.507848 0.575223,0.507848 0.349441,0 0.82537,-0.133099 1.05762,-0.295773 z m 18.054446,-0.199671 c 0.112607,-0.788766 -1.87419,-1.15415 -2.023388,-0.372115 -0.09734,0.510201 0.507483,0.895304 1.301219,0.828515 0.509335,-0.04286 0.678382,-0.149695 0.722169,-0.4564 z m -8.103572,-0.649327 c 0.717415,-0.199269 0.988365,-0.549649 0.801536,-1.036519 -0.248378,-0.647263 -3.300798,-0.911694 -4.541236,-0.393406 -0.87669,0.366305 -0.895329,0.970277 -0.0414,1.34143 0.725,0.315115 2.791108,0.363472 3.781097,0.08849 z m -9.710313,-2.088646 c 2.161054,-0.891147 4.814117,-1.371378 7.686716,-1.391375 2.850971,-0.01985 4.828409,0.313296 7.839558,1.320745 1.085821,0.363285 2.136086,0.609145 2.333918,0.546356 0.418796,-0.13292 0.750521,-1.151901 0.611591,-1.878667 -0.208814,-1.092339 -2.541803,-2.540545 -4.994557,-3.100376 -2.110786,-0.48178 -8.629498,-0.473057 -10.73051,0.01436 -1.684928,0.390887 -3.874111,1.349853 -4.75,2.080724 -0.492254,0.410756 -0.57,0.603678 -0.57,1.414436 0,0.997306 0.309873,1.567213 0.852133,1.567213 0.181832,0 0.95635,-0.258037 1.721151,-0.573416 z m 18.556846,-5.468652 c 1.289733,-0.819632 1.042636,-6.955864 -0.447074,-11.102329 -1.367671,-3.806784 -4.272726,-8.355298 -6.030036,-9.441376 -0.884393,-0.546584 -2.260891,-0.816958 -2.907539,-0.571103 -1.287281,0.489423 -1.131194,1.030297 1.368836,4.743286 2.761266,4.100976 3.152455,4.886628 4.08845,8.211103 1.253415,4.451892 1.713198,5.888083 2.204964,6.887487 0.627592,1.275444 1.131934,1.648176 1.722399,1.272932 z"
       id="path3175"
       inkscape:connector-curvature="0" />
    <path
       style="fill:#ffffff"
       d="m 23.088674,51.183862 c -0.273615,-0.09407 -0.671528,-1.018742 -0.671528,-1.560504 0,-0.685802 0.412424,-1.151911 1.487567,-1.681203 2.555354,-1.257996 4.195316,-1.663596 7.126279,-1.762491 4.156208,-0.140236 6.090139,0.209607 8.765214,1.585603 1.298618,0.66798 1.719169,1.043991 1.83032,1.636477 0.112349,0.598868 -0.172925,1.377889 -0.590176,1.611644 -0.325537,0.182375 -0.440056,0.155794 -2.12132,-0.492381 -2.57234,-0.991711 -3.375381,-1.168821 -5.698435,-1.25679 -3.385662,-0.128207 -5.513957,0.179508 -7.713892,1.115297 -1.384873,0.589085 -2.225476,0.869171 -2.414029,0.804348 z"
       id="path3177"
       inkscape:connector-curvature="0" />
    <path
       style="fill:#ffffff"
       d="m 22.357105,44.472639 c -0.051,-0.08252 -0.05974,-0.28147 -0.01943,-0.442105 0.175899,-0.700836 1.864122,-0.826615 1.729749,-0.128872 -0.08139,0.422595 -1.507734,0.898771 -1.710321,0.570977 z"
       id="path3179"
       inkscape:connector-curvature="0" />
    <path
       style="fill:#ffffff"
       d="m 30.323885,43.430649 c -0.945661,-0.306404 -1.068803,-0.76929 -0.320992,-1.206601 0.634319,-0.370942 2.862332,-0.433122 3.792244,-0.105836 0.577391,0.203215 0.642824,0.265328 0.642824,0.610207 0,0.589478 -0.480411,0.75953 -2.249885,0.796396 -0.813173,0.01694 -1.652059,-0.02543 -1.864191,-0.09417 z"
       id="path3181"
       inkscape:connector-curvature="0" />
    <path
       style="fill:#ffffff"
       d="m 40.691278,44.453688 c -0.994096,-0.206657 -1.031322,-0.917635 -0.05188,-0.990952 0.397826,-0.02978 0.60162,0.03279 0.876249,0.269011 0.612887,0.527184 0.157441,0.926043 -0.824365,0.721941 z"
       id="path3183"
       inkscape:connector-curvature="0" />
    <path
       style="fill:#ffffff"
       d="m 21.855504,41.605209 c -0.295177,-0.469477 -0.376627,-1.427195 -0.164546,-1.934776 0.328995,-0.787396 2.326966,-1.883302 4.588341,-2.516747 2.514999,-0.70449 9.297905,-0.710021 11.817791,-0.0096 1.404105,0.390261 3.083694,1.30061 3.787152,2.052662 0.490983,0.524901 0.589024,0.713035 0.589024,1.130298 0,0.774707 -0.231582,1.29903 -0.616414,1.395616 -0.342812,0.08604 -0.769664,-0.01326 -3.42389,-0.796488 -2.110555,-0.622799 -3.429881,-0.842404 -5.553407,-0.924378 -3.134932,-0.121017 -5.511796,0.228319 -8.549212,1.256507 -1.033707,0.349918 -1.972504,0.636214 -2.086216,0.636214 -0.113711,0 -0.288592,-0.130172 -0.388623,-0.289271 z"
       id="path3185"
       inkscape:connector-curvature="0" />
    <path
       style="fill:#ffffff"
       d="m 41.698365,35.691225 c -0.73784,-0.788581 -1.055518,-1.604672 -2.456694,-6.311056 -1.546574,-5.19476 -1.589123,-5.287102 -4.482889,-9.728904 -1.880669,-2.886742 -2.185011,-3.440537 -2.185011,-3.975933 0,-0.837786 1.360171,-1.089365 2.852999,-0.527696 2.480294,0.9332 6.405765,7.511466 7.411284,12.419761 0.760027,3.70996 0.665739,7.602432 -0.1999,8.252393 -0.318498,0.239143 -0.636437,0.195648 -0.939789,-0.128565 l 0,0 z"
       id="path3187"
       inkscape:connector-curvature="0" />
  </g>
</svg>
