<?xml version="1.0" encoding="UTF-8" standalone="no"?>
<!-- Created with Inkscape (http://www.inkscape.org/) -->

<svg
   xmlns:dc="http://purl.org/dc/elements/1.1/"
   xmlns:cc="http://creativecommons.org/ns#"
   xmlns:rdf="http://www.w3.org/1999/02/22-rdf-syntax-ns#"
   xmlns:svg="http://www.w3.org/2000/svg"
   xmlns="http://www.w3.org/2000/svg"
   xmlns:sodipodi="http://sodipodi.sourceforge.net/DTD/sodipodi-0.dtd"
   xmlns:inkscape="http://www.inkscape.org/namespaces/inkscape"
   width="64px"
   height="64px"
   id="svg2985"
   version="1.1"
   inkscape:version="0.48.1 "
   sodipodi:docname="br.svg">
  <defs
     id="defs2987" />
  <sodipodi:namedview
     id="base"
     pagecolor="#ffffff"
     bordercolor="#666666"
     borderopacity="1.0"
     inkscape:pageopacity="0.0"
     inkscape:pageshadow="2"
     inkscape:zoom="5.5"
     inkscape:cx="45.583578"
     inkscape:cy="-1.2474001"
     inkscape:current-layer="layer1"
     showgrid="true"
     inkscape:document-units="px"
     inkscape:grid-bbox="true"
     inkscape:window-width="1365"
     inkscape:window-height="878"
     inkscape:window-x="-8"
     inkscape:window-y="-8"
     inkscape:window-maximized="1" />
  <metadata
     id="metadata2990">
    <rdf:RDF>
      <cc:Work
         rdf:about="">
        <dc:format>image/svg+xml</dc:format>
        <dc:type
           rdf:resource="http://purl.org/dc/dcmitype/StillImage" />
        <dc:title></dc:title>
      </cc:Work>
    </rdf:RDF>
  </metadata>
  <g
     id="layer1"
     inkscape:label="Layer 1"
     inkscape:groupmode="layer">
    <path
       style="fill:#000000"
       d="m 2.8572274,59.718383 c -0.351484,-1.008266 -0.258702,-3.623449 0.169119,-4.766905 0.751097,-2.007485 2.868442,-3.485318 5.796094,-4.04547 2.4856166,-0.475578 7.7564326,-0.285561 10.9523176,0.394839 l 0.501118,0.106689 -0.278809,-1.197901 c -0.16218,-0.69681 -0.308472,-2.509294 -0.349723,-4.332901 l -0.07091,-3.135 -0.867341,-1.52 c -2.479071,-4.344526 -3.77211,-9.867085 -3.160478,-13.498375 0.73692,-4.37513 3.542018,-9.670654 8.161052,-15.406606 1.697152,-2.107538 1.70157,-2.115826 1.254659,-2.3550054 -1.061239,-0.5679581 -1.478855,-2.9947255 -0.76375,-4.4381386 0.845872,-1.707366 3.247105,-2.361681 4.967339,-1.353556 1.585069,0.928912 2.208398,2.913916 1.423907,4.5344583 -0.228805,0.4726497 -0.67871,1.0256922 -0.999787,1.2289842 l -0.583777,0.3696215 1.423529,1.446809 c 0.782941,0.795745 1.532168,1.446809 1.664947,1.446809 0.334377,0 2.782835,-2.523045 2.945346,-3.035071 C 35.13437,9.8708757 35.05774,9.6197299 34.789234,9.3330693 33.952326,8.4395582 33.745668,6.7590044 34.331438,5.610243 34.514152,5.251924 34.987449,4.700024 35.38321,4.383799 c 0.986746,-0.788439 2.776904,-0.935366 3.875252,-0.31806 1.99626,1.121962 2.545461,4.1680112 0.973327,5.3983904 l -0.597697,0.4677676 0.769065,0.919919 c 2.044476,2.445505 4.577119,6.767055 5.677354,9.687492 1.257773,3.338605 1.739961,6.859442 1.419842,10.367404 -0.350467,3.840567 -1.358166,8.113304 -2.501926,10.60839 -0.546661,1.192533 -0.572806,1.371194 -0.639479,4.37 -0.04054,1.823464 -0.185807,3.625913 -0.348529,4.324533 l -0.279011,1.197901 0.501119,-0.106689 c 1.736369,-0.36967 4.842956,-0.667641 6.991903,-0.670632 4.212597,-0.0059 6.894253,0.769692 8.56732,2.477737 1.10743,1.13058 1.56689,2.430349 1.56689,4.432558 0,1.356022 -0.25045,2.776224 -0.48958,2.776224 -0.0398,0 -0.69409,-0.206024 -1.453916,-0.457831 -3.067202,-1.016477 -4.374712,-1.137165 -12.750136,-1.176891 l -7.758635,-0.0368 -0.298005,-0.446739 c -1.333587,-1.999193 -3.277665,-2.82174 -6.669157,-2.82174 -2.92513,0 -5.005335,0.814059 -6.249917,2.445815 l -0.627471,0.82267 -7.73909,0.0368 c -8.3540746,0.03972 -9.6648506,0.160894 -12.7305886,1.176887 -0.759825,0.251807 -1.414086,0.457831 -1.453914,0.457831 -0.03983,0 -0.166277,-0.269258 -0.280999,-0.598351 z m 12.6087916,-3.02321 c 6.732124,-0.271208 10.08539,-0.772736 11.301916,-1.690364 0.410944,-0.309975 0.343623,-0.335194 -2.205206,-0.826057 C 11.732323,51.707814 4.5486404,52.556563 4.5486404,56.543407 l 0,0.58378 3.0875,-0.120482 c 1.698125,-0.06627 5.2215696,-0.206456 7.8298786,-0.311532 z m 43.99262,-0.186008 c 0,-0.928714 -0.671124,-2.014327 -1.571418,-2.541934 -2.812209,-1.648064 -9.165064,-1.575203 -18.442671,0.211521 -2.548828,0.490863 -2.616149,0.516082 -2.205205,0.826057 1.235061,0.93161 4.580921,1.422901 11.579294,1.700255 2.76925,0.109748 5.6335,0.223775 6.365,0.253392 0.731502,0.02962 1.992627,0.0706 2.8025,0.09107 l 1.4725,0.03721 0,-0.577569 z M 37.35739,52.892133 c 1.83579,-0.252723 3.101249,-0.773093 3.101249,-1.275267 0,-1.180747 -2.740556,-1.747014 -8.454999,-1.747014 -5.714444,0 -8.455,0.566267 -8.455,1.747014 0,0.47683 1.253905,1.028687 2.857718,1.257711 1.743827,0.249018 9.18304,0.260944 10.951032,0.01756 z M 24.49864,48.417029 c 0.803219,-0.152158 3.331794,-0.319776 5.795,-0.384148 4.571917,-0.11948 8.082882,0.08706 10.327033,0.607516 0.673099,0.156102 1.243096,0.260763 1.266661,0.232579 0.02356,-0.02818 -0.01037,-0.618023 -0.07543,-1.310753 -0.111991,-1.192678 -0.161068,-1.295185 -0.924886,-1.931746 l -0.80662,-0.672233 0.959808,-0.590575 c 0.93241,-0.573718 0.958147,-0.613419 0.90162,-1.390762 -0.05255,-0.722587 -0.136756,-0.84341 -0.868366,-1.245891 -1.666553,-0.916828 -4.049439,-1.243538 -9.069822,-1.243538 -5.020384,0 -7.40327,0.32671 -9.069823,1.243538 -0.73161,0.402481 -0.81582,0.523304 -0.868367,1.245891 -0.05656,0.777767 -0.03117,0.816808 0.905974,1.393441 l 0.96416,0.593254 -0.85774,0.694066 c -0.785469,0.635586 -0.858021,0.766107 -0.861066,1.549066 -0.0019,0.47025 -0.05818,1.059974 -0.125214,1.310497 -0.113516,0.424211 -0.08397,0.445683 0.430095,0.31262 0.30359,-0.07858 1.193231,-0.264352 1.976981,-0.412822 z m 6.168403,-3.090962 c -0.984816,-0.424969 -1.084374,-1.474252 -0.179018,-1.886759 0.268671,-0.122415 0.950699,-0.222574 1.515615,-0.222574 1.263618,0 1.967845,0.300651 2.119492,0.90486 0.196228,0.781833 -0.474288,1.251855 -1.878012,1.316461 -0.655314,0.03016 -1.365448,-0.02023 -1.578077,-0.111988 z M 41.49415,38.704012 c 1.022214,-2.964925 0.300671,-6.625874 -2.28923,-11.615002 -1.50476,-2.898737 -3.354877,-5.684895 -5.744888,-8.651435 -2.076484,-2.577382 -5.845991,-6.57084 -6.202353,-6.57084 -0.339585,0 -2.145117,1.793474 -3.156077,3.135 -2.679737,3.555964 -5.328903,9.098581 -6.162246,12.892725 -0.497595,2.265512 -0.327563,5.083024 0.421775,6.989036 0.569803,1.449347 1.985095,3.775414 2.679524,4.403862 0.350502,0.317201 0.432999,0.310642 1.830393,-0.145512 2.677395,-0.87399 4.444152,-1.098696 8.562592,-1.089036 4.141766,0.0097 6.120349,0.296368 8.360001,1.211176 0.627,0.256105 1.196122,0.437893 1.264716,0.403974 0.06859,-0.03392 0.2647,-0.467694 0.435793,-0.963948 z m 3.142929,-4.227278 c 0.523838,-1.85196 0.719357,-5.936342 0.391738,-8.183393 -0.605993,-4.156339 -3.063562,-9.39762 -6.78084,-14.461564 L 37.5897,10.935024 35.55667,13.035313 c -1.118167,1.155159 -2.060829,2.174939 -2.094805,2.266178 -0.03398,0.09124 0.65204,0.958869 1.524478,1.928066 5.328192,5.919119 7.905557,11.212734 8.801654,18.077599 0.06741,0.516386 0.192672,0.852304 0.283406,0.76 0.08943,-0.09098 0.343988,-0.806672 0.565676,-1.590422 z M 28.29864,8.0667345 c 0.235239,-0.235239 0.38,-0.6333327 0.38,-1.045 0,-0.8605917 -0.552744,-1.4250005 -1.395552,-1.4250005 -0.823033,0 -1.340448,0.563151 -1.340448,1.4589307 0,1.2214454 1.501332,1.8657373 2.356,1.0110698 z m 10.259999,0 c 0.235241,-0.235239 0.38,-0.6333327 0.38,-1.045 0,-1.3614735 -1.62989,-1.9748715 -2.456209,-0.9243766 -0.52238,0.6640975 -0.497369,1.313071 0.07257,1.8830121 0.57575,0.5757513 1.475467,0.6145322 2.003635,0.086365 z"
       id="path3146"
       inkscape:connector-curvature="0" />
    <path
       style="fill:#ffffff"
       d="m 4.605753,56.620127 c 0.00675,-0.691318 0.6508937,-1.87824 1.2513754,-2.305821 2.44039,-1.737711 8.5525576,-1.838493 17.1991766,-0.283593 1.4,0.251758 2.831818,0.522169 3.181818,0.600912 l 0.636364,0.143169 -0.470596,0.310676 c -0.667977,0.440979 -3.31372,0.965473 -6.074858,1.204282 C 18.422118,56.454681 6.6167966,57.023705 5.0108508,57.028099 4.7063121,57.028932 4.6027804,56.924666 4.605753,56.620127 z"
       id="path3148"
       inkscape:connector-curvature="0" />
    <path
       style="fill:#ffffff"
       d="m 56.419942,56.909804 c -0.55,-0.02868 -3.209091,-0.139197 -5.909091,-0.245591 -5.707974,-0.224924 -8.55122,-0.451579 -10.454546,-0.833404 -1.418754,-0.284615 -2.727272,-0.759848 -2.727272,-0.990502 0,-0.07353 1.125,-0.347081 2.5,-0.607899 9.247447,-1.754113 15.516445,-1.776395 18.057198,-0.06418 0.833336,0.561585 1.442802,1.512667 1.442802,2.251516 l 0,0.609476 -0.954546,-0.03363 c -0.525,-0.0185 -1.404545,-0.0571 -1.954545,-0.08578 z"
       id="path3150"
       inkscape:connector-curvature="0" />
    <path
       style="fill:#ffffff"
       d="m 27.508825,52.847664 c -2.701516,-0.179022 -4.38689,-0.98342 -3.613746,-1.724774 0.918238,-0.880482 6.34378,-1.385414 11.14035,-1.036786 3.258321,0.236825 4.679807,0.563371 5.10693,1.173175 0.261115,0.372794 0.252513,0.423649 -0.119074,0.703937 -0.220287,0.166163 -0.712806,0.395677 -1.094486,0.510031 -1.647111,0.493487 -6.983132,0.668434 -11.419974,0.374417 l 0,0 z"
       id="path3152"
       inkscape:connector-curvature="0" />
    <path
       style="fill:#ffffff"
       d="m 22.272934,47.635422 c 0.074,-1.162145 0.09585,-1.206734 0.958021,-1.954686 l 0.882293,-0.765412 -0.843309,-0.494212 c -0.977758,-0.573004 -1.189168,-0.909752 -1.045046,-1.664621 0.120337,-0.630292 1.164025,-1.237874 2.895223,-1.685452 1.381514,-0.357171 9.923959,-0.525913 12.08247,-0.238669 2.98233,0.396874 4.53581,1.112306 4.636325,2.135188 0.05645,0.574492 0.02786,0.608557 -1.416895,1.688083 l -0.452469,0.338088 0.802102,0.711803 c 0.756134,0.671012 0.806762,0.776225 0.883414,1.835927 0.09417,1.301871 0.23025,1.243865 -1.962394,0.836501 -3.33755,-0.620073 -13.430356,-0.50159 -16.406069,0.192597 l -1.089393,0.254138 0.07573,-1.189273 0,0 z M 33.80862,45.120438 c 0.676515,-0.443269 0.558233,-1.280017 -0.240362,-1.700364 -0.581709,-0.306188 -2.803319,-0.26666 -3.267019,0.05813 -0.754007,0.528127 -0.565136,1.52451 0.36543,1.927812 0.551223,0.238898 2.629845,0.04997 3.141951,-0.285576 z"
       id="path3154"
       inkscape:connector-curvature="0" />
    <path
       style="fill:#ffffff"
       d="m 39.60176,39.092586 c -2.626871,-0.913786 -3.536607,-1.02952 -8.181818,-1.040879 -4.578454,-0.0112 -5.395641,0.07798 -8.290338,0.904699 -0.859685,0.245523 -1.677867,0.39983 -1.818181,0.342905 -0.735723,-0.29848 -2.691137,-3.706985 -3.179843,-5.54282 -0.462217,-1.736327 -0.422261,-4.584547 0.09182,-6.545455 1.342947,-5.122513 5.851404,-12.980274 8.5501,-14.901915 l 0.516174,-0.367548 1.907191,1.952913 c 5.824637,5.964274 10.045857,12.330332 11.877925,17.9132 0.583329,1.777581 0.670958,2.273378 0.681871,3.857896 0.01244,1.804914 -0.207815,3.014678 -0.651184,3.576849 -0.210525,0.266938 -0.343755,0.253662 -1.503718,-0.149845 l 0,0 z"
       id="path3156"
       inkscape:connector-curvature="0" />
    <path
       style="fill:#ffffff"
       d="m 43.53354,33.3474 c -0.603053,-3.166585 -1.14523,-4.782129 -2.578023,-7.681818 -1.3936,-2.820368 -2.797425,-4.878448 -5.475155,-8.026857 -0.983231,-1.156059 -1.783638,-2.195677 -1.778681,-2.310262 0.01476,-0.341152 3.765573,-4.165832 3.964694,-4.042768 0.333456,0.206087 3.244923,4.713357 4.179804,6.470796 1.15703,2.175044 2.229853,4.886749 2.769387,7 0.687549,2.692999 0.579155,7.292056 -0.238903,10.136364 -0.107854,0.375 -0.246242,0.681818 -0.307527,0.681818 -0.06129,0 -0.302304,-1.002273 -0.535596,-2.227273 z"
       id="path3158"
       inkscape:connector-curvature="0" />
    <path
       style="fill:#ffffff"
       d="M 36.684404,7.8556646 C 36.139199,7.3104589 36.12009,6.864677 36.614956,6.2355562 37.341984,5.31129 38.783578,5.8388777 38.783578,7.0292183 c 0,1.1610192 -1.266126,1.659494 -2.099174,0.8264463 z"
       id="path3160"
       inkscape:connector-curvature="0" />
    <path
       style="fill:#ffffff"
       d="m 26.451635,7.8811363 c -0.77076,-0.8204367 -0.258115,-2.1279309 0.831943,-2.1218612 0.608864,0.00339 0.832613,0.1418586 1.124605,0.6959688 0.676749,1.2842576 -0.965343,2.4809813 -1.956548,1.4258924 l 0,0 z"
       id="path3162"
       inkscape:connector-curvature="0" />
  </g>
</svg>
