<?xml version="1.0" encoding="UTF-8" standalone="no"?>
<!-- Created with Inkscape (http://www.inkscape.org/) -->

<svg
   xmlns:dc="http://purl.org/dc/elements/1.1/"
   xmlns:cc="http://creativecommons.org/ns#"
   xmlns:rdf="http://www.w3.org/1999/02/22-rdf-syntax-ns#"
   xmlns:svg="http://www.w3.org/2000/svg"
   xmlns="http://www.w3.org/2000/svg"
   xmlns:sodipodi="http://sodipodi.sourceforge.net/DTD/sodipodi-0.dtd"
   xmlns:inkscape="http://www.inkscape.org/namespaces/inkscape"
   width="64px"
   height="64px"
   id="svg4261"
   version="1.1"
   inkscape:version="0.48.2 r9819"
   sodipodi:docname="br.svg">
  <defs
     id="defs4263" />
  <sodipodi:namedview
     id="base"
     pagecolor="#ffffff"
     bordercolor="#666666"
     borderopacity="1.0"
     inkscape:pageopacity="0.0"
     inkscape:pageshadow="2"
     inkscape:zoom="5.5"
     inkscape:cx="34.363636"
     inkscape:cy="32"
     inkscape:current-layer="layer1"
     showgrid="true"
     inkscape:document-units="px"
     inkscape:grid-bbox="true"
     inkscape:window-width="984"
     inkscape:window-height="614"
     inkscape:window-x="324"
     inkscape:window-y="105"
     inkscape:window-maximized="0" />
  <metadata
     id="metadata4266">
    <rdf:RDF>
      <cc:Work
         rdf:about="">
        <dc:format>image/svg+xml</dc:format>
        <dc:type
           rdf:resource="http://purl.org/dc/dcmitype/StillImage" />
        <dc:title></dc:title>
      </cc:Work>
    </rdf:RDF>
  </metadata>
  <g
     id="layer1"
     inkscape:label="Layer 1"
     inkscape:groupmode="layer">
    <g
       id="g4172"
       transform="matrix(0.88,0,0,0.88,-634.09643,6.4028842)">
      <path
         transform="translate(-31.435875,10.898427)"
         d="m 789.34375,-10.03125 c -1.5261,6e-5 -2.98073,0.6352215 -4.0625,1.75 -1.06903,1.1016706 -1.68754,2.5413268 -1.6875,4.0625 -4e-5,1.1856477 0.36509,2.3726861 1.09375,3.34375 0.42902,0.57187898 0.97314,1.01418199 1.5625,1.375 -0.1743,1.2846338 -0.33946,2.6475518 -0.5625,4.3125 -0.27744,2.07052 -0.54715,4.1747877 -0.875,6.34375 -0.32797,2.169345 -0.67774,4.311936 -1.03125,6.40625 -0.0367,0.217278 -0.0574,0.352022 -0.0937,0.5625 -0.0512,-0.124498 -0.10432,-0.185107 -0.15625,-0.3125 -0.78248,-1.919493 -1.50033,-3.745449 -2.21875,-5.4375 a 1.50015,1.50015 0 0 0 -0.125,-0.25 c -0.0615,-0.132573 -0.16217,-0.339233 -0.28125,-0.625 -0.23387,-0.561061 -0.47121,-1.260888 -0.78125,-2.0625 -0.31608,-0.8170285 -0.64583,-1.5903757 -0.9375,-2.34375 -0.1382,-0.3568855 -0.24021,-0.570152 -0.34375,-0.84375 0.9355,-1.0105648 1.59372,-2.2306682 1.59375,-3.625 -4e-5,-1.5144678 -0.60469,-2.94653251 -1.65625,-4.03125 -1.07011,-1.1036854 -2.53823,-1.7187 -4.09375,-1.71875 -1.52051,5.1e-5 -2.97929,0.6033069 -4.0625,1.6875 -1.08267,1.08370095 -1.68753,2.5423952 -1.6875,4.0625 -3e-5,1.5212272 0.60668,2.9861124 1.71875,4.03125 0.79736,0.7494638 1.80809,1.15788 2.875,1.375 0.14392,0.8343076 0.30191,1.6443401 0.46875,2.71875 0.22628,1.457604 0.41922,2.958256 0.59375,4.5 0.17426,1.539764 0.30594,3.088754 0.40625,4.59375 0.0125,0.187272 0.0202,0.318055 0.0312,0.5 -1.02428,-1.048774 -2.06644,-2.054633 -3.125,-3.0625 -1.05587,-1.005227 -2.05735,-1.983164 -3.03125,-2.90625 -0.64208,-0.60853 -1.08137,-1.035242 -1.5625,-1.5 0.0404,-0.08115 0.0847,-0.132094 0.125,-0.21875 0.286,-0.614467 0.37499,-1.258915 0.375,-1.875 -10e-6,-1.5151579 -0.59308,-2.964787 -1.65625,-4.0625 C 765.08698,5.6148431 763.61915,5.0000395 762.0625,5 c -1.51943,4.03e-5 -2.96609,0.6201118 -4.03125,1.71875 -1.06459,1.0981147 -1.65626,2.5479882 -1.65625,4.0625 -10e-6,1.551991 0.58469,3.023254 1.65625,4.09375 1.06594,1.064957 2.51604,1.656279 4.03125,1.65625 0.18795,2e-5 0.28603,-0.03709 0.4375,-0.0625 2.88953,4.647095 4.60788,8.060792 5.28125,10.21875 -0.73125,0.430659 -1.33971,0.965556 -1.625,1.78125 L 766.125,28.4375 c -0.0154,0.03836 -0.0165,0.08741 -0.0312,0.125 -0.12418,0.316689 -0.21881,0.607132 -0.21875,1.0625 -2e-5,0.151654 -2e-5,0.284318 0,0.4375 -3e-5,0.879097 0.26231,1.750168 0.8125,2.4375 0.36156,0.451744 0.7727,0.850544 1.25,1.21875 l 0,0.03125 c 0.0182,0.01399 0.0441,0.0174 0.0625,0.03125 0.27129,0.226824 0.5092,0.446718 0.71875,0.65625 0.19294,0.192959 0.42675,0.484573 0.6875,0.875 a 1.50015,1.50015 0 0 0 0.40625,0.375 c 0.25849,0.403984 0.48373,0.917511 0.625,1.625 0.15256,0.764222 0.21873,1.620087 0.21875,2.5625 -2e-5,0.682792 -0.0257,1.338993 -0.0937,2 -0.0613,0.594284 -0.19459,1.046309 -0.34375,1.34375 -0.0589,0.05548 -0.13577,0.103707 -0.1875,0.15625 -0.26897,0.200554 -0.52667,0.408706 -0.71875,0.625 -0.50877,0.572786 -0.68753,1.292188 -0.6875,1.96875 -3e-5,1.24602 0.77836,2.356951 1.78125,3.09375 l -0.0312,0.03125 c 0.0163,0.01367 0.0461,0.01769 0.0625,0.03125 0.0164,0.01356 0.0459,0.0178 0.0625,0.03125 1.64063,1.330314 4.02386,2.131881 7.34375,2.75 3.38406,0.63005 7.22343,0.937486 11.5,0.9375 4.2765,-1.4e-5 8.11587,-0.307452 11.5,-0.9375 3.31981,-0.618119 5.70308,-1.419725 7.34375,-2.75 0.018,-0.01247 0.0447,-0.01853 0.0625,-0.03125 0.0164,-0.01356 0.0462,-0.01758 0.0625,-0.03125 l -0.0312,-0.03125 c 1.0028,-0.736795 1.78115,-1.847816 1.78125,-3.09375 -9e-5,-0.599236 -0.0968,-1.338684 -0.65625,-1.96875 -0.23059,-0.259576 -0.48676,-0.439893 -0.75,-0.625 -0.0516,-0.05242 -0.12868,-0.100877 -0.1875,-0.15625 -0.14916,-0.297339 -0.28256,-0.749563 -0.34375,-1.34375 -0.0682,-0.660906 -0.0938,-1.317322 -0.0937,-2 -6e-5,-0.942339 0.0661,-1.798362 0.21875,-2.5625 0.14356,-0.719266 0.36092,-1.250625 0.625,-1.65625 L 808.90625,35.625 809,35.46875 c 0.012,-0.0135 0.0193,-0.01794 0.0312,-0.03125 l 0.0625,-0.09375 c 0.33129,-0.366531 0.64198,-0.673278 0.875,-0.90625 0.20937,-0.209414 0.44747,-0.429483 0.71875,-0.65625 0.0184,-0.01384 0.0443,-0.01726 0.0625,-0.03125 l 0,-0.03125 c 0.47715,-0.368162 0.88843,-0.767095 1.25,-1.21875 0.55001,-0.687292 0.81241,-1.558514 0.8125,-2.4375 -6e-5,-0.152729 -6e-5,-0.286309 0,-0.4375 -1.8e-4,-0.454683 -0.0947,-0.745987 -0.21875,-1.0625 -0.0147,-0.03757 -0.0158,-0.08666 -0.0312,-0.125 l -0.0312,0.03125 c -0.28298,-0.809785 -0.90159,-1.351509 -1.625,-1.78125 0.67331,-2.157922 2.39166,-5.571659 5.28125,-10.21875 0.1515,0.02541 0.24955,0.06252 0.4375,0.0625 1.51515,2.9e-5 2.96526,-0.591337 4.03125,-1.65625 1.07146,-1.070496 1.65616,-2.541822 1.65625,-4.09375 -9e-5,-1.5144424 -0.59175,-2.9643862 -1.65625,-4.0625 C 819.59104,5.6201556 818.14438,5.0000403 816.625,5 c -1.5567,3.95e-5 -3.02453,0.6147942 -4.09375,1.71875 -1.06326,1.0977184 -1.65633,2.5472888 -1.65625,4.0625 -9e-5,0.684731 0.14859,1.321646 0.40625,1.875 0.0334,0.07172 0.0601,0.147856 0.0937,0.21875 -0.48117,0.464786 -0.92046,0.891454 -1.5625,1.5 -0.97399,0.923111 -1.97543,1.901002 -3.03125,2.90625 -1.05867,1.007892 -2.10077,2.013696 -3.125,3.0625 0.011,-0.181938 0.0188,-0.312734 0.0312,-0.5 0.10023,-1.504956 0.23192,-3.054042 0.40625,-4.59375 0.17486,-1.54528 0.39083,-3.028835 0.59375,-4.5 0.14667,-1.0639071 0.32815,-1.8937298 0.5,-2.71875 1.06117,-0.2175193 2.07519,-0.6232986 2.875,-1.375 1.11198,-1.0451404 1.71867,-2.5100894 1.71875,-4.03125 -8e-5,-1.5200372 -0.60492,-2.97879918 -1.6875,-4.0625 -1.09648,-1.0973655 -2.57329,-1.687449 -4.09375,-1.6875 -1.55557,5e-5 -3.02369,0.6150043 -4.09375,1.71875 -1.05165,1.08471893 -1.65632,2.5167146 -1.65625,4.03125 -5e-5,1.3958386 0.66953,2.5934889 1.59375,3.59375 -0.11676,0.2850129 -0.19605,0.4934909 -0.34375,0.875 -0.30426,0.7857309 -0.60271,1.5589056 -0.90625,2.34375 -0.29765,0.769391 -0.56182,1.460917 -0.8125,2.0625 -0.12755,0.305988 -0.21844,0.53515 -0.28125,0.6875 -0.0552,0.133963 -0.087,0.171015 -0.0937,0.1875 -9.2e-4,0.0023 0,0.03125 0,0.03125 -0.70927,1.670625 -1.46619,3.483314 -2.25,5.40625 -0.0666,0.163324 -0.12219,0.247678 -0.1875,0.40625 -0.0257,-0.145764 -0.0367,-0.225468 -0.0625,-0.375 -0.35082,-2.029012 -0.67064,-4.139966 -1,-6.34375 C 793.57649,9.2941624 793.2755,7.1384316 793,5.03125 c -0.23747,-1.8157356 -0.44304,-3.3352589 -0.625,-4.75 0.56876,-0.36087457 1.1973,-0.63734441 1.625,-1.1875 0.74443,-0.9576039 1.0937,-2.1269097 1.09375,-3.3125 -5e-5,-1.52113 -0.61859,-2.9608403 -1.6875,-4.0625 -1.08182,-1.1147372 -2.53646,-1.74994 -4.0625,-1.75 z m 0,40 c 2.23278,9e-6 4.2853,0.115589 6.125,0.3125 1.80907,0.193657 3.41719,0.408746 4.84375,0.6875 0.12401,0.04243 0.2392,0.113885 0.34375,0.125 l 0,0.0625 c 1.97496,0.415737 3.24742,0.963126 4.15625,1.53125 -0.0607,0.08565 -0.10413,0.166592 -0.15625,0.25 -1.06479,-0.543903 -2.31939,-1.022763 -4.125,-1.5625 -2.92526,-0.874386 -6.63662,-1.281244 -11.1875,-1.28125 -4.75076,6e-6 -8.50782,0.401682 -11.40625,1.3125 -1.68751,0.530289 -2.90086,0.998099 -3.90625,1.53125 -0.045,-0.08318 -0.0721,-0.158586 -0.125,-0.25 0.91004,-0.563253 2.16676,-1.119041 4.125,-1.53125 l 0,-0.0625 c 0.10456,-0.01113 0.21975,-0.08256 0.34375,-0.125 1.42647,-0.278751 3.03461,-0.493843 4.84375,-0.6875 1.83961,-0.19691 3.89214,-0.312491 6.125,-0.3125 z m 0,5.46875 c 0.44634,0.453728 0.84238,0.987665 1.34375,1.34375 -0.48567,0.355409 -0.90291,0.867287 -1.34375,1.3125 -0.44083,-0.445195 -0.85814,-0.957101 -1.34375,-1.3125 0.50113,-0.357534 0.89791,-0.888409 1.34375,-1.34375 z m 0,8.53125 c 0.43826,-10e-7 0.67268,0.02814 1.09375,0.03125 -0.33886,-0.0012 -0.78753,-2e-6 -1.09375,0 -0.31764,-2e-6 -0.75031,-0.0011 -1.09375,0 0.42107,-0.0031 0.65548,-0.03125 1.09375,-0.03125 z m -13.625,1.125 c -0.33082,0.09036 -0.61037,0.225881 -0.90625,0.34375 -0.0124,0.0049 -0.0189,0.02627 -0.0312,0.03125 0.005,-0.0086 -0.005,-0.02258 0,-0.03125 l 0.0312,0 c 0.004,-0.0087 -0.004,-0.02242 0,-0.03125 0.0245,-0.04961 0.009,-0.106908 0.0312,-0.15625 0.22169,-0.06968 0.62468,-0.09215 0.875,-0.15625 z m 27.28125,0 c 0.24073,0.06208 0.62971,0.08898 0.84375,0.15625 0.0269,0.06986 0.0563,0.136864 0.0937,0.21875 -0.30739,-0.122792 -0.59498,-0.282406 -0.9375,-0.375 z"
         id="path4152-1"
         style="font-size:76px;font-style:normal;font-variant:normal;font-weight:normal;font-stretch:normal;line-height:125%;letter-spacing:0px;word-spacing:0px;fill:#4d4d4d;fill-opacity:1;stroke:none;font-family:DiagramTTOldstyle;-inkscape-font-specification:DiagramTTOldstyle"
         inkscape:original="M 789.34375 -8.53125 C 788.17786 -8.531204 787.17945 -8.1112012 786.34375 -7.25 C 785.50798 -6.3887094 785.09372 -5.3845601 785.09375 -4.21875 C 785.09372 -3.3064371 785.34306 -2.4901538 785.875 -1.78125 C 786.40687 -1.0722678 787.09599 -0.5972927 787.90625 -0.34375 C 787.70366 1.1267453 787.46578 2.9226826 787.1875 5 C 786.90914 7.0773823 786.61056 9.1963987 786.28125 11.375 C 785.95187 13.553653 785.60482 15.71043 785.25 17.8125 C 784.89511 19.914609 784.55303 21.698828 784.25 23.21875 C 783.64076 21.901383 782.94093 20.300066 782.15625 18.375 C 781.37151 16.449972 780.64719 14.640241 779.9375 12.96875 C 779.93747 12.968774 779.7848 12.670964 779.53125 12.0625 C 779.27764 11.454087 779.02256 10.754258 778.71875 9.96875 C 778.41489 9.1832965 778.08506 8.4097377 777.78125 7.625 C 777.47739 6.840322 777.27805 6.2733873 777.125 5.96875 C 778.34185 5.1585609 778.93747 4.044467 778.9375 2.625 C 778.93747 1.4607293 778.52972 0.46154413 777.71875 -0.375 C 776.90773 -1.2114685 775.90281 -1.6249609 774.6875 -1.625 C 773.52162 -1.6249609 772.52321 -1.2114685 771.6875 -0.375 C 770.85175 0.46154413 770.43748 1.4607293 770.4375 2.625 C 770.43748 3.7908865 770.85175 4.7770509 771.6875 5.5625 C 772.52321 6.3480129 773.52162 6.7500307 774.6875 6.75 L 774.84375 6.75 C 775.04628 7.8138317 775.24066 9.0623656 775.46875 10.53125 C 775.69679 12.000188 775.91591 13.52281 776.09375 15.09375 C 776.27154 16.664734 776.3987 18.230081 776.5 19.75 C 776.60125 21.269954 776.65622 22.626887 776.65625 23.84375 L 776.65625 24.21875 C 775.89548 23.408543 775.01275 22.475804 774 21.4375 C 772.9872 20.399228 771.93955 19.388568 770.875 18.375 C 769.81041 17.36147 768.80626 16.381043 767.84375 15.46875 C 766.88121 14.556501 766.0764 13.79519 765.46875 13.1875 C 765.67129 12.782414 765.88544 12.411646 766.0625 12.03125 C 766.23953 11.650905 766.31249 11.237412 766.3125 10.78125 C 766.31249 9.6169712 765.90396 8.586536 765.09375 7.75 C 764.28352 6.9135234 763.27937 6.5000309 762.0625 6.5 C 760.89818 6.5000309 759.90474 6.9135234 759.09375 7.75 C 758.28275 8.586536 757.87499 9.6169712 757.875 10.78125 C 757.87499 11.998154 758.28275 13.002303 759.09375 13.8125 C 759.90474 14.622744 760.89818 15.031272 762.0625 15.03125 C 762.26504 15.031272 762.44717 14.987775 762.625 14.9375 C 762.8028 14.88727 763.02766 14.832298 763.28125 14.78125 C 766.9798 20.607439 769.09959 24.820976 769.65625 27.40625 C 768.4409 27.81137 767.73379 28.341318 767.53125 29 C 767.42918 29.253589 767.37498 29.473478 767.375 29.625 C 767.37498 29.776538 767.37498 29.909431 767.375 30.0625 C 767.37498 30.670173 767.5399 31.182908 767.84375 31.5625 C 768.14757 31.942103 768.50112 32.289149 768.90625 32.59375 C 769.21084 32.847335 769.50291 33.096684 769.78125 33.375 C 770.05955 33.653324 770.35162 34.012617 770.65625 34.46875 C 770.75828 34.468753 770.83047 34.523725 770.90625 34.625 C 770.982 34.72628 771.03123 34.781253 771.03125 34.78125 C 771.43634 35.388918 771.72919 36.144492 771.90625 37.03125 C 772.08327 37.918009 772.15623 38.860676 772.15625 39.875 C 772.15623 40.583167 772.13824 41.296017 772.0625 42.03125 C 771.98671 42.766474 771.81606 43.400629 771.5625 43.90625 C 771.56248 44.008294 771.50751 44.080478 771.40625 44.15625 C 771.30495 44.232008 771.19423 44.335442 771.09375 44.4375 C 770.84015 44.589023 770.64004 44.771925 770.4375 45 C 770.23493 45.22806 770.12498 45.563631 770.125 45.96875 C 770.12498 46.729483 770.53351 47.380849 771.34375 47.9375 C 772.61009 49.001291 774.85703 49.829048 778.125 50.4375 C 781.39291 51.045926 785.13799 51.343736 789.34375 51.34375 C 793.54944 51.343736 797.29451 51.045926 800.5625 50.4375 C 803.83039 49.829048 806.07734 49.001291 807.34375 47.9375 C 808.15391 47.380849 808.56244 46.729483 808.5625 45.96875 C 808.56244 45.563631 808.48375 45.22806 808.28125 45 C 808.07864 44.771925 807.84727 44.589023 807.59375 44.4375 C 807.49319 44.335442 807.38247 44.232008 807.28125 44.15625 C 807.17992 44.080478 807.12494 44.008294 807.125 43.90625 C 806.87136 43.400629 806.70071 42.766474 806.625 42.03125 C 806.54918 41.296017 806.53119 40.583167 806.53125 39.875 C 806.53119 38.860676 806.60415 37.918009 806.78125 37.03125 C 806.95824 36.144492 807.25108 35.388918 807.65625 34.78125 L 807.875 34.46875 C 808.2816 34.012617 808.62787 33.653324 808.90625 33.375 C 809.18451 33.096684 809.47659 32.847335 809.78125 32.59375 C 810.1863 32.289149 810.53986 31.942103 810.84375 31.5625 C 811.14752 31.182908 811.31244 30.670173 811.3125 30.0625 C 811.31244 29.909431 811.31244 29.776538 811.3125 29.625 C 811.31244 29.473478 811.25824 29.253589 811.15625 29 C 810.95364 28.341318 810.24652 27.81137 809.03125 27.40625 C 809.58783 24.820976 811.70762 20.607439 815.40625 14.78125 C 815.65977 14.832298 815.88462 14.88727 816.0625 14.9375 C 816.24025 14.987775 816.42238 15.031272 816.625 15.03125 C 817.78924 15.031272 818.78269 14.622744 819.59375 13.8125 C 820.40468 13.002303 820.81243 11.998154 820.8125 10.78125 C 820.81243 9.6169712 820.40468 8.586536 819.59375 7.75 C 818.78269 6.9135234 817.78924 6.5000309 816.625 6.5 C 815.40806 6.5000309 814.40391 6.9135234 813.59375 7.75 C 812.78347 8.586536 812.37494 9.6169712 812.375 10.78125 C 812.37494 11.237412 812.47915 11.650905 812.65625 12.03125 C 812.83323 12.411646 813.01613 12.782414 813.21875 13.1875 C 812.61102 13.79519 811.80621 14.556501 810.84375 15.46875 C 809.88117 16.381043 808.87702 17.36147 807.8125 18.375 C 806.74787 19.388568 805.70022 20.399228 804.6875 21.4375 C 803.67467 22.475804 802.79194 23.408543 802.03125 24.21875 L 802.03125 23.84375 C 802.0312 22.626887 802.08617 21.269954 802.1875 19.75 C 802.28873 18.230081 802.41588 16.664734 802.59375 15.09375 C 802.77151 13.52281 802.98489 12.000188 803.1875 10.53125 C 803.39 9.0623656 803.62137 7.8138317 803.875 6.75 L 804 6.75 C 805.1658 6.7500307 806.19546 6.3480129 807.03125 5.5625 C 807.86693 4.7770509 808.28119 3.7908865 808.28125 2.625 C 808.28119 1.4607293 807.86693 0.46154413 807.03125 -0.375 C 806.19546 -1.2114685 805.1658 -1.6249609 804 -1.625 C 802.78462 -1.6249609 801.77969 -1.2114685 800.96875 -0.375 C 800.15771 0.46154413 799.74995 1.4607293 799.75 2.625 C 799.74995 4.044467 800.37682 5.1585609 801.59375 5.96875 C 801.44062 6.2733873 801.21003 6.840322 800.90625 7.625 C 800.60237 8.4097377 800.30378 9.1832965 800 9.96875 C 799.69612 10.754258 799.40978 11.454087 799.15625 12.0625 C 798.90262 12.670964 798.7812 12.968774 798.78125 12.96875 C 798.07149 14.640241 797.31591 16.449972 796.53125 18.375 C 795.7465 20.300066 795.04667 21.901383 794.4375 23.21875 C 794.1344 21.851904 793.79232 20.14638 793.4375 18.09375 C 793.0826 16.041159 792.7668 13.922143 792.4375 11.71875 C 792.10811 9.5154088 791.77828 7.3471574 791.5 5.21875 C 791.22164 3.0904071 790.98377 1.2272497 790.78125 -0.34375 C 791.59143 -0.64677182 792.28056 -1.1282573 792.8125 -1.8125 C 793.34436 -2.4966642 793.59371 -3.3064371 793.59375 -4.21875 C 793.59371 -5.3845601 793.17944 -6.3887094 792.34375 -7.25 C 791.50798 -8.1112012 790.50956 -8.531204 789.34375 -8.53125 z M 789.34375 28.46875 C 791.62439 28.468759 793.72542 28.57793 795.625 28.78125 C 797.52449 28.984587 799.23001 29.228198 800.75 29.53125 C 800.74995 29.633309 800.81562 29.687508 800.96875 29.6875 C 803.8555 30.295173 805.84239 31.177903 806.90625 32.34375 C 806.80569 32.595789 806.62853 32.871424 806.375 33.125 L 806.0625 33.5 C 805.91092 33.702559 805.77725 33.93966 805.625 34.21875 C 805.47264 34.497846 805.3192 34.747968 805.21875 35 C 804.50898 34.341312 802.80423 33.622725 800.09375 32.8125 C 797.38317 32.002284 793.80302 31.593756 789.34375 31.59375 C 784.68185 31.593756 781.03448 32.008021 778.375 32.84375 C 775.71547 33.679488 774.07794 34.435062 773.46875 35.09375 C 773.36822 34.790693 773.20827 34.492109 773.03125 34.1875 C 772.85419 33.882897 772.71555 33.595788 772.5625 33.34375 C 772.25942 33.139653 771.98378 32.798344 771.78125 32.34375 C 772.84503 31.177903 774.83193 30.295173 777.71875 29.6875 C 777.8718 29.687508 777.93747 29.633309 777.9375 29.53125 C 779.45741 29.228198 781.16293 28.984587 783.0625 28.78125 C 784.962 28.57793 787.06303 28.468759 789.34375 28.46875 z M 789.34375 33.34375 C 790.71212 35.217776 792.39888 36.387615 794.375 36.84375 C 793.36064 36.99528 792.43518 37.354574 791.625 37.9375 C 790.81474 38.520425 790.05343 39.275226 789.34375 40.1875 C 788.634 39.275226 787.87268 38.520425 787.0625 37.9375 C 786.25224 37.354574 785.35804 36.99528 784.34375 36.84375 C 786.31979 36.387615 787.97531 35.217776 789.34375 33.34375 z M 773.90625 36.53125 C 774.56492 37.290446 775.27126 37.930338 776.03125 38.4375 C 776.79119 38.94466 777.70595 39.308917 778.71875 39.5625 C 776.8447 39.865557 775.32208 40.749834 774.15625 42.21875 C 774.20725 41.813635 774.26145 41.405107 774.3125 41 C 774.3635 40.594886 774.37498 40.217608 774.375 39.8125 C 774.37498 38.697671 774.21083 37.595052 773.90625 36.53125 z M 804.78125 36.53125 C 804.47659 37.595052 804.31245 38.697671 804.3125 39.8125 C 804.31245 40.217608 804.35517 40.594886 804.40625 41 C 804.45722 41.405107 804.51142 41.813635 804.5625 42.21875 C 803.3966 40.749834 801.87397 39.865557 800 39.5625 C 801.01273 39.308917 801.89623 38.94466 802.65625 38.4375 C 803.41617 37.930338 804.12251 37.290446 804.78125 36.53125 z M 789.34375 42.46875 C 793.14433 42.468745 796.31673 42.584427 798.875 42.8125 C 801.43318 43.040562 803.48001 43.412103 805 43.96875 C 804.99995 44.070794 805.04841 44.234938 805.125 44.4375 C 805.20148 44.640048 805.26297 44.805738 805.3125 44.90625 C 805.46552 45.159823 805.64114 45.402661 805.84375 45.65625 C 806.04625 45.909822 806.18069 46.086987 806.28125 46.1875 C 806.12967 46.340567 805.89179 46.521923 805.5625 46.75 C 805.2331 46.978058 804.91653 47.149486 804.5625 47.25 C 803.95324 46.793855 803.02778 46.446809 801.8125 46.21875 C 800.59712 45.990673 799.25089 45.820019 797.78125 45.71875 C 796.31152 45.617464 794.83239 45.556755 793.3125 45.53125 C 791.79252 45.505729 790.45854 45.499992 789.34375 45.5 C 788.17786 45.499992 786.83814 45.505729 785.34375 45.53125 C 783.84929 45.556755 782.3759 45.617464 780.90625 45.71875 C 779.43654 45.820019 778.09031 45.990673 776.875 46.21875 C 775.65964 46.446809 774.76544 46.793855 774.15625 47.25 C 773.44806 47.047435 772.92958 46.760326 772.625 46.40625 C 772.42242 46.253165 772.31248 46.131746 772.3125 46.03125 L 772.3125 45.96875 C 772.46401 45.866691 772.64117 45.714022 772.84375 45.5625 C 773.04628 45.410962 773.21043 45.222323 773.3125 44.96875 C 773.3635 44.917717 773.41925 44.850497 773.46875 44.75 C 773.6218 44.445387 773.68748 44.171299 773.6875 43.96875 C 775.20741 43.412103 777.25425 43.040562 779.8125 42.8125 C 782.3707 42.584427 785.5431 42.468745 789.34375 42.46875 z "
         inkscape:radius="1.5"
         sodipodi:type="inkscape:offset" />
      <path
         transform="translate(-33.396095,8.8753712)"
         d="m 789.34375,-10.03125 c -1.5261,6e-5 -2.98073,0.6352215 -4.0625,1.75 -1.06903,1.1016706 -1.68754,2.5413268 -1.6875,4.0625 -4e-5,1.1856477 0.36509,2.3726861 1.09375,3.34375 0.42902,0.57187898 0.97314,1.01418199 1.5625,1.375 -0.1743,1.2846338 -0.33946,2.6475518 -0.5625,4.3125 -0.27744,2.07052 -0.54715,4.1747877 -0.875,6.34375 -0.32797,2.169345 -0.67774,4.311936 -1.03125,6.40625 -0.0367,0.217278 -0.0574,0.352022 -0.0937,0.5625 -0.0512,-0.124498 -0.10432,-0.185107 -0.15625,-0.3125 -0.78248,-1.919493 -1.50033,-3.745449 -2.21875,-5.4375 a 1.50015,1.50015 0 0 0 -0.125,-0.25 c -0.0615,-0.132573 -0.16217,-0.339233 -0.28125,-0.625 -0.23387,-0.561061 -0.47121,-1.260888 -0.78125,-2.0625 -0.31608,-0.8170285 -0.64583,-1.5903757 -0.9375,-2.34375 -0.1382,-0.3568855 -0.24021,-0.570152 -0.34375,-0.84375 0.9355,-1.0105648 1.59372,-2.2306682 1.59375,-3.625 -4e-5,-1.5144678 -0.60469,-2.94653251 -1.65625,-4.03125 -1.07011,-1.1036854 -2.53823,-1.7187 -4.09375,-1.71875 -1.52051,5.1e-5 -2.97929,0.6033069 -4.0625,1.6875 -1.08267,1.08370095 -1.68753,2.5423952 -1.6875,4.0625 -3e-5,1.5212272 0.60668,2.9861124 1.71875,4.03125 0.79736,0.7494638 1.80809,1.15788 2.875,1.375 0.14392,0.8343076 0.30191,1.6443401 0.46875,2.71875 0.22628,1.457604 0.41922,2.958256 0.59375,4.5 0.17426,1.539764 0.30594,3.088754 0.40625,4.59375 0.0125,0.187272 0.0202,0.318055 0.0312,0.5 -1.02428,-1.048774 -2.06644,-2.054633 -3.125,-3.0625 -1.05587,-1.005227 -2.05735,-1.983164 -3.03125,-2.90625 -0.64208,-0.60853 -1.08137,-1.035242 -1.5625,-1.5 0.0404,-0.08115 0.0847,-0.132094 0.125,-0.21875 0.286,-0.614467 0.37499,-1.258915 0.375,-1.875 -10e-6,-1.5151579 -0.59308,-2.964787 -1.65625,-4.0625 C 765.08698,5.6148431 763.61915,5.0000395 762.0625,5 c -1.51943,4.03e-5 -2.96609,0.6201118 -4.03125,1.71875 -1.06459,1.0981147 -1.65626,2.5479882 -1.65625,4.0625 -10e-6,1.551991 0.58469,3.023254 1.65625,4.09375 1.06594,1.064957 2.51604,1.656279 4.03125,1.65625 0.18795,2e-5 0.28603,-0.03709 0.4375,-0.0625 2.88953,4.647095 4.60788,8.060792 5.28125,10.21875 -0.73125,0.430659 -1.33971,0.965556 -1.625,1.78125 L 766.125,28.4375 c -0.0154,0.03836 -0.0165,0.08741 -0.0312,0.125 -0.12418,0.316689 -0.21881,0.607132 -0.21875,1.0625 -2e-5,0.151654 -2e-5,0.284318 0,0.4375 -3e-5,0.879097 0.26231,1.750168 0.8125,2.4375 0.36156,0.451744 0.7727,0.850544 1.25,1.21875 l 0,0.03125 c 0.0182,0.01399 0.0441,0.0174 0.0625,0.03125 0.27129,0.226824 0.5092,0.446718 0.71875,0.65625 0.19294,0.192959 0.42675,0.484573 0.6875,0.875 a 1.50015,1.50015 0 0 0 0.40625,0.375 c 0.25849,0.403984 0.48373,0.917511 0.625,1.625 0.15256,0.764222 0.21873,1.620087 0.21875,2.5625 -2e-5,0.682792 -0.0257,1.338993 -0.0937,2 -0.0613,0.594284 -0.19459,1.046309 -0.34375,1.34375 -0.0589,0.05548 -0.13577,0.103707 -0.1875,0.15625 -0.26897,0.200554 -0.52667,0.408706 -0.71875,0.625 -0.50877,0.572786 -0.68753,1.292188 -0.6875,1.96875 -3e-5,1.24602 0.77836,2.356951 1.78125,3.09375 l -0.0312,0.03125 c 0.0163,0.01367 0.0461,0.01769 0.0625,0.03125 0.0164,0.01356 0.0459,0.0178 0.0625,0.03125 1.64063,1.330314 4.02386,2.131881 7.34375,2.75 3.38406,0.63005 7.22343,0.937486 11.5,0.9375 4.2765,-1.4e-5 8.11587,-0.307452 11.5,-0.9375 3.31981,-0.618119 5.70308,-1.419725 7.34375,-2.75 0.018,-0.01247 0.0447,-0.01853 0.0625,-0.03125 0.0164,-0.01356 0.0462,-0.01758 0.0625,-0.03125 l -0.0312,-0.03125 c 1.0028,-0.736795 1.78115,-1.847816 1.78125,-3.09375 -9e-5,-0.599236 -0.0968,-1.338684 -0.65625,-1.96875 -0.23059,-0.259576 -0.48676,-0.439893 -0.75,-0.625 -0.0516,-0.05242 -0.12868,-0.100877 -0.1875,-0.15625 -0.14916,-0.297339 -0.28256,-0.749563 -0.34375,-1.34375 -0.0682,-0.660906 -0.0938,-1.317322 -0.0937,-2 -6e-5,-0.942339 0.0661,-1.798362 0.21875,-2.5625 0.14356,-0.719266 0.36092,-1.250625 0.625,-1.65625 L 808.90625,35.625 809,35.46875 c 0.012,-0.0135 0.0193,-0.01794 0.0312,-0.03125 l 0.0625,-0.09375 c 0.33129,-0.366531 0.64198,-0.673278 0.875,-0.90625 0.20937,-0.209414 0.44747,-0.429483 0.71875,-0.65625 0.0184,-0.01384 0.0443,-0.01726 0.0625,-0.03125 l 0,-0.03125 c 0.47715,-0.368162 0.88843,-0.767095 1.25,-1.21875 0.55001,-0.687292 0.81241,-1.558514 0.8125,-2.4375 -6e-5,-0.152729 -6e-5,-0.286309 0,-0.4375 -1.8e-4,-0.454683 -0.0947,-0.745987 -0.21875,-1.0625 -0.0147,-0.03757 -0.0158,-0.08666 -0.0312,-0.125 l -0.0312,0.03125 c -0.28298,-0.809785 -0.90159,-1.351509 -1.625,-1.78125 0.67331,-2.157922 2.39166,-5.571659 5.28125,-10.21875 0.1515,0.02541 0.24955,0.06252 0.4375,0.0625 1.51515,2.9e-5 2.96526,-0.591337 4.03125,-1.65625 1.07146,-1.070496 1.65616,-2.541822 1.65625,-4.09375 -9e-5,-1.5144424 -0.59175,-2.9643862 -1.65625,-4.0625 C 819.59104,5.6201556 818.14438,5.0000403 816.625,5 c -1.5567,3.95e-5 -3.02453,0.6147942 -4.09375,1.71875 -1.06326,1.0977184 -1.65633,2.5472888 -1.65625,4.0625 -9e-5,0.684731 0.14859,1.321646 0.40625,1.875 0.0334,0.07172 0.0601,0.147856 0.0937,0.21875 -0.48117,0.464786 -0.92046,0.891454 -1.5625,1.5 -0.97399,0.923111 -1.97543,1.901002 -3.03125,2.90625 -1.05867,1.007892 -2.10077,2.013696 -3.125,3.0625 0.011,-0.181938 0.0188,-0.312734 0.0312,-0.5 0.10023,-1.504956 0.23192,-3.054042 0.40625,-4.59375 0.17486,-1.54528 0.39083,-3.028835 0.59375,-4.5 0.14667,-1.0639071 0.32815,-1.8937298 0.5,-2.71875 1.06117,-0.2175193 2.07519,-0.6232986 2.875,-1.375 1.11198,-1.0451404 1.71867,-2.5100894 1.71875,-4.03125 -8e-5,-1.5200372 -0.60492,-2.97879918 -1.6875,-4.0625 -1.09648,-1.0973655 -2.57329,-1.687449 -4.09375,-1.6875 -1.55557,5e-5 -3.02369,0.6150043 -4.09375,1.71875 -1.05165,1.08471893 -1.65632,2.5167146 -1.65625,4.03125 -5e-5,1.3958386 0.66953,2.5934889 1.59375,3.59375 -0.11676,0.2850129 -0.19605,0.4934909 -0.34375,0.875 -0.30426,0.7857309 -0.60271,1.5589056 -0.90625,2.34375 -0.29765,0.769391 -0.56182,1.460917 -0.8125,2.0625 -0.12755,0.305988 -0.21844,0.53515 -0.28125,0.6875 -0.0552,0.133963 -0.087,0.171015 -0.0937,0.1875 -9.2e-4,0.0023 0,0.03125 0,0.03125 -0.70927,1.670625 -1.46619,3.483314 -2.25,5.40625 -0.0666,0.163324 -0.12219,0.247678 -0.1875,0.40625 -0.0257,-0.145764 -0.0367,-0.225468 -0.0625,-0.375 -0.35082,-2.029012 -0.67064,-4.139966 -1,-6.34375 C 793.57649,9.2941624 793.2755,7.1384316 793,5.03125 c -0.23747,-1.8157356 -0.44304,-3.3352589 -0.625,-4.75 0.56876,-0.36087457 1.1973,-0.63734441 1.625,-1.1875 0.74443,-0.9576039 1.0937,-2.1269097 1.09375,-3.3125 -5e-5,-1.52113 -0.61859,-2.9608403 -1.6875,-4.0625 -1.08182,-1.1147372 -2.53646,-1.74994 -4.0625,-1.75 z m 0,40 c 2.23278,9e-6 4.2853,0.115589 6.125,0.3125 1.80907,0.193657 3.41719,0.408746 4.84375,0.6875 0.12401,0.04243 0.2392,0.113885 0.34375,0.125 l 0,0.0625 c 1.97496,0.415737 3.24742,0.963126 4.15625,1.53125 -0.0607,0.08565 -0.10413,0.166592 -0.15625,0.25 -1.06479,-0.543903 -2.31939,-1.022763 -4.125,-1.5625 -2.92526,-0.874386 -6.63662,-1.281244 -11.1875,-1.28125 -4.75076,6e-6 -8.50782,0.401682 -11.40625,1.3125 -1.68751,0.530289 -2.90086,0.998099 -3.90625,1.53125 -0.045,-0.08318 -0.0721,-0.158586 -0.125,-0.25 0.91004,-0.563253 2.16676,-1.119041 4.125,-1.53125 l 0,-0.0625 c 0.10456,-0.01113 0.21975,-0.08256 0.34375,-0.125 1.42647,-0.278751 3.03461,-0.493843 4.84375,-0.6875 1.83961,-0.19691 3.89214,-0.312491 6.125,-0.3125 z m 0,5.46875 c 0.44634,0.453728 0.84238,0.987665 1.34375,1.34375 -0.48567,0.355409 -0.90291,0.867287 -1.34375,1.3125 -0.44083,-0.445195 -0.85814,-0.957101 -1.34375,-1.3125 0.50113,-0.357534 0.89791,-0.888409 1.34375,-1.34375 z m 0,8.53125 c 0.43826,-10e-7 0.67268,0.02814 1.09375,0.03125 -0.33886,-0.0012 -0.78753,-2e-6 -1.09375,0 -0.31764,-2e-6 -0.75031,-0.0011 -1.09375,0 0.42107,-0.0031 0.65548,-0.03125 1.09375,-0.03125 z m -13.625,1.125 c -0.33082,0.09036 -0.61037,0.225881 -0.90625,0.34375 -0.0124,0.0049 -0.0189,0.02627 -0.0312,0.03125 0.005,-0.0086 -0.005,-0.02258 0,-0.03125 l 0.0312,0 c 0.004,-0.0087 -0.004,-0.02242 0,-0.03125 0.0245,-0.04961 0.009,-0.106908 0.0312,-0.15625 0.22169,-0.06968 0.62468,-0.09215 0.875,-0.15625 z m 27.28125,0 c 0.24073,0.06208 0.62971,0.08898 0.84375,0.15625 0.0269,0.06986 0.0563,0.136864 0.0937,0.21875 -0.30739,-0.122792 -0.59498,-0.282406 -0.9375,-0.375 z"
         id="path4152"
         style="font-size:76px;font-style:normal;font-variant:normal;font-weight:normal;font-stretch:normal;line-height:125%;letter-spacing:0px;word-spacing:0px;fill:#ffffff;fill-opacity:1;stroke:none;font-family:DiagramTTOldstyle;-inkscape-font-specification:DiagramTTOldstyle"
         inkscape:original="M 789.34375 -8.53125 C 788.17786 -8.531204 787.17945 -8.1112012 786.34375 -7.25 C 785.50798 -6.3887094 785.09372 -5.3845601 785.09375 -4.21875 C 785.09372 -3.3064371 785.34306 -2.4901538 785.875 -1.78125 C 786.40687 -1.0722678 787.09599 -0.5972927 787.90625 -0.34375 C 787.70366 1.1267453 787.46578 2.9226826 787.1875 5 C 786.90914 7.0773823 786.61056 9.1963987 786.28125 11.375 C 785.95187 13.553653 785.60482 15.71043 785.25 17.8125 C 784.89511 19.914609 784.55303 21.698828 784.25 23.21875 C 783.64076 21.901383 782.94093 20.300066 782.15625 18.375 C 781.37151 16.449972 780.64719 14.640241 779.9375 12.96875 C 779.93747 12.968774 779.7848 12.670964 779.53125 12.0625 C 779.27764 11.454087 779.02256 10.754258 778.71875 9.96875 C 778.41489 9.1832965 778.08506 8.4097377 777.78125 7.625 C 777.47739 6.840322 777.27805 6.2733873 777.125 5.96875 C 778.34185 5.1585609 778.93747 4.044467 778.9375 2.625 C 778.93747 1.4607293 778.52972 0.46154413 777.71875 -0.375 C 776.90773 -1.2114685 775.90281 -1.6249609 774.6875 -1.625 C 773.52162 -1.6249609 772.52321 -1.2114685 771.6875 -0.375 C 770.85175 0.46154413 770.43748 1.4607293 770.4375 2.625 C 770.43748 3.7908865 770.85175 4.7770509 771.6875 5.5625 C 772.52321 6.3480129 773.52162 6.7500307 774.6875 6.75 L 774.84375 6.75 C 775.04628 7.8138317 775.24066 9.0623656 775.46875 10.53125 C 775.69679 12.000188 775.91591 13.52281 776.09375 15.09375 C 776.27154 16.664734 776.3987 18.230081 776.5 19.75 C 776.60125 21.269954 776.65622 22.626887 776.65625 23.84375 L 776.65625 24.21875 C 775.89548 23.408543 775.01275 22.475804 774 21.4375 C 772.9872 20.399228 771.93955 19.388568 770.875 18.375 C 769.81041 17.36147 768.80626 16.381043 767.84375 15.46875 C 766.88121 14.556501 766.0764 13.79519 765.46875 13.1875 C 765.67129 12.782414 765.88544 12.411646 766.0625 12.03125 C 766.23953 11.650905 766.31249 11.237412 766.3125 10.78125 C 766.31249 9.6169712 765.90396 8.586536 765.09375 7.75 C 764.28352 6.9135234 763.27937 6.5000309 762.0625 6.5 C 760.89818 6.5000309 759.90474 6.9135234 759.09375 7.75 C 758.28275 8.586536 757.87499 9.6169712 757.875 10.78125 C 757.87499 11.998154 758.28275 13.002303 759.09375 13.8125 C 759.90474 14.622744 760.89818 15.031272 762.0625 15.03125 C 762.26504 15.031272 762.44717 14.987775 762.625 14.9375 C 762.8028 14.88727 763.02766 14.832298 763.28125 14.78125 C 766.9798 20.607439 769.09959 24.820976 769.65625 27.40625 C 768.4409 27.81137 767.73379 28.341318 767.53125 29 C 767.42918 29.253589 767.37498 29.473478 767.375 29.625 C 767.37498 29.776538 767.37498 29.909431 767.375 30.0625 C 767.37498 30.670173 767.5399 31.182908 767.84375 31.5625 C 768.14757 31.942103 768.50112 32.289149 768.90625 32.59375 C 769.21084 32.847335 769.50291 33.096684 769.78125 33.375 C 770.05955 33.653324 770.35162 34.012617 770.65625 34.46875 C 770.75828 34.468753 770.83047 34.523725 770.90625 34.625 C 770.982 34.72628 771.03123 34.781253 771.03125 34.78125 C 771.43634 35.388918 771.72919 36.144492 771.90625 37.03125 C 772.08327 37.918009 772.15623 38.860676 772.15625 39.875 C 772.15623 40.583167 772.13824 41.296017 772.0625 42.03125 C 771.98671 42.766474 771.81606 43.400629 771.5625 43.90625 C 771.56248 44.008294 771.50751 44.080478 771.40625 44.15625 C 771.30495 44.232008 771.19423 44.335442 771.09375 44.4375 C 770.84015 44.589023 770.64004 44.771925 770.4375 45 C 770.23493 45.22806 770.12498 45.563631 770.125 45.96875 C 770.12498 46.729483 770.53351 47.380849 771.34375 47.9375 C 772.61009 49.001291 774.85703 49.829048 778.125 50.4375 C 781.39291 51.045926 785.13799 51.343736 789.34375 51.34375 C 793.54944 51.343736 797.29451 51.045926 800.5625 50.4375 C 803.83039 49.829048 806.07734 49.001291 807.34375 47.9375 C 808.15391 47.380849 808.56244 46.729483 808.5625 45.96875 C 808.56244 45.563631 808.48375 45.22806 808.28125 45 C 808.07864 44.771925 807.84727 44.589023 807.59375 44.4375 C 807.49319 44.335442 807.38247 44.232008 807.28125 44.15625 C 807.17992 44.080478 807.12494 44.008294 807.125 43.90625 C 806.87136 43.400629 806.70071 42.766474 806.625 42.03125 C 806.54918 41.296017 806.53119 40.583167 806.53125 39.875 C 806.53119 38.860676 806.60415 37.918009 806.78125 37.03125 C 806.95824 36.144492 807.25108 35.388918 807.65625 34.78125 L 807.875 34.46875 C 808.2816 34.012617 808.62787 33.653324 808.90625 33.375 C 809.18451 33.096684 809.47659 32.847335 809.78125 32.59375 C 810.1863 32.289149 810.53986 31.942103 810.84375 31.5625 C 811.14752 31.182908 811.31244 30.670173 811.3125 30.0625 C 811.31244 29.909431 811.31244 29.776538 811.3125 29.625 C 811.31244 29.473478 811.25824 29.253589 811.15625 29 C 810.95364 28.341318 810.24652 27.81137 809.03125 27.40625 C 809.58783 24.820976 811.70762 20.607439 815.40625 14.78125 C 815.65977 14.832298 815.88462 14.88727 816.0625 14.9375 C 816.24025 14.987775 816.42238 15.031272 816.625 15.03125 C 817.78924 15.031272 818.78269 14.622744 819.59375 13.8125 C 820.40468 13.002303 820.81243 11.998154 820.8125 10.78125 C 820.81243 9.6169712 820.40468 8.586536 819.59375 7.75 C 818.78269 6.9135234 817.78924 6.5000309 816.625 6.5 C 815.40806 6.5000309 814.40391 6.9135234 813.59375 7.75 C 812.78347 8.586536 812.37494 9.6169712 812.375 10.78125 C 812.37494 11.237412 812.47915 11.650905 812.65625 12.03125 C 812.83323 12.411646 813.01613 12.782414 813.21875 13.1875 C 812.61102 13.79519 811.80621 14.556501 810.84375 15.46875 C 809.88117 16.381043 808.87702 17.36147 807.8125 18.375 C 806.74787 19.388568 805.70022 20.399228 804.6875 21.4375 C 803.67467 22.475804 802.79194 23.408543 802.03125 24.21875 L 802.03125 23.84375 C 802.0312 22.626887 802.08617 21.269954 802.1875 19.75 C 802.28873 18.230081 802.41588 16.664734 802.59375 15.09375 C 802.77151 13.52281 802.98489 12.000188 803.1875 10.53125 C 803.39 9.0623656 803.62137 7.8138317 803.875 6.75 L 804 6.75 C 805.1658 6.7500307 806.19546 6.3480129 807.03125 5.5625 C 807.86693 4.7770509 808.28119 3.7908865 808.28125 2.625 C 808.28119 1.4607293 807.86693 0.46154413 807.03125 -0.375 C 806.19546 -1.2114685 805.1658 -1.6249609 804 -1.625 C 802.78462 -1.6249609 801.77969 -1.2114685 800.96875 -0.375 C 800.15771 0.46154413 799.74995 1.4607293 799.75 2.625 C 799.74995 4.044467 800.37682 5.1585609 801.59375 5.96875 C 801.44062 6.2733873 801.21003 6.840322 800.90625 7.625 C 800.60237 8.4097377 800.30378 9.1832965 800 9.96875 C 799.69612 10.754258 799.40978 11.454087 799.15625 12.0625 C 798.90262 12.670964 798.7812 12.968774 798.78125 12.96875 C 798.07149 14.640241 797.31591 16.449972 796.53125 18.375 C 795.7465 20.300066 795.04667 21.901383 794.4375 23.21875 C 794.1344 21.851904 793.79232 20.14638 793.4375 18.09375 C 793.0826 16.041159 792.7668 13.922143 792.4375 11.71875 C 792.10811 9.5154088 791.77828 7.3471574 791.5 5.21875 C 791.22164 3.0904071 790.98377 1.2272497 790.78125 -0.34375 C 791.59143 -0.64677182 792.28056 -1.1282573 792.8125 -1.8125 C 793.34436 -2.4966642 793.59371 -3.3064371 793.59375 -4.21875 C 793.59371 -5.3845601 793.17944 -6.3887094 792.34375 -7.25 C 791.50798 -8.1112012 790.50956 -8.531204 789.34375 -8.53125 z M 789.34375 28.46875 C 791.62439 28.468759 793.72542 28.57793 795.625 28.78125 C 797.52449 28.984587 799.23001 29.228198 800.75 29.53125 C 800.74995 29.633309 800.81562 29.687508 800.96875 29.6875 C 803.8555 30.295173 805.84239 31.177903 806.90625 32.34375 C 806.80569 32.595789 806.62853 32.871424 806.375 33.125 L 806.0625 33.5 C 805.91092 33.702559 805.77725 33.93966 805.625 34.21875 C 805.47264 34.497846 805.3192 34.747968 805.21875 35 C 804.50898 34.341312 802.80423 33.622725 800.09375 32.8125 C 797.38317 32.002284 793.80302 31.593756 789.34375 31.59375 C 784.68185 31.593756 781.03448 32.008021 778.375 32.84375 C 775.71547 33.679488 774.07794 34.435062 773.46875 35.09375 C 773.36822 34.790693 773.20827 34.492109 773.03125 34.1875 C 772.85419 33.882897 772.71555 33.595788 772.5625 33.34375 C 772.25942 33.139653 771.98378 32.798344 771.78125 32.34375 C 772.84503 31.177903 774.83193 30.295173 777.71875 29.6875 C 777.8718 29.687508 777.93747 29.633309 777.9375 29.53125 C 779.45741 29.228198 781.16293 28.984587 783.0625 28.78125 C 784.962 28.57793 787.06303 28.468759 789.34375 28.46875 z M 789.34375 33.34375 C 790.71212 35.217776 792.39888 36.387615 794.375 36.84375 C 793.36064 36.99528 792.43518 37.354574 791.625 37.9375 C 790.81474 38.520425 790.05343 39.275226 789.34375 40.1875 C 788.634 39.275226 787.87268 38.520425 787.0625 37.9375 C 786.25224 37.354574 785.35804 36.99528 784.34375 36.84375 C 786.31979 36.387615 787.97531 35.217776 789.34375 33.34375 z M 773.90625 36.53125 C 774.56492 37.290446 775.27126 37.930338 776.03125 38.4375 C 776.79119 38.94466 777.70595 39.308917 778.71875 39.5625 C 776.8447 39.865557 775.32208 40.749834 774.15625 42.21875 C 774.20725 41.813635 774.26145 41.405107 774.3125 41 C 774.3635 40.594886 774.37498 40.217608 774.375 39.8125 C 774.37498 38.697671 774.21083 37.595052 773.90625 36.53125 z M 804.78125 36.53125 C 804.47659 37.595052 804.31245 38.697671 804.3125 39.8125 C 804.31245 40.217608 804.35517 40.594886 804.40625 41 C 804.45722 41.405107 804.51142 41.813635 804.5625 42.21875 C 803.3966 40.749834 801.87397 39.865557 800 39.5625 C 801.01273 39.308917 801.89623 38.94466 802.65625 38.4375 C 803.41617 37.930338 804.12251 37.290446 804.78125 36.53125 z M 789.34375 42.46875 C 793.14433 42.468745 796.31673 42.584427 798.875 42.8125 C 801.43318 43.040562 803.48001 43.412103 805 43.96875 C 804.99995 44.070794 805.04841 44.234938 805.125 44.4375 C 805.20148 44.640048 805.26297 44.805738 805.3125 44.90625 C 805.46552 45.159823 805.64114 45.402661 805.84375 45.65625 C 806.04625 45.909822 806.18069 46.086987 806.28125 46.1875 C 806.12967 46.340567 805.89179 46.521923 805.5625 46.75 C 805.2331 46.978058 804.91653 47.149486 804.5625 47.25 C 803.95324 46.793855 803.02778 46.446809 801.8125 46.21875 C 800.59712 45.990673 799.25089 45.820019 797.78125 45.71875 C 796.31152 45.617464 794.83239 45.556755 793.3125 45.53125 C 791.79252 45.505729 790.45854 45.499992 789.34375 45.5 C 788.17786 45.499992 786.83814 45.505729 785.34375 45.53125 C 783.84929 45.556755 782.3759 45.617464 780.90625 45.71875 C 779.43654 45.820019 778.09031 45.990673 776.875 46.21875 C 775.65964 46.446809 774.76544 46.793855 774.15625 47.25 C 773.44806 47.047435 772.92958 46.760326 772.625 46.40625 C 772.42242 46.253165 772.31248 46.131746 772.3125 46.03125 L 772.3125 45.96875 C 772.46401 45.866691 772.64117 45.714022 772.84375 45.5625 C 773.04628 45.410962 773.21043 45.222323 773.3125 44.96875 C 773.3635 44.917717 773.41925 44.850497 773.46875 44.75 C 773.6218 44.445387 773.68748 44.171299 773.6875 43.96875 C 775.20741 43.412103 777.25425 43.040562 779.8125 42.8125 C 782.3707 42.584427 785.5431 42.468745 789.34375 42.46875 z "
         inkscape:radius="1.5"
         sodipodi:type="inkscape:offset" />
      <path
         transform="translate(0,-8)"
         inkscape:connector-curvature="0"
         id="path67483"
         d="m 754.86726,58.792166 c -4.57094,0.01449 -9.21883,0.01466 -13.66973,1.171445 -0.57761,0.155621 -1.39391,0.236263 -1.4122,1.002935 -0.17397,0.655688 -0.71707,1.062783 -1.1819,1.491385 -0.39817,0.648095 0.38821,1.177849 0.8484,1.502057 0.54615,0.311054 1.21393,0.8161 1.81688,0.386853 1.86251,-0.996362 4.05205,-1.079132 6.11711,-1.28297 5.10918,-0.325067 10.2375,-0.296993 15.3519,-0.115037 2.43718,0.160847 4.93911,0.216962 7.25949,1.040502 0.60737,0.214908 1.20602,0.826935 1.8569,0.365509 0.584,-0.308812 1.20725,-0.671653 1.58476,-1.22459 -0.0302,-0.694531 -0.73403,-1.122325 -0.99515,-1.742172 -0.27909,-0.46295 -0.2696,-1.243363 -0.9883,-1.25096 -5.30176,-1.522844 -10.8908,-1.31266 -16.35605,-1.345486 -0.0774,1.76e-4 -0.15474,3.53e-4 -0.23211,5.29e-4 z"
         style="fill:#ffffff;fill-opacity:1;fill-rule:nonzero;stroke:none" />
      <path
         transform="translate(0,-8)"
         inkscape:connector-curvature="0"
         id="path67485"
         d="m 755.83572,49.638424 c -0.63324,0.620291 -1.14486,1.385821 -1.8799,1.91408 -0.88255,0.743589 -1.92687,1.270427 -3.03179,1.578268 -0.55151,0.24478 -0.2747,1.037467 0.27213,1.053841 1.84148,0.342611 3.25922,1.734709 4.44214,3.102828 0.62355,0.480439 1.04119,-0.403222 1.43795,-0.76374 1.07034,-1.166148 2.43747,-2.185683 4.04329,-2.370444 0.57712,-0.18926 0.35249,-1.028157 -0.19603,-1.089183 -1.82476,-0.503884 -3.41093,-1.717974 -4.50084,-3.265573 -0.18183,-0.164778 -0.34651,-0.207901 -0.58695,-0.160077 z"
         style="fill:#ffffff;fill-opacity:1;fill-rule:nonzero;stroke:none" />
      <path
         transform="translate(0,-8)"
         inkscape:connector-curvature="0"
         id="path67487"
         d="m 740.29757,52.968027 c -0.42047,0.538739 0.0599,1.228936 0.0747,1.84251 0.23679,1.325566 0.12586,2.708374 -0.0516,4.02163 -0.13028,0.485074 0.6611,0.748801 0.98273,0.325508 0.75519,-0.683946 1.49515,-1.4152 2.47853,-1.766184 0.55949,-0.320671 1.26452,-0.344303 1.79553,-0.672324 0.34736,-0.336999 0.0343,-0.918156 -0.42687,-0.965798 -0.89264,-0.224196 -1.71979,-0.683798 -2.47586,-1.205914 -0.65828,-0.491866 -1.19666,-1.126182 -1.84356,-1.627451 -0.15357,-0.09485 -0.3523,-0.02835 -0.53359,0.04802 z"
         style="fill:#ffffff;fill-opacity:1;fill-rule:nonzero;stroke:none" />
      <path
         transform="translate(0,-8)"
         inkscape:connector-curvature="0"
         id="path67489"
         d="m 771.11242,52.970695 c -1.12399,1.13748 -2.37502,2.241348 -3.9459,2.689296 -0.43046,0.105429 -1.14095,0.426171 -0.83454,0.975403 0.23654,0.442466 0.83229,0.225659 1.20354,0.474003 1.23706,0.346985 2.2591,1.127 3.13668,2.037606 0.26527,0.390876 0.95954,0.421133 1.03567,-0.135866 -0.14399,-1.341884 -0.29029,-2.711842 -0.0752,-4.055486 0.0201,-0.623998 0.41838,-1.280682 0.18046,-1.86461 -0.16986,-0.26117 -0.45064,-0.255923 -0.70071,-0.120346 z"
         style="fill:#ffffff;fill-opacity:1;fill-rule:nonzero;stroke:none" />
      <path
         transform="translate(0,-8)"
         inkscape:connector-curvature="0"
         id="path67491"
         d="m 755.28879,44.793423 c -2.59295,-0.03091 -5.17923,0.149166 -7.74341,0.530587 -1.26913,0.185845 -2.55867,0.316706 -3.76613,0.760702 -1.92182,0.479951 -3.94195,1.082539 -5.43195,2.454516 -0.50046,0.361251 -0.37344,1.044488 0.0133,1.438025 0.60756,0.638685 1.00979,1.436992 1.37487,2.218375 0.47569,0.513455 0.97487,-0.222382 1.41848,-0.441519 2.29905,-1.236011 4.85906,-1.936389 7.43291,-2.369141 3.58597,-0.569511 7.25362,-0.451515 10.87982,-0.374972 4.00982,0.148672 8.01936,0.988772 11.59767,2.834824 0.36723,0.298281 1.02626,0.734734 1.31452,0.113598 0.37009,-0.888985 1.02277,-1.604055 1.54286,-2.402701 0.34329,-0.747708 -0.51035,-1.276443 -1.01916,-1.648794 -1.57417,-1.037199 -3.4198,-1.510593 -5.21584,-1.987624 -1.2762,-0.417005 -2.64873,-0.482064 -3.97302,-0.69542 -2.79196,-0.419309 -5.60654,-0.449927 -8.42496,-0.430456 z"
         style="fill:#ffffff;fill-opacity:1;fill-rule:nonzero;stroke:none" />
      <text
         sodipodi:linespacing="125%"
         id="text3001"
         y="46.216267"
         x="718.01398"
         style="font-size:76px;font-style:normal;font-variant:normal;font-weight:normal;font-stretch:normal;line-height:125%;letter-spacing:0px;word-spacing:0px;fill:#000000;fill-opacity:1;stroke:none;font-family:DiagramTTOldstyle;-inkscape-font-specification:DiagramTTOldstyle"
         xml:space="preserve"><tspan
           y="46.216267"
           x="718.01398"
           id="tspan3003"
           sodipodi:role="line">q</tspan></text>
    </g>
  </g>
</svg>
