<?xml version="1.0" encoding="UTF-8" standalone="no"?>
<!-- Created with Inkscape (http://www.inkscape.org/) -->

<svg
   xmlns:dc="http://purl.org/dc/elements/1.1/"
   xmlns:cc="http://creativecommons.org/ns#"
   xmlns:rdf="http://www.w3.org/1999/02/22-rdf-syntax-ns#"
   xmlns:svg="http://www.w3.org/2000/svg"
   xmlns="http://www.w3.org/2000/svg"
   xmlns:sodipodi="http://sodipodi.sourceforge.net/DTD/sodipodi-0.dtd"
   xmlns:inkscape="http://www.inkscape.org/namespaces/inkscape"
   width="64px"
   height="64px"
   id="svg4261"
   version="1.1"
   inkscape:version="0.48.2 r9819"
   sodipodi:docname="wp.svg">
  <defs
     id="defs4263" />
  <sodipodi:namedview
     id="base"
     pagecolor="#ffffff"
     bordercolor="#666666"
     borderopacity="1.0"
     inkscape:pageopacity="0.0"
     inkscape:pageshadow="2"
     inkscape:zoom="5.5"
     inkscape:cx="34.363636"
     inkscape:cy="32"
     inkscape:current-layer="layer1"
     showgrid="true"
     inkscape:document-units="px"
     inkscape:grid-bbox="true"
     inkscape:window-width="984"
     inkscape:window-height="614"
     inkscape:window-x="324"
     inkscape:window-y="105"
     inkscape:window-maximized="0" />
  <metadata
     id="metadata4266">
    <rdf:RDF>
      <cc:Work
         rdf:about="">
        <dc:format>image/svg+xml</dc:format>
        <dc:type
           rdf:resource="http://purl.org/dc/dcmitype/StillImage" />
        <dc:title></dc:title>
      </cc:Work>
    </rdf:RDF>
  </metadata>
  <g
     id="layer1"
     inkscape:label="Layer 1"
     inkscape:groupmode="layer">
    <g
       id="g3685"
       transform="matrix(0.88,0,0,0.88,-127.17734,6.4350452)">
      <path
         transform="translate(3.0165896,33.142712)"
         d="m 177.59375,-36.71875 c -1.49747,6.4e-5 -2.92905,0.61656 -4,1.6875 -1.07099,1.07101 -1.68754,2.502521 -1.6875,4 -4e-5,0.893757 0.19649,1.778502 0.625,2.5625 0.0576,0.105503 0.15561,0.179847 0.21875,0.28125 -0.98371,0.584659 -1.96507,1.263338 -2.84375,2.125 -1.34881,1.322697 -2.5106,2.742393 -3.53125,4.3125 -1.01419,1.560165 -1.83223,3.145255 -2.4375,4.75 -0.6023,1.596773 -0.96878,3.038602 -0.96875,4.40625 -2e-5,3.0605575 0.34399,5.6155672 1.0625,7.6875 0.62941,1.8151786 1.27514,3.3560372 1.96875,4.71875 0.0323,0.0634272 0.0614,0.15627361 0.0937,0.21875 0.19668,0.56422807 0.40559,1.1190473 0.6875,1.65625 0.21837,0.4162319 0.41203,0.873437 0.53125,1.3125 a 1.50015,1.50015 0 0 0 0.0312,0.09375 c 0.17238,0.4738062 0.2893,0.8727206 0.34375,1.21875 0.0664,0.4225197 0.0937,0.8301562 0.0937,1.15625 -2e-5,0.326116 -0.0551,0.7665976 -0.125,1.28125 -0.0607,0.4462268 -0.16207,0.9897368 -0.34375,1.625 a 1.50015,1.50015 0 0 0 -0.0312,0.09375 C 167.20139,8.8255744 167.0904,9.1159839 167,9.3125 c -0.18618,0.4045945 -0.30709,0.766431 -0.40625,1.0625 l 0.0312,0 c -0.17276,0.380866 -0.31734,0.755867 -0.4375,1.1875 -0.16719,0.600339 -0.25003,1.26005 -0.25,2 -5e-5,1.66758 1.24583,3.012091 2.84375,3.78125 1.09244,0.52586 2.51096,0.812145 3.90625,1.09375 -0.0339,0.210798 -0.067,0.433168 -0.1875,0.75 -0.13561,0.356553 -0.30913,0.638406 -0.53125,0.875 -0.0336,0.03575 -0.0988,0.124994 -0.5625,0.125 -0.34939,-5e-6 -1.03587,-0.102013 -1.96875,-0.375 -0.99748,-0.29189 -2.05338,-0.569273 -3.15625,-0.8125 -0.0488,-0.0158 -0.10738,-0.01547 -0.15625,-0.03125 -1.64362,-0.530613 -3.34603,-1.037409 -5.125,-1.5 -1.90319,-0.494895 -3.70611,-0.750005 -5.375,-0.75 -1.50135,-6e-6 -3.02971,0.343438 -4.5625,1 -1.77839,0.761738 -3.16146,2.291646 -4.15625,4.28125 a 1.50015,1.50015 0 0 0 0.78125,2.0625 c -0.57213,0.773045 -1.07499,1.593398 -1.375,2.53125 a 1.50015,1.50015 0 0 0 2.25,1.71875 c 0.7091,-0.459595 1.39092,-0.757365 2.09375,-0.9375 0.81098,-0.207885 1.58661,-0.342645 2.28125,-0.40625 0.74198,-0.06796 1.43557,-0.08535 2.09375,-0.0625 0.73425,0.02547 1.38552,0.03124 1.9375,0.03125 l 0.875,0 c 0.78715,-10e-6 1.63592,0.145196 2.5625,0.46875 1.02174,0.356769 2.1217,0.768399 3.28125,1.15625 0.0329,0.01102 0.0607,0.02023 0.0937,0.03125 1.23774,0.491091 2.46508,0.920932 3.6875,1.3125 1.37534,0.440537 2.81558,0.656232 4.25,0.65625 1.94572,-1.8e-5 3.67958,-0.439954 5.125,-1.34375 0.72276,-0.451975 1.369,-0.973837 1.9375,-1.53125 0.56846,0.557508 1.21406,1.079163 1.9375,1.53125 1.45986,0.912306 3.22978,1.343732 5.21875,1.34375 1.43435,-1.8e-5 2.83786,-0.214815 4.1875,-0.65625 1.22379,-0.400337 2.48148,-0.837928 3.75,-1.34375 a 1.50015,1.50015 0 0 0 0,-0.03125 c 1.14204,-0.47661 2.22207,-0.85494 3.21875,-1.15625 0.94956,-0.287118 1.82632,-0.43751 2.625,-0.4375 l 0.96875,0 c 0.50508,-1.2e-5 1.14205,-0.0058 1.875,-0.03125 0.65725,-0.02284 1.35079,-0.0055 2.09375,0.0625 0.69258,0.06336 1.43252,0.225861 2.28125,0.4375 0.73753,0.183915 1.49108,0.473169 2.25,0.9375 a 1.50015,1.50015 0 0 0 2.1875,-1.78125 c -0.33743,-0.936659 -0.85265,-1.770579 -1.4375,-2.53125 A 1.50015,1.50015 0 0 0 210.65625,22 c -0.99486,-1.989578 -2.37795,-3.519505 -4.15625,-4.28125 -1.5332,-0.656706 -3.06245,-1.000006 -4.5625,-1 -1.70514,-5e-6 -3.50621,0.214977 -5.375,0.65625 -1.78813,0.422188 -3.52717,0.92374 -5.21875,1.46875 -0.0188,0.0061 -0.0437,-0.0061 -0.0625,0 l 0,0.03125 c -1.1613,0.339818 -2.25836,0.649578 -3.21875,0.9375 -0.90767,0.272074 -1.56828,0.374995 -1.84375,0.375 -0.39683,-5e-6 -0.47808,-0.07182 -0.5625,-0.15625 -0.23121,-0.231193 -0.40009,-0.498778 -0.53125,-0.84375 -0.11121,-0.292391 -0.13937,-0.495502 -0.1875,-0.71875 1.42537,-0.265793 2.86222,-0.527357 4.03125,-1.03125 1.72407,-0.743193 3.03117,-2.164124 3.03125,-3.875 -6e-5,-0.76137 -0.0857,-1.461171 -0.34375,-2.125 -0.17122,-0.440255 -0.33259,-0.850499 -0.53125,-1.25 A 1.50015,1.50015 0 0 0 191.03125,10 c -0.25481,-0.3821584 -0.40406,-0.7800825 -0.4375,-1.3125 a 1.50015,1.50015 0 0 0 -0.0312,-0.25 c -0.23536,-0.9871668 -0.37335,-1.76469 -0.4375,-2.34375 -0.052,-0.4691189 -0.0211,-0.9514419 0.0312,-1.4375 l 0.1875,-0.34375 a 1.50015,1.50015 0 0 0 0,-0.03125 c 0.3692,-0.6869072 0.79672,-1.5703181 1.3125,-2.625 0.54176,-1.10800408 1.08374,-2.38382483 1.59375,-3.8125 0.51503,-1.4430231 0.95569,-2.9750101 1.3125,-4.65625 0.36896,-1.7389405 0.5312,-3.532884 0.53125,-5.34375 -5e-5,-1.57554 -0.15775,-3.138973 -0.5,-4.71875 -0.33344,-1.538559 -0.75945,-3.025204 -1.28125,-4.40625 -0.51682,-1.367491 -1.09458,-2.62713 -1.75,-3.78125 -0.39617,-0.697452 -0.81652,-1.187475 -1.21875,-1.75 0.33193,-0.338602 0.75828,-0.591775 1,-1 0.53149,-0.897699 0.81244,-1.924265 0.8125,-3 -7e-5,-1.485259 -0.58376,-2.896041 -1.59375,-3.96875 -1.03399,-1.097929 -2.47234,-1.718686 -3.96875,-1.71875 -1.53161,6.2e-5 -2.98558,0.611218 -4.09375,1.6875 -0.1595,0.154914 -0.23558,0.361722 -0.375,0.53125 -0.17824,-0.243639 -0.28333,-0.533312 -0.5,-0.75 -1.08422,-1.084109 -2.53383,-1.687436 -4.03125,-1.6875 z m 0,4.96875 c 0.16141,1.3e-5 0.22515,0.01655 0.40625,0.21875 0.2325,0.259675 0.24999,0.341416 0.25,0.5 -2e-5,0.385269 -0.065,0.415709 -0.125,0.46875 -0.14622,0.129163 -0.27028,0.187519 -0.53125,0.1875 -0.18149,1.4e-5 -0.29784,-0.04095 -0.5625,-0.25 -0.0907,-0.0716 -0.12502,-0.04 -0.125,-0.40625 -1e-5,-0.134436 -0.0108,-0.177106 0.25,-0.4375 0.28526,-0.284802 0.36468,-0.281244 0.4375,-0.28125 z m 9,0.25 c 0.13192,1.1e-5 0.11902,-0.02886 0.3125,0.1875 0.23272,0.260347 0.24999,0.343962 0.25,0.5 -2e-5,0.248932 -0.0489,0.352722 -0.1875,0.5 -0.17799,0.189201 -0.12538,0.156262 -0.28125,0.15625 -0.17887,-0.04846 -0.34971,-0.103846 -0.53125,-0.125 -0.33193,-0.117375 -0.28127,-0.0027 -0.28125,-0.53125 -1e-5,-0.155886 0.0172,-0.239678 0.25,-0.5 0.14794,-0.165475 0.17448,-0.187479 0.46875,-0.1875 z m -5.5625,8.75 c 0.95368,0.987666 1.87265,2.04178 2.65625,3.375 0.21165,0.360156 0.30793,0.731678 0.5,1.09375 a 1.50015,1.50015 0 0 0 -0.53125,-0.09375 l -2.625,0 0,-4.375 z m -7.65625,0.40625 0,3.96875 -2.46875,0 a 1.50015,1.50015 0 0 0 -0.71875,0.1875 c 0.34006,-0.592171 0.56011,-1.197402 0.96875,-1.78125 0.6533,-0.933419 1.45536,-1.631849 2.21875,-2.375 z m -3.96875,5.53125 0,4.65625 a 1.50015,1.50015 0 0 0 1.5,1.5 l 2.46875,0 0,6.90625 a 1.50015,1.50015 0 0 0 1.5,1.5 l 4.65625,0 a 1.50015,1.50015 0 0 0 1.5,-1.5 l 0,-6.90625 2.625,0 a 1.50015,1.50015 0 0 0 1.5,-1.5 l 0,-3.96875 c 0.21995,0.531319 0.54546,1.059221 0.71875,1.59375 0.53606,1.653854 0.78121,2.957202 0.78125,3.78125 -5e-5,3.4498047 -0.1464,6.2668639 -0.40625,8.4375 -0.1229,1.0262678 -0.21876,1.79104054 -0.3125,2.40625 -0.86675,-0.20305132 -1.6645,-0.46687292 -2.6875,-0.5625 -1.6115,-0.15060588 -3.07228,-0.21873722 -4.40625,-0.21875 -2.07191,1.259e-5 -3.79703,0.13330999 -5.21875,0.34375 -0.80983,0.11987659 -1.37999,0.30913693 -2.03125,0.46875 -0.0611,-0.15632443 -0.13625,-0.35249441 -0.1875,-0.5 -0.2278,-0.6554505 -0.53188,-1.2741183 -0.90625,-1.875 -0.0137,-0.025452 -0.0176,-0.068076 -0.0312,-0.09375 -0.61985,-1.1639826 -1.18567,-2.5263614 -1.71875,-4.125 -0.48925,-1.467029 -0.78128,-3.5252567 -0.78125,-6.125 -2e-5,-0.581344 0.24283,-1.700546 0.84375,-3.15625 0.15017,-0.363814 0.42051,-0.702516 0.59375,-1.0625 z m 9.4375,29.375 c 2.98147,2e-6 5.15198,0.335842 6.40625,0.84375 -1.30464,0.435768 -3.4673,0.749997 -6.40625,0.75 -2.88732,-3e-6 -4.96739,-0.314471 -6.25,-0.75 1.23509,-0.508232 3.32005,-0.843748 6.25,-0.84375 z m -1.28125,6.40625 c 0.009,1.3e-5 0.0222,0 0.0312,0 l 1.25,0 1.28125,0 c 0.10277,0.700645 0.29198,1.360364 0.53125,2 A 1.50015,1.50015 0 0 0 179.75,20.6875 l -2,0 a 1.50015,1.50015 0 0 0 -0.625,0.15625 c 0.0846,-0.233974 0.21593,-0.442458 0.28125,-0.6875 0.0985,-0.369779 0.0959,-0.792798 0.15625,-1.1875 z m 3.8125,3.65625 c 1.01262,1.603527 2.81462,2.562487 4.84375,2.5625 0.88524,-1.4e-5 1.85473,-0.176507 2.96875,-0.46875 1.0601,-0.278147 2.23963,-0.602836 3.53125,-1 -0.21751,0.08872 -0.43915,0.159815 -0.65625,0.25 -0.0215,0.0089 -0.041,0.0223 -0.0625,0.03125 -1.09213,0.378638 -2.16158,0.69917 -3.25,1.0625 -0.97282,0.324687 -1.91013,0.499988 -2.8125,0.5 -0.83223,-1.2e-5 -1.52138,-0.111087 -2.09375,-0.34375 -0.63452,-0.257922 -1.09799,-0.584498 -1.46875,-0.9375 -0.40146,-0.382191 -0.69361,-0.777334 -0.875,-1.15625 -0.10378,-0.216725 -0.0853,-0.334917 -0.125,-0.5 z m -5.3125,0.21875 c -0.0366,0.105361 -0.005,0.160168 -0.0625,0.28125 -0.18152,0.379059 -0.47357,0.774037 -0.875,1.15625 -0.38055,0.362262 -0.84556,0.68095 -1.4375,0.9375 -0.51087,0.221376 -1.13834,0.343738 -1.96875,0.34375 -0.84438,-1.1e-5 -1.77334,-0.168231 -2.8125,-0.5 -1.13693,-0.362995 -2.26246,-0.687673 -3.34375,-1.0625 -0.0215,-0.0089 -0.041,-0.02232 -0.0625,-0.03125 -0.21721,-0.09012 -0.43875,-0.161329 -0.65625,-0.25 1.29293,0.397588 2.4734,0.720958 3.5625,1 1.13397,0.290529 2.1147,0.468736 3,0.46875 1.05926,-1.4e-5 2.04725,-0.237374 2.90625,-0.71875 0.71321,-0.399744 1.27025,-0.991284 1.75,-1.625 z"
         id="path3665-5"
         style="font-size:73.72000122px;font-style:normal;font-variant:normal;font-weight:normal;font-stretch:normal;line-height:125%;letter-spacing:0px;word-spacing:0px;fill:#4d4d4d;fill-opacity:1;stroke:none;font-family:DiagramTTOldstyle;-inkscape-font-specification:DiagramTTOldstyle"
         inkscape:original="M 177.59375 -35.21875 C 176.46284 -35.218702 175.49162 -34.804111 174.65625 -33.96875 C 173.82081 -33.133294 173.40622 -32.162082 173.40625 -31.03125 C 173.40622 -30.344281 173.54825 -29.728149 173.84375 -29.1875 C 174.13918 -28.646767 174.54077 -28.161161 175.03125 -27.71875 C 173.60637 -27.177269 172.24658 -26.253075 170.96875 -25 C 169.69086 -23.746849 168.58337 -22.411805 167.625 -20.9375 C 166.66658 -19.463127 165.90916 -17.967806 165.34375 -16.46875 C 164.77829 -14.969635 164.46873 -13.675106 164.46875 -12.59375 C 164.46873 -9.6450472 164.79854 -7.2487798 165.4375 -5.40625 C 166.07641 -3.5636833 166.74905 -1.9835909 167.4375 -0.65625 C 167.63395 -0.066800832 167.85425 0.48406855 168.125 1 C 168.39569 1.5159556 168.60299 2.0523198 168.75 2.59375 C 168.94645 3.1337013 169.08273 3.6265601 169.15625 4.09375 C 169.22971 4.5609578 169.28122 5.026306 169.28125 5.46875 C 169.28122 5.9112091 169.22971 6.3968153 169.15625 6.9375 C 169.08273 7.4781969 168.94645 8.0943295 168.75 8.78125 C 168.65098 9.2237058 168.52196 9.6180381 168.375 9.9375 C 168.22799 10.256968 168.13021 10.548285 168.03125 10.84375 C 167.88424 11.13922 167.74796 11.527049 167.625 11.96875 C 167.50199 12.410453 167.43747 12.923569 167.4375 13.5625 C 167.43747 14.546392 168.11012 15.361067 169.4375 16 C 170.76483 16.638927 172.41018 17.097773 174.375 17.34375 L 174.28125 17.46875 C 174.28122 17.567735 174.27471 17.839543 174.25 18.28125 C 174.22522 18.722946 174.1027 19.20205 173.90625 19.71875 C 173.70974 20.235437 173.43143 20.700785 173.0625 21.09375 C 172.69351 21.486699 172.14264 21.687491 171.40625 21.6875 C 170.81528 21.687491 170.03836 21.54471 169.03125 21.25 C 168.02408 20.955274 166.94335 20.683466 165.8125 20.4375 C 164.14166 19.896052 162.41878 19.372693 160.625 18.90625 C 158.83118 18.439795 157.14882 18.218745 155.625 18.21875 C 154.34712 18.218745 153.03234 18.504308 151.65625 19.09375 C 150.28014 19.683179 149.1349 20.886434 148.25 22.65625 C 149.52785 21.820832 150.80137 21.562779 152.03125 21.90625 C 151.39231 22.447682 150.59714 23.133331 149.6875 23.96875 C 148.77784 24.804148 148.14295 25.834121 147.75 27.0625 C 148.5854 26.521045 149.42108 26.157963 150.28125 25.9375 C 151.1414 25.717011 152.00183 25.542979 152.8125 25.46875 C 153.62315 25.394496 154.38056 25.38149 155.09375 25.40625 C 155.80691 25.430985 156.42879 25.437488 156.96875 25.4375 L 157.84375 25.4375 C 158.82762 25.437488 159.8496 25.631027 160.90625 26 C 161.96286 26.368947 163.07111 26.763279 164.25 27.15625 C 165.47834 27.646682 166.70836 28.075028 167.9375 28.46875 C 169.16659 28.862441 170.44086 29.062484 171.71875 29.0625 C 173.43903 29.062484 174.88359 28.674654 176.0625 27.9375 C 177.24134 27.200316 178.14228 26.35888 178.78125 25.375 C 179.42014 26.35888 180.32034 27.200316 181.5 27.9375 C 182.67958 28.674654 184.16765 29.062484 185.9375 29.0625 C 187.21531 29.062484 188.45258 28.862441 189.65625 28.46875 C 190.85982 28.075028 192.08258 27.646682 193.3125 27.15625 C 194.49132 26.66429 195.59956 26.256952 196.65625 25.9375 C 197.71283 25.618022 198.7363 25.437488 199.71875 25.4375 L 200.6875 25.4375 C 201.17939 25.437488 201.78752 25.430985 202.5 25.40625 C 203.21236 25.38149 203.96977 25.394496 204.78125 25.46875 C 205.5926 25.542979 206.42828 25.717011 207.3125 25.9375 C 208.19659 26.157963 209.08378 26.521045 209.96875 27.0625 C 209.52623 25.834121 208.84633 24.804148 207.9375 23.96875 C 207.02853 23.133331 206.21961 22.447682 205.53125 21.90625 C 206.75955 21.562779 208.03457 21.820832 209.3125 22.65625 C 208.42753 20.886434 207.28228 19.683179 205.90625 19.09375 C 204.53009 18.504308 203.2138 18.218745 201.9375 18.21875 C 200.36411 18.218745 198.67525 18.42604 196.90625 18.84375 C 195.13714 19.261448 193.42077 19.741302 191.75 20.28125 C 190.56958 20.626205 189.48309 20.955274 188.5 21.25 C 187.51681 21.54471 186.75865 21.687491 186.21875 21.6875 C 185.53028 21.687491 184.98666 21.486699 184.59375 21.09375 C 184.20075 20.700785 183.91519 20.235437 183.71875 19.71875 C 183.52223 19.20205 183.3932 18.722946 183.34375 18.28125 C 183.29421 17.839543 183.28121 17.567735 183.28125 17.46875 L 183.28125 17.34375 C 185.24749 17.097773 186.95011 16.67668 188.375 16.0625 C 189.7998 15.448314 190.49995 14.595886 190.5 13.5625 C 190.49995 12.923569 190.42168 12.410453 190.25 11.96875 C 190.07822 11.527049 189.92818 11.13922 189.78125 10.84375 C 189.38824 10.254317 189.1432 9.5686681 189.09375 8.78125 C 188.84773 7.7493673 188.69844 6.9129342 188.625 6.25 C 188.55146 5.5870794 188.55871 4.9071835 188.65625 4.21875 L 189.03125 3.5625 C 189.37466 2.9235795 189.79576 2.0566463 190.3125 1 C 190.82914 -0.056622243 191.3525 -1.280135 191.84375 -2.65625 C 192.33489 -4.0323336 192.74949 -5.5029074 193.09375 -7.125 C 193.43791 -8.7470522 193.5937 -10.435913 193.59375 -12.15625 C 193.5937 -13.630563 193.44441 -15.088132 193.125 -16.5625 C 192.80548 -18.036809 192.39814 -19.448109 191.90625 -20.75 C 191.41425 -22.051824 190.86413 -23.231081 190.25 -24.3125 C 189.63577 -25.393844 189.02689 -26.280285 188.4375 -26.96875 C 189.12588 -27.361667 189.66949 -27.898781 190.0625 -28.5625 C 190.45541 -29.226136 190.6562 -29.977048 190.65625 -30.8125 C 190.6562 -31.943332 190.25536 -32.914545 189.46875 -33.75 C 188.68204 -34.585362 187.72308 -34.999952 186.59375 -35 C 185.41333 -34.999952 184.39136 -34.585362 183.53125 -33.75 C 182.67105 -32.914545 182.24996 -31.943332 182.25 -30.8125 C 182.24996 -30.272515 182.33398 -29.793412 182.53125 -29.375 C 182.72844 -28.956503 182.98724 -28.549166 183.28125 -28.15625 C 183.08473 -27.910236 182.88394 -27.696438 182.6875 -27.5 C 182.49098 -27.303481 182.27718 -27.043928 182.03125 -26.75 C 181.73724 -26.946439 181.41317 -27.102976 181.09375 -27.25 C 180.77424 -27.396944 180.48293 -27.570225 180.1875 -27.71875 C 181.26884 -28.504623 181.81246 -29.606362 181.8125 -31.03125 C 181.81246 -32.162082 181.39787 -33.133294 180.5625 -33.96875 C 179.72705 -34.804111 178.72459 -35.218702 177.59375 -35.21875 z M 177.59375 -33.25 C 178.18315 -33.249954 178.70726 -32.997653 179.125 -32.53125 C 179.54267 -32.064755 179.74996 -31.572647 179.75 -31.03125 C 179.74996 -30.344281 179.54267 -29.806417 179.125 -29.4375 C 178.70726 -29.068498 178.18315 -28.874958 177.59375 -28.875 C 177.05377 -28.874958 176.56091 -29.068498 176.09375 -29.4375 C 175.62652 -29.806417 175.40622 -30.344281 175.40625 -31.03125 C 175.40622 -31.572647 175.62652 -32.064755 176.09375 -32.53125 C 176.56091 -32.997653 177.05377 -33.249954 177.59375 -33.25 z M 186.59375 -33 C 187.13364 -32.999954 187.6135 -32.779653 188.03125 -32.3125 C 188.44891 -31.845256 188.6562 -31.352397 188.65625 -30.8125 C 188.6562 -30.223021 188.45541 -29.698912 188.0625 -29.28125 C 187.6695 -28.863503 187.22739 -28.656208 186.6875 -28.65625 C 186.39199 -28.803192 186.06217 -28.874958 185.71875 -28.875 L 185.65625 -28.875 C 184.8208 -29.170426 184.37496 -29.830064 184.375 -30.8125 C 184.37496 -31.352397 184.58225 -31.845256 185 -32.3125 C 185.41766 -32.779653 185.95477 -32.999954 186.59375 -33 z M 185.34375 -26.90625 C 185.49069 -26.759226 185.75024 -26.68746 186.09375 -26.6875 C 186.43867 -26.391993 186.91702 -25.783863 187.53125 -24.875 C 188.14539 -23.966062 188.72302 -22.865073 189.3125 -21.5625 C 189.90189 -20.259858 190.4325 -18.777542 190.875 -17.15625 C 191.3174 -15.534897 191.5312 -13.876536 191.53125 -12.15625 C 191.5312 -10.533402 191.38842 -8.9540601 191.09375 -7.40625 C 190.79898 -5.858399 190.38364 -4.4340939 189.84375 -3.15625 C 189.94119 -4.2871099 190.01296 -5.4656174 190.0625 -6.71875 C 190.11194 -7.971843 190.12495 -9.3251322 190.125 -10.75 C 190.12495 -11.634879 189.97567 -12.722113 189.65625 -14 C 189.33674 -15.277833 188.90914 -16.586117 188.34375 -17.9375 C 187.77826 -19.288821 187.09187 -20.597105 186.28125 -21.875 C 185.47054 -23.152825 184.53184 -24.298819 183.5 -25.28125 C 183.9904 -25.872147 184.33473 -26.272232 184.53125 -26.46875 C 184.72768 -26.665189 184.99874 -26.808721 185.34375 -26.90625 z M 177.59375 -26.21875 C 178.97056 -26.218711 180.31585 -25.641081 181.59375 -24.4375 C 182.87157 -23.233844 183.98631 -21.796534 184.96875 -20.125 C 185.9511 -18.4534 186.74702 -16.744281 187.3125 -15 C 187.87789 -13.255663 188.1562 -11.831358 188.15625 -10.75 C 188.1562 -7.2613582 188.02067 -4.3859872 187.75 -2.125 C 187.47923 0.1360176 187.27194 1.4508042 187.125 1.84375 C 186.04357 1.4508042 184.69754 1.1782459 183.125 1.03125 C 181.55238 0.88427811 180.12157 0.81251224 178.84375 0.8125 C 176.82943 0.81251224 175.17107 0.92853346 173.84375 1.125 C 172.51636 1.3214904 171.47338 1.5497934 170.6875 1.84375 C 170.4415 1.2543258 170.19645 0.69045102 170 0.125 C 169.80349 -0.44042514 169.53093 -0.99129453 169.1875 -1.53125 C 168.49905 -2.8090955 167.87791 -4.3044166 167.3125 -6 C 166.74704 -7.6955453 166.46872 -9.8910203 166.46875 -12.59375 C 166.46872 -13.528122 166.79854 -14.76464 167.4375 -16.3125 C 168.0764 -17.860301 168.90558 -19.369378 169.9375 -20.84375 C 170.96936 -22.318055 172.14136 -23.599578 173.46875 -24.65625 C 174.79607 -25.712847 176.16887 -26.218711 177.59375 -26.21875 z M 174.875 -23.21875 L 174.875 -16.875 L 170.90625 -16.875 L 170.90625 -12.15625 L 174.875 -12.15625 L 174.875 -3.75 L 179.53125 -3.75 L 179.53125 -12.15625 L 183.65625 -12.15625 L 183.65625 -16.875 L 179.53125 -16.875 L 179.53125 -23.21875 L 178.78125 -23.21875 L 174.875 -23.21875 z M 176.5 -21.71875 L 177.96875 -21.71875 L 177.96875 -15.3125 L 182.03125 -15.3125 L 182.03125 -13.625 L 177.96875 -13.625 L 177.96875 -5.28125 L 176.5 -5.28125 L 176.5 -13.625 L 172.4375 -13.625 L 172.4375 -15.3125 L 176.5 -15.3125 L 176.5 -21.71875 z M 178.78125 2.53125 C 181.23944 2.727739 183.09059 2.9480395 184.34375 3.21875 C 185.59682 3.4894802 186.39199 3.754036 186.6875 4 C 186.63796 4.1964876 186.5937 4.4247905 186.59375 4.71875 C 186.5937 4.9647314 186.5937 5.2357899 186.59375 5.53125 C 185.51232 5.1862953 184.2758 4.9014816 182.875 4.65625 C 181.47411 4.4110353 180.12157 4.2812588 178.84375 4.28125 C 177.66484 4.2812588 176.36306 4.4110353 174.9375 4.65625 C 173.51187 4.9014816 172.32611 5.1862953 171.34375 5.53125 C 171.34372 5.2357899 171.29946 4.9574788 171.25 4.6875 C 171.20047 4.4175379 171.18747 4.1964876 171.1875 4 C 171.43344 3.754036 172.17785 3.4894802 173.40625 3.21875 C 174.63458 2.9480395 176.42197 2.727739 178.78125 2.53125 z M 177.59375 5.90625 C 177.34774 6.3967034 177.07593 6.7410276 176.78125 6.9375 C 176.4865 7.1339846 176.11691 7.2630112 175.625 7.3125 L 175.625 8.40625 C 176.11691 8.503744 176.4865 8.6270178 176.78125 8.75 C 177.07593 8.8729908 177.34774 9.079536 177.59375 9.375 C 176.61132 9.4229984 175.63936 9.4955142 174.65625 9.59375 C 173.67307 9.6919927 172.77288 9.8790299 171.9375 10.125 C 172.33043 9.8310351 172.70076 9.5584768 173.09375 9.3125 C 173.48667 9.0665307 173.88676 8.8802434 174.28125 8.78125 L 173.90625 7.75 C 173.1683 7.8969892 172.55441 7.7549573 172.0625 7.3125 C 173.09586 6.8205596 174.9405 6.3472089 177.59375 5.90625 z M 178.84375 5.90625 C 179.13918 6.3967034 179.40374 6.7990382 179.625 7.09375 C 179.84619 7.3884737 180.1695 7.6602821 180.5625 7.90625 C 180.1695 8.0547389 179.84619 8.2547814 179.625 8.5 C 179.40374 8.7452277 179.13918 9.0300415 178.84375 9.375 C 178.30377 8.6370845 177.7914 8.1522282 177.25 7.90625 C 177.54543 7.6602821 177.82374 7.3884737 178.09375 7.09375 C 178.36368 6.7990382 178.59774 6.3967034 178.84375 5.90625 z M 180.1875 5.90625 C 181.46532 6.200225 182.57281 6.4597779 183.53125 6.65625 C 184.4896 6.8527349 185.28552 7.0665327 185.875 7.3125 C 185.23602 7.7549573 184.56338 7.8969892 183.875 7.75 L 183.65625 8.78125 C 183.95167 8.8802434 184.2945 9.0665307 184.6875 9.3125 C 185.08041 9.5584768 185.482 9.8440405 185.875 10.1875 C 185.03955 9.9415298 184.1081 9.74799 183.125 9.625 C 182.14181 9.5020169 181.16985 9.4229984 180.1875 9.375 C 180.43343 9.079536 180.71174 8.8729908 181.03125 8.75 C 181.35067 8.6270178 181.74501 8.503744 182.1875 8.40625 L 182.1875 7.3125 C 181.74501 7.2630112 181.35067 7.1339846 181.03125 6.9375 C 180.71174 6.7410276 180.43343 6.3967034 180.1875 5.90625 z M 170.96875 7.96875 C 171.50866 8.2642227 171.98051 8.4780205 172.375 8.625 C 171.83353 8.8709775 171.20514 9.3885836 170.46875 10.125 C 170.6157 9.7815406 170.68747 9.5219876 170.6875 9.375 C 170.73696 9.079536 170.76372 8.8592356 170.8125 8.6875 C 170.86121 8.5157732 170.91922 8.3084781 170.96875 8.0625 L 170.96875 7.96875 z M 186.8125 7.96875 L 186.8125 8.0625 C 186.81245 8.3084781 186.81896 8.5157732 186.84375 8.6875 C 186.86845 8.8592356 186.91921 9.079536 186.96875 9.375 C 187.11569 9.5219876 187.18745 9.7815406 187.1875 10.125 C 186.99097 9.7815406 186.72567 9.4647269 186.40625 9.21875 C 186.08674 8.9727808 185.75117 8.7719883 185.40625 8.625 C 185.89815 8.4780205 186.37 8.2642227 186.8125 7.96875 z M 178.84375 11.0625 C 181.98887 11.062502 184.36488 11.398824 185.9375 12.0625 C 187.51003 12.726178 188.33846 13.219037 188.4375 13.5625 C 188.33846 13.808473 187.51003 14.21581 185.9375 14.78125 C 184.36488 15.346686 181.98887 15.656247 178.84375 15.65625 C 175.74805 15.656247 173.4548 15.346686 171.90625 14.78125 C 170.35764 14.21581 169.53496 13.808473 169.4375 13.5625 C 169.53496 13.219037 170.35764 12.726178 171.90625 12.0625 C 173.4548 11.398824 175.74805 11.062502 178.84375 11.0625 z M 176.28125 17.40625 C 176.77316 17.45574 177.20076 17.468746 177.59375 17.46875 L 178.84375 17.46875 L 180.125 17.46875 C 180.51792 17.468746 180.94551 17.45574 181.4375 17.40625 C 181.43746 19.077063 181.83179 20.527379 182.59375 21.78125 C 183.35562 23.035104 184.54789 23.687489 186.21875 23.6875 C 186.90713 23.687489 187.78056 23.55196 188.8125 23.28125 C 189.84434 23.010519 191.00334 22.674198 192.28125 22.28125 C 193.90252 21.7413 195.55438 21.262196 197.25 20.84375 C 198.94551 20.425288 200.51109 20.218743 201.9375 20.21875 C 202.37839 20.218743 202.74297 20.225246 203.0625 20.25 C 203.3819 20.27474 203.71747 20.338503 204.0625 20.4375 C 203.473 20.534982 203.00115 20.619753 202.65625 20.71875 L 201.125 21.90625 L 203.03125 22.71875 C 203.57113 22.81623 204.24377 23.217815 205.03125 23.90625 C 204.19578 23.660266 203.43186 23.517484 202.71875 23.46875 C 202.00552 23.419995 201.28061 23.37499 200.59375 23.375 L 199.71875 23.375 C 198.49033 23.37499 197.27332 23.582285 196.09375 24 C 194.91407 24.417693 193.74132 24.884541 192.5625 25.375 C 191.43157 25.767945 190.32408 26.131027 189.21875 26.5 C 188.11332 26.868946 187.01884 27.062486 185.9375 27.0625 C 184.95356 27.062486 184.06712 26.913201 183.28125 26.59375 C 182.49529 26.274271 181.85965 25.866184 181.34375 25.375 C 180.82777 24.883791 180.42693 24.346677 180.15625 23.78125 C 179.88549 23.215801 179.74996 22.679437 179.75 22.1875 L 177.75 22.1875 C 177.74996 22.679437 177.61443 23.215801 177.34375 23.78125 C 177.07299 24.346677 176.67216 24.883791 176.15625 25.375 C 175.64027 25.866184 175.01839 26.274271 174.28125 26.59375 C 173.54405 26.913201 172.70111 27.062486 171.71875 27.0625 C 170.68683 27.062486 169.5931 26.868946 168.4375 26.5 C 167.28185 26.131027 166.12935 25.767945 165 25.375 C 163.8196 24.884541 162.64835 24.417693 161.46875 24 C 160.28911 23.582285 159.0721 23.37499 157.84375 23.375 L 156.96875 23.375 C 156.28031 23.37499 155.58741 23.419995 154.875 23.46875 C 154.16256 23.517484 153.36665 23.660266 152.53125 23.90625 C 152.92419 23.562777 153.30552 23.297471 153.625 23.125 C 153.94445 22.952509 154.23577 22.81623 154.53125 22.71875 L 156.4375 21.90625 L 154.90625 20.8125 C 154.66026 20.762998 154.40871 20.698484 154.1875 20.625 C 153.96626 20.5515 153.74596 20.486987 153.5 20.4375 C 154.13892 20.289009 154.83907 20.218743 155.625 20.21875 C 157.00183 20.218743 158.56167 20.425288 160.28125 20.84375 C 162.00079 21.262196 163.6584 21.7413 165.28125 22.28125 C 166.55909 22.674198 167.72459 23.010519 168.78125 23.28125 C 169.83786 23.55196 170.71779 23.687489 171.40625 23.6875 C 172.24163 23.687489 172.97953 23.500452 173.59375 23.15625 C 174.2079 22.812028 174.70076 22.340177 175.09375 21.75 C 175.48667 21.159806 175.77224 20.518413 175.96875 19.78125 C 176.16519 19.044074 176.28121 18.241654 176.28125 17.40625 z "
         inkscape:radius="1.5"
         sodipodi:type="inkscape:offset" />
      <path
         transform="translate(1.0526263,31.115708)"
         d="m 177.59375,-36.71875 c -1.49747,6.4e-5 -2.92905,0.61656 -4,1.6875 -1.07099,1.07101 -1.68754,2.502521 -1.6875,4 -4e-5,0.893757 0.19649,1.778502 0.625,2.5625 0.0576,0.105503 0.15561,0.179847 0.21875,0.28125 -0.98371,0.584659 -1.96507,1.263338 -2.84375,2.125 -1.34881,1.322697 -2.5106,2.742393 -3.53125,4.3125 -1.01419,1.560165 -1.83223,3.145255 -2.4375,4.75 -0.6023,1.596773 -0.96878,3.038602 -0.96875,4.40625 -2e-5,3.0605575 0.34399,5.6155672 1.0625,7.6875 0.62941,1.8151786 1.27514,3.3560372 1.96875,4.71875 0.0323,0.0634272 0.0614,0.15627361 0.0937,0.21875 0.19668,0.56422807 0.40559,1.1190473 0.6875,1.65625 0.21837,0.4162319 0.41203,0.873437 0.53125,1.3125 a 1.50015,1.50015 0 0 0 0.0312,0.09375 c 0.17238,0.4738062 0.2893,0.8727206 0.34375,1.21875 0.0664,0.4225197 0.0937,0.8301562 0.0937,1.15625 -2e-5,0.326116 -0.0551,0.7665976 -0.125,1.28125 -0.0607,0.4462268 -0.16207,0.9897368 -0.34375,1.625 a 1.50015,1.50015 0 0 0 -0.0312,0.09375 C 167.20139,8.8255744 167.0904,9.1159839 167,9.3125 c -0.18618,0.4045945 -0.30709,0.766431 -0.40625,1.0625 l 0.0312,0 c -0.17276,0.380866 -0.31734,0.755867 -0.4375,1.1875 -0.16719,0.600339 -0.25003,1.26005 -0.25,2 -5e-5,1.66758 1.24583,3.012091 2.84375,3.78125 1.09244,0.52586 2.51096,0.812145 3.90625,1.09375 -0.0339,0.210798 -0.067,0.433168 -0.1875,0.75 -0.13561,0.356553 -0.30913,0.638406 -0.53125,0.875 -0.0336,0.03575 -0.0988,0.124994 -0.5625,0.125 -0.34939,-5e-6 -1.03587,-0.102013 -1.96875,-0.375 -0.99748,-0.29189 -2.05338,-0.569273 -3.15625,-0.8125 -0.0488,-0.0158 -0.10738,-0.01547 -0.15625,-0.03125 -1.64362,-0.530613 -3.34603,-1.037409 -5.125,-1.5 -1.90319,-0.494895 -3.70611,-0.750005 -5.375,-0.75 -1.50135,-6e-6 -3.02971,0.343438 -4.5625,1 -1.77839,0.761738 -3.16146,2.291646 -4.15625,4.28125 a 1.50015,1.50015 0 0 0 0.78125,2.0625 c -0.57213,0.773045 -1.07499,1.593398 -1.375,2.53125 a 1.50015,1.50015 0 0 0 2.25,1.71875 c 0.7091,-0.459595 1.39092,-0.757365 2.09375,-0.9375 0.81098,-0.207885 1.58661,-0.342645 2.28125,-0.40625 0.74198,-0.06796 1.43557,-0.08535 2.09375,-0.0625 0.73425,0.02547 1.38552,0.03124 1.9375,0.03125 l 0.875,0 c 0.78715,-10e-6 1.63592,0.145196 2.5625,0.46875 1.02174,0.356769 2.1217,0.768399 3.28125,1.15625 0.0329,0.01102 0.0607,0.02023 0.0937,0.03125 1.23774,0.491091 2.46508,0.920932 3.6875,1.3125 1.37534,0.440537 2.81558,0.656232 4.25,0.65625 1.94572,-1.8e-5 3.67958,-0.439954 5.125,-1.34375 0.72276,-0.451975 1.369,-0.973837 1.9375,-1.53125 0.56846,0.557508 1.21406,1.079163 1.9375,1.53125 1.45986,0.912306 3.22978,1.343732 5.21875,1.34375 1.43435,-1.8e-5 2.83786,-0.214815 4.1875,-0.65625 1.22379,-0.400337 2.48148,-0.837928 3.75,-1.34375 a 1.50015,1.50015 0 0 0 0,-0.03125 c 1.14204,-0.47661 2.22207,-0.85494 3.21875,-1.15625 0.94956,-0.287118 1.82632,-0.43751 2.625,-0.4375 l 0.96875,0 c 0.50508,-1.2e-5 1.14205,-0.0058 1.875,-0.03125 0.65725,-0.02284 1.35079,-0.0055 2.09375,0.0625 0.69258,0.06336 1.43252,0.225861 2.28125,0.4375 0.73753,0.183915 1.49108,0.473169 2.25,0.9375 a 1.50015,1.50015 0 0 0 2.1875,-1.78125 c -0.33743,-0.936659 -0.85265,-1.770579 -1.4375,-2.53125 A 1.50015,1.50015 0 0 0 210.65625,22 c -0.99486,-1.989578 -2.37795,-3.519505 -4.15625,-4.28125 -1.5332,-0.656706 -3.06245,-1.000006 -4.5625,-1 -1.70514,-5e-6 -3.50621,0.214977 -5.375,0.65625 -1.78813,0.422188 -3.52717,0.92374 -5.21875,1.46875 -0.0188,0.0061 -0.0437,-0.0061 -0.0625,0 l 0,0.03125 c -1.1613,0.339818 -2.25836,0.649578 -3.21875,0.9375 -0.90767,0.272074 -1.56828,0.374995 -1.84375,0.375 -0.39683,-5e-6 -0.47808,-0.07182 -0.5625,-0.15625 -0.23121,-0.231193 -0.40009,-0.498778 -0.53125,-0.84375 -0.11121,-0.292391 -0.13937,-0.495502 -0.1875,-0.71875 1.42537,-0.265793 2.86222,-0.527357 4.03125,-1.03125 1.72407,-0.743193 3.03117,-2.164124 3.03125,-3.875 -6e-5,-0.76137 -0.0857,-1.461171 -0.34375,-2.125 -0.17122,-0.440255 -0.33259,-0.850499 -0.53125,-1.25 A 1.50015,1.50015 0 0 0 191.03125,10 c -0.25481,-0.3821584 -0.40406,-0.7800825 -0.4375,-1.3125 a 1.50015,1.50015 0 0 0 -0.0312,-0.25 c -0.23536,-0.9871668 -0.37335,-1.76469 -0.4375,-2.34375 -0.052,-0.4691189 -0.0211,-0.9514419 0.0312,-1.4375 l 0.1875,-0.34375 a 1.50015,1.50015 0 0 0 0,-0.03125 c 0.3692,-0.6869072 0.79672,-1.5703181 1.3125,-2.625 0.54176,-1.10800408 1.08374,-2.38382483 1.59375,-3.8125 0.51503,-1.4430231 0.95569,-2.9750101 1.3125,-4.65625 0.36896,-1.7389405 0.5312,-3.532884 0.53125,-5.34375 -5e-5,-1.57554 -0.15775,-3.138973 -0.5,-4.71875 -0.33344,-1.538559 -0.75945,-3.025204 -1.28125,-4.40625 -0.51682,-1.367491 -1.09458,-2.62713 -1.75,-3.78125 -0.39617,-0.697452 -0.81652,-1.187475 -1.21875,-1.75 0.33193,-0.338602 0.75828,-0.591775 1,-1 0.53149,-0.897699 0.81244,-1.924265 0.8125,-3 -7e-5,-1.485259 -0.58376,-2.896041 -1.59375,-3.96875 -1.03399,-1.097929 -2.47234,-1.718686 -3.96875,-1.71875 -1.53161,6.2e-5 -2.98558,0.611218 -4.09375,1.6875 -0.1595,0.154914 -0.23558,0.361722 -0.375,0.53125 -0.17824,-0.243639 -0.28333,-0.533312 -0.5,-0.75 -1.08422,-1.084109 -2.53383,-1.687436 -4.03125,-1.6875 z m 0,4.96875 c 0.16141,1.3e-5 0.22515,0.01655 0.40625,0.21875 0.2325,0.259675 0.24999,0.341416 0.25,0.5 -2e-5,0.385269 -0.065,0.415709 -0.125,0.46875 -0.14622,0.129163 -0.27028,0.187519 -0.53125,0.1875 -0.18149,1.4e-5 -0.29784,-0.04095 -0.5625,-0.25 -0.0907,-0.0716 -0.12502,-0.04 -0.125,-0.40625 -1e-5,-0.134436 -0.0108,-0.177106 0.25,-0.4375 0.28526,-0.284802 0.36468,-0.281244 0.4375,-0.28125 z m 9,0.25 c 0.13192,1.1e-5 0.11902,-0.02886 0.3125,0.1875 0.23272,0.260347 0.24999,0.343962 0.25,0.5 -2e-5,0.248932 -0.0489,0.352722 -0.1875,0.5 -0.17799,0.189201 -0.12538,0.156262 -0.28125,0.15625 -0.17887,-0.04846 -0.34971,-0.103846 -0.53125,-0.125 -0.33193,-0.117375 -0.28127,-0.0027 -0.28125,-0.53125 -1e-5,-0.155886 0.0172,-0.239678 0.25,-0.5 0.14794,-0.165475 0.17448,-0.187479 0.46875,-0.1875 z m -5.5625,8.75 c 0.95368,0.987666 1.87265,2.04178 2.65625,3.375 0.21165,0.360156 0.30793,0.731678 0.5,1.09375 a 1.50015,1.50015 0 0 0 -0.53125,-0.09375 l -2.625,0 0,-4.375 z m -7.65625,0.40625 0,3.96875 -2.46875,0 a 1.50015,1.50015 0 0 0 -0.71875,0.1875 c 0.34006,-0.592171 0.56011,-1.197402 0.96875,-1.78125 0.6533,-0.933419 1.45536,-1.631849 2.21875,-2.375 z m -3.96875,5.53125 0,4.65625 a 1.50015,1.50015 0 0 0 1.5,1.5 l 2.46875,0 0,6.90625 a 1.50015,1.50015 0 0 0 1.5,1.5 l 4.65625,0 a 1.50015,1.50015 0 0 0 1.5,-1.5 l 0,-6.90625 2.625,0 a 1.50015,1.50015 0 0 0 1.5,-1.5 l 0,-3.96875 c 0.21995,0.531319 0.54546,1.059221 0.71875,1.59375 0.53606,1.653854 0.78121,2.957202 0.78125,3.78125 -5e-5,3.4498047 -0.1464,6.2668639 -0.40625,8.4375 -0.1229,1.0262678 -0.21876,1.79104054 -0.3125,2.40625 -0.86675,-0.20305132 -1.6645,-0.46687292 -2.6875,-0.5625 -1.6115,-0.15060588 -3.07228,-0.21873722 -4.40625,-0.21875 -2.07191,1.259e-5 -3.79703,0.13330999 -5.21875,0.34375 -0.80983,0.11987659 -1.37999,0.30913693 -2.03125,0.46875 -0.0611,-0.15632443 -0.13625,-0.35249441 -0.1875,-0.5 -0.2278,-0.6554505 -0.53188,-1.2741183 -0.90625,-1.875 -0.0137,-0.025452 -0.0176,-0.068076 -0.0312,-0.09375 -0.61985,-1.1639826 -1.18567,-2.5263614 -1.71875,-4.125 -0.48925,-1.467029 -0.78128,-3.5252567 -0.78125,-6.125 -2e-5,-0.581344 0.24283,-1.700546 0.84375,-3.15625 0.15017,-0.363814 0.42051,-0.702516 0.59375,-1.0625 z m 9.4375,29.375 c 2.98147,2e-6 5.15198,0.335842 6.40625,0.84375 -1.30464,0.435768 -3.4673,0.749997 -6.40625,0.75 -2.88732,-3e-6 -4.96739,-0.314471 -6.25,-0.75 1.23509,-0.508232 3.32005,-0.843748 6.25,-0.84375 z m -1.28125,6.40625 c 0.009,1.3e-5 0.0222,0 0.0312,0 l 1.25,0 1.28125,0 c 0.10277,0.700645 0.29198,1.360364 0.53125,2 A 1.50015,1.50015 0 0 0 179.75,20.6875 l -2,0 a 1.50015,1.50015 0 0 0 -0.625,0.15625 c 0.0846,-0.233974 0.21593,-0.442458 0.28125,-0.6875 0.0985,-0.369779 0.0959,-0.792798 0.15625,-1.1875 z m 3.8125,3.65625 c 1.01262,1.603527 2.81462,2.562487 4.84375,2.5625 0.88524,-1.4e-5 1.85473,-0.176507 2.96875,-0.46875 1.0601,-0.278147 2.23963,-0.602836 3.53125,-1 -0.21751,0.08872 -0.43915,0.159815 -0.65625,0.25 -0.0215,0.0089 -0.041,0.0223 -0.0625,0.03125 -1.09213,0.378638 -2.16158,0.69917 -3.25,1.0625 -0.97282,0.324687 -1.91013,0.499988 -2.8125,0.5 -0.83223,-1.2e-5 -1.52138,-0.111087 -2.09375,-0.34375 -0.63452,-0.257922 -1.09799,-0.584498 -1.46875,-0.9375 -0.40146,-0.382191 -0.69361,-0.777334 -0.875,-1.15625 -0.10378,-0.216725 -0.0853,-0.334917 -0.125,-0.5 z m -5.3125,0.21875 c -0.0366,0.105361 -0.005,0.160168 -0.0625,0.28125 -0.18152,0.379059 -0.47357,0.774037 -0.875,1.15625 -0.38055,0.362262 -0.84556,0.68095 -1.4375,0.9375 -0.51087,0.221376 -1.13834,0.343738 -1.96875,0.34375 -0.84438,-1.1e-5 -1.77334,-0.168231 -2.8125,-0.5 -1.13693,-0.362995 -2.26246,-0.687673 -3.34375,-1.0625 -0.0215,-0.0089 -0.041,-0.02232 -0.0625,-0.03125 -0.21721,-0.09012 -0.43875,-0.161329 -0.65625,-0.25 1.29293,0.397588 2.4734,0.720958 3.5625,1 1.13397,0.290529 2.1147,0.468736 3,0.46875 1.05926,-1.4e-5 2.04725,-0.237374 2.90625,-0.71875 0.71321,-0.399744 1.27025,-0.991284 1.75,-1.625 z"
         id="path3665"
         style="font-size:73.72000122px;font-style:normal;font-variant:normal;font-weight:normal;font-stretch:normal;line-height:125%;letter-spacing:0px;word-spacing:0px;fill:#ffffff;fill-opacity:1;stroke:none;font-family:DiagramTTOldstyle;-inkscape-font-specification:DiagramTTOldstyle"
         inkscape:original="M 177.59375 -35.21875 C 176.46284 -35.218702 175.49162 -34.804111 174.65625 -33.96875 C 173.82081 -33.133294 173.40622 -32.162082 173.40625 -31.03125 C 173.40622 -30.344281 173.54825 -29.728149 173.84375 -29.1875 C 174.13918 -28.646767 174.54077 -28.161161 175.03125 -27.71875 C 173.60637 -27.177269 172.24658 -26.253075 170.96875 -25 C 169.69086 -23.746849 168.58337 -22.411805 167.625 -20.9375 C 166.66658 -19.463127 165.90916 -17.967806 165.34375 -16.46875 C 164.77829 -14.969635 164.46873 -13.675106 164.46875 -12.59375 C 164.46873 -9.6450472 164.79854 -7.2487798 165.4375 -5.40625 C 166.07641 -3.5636833 166.74905 -1.9835909 167.4375 -0.65625 C 167.63395 -0.066800832 167.85425 0.48406855 168.125 1 C 168.39569 1.5159556 168.60299 2.0523198 168.75 2.59375 C 168.94645 3.1337013 169.08273 3.6265601 169.15625 4.09375 C 169.22971 4.5609578 169.28122 5.026306 169.28125 5.46875 C 169.28122 5.9112091 169.22971 6.3968153 169.15625 6.9375 C 169.08273 7.4781969 168.94645 8.0943295 168.75 8.78125 C 168.65098 9.2237058 168.52196 9.6180381 168.375 9.9375 C 168.22799 10.256968 168.13021 10.548285 168.03125 10.84375 C 167.88424 11.13922 167.74796 11.527049 167.625 11.96875 C 167.50199 12.410453 167.43747 12.923569 167.4375 13.5625 C 167.43747 14.546392 168.11012 15.361067 169.4375 16 C 170.76483 16.638927 172.41018 17.097773 174.375 17.34375 L 174.28125 17.46875 C 174.28122 17.567735 174.27471 17.839543 174.25 18.28125 C 174.22522 18.722946 174.1027 19.20205 173.90625 19.71875 C 173.70974 20.235437 173.43143 20.700785 173.0625 21.09375 C 172.69351 21.486699 172.14264 21.687491 171.40625 21.6875 C 170.81528 21.687491 170.03836 21.54471 169.03125 21.25 C 168.02408 20.955274 166.94335 20.683466 165.8125 20.4375 C 164.14166 19.896052 162.41878 19.372693 160.625 18.90625 C 158.83118 18.439795 157.14882 18.218745 155.625 18.21875 C 154.34712 18.218745 153.03234 18.504308 151.65625 19.09375 C 150.28014 19.683179 149.1349 20.886434 148.25 22.65625 C 149.52785 21.820832 150.80137 21.562779 152.03125 21.90625 C 151.39231 22.447682 150.59714 23.133331 149.6875 23.96875 C 148.77784 24.804148 148.14295 25.834121 147.75 27.0625 C 148.5854 26.521045 149.42108 26.157963 150.28125 25.9375 C 151.1414 25.717011 152.00183 25.542979 152.8125 25.46875 C 153.62315 25.394496 154.38056 25.38149 155.09375 25.40625 C 155.80691 25.430985 156.42879 25.437488 156.96875 25.4375 L 157.84375 25.4375 C 158.82762 25.437488 159.8496 25.631027 160.90625 26 C 161.96286 26.368947 163.07111 26.763279 164.25 27.15625 C 165.47834 27.646682 166.70836 28.075028 167.9375 28.46875 C 169.16659 28.862441 170.44086 29.062484 171.71875 29.0625 C 173.43903 29.062484 174.88359 28.674654 176.0625 27.9375 C 177.24134 27.200316 178.14228 26.35888 178.78125 25.375 C 179.42014 26.35888 180.32034 27.200316 181.5 27.9375 C 182.67958 28.674654 184.16765 29.062484 185.9375 29.0625 C 187.21531 29.062484 188.45258 28.862441 189.65625 28.46875 C 190.85982 28.075028 192.08258 27.646682 193.3125 27.15625 C 194.49132 26.66429 195.59956 26.256952 196.65625 25.9375 C 197.71283 25.618022 198.7363 25.437488 199.71875 25.4375 L 200.6875 25.4375 C 201.17939 25.437488 201.78752 25.430985 202.5 25.40625 C 203.21236 25.38149 203.96977 25.394496 204.78125 25.46875 C 205.5926 25.542979 206.42828 25.717011 207.3125 25.9375 C 208.19659 26.157963 209.08378 26.521045 209.96875 27.0625 C 209.52623 25.834121 208.84633 24.804148 207.9375 23.96875 C 207.02853 23.133331 206.21961 22.447682 205.53125 21.90625 C 206.75955 21.562779 208.03457 21.820832 209.3125 22.65625 C 208.42753 20.886434 207.28228 19.683179 205.90625 19.09375 C 204.53009 18.504308 203.2138 18.218745 201.9375 18.21875 C 200.36411 18.218745 198.67525 18.42604 196.90625 18.84375 C 195.13714 19.261448 193.42077 19.741302 191.75 20.28125 C 190.56958 20.626205 189.48309 20.955274 188.5 21.25 C 187.51681 21.54471 186.75865 21.687491 186.21875 21.6875 C 185.53028 21.687491 184.98666 21.486699 184.59375 21.09375 C 184.20075 20.700785 183.91519 20.235437 183.71875 19.71875 C 183.52223 19.20205 183.3932 18.722946 183.34375 18.28125 C 183.29421 17.839543 183.28121 17.567735 183.28125 17.46875 L 183.28125 17.34375 C 185.24749 17.097773 186.95011 16.67668 188.375 16.0625 C 189.7998 15.448314 190.49995 14.595886 190.5 13.5625 C 190.49995 12.923569 190.42168 12.410453 190.25 11.96875 C 190.07822 11.527049 189.92818 11.13922 189.78125 10.84375 C 189.38824 10.254317 189.1432 9.5686681 189.09375 8.78125 C 188.84773 7.7493673 188.69844 6.9129342 188.625 6.25 C 188.55146 5.5870794 188.55871 4.9071835 188.65625 4.21875 L 189.03125 3.5625 C 189.37466 2.9235795 189.79576 2.0566463 190.3125 1 C 190.82914 -0.056622243 191.3525 -1.280135 191.84375 -2.65625 C 192.33489 -4.0323336 192.74949 -5.5029074 193.09375 -7.125 C 193.43791 -8.7470522 193.5937 -10.435913 193.59375 -12.15625 C 193.5937 -13.630563 193.44441 -15.088132 193.125 -16.5625 C 192.80548 -18.036809 192.39814 -19.448109 191.90625 -20.75 C 191.41425 -22.051824 190.86413 -23.231081 190.25 -24.3125 C 189.63577 -25.393844 189.02689 -26.280285 188.4375 -26.96875 C 189.12588 -27.361667 189.66949 -27.898781 190.0625 -28.5625 C 190.45541 -29.226136 190.6562 -29.977048 190.65625 -30.8125 C 190.6562 -31.943332 190.25536 -32.914545 189.46875 -33.75 C 188.68204 -34.585362 187.72308 -34.999952 186.59375 -35 C 185.41333 -34.999952 184.39136 -34.585362 183.53125 -33.75 C 182.67105 -32.914545 182.24996 -31.943332 182.25 -30.8125 C 182.24996 -30.272515 182.33398 -29.793412 182.53125 -29.375 C 182.72844 -28.956503 182.98724 -28.549166 183.28125 -28.15625 C 183.08473 -27.910236 182.88394 -27.696438 182.6875 -27.5 C 182.49098 -27.303481 182.27718 -27.043928 182.03125 -26.75 C 181.73724 -26.946439 181.41317 -27.102976 181.09375 -27.25 C 180.77424 -27.396944 180.48293 -27.570225 180.1875 -27.71875 C 181.26884 -28.504623 181.81246 -29.606362 181.8125 -31.03125 C 181.81246 -32.162082 181.39787 -33.133294 180.5625 -33.96875 C 179.72705 -34.804111 178.72459 -35.218702 177.59375 -35.21875 z M 177.59375 -33.25 C 178.18315 -33.249954 178.70726 -32.997653 179.125 -32.53125 C 179.54267 -32.064755 179.74996 -31.572647 179.75 -31.03125 C 179.74996 -30.344281 179.54267 -29.806417 179.125 -29.4375 C 178.70726 -29.068498 178.18315 -28.874958 177.59375 -28.875 C 177.05377 -28.874958 176.56091 -29.068498 176.09375 -29.4375 C 175.62652 -29.806417 175.40622 -30.344281 175.40625 -31.03125 C 175.40622 -31.572647 175.62652 -32.064755 176.09375 -32.53125 C 176.56091 -32.997653 177.05377 -33.249954 177.59375 -33.25 z M 186.59375 -33 C 187.13364 -32.999954 187.6135 -32.779653 188.03125 -32.3125 C 188.44891 -31.845256 188.6562 -31.352397 188.65625 -30.8125 C 188.6562 -30.223021 188.45541 -29.698912 188.0625 -29.28125 C 187.6695 -28.863503 187.22739 -28.656208 186.6875 -28.65625 C 186.39199 -28.803192 186.06217 -28.874958 185.71875 -28.875 L 185.65625 -28.875 C 184.8208 -29.170426 184.37496 -29.830064 184.375 -30.8125 C 184.37496 -31.352397 184.58225 -31.845256 185 -32.3125 C 185.41766 -32.779653 185.95477 -32.999954 186.59375 -33 z M 185.34375 -26.90625 C 185.49069 -26.759226 185.75024 -26.68746 186.09375 -26.6875 C 186.43867 -26.391993 186.91702 -25.783863 187.53125 -24.875 C 188.14539 -23.966062 188.72302 -22.865073 189.3125 -21.5625 C 189.90189 -20.259858 190.4325 -18.777542 190.875 -17.15625 C 191.3174 -15.534897 191.5312 -13.876536 191.53125 -12.15625 C 191.5312 -10.533402 191.38842 -8.9540601 191.09375 -7.40625 C 190.79898 -5.858399 190.38364 -4.4340939 189.84375 -3.15625 C 189.94119 -4.2871099 190.01296 -5.4656174 190.0625 -6.71875 C 190.11194 -7.971843 190.12495 -9.3251322 190.125 -10.75 C 190.12495 -11.634879 189.97567 -12.722113 189.65625 -14 C 189.33674 -15.277833 188.90914 -16.586117 188.34375 -17.9375 C 187.77826 -19.288821 187.09187 -20.597105 186.28125 -21.875 C 185.47054 -23.152825 184.53184 -24.298819 183.5 -25.28125 C 183.9904 -25.872147 184.33473 -26.272232 184.53125 -26.46875 C 184.72768 -26.665189 184.99874 -26.808721 185.34375 -26.90625 z M 177.59375 -26.21875 C 178.97056 -26.218711 180.31585 -25.641081 181.59375 -24.4375 C 182.87157 -23.233844 183.98631 -21.796534 184.96875 -20.125 C 185.9511 -18.4534 186.74702 -16.744281 187.3125 -15 C 187.87789 -13.255663 188.1562 -11.831358 188.15625 -10.75 C 188.1562 -7.2613582 188.02067 -4.3859872 187.75 -2.125 C 187.47923 0.1360176 187.27194 1.4508042 187.125 1.84375 C 186.04357 1.4508042 184.69754 1.1782459 183.125 1.03125 C 181.55238 0.88427811 180.12157 0.81251224 178.84375 0.8125 C 176.82943 0.81251224 175.17107 0.92853346 173.84375 1.125 C 172.51636 1.3214904 171.47338 1.5497934 170.6875 1.84375 C 170.4415 1.2543258 170.19645 0.69045102 170 0.125 C 169.80349 -0.44042514 169.53093 -0.99129453 169.1875 -1.53125 C 168.49905 -2.8090955 167.87791 -4.3044166 167.3125 -6 C 166.74704 -7.6955453 166.46872 -9.8910203 166.46875 -12.59375 C 166.46872 -13.528122 166.79854 -14.76464 167.4375 -16.3125 C 168.0764 -17.860301 168.90558 -19.369378 169.9375 -20.84375 C 170.96936 -22.318055 172.14136 -23.599578 173.46875 -24.65625 C 174.79607 -25.712847 176.16887 -26.218711 177.59375 -26.21875 z M 174.875 -23.21875 L 174.875 -16.875 L 170.90625 -16.875 L 170.90625 -12.15625 L 174.875 -12.15625 L 174.875 -3.75 L 179.53125 -3.75 L 179.53125 -12.15625 L 183.65625 -12.15625 L 183.65625 -16.875 L 179.53125 -16.875 L 179.53125 -23.21875 L 178.78125 -23.21875 L 174.875 -23.21875 z M 176.5 -21.71875 L 177.96875 -21.71875 L 177.96875 -15.3125 L 182.03125 -15.3125 L 182.03125 -13.625 L 177.96875 -13.625 L 177.96875 -5.28125 L 176.5 -5.28125 L 176.5 -13.625 L 172.4375 -13.625 L 172.4375 -15.3125 L 176.5 -15.3125 L 176.5 -21.71875 z M 178.78125 2.53125 C 181.23944 2.727739 183.09059 2.9480395 184.34375 3.21875 C 185.59682 3.4894802 186.39199 3.754036 186.6875 4 C 186.63796 4.1964876 186.5937 4.4247905 186.59375 4.71875 C 186.5937 4.9647314 186.5937 5.2357899 186.59375 5.53125 C 185.51232 5.1862953 184.2758 4.9014816 182.875 4.65625 C 181.47411 4.4110353 180.12157 4.2812588 178.84375 4.28125 C 177.66484 4.2812588 176.36306 4.4110353 174.9375 4.65625 C 173.51187 4.9014816 172.32611 5.1862953 171.34375 5.53125 C 171.34372 5.2357899 171.29946 4.9574788 171.25 4.6875 C 171.20047 4.4175379 171.18747 4.1964876 171.1875 4 C 171.43344 3.754036 172.17785 3.4894802 173.40625 3.21875 C 174.63458 2.9480395 176.42197 2.727739 178.78125 2.53125 z M 177.59375 5.90625 C 177.34774 6.3967034 177.07593 6.7410276 176.78125 6.9375 C 176.4865 7.1339846 176.11691 7.2630112 175.625 7.3125 L 175.625 8.40625 C 176.11691 8.503744 176.4865 8.6270178 176.78125 8.75 C 177.07593 8.8729908 177.34774 9.079536 177.59375 9.375 C 176.61132 9.4229984 175.63936 9.4955142 174.65625 9.59375 C 173.67307 9.6919927 172.77288 9.8790299 171.9375 10.125 C 172.33043 9.8310351 172.70076 9.5584768 173.09375 9.3125 C 173.48667 9.0665307 173.88676 8.8802434 174.28125 8.78125 L 173.90625 7.75 C 173.1683 7.8969892 172.55441 7.7549573 172.0625 7.3125 C 173.09586 6.8205596 174.9405 6.3472089 177.59375 5.90625 z M 178.84375 5.90625 C 179.13918 6.3967034 179.40374 6.7990382 179.625 7.09375 C 179.84619 7.3884737 180.1695 7.6602821 180.5625 7.90625 C 180.1695 8.0547389 179.84619 8.2547814 179.625 8.5 C 179.40374 8.7452277 179.13918 9.0300415 178.84375 9.375 C 178.30377 8.6370845 177.7914 8.1522282 177.25 7.90625 C 177.54543 7.6602821 177.82374 7.3884737 178.09375 7.09375 C 178.36368 6.7990382 178.59774 6.3967034 178.84375 5.90625 z M 180.1875 5.90625 C 181.46532 6.200225 182.57281 6.4597779 183.53125 6.65625 C 184.4896 6.8527349 185.28552 7.0665327 185.875 7.3125 C 185.23602 7.7549573 184.56338 7.8969892 183.875 7.75 L 183.65625 8.78125 C 183.95167 8.8802434 184.2945 9.0665307 184.6875 9.3125 C 185.08041 9.5584768 185.482 9.8440405 185.875 10.1875 C 185.03955 9.9415298 184.1081 9.74799 183.125 9.625 C 182.14181 9.5020169 181.16985 9.4229984 180.1875 9.375 C 180.43343 9.079536 180.71174 8.8729908 181.03125 8.75 C 181.35067 8.6270178 181.74501 8.503744 182.1875 8.40625 L 182.1875 7.3125 C 181.74501 7.2630112 181.35067 7.1339846 181.03125 6.9375 C 180.71174 6.7410276 180.43343 6.3967034 180.1875 5.90625 z M 170.96875 7.96875 C 171.50866 8.2642227 171.98051 8.4780205 172.375 8.625 C 171.83353 8.8709775 171.20514 9.3885836 170.46875 10.125 C 170.6157 9.7815406 170.68747 9.5219876 170.6875 9.375 C 170.73696 9.079536 170.76372 8.8592356 170.8125 8.6875 C 170.86121 8.5157732 170.91922 8.3084781 170.96875 8.0625 L 170.96875 7.96875 z M 186.8125 7.96875 L 186.8125 8.0625 C 186.81245 8.3084781 186.81896 8.5157732 186.84375 8.6875 C 186.86845 8.8592356 186.91921 9.079536 186.96875 9.375 C 187.11569 9.5219876 187.18745 9.7815406 187.1875 10.125 C 186.99097 9.7815406 186.72567 9.4647269 186.40625 9.21875 C 186.08674 8.9727808 185.75117 8.7719883 185.40625 8.625 C 185.89815 8.4780205 186.37 8.2642227 186.8125 7.96875 z M 178.84375 11.0625 C 181.98887 11.062502 184.36488 11.398824 185.9375 12.0625 C 187.51003 12.726178 188.33846 13.219037 188.4375 13.5625 C 188.33846 13.808473 187.51003 14.21581 185.9375 14.78125 C 184.36488 15.346686 181.98887 15.656247 178.84375 15.65625 C 175.74805 15.656247 173.4548 15.346686 171.90625 14.78125 C 170.35764 14.21581 169.53496 13.808473 169.4375 13.5625 C 169.53496 13.219037 170.35764 12.726178 171.90625 12.0625 C 173.4548 11.398824 175.74805 11.062502 178.84375 11.0625 z M 176.28125 17.40625 C 176.77316 17.45574 177.20076 17.468746 177.59375 17.46875 L 178.84375 17.46875 L 180.125 17.46875 C 180.51792 17.468746 180.94551 17.45574 181.4375 17.40625 C 181.43746 19.077063 181.83179 20.527379 182.59375 21.78125 C 183.35562 23.035104 184.54789 23.687489 186.21875 23.6875 C 186.90713 23.687489 187.78056 23.55196 188.8125 23.28125 C 189.84434 23.010519 191.00334 22.674198 192.28125 22.28125 C 193.90252 21.7413 195.55438 21.262196 197.25 20.84375 C 198.94551 20.425288 200.51109 20.218743 201.9375 20.21875 C 202.37839 20.218743 202.74297 20.225246 203.0625 20.25 C 203.3819 20.27474 203.71747 20.338503 204.0625 20.4375 C 203.473 20.534982 203.00115 20.619753 202.65625 20.71875 L 201.125 21.90625 L 203.03125 22.71875 C 203.57113 22.81623 204.24377 23.217815 205.03125 23.90625 C 204.19578 23.660266 203.43186 23.517484 202.71875 23.46875 C 202.00552 23.419995 201.28061 23.37499 200.59375 23.375 L 199.71875 23.375 C 198.49033 23.37499 197.27332 23.582285 196.09375 24 C 194.91407 24.417693 193.74132 24.884541 192.5625 25.375 C 191.43157 25.767945 190.32408 26.131027 189.21875 26.5 C 188.11332 26.868946 187.01884 27.062486 185.9375 27.0625 C 184.95356 27.062486 184.06712 26.913201 183.28125 26.59375 C 182.49529 26.274271 181.85965 25.866184 181.34375 25.375 C 180.82777 24.883791 180.42693 24.346677 180.15625 23.78125 C 179.88549 23.215801 179.74996 22.679437 179.75 22.1875 L 177.75 22.1875 C 177.74996 22.679437 177.61443 23.215801 177.34375 23.78125 C 177.07299 24.346677 176.67216 24.883791 176.15625 25.375 C 175.64027 25.866184 175.01839 26.274271 174.28125 26.59375 C 173.54405 26.913201 172.70111 27.062486 171.71875 27.0625 C 170.68683 27.062486 169.5931 26.868946 168.4375 26.5 C 167.28185 26.131027 166.12935 25.767945 165 25.375 C 163.8196 24.884541 162.64835 24.417693 161.46875 24 C 160.28911 23.582285 159.0721 23.37499 157.84375 23.375 L 156.96875 23.375 C 156.28031 23.37499 155.58741 23.419995 154.875 23.46875 C 154.16256 23.517484 153.36665 23.660266 152.53125 23.90625 C 152.92419 23.562777 153.30552 23.297471 153.625 23.125 C 153.94445 22.952509 154.23577 22.81623 154.53125 22.71875 L 156.4375 21.90625 L 154.90625 20.8125 C 154.66026 20.762998 154.40871 20.698484 154.1875 20.625 C 153.96626 20.5515 153.74596 20.486987 153.5 20.4375 C 154.13892 20.289009 154.83907 20.218743 155.625 20.21875 C 157.00183 20.218743 158.56167 20.425288 160.28125 20.84375 C 162.00079 21.262196 163.6584 21.7413 165.28125 22.28125 C 166.55909 22.674198 167.72459 23.010519 168.78125 23.28125 C 169.83786 23.55196 170.71779 23.687489 171.40625 23.6875 C 172.24163 23.687489 172.97953 23.500452 173.59375 23.15625 C 174.2079 22.812028 174.70076 22.340177 175.09375 21.75 C 175.48667 21.159806 175.77224 20.518413 175.96875 19.78125 C 176.16519 19.044074 176.28121 18.241654 176.28125 17.40625 z "
         inkscape:radius="1.5"
         sodipodi:type="inkscape:offset" />
      <path
         transform="translate(0,-8)"
         inkscape:connector-curvature="0"
         id="path67343"
         d="m 177.01117,56.099965 c -0.39394,0.644491 -0.14385,1.482648 -0.37029,2.19841 -0.3059,1.771097 -1.54289,3.645509 -3.46089,3.866168 -2.04979,0.172498 -4.0247,-0.591476 -5.9643,-1.114758 -3.80261,-1.153214 -7.68706,-2.548131 -11.72794,-2.203266 -0.47272,0.0068 -1.33768,0.05226 -1.22375,0.735214 0.22393,0.724433 1.20089,0.511942 1.70192,0.926714 0.43272,0.220742 0.63244,0.439365 0.023,0.561464 -0.91562,0.432442 -1.9506,0.772585 -2.67046,1.508656 -0.3176,0.49031 0.28992,1.003715 0.77265,0.798892 2.06705,-0.48592 4.24315,-0.502563 6.35614,-0.279904 2.33049,0.411747 4.49589,1.547004 6.76662,2.248628 2.13437,0.749234 4.36536,1.577271 6.66796,1.223457 2.54217,-0.302424 4.94524,-2.250895 5.43559,-4.816205 0.40653,0.09635 1.14702,-0.218855 1.12836,0.387783 0.73055,2.742011 3.60564,4.496894 6.35615,4.495951 2.66527,0.09649 5.10993,-1.112168 7.57783,-1.93711 2.17309,-0.812104 4.35703,-1.831226 6.73224,-1.727877 1.61826,-0.0046 3.24149,0.08191 4.82542,0.419855 0.53497,0.05719 0.78352,-0.727794 0.28573,-1.002988 -0.85103,-0.754923 -1.95579,-1.107827 -2.98272,-1.548217 0.51274,-0.480792 1.16214,-0.711622 1.8427,-0.813469 0.62841,-0.153959 0.46201,-1.098317 -0.15162,-1.113783 -1.67802,-0.146901 -3.38815,-0.101753 -5.05698,0.125576 -3.96074,0.746179 -7.71428,2.35268 -11.65559,3.104978 -1.39255,0.267876 -3.08639,-0.06993 -3.91574,-1.329543 -0.94275,-1.289865 -1.1803,-2.919555 -1.3362,-4.452544 -0.29744,-0.658578 -1.19499,-0.2617 -1.76606,-0.369961 -1.34809,0.04001 -2.72316,-0.08058 -4.05419,0.06098 l -0.0882,0.03049 -0.0474,0.0164 z"
         style="fill:#ffffff;fill-opacity:1;fill-rule:nonzero;stroke:none" />
      <path
         transform="translate(0,-8)"
         inkscape:connector-curvature="0"
         id="path67345"
         d="m 178.54189,49.700086 c -2.83194,-0.05887 -5.77054,0.559752 -8.09679,2.233398 -0.46773,0.301777 -0.54274,0.995301 -0.0408,1.309132 1.17978,0.786669 2.5915,1.183868 3.9604,1.517815 2.80661,0.600632 5.69603,0.419972 8.54488,0.336546 2.31409,-0.08965 4.6372,-0.650041 6.65354,-1.796048 0.54744,-0.302081 0.50684,-1.095018 -0.0175,-1.399518 -2.16216,-1.513855 -4.85194,-2.172963 -7.47575,-2.183831 -1.17565,-0.03069 -2.35204,-0.02016 -3.52796,-0.01749 z"
         style="fill:#ffffff;fill-opacity:1;fill-rule:nonzero;stroke:none" />
      <path
         transform="translate(0,-8)"
         inkscape:connector-curvature="0"
         id="path67347"
         d="m 172.01081,46.632809 c -0.68354,0.223958 -0.55533,1.143501 -0.76257,1.710185 -0.16028,0.453313 -0.24884,1.18148 0.38353,1.214225 0.5944,-0.08924 0.99288,-0.780451 1.53568,-1.07316 0.42278,-0.216596 1.11139,-0.694441 0.58611,-1.173983 -0.53527,-0.266749 -1.11673,-0.6748 -1.74275,-0.677267 z"
         style="fill:#ffffff;fill-opacity:1;fill-rule:nonzero;stroke:none" />
      <path
         transform="translate(0,-8)"
         inkscape:connector-curvature="0"
         id="path67349"
         d="m 178.37862,44.536448 c -1.78306,0.257329 -3.59067,0.647326 -5.26569,1.309133 -0.60047,0.205239 -0.48191,1.038924 0.0729,1.21 0.45952,0.220598 0.98612,0.332279 1.48407,0.332385 0.1108,0.311886 -0.50406,0.314973 -0.67351,0.524819 -0.45064,0.34477 -1.14115,0.546338 -1.35662,1.104196 -0.18488,0.550447 0.51666,0.819089 0.91635,0.554816 1.72217,-0.365034 3.49685,-0.511985 5.25111,-0.647277 0.57447,-0.221622 0.33404,-0.943898 -0.10496,-1.16918 -0.40175,-0.397765 -1.02712,-0.514419 -1.46367,-0.734747 -0.065,-0.353862 0.48717,-0.275755 0.6881,-0.489832 0.53024,-0.343219 1.18411,-0.832966 1.18376,-1.521975 -0.061,-0.338734 -0.41367,-0.511058 -0.73183,-0.472338 z"
         style="fill:#ffffff;fill-opacity:1;fill-rule:nonzero;stroke:none" />
      <path
         transform="translate(0,-8)"
         inkscape:connector-curvature="0"
         id="path67351"
         d="m 179.72857,44.568521 c -0.52822,0.491065 -0.79675,1.224586 -1.38722,1.678612 -0.45474,0.263461 -0.75664,0.98728 -0.13142,1.243243 0.67658,0.34027 1.01551,1.090817 1.65859,1.460385 0.72696,-0.08924 0.99436,-0.966511 1.60362,-1.312048 0.47235,-0.09624 0.84939,-0.714771 0.39944,-1.081711 -0.64272,-0.523781 -1.07879,-1.231102 -1.55988,-1.892265 -0.14507,-0.141247 -0.40314,-0.166871 -0.58313,-0.09622 z"
         style="fill:#ffffff;fill-opacity:1;fill-rule:nonzero;stroke:none" />
      <path
         transform="translate(0,-8)"
         inkscape:connector-curvature="0"
         id="path67353"
         d="m 181.35259,44.527701 c -0.63791,0.05065 -0.64793,0.892038 -0.20701,1.212916 0.41818,0.50384 0.95475,0.932994 1.61236,1.058385 0.0708,0.485559 -0.61076,0.371445 -0.90677,0.612289 -0.48254,0.227129 -1.31971,0.660146 -0.92426,1.309133 0.53639,0.417619 1.3002,0.221851 1.93259,0.365311 1.31324,0.113084 2.62464,0.363218 3.91623,0.617267 0.67822,-0.04397 0.63261,-0.902917 0.0991,-1.172096 -0.47262,-0.390566 -1.00936,-0.691321 -1.53656,-1.000072 0.0334,-0.31643 0.52243,-0.07981 0.74641,-0.218675 0.57518,-0.11703 1.46776,-0.473034 1.31205,-1.18959 -0.55784,-0.526937 -1.42665,-0.536626 -2.13491,-0.778422 -1.29853,-0.275444 -2.59021,-0.678427 -3.90926,-0.816446 z"
         style="fill:#ffffff;fill-opacity:1;fill-rule:nonzero;stroke:none" />
      <path
         transform="translate(0,-8)"
         inkscape:connector-curvature="0"
         id="path67355"
         d="m 187.74956,46.577412 c -0.49293,0.221719 -0.97397,0.492858 -1.46989,0.696878 -0.58332,0.420071 0.0849,0.994284 0.52463,1.182611 0.52677,0.25115 0.80036,0.824751 1.30971,1.071161 0.6689,0.148468 0.82406,-0.707692 0.51025,-1.137108 -0.25852,-0.566603 -0.004,-1.357654 -0.55107,-1.769807 -0.10752,-0.0095 -0.21629,-0.04462 -0.32363,-0.04373 z"
         style="fill:#ffffff;fill-opacity:1;fill-rule:nonzero;stroke:none" />
      <path
         transform="translate(0,-8)"
         inkscape:connector-curvature="0"
         id="path67357"
         d="m 179.66442,41.104714 c -2.28323,0.149899 -4.57347,0.43492 -6.77308,1.078795 -0.58018,0.142682 -1.19865,0.586858 -1.06713,1.262481 0.0626,0.569213 -0.11105,1.542425 0.67352,1.641518 2.46339,-0.67196 4.99042,-1.220355 7.56322,-1.176199 2.52879,-0.01522 5.01144,0.503065 7.43786,1.147043 0.60833,0.140807 0.80425,-0.523792 0.74349,-0.997157 -0.0309,-0.583055 0.22295,-1.489957 -0.56827,-1.647992 -2.30151,-0.890259 -4.80249,-1.054533 -7.23696,-1.290995 -0.25713,-0.0144 -0.51511,-0.02363 -0.77265,-0.01749 z"
         style="fill:#ffffff;fill-opacity:1;fill-rule:nonzero;stroke:none" />
      <path
         transform="translate(0,-8)"
         inkscape:connector-curvature="0"
         id="path67359"
         d="m 178.42818,12.335872 c -2.63601,0.106281 -4.77367,1.986775 -6.4464,3.84629 -2.1394,2.490924 -3.80883,5.425373 -4.69726,8.594842 -0.42887,1.979794 -0.16528,4.034148 0.0707,6.022489 0.42957,2.971042 1.83862,5.662671 3.14232,8.331317 0.38659,0.691315 0.43235,1.609891 1.03798,2.15759 0.56537,0.251495 1.24753,-0.229544 1.85963,-0.266472 3.49073,-0.774261 7.11572,-0.673361 10.66314,-0.386636 1.31462,0.08374 2.59768,0.401016 3.88074,0.693928 0.6986,0.113034 0.95063,-0.663197 0.9746,-1.214562 0.46589,-3.02192 0.79946,-6.070282 0.76448,-9.133079 -0.0233,-1.439305 0.0883,-2.895829 -0.0471,-4.324111 -1.08993,-4.689454 -3.24184,-9.281879 -6.82612,-12.573572 -1.19396,-1.071047 -2.73684,-1.842615 -4.37677,-1.748024 z m -0.15161,4.06735 c 0.59577,0 1.19153,0 1.7873,0 0.0383,1.961691 -0.007,3.937142 0.0771,5.890346 0.22456,0.687862 1.13059,0.316891 1.67508,0.422815 0.81543,0.01092 1.63088,0.01932 2.44633,0.0284 0,1.223606 0,2.447213 0,3.670819 -1.28862,0.04108 -2.60476,-0.08159 -3.87633,0.06098 -0.57939,0.302758 -0.22463,1.117051 -0.32222,1.650511 0,2.228538 0,4.457076 0,6.685614 -1.19153,0 -2.38307,0 -3.5746,0 -0.0204,-2.660525 0.0406,-5.334711 -0.0305,-7.986707 -0.22389,-0.696623 -1.13418,-0.31134 -1.68101,-0.410401 -0.76682,0 -1.53363,0 -2.30045,0 0,-1.222634 0,-2.445268 0,-3.667903 1.22643,-0.04104 2.48035,0.08156 3.68973,-0.06098 0.57939,-0.302757 0.22463,-1.117051 0.32222,-1.650511 0,-1.544329 0,-3.088658 0,-4.632987 0.59577,0 1.19153,0 1.7873,0 z"
         style="fill:#ffffff;fill-opacity:1;fill-rule:nonzero;stroke:none" />
      <path
         transform="translate(0,-8)"
         inkscape:connector-curvature="0"
         id="path67361"
         d="m 177.26483,16.913462 c -0.39315,0.597275 -0.0929,1.390027 -0.1866,2.070121 0,1.419927 0,2.839855 0,4.259783 -1.25778,0.03955 -2.54224,-0.07971 -3.78303,0.06098 -0.57939,0.302757 -0.22463,1.11705 -0.32222,1.65051 -0.14779,0.571059 0.25787,1.13443 0.87178,0.965085 1.07783,0 2.15565,0 3.23347,0 0.0204,2.660524 -0.0406,5.334711 0.0305,7.986707 0.22389,0.696622 1.13418,0.31134 1.68101,0.4104 0.65945,0.147774 0.90026,-0.528571 0.77848,-1.058385 0,-2.446241 0,-4.892482 0,-7.338722 1.25778,-0.03956 2.54224,0.0797 3.78303,-0.06098 0.57939,-0.302757 0.22463,-1.117051 0.32222,-1.650511 0.14778,-0.571059 -0.25787,-1.134429 -0.87178,-0.965084 -1.07783,0 -2.15565,0 -3.23347,0 -0.0206,-2.007366 0.0409,-4.02854 -0.0305,-6.027383 -0.22389,-0.696622 -1.13418,-0.31134 -1.68101,-0.4104 -0.21066,-0.02523 -0.39869,0.02784 -0.59188,0.107879 z"
         style="fill:#ffffff;fill-opacity:1;fill-rule:nonzero;stroke:none" />
      <path
         transform="translate(0,-8)"
         inkscape:connector-curvature="0"
         id="path67363"
         d="m 186.27132,11.720668 c -0.95949,0.19399 -1.5354,1.130067 -2.10626,1.830755 -0.2512,0.638211 0.57119,1.001811 0.88459,1.466859 2.8227,3.22647 4.60179,7.28555 5.46979,11.458553 0.33296,2.630002 0.0995,5.293672 0.009,7.933352 0.0451,0.605348 -0.28233,1.312153 0.045,1.840796 0.4907,0.46168 0.93194,-0.225637 1.04809,-0.67145 0.83853,-2.253272 1.32653,-4.648442 1.46268,-7.052826 0.11458,-2.433499 -0.0307,-4.896976 -0.76484,-7.233357 -0.9462,-3.187785 -2.27053,-6.359821 -4.45613,-8.904996 -0.35045,-0.475951 -0.94385,-0.574252 -1.47824,-0.673518 l -0.0379,0 -0.0758,0.0058 z"
         style="fill:#ffffff;fill-opacity:1;fill-rule:nonzero;stroke:none" />
      <path
         transform="translate(0,-8)"
         inkscape:connector-curvature="0"
         id="path67365"
         d="m 187.51047,5.5278007 c -1.41744,0.1032494 -2.62451,1.4927871 -2.51038,2.9185781 -0.0744,1.1892616 0.95877,2.2402642 2.11968,2.3266982 1.23364,0.411569 2.60608,-0.387441 2.98273,-1.6006982 0.61826,-1.6927309 -0.77124,-3.6961453 -2.59203,-3.6445781 z"
         style="fill:#ffffff;fill-opacity:1;fill-rule:nonzero;stroke:none" />
      <path
         transform="translate(0,-8)"
         inkscape:connector-curvature="0"
         id="path67367"
         d="m 178.54189,5.335367 c -1.70338,0.1493504 -3.12658,2.1578529 -2.36168,3.7845298 0.65336,1.3680482 2.50953,2.0292852 3.84576,1.2391562 1.39988,-0.6834827 1.67903,-2.631077 0.79889,-3.8340957 -0.49371,-0.7530907 -1.37071,-1.2571574 -2.28297,-1.1895903 z"
         style="fill:#ffffff;fill-opacity:1;fill-rule:nonzero;stroke:none" />
      <text
         sodipodi:linespacing="125%"
         id="text3107"
         y="44.127308"
         x="141.53883"
         style="font-size:73.72000122px;font-style:normal;font-variant:normal;font-weight:normal;font-stretch:normal;line-height:125%;letter-spacing:0px;word-spacing:0px;fill:#000000;fill-opacity:1;stroke:none;font-family:DiagramTTOldstyle;-inkscape-font-specification:DiagramTTOldstyle"
         xml:space="preserve"><tspan
           y="44.127308"
           x="141.53883"
           id="tspan3109"
           sodipodi:role="line">L</tspan></text>
    </g>
  </g>
</svg>
