<?xml version="1.0" encoding="UTF-8" standalone="no"?>
<!-- Created with Inkscape (http://www.inkscape.org/) -->

<svg
   xmlns:dc="http://purl.org/dc/elements/1.1/"
   xmlns:cc="http://creativecommons.org/ns#"
   xmlns:rdf="http://www.w3.org/1999/02/22-rdf-syntax-ns#"
   xmlns:svg="http://www.w3.org/2000/svg"
   xmlns="http://www.w3.org/2000/svg"
   xmlns:sodipodi="http://sodipodi.sourceforge.net/DTD/sodipodi-0.dtd"
   xmlns:inkscape="http://www.inkscape.org/namespaces/inkscape"
   width="64px"
   height="64px"
   id="svg4261"
   version="1.1"
   inkscape:version="0.48.2 r9819"
   sodipodi:docname="wb.svg">
  <defs
     id="defs4263" />
  <sodipodi:namedview
     id="base"
     pagecolor="#ffffff"
     bordercolor="#666666"
     borderopacity="1.0"
     inkscape:pageopacity="0.0"
     inkscape:pageshadow="2"
     inkscape:zoom="5.5"
     inkscape:cx="34.363636"
     inkscape:cy="32"
     inkscape:current-layer="layer1"
     showgrid="true"
     inkscape:document-units="px"
     inkscape:grid-bbox="true"
     inkscape:window-width="984"
     inkscape:window-height="614"
     inkscape:window-x="324"
     inkscape:window-y="105"
     inkscape:window-maximized="0" />
  <metadata
     id="metadata4266">
    <rdf:RDF>
      <cc:Work
         rdf:about="">
        <dc:format>image/svg+xml</dc:format>
        <dc:type
           rdf:resource="http://purl.org/dc/dcmitype/StillImage" />
        <dc:title></dc:title>
      </cc:Work>
    </rdf:RDF>
  </metadata>
  <g
     id="layer1"
     inkscape:label="Layer 1"
     inkscape:groupmode="layer">
    <g
       id="g3629"
       transform="matrix(0.88,0,0,0.88,-63.840257,6.7173396)">
      <g
         style="fill:#4d4d4d"
         transform="translate(73.624551,-28.04537)"
         id="layer1-4-0-8"
         inkscape:label="Layer 1">
        <path
           transform="translate(4.2986354,27.8954)"
           d="M 24.15625,0.625 C 23.540999,0.84260181 23.12449,1.257624 22.8125,1.6875 l 0.03125,0.03125 C 22.827905,1.7400881 22.762363,1.7620771 22.75,1.78125 22.588324,2.0319725 22.532215,2.1774914 22.5,2.3125 22.435569,2.5825172 22.437478,2.777971 22.4375,3 22.437449,3.6008027 22.710968,4.222497 23.125,4.71875 22.708791,4.4509138 22.309632,4.179166 21.84375,3.9375 20.93465,3.4660772 19.830752,3.1744864 18.4375,2.90625 A 1.50015,1.50015 0 0 0 18.375,2.875 C 17.396048,2.7340602 16.506531,3.290999 15.96875,3.90625 a 1.50015,1.50015 0 0 0 -0.375,0.96875 c 0.0029,-0.038867 0.04519,-0.487824 0.375,-0.8125 -0.444746,0.4381917 -0.531367,0.7914345 -0.53125,1.3125 -7.4e-5,0.8145334 0.41333,1.3707385 0.78125,1.75 0.01858,0.01915 0.04426,0.044268 0.0625,0.0625 0.802967,0.9025695 1.377229,1.734296 1.71875,2.4375 0.241712,0.497795 0.405067,1.523632 0.53125,2.625 -1.295051,0.96548 -2.644633,2.072791 -4.21875,3.84375 -1.827636,2.056195 -3.708707,4.345588 -5.625,6.8125 -0.024315,0.0313 -0.03817,0.06238 -0.0625,0.09375 -0.4162329,0.484267 -0.9695231,1.200201 -1.78125,2.28125 -0.8706672,1.159553 -1.7772039,2.491305 -2.6875,4 -0.9221755,1.528383 -1.7638851,3.165151 -2.5,4.875 -0.65944542,1.531748 -0.92554758,2.950714 -1.0625,4.34375 -0.1470209,0.227905 -0.21007422,0.434629 -0.25,0.59375 -0.0745549,0.297132 -0.0937556,0.525055 -0.09375,0.78125 -8.62e-6,1.076082 0.11329626,1.975109 0.40625,2.78125 0.2343568,0.644962 0.4968378,1.214484 0.8125,1.71875 a 1.50015,1.50015 0 0 0 0.21875,0.28125 c 0.4254575,0.42809 0.974614,0.763833 1.59375,0.90625 0.482475,0.111001 0.9375278,0.125005 1.34375,0.125 1.1385104,6e-6 2.2367086,-0.489092 3.1875,-1.28125 0.1100094,-0.09166 0.2328643,-0.246067 0.34375,-0.34375 0.060618,0.178142 0.017415,0.427096 0.09375,0.59375 0.2930042,0.639766 0.5531285,1.156747 0.84375,1.59375 a 1.50015,1.50015 0 0 0 0.1875,0.21875 c 0.88412,0.884147 2.086197,1.437503 3.34375,1.4375 0.755144,3e-6 1.48635,-0.13547 2.125,-0.5 0.495342,-0.282757 0.945424,-0.666026 1.3125,-1.15625 0.313469,-0.418701 0.568236,-0.854991 0.75,-1.25 0.171338,-0.372446 0.286523,-0.738266 0.40625,-1.09375 A 1.50015,1.50015 0 0 0 17.25,43.8125 l 0.15625,-0.625 c 0.0034,-0.0078 -0.0034,-0.02351 0,-0.03125 0.296185,-0.671917 0.688742,-1.306763 1.21875,-1.96875 0.542234,-0.677295 1.18733,-1.300658 1.84375,-1.84375 0.6942,-0.574369 1.335355,-1.055975 2,-1.46875 0.551062,-0.342242 0.989693,-0.574375 1.40625,-0.78125 0.696125,0.273307 1.385182,0.625011 2.125,0.625 1.496058,8e-6 2.883163,-0.234161 4.21875,-0.59375 -0.102975,0.302704 -0.1672,0.593449 -0.3125,0.90625 -0.283191,0.60953 -0.631562,1.217937 -1.09375,1.8125 -0.390347,0.502089 -0.901916,0.953202 -1.5625,1.375 -0.02149,0.01372 -0.04073,0.01762 -0.0625,0.03125 -0.583193,0.32741 -1.26454,0.813198 -2.1875,1.53125 -0.958033,0.745296 -2.006002,1.63387 -3.15625,2.65625 -1.166009,1.036341 -2.360776,2.17325 -3.59375,3.40625 -1.250685,1.250658 -2.40959,2.520742 -3.4375,3.8125 -1.03955,1.306318 -1.906162,2.622034 -2.59375,3.96875 -0.718353,1.406867 -1.093774,2.807078 -1.09375,4.15625 -5.3e-5,0.709842 0.483413,1.46001 0.9375,1.8125 0.419887,0.32595 1.040827,0.593722 1.6875,0.59375 l 42.5625,0 c 0.31705,-2e-5 0.460532,-0.171317 0.6875,-0.25 l 0.65625,0.28125 0.15625,0.0625 0,-0.03125 c 0.44834,0.215345 1.014799,0.382805 1.59375,0.21875 0.528154,-0.149661 0.850851,-0.499517 1.125,-0.84375 l 0.03125,0.03125 c 0.06679,-0.06681 0.124189,-0.151269 0.1875,-0.21875 0.073,-0.07781 0.143051,-0.154053 0.21875,-0.25 0.118237,-0.149862 0.305485,-0.426024 0.375,-0.9375 0.289309,0.004 0.564595,0.08746 0.84375,-0.03125 0.317787,-0.13514 0.449567,-0.39973 0.65625,-0.625 l 0.03125,0.0625 c 0.131232,-0.08709 0.182408,-0.231201 0.28125,-0.34375 0.0471,-0.07032 0.148258,-0.116932 0.1875,-0.1875 L 63.3125,60.09375 c 0.275147,-0.417631 0.437405,-0.866284 0.4375,-1.21875 -1.13e-4,-0.421885 -0.04143,-0.769847 -0.25,-1.1875 a 1.50015,1.50015 0 0 0 -0.1875,-0.28125 c 0.004,0.0057 -0.032,-0.05982 -0.03125,-0.0625 A 1.50015,1.50015 0 0 0 63.25,57.3125 c -0.0071,-0.01082 0.0079,-0.01903 0,-0.03125 -0.07904,-0.122182 -0.191445,-0.32101 -0.34375,-0.5625 -0.257799,-0.40859 -0.650386,-0.97762 -1.0625,-1.59375 0.649966,-0.328999 1.019768,-1.002211 1.125,-1.53125 L 62.875,53.5625 c 0.115312,-0.301437 0.34368,-0.581734 0.34375,-0.84375 -9.7e-5,-0.144009 0.0083,-0.344456 -0.09375,-0.6875 A 1.50015,1.50015 0 0 0 63.09375,51.96875 1.50015,1.50015 0 0 0 62.8125,51.25 c 0.0026,0.0039 -0.03449,-0.03307 -0.03125,-0.03125 A 1.50015,1.50015 0 0 0 62.71875,51.125 c -0.0775,-0.123771 -0.193595,-0.312188 -0.34375,-0.5625 -0.253448,-0.422322 -0.608457,-1.045853 -1.03125,-1.75 0.216255,-0.03228 0.436857,0.06282 0.625,-0.03125 0.505198,-0.252599 0.791565,-0.615615 1.03125,-1 l 0.03125,0 c 0.0036,-0.0058 -0.0036,-0.02542 0,-0.03125 0.0069,-0.01043 0.02452,-0.0207 0.03125,-0.03125 0.224792,-0.352175 0.374786,-0.768762 0.375,-1.25 -1.4e-4,-0.518542 -0.227514,-1.222937 -0.65625,-1.65625 a 1.50015,1.50015 0 0 0 -0.03125,0 c 0.205327,0.198829 0.04106,0.0036 -0.0625,-0.125 -0.103563,-0.128572 -0.248413,-0.323022 -0.4375,-0.5625 -0.345005,-0.436786 -0.821195,-1.002453 -1.34375,-1.65625 0.12661,-0.05861 0.254665,-0.03854 0.375,-0.125 0.270371,-0.19427 0.34408,-0.504555 0.5,-0.78125 0.390037,-0.426366 0.593632,-0.95433 0.59375,-1.3125 -8.7e-5,-0.263842 0.07321,-0.535754 -0.21875,-1.125 C 62.051358,38.913901 61.998408,38.809361 62,38.8125 a 1.50015,1.50015 0 0 0 -0.28125,-0.375 c -0.0036,-0.0036 -0.251575,-0.258459 -0.625,-0.65625 -0.269284,-0.286742 -0.698677,-0.791895 -1.15625,-1.3125 0.05273,-0.03804 0.139976,-0.02087 0.1875,-0.0625 0.285171,-0.249787 0.413493,-0.55328 0.5625,-0.84375 a 1.50015,1.50015 0 0 0 0.03125,-0.03125 1.50015,1.50015 0 0 0 0.15625,-0.21875 1.50015,1.50015 0 0 0 0.03125,-0.0625 1.50015,1.50015 0 0 0 0.25,-0.78125 C 61.156089,33.727394 60.778032,32.996912 60.28125,32.5 60.063857,32.282948 60.046932,32.299943 59.90625,32.1875 59.765568,32.075057 59.605278,31.929486 59.375,31.75 c -0.462878,-0.360648 -1.023664,-0.797993 -1.71875,-1.3125 -0.108806,-0.08052 -0.148245,-0.111782 -0.25,-0.1875 0.02838,-0.02649 0.07382,-0.07579 0.09375,-0.09375 0.05978,-0.05388 0.0625,-0.0625 0.0625,-0.0625 A 1.50015,1.50015 0 0 0 57.6875,30 c 0.488962,-0.489063 0.749862,-1.178395 0.75,-1.84375 l 0,-0.21875 a 1.50015,1.50015 0 0 0 -0.09375,-0.46875 c -0.08436,-0.250193 -0.19013,-0.513764 -0.3125,-0.71875 -0.183925,-0.307486 -0.371301,-0.494213 -0.5,-0.625 a 1.50015,1.50015 0 0 0 -0.03125,0 C 57.201053,25.835591 57.16608,25.847381 57,25.75 c -0.16608,-0.09738 -0.373018,-0.193943 -0.625,-0.3125 -0.420577,-0.19778 -0.910878,-0.45103 -1.5,-0.78125 -0.03614,-0.02025 -0.05816,-0.04236 -0.09375,-0.0625 0.03023,-0.04256 0.06381,-0.08219 0.09375,-0.125 0.174412,-0.249462 0.320424,-0.442122 0.40625,-0.5625 0.06932,-0.09723 0.08142,-0.139246 0.09375,-0.15625 a 1.50015,1.50015 0 0 1 0.03125,-0.03125 c 0.342261,-0.470713 0.499882,-1.062204 0.5,-1.5625 l 0,-0.15625 A 1.50015,1.50015 0 0 0 55.8125,21.4375 c -0.103566,-0.257168 -0.166942,-0.471135 -0.46875,-0.875 -0.324402,-0.433178 -0.741325,-0.645028 -1.0625,-0.75 A 1.50015,1.50015 0 0 0 53.84375,19.75 c 0.107186,0.02539 0.24345,-7.3e-5 -0.03125,0 -0.108641,-0.02635 -0.248932,-0.09012 -0.46875,-0.15625 -0.530809,-0.1596 -1.168813,-0.328043 -1.90625,-0.53125 -0.125274,-0.0345 -0.194833,-0.06134 -0.3125,-0.09375 0.05814,-0.232298 0.09164,-0.417865 0.125,-0.53125 0.03336,-0.113385 0.0625,-0.15625 0.0625,-0.15625 A 1.50015,1.50015 0 0 0 51.375,17.8125 l 0,-0.21875 C 51.374948,17.12342 51.263626,16.589467 50.9375,16.125 50.611374,15.660533 50.099468,15.338327 49.625,15.21875 a 1.50015,1.50015 0 0 0 -0.15625,0 c 0.0047,9.63e-4 -0.06574,-0.02558 -0.15625,-0.03125 -0.110531,-0.02722 -0.257784,-0.06978 -0.46875,-0.125 -0.466665,-0.122052 -1.082075,-0.299426 -1.78125,-0.5 -0.207477,-0.05949 -0.318262,-0.103242 -0.5,-0.15625 3.35e-4,-0.0514 -6e-6,-0.104789 0,-0.15625 -2.5e-5,-0.253539 0,-0.438498 0,-0.5625 0,-0.124002 0,-0.1875 0,-0.1875 -4.3e-5,-0.514329 -0.112049,-1.111072 -0.5,-1.625 -0.387951,-0.513928 -0.991501,-0.807252 -1.53125,-0.90625 A 1.50015,1.50015 0 0 0 44.25,10.9375 c 0.190563,-6.7e-5 0.06739,-0.01186 -0.0625,-0.03125 -0.129888,-0.01939 -0.350139,-0.0241 -0.59375,-0.0625 -0.530976,-0.08361 -1.124469,-0.183025 -1.8125,-0.28125 -0.222567,-0.03175 -0.364718,-0.03867 -0.5625,-0.0625 -0.0065,-0.105106 -0.02835,-0.222878 -0.03125,-0.28125 -0.0042,-0.0841 0,-0.125 0,-0.125 a 1.50015,1.50015 0 0 0 -0.03125,-0.25 C 41.052333,9.3310004 40.801693,8.8348593 40.40625,8.4375 40.099332,8.129389 39.640319,7.8930296 39.21875,7.84375 38.945378,7.8117939 38.746487,7.8919766 38.53125,7.9375 l 0,-0.03125 -3.9375,0.28125 c -0.04863,5.3e-6 -0.05582,0.00429 -0.09375,0 C 34.406435,8.1769114 34.321488,8.145229 34.28125,8.125 A 1.50015,1.50015 0 0 0 33.9375,8 c -0.006,-0.00199 -0.02492,0.00211 -0.03125,0 C 33.812611,7.9687329 33.678536,7.9030443 33.5,7.84375 33.393719,7.8084818 33.346041,7.7828506 33.25,7.75 L 32.96875,6.875 A 1.50015,1.50015 0 0 0 32.90625,6.71875 C 32.311198,5.4108692 31.42951,4.2810452 30.3125,3.375 29.250165,2.5134688 27.834135,1.6610977 26.03125,0.78125 26.006163,0.76900688 25.993989,0.7622573 25.96875,0.75 l 0,0.03125 C 25.431389,0.50650922 24.692442,0.43535986 24.15625,0.625 z m 4.1875,8.5 0.28125,0.8125 -0.03125,0 0.21875,0.6875 c 0.247144,0.749402 0.971551,1.35415 1.59375,1.5625 a 1.50015,1.50015 0 0 0 0.03125,0 l 2.1875,0.6875 a 1.50015,1.50015 0 0 0 0.0625,0 c 2.405906,0.631903 4.802201,1.895094 7.1875,3.53125 -0.434124,0.156166 -0.920294,0.218241 -1.1875,0.5625 -0.311063,0.400666 -0.593871,0.960285 -0.59375,1.625 -3.3e-5,0.584605 -0.162685,1.796147 -0.53125,3.46875 -0.342072,1.55205 -0.991226,3.149222 -1.9375,4.78125 C 34.713895,28.415027 33.508298,29.792607 31.90625,31 30.46868,32.083413 28.552479,32.656263 26,32.65625 25.849512,32.656256 25.625815,32.626876 25.28125,32.5 24.941025,32.374759 24.711054,32.211058 24.6875,32.1875 24.254209,31.706014 23.873105,31.14278 23.5625,30.5 23.298346,29.953453 23.21188,29.424334 23.25,28.78125 a 1.50015,1.50015 0 0 0 0,-0.09375 c -4.1e-5,-0.444769 -0.06302,-0.816775 -0.125,-1.125 -0.06609,-0.328254 -0.230295,-0.781485 -0.625,-1.125 -0.394705,-0.343515 -0.91506,-0.46872 -1.28125,-0.46875 -0.322158,2.2e-5 -0.68212,0.04541 -1.09375,0.28125 -0.41163,0.235837 -0.832275,0.76519 -0.90625,1.28125 -0.04303,0.299629 -0.03103,0.556392 -0.03125,0.8125 -5.24e-4,0.01039 5.01e-4,0.02086 0,0.03125 -2e-6,0.0098 -1e-6,0.02139 0,0.03125 -0.05106,1.107701 0.02479,2.214115 0.25,3.3125 0.125204,0.610818 0.491613,1.081548 0.75,1.625 -0.27574,0.153647 -0.510889,0.256471 -0.8125,0.4375 -0.855983,0.513762 -1.659298,1.142161 -2.46875,1.84375 -0.801389,0.694583 -1.587397,1.496857 -2.3125,2.375 0.09956,-0.13108 0.218804,-0.237979 0.3125,-0.375 0.532284,-0.77846 0.758745,-1.660219 0.875,-2.65625 a 1.50015,1.50015 0 0 0 0,-0.1875 c -4.6e-5,-0.929808 -0.652277,-1.769671 -1.375,-2.21875 l 0.03125,-0.03125 c -0.02012,-0.01334 -0.04206,0.0124 -0.0625,0 -0.02413,-0.01447 -0.03819,-0.04899 -0.0625,-0.0625 L 14.28125,32.5 c -0.535593,-0.281468 -1.160347,-0.33859 -1.5625,-0.25 -0.371345,0.08184 -0.843289,0.278757 -1.21875,0.5625 a 1.50015,1.50015 0 0 0 -0.15625,0.125 c -0.125079,0.125078 -0.248233,0.304956 -0.375,0.4375 0.101531,-0.205491 0.188961,-0.417191 0.28125,-0.625 0.04824,-0.108643 0.104476,-0.182859 0.15625,-0.28125 0.02248,-0.04272 0.0355,-0.07182 0.0625,-0.125 0.309076,-0.4844 0.574507,-0.902235 0.8125,-1.21875 0.228316,-0.303651 0.593719,-0.686725 1.03125,-1.125 0.450204,-0.450967 0.964677,-0.959252 1.5625,-1.53125 0.609918,-0.583565 1.371562,-1.312125 2.3125,-2.15625 l -0.03125,-0.03125 c 0.424661,-0.332839 0.90625,-0.838873 0.90625,-1.625 0,-0.618656 -0.287741,-1.041174 -0.59375,-1.375 C 17.346055,23.147402 17.2468,22.972301 17.125,22.875 l -0.0625,0.0625 c -0.402153,-0.370195 -0.892714,-0.609186 -1.40625,-0.65625 0.596575,-0.704649 1.161587,-1.410107 1.8125,-2.125 1.021733,-1.122152 2.012332,-2.123126 2.9375,-3 0.891232,-0.844694 1.586701,-1.284485 1.75,-1.34375 A 1.50015,1.50015 0 0 0 22.3125,15.75 c 0.857082,-0.428498 1.468702,-1.517104 1.46875,-2.46875 a 1.50015,1.50015 0 0 0 0,-0.0625 c -0.02129,-0.549331 -0.132704,-0.919063 -0.1875,-1.40625 l 0.1875,0.28125 A 1.50015,1.50015 0 0 0 23.8125,12.125 c 0.321326,0.429611 0.857503,0.830082 1.46875,0.9375 0.467666,0.08219 0.839569,-0.08008 1.21875,-0.21875 l 0,0.0625 c 0.07669,-0.01496 0.168732,-0.06768 0.25,-0.09375 0.03677,-0.01676 0.08965,-0.01357 0.125,-0.03125 l 0,-0.03125 c 0.480714,-0.185729 0.979633,-0.501435 1.21875,-1.0625 0.137752,-0.323367 0.249942,-0.771101 0.25,-1.21875 l 0,-1.34375 z M 26.75,15.78125 C 25.070217,15.732415 23.644571,15.901048 22.4375,16.4375 21.411027,16.893731 20.56253,17.409755 19.90625,18 A 1.50015,1.50015 0 0 0 19.875,18.03125 c -1.208004,1.145861 -1.906282,2.701713 -1.90625,4.34375 -1.9e-5,0.585188 0.120167,1.23853 0.59375,1.8125 0.276995,0.335711 0.697167,0.367109 1.09375,0.5 0.101059,0.225258 0.06503,0.460866 0.25,0.65625 0.472251,0.49884 1.146749,0.661089 1.71875,0.6875 l 0,0.0625 c 0.03576,0.003 0.05827,-0.0027 0.09375,0 0.01183,9.07e-4 0.01945,-8.75e-4 0.03125,0 1.303365,0.09671 2.431345,-0.0086 3.40625,-0.40625 0.863565,-0.352242 1.648026,-0.863674 2.21875,-1.625 0.512753,-0.684043 0.837829,-1.447326 1.03125,-2.1875 0.148197,-0.567306 0.276565,-1.105692 0.34375,-1.65625 0.0075,-0.06183 0.025,-0.125631 0.03125,-0.1875 L 29.0625,18.9375 29,18.90625 C 29.246015,18.11765 29.050407,17.535869 28.8125,17 A 1.50015,1.50015 0 0 0 28.5,16.53125 C 28.100726,16.132102 27.471264,15.836046 26.8125,15.8125 l 0,-0.03125 c -0.02245,-7.29e-4 -0.04014,6.5e-4 -0.0625,0 z M 47.59375,17 c 0.142984,-2.8e-5 0.45663,0.01366 0.78125,0.28125 0.32462,0.267586 0.468835,0.755951 0.46875,1 l -1.25,0 0,-1.28125 z m -4.4375,2.15625 c 1.973134,1.921026 3.820053,4.174474 5.40625,7.125 a 1.50015,1.50015 0 0 0 0.0625,0.125 c 0.09111,0.137057 0.150613,0.238148 0.21875,0.34375 0.01612,0.02499 0.08516,0.07435 0.09375,0.09375 0.0045,0.01009 0.02605,0.05167 0.03125,0.0625 1.188605,2.199003 2.201577,4.772632 3.03125,7.75 L 52.09375,34.625 c 0.02392,0.148702 0.107632,0.28837 0.1875,0.46875 l -0.0625,0.03125 c 0.242563,0.825512 0.454186,1.61736 0.59375,2.40625 0.141107,0.798261 0.315975,1.674649 0.5,2.5625 -1.8e-5,0.05997 0.06459,0.185539 0.0625,0.25 -0.0033,0.102881 0.04008,0.270547 0.0625,0.40625 l -0.0625,0 c 0.103028,0.766926 0.212781,1.539581 0.3125,2.3125 0.09118,0.70763 0.169718,1.477274 0.21875,2.28125 0.002,0.03275 -0.002,0.06084 0,0.09375 l 0,0.125 c -5.4e-5,0.180706 0.07616,0.44554 0.15625,0.6875 0.04628,0.880443 0.102083,1.714456 0.125,2.53125 0.02479,0.887786 0.03119,1.866272 0.03125,2.875 l 0,0.0625 0,0.09375 c -6e-5,1.232665 -0.043,2.500586 -0.09375,3.8125 -0.03269,0.843062 -0.120739,1.675166 -0.1875,2.5 l -36.53125,0 c 0.322705,-0.578266 0.403715,-1.025886 0.9375,-1.71875 1.156991,-1.50187 2.419112,-2.957658 3.84375,-4.40625 1.44405,-1.468388 2.895884,-2.827215 4.3125,-4 1.441947,-1.193804 2.567407,-2.059357 3.34375,-2.5625 l 0,0.03125 c 1.897969,-1.206862 3.426446,-2.912673 4.5,-5.03125 0.175788,-0.346929 0.256748,-0.73497 0.40625,-1.09375 0.05163,0.07251 0.03624,0.192589 0.09375,0.25 0.29281,0.292317 0.586383,0.445779 0.84375,0.53125 0.355012,0.117974 0.784434,0.187515 1.25,0.1875 0.426039,1.4e-5 0.773628,-0.04012 1.0625,-0.0625 0.28384,-0.02198 0.511158,-0.03124 0.625,-0.03125 a 1.50015,1.50015 0 0 0 0.34375,-0.03125 c 1.674697,-0.377466 3.09358,-0.894592 4.3125,-1.5625 1.177669,-0.645339 2.192795,-1.412488 3,-2.34375 0.767785,-0.885889 1.359368,-1.821387 1.75,-2.8125 0.344181,-0.873504 0.579785,-1.779793 0.75,-2.6875 0.0097,-0.05171 0.02212,-0.104389 0.03125,-0.15625 0.09459,-0.349623 0.193258,-0.681067 0.21875,-1.03125 0.02934,-0.403111 0.02977,-0.906316 -0.34375,-1.46875 -0.29353,-0.4416 -0.810234,-0.696437 -1.34375,-0.84375 l 0.03125,-0.0625 c -0.05675,-0.02283 -0.152925,0.01762 -0.21875,0 -0.11643,-0.02115 -0.22871,-0.09374 -0.34375,-0.09375 l 0,0.09375 c -0.193387,-0.01637 -0.363898,-0.08334 -0.5625,-0.03125 0.08267,-0.353951 0.177766,-0.728498 0.25,-1.0625 0.002,-0.0093 -0.002,-0.02194 0,-0.03125 0.01293,-0.03971 0.01971,-0.08501 0.03125,-0.125 0.147669,-0.511686 0.185035,-1.023646 0.15625,-1.625 -0.01787,-0.371839 -0.05155,-0.752715 -0.25,-1.1875 C 46.271567,22.792714 45.776339,22.457126 45.28125,22.25 l 0.0625,-0.125 c -0.06339,-0.0255 -0.172129,-0.01313 -0.25,-0.03125 -0.0096,-0.0022 -0.02146,0.0021 -0.03125,0 -0.445754,-0.09596 -1.050891,-0.08295 -1.5,0.25 -0.53893,0.399539 -0.671479,0.882016 -0.75,1.25 -0.05253,0.24589 -0.134627,0.443915 -0.21875,0.65625 a 1.50015,1.50015 0 0 0 -0.0625,0.28125 c -0.135225,0.670465 -0.354479,1.398263 -0.65625,2.1875 -0.296893,0.776284 -0.650162,1.500448 -1.0625,2.1875 -0.407133,0.678269 -0.829472,1.235055 -1.3125,1.71875 -0.139271,0.139449 -0.295954,0.172305 -0.4375,0.28125 0.965497,-1.395473 1.800685,-2.829517 2.40625,-4.34375 0.585959,-1.465401 1.014184,-2.900604 1.3125,-4.28125 0.251747,-1.165461 0.337805,-2.164066 0.375,-3.125 z m -22.3125,2.125 0.03125,0.0625 c -0.04984,0.03526 -0.150566,0.025 -0.1875,0.0625 0.248294,-0.252101 0.198352,-0.145408 0.15625,-0.125 z M 36.25,33.875 c 0.03237,0.485289 0.187,0.944344 0.40625,1.21875 a 1.50015,1.50015 0 0 0 0.125,0.125 c 0.260433,0.257901 0.698306,0.46816 1.15625,0.59375 -0.598068,0.02438 -1.144967,0.16448 -1.75,0.375 -0.186274,0.06481 -0.353126,0.192496 -0.53125,0.28125 C 35.818279,35.706741 35.938945,34.922755 36,34.125 c 0.09126,-0.07596 0.16064,-0.172243 0.25,-0.25 z M 7.21875,34.09375 c 0.1674849,0.34248 0.3551314,0.670329 0.75,0.90625 a 1.50015,1.50015 0 0 0 0.3125,0.15625 c 0.3141874,0.104769 0.7487768,0.02404 1.125,-0.09375 -0.5706279,0.686259 -1.1471972,1.381746 -1.75,2.03125 a 1.50015,1.50015 0 0 0 -0.09375,0.125 C 7.2988332,37.571195 6.9460419,37.973553 6.53125,38.4375 6.1322414,38.883782 5.7772184,39.291492 5.4375,39.65625 a 1.50015,1.50015 0 0 0 0.03125,-0.3125 c -7.8e-6,-0.753655 0.1641105,-1.678899 0.5625,-2.71875 0.3078286,-0.803495 0.7478466,-1.674589 1.1875,-2.53125 z m 45.15625,1.25 c 0.04738,0.06805 0.0011,0.125295 0.0625,0.1875 -0.02756,-0.02803 -0.101548,-0.110117 -0.125,-0.15625 l 0.0625,-0.03125 z m -37.84375,2.75 c -0.744803,0.915303 -1.311687,1.928681 -1.71875,3.03125 0.0024,-0.03447 -0.003,-0.02702 0,-0.0625 0.003,-0.03548 -0.0036,-0.02606 0,-0.0625 0.08658,-0.514558 0.215887,-0.870866 0.21875,-0.875 0.213724,-0.308647 0.453215,-0.687462 0.6875,-1.09375 0.279431,-0.288456 0.556496,-0.607941 0.8125,-0.9375 z"
           id="path3606-8"
           style="font-size:76px;font-style:normal;font-variant:normal;font-weight:normal;font-stretch:normal;line-height:125%;letter-spacing:0px;word-spacing:0px;fill:#4d4d4d;fill-opacity:1;stroke:none;font-family:DiagramTTOldstyle;-inkscape-font-specification:DiagramTTOldstyle"
           inkscape:original="M 24.65625 2.03125 C 24.440938 2.1074015 24.23379 2.2834299 24.03125 2.5625 C 23.980195 2.5625461 23.93747 2.696986 23.9375 3 C 23.93747 3.3556768 24.047415 3.6412396 24.25 3.84375 C 24.50355 3.9953246 24.630707 4.2331987 24.65625 4.5625 C 24.681732 4.8918894 24.718719 5.3053818 24.71875 5.8125 L 24.71875 7.125 L 24.71875 7.71875 C 24.514618 7.4652104 24.107636 7.1666267 23.5 6.8125 L 23.03125 6.4375 C 22.473035 6.0324319 21.840426 5.6361514 21.15625 5.28125 C 20.472019 4.9264353 19.473607 4.6286247 18.15625 4.375 C 17.802141 4.3240189 17.447812 4.5011834 17.09375 4.90625 C 17.093727 5.0083444 17.082252 5.0747912 17.03125 5.125 C 16.980202 5.1752957 16.937477 5.2729926 16.9375 5.375 C 16.937477 5.6286237 17.090146 5.871462 17.34375 6.125 C 18.255998 7.1378182 18.913102 8.0820311 19.34375 8.96875 C 19.774348 9.8555482 20.055719 11.128049 20.15625 12.75 C 18.838842 13.611282 17.261248 15.041944 15.4375 17.09375 C 13.613709 19.145619 11.737531 21.424588 9.8125 23.90625 C 9.4583993 24.312931 8.8677424 25.073469 8.03125 26.1875 C 7.1947297 27.301576 6.3242472 28.592834 5.4375 30.0625 C 4.5507301 31.532203 3.740184 33.103287 3.03125 34.75 C 2.3222981 36.396741 1.9572675 37.881603 1.90625 39.25 C 1.8057377 39.299488 1.7499923 39.519378 1.75 39.875 C 1.7499923 40.836759 1.8599369 41.598843 2.0625 42.15625 C 2.2650472 42.71367 2.4964109 43.188645 2.75 43.59375 C 3.0020256 43.847335 3.2956451 44.01799 3.625 44.09375 C 3.9543358 44.169519 4.2693583 44.187504 4.625 44.1875 C 5.3347055 44.187504 6.0837689 43.883183 6.84375 43.25 C 7.6037055 42.616827 8.4199889 41.794034 9.28125 40.78125 C 9.2812348 40.932788 9.2754975 41.060717 9.25 41.1875 C 9.2244722 41.314298 9.1874849 41.473477 9.1875 41.625 C 9.1874849 42.639329 9.3466644 43.423589 9.625 44.03125 C 9.9033045 44.63892 10.141179 45.101647 10.34375 45.40625 C 11.002424 46.064944 11.763736 46.406252 12.625 46.40625 C 13.183168 46.406252 13.645122 46.296308 14 46.09375 C 14.354838 45.891197 14.646911 45.648359 14.875 45.34375 C 15.103047 45.039147 15.285949 44.70435 15.4375 44.375 C 15.589008 44.045659 15.710428 43.740565 15.8125 43.4375 L 16.03125 42.59375 C 16.385313 41.783535 16.860288 41.009977 17.46875 40.25 C 18.077165 39.49004 18.765519 38.795176 19.5 38.1875 C 20.23443 37.579845 20.953017 37.049898 21.6875 36.59375 C 22.421928 36.137626 23.066784 35.784844 23.625 35.53125 C 24.384166 35.987399 25.188201 36.218762 26 36.21875 C 28.381151 36.218762 30.489466 35.74456 32.3125 34.78125 C 32.262983 35.288425 32.152265 35.878309 32 36.5625 C 31.847659 37.246715 31.610558 37.947317 31.28125 38.65625 C 30.951867 39.365203 30.531865 40.065804 30 40.75 C 29.468064 41.434211 28.778937 42.024095 27.96875 42.53125 C 27.51258 42.78329 26.818489 43.259039 25.90625 43.96875 C 24.993947 44.678471 23.98406 45.548953 22.84375 46.5625 C 21.703382 47.576051 20.527806 48.690918 19.3125 49.90625 C 18.097144 51.12158 16.988014 52.352128 16 53.59375 C 15.011942 54.835362 14.196432 56.070875 13.5625 57.3125 C 12.928529 58.554108 12.624981 59.717437 12.625 60.78125 C 12.624981 61.034818 12.740663 61.229195 12.96875 61.40625 C 13.196799 61.58328 13.445375 61.687487 13.75 61.6875 L 56.3125 61.6875 C 56.514993 61.687487 56.789081 61.577542 57.09375 61.375 L 58.375 61.90625 C 58.831071 62.159817 59.196875 62.049873 59.5 61.59375 C 59.753515 61.340157 59.906184 61.162992 59.90625 61.0625 C 59.906184 60.859932 59.807714 60.682768 59.65625 60.53125 C 59.656184 60.531238 59.595475 60.404082 59.46875 60.125 C 59.341894 59.845895 59.17124 59.56607 58.96875 59.3125 C 59.475846 59.41454 59.944311 59.529449 60.375 59.65625 L 61.03125 59.84375 C 61.436293 59.995269 61.777602 59.862375 62.03125 59.40625 C 62.182712 59.305735 62.249932 59.12857 62.25 58.875 C 62.249932 58.621409 62.207207 58.445791 62.15625 58.34375 C 62.105157 58.294261 61.928765 58.012889 61.625 57.53125 C 61.3211 57.049593 60.906834 56.410474 60.375 55.625 C 59.843033 54.839512 59.373795 54.127436 58.96875 53.46875 C 59.32277 53.51977 59.670589 53.58048 60 53.65625 L 60.5 53.78125 C 61.05812 53.9838 61.399428 53.81811 61.5 53.3125 C 61.653009 53.159419 61.718682 52.972326 61.71875 52.71875 C 61.718682 52.618241 61.712945 52.513261 61.6875 52.4375 C 61.66192 52.361731 61.624932 52.289547 61.625 52.1875 C 61.573907 52.136471 61.397516 51.850135 61.09375 51.34375 C 60.78985 50.837359 60.413345 50.179482 59.90625 49.34375 C 59.399023 48.508016 58.94777 47.752442 58.59375 47.09375 C 59.150326 47.194256 59.662288 47.267986 60.09375 47.34375 C 60.52508 47.419516 60.718683 47.468751 60.71875 47.46875 C 61.123794 47.621827 61.478123 47.444663 61.78125 46.9375 C 61.883233 46.785972 61.937432 46.621828 61.9375 46.46875 C 61.937432 46.216718 61.870212 46.028079 61.71875 45.875 C 61.667657 45.825524 61.442804 45.544152 61.0625 45.0625 C 60.682062 44.580855 60.20135 43.978724 59.59375 43.21875 C 58.986019 42.458787 58.456072 41.763923 58 41.15625 C 58.456072 41.256762 58.8646 41.312507 59.21875 41.3125 L 59.75 41.3125 C 60.306574 41.312507 60.616633 41.081144 60.71875 40.625 C 60.819188 40.575529 60.874933 40.452563 60.875 40.25 C 60.874933 40.045907 60.862685 39.882536 60.8125 39.78125 C 60.762181 39.679981 60.707209 39.600514 60.65625 39.5 C 60.605158 39.448984 60.380305 39.21762 60 38.8125 C 59.619563 38.4074 59.138851 37.840465 58.53125 37.15625 C 57.92352 36.472058 57.350848 35.869153 56.84375 35.3125 C 57.250344 35.312513 57.651588 35.324761 58.03125 35.375 C 58.410784 35.425265 58.593685 35.468763 58.59375 35.46875 C 58.998796 35.468763 59.297379 35.194675 59.5 34.6875 C 59.499935 34.587009 59.542659 34.525527 59.59375 34.5 C 59.64471 34.474501 59.656184 34.468764 59.65625 34.46875 C 59.656184 34.165705 59.523291 33.867121 59.21875 33.5625 C 59.16766 33.51149 58.892798 33.292374 58.4375 32.9375 C 57.982073 32.582658 57.434141 32.162655 56.75 31.65625 C 56.065734 31.149879 55.498799 30.729103 55.09375 30.375 C 55.498799 30.019387 55.852355 29.678852 56.15625 29.375 C 56.460021 29.071187 56.624937 28.93752 56.625 28.9375 C 56.827493 28.734965 56.937437 28.460876 56.9375 28.15625 L 56.9375 27.9375 C 56.886412 27.785991 56.825702 27.658061 56.75 27.53125 C 56.674172 27.404481 56.569192 27.289572 56.46875 27.1875 C 56.417662 27.138042 56.180561 26.983827 55.75 26.78125 C 55.319315 26.578717 54.789368 26.323631 54.15625 25.96875 C 53.523012 25.613915 52.987327 25.284854 52.53125 25.03125 C 52.936302 24.575138 53.302105 24.100163 53.65625 23.59375 C 54.010275 23.087387 54.18744 22.843776 54.1875 22.84375 C 54.340516 22.641221 54.40619 22.409857 54.40625 22.15625 L 54.40625 22 C 54.304139 21.746446 54.231955 21.570055 54.15625 21.46875 C 54.080425 21.3675 53.96397 21.299506 53.8125 21.25 C 53.71039 21.250027 53.412579 21.18358 52.90625 21.03125 C 52.399803 20.878975 51.766422 20.702583 51.03125 20.5 C 50.295964 20.297473 49.704534 20.133329 49.25 20.03125 C 49.401475 19.575143 49.529404 19.100168 49.65625 18.59375 C 49.782985 18.087392 49.874944 17.812531 49.875 17.8125 L 49.875 17.59375 C 49.874944 17.08662 49.655055 16.789583 49.25 16.6875 C 49.198919 16.687532 48.950344 16.626049 48.46875 16.5 C 47.987047 16.374015 47.36514 16.203361 46.65625 16 C 45.947254 15.796704 45.405059 15.631788 45 15.53125 C 45.049428 15.126173 45.062449 14.70617 45.0625 14.25 C 45.062449 13.742873 45.062449 13.500035 45.0625 13.5 C 45.062449 12.89237 44.80659 12.539587 44.25 12.4375 C 44.147899 12.437536 43.855826 12.388301 43.375 12.3125 C 42.894076 12.236771 42.272169 12.163814 41.5625 12.0625 C 40.852736 11.961259 40.311314 11.906287 39.90625 11.90625 C 39.8057 11.501176 39.744217 11.099159 39.71875 10.71875 C 39.693192 10.338417 39.687454 10.156288 39.6875 10.15625 C 39.636429 9.9042542 39.520747 9.6778547 39.34375 9.5 C 39.166662 9.3222235 38.929561 9.3042385 38.625 9.40625 L 34.59375 9.6875 C 34.239625 9.6875389 33.898316 9.6218652 33.59375 9.46875 C 33.59371 9.4687891 33.410809 9.4073065 33.03125 9.28125 C 32.651613 9.1552722 32.316042 9.0395904 32.0625 8.9375 L 31.53125 7.34375 C 31.024052 6.2289649 30.311975 5.2912624 29.375 4.53125 C 28.437954 3.7713258 27.085986 2.9550424 25.3125 2.09375 C 25.084417 1.966983 24.871562 1.9550985 24.65625 2.03125 z M 26.84375 5.28125 C 27.704963 5.8394796 28.301357 6.3506689 28.65625 6.78125 C 29.011073 7.2119148 29.308884 7.6376549 29.5625 8.09375 L 30.03125 9.46875 L 30.25 10.15625 C 30.350468 10.460894 30.570357 10.647987 30.875 10.75 L 33.0625 11.4375 C 36.15336 12.249304 39.192094 13.813878 42.15625 16.09375 C 45.12031 18.373687 47.696317 21.509874 49.875 25.5625 C 50.077499 25.867129 50.198918 26.073997 50.25 26.125 C 51.5163 28.45518 52.576195 31.159116 53.4375 34.25 C 53.437441 34.350519 53.449688 34.417739 53.5 34.46875 C 53.550193 34.519789 53.605165 34.587009 53.65625 34.6875 C 53.909771 35.550306 54.128887 36.420015 54.28125 37.28125 C 54.433493 38.142507 54.609884 39.069508 54.8125 40.03125 L 54.8125 40.09375 C 54.812439 40.296314 54.82546 40.460457 54.875 40.5625 C 54.97699 41.321703 55.086161 42.089525 55.1875 42.875 C 55.288716 43.660487 55.355163 44.482507 55.40625 45.34375 L 55.40625 45.5625 C 55.406189 45.765058 55.461934 45.886477 55.5625 45.9375 C 55.613464 46.900799 55.661926 47.838502 55.6875 48.75 C 55.712951 49.661498 55.718688 50.641925 55.71875 51.65625 L 55.71875 51.71875 L 55.71875 51.8125 C 55.718688 53.078853 55.675964 54.370111 55.625 55.6875 C 55.573913 57.004874 55.495219 58.307607 55.34375 59.625 L 14.90625 59.625 C 15.210835 58.409658 15.965636 57.045442 17.15625 55.5 C 18.346818 53.954544 19.655289 52.431922 21.125 50.9375 C 22.594657 49.443074 24.062307 48.059856 25.53125 46.84375 C 27.00013 45.627648 28.169969 44.745691 29.03125 44.1875 C 30.704228 43.123703 32.037438 41.649543 33 39.75 C 33.962485 37.850475 34.493205 35.749443 34.59375 33.46875 C 35.861612 32.507015 36.932208 31.3799 37.84375 30.0625 C 38.755204 28.745137 39.505041 27.393942 40.0625 26 C 40.619867 24.606103 41.03336 23.260645 41.3125 21.96875 C 41.591546 20.676908 41.718702 19.55553 41.71875 18.59375 C 41.718702 18.3402 41.60302 18.103099 41.375 17.875 C 41.146885 17.646963 40.909784 17.531281 40.65625 17.53125 C 40.300572 17.531281 40.051997 17.646963 39.875 17.875 C 39.697912 18.103099 39.593704 18.3402 39.59375 18.59375 C 39.593704 19.404001 39.410803 20.652534 39.03125 22.375 C 38.651607 24.097518 37.951006 25.845767 36.9375 27.59375 C 35.923908 29.341775 34.560466 30.870135 32.8125 32.1875 C 31.064457 33.504898 28.786261 34.156264 26 34.15625 C 25.644337 34.156264 25.230845 34.083307 24.75 33.90625 C 24.269094 33.729222 23.878551 33.503596 23.625 33.25 C 23.066784 32.64235 22.598319 31.941748 22.21875 31.15625 C 21.839124 30.370786 21.698947 29.548766 21.75 28.6875 C 21.749972 28.382914 21.707248 28.097351 21.65625 27.84375 C 21.605197 27.59019 21.472303 27.468771 21.21875 27.46875 C 20.915663 27.468771 20.744236 27.572205 20.71875 27.75 C 20.693211 27.927836 20.687473 28.15269 20.6875 28.40625 C 20.636448 29.419046 20.703668 30.418231 20.90625 31.40625 C 21.108778 32.394303 21.517307 33.239273 22.125 34 C 21.568332 34.252049 20.916192 34.606378 20.15625 35.0625 C 19.396256 35.518649 18.634945 36.091321 17.875 36.75 C 17.115008 37.408703 16.371682 38.163503 15.6875 39 C 15.003275 39.836516 14.479065 40.768481 14.125 41.78125 L 13.75 42.84375 C 13.547425 43.551926 13.371034 43.929977 13.21875 44.03125 C 13.066428 44.132532 12.878562 44.187504 12.625 44.1875 C 12.372947 44.187504 12.153058 44.131759 12 44.03125 C 11.797427 43.828699 11.614525 43.518641 11.4375 43.0625 C 11.26044 42.60637 11.211978 41.856533 11.3125 40.84375 C 11.414533 40.134042 11.584414 39.610605 11.8125 39.28125 C 12.04055 38.951914 12.277651 38.581146 12.53125 38.125 C 12.936342 37.7199 13.326885 37.26291 13.65625 36.78125 C 13.985576 36.299614 14.180725 35.64251 14.28125 34.78125 C 14.28123 34.376154 14.049866 34.034845 13.59375 33.78125 C 13.442201 33.68076 13.259299 33.668513 13.03125 33.71875 C 12.803163 33.769017 12.608787 33.846939 12.40625 34 C 11.849592 34.556655 11.264672 35.203057 10.65625 35.9375 C 10.047795 36.671968 9.4086761 37.415294 8.75 38.125 C 8.4469257 38.530121 8.0868594 38.955861 7.65625 39.4375 C 7.2256135 39.919157 6.8178584 40.376148 6.4375 40.78125 C 6.0571169 41.186368 5.7043341 41.527676 5.375 41.78125 C 5.0456433 42.034837 4.7765192 42.156256 4.625 42.15625 C 4.4719134 42.156256 4.4062397 42.113532 4.40625 42.0625 C 4.3057352 41.960456 4.1892802 41.784064 4.0625 41.53125 C 3.9356998 41.27845 3.8749902 40.736255 3.875 39.875 C 3.8749902 39.621428 3.9177148 39.44581 3.96875 39.34375 C 3.9687401 38.382009 4.1688538 37.284354 4.625 36.09375 C 5.081125 34.903171 5.6660447 33.673395 6.375 32.40625 C 7.0839307 31.139137 7.8887394 29.891376 8.75 28.625 C 9.6112312 27.358664 10.451237 26.188825 11.3125 25.125 C 11.819644 24.515812 12.556459 23.645329 13.46875 22.53125 C 14.381002 21.417223 15.336689 20.296618 16.375 19.15625 C 17.413266 18.01594 18.412451 16.974804 19.375 16.0625 C 20.337498 15.150261 21.098036 14.608839 21.65625 14.40625 C 22.061333 14.203729 22.281222 13.837925 22.28125 13.28125 C 22.230196 11.963904 22.07179 10.861284 21.84375 10 C 21.615654 9.1387927 21.311333 8.3232825 20.90625 7.5625 C 21.057753 7.6645917 21.19142 7.7737632 21.34375 7.875 C 21.496026 7.9763183 21.703667 8.087036 21.90625 8.1875 L 22.28125 8.40625 C 22.737357 8.7603751 23.084403 9.0532215 23.3125 9.28125 C 23.540539 9.5093571 23.84486 9.8022035 24.25 10.15625 L 25 11.21875 C 25.303029 11.623898 25.711557 11.691118 26.21875 11.4375 C 26.472298 11.388058 26.642952 11.271603 26.71875 11.09375 C 26.794482 10.915972 26.843717 10.722369 26.84375 10.46875 L 26.84375 7.1875 L 26.84375 5.8125 L 26.84375 5.28125 z M 26.75 17.28125 C 25.179005 17.230256 23.942719 17.407421 23.03125 17.8125 C 22.119723 18.217641 21.413384 18.668894 20.90625 19.125 C 19.944473 20.037301 19.468725 21.10867 19.46875 22.375 C 19.468725 23.135768 19.780329 23.531275 20.4375 23.53125 C 20.539524 23.531275 20.599461 23.48855 20.625 23.4375 C 20.650486 23.3865 20.698948 23.375025 20.75 23.375 L 20.75 23.53125 C 20.749973 24.239445 21.091282 24.593774 21.75 24.59375 C 22.965303 24.695825 23.909516 24.591617 24.59375 24.3125 C 25.277923 24.033431 25.80787 23.662663 26.1875 23.15625 C 26.567065 22.649888 26.816414 22.082953 26.96875 21.5 C 27.12102 20.917101 27.230191 20.380643 27.28125 19.875 L 27.59375 18.59375 C 27.694221 18.391225 27.640022 18.049917 27.4375 17.59375 C 27.234912 17.391226 27.003548 17.281281 26.75 17.28125 z M 47.34375 18.28125 C 47.445747 18.330759 47.542671 18.34378 47.59375 18.34375 L 47.59375 18.5 C 47.44062 18.50003 47.343697 18.43281 47.34375 18.28125 z M 25.3125 19.5 L 25.3125 19.5625 C 25.109914 20.575305 24.829315 21.374376 24.5 21.90625 C 24.170624 22.438177 23.337129 22.631781 21.96875 22.53125 C 21.866671 22.429225 21.800225 22.417751 21.75 22.46875 C 21.69972 22.519801 21.602023 22.575547 21.5 22.625 L 21.5 22.375 L 21.5 22.3125 C 21.499973 22.058946 21.597669 21.766873 21.75 21.4375 C 21.902275 21.108182 22.078667 20.814562 22.28125 20.5625 C 22.686332 20.206897 23.15557 19.964059 23.6875 19.8125 C 24.219371 19.660999 24.754282 19.551054 25.3125 19.5 z M 44.78125 23.53125 C 44.527619 23.429224 44.356965 23.551417 44.28125 23.90625 C 44.205435 24.261133 44.100455 24.558943 44 24.8125 C 43.846874 25.571719 43.610546 26.388775 43.28125 27.25 C 42.951855 28.111267 42.549838 28.927551 42.09375 29.6875 C 41.637566 30.447487 41.144606 31.104591 40.5625 31.6875 C 39.980301 32.270443 39.334672 32.683935 38.625 32.9375 C 38.371375 33.03802 38.103024 33.209447 37.875 33.4375 C 37.646888 33.665583 37.641151 33.902684 37.84375 34.15625 C 37.996782 34.307794 38.172401 34.412002 38.375 34.4375 C 38.577511 34.463027 38.743201 34.468764 38.84375 34.46875 C 40.009557 33.961603 40.958734 33.328222 41.71875 32.59375 C 42.478671 31.85931 43.106315 31.097999 43.5625 30.3125 C 44.018586 29.527037 44.328644 28.747741 44.53125 27.9375 C 44.733755 27.1273 44.910919 26.365989 45.0625 25.65625 C 45.1645 25.351667 45.212962 24.938175 45.1875 24.40625 C 45.161936 23.874374 45.03478 23.580754 44.78125 23.53125 z M 15.46875 23.71875 C 15.139383 23.744288 14.858785 23.859969 14.65625 24.0625 C 14.402649 24.26508 14.031881 24.612125 13.5 25.09375 C 12.96808 25.575422 12.388898 26.122581 11.78125 26.78125 C 11.173567 27.439963 10.58291 28.189799 10 29 C 9.4170582 29.81024 8.9478204 30.638771 8.59375 31.5 C 8.4406595 31.753598 8.3749857 32.162126 8.375 32.71875 C 8.3749857 33.225927 8.4964049 33.567235 8.75 33.71875 C 8.9030614 33.76979 9.0302178 33.708308 9.15625 33.53125 C 9.282252 33.354223 9.4044443 33.128596 9.53125 32.875 C 9.6580248 32.621435 9.7737066 32.384334 9.875 32.15625 C 9.9762618 31.928199 10.073959 31.756771 10.125 31.65625 C 10.479069 31.098081 10.789127 30.623879 11.09375 30.21875 C 11.398339 29.813658 11.794619 29.393655 12.25 28.9375 C 12.705344 28.481384 13.235292 27.957174 13.84375 27.375 C 14.452169 26.792869 15.225728 26.050316 16.1875 25.1875 C 16.694639 24.833438 16.694639 24.467635 16.1875 24.0625 C 16.035948 23.808944 15.798074 23.693262 15.46875 23.71875 z M 46.8125 28.625 C 46.558867 28.522969 46.376738 28.760843 46.25 29.34375 C 46.123158 29.926695 46.049427 30.450132 46 30.90625 C 45.948923 31.159848 45.680572 31.634823 45.25 32.34375 C 44.819326 33.052709 44.235179 33.764785 43.5 34.5 C 42.764722 35.235243 41.942701 35.880099 41.03125 36.4375 C 40.119705 36.994925 39.157507 37.281261 38.09375 37.28125 C 37.738075 37.281261 37.26961 37.391206 36.6875 37.59375 C 36.105305 37.796316 35.812458 38.040701 35.8125 38.34375 C 35.812458 38.496836 35.92814 38.611745 36.15625 38.6875 C 36.384276 38.763275 36.634398 38.81251 36.9375 38.8125 C 37.242063 38.81251 37.545611 38.775523 37.875 38.75 C 38.204302 38.724497 38.473426 38.71876 38.625 38.71875 C 40.195917 38.364675 41.49865 37.895437 42.5625 37.3125 C 43.626253 36.729585 44.497508 36.072482 45.15625 35.3125 C 45.81489 34.552545 46.295602 33.741999 46.625 32.90625 C 46.954293 32.070532 47.192167 31.236264 47.34375 30.375 C 47.546252 29.665302 47.588976 29.196837 47.4375 28.96875 C 47.285917 28.740702 47.066028 28.62502 46.8125 28.625 z "
           inkscape:radius="1.5"
           sodipodi:type="inkscape:offset" />
      </g>
      <g
         style="fill:#ffffff"
         transform="translate(71.596944,-30.0609)"
         id="layer1-4-0"
         inkscape:label="Layer 1">
        <path
           transform="translate(4.2986354,27.8954)"
           d="M 24.15625,0.625 C 23.540999,0.84260181 23.12449,1.257624 22.8125,1.6875 l 0.03125,0.03125 C 22.827905,1.7400881 22.762363,1.7620771 22.75,1.78125 22.588324,2.0319725 22.532215,2.1774914 22.5,2.3125 22.435569,2.5825172 22.437478,2.777971 22.4375,3 22.437449,3.6008027 22.710968,4.222497 23.125,4.71875 22.708791,4.4509138 22.309632,4.179166 21.84375,3.9375 20.93465,3.4660772 19.830752,3.1744864 18.4375,2.90625 A 1.50015,1.50015 0 0 0 18.375,2.875 C 17.396048,2.7340602 16.506531,3.290999 15.96875,3.90625 a 1.50015,1.50015 0 0 0 -0.375,0.96875 c 0.0029,-0.038867 0.04519,-0.487824 0.375,-0.8125 -0.444746,0.4381917 -0.531367,0.7914345 -0.53125,1.3125 -7.4e-5,0.8145334 0.41333,1.3707385 0.78125,1.75 0.01858,0.01915 0.04426,0.044268 0.0625,0.0625 0.802967,0.9025695 1.377229,1.734296 1.71875,2.4375 0.241712,0.497795 0.405067,1.523632 0.53125,2.625 -1.295051,0.96548 -2.644633,2.072791 -4.21875,3.84375 -1.827636,2.056195 -3.708707,4.345588 -5.625,6.8125 -0.024315,0.0313 -0.03817,0.06238 -0.0625,0.09375 -0.4162329,0.484267 -0.9695231,1.200201 -1.78125,2.28125 -0.8706672,1.159553 -1.7772039,2.491305 -2.6875,4 -0.9221755,1.528383 -1.7638851,3.165151 -2.5,4.875 -0.65944542,1.531748 -0.92554758,2.950714 -1.0625,4.34375 -0.1470209,0.227905 -0.21007422,0.434629 -0.25,0.59375 -0.0745549,0.297132 -0.0937556,0.525055 -0.09375,0.78125 -8.62e-6,1.076082 0.11329626,1.975109 0.40625,2.78125 0.2343568,0.644962 0.4968378,1.214484 0.8125,1.71875 a 1.50015,1.50015 0 0 0 0.21875,0.28125 c 0.4254575,0.42809 0.974614,0.763833 1.59375,0.90625 0.482475,0.111001 0.9375278,0.125005 1.34375,0.125 1.1385104,6e-6 2.2367086,-0.489092 3.1875,-1.28125 0.1100094,-0.09166 0.2328643,-0.246067 0.34375,-0.34375 0.060618,0.178142 0.017415,0.427096 0.09375,0.59375 0.2930042,0.639766 0.5531285,1.156747 0.84375,1.59375 a 1.50015,1.50015 0 0 0 0.1875,0.21875 c 0.88412,0.884147 2.086197,1.437503 3.34375,1.4375 0.755144,3e-6 1.48635,-0.13547 2.125,-0.5 0.495342,-0.282757 0.945424,-0.666026 1.3125,-1.15625 0.313469,-0.418701 0.568236,-0.854991 0.75,-1.25 0.171338,-0.372446 0.286523,-0.738266 0.40625,-1.09375 A 1.50015,1.50015 0 0 0 17.25,43.8125 l 0.15625,-0.625 c 0.0034,-0.0078 -0.0034,-0.02351 0,-0.03125 0.296185,-0.671917 0.688742,-1.306763 1.21875,-1.96875 0.542234,-0.677295 1.18733,-1.300658 1.84375,-1.84375 0.6942,-0.574369 1.335355,-1.055975 2,-1.46875 0.551062,-0.342242 0.989693,-0.574375 1.40625,-0.78125 0.696125,0.273307 1.385182,0.625011 2.125,0.625 1.496058,8e-6 2.883163,-0.234161 4.21875,-0.59375 -0.102975,0.302704 -0.1672,0.593449 -0.3125,0.90625 -0.283191,0.60953 -0.631562,1.217937 -1.09375,1.8125 -0.390347,0.502089 -0.901916,0.953202 -1.5625,1.375 -0.02149,0.01372 -0.04073,0.01762 -0.0625,0.03125 -0.583193,0.32741 -1.26454,0.813198 -2.1875,1.53125 -0.958033,0.745296 -2.006002,1.63387 -3.15625,2.65625 -1.166009,1.036341 -2.360776,2.17325 -3.59375,3.40625 -1.250685,1.250658 -2.40959,2.520742 -3.4375,3.8125 -1.03955,1.306318 -1.906162,2.622034 -2.59375,3.96875 -0.718353,1.406867 -1.093774,2.807078 -1.09375,4.15625 -5.3e-5,0.709842 0.483413,1.46001 0.9375,1.8125 0.419887,0.32595 1.040827,0.593722 1.6875,0.59375 l 42.5625,0 c 0.31705,-2e-5 0.460532,-0.171317 0.6875,-0.25 l 0.65625,0.28125 0.15625,0.0625 0,-0.03125 c 0.44834,0.215345 1.014799,0.382805 1.59375,0.21875 0.528154,-0.149661 0.850851,-0.499517 1.125,-0.84375 l 0.03125,0.03125 c 0.06679,-0.06681 0.124189,-0.151269 0.1875,-0.21875 0.073,-0.07781 0.143051,-0.154053 0.21875,-0.25 0.118237,-0.149862 0.305485,-0.426024 0.375,-0.9375 0.289309,0.004 0.564595,0.08746 0.84375,-0.03125 0.317787,-0.13514 0.449567,-0.39973 0.65625,-0.625 l 0.03125,0.0625 c 0.131232,-0.08709 0.182408,-0.231201 0.28125,-0.34375 0.0471,-0.07032 0.148258,-0.116932 0.1875,-0.1875 L 63.3125,60.09375 c 0.275147,-0.417631 0.437405,-0.866284 0.4375,-1.21875 -1.13e-4,-0.421885 -0.04143,-0.769847 -0.25,-1.1875 a 1.50015,1.50015 0 0 0 -0.1875,-0.28125 c 0.004,0.0057 -0.032,-0.05982 -0.03125,-0.0625 A 1.50015,1.50015 0 0 0 63.25,57.3125 c -0.0071,-0.01082 0.0079,-0.01903 0,-0.03125 -0.07904,-0.122182 -0.191445,-0.32101 -0.34375,-0.5625 -0.257799,-0.40859 -0.650386,-0.97762 -1.0625,-1.59375 0.649966,-0.328999 1.019768,-1.002211 1.125,-1.53125 L 62.875,53.5625 c 0.115312,-0.301437 0.34368,-0.581734 0.34375,-0.84375 -9.7e-5,-0.144009 0.0083,-0.344456 -0.09375,-0.6875 A 1.50015,1.50015 0 0 0 63.09375,51.96875 1.50015,1.50015 0 0 0 62.8125,51.25 c 0.0026,0.0039 -0.03449,-0.03307 -0.03125,-0.03125 A 1.50015,1.50015 0 0 0 62.71875,51.125 c -0.0775,-0.123771 -0.193595,-0.312188 -0.34375,-0.5625 -0.253448,-0.422322 -0.608457,-1.045853 -1.03125,-1.75 0.216255,-0.03228 0.436857,0.06282 0.625,-0.03125 0.505198,-0.252599 0.791565,-0.615615 1.03125,-1 l 0.03125,0 c 0.0036,-0.0058 -0.0036,-0.02542 0,-0.03125 0.0069,-0.01043 0.02452,-0.0207 0.03125,-0.03125 0.224792,-0.352175 0.374786,-0.768762 0.375,-1.25 -1.4e-4,-0.518542 -0.227514,-1.222937 -0.65625,-1.65625 a 1.50015,1.50015 0 0 0 -0.03125,0 c 0.205327,0.198829 0.04106,0.0036 -0.0625,-0.125 -0.103563,-0.128572 -0.248413,-0.323022 -0.4375,-0.5625 -0.345005,-0.436786 -0.821195,-1.002453 -1.34375,-1.65625 0.12661,-0.05861 0.254665,-0.03854 0.375,-0.125 0.270371,-0.19427 0.34408,-0.504555 0.5,-0.78125 0.390037,-0.426366 0.593632,-0.95433 0.59375,-1.3125 -8.7e-5,-0.263842 0.07321,-0.535754 -0.21875,-1.125 C 62.051358,38.913901 61.998408,38.809361 62,38.8125 a 1.50015,1.50015 0 0 0 -0.28125,-0.375 c -0.0036,-0.0036 -0.251575,-0.258459 -0.625,-0.65625 -0.269284,-0.286742 -0.698677,-0.791895 -1.15625,-1.3125 0.05273,-0.03804 0.139976,-0.02087 0.1875,-0.0625 0.285171,-0.249787 0.413493,-0.55328 0.5625,-0.84375 a 1.50015,1.50015 0 0 0 0.03125,-0.03125 1.50015,1.50015 0 0 0 0.15625,-0.21875 1.50015,1.50015 0 0 0 0.03125,-0.0625 1.50015,1.50015 0 0 0 0.25,-0.78125 C 61.156089,33.727394 60.778032,32.996912 60.28125,32.5 60.063857,32.282948 60.046932,32.299943 59.90625,32.1875 59.765568,32.075057 59.605278,31.929486 59.375,31.75 c -0.462878,-0.360648 -1.023664,-0.797993 -1.71875,-1.3125 -0.108806,-0.08052 -0.148245,-0.111782 -0.25,-0.1875 0.02838,-0.02649 0.07382,-0.07579 0.09375,-0.09375 0.05978,-0.05388 0.0625,-0.0625 0.0625,-0.0625 A 1.50015,1.50015 0 0 0 57.6875,30 c 0.488962,-0.489063 0.749862,-1.178395 0.75,-1.84375 l 0,-0.21875 a 1.50015,1.50015 0 0 0 -0.09375,-0.46875 c -0.08436,-0.250193 -0.19013,-0.513764 -0.3125,-0.71875 -0.183925,-0.307486 -0.371301,-0.494213 -0.5,-0.625 a 1.50015,1.50015 0 0 0 -0.03125,0 C 57.201053,25.835591 57.16608,25.847381 57,25.75 c -0.16608,-0.09738 -0.373018,-0.193943 -0.625,-0.3125 -0.420577,-0.19778 -0.910878,-0.45103 -1.5,-0.78125 -0.03614,-0.02025 -0.05816,-0.04236 -0.09375,-0.0625 0.03023,-0.04256 0.06381,-0.08219 0.09375,-0.125 0.174412,-0.249462 0.320424,-0.442122 0.40625,-0.5625 0.06932,-0.09723 0.08142,-0.139246 0.09375,-0.15625 a 1.50015,1.50015 0 0 1 0.03125,-0.03125 c 0.342261,-0.470713 0.499882,-1.062204 0.5,-1.5625 l 0,-0.15625 A 1.50015,1.50015 0 0 0 55.8125,21.4375 c -0.103566,-0.257168 -0.166942,-0.471135 -0.46875,-0.875 -0.324402,-0.433178 -0.741325,-0.645028 -1.0625,-0.75 A 1.50015,1.50015 0 0 0 53.84375,19.75 c 0.107186,0.02539 0.24345,-7.3e-5 -0.03125,0 -0.108641,-0.02635 -0.248932,-0.09012 -0.46875,-0.15625 -0.530809,-0.1596 -1.168813,-0.328043 -1.90625,-0.53125 -0.125274,-0.0345 -0.194833,-0.06134 -0.3125,-0.09375 0.05814,-0.232298 0.09164,-0.417865 0.125,-0.53125 0.03336,-0.113385 0.0625,-0.15625 0.0625,-0.15625 A 1.50015,1.50015 0 0 0 51.375,17.8125 l 0,-0.21875 C 51.374948,17.12342 51.263626,16.589467 50.9375,16.125 50.611374,15.660533 50.099468,15.338327 49.625,15.21875 a 1.50015,1.50015 0 0 0 -0.15625,0 c 0.0047,9.63e-4 -0.06574,-0.02558 -0.15625,-0.03125 -0.110531,-0.02722 -0.257784,-0.06978 -0.46875,-0.125 -0.466665,-0.122052 -1.082075,-0.299426 -1.78125,-0.5 -0.207477,-0.05949 -0.318262,-0.103242 -0.5,-0.15625 3.35e-4,-0.0514 -6e-6,-0.104789 0,-0.15625 -2.5e-5,-0.253539 0,-0.438498 0,-0.5625 0,-0.124002 0,-0.1875 0,-0.1875 -4.3e-5,-0.514329 -0.112049,-1.111072 -0.5,-1.625 -0.387951,-0.513928 -0.991501,-0.807252 -1.53125,-0.90625 A 1.50015,1.50015 0 0 0 44.25,10.9375 c 0.190563,-6.7e-5 0.06739,-0.01186 -0.0625,-0.03125 -0.129888,-0.01939 -0.350139,-0.0241 -0.59375,-0.0625 -0.530976,-0.08361 -1.124469,-0.183025 -1.8125,-0.28125 -0.222567,-0.03175 -0.364718,-0.03867 -0.5625,-0.0625 -0.0065,-0.105106 -0.02835,-0.222878 -0.03125,-0.28125 -0.0042,-0.0841 0,-0.125 0,-0.125 a 1.50015,1.50015 0 0 0 -0.03125,-0.25 C 41.052333,9.3310004 40.801693,8.8348593 40.40625,8.4375 40.099332,8.129389 39.640319,7.8930296 39.21875,7.84375 38.945378,7.8117939 38.746487,7.8919766 38.53125,7.9375 l 0,-0.03125 -3.9375,0.28125 c -0.04863,5.3e-6 -0.05582,0.00429 -0.09375,0 C 34.406435,8.1769114 34.321488,8.145229 34.28125,8.125 A 1.50015,1.50015 0 0 0 33.9375,8 c -0.006,-0.00199 -0.02492,0.00211 -0.03125,0 C 33.812611,7.9687329 33.678536,7.9030443 33.5,7.84375 33.393719,7.8084818 33.346041,7.7828506 33.25,7.75 L 32.96875,6.875 A 1.50015,1.50015 0 0 0 32.90625,6.71875 C 32.311198,5.4108692 31.42951,4.2810452 30.3125,3.375 29.250165,2.5134688 27.834135,1.6610977 26.03125,0.78125 26.006163,0.76900688 25.993989,0.7622573 25.96875,0.75 l 0,0.03125 C 25.431389,0.50650922 24.692442,0.43535986 24.15625,0.625 z m 4.1875,8.5 0.28125,0.8125 -0.03125,0 0.21875,0.6875 c 0.247144,0.749402 0.971551,1.35415 1.59375,1.5625 a 1.50015,1.50015 0 0 0 0.03125,0 l 2.1875,0.6875 a 1.50015,1.50015 0 0 0 0.0625,0 c 2.405906,0.631903 4.802201,1.895094 7.1875,3.53125 -0.434124,0.156166 -0.920294,0.218241 -1.1875,0.5625 -0.311063,0.400666 -0.593871,0.960285 -0.59375,1.625 -3.3e-5,0.584605 -0.162685,1.796147 -0.53125,3.46875 -0.342072,1.55205 -0.991226,3.149222 -1.9375,4.78125 C 34.713895,28.415027 33.508298,29.792607 31.90625,31 30.46868,32.083413 28.552479,32.656263 26,32.65625 25.849512,32.656256 25.625815,32.626876 25.28125,32.5 24.941025,32.374759 24.711054,32.211058 24.6875,32.1875 24.254209,31.706014 23.873105,31.14278 23.5625,30.5 23.298346,29.953453 23.21188,29.424334 23.25,28.78125 a 1.50015,1.50015 0 0 0 0,-0.09375 c -4.1e-5,-0.444769 -0.06302,-0.816775 -0.125,-1.125 -0.06609,-0.328254 -0.230295,-0.781485 -0.625,-1.125 -0.394705,-0.343515 -0.91506,-0.46872 -1.28125,-0.46875 -0.322158,2.2e-5 -0.68212,0.04541 -1.09375,0.28125 -0.41163,0.235837 -0.832275,0.76519 -0.90625,1.28125 -0.04303,0.299629 -0.03103,0.556392 -0.03125,0.8125 -5.24e-4,0.01039 5.01e-4,0.02086 0,0.03125 -2e-6,0.0098 -1e-6,0.02139 0,0.03125 -0.05106,1.107701 0.02479,2.214115 0.25,3.3125 0.125204,0.610818 0.491613,1.081548 0.75,1.625 -0.27574,0.153647 -0.510889,0.256471 -0.8125,0.4375 -0.855983,0.513762 -1.659298,1.142161 -2.46875,1.84375 -0.801389,0.694583 -1.587397,1.496857 -2.3125,2.375 0.09956,-0.13108 0.218804,-0.237979 0.3125,-0.375 0.532284,-0.77846 0.758745,-1.660219 0.875,-2.65625 a 1.50015,1.50015 0 0 0 0,-0.1875 c -4.6e-5,-0.929808 -0.652277,-1.769671 -1.375,-2.21875 l 0.03125,-0.03125 c -0.02012,-0.01334 -0.04206,0.0124 -0.0625,0 -0.02413,-0.01447 -0.03819,-0.04899 -0.0625,-0.0625 L 14.28125,32.5 c -0.535593,-0.281468 -1.160347,-0.33859 -1.5625,-0.25 -0.371345,0.08184 -0.843289,0.278757 -1.21875,0.5625 a 1.50015,1.50015 0 0 0 -0.15625,0.125 c -0.125079,0.125078 -0.248233,0.304956 -0.375,0.4375 0.101531,-0.205491 0.188961,-0.417191 0.28125,-0.625 0.04824,-0.108643 0.104476,-0.182859 0.15625,-0.28125 0.02248,-0.04272 0.0355,-0.07182 0.0625,-0.125 0.309076,-0.4844 0.574507,-0.902235 0.8125,-1.21875 0.228316,-0.303651 0.593719,-0.686725 1.03125,-1.125 0.450204,-0.450967 0.964677,-0.959252 1.5625,-1.53125 0.609918,-0.583565 1.371562,-1.312125 2.3125,-2.15625 l -0.03125,-0.03125 c 0.424661,-0.332839 0.90625,-0.838873 0.90625,-1.625 0,-0.618656 -0.287741,-1.041174 -0.59375,-1.375 C 17.346055,23.147402 17.2468,22.972301 17.125,22.875 l -0.0625,0.0625 c -0.402153,-0.370195 -0.892714,-0.609186 -1.40625,-0.65625 0.596575,-0.704649 1.161587,-1.410107 1.8125,-2.125 1.021733,-1.122152 2.012332,-2.123126 2.9375,-3 0.891232,-0.844694 1.586701,-1.284485 1.75,-1.34375 A 1.50015,1.50015 0 0 0 22.3125,15.75 c 0.857082,-0.428498 1.468702,-1.517104 1.46875,-2.46875 a 1.50015,1.50015 0 0 0 0,-0.0625 c -0.02129,-0.549331 -0.132704,-0.919063 -0.1875,-1.40625 l 0.1875,0.28125 A 1.50015,1.50015 0 0 0 23.8125,12.125 c 0.321326,0.429611 0.857503,0.830082 1.46875,0.9375 0.467666,0.08219 0.839569,-0.08008 1.21875,-0.21875 l 0,0.0625 c 0.07669,-0.01496 0.168732,-0.06768 0.25,-0.09375 0.03677,-0.01676 0.08965,-0.01357 0.125,-0.03125 l 0,-0.03125 c 0.480714,-0.185729 0.979633,-0.501435 1.21875,-1.0625 0.137752,-0.323367 0.249942,-0.771101 0.25,-1.21875 l 0,-1.34375 z M 26.75,15.78125 C 25.070217,15.732415 23.644571,15.901048 22.4375,16.4375 21.411027,16.893731 20.56253,17.409755 19.90625,18 A 1.50015,1.50015 0 0 0 19.875,18.03125 c -1.208004,1.145861 -1.906282,2.701713 -1.90625,4.34375 -1.9e-5,0.585188 0.120167,1.23853 0.59375,1.8125 0.276995,0.335711 0.697167,0.367109 1.09375,0.5 0.101059,0.225258 0.06503,0.460866 0.25,0.65625 0.472251,0.49884 1.146749,0.661089 1.71875,0.6875 l 0,0.0625 c 0.03576,0.003 0.05827,-0.0027 0.09375,0 0.01183,9.07e-4 0.01945,-8.75e-4 0.03125,0 1.303365,0.09671 2.431345,-0.0086 3.40625,-0.40625 0.863565,-0.352242 1.648026,-0.863674 2.21875,-1.625 0.512753,-0.684043 0.837829,-1.447326 1.03125,-2.1875 0.148197,-0.567306 0.276565,-1.105692 0.34375,-1.65625 0.0075,-0.06183 0.025,-0.125631 0.03125,-0.1875 L 29.0625,18.9375 29,18.90625 C 29.246015,18.11765 29.050407,17.535869 28.8125,17 A 1.50015,1.50015 0 0 0 28.5,16.53125 C 28.100726,16.132102 27.471264,15.836046 26.8125,15.8125 l 0,-0.03125 c -0.02245,-7.29e-4 -0.04014,6.5e-4 -0.0625,0 z M 47.59375,17 c 0.142984,-2.8e-5 0.45663,0.01366 0.78125,0.28125 0.32462,0.267586 0.468835,0.755951 0.46875,1 l -1.25,0 0,-1.28125 z m -4.4375,2.15625 c 1.973134,1.921026 3.820053,4.174474 5.40625,7.125 a 1.50015,1.50015 0 0 0 0.0625,0.125 c 0.09111,0.137057 0.150613,0.238148 0.21875,0.34375 0.01612,0.02499 0.08516,0.07435 0.09375,0.09375 0.0045,0.01009 0.02605,0.05167 0.03125,0.0625 1.188605,2.199003 2.201577,4.772632 3.03125,7.75 L 52.09375,34.625 c 0.02392,0.148702 0.107632,0.28837 0.1875,0.46875 l -0.0625,0.03125 c 0.242563,0.825512 0.454186,1.61736 0.59375,2.40625 0.141107,0.798261 0.315975,1.674649 0.5,2.5625 -1.8e-5,0.05997 0.06459,0.185539 0.0625,0.25 -0.0033,0.102881 0.04008,0.270547 0.0625,0.40625 l -0.0625,0 c 0.103028,0.766926 0.212781,1.539581 0.3125,2.3125 0.09118,0.70763 0.169718,1.477274 0.21875,2.28125 0.002,0.03275 -0.002,0.06084 0,0.09375 l 0,0.125 c -5.4e-5,0.180706 0.07616,0.44554 0.15625,0.6875 0.04628,0.880443 0.102083,1.714456 0.125,2.53125 0.02479,0.887786 0.03119,1.866272 0.03125,2.875 l 0,0.0625 0,0.09375 c -6e-5,1.232665 -0.043,2.500586 -0.09375,3.8125 -0.03269,0.843062 -0.120739,1.675166 -0.1875,2.5 l -36.53125,0 c 0.322705,-0.578266 0.403715,-1.025886 0.9375,-1.71875 1.156991,-1.50187 2.419112,-2.957658 3.84375,-4.40625 1.44405,-1.468388 2.895884,-2.827215 4.3125,-4 1.441947,-1.193804 2.567407,-2.059357 3.34375,-2.5625 l 0,0.03125 c 1.897969,-1.206862 3.426446,-2.912673 4.5,-5.03125 0.175788,-0.346929 0.256748,-0.73497 0.40625,-1.09375 0.05163,0.07251 0.03624,0.192589 0.09375,0.25 0.29281,0.292317 0.586383,0.445779 0.84375,0.53125 0.355012,0.117974 0.784434,0.187515 1.25,0.1875 0.426039,1.4e-5 0.773628,-0.04012 1.0625,-0.0625 0.28384,-0.02198 0.511158,-0.03124 0.625,-0.03125 a 1.50015,1.50015 0 0 0 0.34375,-0.03125 c 1.674697,-0.377466 3.09358,-0.894592 4.3125,-1.5625 1.177669,-0.645339 2.192795,-1.412488 3,-2.34375 0.767785,-0.885889 1.359368,-1.821387 1.75,-2.8125 0.344181,-0.873504 0.579785,-1.779793 0.75,-2.6875 0.0097,-0.05171 0.02212,-0.104389 0.03125,-0.15625 0.09459,-0.349623 0.193258,-0.681067 0.21875,-1.03125 0.02934,-0.403111 0.02977,-0.906316 -0.34375,-1.46875 -0.29353,-0.4416 -0.810234,-0.696437 -1.34375,-0.84375 l 0.03125,-0.0625 c -0.05675,-0.02283 -0.152925,0.01762 -0.21875,0 -0.11643,-0.02115 -0.22871,-0.09374 -0.34375,-0.09375 l 0,0.09375 c -0.193387,-0.01637 -0.363898,-0.08334 -0.5625,-0.03125 0.08267,-0.353951 0.177766,-0.728498 0.25,-1.0625 0.002,-0.0093 -0.002,-0.02194 0,-0.03125 0.01293,-0.03971 0.01971,-0.08501 0.03125,-0.125 0.147669,-0.511686 0.185035,-1.023646 0.15625,-1.625 -0.01787,-0.371839 -0.05155,-0.752715 -0.25,-1.1875 C 46.271567,22.792714 45.776339,22.457126 45.28125,22.25 l 0.0625,-0.125 c -0.06339,-0.0255 -0.172129,-0.01313 -0.25,-0.03125 -0.0096,-0.0022 -0.02146,0.0021 -0.03125,0 -0.445754,-0.09596 -1.050891,-0.08295 -1.5,0.25 -0.53893,0.399539 -0.671479,0.882016 -0.75,1.25 -0.05253,0.24589 -0.134627,0.443915 -0.21875,0.65625 a 1.50015,1.50015 0 0 0 -0.0625,0.28125 c -0.135225,0.670465 -0.354479,1.398263 -0.65625,2.1875 -0.296893,0.776284 -0.650162,1.500448 -1.0625,2.1875 -0.407133,0.678269 -0.829472,1.235055 -1.3125,1.71875 -0.139271,0.139449 -0.295954,0.172305 -0.4375,0.28125 0.965497,-1.395473 1.800685,-2.829517 2.40625,-4.34375 0.585959,-1.465401 1.014184,-2.900604 1.3125,-4.28125 0.251747,-1.165461 0.337805,-2.164066 0.375,-3.125 z m -22.3125,2.125 0.03125,0.0625 c -0.04984,0.03526 -0.150566,0.025 -0.1875,0.0625 0.248294,-0.252101 0.198352,-0.145408 0.15625,-0.125 z M 36.25,33.875 c 0.03237,0.485289 0.187,0.944344 0.40625,1.21875 a 1.50015,1.50015 0 0 0 0.125,0.125 c 0.260433,0.257901 0.698306,0.46816 1.15625,0.59375 -0.598068,0.02438 -1.144967,0.16448 -1.75,0.375 -0.186274,0.06481 -0.353126,0.192496 -0.53125,0.28125 C 35.818279,35.706741 35.938945,34.922755 36,34.125 c 0.09126,-0.07596 0.16064,-0.172243 0.25,-0.25 z M 7.21875,34.09375 c 0.1674849,0.34248 0.3551314,0.670329 0.75,0.90625 a 1.50015,1.50015 0 0 0 0.3125,0.15625 c 0.3141874,0.104769 0.7487768,0.02404 1.125,-0.09375 -0.5706279,0.686259 -1.1471972,1.381746 -1.75,2.03125 a 1.50015,1.50015 0 0 0 -0.09375,0.125 C 7.2988332,37.571195 6.9460419,37.973553 6.53125,38.4375 6.1322414,38.883782 5.7772184,39.291492 5.4375,39.65625 a 1.50015,1.50015 0 0 0 0.03125,-0.3125 c -7.8e-6,-0.753655 0.1641105,-1.678899 0.5625,-2.71875 0.3078286,-0.803495 0.7478466,-1.674589 1.1875,-2.53125 z m 45.15625,1.25 c 0.04738,0.06805 0.0011,0.125295 0.0625,0.1875 -0.02756,-0.02803 -0.101548,-0.110117 -0.125,-0.15625 l 0.0625,-0.03125 z m -37.84375,2.75 c -0.744803,0.915303 -1.311687,1.928681 -1.71875,3.03125 0.0024,-0.03447 -0.003,-0.02702 0,-0.0625 0.003,-0.03548 -0.0036,-0.02606 0,-0.0625 0.08658,-0.514558 0.215887,-0.870866 0.21875,-0.875 0.213724,-0.308647 0.453215,-0.687462 0.6875,-1.09375 0.279431,-0.288456 0.556496,-0.607941 0.8125,-0.9375 z"
           id="path3606"
           style="font-size:76px;font-style:normal;font-variant:normal;font-weight:normal;font-stretch:normal;line-height:125%;letter-spacing:0px;word-spacing:0px;fill:#ffffff;fill-opacity:1;stroke:none;font-family:DiagramTTOldstyle;-inkscape-font-specification:DiagramTTOldstyle"
           inkscape:original="M 24.65625 2.03125 C 24.440938 2.1074015 24.23379 2.2834299 24.03125 2.5625 C 23.980195 2.5625461 23.93747 2.696986 23.9375 3 C 23.93747 3.3556768 24.047415 3.6412396 24.25 3.84375 C 24.50355 3.9953246 24.630707 4.2331987 24.65625 4.5625 C 24.681732 4.8918894 24.718719 5.3053818 24.71875 5.8125 L 24.71875 7.125 L 24.71875 7.71875 C 24.514618 7.4652104 24.107636 7.1666267 23.5 6.8125 L 23.03125 6.4375 C 22.473035 6.0324319 21.840426 5.6361514 21.15625 5.28125 C 20.472019 4.9264353 19.473607 4.6286247 18.15625 4.375 C 17.802141 4.3240189 17.447812 4.5011834 17.09375 4.90625 C 17.093727 5.0083444 17.082252 5.0747912 17.03125 5.125 C 16.980202 5.1752957 16.937477 5.2729926 16.9375 5.375 C 16.937477 5.6286237 17.090146 5.871462 17.34375 6.125 C 18.255998 7.1378182 18.913102 8.0820311 19.34375 8.96875 C 19.774348 9.8555482 20.055719 11.128049 20.15625 12.75 C 18.838842 13.611282 17.261248 15.041944 15.4375 17.09375 C 13.613709 19.145619 11.737531 21.424588 9.8125 23.90625 C 9.4583993 24.312931 8.8677424 25.073469 8.03125 26.1875 C 7.1947297 27.301576 6.3242472 28.592834 5.4375 30.0625 C 4.5507301 31.532203 3.740184 33.103287 3.03125 34.75 C 2.3222981 36.396741 1.9572675 37.881603 1.90625 39.25 C 1.8057377 39.299488 1.7499923 39.519378 1.75 39.875 C 1.7499923 40.836759 1.8599369 41.598843 2.0625 42.15625 C 2.2650472 42.71367 2.4964109 43.188645 2.75 43.59375 C 3.0020256 43.847335 3.2956451 44.01799 3.625 44.09375 C 3.9543358 44.169519 4.2693583 44.187504 4.625 44.1875 C 5.3347055 44.187504 6.0837689 43.883183 6.84375 43.25 C 7.6037055 42.616827 8.4199889 41.794034 9.28125 40.78125 C 9.2812348 40.932788 9.2754975 41.060717 9.25 41.1875 C 9.2244722 41.314298 9.1874849 41.473477 9.1875 41.625 C 9.1874849 42.639329 9.3466644 43.423589 9.625 44.03125 C 9.9033045 44.63892 10.141179 45.101647 10.34375 45.40625 C 11.002424 46.064944 11.763736 46.406252 12.625 46.40625 C 13.183168 46.406252 13.645122 46.296308 14 46.09375 C 14.354838 45.891197 14.646911 45.648359 14.875 45.34375 C 15.103047 45.039147 15.285949 44.70435 15.4375 44.375 C 15.589008 44.045659 15.710428 43.740565 15.8125 43.4375 L 16.03125 42.59375 C 16.385313 41.783535 16.860288 41.009977 17.46875 40.25 C 18.077165 39.49004 18.765519 38.795176 19.5 38.1875 C 20.23443 37.579845 20.953017 37.049898 21.6875 36.59375 C 22.421928 36.137626 23.066784 35.784844 23.625 35.53125 C 24.384166 35.987399 25.188201 36.218762 26 36.21875 C 28.381151 36.218762 30.489466 35.74456 32.3125 34.78125 C 32.262983 35.288425 32.152265 35.878309 32 36.5625 C 31.847659 37.246715 31.610558 37.947317 31.28125 38.65625 C 30.951867 39.365203 30.531865 40.065804 30 40.75 C 29.468064 41.434211 28.778937 42.024095 27.96875 42.53125 C 27.51258 42.78329 26.818489 43.259039 25.90625 43.96875 C 24.993947 44.678471 23.98406 45.548953 22.84375 46.5625 C 21.703382 47.576051 20.527806 48.690918 19.3125 49.90625 C 18.097144 51.12158 16.988014 52.352128 16 53.59375 C 15.011942 54.835362 14.196432 56.070875 13.5625 57.3125 C 12.928529 58.554108 12.624981 59.717437 12.625 60.78125 C 12.624981 61.034818 12.740663 61.229195 12.96875 61.40625 C 13.196799 61.58328 13.445375 61.687487 13.75 61.6875 L 56.3125 61.6875 C 56.514993 61.687487 56.789081 61.577542 57.09375 61.375 L 58.375 61.90625 C 58.831071 62.159817 59.196875 62.049873 59.5 61.59375 C 59.753515 61.340157 59.906184 61.162992 59.90625 61.0625 C 59.906184 60.859932 59.807714 60.682768 59.65625 60.53125 C 59.656184 60.531238 59.595475 60.404082 59.46875 60.125 C 59.341894 59.845895 59.17124 59.56607 58.96875 59.3125 C 59.475846 59.41454 59.944311 59.529449 60.375 59.65625 L 61.03125 59.84375 C 61.436293 59.995269 61.777602 59.862375 62.03125 59.40625 C 62.182712 59.305735 62.249932 59.12857 62.25 58.875 C 62.249932 58.621409 62.207207 58.445791 62.15625 58.34375 C 62.105157 58.294261 61.928765 58.012889 61.625 57.53125 C 61.3211 57.049593 60.906834 56.410474 60.375 55.625 C 59.843033 54.839512 59.373795 54.127436 58.96875 53.46875 C 59.32277 53.51977 59.670589 53.58048 60 53.65625 L 60.5 53.78125 C 61.05812 53.9838 61.399428 53.81811 61.5 53.3125 C 61.653009 53.159419 61.718682 52.972326 61.71875 52.71875 C 61.718682 52.618241 61.712945 52.513261 61.6875 52.4375 C 61.66192 52.361731 61.624932 52.289547 61.625 52.1875 C 61.573907 52.136471 61.397516 51.850135 61.09375 51.34375 C 60.78985 50.837359 60.413345 50.179482 59.90625 49.34375 C 59.399023 48.508016 58.94777 47.752442 58.59375 47.09375 C 59.150326 47.194256 59.662288 47.267986 60.09375 47.34375 C 60.52508 47.419516 60.718683 47.468751 60.71875 47.46875 C 61.123794 47.621827 61.478123 47.444663 61.78125 46.9375 C 61.883233 46.785972 61.937432 46.621828 61.9375 46.46875 C 61.937432 46.216718 61.870212 46.028079 61.71875 45.875 C 61.667657 45.825524 61.442804 45.544152 61.0625 45.0625 C 60.682062 44.580855 60.20135 43.978724 59.59375 43.21875 C 58.986019 42.458787 58.456072 41.763923 58 41.15625 C 58.456072 41.256762 58.8646 41.312507 59.21875 41.3125 L 59.75 41.3125 C 60.306574 41.312507 60.616633 41.081144 60.71875 40.625 C 60.819188 40.575529 60.874933 40.452563 60.875 40.25 C 60.874933 40.045907 60.862685 39.882536 60.8125 39.78125 C 60.762181 39.679981 60.707209 39.600514 60.65625 39.5 C 60.605158 39.448984 60.380305 39.21762 60 38.8125 C 59.619563 38.4074 59.138851 37.840465 58.53125 37.15625 C 57.92352 36.472058 57.350848 35.869153 56.84375 35.3125 C 57.250344 35.312513 57.651588 35.324761 58.03125 35.375 C 58.410784 35.425265 58.593685 35.468763 58.59375 35.46875 C 58.998796 35.468763 59.297379 35.194675 59.5 34.6875 C 59.499935 34.587009 59.542659 34.525527 59.59375 34.5 C 59.64471 34.474501 59.656184 34.468764 59.65625 34.46875 C 59.656184 34.165705 59.523291 33.867121 59.21875 33.5625 C 59.16766 33.51149 58.892798 33.292374 58.4375 32.9375 C 57.982073 32.582658 57.434141 32.162655 56.75 31.65625 C 56.065734 31.149879 55.498799 30.729103 55.09375 30.375 C 55.498799 30.019387 55.852355 29.678852 56.15625 29.375 C 56.460021 29.071187 56.624937 28.93752 56.625 28.9375 C 56.827493 28.734965 56.937437 28.460876 56.9375 28.15625 L 56.9375 27.9375 C 56.886412 27.785991 56.825702 27.658061 56.75 27.53125 C 56.674172 27.404481 56.569192 27.289572 56.46875 27.1875 C 56.417662 27.138042 56.180561 26.983827 55.75 26.78125 C 55.319315 26.578717 54.789368 26.323631 54.15625 25.96875 C 53.523012 25.613915 52.987327 25.284854 52.53125 25.03125 C 52.936302 24.575138 53.302105 24.100163 53.65625 23.59375 C 54.010275 23.087387 54.18744 22.843776 54.1875 22.84375 C 54.340516 22.641221 54.40619 22.409857 54.40625 22.15625 L 54.40625 22 C 54.304139 21.746446 54.231955 21.570055 54.15625 21.46875 C 54.080425 21.3675 53.96397 21.299506 53.8125 21.25 C 53.71039 21.250027 53.412579 21.18358 52.90625 21.03125 C 52.399803 20.878975 51.766422 20.702583 51.03125 20.5 C 50.295964 20.297473 49.704534 20.133329 49.25 20.03125 C 49.401475 19.575143 49.529404 19.100168 49.65625 18.59375 C 49.782985 18.087392 49.874944 17.812531 49.875 17.8125 L 49.875 17.59375 C 49.874944 17.08662 49.655055 16.789583 49.25 16.6875 C 49.198919 16.687532 48.950344 16.626049 48.46875 16.5 C 47.987047 16.374015 47.36514 16.203361 46.65625 16 C 45.947254 15.796704 45.405059 15.631788 45 15.53125 C 45.049428 15.126173 45.062449 14.70617 45.0625 14.25 C 45.062449 13.742873 45.062449 13.500035 45.0625 13.5 C 45.062449 12.89237 44.80659 12.539587 44.25 12.4375 C 44.147899 12.437536 43.855826 12.388301 43.375 12.3125 C 42.894076 12.236771 42.272169 12.163814 41.5625 12.0625 C 40.852736 11.961259 40.311314 11.906287 39.90625 11.90625 C 39.8057 11.501176 39.744217 11.099159 39.71875 10.71875 C 39.693192 10.338417 39.687454 10.156288 39.6875 10.15625 C 39.636429 9.9042542 39.520747 9.6778547 39.34375 9.5 C 39.166662 9.3222235 38.929561 9.3042385 38.625 9.40625 L 34.59375 9.6875 C 34.239625 9.6875389 33.898316 9.6218652 33.59375 9.46875 C 33.59371 9.4687891 33.410809 9.4073065 33.03125 9.28125 C 32.651613 9.1552722 32.316042 9.0395904 32.0625 8.9375 L 31.53125 7.34375 C 31.024052 6.2289649 30.311975 5.2912624 29.375 4.53125 C 28.437954 3.7713258 27.085986 2.9550424 25.3125 2.09375 C 25.084417 1.966983 24.871562 1.9550985 24.65625 2.03125 z M 26.84375 5.28125 C 27.704963 5.8394796 28.301357 6.3506689 28.65625 6.78125 C 29.011073 7.2119148 29.308884 7.6376549 29.5625 8.09375 L 30.03125 9.46875 L 30.25 10.15625 C 30.350468 10.460894 30.570357 10.647987 30.875 10.75 L 33.0625 11.4375 C 36.15336 12.249304 39.192094 13.813878 42.15625 16.09375 C 45.12031 18.373687 47.696317 21.509874 49.875 25.5625 C 50.077499 25.867129 50.198918 26.073997 50.25 26.125 C 51.5163 28.45518 52.576195 31.159116 53.4375 34.25 C 53.437441 34.350519 53.449688 34.417739 53.5 34.46875 C 53.550193 34.519789 53.605165 34.587009 53.65625 34.6875 C 53.909771 35.550306 54.128887 36.420015 54.28125 37.28125 C 54.433493 38.142507 54.609884 39.069508 54.8125 40.03125 L 54.8125 40.09375 C 54.812439 40.296314 54.82546 40.460457 54.875 40.5625 C 54.97699 41.321703 55.086161 42.089525 55.1875 42.875 C 55.288716 43.660487 55.355163 44.482507 55.40625 45.34375 L 55.40625 45.5625 C 55.406189 45.765058 55.461934 45.886477 55.5625 45.9375 C 55.613464 46.900799 55.661926 47.838502 55.6875 48.75 C 55.712951 49.661498 55.718688 50.641925 55.71875 51.65625 L 55.71875 51.71875 L 55.71875 51.8125 C 55.718688 53.078853 55.675964 54.370111 55.625 55.6875 C 55.573913 57.004874 55.495219 58.307607 55.34375 59.625 L 14.90625 59.625 C 15.210835 58.409658 15.965636 57.045442 17.15625 55.5 C 18.346818 53.954544 19.655289 52.431922 21.125 50.9375 C 22.594657 49.443074 24.062307 48.059856 25.53125 46.84375 C 27.00013 45.627648 28.169969 44.745691 29.03125 44.1875 C 30.704228 43.123703 32.037438 41.649543 33 39.75 C 33.962485 37.850475 34.493205 35.749443 34.59375 33.46875 C 35.861612 32.507015 36.932208 31.3799 37.84375 30.0625 C 38.755204 28.745137 39.505041 27.393942 40.0625 26 C 40.619867 24.606103 41.03336 23.260645 41.3125 21.96875 C 41.591546 20.676908 41.718702 19.55553 41.71875 18.59375 C 41.718702 18.3402 41.60302 18.103099 41.375 17.875 C 41.146885 17.646963 40.909784 17.531281 40.65625 17.53125 C 40.300572 17.531281 40.051997 17.646963 39.875 17.875 C 39.697912 18.103099 39.593704 18.3402 39.59375 18.59375 C 39.593704 19.404001 39.410803 20.652534 39.03125 22.375 C 38.651607 24.097518 37.951006 25.845767 36.9375 27.59375 C 35.923908 29.341775 34.560466 30.870135 32.8125 32.1875 C 31.064457 33.504898 28.786261 34.156264 26 34.15625 C 25.644337 34.156264 25.230845 34.083307 24.75 33.90625 C 24.269094 33.729222 23.878551 33.503596 23.625 33.25 C 23.066784 32.64235 22.598319 31.941748 22.21875 31.15625 C 21.839124 30.370786 21.698947 29.548766 21.75 28.6875 C 21.749972 28.382914 21.707248 28.097351 21.65625 27.84375 C 21.605197 27.59019 21.472303 27.468771 21.21875 27.46875 C 20.915663 27.468771 20.744236 27.572205 20.71875 27.75 C 20.693211 27.927836 20.687473 28.15269 20.6875 28.40625 C 20.636448 29.419046 20.703668 30.418231 20.90625 31.40625 C 21.108778 32.394303 21.517307 33.239273 22.125 34 C 21.568332 34.252049 20.916192 34.606378 20.15625 35.0625 C 19.396256 35.518649 18.634945 36.091321 17.875 36.75 C 17.115008 37.408703 16.371682 38.163503 15.6875 39 C 15.003275 39.836516 14.479065 40.768481 14.125 41.78125 L 13.75 42.84375 C 13.547425 43.551926 13.371034 43.929977 13.21875 44.03125 C 13.066428 44.132532 12.878562 44.187504 12.625 44.1875 C 12.372947 44.187504 12.153058 44.131759 12 44.03125 C 11.797427 43.828699 11.614525 43.518641 11.4375 43.0625 C 11.26044 42.60637 11.211978 41.856533 11.3125 40.84375 C 11.414533 40.134042 11.584414 39.610605 11.8125 39.28125 C 12.04055 38.951914 12.277651 38.581146 12.53125 38.125 C 12.936342 37.7199 13.326885 37.26291 13.65625 36.78125 C 13.985576 36.299614 14.180725 35.64251 14.28125 34.78125 C 14.28123 34.376154 14.049866 34.034845 13.59375 33.78125 C 13.442201 33.68076 13.259299 33.668513 13.03125 33.71875 C 12.803163 33.769017 12.608787 33.846939 12.40625 34 C 11.849592 34.556655 11.264672 35.203057 10.65625 35.9375 C 10.047795 36.671968 9.4086761 37.415294 8.75 38.125 C 8.4469257 38.530121 8.0868594 38.955861 7.65625 39.4375 C 7.2256135 39.919157 6.8178584 40.376148 6.4375 40.78125 C 6.0571169 41.186368 5.7043341 41.527676 5.375 41.78125 C 5.0456433 42.034837 4.7765192 42.156256 4.625 42.15625 C 4.4719134 42.156256 4.4062397 42.113532 4.40625 42.0625 C 4.3057352 41.960456 4.1892802 41.784064 4.0625 41.53125 C 3.9356998 41.27845 3.8749902 40.736255 3.875 39.875 C 3.8749902 39.621428 3.9177148 39.44581 3.96875 39.34375 C 3.9687401 38.382009 4.1688538 37.284354 4.625 36.09375 C 5.081125 34.903171 5.6660447 33.673395 6.375 32.40625 C 7.0839307 31.139137 7.8887394 29.891376 8.75 28.625 C 9.6112312 27.358664 10.451237 26.188825 11.3125 25.125 C 11.819644 24.515812 12.556459 23.645329 13.46875 22.53125 C 14.381002 21.417223 15.336689 20.296618 16.375 19.15625 C 17.413266 18.01594 18.412451 16.974804 19.375 16.0625 C 20.337498 15.150261 21.098036 14.608839 21.65625 14.40625 C 22.061333 14.203729 22.281222 13.837925 22.28125 13.28125 C 22.230196 11.963904 22.07179 10.861284 21.84375 10 C 21.615654 9.1387927 21.311333 8.3232825 20.90625 7.5625 C 21.057753 7.6645917 21.19142 7.7737632 21.34375 7.875 C 21.496026 7.9763183 21.703667 8.087036 21.90625 8.1875 L 22.28125 8.40625 C 22.737357 8.7603751 23.084403 9.0532215 23.3125 9.28125 C 23.540539 9.5093571 23.84486 9.8022035 24.25 10.15625 L 25 11.21875 C 25.303029 11.623898 25.711557 11.691118 26.21875 11.4375 C 26.472298 11.388058 26.642952 11.271603 26.71875 11.09375 C 26.794482 10.915972 26.843717 10.722369 26.84375 10.46875 L 26.84375 7.1875 L 26.84375 5.8125 L 26.84375 5.28125 z M 26.75 17.28125 C 25.179005 17.230256 23.942719 17.407421 23.03125 17.8125 C 22.119723 18.217641 21.413384 18.668894 20.90625 19.125 C 19.944473 20.037301 19.468725 21.10867 19.46875 22.375 C 19.468725 23.135768 19.780329 23.531275 20.4375 23.53125 C 20.539524 23.531275 20.599461 23.48855 20.625 23.4375 C 20.650486 23.3865 20.698948 23.375025 20.75 23.375 L 20.75 23.53125 C 20.749973 24.239445 21.091282 24.593774 21.75 24.59375 C 22.965303 24.695825 23.909516 24.591617 24.59375 24.3125 C 25.277923 24.033431 25.80787 23.662663 26.1875 23.15625 C 26.567065 22.649888 26.816414 22.082953 26.96875 21.5 C 27.12102 20.917101 27.230191 20.380643 27.28125 19.875 L 27.59375 18.59375 C 27.694221 18.391225 27.640022 18.049917 27.4375 17.59375 C 27.234912 17.391226 27.003548 17.281281 26.75 17.28125 z M 47.34375 18.28125 C 47.445747 18.330759 47.542671 18.34378 47.59375 18.34375 L 47.59375 18.5 C 47.44062 18.50003 47.343697 18.43281 47.34375 18.28125 z M 25.3125 19.5 L 25.3125 19.5625 C 25.109914 20.575305 24.829315 21.374376 24.5 21.90625 C 24.170624 22.438177 23.337129 22.631781 21.96875 22.53125 C 21.866671 22.429225 21.800225 22.417751 21.75 22.46875 C 21.69972 22.519801 21.602023 22.575547 21.5 22.625 L 21.5 22.375 L 21.5 22.3125 C 21.499973 22.058946 21.597669 21.766873 21.75 21.4375 C 21.902275 21.108182 22.078667 20.814562 22.28125 20.5625 C 22.686332 20.206897 23.15557 19.964059 23.6875 19.8125 C 24.219371 19.660999 24.754282 19.551054 25.3125 19.5 z M 44.78125 23.53125 C 44.527619 23.429224 44.356965 23.551417 44.28125 23.90625 C 44.205435 24.261133 44.100455 24.558943 44 24.8125 C 43.846874 25.571719 43.610546 26.388775 43.28125 27.25 C 42.951855 28.111267 42.549838 28.927551 42.09375 29.6875 C 41.637566 30.447487 41.144606 31.104591 40.5625 31.6875 C 39.980301 32.270443 39.334672 32.683935 38.625 32.9375 C 38.371375 33.03802 38.103024 33.209447 37.875 33.4375 C 37.646888 33.665583 37.641151 33.902684 37.84375 34.15625 C 37.996782 34.307794 38.172401 34.412002 38.375 34.4375 C 38.577511 34.463027 38.743201 34.468764 38.84375 34.46875 C 40.009557 33.961603 40.958734 33.328222 41.71875 32.59375 C 42.478671 31.85931 43.106315 31.097999 43.5625 30.3125 C 44.018586 29.527037 44.328644 28.747741 44.53125 27.9375 C 44.733755 27.1273 44.910919 26.365989 45.0625 25.65625 C 45.1645 25.351667 45.212962 24.938175 45.1875 24.40625 C 45.161936 23.874374 45.03478 23.580754 44.78125 23.53125 z M 15.46875 23.71875 C 15.139383 23.744288 14.858785 23.859969 14.65625 24.0625 C 14.402649 24.26508 14.031881 24.612125 13.5 25.09375 C 12.96808 25.575422 12.388898 26.122581 11.78125 26.78125 C 11.173567 27.439963 10.58291 28.189799 10 29 C 9.4170582 29.81024 8.9478204 30.638771 8.59375 31.5 C 8.4406595 31.753598 8.3749857 32.162126 8.375 32.71875 C 8.3749857 33.225927 8.4964049 33.567235 8.75 33.71875 C 8.9030614 33.76979 9.0302178 33.708308 9.15625 33.53125 C 9.282252 33.354223 9.4044443 33.128596 9.53125 32.875 C 9.6580248 32.621435 9.7737066 32.384334 9.875 32.15625 C 9.9762618 31.928199 10.073959 31.756771 10.125 31.65625 C 10.479069 31.098081 10.789127 30.623879 11.09375 30.21875 C 11.398339 29.813658 11.794619 29.393655 12.25 28.9375 C 12.705344 28.481384 13.235292 27.957174 13.84375 27.375 C 14.452169 26.792869 15.225728 26.050316 16.1875 25.1875 C 16.694639 24.833438 16.694639 24.467635 16.1875 24.0625 C 16.035948 23.808944 15.798074 23.693262 15.46875 23.71875 z M 46.8125 28.625 C 46.558867 28.522969 46.376738 28.760843 46.25 29.34375 C 46.123158 29.926695 46.049427 30.450132 46 30.90625 C 45.948923 31.159848 45.680572 31.634823 45.25 32.34375 C 44.819326 33.052709 44.235179 33.764785 43.5 34.5 C 42.764722 35.235243 41.942701 35.880099 41.03125 36.4375 C 40.119705 36.994925 39.157507 37.281261 38.09375 37.28125 C 37.738075 37.281261 37.26961 37.391206 36.6875 37.59375 C 36.105305 37.796316 35.812458 38.040701 35.8125 38.34375 C 35.812458 38.496836 35.92814 38.611745 36.15625 38.6875 C 36.384276 38.763275 36.634398 38.81251 36.9375 38.8125 C 37.242063 38.81251 37.545611 38.775523 37.875 38.75 C 38.204302 38.724497 38.473426 38.71876 38.625 38.71875 C 40.195917 38.364675 41.49865 37.895437 42.5625 37.3125 C 43.626253 36.729585 44.497508 36.072482 45.15625 35.3125 C 45.81489 34.552545 46.295602 33.741999 46.625 32.90625 C 46.954293 32.070532 47.192167 31.236264 47.34375 30.375 C 47.546252 29.665302 47.588976 29.196837 47.4375 28.96875 C 47.285917 28.740702 47.066028 28.62502 46.8125 28.625 z "
           inkscape:radius="1.5"
           sodipodi:type="inkscape:offset" />
      </g>
      <path
         transform="translate(0,-8)"
         inkscape:connector-curvature="0"
         id="path67329"
         d="m 123.17752,23.609445 c -0.63494,0.07321 -0.58719,0.960489 -0.0836,1.199289 0.5364,0.414312 1.21956,-0.375123 0.79692,-0.870073 -0.15979,-0.220402 -0.4395,-0.360049 -0.71331,-0.329216 z"
         style="fill:#ffffff;fill-opacity:1;fill-rule:nonzero;stroke:none" />
      <path
         transform="translate(0,-8)"
         inkscape:connector-curvature="0"
         id="path67333"
         d="m 102.43166,10.720357 c -0.39276,0.563947 -0.11986,1.327274 -0.21639,1.977744 -0.0628,1.352996 0.0506,2.733684 -0.14418,4.070956 -0.26137,0.08331 -0.63269,0.258098 -0.80214,-0.07055 -1.09114,-1.519231 -2.549795,-2.792859 -4.211884,-3.660575 -0.514645,-0.185073 -0.866534,0.45621 -0.585274,0.864847 0.789789,1.735597 1.20871,3.672552 1.086937,5.591455 -0.119843,0.388144 -0.668086,0.408979 -0.932527,0.677578 -1.655548,1.123607 -2.96664,2.667539 -4.363014,4.082876 -2.390266,2.606716 -4.644779,5.333344 -6.794021,8.139086 -2.218249,3.067054 -4.300202,6.296906 -5.609745,9.866044 -0.491538,1.502123 -0.720851,3.12698 -0.530405,4.700481 0.114518,0.666028 0.483418,1.651719 1.324705,1.523279 1.066076,-0.35516 1.785237,-1.310595 2.563186,-2.071974 1.810938,-2.002361 3.48607,-4.165906 5.371977,-6.108795 0.337473,-0.396813 1.016573,-0.168853 1.037294,0.339668 -0.05121,1.08151 -0.679649,2.007338 -1.397864,2.785276 -0.850397,1.080297 -1.56469,2.347972 -1.570311,3.759862 -0.04529,1.134679 0.05445,2.57952 1.141807,3.221619 0.746803,0.39921 1.832129,0.04678 2.054706,-0.819131 0.585694,-1.605885 1.0994,-3.285054 2.266914,-4.57375 1.637845,-2.018884 3.77384,-3.580737 6.116634,-4.690029 0.59295,-0.411289 -0.01161,-0.980619 -0.261283,-1.405702 -0.763388,-1.275052 -0.893637,-2.805908 -0.885749,-4.264138 0.0071,1.312477 0.412169,2.601676 1.178386,3.668413 0.681964,1.060029 1.70346,1.969608 2.994301,2.14252 1.53683,0.186069 3.1044,-0.08262 4.59262,-0.467592 2.83365,-0.823154 5.06935,-2.977644 6.7728,-5.305002 1.44434,-2.159921 2.45912,-4.605696 2.95188,-7.156493 0.28323,-1.116456 0.29905,-2.286931 0.51312,-3.40371 0.27969,-0.463093 1.08165,-0.08354 0.96675,0.431116 -0.0469,2.376418 -0.69624,4.714448 -1.55202,6.913547 -1.10375,2.762666 -2.77053,5.35465 -5.08718,7.255828 -0.68857,0.497271 -0.50109,1.398902 -0.63231,2.129456 -0.36661,2.32615 -1.19888,4.64209 -2.66374,6.510082 -1.43865,1.735673 -3.46015,2.793635 -5.15645,4.236486 -3.843323,3.114837 -7.429682,6.612382 -10.262122,10.685777 -0.608803,0.990572 -1.242918,2.046188 -1.431376,3.198748 0.08293,0.704606 0.983162,0.422446 1.47733,0.478199 13.150368,0 26.300738,0 39.451118,0 0.69914,-0.145559 0.54519,-1.026083 0.65582,-1.567698 0.2535,-3.814732 0.30742,-7.647548 0.14294,-11.467332 -0.37892,-4.180194 -0.84894,-8.389599 -1.97568,-12.44679 -0.80216,-2.459881 -1.59821,-4.936833 -2.70052,-7.290901 -0.55878,-1.311323 -1.41792,-2.448822 -2.09811,-3.691928 -1.75845,-2.889479 -3.88894,-5.582394 -6.54753,-7.700214 -2.83541,-2.290745 -6.11084,-4.047088 -9.62371,-5.029025 -0.77283,-0.257119 -1.59006,-0.439301 -2.31975,-0.789541 -0.58569,-1.334594 -0.90128,-2.864684 -2.01002,-3.906083 -0.60125,-0.557924 -1.23171,-1.152892 -1.99545,-1.465895 -0.10016,0.03397 -0.20031,0.06793 -0.30047,0.101901 z m -0.30832,12.996214 c 0.29073,0.03868 0.88476,-0.143677 0.82043,0.334442 -0.0598,0.913796 -0.34733,1.803117 -0.48076,2.701666 -0.25422,1.288121 -1.00776,2.620934 -2.34893,2.99169 -0.897739,0.230755 -1.887669,0.269507 -2.795731,0.1019 -0.281726,-0.264023 -0.03017,-0.836349 -0.522566,-0.96936 -0.287094,-0.161714 -0.817676,0.130127 -0.885749,-0.313539 -0.195097,-1.186224 0.399387,-2.430778 1.275061,-3.219006 1.291818,-1.128073 3.010405,-1.742306 4.729215,-1.62635 0.0697,-4.66e-4 0.13936,-0.001 0.20903,-0.0014 z m -10.670793,6.390981 c 0.189,0.01776 0.385373,0.267766 0.410214,0.41544 -2.005477,1.915849 -4.207597,3.721284 -5.82661,5.993831 -0.461344,0.698731 -0.834887,1.457602 -1.217579,2.192164 -0.13623,-1.154086 0.602865,-2.12351 1.158279,-3.059409 1.39306,-2.072072 3.104927,-3.916203 5.078546,-5.440126 0.118854,-0.07934 0.258874,-0.101996 0.39715,-0.1019 z m 29.054663,0.399763 c -0.16585,1.563139 -0.48646,3.124094 -1.09216,4.572452 -0.98545,2.043033 -2.67477,3.794501 -4.77364,4.690029 -0.14033,0.03864 -0.47591,0.03021 -0.48076,-0.128029 0.79055,-0.599846 1.83583,-0.853685 2.50292,-1.633842 2.10242,-1.994015 3.0906,-4.821438 3.84364,-7.547641 l 0,0.04703 z m 2.25487,4.517582 c 0.21189,0.17257 1.6e-4,0.570412 0.01,0.808839 -0.36809,2.488029 -1.56068,4.961477 -3.73566,6.358153 -1.92577,1.27293 -4.25938,2.031799 -6.58433,1.920429 -0.23424,-0.05021 0.29057,-0.155993 0.36057,-0.206413 1.32797,-0.372703 2.79427,-0.246725 4.01423,-0.979372 2.24608,-1.271981 4.1934,-3.182776 5.31618,-5.521348 0.3429,-0.760613 0.31162,-1.615096 0.58789,-2.393352 l 0.0314,0.01306 z"
         style="fill:#ffffff;fill-opacity:1;fill-rule:nonzero;stroke:none" />
      <path
         transform="translate(0,-8)"
         inkscape:connector-curvature="0"
         id="path67335"
         d="m 100.99721,24.855764 c -1.348534,0.178435 -2.960961,0.531724 -3.649064,1.84712 -0.305925,0.590884 -0.675678,1.353507 -0.393235,1.991848 0.463458,0.381433 1.155979,0.164351 1.724722,0.223982 0.926472,0.0079 1.965017,-0.349567 2.326147,-1.283202 0.32522,-0.748682 0.70274,-1.562116 0.64464,-2.393049 -0.0885,-0.275833 -0.37364,-0.425295 -0.65321,-0.386699 z"
         style="fill:#ffffff;fill-opacity:1;fill-rule:nonzero;stroke:none" />
      <g
         style="fill:#000000"
         transform="translate(75.875748,-2.1605652)"
         id="layer1-4"
         inkscape:label="Layer 1">
        <text
           xml:space="preserve"
           style="font-size:76px;font-style:normal;font-variant:normal;font-weight:normal;font-stretch:normal;line-height:125%;letter-spacing:0px;word-spacing:0px;fill:#000000;fill-opacity:1;stroke:none;font-family:DiagramTTOldstyle;-inkscape-font-specification:DiagramTTOldstyle"
           x="-5.9246216"
           y="48.606445"
           id="text3326"
           sodipodi:linespacing="125%"><tspan
             sodipodi:role="line"
             id="tspan3328"
             x="-5.9246216"
             y="48.606445">N</tspan></text>
      </g>
      <path
         transform="translate(0,-8)"
         inkscape:connector-curvature="0"
         id="path67341"
         d="m 123.12089,23.641327 c -0.33454,0.07681 -0.48775,0.48783 -0.34097,0.783849 0.13925,0.326275 0.55785,0.54262 0.89368,0.362776 0.39304,-0.206231 0.37787,-0.880396 -0.0367,-1.053969 -0.16833,-0.05375 -0.33263,-0.143332 -0.51604,-0.09266 z"
         style="fill:#000000;fill-opacity:1;fill-rule:nonzero;stroke:none" />
    </g>
  </g>
</svg>
