<?xml version="1.0" encoding="UTF-8" standalone="no"?>
<!-- Created with Inkscape (http://www.inkscape.org/) -->

<svg
   xmlns:dc="http://purl.org/dc/elements/1.1/"
   xmlns:cc="http://creativecommons.org/ns#"
   xmlns:rdf="http://www.w3.org/1999/02/22-rdf-syntax-ns#"
   xmlns:svg="http://www.w3.org/2000/svg"
   xmlns="http://www.w3.org/2000/svg"
   xmlns:sodipodi="http://sodipodi.sourceforge.net/DTD/sodipodi-0.dtd"
   xmlns:inkscape="http://www.inkscape.org/namespaces/inkscape"
   width="64px"
   height="64px"
   id="svg4261"
   version="1.1"
   inkscape:version="0.48.2 r9819"
   sodipodi:docname="wr.svg">
  <defs
     id="defs4263" />
  <sodipodi:namedview
     id="base"
     pagecolor="#ffffff"
     bordercolor="#666666"
     borderopacity="1.0"
     inkscape:pageopacity="0.0"
     inkscape:pageshadow="2"
     inkscape:zoom="5.5"
     inkscape:cx="34.363636"
     inkscape:cy="32"
     inkscape:current-layer="layer1"
     showgrid="true"
     inkscape:document-units="px"
     inkscape:grid-bbox="true"
     inkscape:window-width="984"
     inkscape:window-height="614"
     inkscape:window-x="324"
     inkscape:window-y="105"
     inkscape:window-maximized="0" />
  <metadata
     id="metadata4266">
    <rdf:RDF>
      <cc:Work
         rdf:about="">
        <dc:format>image/svg+xml</dc:format>
        <dc:type
           rdf:resource="http://purl.org/dc/dcmitype/StillImage" />
        <dc:title></dc:title>
      </cc:Work>
    </rdf:RDF>
  </metadata>
  <g
     id="layer1"
     inkscape:label="Layer 1"
     inkscape:groupmode="layer">
    <g
       id="g3805"
       transform="matrix(0.88,0,0,0.88,-253.99864,6.3747867)">
      <g
         style="fill:#4d4d4d"
         transform="translate(325.82517,-9.754279)"
         id="layer1-2-1-2"
         inkscape:label="Layer 1">
        <path
           transform="translate(-31.841944,10.528385)"
           d="m 32,1 c -1.627833,5.93e-5 -3.152212,0.6532092 -4.28125,1.78125 -1.129613,1.128641 -1.781292,2.6529255 -1.78125,4.28125 -4.3e-5,1.3133168 0.419294,2.6236145 1.25,3.6875 0.518739,0.664484 1.18483,1.139829 1.90625,1.53125 -0.162165,0.825904 -0.318198,1.598109 -0.53125,2.75 -0.303071,1.638269 -0.644797,3.406033 -1,5.3125 -0.354694,1.903416 -0.707463,3.829542 -1.0625,5.78125 -0.01058,0.05816 -0.02069,0.09845 -0.03125,0.15625 C 26.00902,25.120234 25.506146,23.820866 25.0625,22.75 24.160802,20.573665 23.005601,18.654365 21.78125,16.8125 22.190945,16.463879 22.657998,16.198743 22.96875,15.75 23.619609,14.810107 23.937465,13.672229 23.9375,12.46875 23.937465,10.80452 23.285933,9.2526183 22.125,8.125 20.982224,7.0151879 19.472974,6.4063014 17.875,6.40625 c -1.63619,5.05e-5 -3.202295,0.5773196 -4.34375,1.71875 -1.14147,1.1414953 -1.718774,2.707568 -1.71875,4.34375 -2.4e-5,1.521606 0.527517,2.990259 1.5625,4.125 0.740084,0.811522 1.704828,1.288913 2.75,1.59375 0.101126,0.607957 0.197652,1.181691 0.28125,1.9375 0.125002,1.130632 0.248671,2.34394 0.375,3.65625 0.124629,1.295198 0.231585,2.64466 0.28125,4 0.02562,0.699948 0.02222,1.334827 0.03125,2 -0.82423,-0.794638 -1.664997,-1.602342 -2.53125,-2.375 -0.947964,-0.845465 -1.846641,-1.626759 -2.75,-2.375 -0.466637,-0.386472 -0.841388,-0.667751 -1.25,-1 0.538589,-0.91662 0.906237,-1.939882 0.90625,-3.0625 -2.1e-5,-1.627196 -0.651862,-3.151805 -1.78125,-4.28125 -1.1294335,-1.129376 -2.6540532,-1.781209 -4.28125,-1.78125 -1.6272125,4.1e-5 -3.1706217,0.639401 -4.3125,1.78125 -1.14187734,1.141906 -1.75000866,2.678716 -1.75,4.28125 -8.52e-6,1.640578 0.60759152,3.203901 1.78125,4.34375 1.1553914,1.122192 2.683207,1.718779 4.28125,1.71875 0.099153,1.5e-5 0.2245542,4e-6 0.34375,0 0.3622733,0.550094 0.7244521,1.06967 1.15625,1.8125 0.6153128,1.058622 1.182053,2.169799 1.78125,3.34375 0.5909545,1.157897 1.1194815,2.27118 1.59375,3.34375 0.285289,0.645251 0.415998,1.031597 0.59375,1.5 -0.02022,0.01934 -0.04272,0.0428 -0.0625,0.0625 -0.532974,0.53093 -0.739474,1.15976 -0.875,1.84375 l -0.21875,1.125 A 1.50015,1.50015 0 0 0 9.6875,40.34375 c -2.13e-5,1.080298 0.2524064,2.141566 0.90625,3 0.441979,0.580341 0.885617,1.104393 1.34375,1.5625 0.160726,0.162392 0.391026,0.39105 0.71875,0.71875 0.163804,0.163816 0.388487,0.49701 0.59375,0.90625 a 1.50015,1.50015 0 0 0 0.03125,0.03125 c 0.327989,0.607529 0.512637,1.068063 0.625,1.40625 0.08966,0.269938 0.187482,0.712425 0.1875,1.34375 a 1.50015,1.50015 0 0 0 0,0.1875 l 0.15625,1.15625 0,0.5625 c -2e-6,0.02005 -0.02861,0.108358 -0.0625,0.34375 -0.0088,0.06075 -0.05105,0.279209 -0.125,0.5 a 1.50015,1.50015 0 0 0 -0.03125,0.15625 c -0.06353,0.288287 -0.183807,0.628287 -0.4375,1.09375 -0.141124,0.258885 -0.262552,0.464652 -0.34375,0.59375 -0.0812,0.129098 -0.203874,0.232554 -0.03125,0.0625 a 1.50015,1.50015 0 0 0 -0.1875,0.21875 c -0.459393,0.687868 -0.68753,1.512013 -0.6875,2.28125 -3.2e-5,1.643846 1.198465,3.037207 2.75,3.8125 1.409324,0.704233 3.048567,1.254861 5,1.65625 1.93045,0.397059 4.003921,0.656603 6.15625,0.8125 2.12104,0.153609 4.020056,0.249987 5.75,0.25 1.779165,-1.3e-5 3.721177,-0.09629 5.84375,-0.25 2.15332,-0.155974 4.197752,-0.416116 6.125,-0.8125 1.948006,-0.400701 3.613306,-0.94732 5.03125,-1.65625 1.550423,-0.775257 2.749909,-2.167952 2.75,-3.8125 -5.2e-5,-0.46838 -0.3323,-0.846618 -0.53125,-1.28125 l 0,-0.15625 a 1.50015,1.50015 0 0 0 -0.4375,-1.0625 c 0.17295,0.170249 0.0499,0.06653 -0.03125,-0.0625 -0.08115,-0.129029 -0.202679,-0.334896 -0.34375,-0.59375 -0.253721,-0.465398 -0.374053,-0.805646 -0.4375,-1.09375 -0.05213,-0.306407 -0.10882,-0.570469 -0.1875,-0.84375 -0.03656,-0.126719 -0.03125,-0.164867 -0.03125,-0.15625 -8e-6,-0.03965 0.01563,-0.0711 0.0625,-0.1875 a 1.50015,1.50015 0 0 0 0.09375,-0.5625 l 0,-1.15625 c -4.5e-5,-0.631247 0.09785,-1.07397 0.1875,-1.34375 0.109873,-0.330859 0.279768,-0.776082 0.59375,-1.3125 a 1.50015,1.50015 0 0 0 0.09375,-0.125 c 0.201981,-0.443466 0.411031,-0.754805 0.5625,-0.90625 0.327589,-0.327641 0.558222,-0.55664 0.71875,-0.71875 0.457985,-0.458045 0.901744,-0.982232 1.34375,-1.5625 0.6537,-0.858406 0.906176,-1.919773 0.90625,-3 a 1.50015,1.50015 0 0 0 0,-0.09375 L 54.25,39.125 a 1.50015,1.50015 0 0 0 -0.0625,-0.34375 c -0.192223,-0.636604 -0.420774,-1.235411 -1,-1.75 -0.0114,-0.01012 -0.01982,-0.0213 -0.03125,-0.03125 0.177529,-0.454791 0.304774,-0.816882 0.59375,-1.4375 0.506298,-1.087572 1.032255,-2.213739 1.625,-3.375 0.589633,-1.155359 1.186363,-2.266635 1.8125,-3.34375 0.431729,-0.742802 0.793983,-1.262445 1.15625,-1.8125 0.08254,-1e-6 0.177853,1.1e-5 0.25,0 1.597987,2.9e-5 3.12581,-0.596607 4.28125,-1.71875 1.173557,-1.139848 1.781164,-2.70322 1.78125,-4.34375 -8.7e-5,-1.602483 -0.608224,-3.139347 -1.75,-4.28125 -1.141927,-1.141801 -2.685342,-1.781209 -4.3125,-1.78125 -1.627251,4.1e-5 -3.151867,0.651827 -4.28125,1.78125 -1.12949,1.12945 -1.781327,2.654003 -1.78125,4.28125 -4.7e-5,1.122645 0.367631,2.145854 0.90625,3.0625 -0.408634,0.332265 -0.783388,0.613516 -1.25,1 -0.903468,0.748268 -1.802083,1.529509 -2.75,2.375 -0.866349,0.772681 -1.707048,1.580334 -2.53125,2.375 0.009,-0.665143 0.0056,-1.300079 0.03125,-2 0.04959,-1.355285 0.156552,-2.704862 0.28125,-4 0.126248,-1.312258 0.24993,-2.525686 0.375,-3.65625 0.08354,-0.755769 0.180114,-1.329601 0.28125,-1.9375 1.04501,-0.303304 2.027418,-0.761982 2.78125,-1.5625 1.054809,-1.120203 1.624927,-2.604304 1.625,-4.15625 -7.2e-5,-1.664211 -0.651604,-3.2161324 -1.8125,-4.34375 -1.142794,-1.1097947 -2.652047,-1.7186986 -4.25,-1.71875 -1.636212,5.05e-5 -3.202313,0.5773007 -4.34375,1.71875 -1.14151,1.1414964 -1.71881,2.707549 -1.71875,4.34375 -4.5e-5,1.74123 0.878872,3.168044 2.09375,4.28125 -1.240136,1.857211 -2.40158,3.801246 -3.3125,6 -0.443683,1.070877 -0.946511,2.370224 -1.40625,3.53125 -0.01055,-0.0578 -0.02067,-0.09809 -0.03125,-0.15625 -0.355106,-1.951672 -0.707889,-3.877873 -1.0625,-5.78125 -0.355273,-1.906432 -0.697013,-3.674278 -1,-5.3125 -0.213101,-1.151867 -0.369116,-1.924145 -0.53125,-2.75 C 35.627593,11.892905 36.281593,11.403654 36.8125,10.75 37.678291,9.6840036 38.124944,8.3814126 38.125,7.0625 38.124945,5.4543487 37.486029,3.921075 36.3125,2.78125 35.15211,1.6544018 33.627778,1.0000593 32,1 z m 0,5.0625 c 0.375633,2.33e-5 0.497821,0.060004 0.71875,0.28125 C 32.941757,6.5671543 32.999978,6.6879648 33,7.0625 32.999981,7.3601787 32.941241,7.514046 32.6875,7.78125 32.442272,8.0394875 32.322328,8.0937677 32,8.09375 31.677555,8.0937677 31.557607,8.0394007 31.3125,7.78125 31.058731,7.5140584 30.999984,7.3600762 31,7.0625 30.999982,6.6880538 31.058215,6.567147 31.28125,6.34375 31.502055,6.1225932 31.624255,6.0625233 32,6.0625 z m -14.125,5.40625 c 0.374558,2e-5 0.497205,0.05973 0.71875,0.28125 0.221534,0.221563 0.281236,0.344224 0.28125,0.71875 -1.4e-5,0.374632 -0.05833,0.495474 -0.28125,0.71875 -0.220899,0.221258 -0.343188,0.281268 -0.71875,0.28125 -0.375631,1.8e-5 -0.552136,-0.08305 -0.75,-0.28125 -0.222939,-0.223271 -0.281261,-0.344173 -0.28125,-0.71875 -1.1e-5,-0.374471 0.0597,-0.497191 0.28125,-0.71875 0.198489,-0.198483 0.375369,-0.28123 0.75,-0.28125 z m 28.34375,0 c 0.297531,1.7e-5 0.451393,0.05866 0.71875,0.3125 0.235852,0.22401 0.281222,0.321024 0.28125,0.6875 -2.8e-5,0.366582 -0.044,0.461837 -0.28125,0.6875 -0.26664,0.253604 -0.420143,0.312515 -0.71875,0.3125 -0.449108,2e-5 -0.59675,-0.08815 -0.75,-0.25 -0.186277,-0.19666 -0.25003,-0.322256 -0.25,-0.75 -3e-5,-0.427644 0.06512,-0.555096 0.25,-0.75 0.153791,-0.162137 0.30183,-0.249977 0.75,-0.25 z m -40.8125,8.5 c 0.366483,1.5e-5 0.4617628,0.04394 0.6875,0.28125 0.2535594,0.266606 0.3124937,0.420041 0.3125,0.71875 -7.4e-6,0.375695 -0.058597,0.496103 -0.28125,0.71875 C 5.8793549,21.933152 5.737809,22.000012 5.40625,22 5.1549752,22.00001 4.9775117,21.932113 4.6875,21.65625 4.450217,21.430576 4.4062454,21.335245 4.40625,20.96875 c -3.9e-6,-0.288794 0.044375,-0.419365 0.3125,-0.6875 0.2680783,-0.268068 0.3985923,-0.312487 0.6875,-0.3125 z m 53.1875,0 c 0.288789,1.3e-5 0.419303,0.04435 0.6875,0.3125 0.268093,0.268144 0.312471,0.398605 0.3125,0.6875 -3.5e-5,0.366583 -0.044,0.461823 -0.28125,0.6875 -0.290136,0.27594 -0.467598,0.34376 -0.71875,0.34375 -0.331676,1.2e-5 -0.473232,-0.06694 -0.71875,-0.3125 -0.222681,-0.22264 -0.281283,-0.343144 -0.28125,-0.71875 -2.8e-5,-0.298606 0.05891,-0.452156 0.3125,-0.71875 0.225617,-0.237223 0.320904,-0.281235 0.6875,-0.28125 z m -26.5625,4.25 c 0.211756,1.098175 0.418835,2.221809 0.625,3.28125 0.356743,1.833684 0.697387,3.486389 1,5 0.303868,1.520334 0.536143,2.679394 0.6875,3.4375 0.08103,0.402891 0.385126,0.826112 0.71875,1.1875 -1.052562,-0.04296 -2.166214,-0.09374 -3.0625,-0.09375 -0.896333,7e-6 -2.00995,0.05079 -3.0625,0.09375 0.306556,-0.332044 0.564553,-0.716571 0.65625,-1.09375 l 0.03125,0 c 0.0038,-0.01584 -0.0034,-0.0468 0,-0.0625 0.0022,-0.0084 0.02901,-0.02277 0.03125,-0.03125 0.211059,-0.798298 0.480409,-1.932689 0.78125,-3.4375 0.306402,-1.532946 0.615091,-3.182557 0.96875,-5 0.206662,-1.062222 0.418891,-2.178013 0.625,-3.28125 z M 22.125,29 c 0.553811,1.480854 1.117678,2.927609 1.71875,4.625 a 1.50015,1.50015 0 0 0 0,0.03125 L 24.8125,36.25 a 1.50015,1.50015 0 0 0 0.03125,0.09375 c 0.164286,0.363903 0.465977,0.69626 0.8125,1 -1.280869,0.109563 -2.560951,0.232331 -3.8125,0.4375 -0.16664,0.02732 -0.304184,0.06486 -0.46875,0.09375 0.285992,-0.350077 0.51237,-0.736443 0.5625,-1.1875 l 0.09375,0 c 0.0099,-0.06876 -0.0091,-0.149528 0,-0.21875 0.09361,-0.715131 0.156223,-1.45031 0.15625,-2.25 -2.7e-5,-0.8612 -2.7e-5,-1.732519 0,-2.59375 -1.3e-5,-0.8451 -0.04305,-1.750466 -0.0625,-2.625 z m 19.75,0.0625 c -0.01858,0.853148 -0.06252,1.73749 -0.0625,2.5625 -5.1e-5,0.904263 0.03736,1.740486 0.0625,2.5625 0.02424,0.795741 0.04383,1.546908 0.09375,2.28125 0.002,0.03013 -0.0022,0.06369 0,0.09375 l 0.03125,0 c 0.02311,0.500834 0.308451,0.925104 0.625,1.3125 -0.16456,-0.02889 -0.302118,-0.06643 -0.46875,-0.09375 -1.271856,-0.208488 -2.572745,-0.327647 -3.875,-0.4375 0.351558,-0.277042 0.725572,-0.606811 0.90625,-1.0625 a 1.50015,1.50015 0 0 0 0,-0.03125 l 0.96875,-2.59375 a 1.50015,1.50015 0 0 0 0,-0.03125 c 0.594953,-1.680257 1.161082,-3.098063 1.71875,-4.5625 z m 6.34375,6.59375 c -0.05603,0.149259 -0.137143,0.32328 -0.1875,0.46875 -0.249368,0.720048 -0.395339,1.280047 -0.46875,1.71875 a 1.50015,1.50015 0 0 0 -0.03125,0.25 l 0,0.125 c -3.8e-5,0.346263 0.186874,0.69218 0.34375,1.03125 -0.27785,-0.109058 -0.512911,-0.247419 -0.8125,-0.34375 -0.413147,-0.13283 -0.9109,-0.195837 -1.34375,-0.3125 0.03888,-0.02049 0.08774,-0.0079 0.125,-0.03125 0.455998,-0.285481 0.837782,-0.794761 1,-1.3125 l 0.03125,0 c -0.04291,0.130109 0.127424,-0.277778 0.5625,-0.78125 0.194948,-0.225634 0.52592,-0.543371 0.78125,-0.8125 z M 15.8125,35.6875 c 0.236559,0.260047 0.55207,0.552202 0.75,0.78125 0.435037,0.503505 0.605313,0.910968 0.5625,0.78125 a 1.50015,1.50015 0 0 0 0.09375,0.21875 c 0.185174,0.367652 0.534366,0.802346 1,1.09375 0.02947,0.01845 0.06354,0.01461 0.09375,0.03125 -0.442836,0.118887 -0.952747,0.176735 -1.375,0.3125 -0.242469,0.07796 -0.427964,0.195101 -0.65625,0.28125 0.134376,-0.316458 0.281234,-0.629554 0.28125,-0.96875 l 0,-0.125 a 1.50015,1.50015 0 0 0 -0.03125,-0.25 C 16.438277,37.288973 16.268011,36.789994 16,36.09375 15.951571,35.967966 15.863892,35.817047 15.8125,35.6875 z m 12.5,6.59375 c -0.521048,0.520103 -1.063692,0.95811 -1.625,1.3125 -1.158717,0.05497 -2.27521,0.128302 -3.21875,0.21875 -0.923525,0.08853 -1.68297,0.262132 -2.4375,0.46875 -0.589177,-0.176939 -1.200983,-0.411979 -1.8125,-0.6875 0.554552,-0.160691 1.006221,-0.298854 1.75,-0.46875 1.835507,-0.419269 4.408229,-0.6729 7.34375,-0.84375 z m 7.4375,0 c 2.938461,0.171369 5.518277,0.426785 7.34375,0.84375 0.738187,0.168623 1.17031,0.30945 1.71875,0.46875 -0.595254,0.272444 -1.196703,0.54235 -1.8125,0.71875 -0.763426,-0.211586 -1.531641,-0.410161 -2.46875,-0.5 -0.943599,-0.09045 -2.060083,-0.163778 -3.21875,-0.21875 -0.550517,-0.351329 -1.055105,-0.783469 -1.5625,-1.3125 z m -8.6875,6.40625 c 0.535564,0.388174 1.053782,0.779435 1.5,1.28125 -0.227371,0.01231 -0.424146,0.01693 -0.65625,0.03125 -1.267256,0.07816 -2.52612,0.184324 -3.78125,0.3125 -1.264884,0.12916 -2.466109,0.332139 -3.65625,0.5625 0.506428,-0.620187 1.006682,-1.174792 1.5625,-1.65625 1.205271,-0.293576 2.947892,-0.461813 5.03125,-0.53125 z m 9.875,0 c 2.10861,0.105205 3.852118,0.303516 5.03125,0.5625 0.549574,0.477979 1.061023,1.010935 1.5625,1.625 C 42.341052,50.644642 41.139807,50.44166 39.875,50.3125 38.619801,50.184325 37.360928,50.078162 36.09375,50 c -0.232117,-0.01432 -0.428871,-0.01894 -0.65625,-0.03125 0.446139,-0.501777 0.964424,-0.893091 1.5,-1.28125 z M 32,54.9375 c 4.944277,-5e-6 8.777417,0.352756 11.375,1.03125 0.611421,0.159707 0.876514,0.290567 1.34375,0.4375 -0.467092,0.139238 -0.736143,0.253049 -1.34375,0.40625 -2.605859,0.656997 -6.429577,1.031239 -11.375,1.03125 -4.9455,-1.1e-5 -8.73104,-0.345316 -11.28125,-1 -0.610236,-0.15666 -0.87701,-0.295583 -1.34375,-0.4375 0.465578,-0.149281 0.732019,-0.274809 1.34375,-0.4375 C 23.260545,55.292728 27.055646,54.937495 32,54.9375 z"
           id="path3782-7"
           style="font-size:76px;font-style:normal;font-variant:normal;font-weight:normal;font-stretch:normal;line-height:125%;letter-spacing:0px;word-spacing:0px;fill:#4d4d4d;fill-opacity:1;stroke:none;font-family:DiagramTTOldstyle;-inkscape-font-specification:DiagramTTOldstyle"
           inkscape:original="M 32 2.5 C 30.733606 2.5000461 29.667974 2.9578093 28.78125 3.84375 C 27.894457 4.7297802 27.437467 5.7946391 27.4375 7.0625 C 27.437467 8.0753172 27.741788 9.0015451 28.375 9.8125 C 29.008144 10.623532 29.817917 11.154253 30.78125 11.40625 C 30.578658 12.369584 30.33582 13.665806 30.03125 15.3125 C 29.726608 16.95926 29.3853 18.724721 29.03125 20.625 C 28.67713 22.525335 28.323574 24.455713 27.96875 26.40625 C 27.613858 28.356832 27.273323 30.10508 26.96875 31.625 C 25.804412 28.585144 24.726532 25.820498 23.6875 23.3125 C 22.648409 20.804553 21.375135 18.52713 19.90625 16.5 C 20.665419 16.094922 21.293837 15.564974 21.75 14.90625 C 22.206108 14.247593 22.437472 13.432083 22.4375 12.46875 C 22.437472 11.151405 21.980481 10.048785 21.09375 9.1875 C 20.206964 8.3262935 19.141332 7.9062907 17.875 7.90625 C 16.557595 7.9062907 15.454975 8.3262935 14.59375 9.1875 C 13.732484 10.048785 13.312481 11.151405 13.3125 12.46875 C 13.312481 13.685663 13.683249 14.732537 14.46875 15.59375 C 15.254211 16.455029 16.253396 16.930777 17.46875 17.03125 C 17.621803 17.843048 17.780209 18.829213 17.90625 19.96875 C 18.032243 21.108345 18.154435 22.307643 18.28125 23.625 C 18.408016 24.942406 18.51145 26.325624 18.5625 27.71875 C 18.613501 29.111917 18.624975 30.419614 18.625 31.6875 L 18.625 33.53125 C 17.966285 32.770524 17.199236 31.955013 16.3125 31.09375 C 15.425719 30.232522 14.499491 29.367003 13.5625 28.53125 C 12.62547 27.695537 11.730492 26.921978 10.84375 26.1875 C 9.9569746 25.453067 9.1899262 24.819685 8.53125 24.3125 C 9.4929858 23.502304 9.968734 22.38821 9.96875 20.96875 C 9.968734 19.702421 9.5117439 18.636789 8.625 17.75 C 7.7382268 16.863272 6.6725948 16.406282 5.40625 16.40625 C 4.1398824 16.406282 3.0430004 16.863272 2.15625 17.75 C 1.2694833 18.636789 0.84374316 19.702421 0.84375 20.96875 C 0.84374316 22.286159 1.2694833 23.388778 2.15625 24.25 C 3.0430004 25.11127 4.1398824 25.531273 5.40625 25.53125 C 5.5593146 25.531273 5.7349329 25.531273 5.9375 25.53125 C 6.1400432 25.531273 6.3172077 25.475528 6.46875 25.375 C 6.9758985 26.084739 7.5543077 27.004457 8.1875 28.09375 C 8.8206639 29.183084 9.4235686 30.309426 10.03125 31.5 C 10.638899 32.690608 11.174584 33.8482 11.65625 34.9375 C 12.137881 36.026827 12.484926 36.90382 12.6875 37.5625 C 12.333396 37.765066 12.07831 37.953705 11.875 38.15625 C 11.671654 38.358816 11.506737 38.711598 11.40625 39.21875 L 11.1875 40.34375 C 11.187483 41.205004 11.376122 41.905606 11.78125 42.4375 C 12.186342 42.969407 12.594871 43.438644 13 43.84375 C 13.151511 43.996831 13.389385 44.233159 13.71875 44.5625 C 14.048076 44.891849 14.340149 45.338138 14.59375 45.84375 C 14.949361 46.502443 15.192199 47.043865 15.34375 47.5 C 15.495258 47.956137 15.593728 48.551758 15.59375 49.3125 L 15.75 50.46875 L 15.75 51.21875 C 15.749978 51.421302 15.712991 51.604204 15.6875 51.78125 C 15.661966 51.958289 15.602029 52.22664 15.5 52.53125 C 15.399474 52.987382 15.210062 53.473831 14.90625 54.03125 C 14.602396 54.588658 14.38328 54.930739 14.28125 55.03125 C 13.976624 55.487379 13.84373 55.961581 13.84375 56.46875 C 13.84373 57.481518 14.482849 58.304312 15.75 58.9375 C 17.017108 59.570668 18.556942 60.088367 20.40625 60.46875 C 22.255506 60.849109 24.240855 61.097684 26.34375 61.25 C 28.44658 61.40229 30.328496 61.499987 32 61.5 C 33.722454 61.499987 35.647094 61.40229 37.75 61.25 C 39.852819 61.097684 41.806918 60.849109 43.65625 60.46875 C 45.505482 60.088367 47.07734 59.570668 48.34375 58.9375 C 49.610052 58.304312 50.249944 57.481518 50.25 56.46875 C 50.249944 55.961581 50.072779 55.541578 49.71875 55.1875 L 49.71875 55.03125 C 49.616644 54.930739 49.397528 54.588658 49.09375 54.03125 C 48.789862 53.473831 48.60045 52.987382 48.5 52.53125 C 48.44892 52.22664 48.394721 51.958289 48.34375 51.78125 C 48.29267 51.604204 48.249946 51.421302 48.25 51.21875 C 48.249946 50.965167 48.304145 50.722329 48.40625 50.46875 L 48.40625 49.3125 C 48.406196 48.551758 48.504666 47.956137 48.65625 47.5 C 48.807725 47.043865 49.050563 46.513918 49.40625 45.90625 C 49.659775 45.349613 49.951848 44.891849 50.28125 44.5625 C 50.610539 44.233159 50.848413 43.996831 51 43.84375 C 51.405053 43.438644 51.813582 42.969407 52.21875 42.4375 C 52.623802 41.905606 52.812441 41.205004 52.8125 40.34375 L 52.75 39.21875 C 52.596865 38.711598 52.41551 38.358816 52.1875 38.15625 C 51.959374 37.953705 51.666528 37.765066 51.3125 37.5625 C 51.514998 36.90382 51.867781 36.026827 52.375 34.9375 C 52.882103 33.8482 53.423525 32.690608 54.03125 31.5 C 54.638855 30.309426 55.27301 29.183084 55.90625 28.09375 C 56.539366 27.004457 57.117775 26.084739 57.625 25.375 C 57.776466 25.475528 57.910906 25.531273 58.0625 25.53125 C 58.264991 25.531273 58.440609 25.531273 58.59375 25.53125 C 59.860042 25.531273 60.956924 25.11127 61.84375 24.25 C 62.730441 23.388778 63.156181 22.286159 63.15625 20.96875 C 63.156181 19.702421 62.730441 18.636789 61.84375 17.75 C 60.956924 16.863272 59.860042 16.406282 58.59375 16.40625 C 57.327329 16.406282 56.261697 16.863272 55.375 17.75 C 54.48818 18.636789 54.03119 19.702421 54.03125 20.96875 C 54.03119 22.38821 54.506938 23.502304 55.46875 24.3125 C 54.809998 24.819685 54.042949 25.453067 53.15625 26.1875 C 52.269432 26.921978 51.374454 27.695537 50.4375 28.53125 C 49.500433 29.367003 48.574205 30.232522 47.6875 31.09375 C 46.800688 31.955013 46.033639 32.770524 45.375 33.53125 L 45.375 31.6875 C 45.374949 30.419614 45.386423 29.111917 45.4375 27.71875 C 45.488474 26.325624 45.591908 24.942406 45.71875 23.625 C 45.845489 22.307643 45.967681 21.108345 46.09375 19.96875 C 46.219715 18.829213 46.378121 17.843048 46.53125 17.03125 C 47.746528 16.930777 48.751451 16.455029 49.5625 15.59375 C 50.373438 14.732537 50.781193 13.685663 50.78125 12.46875 C 50.781193 11.151405 50.324203 10.048785 49.4375 9.1875 C 48.550686 8.3262935 47.485054 7.9062907 46.21875 7.90625 C 44.901316 7.9062907 43.798697 8.3262935 42.9375 9.1875 C 42.076205 10.048785 41.656202 11.151405 41.65625 12.46875 C 41.656202 14.344354 42.473259 15.689812 44.09375 16.5 C 42.624789 18.52713 41.351515 20.804553 40.3125 23.3125 C 39.273392 25.820498 38.195512 28.585144 37.03125 31.625 C 36.726601 30.10508 36.386066 28.356832 36.03125 26.40625 C 35.67635 24.455713 35.322794 22.525335 34.96875 20.625 C 34.614624 18.724721 34.273316 16.95926 33.96875 15.3125 C 33.664104 13.665806 33.421266 12.369584 33.21875 11.40625 C 34.182007 11.154253 34.997518 10.623532 35.65625 9.8125 C 36.314899 9.0015451 36.624957 8.0753172 36.625 7.0625 C 36.624957 5.7946391 36.19348 4.7297802 35.28125 3.84375 C 34.368938 2.9578093 33.266318 2.5000461 32 2.5 z M 32 4.5625 C 32.709678 4.562544 33.300335 4.799645 33.78125 5.28125 C 34.262085 5.7629416 34.499959 6.3528254 34.5 7.0625 C 34.499959 7.7212322 34.262085 8.3061519 33.78125 8.8125 C 33.300335 9.3189276 32.709678 9.593789 32 9.59375 C 31.290246 9.593789 30.699589 9.3189276 30.21875 8.8125 C 29.737839 8.3061519 29.499965 7.7212322 29.5 7.0625 C 29.499965 6.3528254 29.737839 5.7629416 30.21875 5.28125 C 30.699589 4.799645 31.290246 4.562544 32 4.5625 z M 17.875 9.96875 C 18.584692 9.9687886 19.175349 10.206663 19.65625 10.6875 C 20.1371 11.168413 20.374974 11.75907 20.375 12.46875 C 20.374974 13.178502 20.1371 13.768386 19.65625 14.25 C 19.175349 14.731683 18.584692 14.968784 17.875 14.96875 C 17.16526 14.968784 16.543353 14.731683 16.0625 14.25 C 15.581603 13.768386 15.343729 13.178502 15.34375 12.46875 C 15.343729 11.75907 15.581603 11.168413 16.0625 10.6875 C 16.543353 10.206663 17.16526 9.9687886 17.875 9.96875 z M 46.21875 9.96875 C 46.877389 9.9687886 47.462308 10.206663 47.96875 10.6875 C 48.475084 11.168413 48.718695 11.75907 48.71875 12.46875 C 48.718695 13.178502 48.475084 13.768386 47.96875 14.25 C 47.462308 14.731683 46.877389 14.968784 46.21875 14.96875 C 45.457956 14.968784 44.831085 14.731683 44.375 14.25 C 43.918814 13.768386 43.7187 13.178502 43.71875 12.46875 C 43.7187 11.75907 43.918814 11.168413 44.375 10.6875 C 44.831085 10.206663 45.457956 9.9687886 46.21875 9.96875 z M 32 16.1875 C 32.304568 17.807973 32.651613 19.611194 33.03125 21.5625 C 33.410809 23.51386 33.770102 25.395002 34.125 27.21875 C 34.479818 29.042541 34.821126 30.69883 35.125 32.21875 C 35.428792 33.738703 35.660928 34.897068 35.8125 35.65625 C 35.914509 36.163424 36.224567 36.406262 36.78125 36.40625 C 36.934283 36.457287 37.109902 36.408053 37.3125 36.28125 C 37.515012 36.154472 37.680702 35.972343 37.78125 35.71875 L 38.75 33.125 C 39.611201 30.692808 40.433222 28.500834 41.21875 26.5 C 42.004184 24.49921 42.923128 22.586045 43.9375 20.8125 C 43.68387 22.432969 43.513989 24.193465 43.4375 26.09375 C 43.360913 27.99408 43.312451 29.8515 43.3125 31.625 C 43.312451 32.486263 43.349438 33.320531 43.375 34.15625 C 43.400463 34.991998 43.417675 35.759046 43.46875 36.46875 C 43.468701 36.722343 43.572908 36.942232 43.75 37.09375 C 43.926993 37.245291 44.121369 37.312511 44.375 37.3125 C 44.62853 37.414562 44.859894 37.408052 45.0625 37.28125 C 45.265004 37.154471 45.386423 36.983817 45.4375 36.78125 C 45.537953 36.476656 45.830799 36.057426 46.3125 35.5 C 46.794096 34.9426 47.41523 34.302708 48.125 33.59375 C 48.834662 32.884822 49.60171 32.129248 50.4375 31.34375 C 51.273177 30.558286 52.107445 29.834736 52.96875 29.125 C 52.512555 29.986265 52.049828 30.874733 51.59375 31.8125 C 51.137557 32.750301 50.723291 33.627294 50.34375 34.4375 C 49.964096 35.247735 49.665512 35.966321 49.4375 36.625 C 49.209377 37.283703 49.08222 37.789155 49.03125 38.09375 L 49.03125 38.21875 C 49.031195 38.724375 49.262559 39.078704 49.71875 39.28125 L 49.9375 39.28125 C 49.937444 39.281259 50.047389 39.329721 50.25 39.40625 C 50.452499 39.482797 50.585393 39.531259 50.6875 39.53125 L 50.6875 39.59375 L 50.78125 40.34375 C 50.781193 41.002449 50.42841 41.586596 49.71875 42.09375 C 49.060004 41.38404 48.012356 40.799894 46.59375 40.34375 C 45.175038 39.887623 43.603954 39.528329 41.90625 39.25 C 40.20845 38.971689 38.491451 38.788787 36.71875 38.6875 C 34.945963 38.586232 33.368369 38.53126 32 38.53125 C 30.631555 38.53126 29.053961 38.586232 27.28125 38.6875 C 25.508473 38.788787 23.791474 38.971689 22.09375 39.25 C 20.39597 39.528329 18.824886 39.887623 17.40625 40.34375 C 15.987568 40.799894 14.93992 41.38404 14.28125 42.09375 C 13.976624 41.840176 13.733786 41.597338 13.53125 41.34375 C 13.328675 41.090177 13.218731 40.748868 13.21875 40.34375 L 13.3125 39.59375 L 13.3125 39.53125 C 13.414531 39.531259 13.547425 39.482797 13.75 39.40625 L 14.0625 39.28125 L 14.4375 39.28125 C 14.84259 39.027679 15.062479 38.67335 15.0625 38.21875 L 15.0625 38.09375 C 15.011454 37.789155 14.84731 37.283703 14.59375 36.625 C 14.340149 35.966321 14.041565 35.247735 13.6875 34.4375 C 13.333395 33.627294 12.924867 32.750301 12.46875 31.8125 C 12.012596 30.874733 11.538394 29.986265 11.03125 29.125 C 11.892479 29.834736 12.732485 30.558286 13.59375 31.34375 C 14.454976 32.129248 15.253275 32.884822 15.9375 33.59375 C 16.621681 34.302708 17.205828 34.9426 17.6875 35.5 C 18.169125 36.057426 18.461971 36.476656 18.5625 36.78125 C 18.664526 36.983817 18.79742 37.154471 19 37.28125 C 19.20253 37.408052 19.446915 37.414562 19.75 37.3125 C 19.90305 37.312511 20.072931 37.245291 20.25 37.09375 C 20.427016 36.942232 20.531223 36.722343 20.53125 36.46875 C 20.633274 35.759046 20.687473 35.028985 20.6875 34.21875 C 20.687473 33.357518 20.687473 32.486263 20.6875 31.625 C 20.687473 29.8515 20.639011 27.99408 20.5625 26.09375 C 20.485935 24.193465 20.358779 22.432969 20.15625 20.8125 C 21.170546 22.586045 22.052503 24.49921 22.8125 26.5 C 23.57244 28.500834 24.388723 30.692808 25.25 33.125 L 26.21875 35.71875 C 26.470752 36.276949 26.81206 36.508313 27.21875 36.40625 C 27.775357 36.406262 28.085415 36.163424 28.1875 35.65625 C 28.390021 34.897068 28.664882 33.738703 28.96875 32.21875 C 29.272548 30.69883 29.582606 29.042541 29.9375 27.21875 C 30.292322 25.395002 30.645878 23.51386 31 21.5625 C 31.354048 19.611194 31.695356 17.807973 32 16.1875 z M 5.40625 18.46875 C 6.1159547 18.46878 6.7058385 18.712391 7.1875 19.21875 C 7.6691351 19.725167 7.9062361 20.310087 7.90625 20.96875 C 7.9062361 21.678494 7.6691351 22.268378 7.1875 22.75 C 6.7058385 23.231674 6.1159547 23.500025 5.40625 23.5 C 4.7475479 23.500025 4.1626282 23.231674 3.65625 22.75 C 3.1498525 22.268378 2.9062411 21.678494 2.90625 20.96875 C 2.9062411 20.310087 3.1498525 19.725167 3.65625 19.21875 C 4.1626282 18.712391 4.7475479 18.46878 5.40625 18.46875 z M 58.59375 18.46875 C 59.252376 18.46878 59.837296 18.712391 60.34375 19.21875 C 60.850071 19.725167 61.093683 20.310087 61.09375 20.96875 C 61.093683 21.678494 60.850071 22.268378 60.34375 22.75 C 59.837296 23.231674 59.252376 23.500025 58.59375 23.5 C 57.883969 23.500025 57.294085 23.231674 56.8125 22.75 C 56.330789 22.268378 56.093688 21.678494 56.09375 20.96875 C 56.093688 20.310087 56.330789 19.725167 56.8125 19.21875 C 57.294085 18.712391 57.883969 18.46878 58.59375 18.46875 z M 31.46875 40.59375 C 31.012577 41.455004 30.416183 42.282762 29.65625 43.09375 C 28.896246 43.904749 28.079963 44.555343 27.21875 45.0625 C 25.901335 45.111983 24.689544 45.210453 23.625 45.3125 C 22.560396 45.414554 21.665418 45.591718 20.90625 45.84375 C 19.993952 45.591718 19.061987 45.237389 18.125 44.78125 C 17.187965 44.325118 16.42169 43.862391 15.8125 43.40625 C 16.370664 42.848069 17.964698 42.263922 20.625 41.65625 C 23.285249 41.048592 26.908903 40.695809 31.46875 40.59375 z M 32.53125 40.59375 C 37.142047 40.695809 40.777175 41.048592 43.4375 41.65625 C 46.097726 42.263922 47.680285 42.848069 48.1875 43.40625 C 47.578234 43.862391 46.817696 44.325118 45.90625 44.78125 C 44.9947 45.237389 44.056997 45.591718 43.09375 45.84375 C 42.334506 45.591718 41.439528 45.414554 40.375 45.3125 C 39.31038 45.210453 38.098589 45.111983 36.78125 45.0625 C 35.919961 44.555343 35.140665 43.904749 34.40625 43.09375 C 33.671754 42.282762 33.038372 41.455004 32.53125 40.59375 z M 27.53125 47.125 C 28.392462 47.683188 29.122523 48.333781 29.78125 49.09375 C 30.439905 49.853718 31.012577 50.615802 31.46875 51.375 C 30.403365 51.374997 29.240809 51.423459 28 51.5 C 26.759123 51.576535 25.522836 51.685707 24.28125 51.8125 C 23.039603 51.939287 21.852552 52.116452 20.6875 52.34375 C 19.522395 52.571041 18.432023 52.863114 17.46875 53.21875 L 17.46875 53.125 C 17.519752 52.973466 17.562476 52.809322 17.5625 52.65625 C 17.916561 51.795 18.440771 50.954994 19.125 50.09375 C 19.809178 49.232503 20.533502 48.471192 21.34375 47.8125 C 22.865205 47.40739 24.947479 47.176027 27.53125 47.125 z M 36.46875 47.125 C 39.103471 47.227052 41.185744 47.458416 42.65625 47.8125 C 43.466422 48.471192 44.190746 49.232503 44.875 50.09375 C 45.559153 50.954994 46.083363 51.795 46.4375 52.65625 C 46.437448 52.707271 46.443185 52.798458 46.46875 52.875 C 46.49421 52.951534 46.531197 53.024491 46.53125 53.125 L 46.53125 53.21875 C 45.567901 52.863114 44.477529 52.571041 43.3125 52.34375 C 42.147372 52.116452 40.960321 51.939287 39.71875 51.8125 C 38.477088 51.685707 37.240801 51.576535 36 51.5 C 34.759115 51.423459 33.596559 51.374997 32.53125 51.375 C 32.987347 50.615802 33.560019 49.853718 34.21875 49.09375 C 34.877401 48.333781 35.607462 47.683188 36.46875 47.125 z M 32 53.4375 C 37.015908 53.437495 40.938145 53.796788 43.75 54.53125 C 46.561756 55.2657 48.03437 55.910556 48.1875 56.46875 C 48.03437 56.975903 46.561756 57.572297 43.75 58.28125 C 40.938145 58.990183 37.015908 59.343739 32 59.34375 C 26.984016 59.343739 23.105277 58.990183 20.34375 58.28125 C 17.58217 57.572297 16.120258 56.975903 15.96875 56.46875 C 16.120258 55.910556 17.58217 55.2657 20.34375 54.53125 C 23.105277 53.796788 26.984016 53.437495 32 53.4375 z "
           inkscape:radius="1.5"
           sodipodi:type="inkscape:offset" />
      </g>
      <g
         style="fill:#ffffff"
         transform="translate(323.85562,-11.795841)"
         id="layer1-2-1"
         inkscape:label="Layer 1">
        <path
           transform="translate(-31.841944,10.528385)"
           d="m 32,1 c -1.627833,5.93e-5 -3.152212,0.6532092 -4.28125,1.78125 -1.129613,1.128641 -1.781292,2.6529255 -1.78125,4.28125 -4.3e-5,1.3133168 0.419294,2.6236145 1.25,3.6875 0.518739,0.664484 1.18483,1.139829 1.90625,1.53125 -0.162165,0.825904 -0.318198,1.598109 -0.53125,2.75 -0.303071,1.638269 -0.644797,3.406033 -1,5.3125 -0.354694,1.903416 -0.707463,3.829542 -1.0625,5.78125 -0.01058,0.05816 -0.02069,0.09845 -0.03125,0.15625 C 26.00902,25.120234 25.506146,23.820866 25.0625,22.75 24.160802,20.573665 23.005601,18.654365 21.78125,16.8125 22.190945,16.463879 22.657998,16.198743 22.96875,15.75 23.619609,14.810107 23.937465,13.672229 23.9375,12.46875 23.937465,10.80452 23.285933,9.2526183 22.125,8.125 20.982224,7.0151879 19.472974,6.4063014 17.875,6.40625 c -1.63619,5.05e-5 -3.202295,0.5773196 -4.34375,1.71875 -1.14147,1.1414953 -1.718774,2.707568 -1.71875,4.34375 -2.4e-5,1.521606 0.527517,2.990259 1.5625,4.125 0.740084,0.811522 1.704828,1.288913 2.75,1.59375 0.101126,0.607957 0.197652,1.181691 0.28125,1.9375 0.125002,1.130632 0.248671,2.34394 0.375,3.65625 0.124629,1.295198 0.231585,2.64466 0.28125,4 0.02562,0.699948 0.02222,1.334827 0.03125,2 -0.82423,-0.794638 -1.664997,-1.602342 -2.53125,-2.375 -0.947964,-0.845465 -1.846641,-1.626759 -2.75,-2.375 -0.466637,-0.386472 -0.841388,-0.667751 -1.25,-1 0.538589,-0.91662 0.906237,-1.939882 0.90625,-3.0625 -2.1e-5,-1.627196 -0.651862,-3.151805 -1.78125,-4.28125 -1.1294335,-1.129376 -2.6540532,-1.781209 -4.28125,-1.78125 -1.6272125,4.1e-5 -3.1706217,0.639401 -4.3125,1.78125 -1.14187734,1.141906 -1.75000866,2.678716 -1.75,4.28125 -8.52e-6,1.640578 0.60759152,3.203901 1.78125,4.34375 1.1553914,1.122192 2.683207,1.718779 4.28125,1.71875 0.099153,1.5e-5 0.2245542,4e-6 0.34375,0 0.3622733,0.550094 0.7244521,1.06967 1.15625,1.8125 0.6153128,1.058622 1.182053,2.169799 1.78125,3.34375 0.5909545,1.157897 1.1194815,2.27118 1.59375,3.34375 0.285289,0.645251 0.415998,1.031597 0.59375,1.5 -0.02022,0.01934 -0.04272,0.0428 -0.0625,0.0625 -0.532974,0.53093 -0.739474,1.15976 -0.875,1.84375 l -0.21875,1.125 A 1.50015,1.50015 0 0 0 9.6875,40.34375 c -2.13e-5,1.080298 0.2524064,2.141566 0.90625,3 0.441979,0.580341 0.885617,1.104393 1.34375,1.5625 0.160726,0.162392 0.391026,0.39105 0.71875,0.71875 0.163804,0.163816 0.388487,0.49701 0.59375,0.90625 a 1.50015,1.50015 0 0 0 0.03125,0.03125 c 0.327989,0.607529 0.512637,1.068063 0.625,1.40625 0.08966,0.269938 0.187482,0.712425 0.1875,1.34375 a 1.50015,1.50015 0 0 0 0,0.1875 l 0.15625,1.15625 0,0.5625 c -2e-6,0.02005 -0.02861,0.108358 -0.0625,0.34375 -0.0088,0.06075 -0.05105,0.279209 -0.125,0.5 a 1.50015,1.50015 0 0 0 -0.03125,0.15625 c -0.06353,0.288287 -0.183807,0.628287 -0.4375,1.09375 -0.141124,0.258885 -0.262552,0.464652 -0.34375,0.59375 -0.0812,0.129098 -0.203874,0.232554 -0.03125,0.0625 a 1.50015,1.50015 0 0 0 -0.1875,0.21875 c -0.459393,0.687868 -0.68753,1.512013 -0.6875,2.28125 -3.2e-5,1.643846 1.198465,3.037207 2.75,3.8125 1.409324,0.704233 3.048567,1.254861 5,1.65625 1.93045,0.397059 4.003921,0.656603 6.15625,0.8125 2.12104,0.153609 4.020056,0.249987 5.75,0.25 1.779165,-1.3e-5 3.721177,-0.09629 5.84375,-0.25 2.15332,-0.155974 4.197752,-0.416116 6.125,-0.8125 1.948006,-0.400701 3.613306,-0.94732 5.03125,-1.65625 1.550423,-0.775257 2.749909,-2.167952 2.75,-3.8125 -5.2e-5,-0.46838 -0.3323,-0.846618 -0.53125,-1.28125 l 0,-0.15625 a 1.50015,1.50015 0 0 0 -0.4375,-1.0625 c 0.17295,0.170249 0.0499,0.06653 -0.03125,-0.0625 -0.08115,-0.129029 -0.202679,-0.334896 -0.34375,-0.59375 -0.253721,-0.465398 -0.374053,-0.805646 -0.4375,-1.09375 -0.05213,-0.306407 -0.10882,-0.570469 -0.1875,-0.84375 -0.03656,-0.126719 -0.03125,-0.164867 -0.03125,-0.15625 -8e-6,-0.03965 0.01563,-0.0711 0.0625,-0.1875 a 1.50015,1.50015 0 0 0 0.09375,-0.5625 l 0,-1.15625 c -4.5e-5,-0.631247 0.09785,-1.07397 0.1875,-1.34375 0.109873,-0.330859 0.279768,-0.776082 0.59375,-1.3125 a 1.50015,1.50015 0 0 0 0.09375,-0.125 c 0.201981,-0.443466 0.411031,-0.754805 0.5625,-0.90625 0.327589,-0.327641 0.558222,-0.55664 0.71875,-0.71875 0.457985,-0.458045 0.901744,-0.982232 1.34375,-1.5625 0.6537,-0.858406 0.906176,-1.919773 0.90625,-3 a 1.50015,1.50015 0 0 0 0,-0.09375 L 54.25,39.125 a 1.50015,1.50015 0 0 0 -0.0625,-0.34375 c -0.192223,-0.636604 -0.420774,-1.235411 -1,-1.75 -0.0114,-0.01012 -0.01982,-0.0213 -0.03125,-0.03125 0.177529,-0.454791 0.304774,-0.816882 0.59375,-1.4375 0.506298,-1.087572 1.032255,-2.213739 1.625,-3.375 0.589633,-1.155359 1.186363,-2.266635 1.8125,-3.34375 0.431729,-0.742802 0.793983,-1.262445 1.15625,-1.8125 0.08254,-1e-6 0.177853,1.1e-5 0.25,0 1.597987,2.9e-5 3.12581,-0.596607 4.28125,-1.71875 1.173557,-1.139848 1.781164,-2.70322 1.78125,-4.34375 -8.7e-5,-1.602483 -0.608224,-3.139347 -1.75,-4.28125 -1.141927,-1.141801 -2.685342,-1.781209 -4.3125,-1.78125 -1.627251,4.1e-5 -3.151867,0.651827 -4.28125,1.78125 -1.12949,1.12945 -1.781327,2.654003 -1.78125,4.28125 -4.7e-5,1.122645 0.367631,2.145854 0.90625,3.0625 -0.408634,0.332265 -0.783388,0.613516 -1.25,1 -0.903468,0.748268 -1.802083,1.529509 -2.75,2.375 -0.866349,0.772681 -1.707048,1.580334 -2.53125,2.375 0.009,-0.665143 0.0056,-1.300079 0.03125,-2 0.04959,-1.355285 0.156552,-2.704862 0.28125,-4 0.126248,-1.312258 0.24993,-2.525686 0.375,-3.65625 0.08354,-0.755769 0.180114,-1.329601 0.28125,-1.9375 1.04501,-0.303304 2.027418,-0.761982 2.78125,-1.5625 1.054809,-1.120203 1.624927,-2.604304 1.625,-4.15625 -7.2e-5,-1.664211 -0.651604,-3.2161324 -1.8125,-4.34375 -1.142794,-1.1097947 -2.652047,-1.7186986 -4.25,-1.71875 -1.636212,5.05e-5 -3.202313,0.5773007 -4.34375,1.71875 -1.14151,1.1414964 -1.71881,2.707549 -1.71875,4.34375 -4.5e-5,1.74123 0.878872,3.168044 2.09375,4.28125 -1.240136,1.857211 -2.40158,3.801246 -3.3125,6 -0.443683,1.070877 -0.946511,2.370224 -1.40625,3.53125 -0.01055,-0.0578 -0.02067,-0.09809 -0.03125,-0.15625 -0.355106,-1.951672 -0.707889,-3.877873 -1.0625,-5.78125 -0.355273,-1.906432 -0.697013,-3.674278 -1,-5.3125 -0.213101,-1.151867 -0.369116,-1.924145 -0.53125,-2.75 C 35.627593,11.892905 36.281593,11.403654 36.8125,10.75 37.678291,9.6840036 38.124944,8.3814126 38.125,7.0625 38.124945,5.4543487 37.486029,3.921075 36.3125,2.78125 35.15211,1.6544018 33.627778,1.0000593 32,1 z m 0,5.0625 c 0.375633,2.33e-5 0.497821,0.060004 0.71875,0.28125 C 32.941757,6.5671543 32.999978,6.6879648 33,7.0625 32.999981,7.3601787 32.941241,7.514046 32.6875,7.78125 32.442272,8.0394875 32.322328,8.0937677 32,8.09375 31.677555,8.0937677 31.557607,8.0394007 31.3125,7.78125 31.058731,7.5140584 30.999984,7.3600762 31,7.0625 30.999982,6.6880538 31.058215,6.567147 31.28125,6.34375 31.502055,6.1225932 31.624255,6.0625233 32,6.0625 z m -14.125,5.40625 c 0.374558,2e-5 0.497205,0.05973 0.71875,0.28125 0.221534,0.221563 0.281236,0.344224 0.28125,0.71875 -1.4e-5,0.374632 -0.05833,0.495474 -0.28125,0.71875 -0.220899,0.221258 -0.343188,0.281268 -0.71875,0.28125 -0.375631,1.8e-5 -0.552136,-0.08305 -0.75,-0.28125 -0.222939,-0.223271 -0.281261,-0.344173 -0.28125,-0.71875 -1.1e-5,-0.374471 0.0597,-0.497191 0.28125,-0.71875 0.198489,-0.198483 0.375369,-0.28123 0.75,-0.28125 z m 28.34375,0 c 0.297531,1.7e-5 0.451393,0.05866 0.71875,0.3125 0.235852,0.22401 0.281222,0.321024 0.28125,0.6875 -2.8e-5,0.366582 -0.044,0.461837 -0.28125,0.6875 -0.26664,0.253604 -0.420143,0.312515 -0.71875,0.3125 -0.449108,2e-5 -0.59675,-0.08815 -0.75,-0.25 -0.186277,-0.19666 -0.25003,-0.322256 -0.25,-0.75 -3e-5,-0.427644 0.06512,-0.555096 0.25,-0.75 0.153791,-0.162137 0.30183,-0.249977 0.75,-0.25 z m -40.8125,8.5 c 0.366483,1.5e-5 0.4617628,0.04394 0.6875,0.28125 0.2535594,0.266606 0.3124937,0.420041 0.3125,0.71875 -7.4e-6,0.375695 -0.058597,0.496103 -0.28125,0.71875 C 5.8793549,21.933152 5.737809,22.000012 5.40625,22 5.1549752,22.00001 4.9775117,21.932113 4.6875,21.65625 4.450217,21.430576 4.4062454,21.335245 4.40625,20.96875 c -3.9e-6,-0.288794 0.044375,-0.419365 0.3125,-0.6875 0.2680783,-0.268068 0.3985923,-0.312487 0.6875,-0.3125 z m 53.1875,0 c 0.288789,1.3e-5 0.419303,0.04435 0.6875,0.3125 0.268093,0.268144 0.312471,0.398605 0.3125,0.6875 -3.5e-5,0.366583 -0.044,0.461823 -0.28125,0.6875 -0.290136,0.27594 -0.467598,0.34376 -0.71875,0.34375 -0.331676,1.2e-5 -0.473232,-0.06694 -0.71875,-0.3125 -0.222681,-0.22264 -0.281283,-0.343144 -0.28125,-0.71875 -2.8e-5,-0.298606 0.05891,-0.452156 0.3125,-0.71875 0.225617,-0.237223 0.320904,-0.281235 0.6875,-0.28125 z m -26.5625,4.25 c 0.211756,1.098175 0.418835,2.221809 0.625,3.28125 0.356743,1.833684 0.697387,3.486389 1,5 0.303868,1.520334 0.536143,2.679394 0.6875,3.4375 0.08103,0.402891 0.385126,0.826112 0.71875,1.1875 -1.052562,-0.04296 -2.166214,-0.09374 -3.0625,-0.09375 -0.896333,7e-6 -2.00995,0.05079 -3.0625,0.09375 0.306556,-0.332044 0.564553,-0.716571 0.65625,-1.09375 l 0.03125,0 c 0.0038,-0.01584 -0.0034,-0.0468 0,-0.0625 0.0022,-0.0084 0.02901,-0.02277 0.03125,-0.03125 0.211059,-0.798298 0.480409,-1.932689 0.78125,-3.4375 0.306402,-1.532946 0.615091,-3.182557 0.96875,-5 0.206662,-1.062222 0.418891,-2.178013 0.625,-3.28125 z M 22.125,29 c 0.553811,1.480854 1.117678,2.927609 1.71875,4.625 a 1.50015,1.50015 0 0 0 0,0.03125 L 24.8125,36.25 a 1.50015,1.50015 0 0 0 0.03125,0.09375 c 0.164286,0.363903 0.465977,0.69626 0.8125,1 -1.280869,0.109563 -2.560951,0.232331 -3.8125,0.4375 -0.16664,0.02732 -0.304184,0.06486 -0.46875,0.09375 0.285992,-0.350077 0.51237,-0.736443 0.5625,-1.1875 l 0.09375,0 c 0.0099,-0.06876 -0.0091,-0.149528 0,-0.21875 0.09361,-0.715131 0.156223,-1.45031 0.15625,-2.25 -2.7e-5,-0.8612 -2.7e-5,-1.732519 0,-2.59375 -1.3e-5,-0.8451 -0.04305,-1.750466 -0.0625,-2.625 z m 19.75,0.0625 c -0.01858,0.853148 -0.06252,1.73749 -0.0625,2.5625 -5.1e-5,0.904263 0.03736,1.740486 0.0625,2.5625 0.02424,0.795741 0.04383,1.546908 0.09375,2.28125 0.002,0.03013 -0.0022,0.06369 0,0.09375 l 0.03125,0 c 0.02311,0.500834 0.308451,0.925104 0.625,1.3125 -0.16456,-0.02889 -0.302118,-0.06643 -0.46875,-0.09375 -1.271856,-0.208488 -2.572745,-0.327647 -3.875,-0.4375 0.351558,-0.277042 0.725572,-0.606811 0.90625,-1.0625 a 1.50015,1.50015 0 0 0 0,-0.03125 l 0.96875,-2.59375 a 1.50015,1.50015 0 0 0 0,-0.03125 c 0.594953,-1.680257 1.161082,-3.098063 1.71875,-4.5625 z m 6.34375,6.59375 c -0.05603,0.149259 -0.137143,0.32328 -0.1875,0.46875 -0.249368,0.720048 -0.395339,1.280047 -0.46875,1.71875 a 1.50015,1.50015 0 0 0 -0.03125,0.25 l 0,0.125 c -3.8e-5,0.346263 0.186874,0.69218 0.34375,1.03125 -0.27785,-0.109058 -0.512911,-0.247419 -0.8125,-0.34375 -0.413147,-0.13283 -0.9109,-0.195837 -1.34375,-0.3125 0.03888,-0.02049 0.08774,-0.0079 0.125,-0.03125 0.455998,-0.285481 0.837782,-0.794761 1,-1.3125 l 0.03125,0 c -0.04291,0.130109 0.127424,-0.277778 0.5625,-0.78125 0.194948,-0.225634 0.52592,-0.543371 0.78125,-0.8125 z M 15.8125,35.6875 c 0.236559,0.260047 0.55207,0.552202 0.75,0.78125 0.435037,0.503505 0.605313,0.910968 0.5625,0.78125 a 1.50015,1.50015 0 0 0 0.09375,0.21875 c 0.185174,0.367652 0.534366,0.802346 1,1.09375 0.02947,0.01845 0.06354,0.01461 0.09375,0.03125 -0.442836,0.118887 -0.952747,0.176735 -1.375,0.3125 -0.242469,0.07796 -0.427964,0.195101 -0.65625,0.28125 0.134376,-0.316458 0.281234,-0.629554 0.28125,-0.96875 l 0,-0.125 a 1.50015,1.50015 0 0 0 -0.03125,-0.25 C 16.438277,37.288973 16.268011,36.789994 16,36.09375 15.951571,35.967966 15.863892,35.817047 15.8125,35.6875 z m 12.5,6.59375 c -0.521048,0.520103 -1.063692,0.95811 -1.625,1.3125 -1.158717,0.05497 -2.27521,0.128302 -3.21875,0.21875 -0.923525,0.08853 -1.68297,0.262132 -2.4375,0.46875 -0.589177,-0.176939 -1.200983,-0.411979 -1.8125,-0.6875 0.554552,-0.160691 1.006221,-0.298854 1.75,-0.46875 1.835507,-0.419269 4.408229,-0.6729 7.34375,-0.84375 z m 7.4375,0 c 2.938461,0.171369 5.518277,0.426785 7.34375,0.84375 0.738187,0.168623 1.17031,0.30945 1.71875,0.46875 -0.595254,0.272444 -1.196703,0.54235 -1.8125,0.71875 -0.763426,-0.211586 -1.531641,-0.410161 -2.46875,-0.5 -0.943599,-0.09045 -2.060083,-0.163778 -3.21875,-0.21875 -0.550517,-0.351329 -1.055105,-0.783469 -1.5625,-1.3125 z m -8.6875,6.40625 c 0.535564,0.388174 1.053782,0.779435 1.5,1.28125 -0.227371,0.01231 -0.424146,0.01693 -0.65625,0.03125 -1.267256,0.07816 -2.52612,0.184324 -3.78125,0.3125 -1.264884,0.12916 -2.466109,0.332139 -3.65625,0.5625 0.506428,-0.620187 1.006682,-1.174792 1.5625,-1.65625 1.205271,-0.293576 2.947892,-0.461813 5.03125,-0.53125 z m 9.875,0 c 2.10861,0.105205 3.852118,0.303516 5.03125,0.5625 0.549574,0.477979 1.061023,1.010935 1.5625,1.625 C 42.341052,50.644642 41.139807,50.44166 39.875,50.3125 38.619801,50.184325 37.360928,50.078162 36.09375,50 c -0.232117,-0.01432 -0.428871,-0.01894 -0.65625,-0.03125 0.446139,-0.501777 0.964424,-0.893091 1.5,-1.28125 z M 32,54.9375 c 4.944277,-5e-6 8.777417,0.352756 11.375,1.03125 0.611421,0.159707 0.876514,0.290567 1.34375,0.4375 -0.467092,0.139238 -0.736143,0.253049 -1.34375,0.40625 -2.605859,0.656997 -6.429577,1.031239 -11.375,1.03125 -4.9455,-1.1e-5 -8.73104,-0.345316 -11.28125,-1 -0.610236,-0.15666 -0.87701,-0.295583 -1.34375,-0.4375 0.465578,-0.149281 0.732019,-0.274809 1.34375,-0.4375 C 23.260545,55.292728 27.055646,54.937495 32,54.9375 z"
           id="path3782"
           style="font-size:76px;font-style:normal;font-variant:normal;font-weight:normal;font-stretch:normal;line-height:125%;letter-spacing:0px;word-spacing:0px;fill:#ffffff;fill-opacity:1;stroke:none;font-family:DiagramTTOldstyle;-inkscape-font-specification:DiagramTTOldstyle"
           inkscape:original="M 32 2.5 C 30.733606 2.5000461 29.667974 2.9578093 28.78125 3.84375 C 27.894457 4.7297802 27.437467 5.7946391 27.4375 7.0625 C 27.437467 8.0753172 27.741788 9.0015451 28.375 9.8125 C 29.008144 10.623532 29.817917 11.154253 30.78125 11.40625 C 30.578658 12.369584 30.33582 13.665806 30.03125 15.3125 C 29.726608 16.95926 29.3853 18.724721 29.03125 20.625 C 28.67713 22.525335 28.323574 24.455713 27.96875 26.40625 C 27.613858 28.356832 27.273323 30.10508 26.96875 31.625 C 25.804412 28.585144 24.726532 25.820498 23.6875 23.3125 C 22.648409 20.804553 21.375135 18.52713 19.90625 16.5 C 20.665419 16.094922 21.293837 15.564974 21.75 14.90625 C 22.206108 14.247593 22.437472 13.432083 22.4375 12.46875 C 22.437472 11.151405 21.980481 10.048785 21.09375 9.1875 C 20.206964 8.3262935 19.141332 7.9062907 17.875 7.90625 C 16.557595 7.9062907 15.454975 8.3262935 14.59375 9.1875 C 13.732484 10.048785 13.312481 11.151405 13.3125 12.46875 C 13.312481 13.685663 13.683249 14.732537 14.46875 15.59375 C 15.254211 16.455029 16.253396 16.930777 17.46875 17.03125 C 17.621803 17.843048 17.780209 18.829213 17.90625 19.96875 C 18.032243 21.108345 18.154435 22.307643 18.28125 23.625 C 18.408016 24.942406 18.51145 26.325624 18.5625 27.71875 C 18.613501 29.111917 18.624975 30.419614 18.625 31.6875 L 18.625 33.53125 C 17.966285 32.770524 17.199236 31.955013 16.3125 31.09375 C 15.425719 30.232522 14.499491 29.367003 13.5625 28.53125 C 12.62547 27.695537 11.730492 26.921978 10.84375 26.1875 C 9.9569746 25.453067 9.1899262 24.819685 8.53125 24.3125 C 9.4929858 23.502304 9.968734 22.38821 9.96875 20.96875 C 9.968734 19.702421 9.5117439 18.636789 8.625 17.75 C 7.7382268 16.863272 6.6725948 16.406282 5.40625 16.40625 C 4.1398824 16.406282 3.0430004 16.863272 2.15625 17.75 C 1.2694833 18.636789 0.84374316 19.702421 0.84375 20.96875 C 0.84374316 22.286159 1.2694833 23.388778 2.15625 24.25 C 3.0430004 25.11127 4.1398824 25.531273 5.40625 25.53125 C 5.5593146 25.531273 5.7349329 25.531273 5.9375 25.53125 C 6.1400432 25.531273 6.3172077 25.475528 6.46875 25.375 C 6.9758985 26.084739 7.5543077 27.004457 8.1875 28.09375 C 8.8206639 29.183084 9.4235686 30.309426 10.03125 31.5 C 10.638899 32.690608 11.174584 33.8482 11.65625 34.9375 C 12.137881 36.026827 12.484926 36.90382 12.6875 37.5625 C 12.333396 37.765066 12.07831 37.953705 11.875 38.15625 C 11.671654 38.358816 11.506737 38.711598 11.40625 39.21875 L 11.1875 40.34375 C 11.187483 41.205004 11.376122 41.905606 11.78125 42.4375 C 12.186342 42.969407 12.594871 43.438644 13 43.84375 C 13.151511 43.996831 13.389385 44.233159 13.71875 44.5625 C 14.048076 44.891849 14.340149 45.338138 14.59375 45.84375 C 14.949361 46.502443 15.192199 47.043865 15.34375 47.5 C 15.495258 47.956137 15.593728 48.551758 15.59375 49.3125 L 15.75 50.46875 L 15.75 51.21875 C 15.749978 51.421302 15.712991 51.604204 15.6875 51.78125 C 15.661966 51.958289 15.602029 52.22664 15.5 52.53125 C 15.399474 52.987382 15.210062 53.473831 14.90625 54.03125 C 14.602396 54.588658 14.38328 54.930739 14.28125 55.03125 C 13.976624 55.487379 13.84373 55.961581 13.84375 56.46875 C 13.84373 57.481518 14.482849 58.304312 15.75 58.9375 C 17.017108 59.570668 18.556942 60.088367 20.40625 60.46875 C 22.255506 60.849109 24.240855 61.097684 26.34375 61.25 C 28.44658 61.40229 30.328496 61.499987 32 61.5 C 33.722454 61.499987 35.647094 61.40229 37.75 61.25 C 39.852819 61.097684 41.806918 60.849109 43.65625 60.46875 C 45.505482 60.088367 47.07734 59.570668 48.34375 58.9375 C 49.610052 58.304312 50.249944 57.481518 50.25 56.46875 C 50.249944 55.961581 50.072779 55.541578 49.71875 55.1875 L 49.71875 55.03125 C 49.616644 54.930739 49.397528 54.588658 49.09375 54.03125 C 48.789862 53.473831 48.60045 52.987382 48.5 52.53125 C 48.44892 52.22664 48.394721 51.958289 48.34375 51.78125 C 48.29267 51.604204 48.249946 51.421302 48.25 51.21875 C 48.249946 50.965167 48.304145 50.722329 48.40625 50.46875 L 48.40625 49.3125 C 48.406196 48.551758 48.504666 47.956137 48.65625 47.5 C 48.807725 47.043865 49.050563 46.513918 49.40625 45.90625 C 49.659775 45.349613 49.951848 44.891849 50.28125 44.5625 C 50.610539 44.233159 50.848413 43.996831 51 43.84375 C 51.405053 43.438644 51.813582 42.969407 52.21875 42.4375 C 52.623802 41.905606 52.812441 41.205004 52.8125 40.34375 L 52.75 39.21875 C 52.596865 38.711598 52.41551 38.358816 52.1875 38.15625 C 51.959374 37.953705 51.666528 37.765066 51.3125 37.5625 C 51.514998 36.90382 51.867781 36.026827 52.375 34.9375 C 52.882103 33.8482 53.423525 32.690608 54.03125 31.5 C 54.638855 30.309426 55.27301 29.183084 55.90625 28.09375 C 56.539366 27.004457 57.117775 26.084739 57.625 25.375 C 57.776466 25.475528 57.910906 25.531273 58.0625 25.53125 C 58.264991 25.531273 58.440609 25.531273 58.59375 25.53125 C 59.860042 25.531273 60.956924 25.11127 61.84375 24.25 C 62.730441 23.388778 63.156181 22.286159 63.15625 20.96875 C 63.156181 19.702421 62.730441 18.636789 61.84375 17.75 C 60.956924 16.863272 59.860042 16.406282 58.59375 16.40625 C 57.327329 16.406282 56.261697 16.863272 55.375 17.75 C 54.48818 18.636789 54.03119 19.702421 54.03125 20.96875 C 54.03119 22.38821 54.506938 23.502304 55.46875 24.3125 C 54.809998 24.819685 54.042949 25.453067 53.15625 26.1875 C 52.269432 26.921978 51.374454 27.695537 50.4375 28.53125 C 49.500433 29.367003 48.574205 30.232522 47.6875 31.09375 C 46.800688 31.955013 46.033639 32.770524 45.375 33.53125 L 45.375 31.6875 C 45.374949 30.419614 45.386423 29.111917 45.4375 27.71875 C 45.488474 26.325624 45.591908 24.942406 45.71875 23.625 C 45.845489 22.307643 45.967681 21.108345 46.09375 19.96875 C 46.219715 18.829213 46.378121 17.843048 46.53125 17.03125 C 47.746528 16.930777 48.751451 16.455029 49.5625 15.59375 C 50.373438 14.732537 50.781193 13.685663 50.78125 12.46875 C 50.781193 11.151405 50.324203 10.048785 49.4375 9.1875 C 48.550686 8.3262935 47.485054 7.9062907 46.21875 7.90625 C 44.901316 7.9062907 43.798697 8.3262935 42.9375 9.1875 C 42.076205 10.048785 41.656202 11.151405 41.65625 12.46875 C 41.656202 14.344354 42.473259 15.689812 44.09375 16.5 C 42.624789 18.52713 41.351515 20.804553 40.3125 23.3125 C 39.273392 25.820498 38.195512 28.585144 37.03125 31.625 C 36.726601 30.10508 36.386066 28.356832 36.03125 26.40625 C 35.67635 24.455713 35.322794 22.525335 34.96875 20.625 C 34.614624 18.724721 34.273316 16.95926 33.96875 15.3125 C 33.664104 13.665806 33.421266 12.369584 33.21875 11.40625 C 34.182007 11.154253 34.997518 10.623532 35.65625 9.8125 C 36.314899 9.0015451 36.624957 8.0753172 36.625 7.0625 C 36.624957 5.7946391 36.19348 4.7297802 35.28125 3.84375 C 34.368938 2.9578093 33.266318 2.5000461 32 2.5 z M 32 4.5625 C 32.709678 4.562544 33.300335 4.799645 33.78125 5.28125 C 34.262085 5.7629416 34.499959 6.3528254 34.5 7.0625 C 34.499959 7.7212322 34.262085 8.3061519 33.78125 8.8125 C 33.300335 9.3189276 32.709678 9.593789 32 9.59375 C 31.290246 9.593789 30.699589 9.3189276 30.21875 8.8125 C 29.737839 8.3061519 29.499965 7.7212322 29.5 7.0625 C 29.499965 6.3528254 29.737839 5.7629416 30.21875 5.28125 C 30.699589 4.799645 31.290246 4.562544 32 4.5625 z M 17.875 9.96875 C 18.584692 9.9687886 19.175349 10.206663 19.65625 10.6875 C 20.1371 11.168413 20.374974 11.75907 20.375 12.46875 C 20.374974 13.178502 20.1371 13.768386 19.65625 14.25 C 19.175349 14.731683 18.584692 14.968784 17.875 14.96875 C 17.16526 14.968784 16.543353 14.731683 16.0625 14.25 C 15.581603 13.768386 15.343729 13.178502 15.34375 12.46875 C 15.343729 11.75907 15.581603 11.168413 16.0625 10.6875 C 16.543353 10.206663 17.16526 9.9687886 17.875 9.96875 z M 46.21875 9.96875 C 46.877389 9.9687886 47.462308 10.206663 47.96875 10.6875 C 48.475084 11.168413 48.718695 11.75907 48.71875 12.46875 C 48.718695 13.178502 48.475084 13.768386 47.96875 14.25 C 47.462308 14.731683 46.877389 14.968784 46.21875 14.96875 C 45.457956 14.968784 44.831085 14.731683 44.375 14.25 C 43.918814 13.768386 43.7187 13.178502 43.71875 12.46875 C 43.7187 11.75907 43.918814 11.168413 44.375 10.6875 C 44.831085 10.206663 45.457956 9.9687886 46.21875 9.96875 z M 32 16.1875 C 32.304568 17.807973 32.651613 19.611194 33.03125 21.5625 C 33.410809 23.51386 33.770102 25.395002 34.125 27.21875 C 34.479818 29.042541 34.821126 30.69883 35.125 32.21875 C 35.428792 33.738703 35.660928 34.897068 35.8125 35.65625 C 35.914509 36.163424 36.224567 36.406262 36.78125 36.40625 C 36.934283 36.457287 37.109902 36.408053 37.3125 36.28125 C 37.515012 36.154472 37.680702 35.972343 37.78125 35.71875 L 38.75 33.125 C 39.611201 30.692808 40.433222 28.500834 41.21875 26.5 C 42.004184 24.49921 42.923128 22.586045 43.9375 20.8125 C 43.68387 22.432969 43.513989 24.193465 43.4375 26.09375 C 43.360913 27.99408 43.312451 29.8515 43.3125 31.625 C 43.312451 32.486263 43.349438 33.320531 43.375 34.15625 C 43.400463 34.991998 43.417675 35.759046 43.46875 36.46875 C 43.468701 36.722343 43.572908 36.942232 43.75 37.09375 C 43.926993 37.245291 44.121369 37.312511 44.375 37.3125 C 44.62853 37.414562 44.859894 37.408052 45.0625 37.28125 C 45.265004 37.154471 45.386423 36.983817 45.4375 36.78125 C 45.537953 36.476656 45.830799 36.057426 46.3125 35.5 C 46.794096 34.9426 47.41523 34.302708 48.125 33.59375 C 48.834662 32.884822 49.60171 32.129248 50.4375 31.34375 C 51.273177 30.558286 52.107445 29.834736 52.96875 29.125 C 52.512555 29.986265 52.049828 30.874733 51.59375 31.8125 C 51.137557 32.750301 50.723291 33.627294 50.34375 34.4375 C 49.964096 35.247735 49.665512 35.966321 49.4375 36.625 C 49.209377 37.283703 49.08222 37.789155 49.03125 38.09375 L 49.03125 38.21875 C 49.031195 38.724375 49.262559 39.078704 49.71875 39.28125 L 49.9375 39.28125 C 49.937444 39.281259 50.047389 39.329721 50.25 39.40625 C 50.452499 39.482797 50.585393 39.531259 50.6875 39.53125 L 50.6875 39.59375 L 50.78125 40.34375 C 50.781193 41.002449 50.42841 41.586596 49.71875 42.09375 C 49.060004 41.38404 48.012356 40.799894 46.59375 40.34375 C 45.175038 39.887623 43.603954 39.528329 41.90625 39.25 C 40.20845 38.971689 38.491451 38.788787 36.71875 38.6875 C 34.945963 38.586232 33.368369 38.53126 32 38.53125 C 30.631555 38.53126 29.053961 38.586232 27.28125 38.6875 C 25.508473 38.788787 23.791474 38.971689 22.09375 39.25 C 20.39597 39.528329 18.824886 39.887623 17.40625 40.34375 C 15.987568 40.799894 14.93992 41.38404 14.28125 42.09375 C 13.976624 41.840176 13.733786 41.597338 13.53125 41.34375 C 13.328675 41.090177 13.218731 40.748868 13.21875 40.34375 L 13.3125 39.59375 L 13.3125 39.53125 C 13.414531 39.531259 13.547425 39.482797 13.75 39.40625 L 14.0625 39.28125 L 14.4375 39.28125 C 14.84259 39.027679 15.062479 38.67335 15.0625 38.21875 L 15.0625 38.09375 C 15.011454 37.789155 14.84731 37.283703 14.59375 36.625 C 14.340149 35.966321 14.041565 35.247735 13.6875 34.4375 C 13.333395 33.627294 12.924867 32.750301 12.46875 31.8125 C 12.012596 30.874733 11.538394 29.986265 11.03125 29.125 C 11.892479 29.834736 12.732485 30.558286 13.59375 31.34375 C 14.454976 32.129248 15.253275 32.884822 15.9375 33.59375 C 16.621681 34.302708 17.205828 34.9426 17.6875 35.5 C 18.169125 36.057426 18.461971 36.476656 18.5625 36.78125 C 18.664526 36.983817 18.79742 37.154471 19 37.28125 C 19.20253 37.408052 19.446915 37.414562 19.75 37.3125 C 19.90305 37.312511 20.072931 37.245291 20.25 37.09375 C 20.427016 36.942232 20.531223 36.722343 20.53125 36.46875 C 20.633274 35.759046 20.687473 35.028985 20.6875 34.21875 C 20.687473 33.357518 20.687473 32.486263 20.6875 31.625 C 20.687473 29.8515 20.639011 27.99408 20.5625 26.09375 C 20.485935 24.193465 20.358779 22.432969 20.15625 20.8125 C 21.170546 22.586045 22.052503 24.49921 22.8125 26.5 C 23.57244 28.500834 24.388723 30.692808 25.25 33.125 L 26.21875 35.71875 C 26.470752 36.276949 26.81206 36.508313 27.21875 36.40625 C 27.775357 36.406262 28.085415 36.163424 28.1875 35.65625 C 28.390021 34.897068 28.664882 33.738703 28.96875 32.21875 C 29.272548 30.69883 29.582606 29.042541 29.9375 27.21875 C 30.292322 25.395002 30.645878 23.51386 31 21.5625 C 31.354048 19.611194 31.695356 17.807973 32 16.1875 z M 5.40625 18.46875 C 6.1159547 18.46878 6.7058385 18.712391 7.1875 19.21875 C 7.6691351 19.725167 7.9062361 20.310087 7.90625 20.96875 C 7.9062361 21.678494 7.6691351 22.268378 7.1875 22.75 C 6.7058385 23.231674 6.1159547 23.500025 5.40625 23.5 C 4.7475479 23.500025 4.1626282 23.231674 3.65625 22.75 C 3.1498525 22.268378 2.9062411 21.678494 2.90625 20.96875 C 2.9062411 20.310087 3.1498525 19.725167 3.65625 19.21875 C 4.1626282 18.712391 4.7475479 18.46878 5.40625 18.46875 z M 58.59375 18.46875 C 59.252376 18.46878 59.837296 18.712391 60.34375 19.21875 C 60.850071 19.725167 61.093683 20.310087 61.09375 20.96875 C 61.093683 21.678494 60.850071 22.268378 60.34375 22.75 C 59.837296 23.231674 59.252376 23.500025 58.59375 23.5 C 57.883969 23.500025 57.294085 23.231674 56.8125 22.75 C 56.330789 22.268378 56.093688 21.678494 56.09375 20.96875 C 56.093688 20.310087 56.330789 19.725167 56.8125 19.21875 C 57.294085 18.712391 57.883969 18.46878 58.59375 18.46875 z M 31.46875 40.59375 C 31.012577 41.455004 30.416183 42.282762 29.65625 43.09375 C 28.896246 43.904749 28.079963 44.555343 27.21875 45.0625 C 25.901335 45.111983 24.689544 45.210453 23.625 45.3125 C 22.560396 45.414554 21.665418 45.591718 20.90625 45.84375 C 19.993952 45.591718 19.061987 45.237389 18.125 44.78125 C 17.187965 44.325118 16.42169 43.862391 15.8125 43.40625 C 16.370664 42.848069 17.964698 42.263922 20.625 41.65625 C 23.285249 41.048592 26.908903 40.695809 31.46875 40.59375 z M 32.53125 40.59375 C 37.142047 40.695809 40.777175 41.048592 43.4375 41.65625 C 46.097726 42.263922 47.680285 42.848069 48.1875 43.40625 C 47.578234 43.862391 46.817696 44.325118 45.90625 44.78125 C 44.9947 45.237389 44.056997 45.591718 43.09375 45.84375 C 42.334506 45.591718 41.439528 45.414554 40.375 45.3125 C 39.31038 45.210453 38.098589 45.111983 36.78125 45.0625 C 35.919961 44.555343 35.140665 43.904749 34.40625 43.09375 C 33.671754 42.282762 33.038372 41.455004 32.53125 40.59375 z M 27.53125 47.125 C 28.392462 47.683188 29.122523 48.333781 29.78125 49.09375 C 30.439905 49.853718 31.012577 50.615802 31.46875 51.375 C 30.403365 51.374997 29.240809 51.423459 28 51.5 C 26.759123 51.576535 25.522836 51.685707 24.28125 51.8125 C 23.039603 51.939287 21.852552 52.116452 20.6875 52.34375 C 19.522395 52.571041 18.432023 52.863114 17.46875 53.21875 L 17.46875 53.125 C 17.519752 52.973466 17.562476 52.809322 17.5625 52.65625 C 17.916561 51.795 18.440771 50.954994 19.125 50.09375 C 19.809178 49.232503 20.533502 48.471192 21.34375 47.8125 C 22.865205 47.40739 24.947479 47.176027 27.53125 47.125 z M 36.46875 47.125 C 39.103471 47.227052 41.185744 47.458416 42.65625 47.8125 C 43.466422 48.471192 44.190746 49.232503 44.875 50.09375 C 45.559153 50.954994 46.083363 51.795 46.4375 52.65625 C 46.437448 52.707271 46.443185 52.798458 46.46875 52.875 C 46.49421 52.951534 46.531197 53.024491 46.53125 53.125 L 46.53125 53.21875 C 45.567901 52.863114 44.477529 52.571041 43.3125 52.34375 C 42.147372 52.116452 40.960321 51.939287 39.71875 51.8125 C 38.477088 51.685707 37.240801 51.576535 36 51.5 C 34.759115 51.423459 33.596559 51.374997 32.53125 51.375 C 32.987347 50.615802 33.560019 49.853718 34.21875 49.09375 C 34.877401 48.333781 35.607462 47.683188 36.46875 47.125 z M 32 53.4375 C 37.015908 53.437495 40.938145 53.796788 43.75 54.53125 C 46.561756 55.2657 48.03437 55.910556 48.1875 56.46875 C 48.03437 56.975903 46.561756 57.572297 43.75 58.28125 C 40.938145 58.990183 37.015908 59.343739 32 59.34375 C 26.984016 59.343739 23.105277 58.990183 20.34375 58.28125 C 17.58217 57.572297 16.120258 56.975903 15.96875 56.46875 C 16.120258 55.910556 17.58217 55.2657 20.34375 54.53125 C 23.105277 53.796788 26.984016 53.437495 32 53.4375 z "
           inkscape:radius="1.5"
           sodipodi:type="inkscape:offset" />
      </g>
      <path
         transform="translate(0,-8)"
         inkscape:connector-curvature="0"
         id="path67379"
         d="m 323.0542,59.576884 c -4.82706,0.06699 -9.80736,0.325386 -14.28955,2.286434 -0.5817,0.284317 -1.48881,0.753047 -1.22192,1.539408 0.46029,0.822959 1.50365,1.02306 2.31122,1.358821 5.38089,1.81399 11.15188,1.830492 16.76984,1.710643 4.23078,-0.101736 8.53958,-0.499416 12.51282,-2.042302 0.60088,-0.301611 1.58066,-0.607887 1.48605,-1.448698 -0.25844,-0.852583 -1.27262,-1.085646 -1.99029,-1.41935 -4.76763,-1.810666 -9.93259,-1.944072 -14.97255,-1.987624 -0.20187,8.89e-4 -0.40375,0.0018 -0.60562,0.0027 z"
         style="fill:#ffffff;fill-opacity:1;fill-rule:nonzero;stroke:none" />
      <path
         transform="translate(0,-8)"
         inkscape:connector-curvature="0"
         id="path67381"
         d="m 318.64941,53.280518 c -1.80345,0.13581 -3.64294,0.196695 -5.39193,0.685663 -1.34921,0.860163 -2.36283,2.165569 -3.26024,3.468337 -0.47201,0.763366 -1.05266,1.571924 -1.03516,2.507875 0.15767,0.653333 0.89068,0.371192 1.31263,0.192092 3.45922,-1.03836 7.08783,-1.315721 10.67702,-1.503119 0.88023,-0.05167 1.77334,-0.01007 2.64406,-0.153679 0.58663,-0.25329 0.26097,-0.918234 -0.0454,-1.259273 -1.05659,-1.512644 -2.28774,-3.015213 -3.91397,-3.938623 -0.31292,-0.102515 -0.66227,0.01454 -0.98706,7.27e-4 z"
         style="fill:#ffffff;fill-opacity:1;fill-rule:nonzero;stroke:none" />
      <path
         transform="translate(0,-8)"
         inkscape:connector-curvature="0"
         id="path67383"
         d="m 328.24336,53.325873 c -1.7112,1.104125 -3.10995,2.681966 -4.12198,4.436803 -0.20692,0.608553 0.52125,0.840855 0.98981,0.797718 4.10745,0.148174 8.27604,0.351868 12.22989,1.480713 0.51704,0.08685 1.23846,0.636138 1.62478,0.02935 0.17545,-0.737579 -0.31661,-1.44477 -0.62307,-2.086267 -0.87325,-1.511084 -2.13745,-2.75617 -3.39558,-3.940633 -1.36564,-0.428426 -2.83384,-0.506417 -4.25467,-0.658987 -0.80862,-0.0091 -1.65961,-0.231532 -2.44918,-0.0587 z"
         style="fill:#ffffff;fill-opacity:1;fill-rule:nonzero;stroke:none" />
      <path
         transform="translate(0,-8)"
         inkscape:connector-curvature="0"
         id="path67385"
         d="m 325.02581,46.749372 c -0.4453,-0.07807 -1.11286,0.156962 -0.94712,0.720347 0.67176,1.215568 1.57676,2.310498 2.57052,3.28089 0.66095,0.575346 1.34485,1.228401 2.18363,1.499671 2.03483,0.113355 4.0892,0.187615 6.05639,0.686072 1.06772,0.03808 2.04126,-0.556376 3.00678,-0.947123 0.90592,-0.506832 1.94716,-0.89603 2.66529,-1.66747 0.33383,-0.674184 -0.51665,-1.032421 -0.99515,-1.267277 -2.405,-1.041689 -5.02288,-1.496407 -7.61038,-1.853827 -2.3,-0.250519 -4.61541,-0.422684 -6.92996,-0.451283 z"
         style="fill:#ffffff;fill-opacity:1;fill-rule:nonzero;stroke:none" />
      <path
         transform="translate(0,-8)"
         inkscape:connector-curvature="0"
         id="path67387"
         d="m 322.5126,46.744036 c -4.40748,0.188581 -8.89401,0.468496 -13.09113,1.930619 -0.67505,0.310729 -1.46545,0.504807 -1.9908,1.054819 -0.34121,0.653208 0.48489,1.031341 0.92578,1.312632 1.43281,0.798103 2.92601,1.569099 4.52473,1.94598 1.48963,-0.36691 3.02981,-0.572128 4.57248,-0.641446 0.85276,-0.12795 1.84451,0.129671 2.53586,-0.514451 1.61088,-1.13118 3.00192,-2.631337 3.91775,-4.377851 0.17528,-0.584422 -0.48894,-0.791732 -0.93845,-0.715638 -0.1521,-0.0014 -0.30414,0.0032 -0.45622,0.0053 z"
         style="fill:#ffffff;fill-opacity:1;fill-rule:nonzero;stroke:none" />
      <path
         transform="translate(0,-8)"
         inkscape:connector-curvature="0"
         id="path67389"
         d="m 323.73986,22.60441 c -0.48947,0.355696 -0.34804,1.084652 -0.53029,1.605505 -1.10838,5.883225 -2.14547,11.788346 -3.44229,17.627758 -0.0836,0.300304 -0.15206,0.778688 -0.57361,0.699003 -0.43676,0.09539 -0.47519,-0.539342 -0.65421,-0.799919 -1.92034,-4.743291 -3.26479,-9.757229 -5.82091,-14.223316 -0.21042,-0.534491 -1.09415,-0.370918 -1.02983,0.22144 0.21417,2.858096 0.41198,5.719978 0.43973,8.58809 0.005,2.308703 0.11711,4.636767 -0.17293,6.931384 -0.2213,0.260544 -0.81599,0.392059 -0.94179,-0.05336 -0.95642,-1.648749 -2.4082,-2.944439 -3.7271,-4.296754 -1.25641,-1.183435 -2.49233,-2.403621 -3.8819,-3.424298 -0.50946,-0.270941 -0.98013,0.417696 -0.63764,0.843073 1.37136,2.620854 2.68622,5.278849 3.63909,8.078558 0.1659,0.365737 0.14558,0.860164 -0.25079,1.061844 -0.56052,0.08055 -1.45294,0.14026 -1.40012,0.900431 -0.18317,0.849771 0.0611,1.761147 0.71961,2.347273 0.25892,0.362948 0.78216,0.786002 1.18742,0.39405 1.45603,-1.343841 3.46808,-1.778777 5.33057,-2.249083 5.17958,-1.130646 10.52334,-1.255108 15.8127,-1.039205 3.87632,0.236625 7.81142,0.635243 11.4591,2.013007 0.81758,0.309484 1.55647,0.806746 2.19916,1.379056 0.58026,0.28043 0.97213,-0.447491 1.33054,-0.805446 0.51804,-0.680304 0.55271,-1.627194 0.32816,-2.4225 -0.32743,-0.524785 -1.12443,-0.318535 -1.49939,-0.744359 -0.23209,-0.592274 0.1802,-1.238856 0.31749,-1.814207 0.92693,-2.528825 2.28369,-4.869579 3.36962,-7.326195 0.18754,-0.569527 -0.60693,-0.914628 -0.96313,-0.466892 -2.24027,1.882673 -4.3475,3.933313 -6.32571,6.088266 -0.50442,0.508381 -0.82031,1.139568 -1.21926,1.720829 -0.21345,0.146835 -0.5672,0.0053 -0.73635,-0.133398 -0.23762,-1.49667 -0.17772,-3.032644 -0.23061,-4.546185 -0.0296,-3.726645 0.12746,-7.459636 0.55343,-11.157378 0.0388,-0.626944 -0.89672,-0.693001 -1.05384,-0.125394 -2.607,4.589659 -4.05852,9.705564 -6.02157,14.569684 -0.10432,0.375587 -0.40922,0.653899 -0.80038,0.450884 -0.29401,-0.308337 -0.26988,-0.860342 -0.40433,-1.254798 -1.21538,-6.005295 -2.33677,-12.032421 -3.55224,-18.03716 -0.051,-0.401929 -0.37772,-0.782301 -0.8164,-0.600289 z"
         style="fill:#ffffff;fill-opacity:1;fill-rule:nonzero;stroke:none" />
      <path
         transform="translate(0,-8)"
         inkscape:connector-curvature="0"
         id="path67391"
         d="m 297.28179,24.616045 c -1.80068,0.05073 -3.27581,1.940797 -2.82803,3.703117 0.34691,1.772275 2.48899,2.849492 4.11665,2.094342 1.23764,-0.47272 1.99324,-1.831104 1.78486,-3.134843 -0.11765,-1.500176 -1.58292,-2.742082 -3.07348,-2.662616 z"
         style="fill:#ffffff;fill-opacity:1;fill-rule:nonzero;stroke:none" />
      <path
         transform="translate(0,-8)"
         inkscape:connector-curvature="0"
         id="path67393"
         d="m 309.62373,16.139963 c -1.61748,-0.0087 -2.93781,1.617886 -2.76667,3.193538 -0.0239,1.319962 1.1053,2.471089 2.34513,2.74799 1.07346,0.162874 2.24655,-0.103506 2.94673,-0.986373 0.7942,-0.904515 0.90553,-2.335806 0.38021,-3.397072 -0.56106,-1.033621 -1.72179,-1.701222 -2.9054,-1.558083 z"
         style="fill:#ffffff;fill-opacity:1;fill-rule:nonzero;stroke:none" />
      <path
         transform="translate(0,-8)"
         inkscape:connector-curvature="0"
         id="path67395"
         d="m 323.75587,10.758704 c -1.5867,-0.03963 -2.8828,1.521214 -2.76667,3.065477 -0.0199,1.315596 1.04595,2.51436 2.2811,2.846704 1.81938,0.492274 3.88803,-1.126182 3.6989,-3.033447 0.0694,-1.537363 -1.3293,-2.999473 -2.8905,-2.880157 -0.1076,-0.0032 -0.21522,0.0011 -0.32283,0.0014 z"
         style="fill:#ffffff;fill-opacity:1;fill-rule:nonzero;stroke:none" />
      <path
         transform="translate(0,-8)"
         inkscape:connector-curvature="0"
         id="path67397"
         d="m 338.06143,16.099943 c -1.38311,0.01 -2.64305,1.100619 -2.8227,2.470524 -0.34317,1.584667 0.79196,3.443592 2.48653,3.524364 1.41365,0.238451 2.94885,-0.665434 3.34828,-2.051655 0.26468,-1.100991 0.0794,-2.398185 -0.86708,-3.126839 -0.57415,-0.53609 -1.35553,-0.851982 -2.14503,-0.816394 z"
         style="fill:#ffffff;fill-opacity:1;fill-rule:nonzero;stroke:none" />
      <path
         transform="translate(0,-8)"
         inkscape:connector-curvature="0"
         id="path67399"
         d="m 350.25397,24.640057 c -1.99803,0.137428 -3.36737,2.626892 -2.3478,4.37544 0.61942,1.227447 2.10845,1.968423 3.44699,1.528737 1.61094,-0.400502 2.69374,-2.277899 2.07033,-3.847187 -0.45024,-1.30343 -1.78158,-2.208327 -3.16952,-2.05699 z"
         style="fill:#ffffff;fill-opacity:1;fill-rule:nonzero;stroke:none" />
      <g
         transform="translate(291.98851,-1.3627136)"
         id="layer1-2"
         inkscape:label="Layer 1">
        <text
           xml:space="preserve"
           style="font-size:76px;font-style:normal;font-variant:normal;font-weight:normal;font-stretch:normal;line-height:125%;letter-spacing:0px;word-spacing:0px;fill:#000000;fill-opacity:1;stroke:none;font-family:DiagramTTOldstyle;-inkscape-font-specification:DiagramTTOldstyle"
           x="-6"
           y="48.567017"
           id="text3015"
           sodipodi:linespacing="125%"><tspan
             sodipodi:role="line"
             id="tspan3017"
             x="-6"
             y="48.567017">Q</tspan></text>
      </g>
    </g>
  </g>
</svg>
