<?xml version="1.0" encoding="UTF-8" standalone="no"?>
<!-- Created with Inkscape (http://www.inkscape.org/) -->

<svg
   xmlns:dc="http://purl.org/dc/elements/1.1/"
   xmlns:cc="http://creativecommons.org/ns#"
   xmlns:rdf="http://www.w3.org/1999/02/22-rdf-syntax-ns#"
   xmlns:svg="http://www.w3.org/2000/svg"
   xmlns="http://www.w3.org/2000/svg"
   xmlns:sodipodi="http://sodipodi.sourceforge.net/DTD/sodipodi-0.dtd"
   xmlns:inkscape="http://www.inkscape.org/namespaces/inkscape"
   width="64px"
   height="64px"
   id="svg4261"
   version="1.1"
   inkscape:version="0.48.2 r9819"
   sodipodi:docname="wn.svg">
  <defs
     id="defs4263" />
  <sodipodi:namedview
     id="base"
     pagecolor="#ffffff"
     bordercolor="#666666"
     borderopacity="1.0"
     inkscape:pageopacity="0.0"
     inkscape:pageshadow="2"
     inkscape:zoom="5.5"
     inkscape:cx="34.363636"
     inkscape:cy="32"
     inkscape:current-layer="layer1"
     showgrid="true"
     inkscape:document-units="px"
     inkscape:grid-bbox="true"
     inkscape:window-width="984"
     inkscape:window-height="614"
     inkscape:window-x="324"
     inkscape:window-y="105"
     inkscape:window-maximized="0" />
  <metadata
     id="metadata4266">
    <rdf:RDF>
      <cc:Work
         rdf:about="">
        <dc:format>image/svg+xml</dc:format>
        <dc:type
           rdf:resource="http://purl.org/dc/dcmitype/StillImage" />
        <dc:title></dc:title>
      </cc:Work>
    </rdf:RDF>
  </metadata>
  <g
     id="layer1"
     inkscape:label="Layer 1"
     inkscape:groupmode="layer">
    <g
       id="g3747"
       transform="matrix(0.88,0,0,0.88,-190.80451,6.6283723)">
      <path
         transform="translate(-1.5318056,29.923115)"
         d="m 250.375,-28.25 a 1.50015,1.50015 0 0 0 -1.34375,1.5 l 0,4.65625 c -1.1092,0.02743 -2.26335,0.03433 -3.1875,0.125 -0.69023,0.06776 -1.30704,0.29734 -1.96875,0.4375 l 0,-3.6875 a 1.50015,1.50015 0 0 0 -1.5,-1.5 l -0.90625,0 -0.15625,0 0,0.03125 c -1.21056,-0.09886 -2.50872,0.03115 -3.875,0.46875 -1.35258,0.433294 -2.63799,0.979428 -3.875,1.625 a 1.50015,1.50015 0 0 0 -0.0625,0.0625 l -0.53125,0.3125 a 1.50015,1.50015 0 0 0 -0.75,1.28125 l 0,6.6875 a 1.50015,1.50015 0 0 0 0.0625,0.40625 l 0.0625,0.21875 a 1.50015,1.50015 0 0 0 0.0937,0.25 c 0.26687,0.53388 0.59933,0.957087 1,1.4375 0.43533,0.522108 0.93691,1.025447 1.46875,1.53125 0.54155,0.515147 1.10719,1.025194 1.75,1.5 0.36932,0.272857 0.79639,0.43626 1.1875,0.65625 l 0,25.0625 c -0.77247,0.251478 -1.60595,0.463546 -2.1875,0.84375 -0.76968,0.503171 -1.54517,1.1389 -2.3125,1.90625 A 1.50015,1.50015 0 0 0 233.1875,17.75 l -0.21875,0.3125 a 1.50015,1.50015 0 0 0 -0.28125,0.875 l 0,2.34375 c -0.44691,0.142919 -0.91833,0.232486 -1.34375,0.4375 -0.86272,0.415736 -1.60105,0.977823 -2.25,1.625 l -0.3125,0.3125 a 1.50015,1.50015 0 0 0 -0.4375,1.0625 l 0,6.90625 a 1.50015,1.50015 0 0 0 1.46875,1.5 l 25.375,0.4375 a 1.50015,1.50015 0 0 0 0.0625,0 l 26.375,-0.4375 a 1.50015,1.50015 0 0 0 1.46875,-1.5 l 0,-6.90625 a 1.50015,1.50015 0 0 0 -0.4375,-1.0625 l -0.28125,-0.25 -0.0312,-0.0625 -0.0312,0.03125 c -0.61269,-0.660942 -1.3091,-1.247975 -2.15625,-1.65625 -0.41278,-0.198903 -0.87707,-0.294543 -1.3125,-0.4375 l 0,-2.34375 a 1.50015,1.50015 0 0 0 -0.4375,-1.0625 l -0.3125,-0.3125 c -0.75181,-0.751743 -1.49351,-1.391209 -2.28125,-1.90625 -0.60816,-0.397553 -1.46577,-0.62347 -2.28125,-0.875 l 0,-25.03125 c 0.39146,-0.217328 0.81141,-0.389738 1.1875,-0.65625 0.65798,-0.466288 1.2752,-0.959255 1.84375,-1.5 0.54994,-0.523096 1.01969,-1.030488 1.4375,-1.5 0.43766,-0.491881 0.78886,-0.921622 1.0625,-1.46875 a 1.50015,1.50015 0 0 0 0.0312,-0.0625 l 0.0937,-0.21875 a 1.50015,1.50015 0 0 0 0.125,-0.59375 l 0,-6.6875 a 1.50015,1.50015 0 0 0 -0.875,-1.375 l -0.5625,-0.25 c -0.0386,-0.02206 -0.0861,-0.04067 -0.125,-0.0625 -1.1274,-0.633081 -2.37365,-1.171078 -3.71875,-1.59375 -1.39135,-0.437073 -2.68959,-0.568164 -3.90625,-0.46875 l 0,-0.03125 -0.15625,0 -0.84375,0 a 1.50015,1.50015 0 0 0 -1.5,1.5 l 0,3.6875 c -0.65994,-0.140545 -1.26506,-0.36975 -1.96875,-0.4375 -0.93597,-0.09005 -2.06689,-0.09743 -3.15625,-0.125 l 0,-4.65625 a 1.50015,1.50015 0 0 0 -1.5,-1.5 l -0.96875,0 -9.5,0 a 1.50015,1.50015 0 0 0 -0.15625,0 z m 3.78125,5.125 3.21875,0 0,4.4375 a 1.50015,1.50015 0 0 0 1.5,1.5 l 1.15625,0 c 2.54116,3.7e-5 4.48236,0.127086 5.78125,0.3125 1.29377,0.184764 2.34467,0.484883 3.1875,0.90625 a 1.50015,1.50015 0 0 0 0.0312,0.03125 l 1.53125,0.6875 a 1.50015,1.50015 0 0 0 2.125,-1.375 l 0,-4.65625 c 0.0858,0.02653 0.16363,0.03369 0.25,0.0625 0.38249,0.127657 0.77137,0.327209 1.15625,0.5 l 0,3.4375 c -0.0997,0.134481 -0.1548,0.250507 -0.34375,0.46875 -0.30788,0.355552 -0.64246,0.684814 -1,1 -0.38239,0.337063 -0.81912,0.658966 -1.28125,1 -0.26207,0.193386 -0.46572,0.276198 -0.6875,0.375 -2.41792,-0.774836 -4.80194,-1.405304 -7.125,-1.8125 -2.53733,-0.444668 -5.08221,-0.687464 -7.65625,-0.6875 -2.525,3.6e-5 -5.11039,0.244044 -7.71875,0.6875 -2.4065,0.409192 -4.92598,1.032643 -7.53125,1.8125 -0.23404,-0.102128 -0.45398,-0.167534 -0.75,-0.375 -0.47331,-0.331636 -0.90398,-0.667382 -1.28125,-1 -0.38456,-0.338949 -0.75425,-0.680038 -1.03125,-1 -0.18714,-0.216099 -0.20437,-0.296207 -0.25,-0.375 l 0,-3.53125 c 0.38485,-0.172781 0.77373,-0.372345 1.15625,-0.5 0.0864,-0.02881 0.16419,-0.03597 0.25,-0.0625 l 0,4.65625 A 1.50015,1.50015 0 0 0 241,-15.28125 l 1.4375,-0.6875 c 0.82681,-0.414018 1.92695,-0.720653 3.25,-0.90625 1.32915,-0.186391 3.27127,-0.312463 5.8125,-0.3125 l 1.15625,0 a 1.50015,1.50015 0 0 0 1.5,-1.5 l 0,-4.4375 z m 1.75,11.34375 c 1.25633,1.8e-5 2.49883,0.169056 3.75,0.28125 a 1.50015,1.50015 0 0 0 0,0.03125 l 0,2.125 c -2.62251,-0.2317924 -5.26876,-0.2324458 -7.9375,0 l 0,-2.09375 c 1.4074,-0.139336 2.82199,-0.34373 4.1875,-0.34375 z m 8.875,1.0625 c 1.21098,0.259956 2.43269,0.539448 3.6875,0.90625 l 0,1.78125 -0.78125,-0.28125 a 1.50015,1.50015 0 0 0 -0.3125,-0.09375 c -0.69336,-0.098155 -1.35681,-0.2002031 -2,-0.28125 -0.19605,-0.024684 -0.39693,-0.038173 -0.59375,-0.0625 l 0,-1.96875 z m -18.125,0.03125 0,1.9375 c -0.19682,0.024328 -0.39771,0.037816 -0.59375,0.0625 -0.64327,0.081048 -1.3067,0.1830928 -2,0.28125 a 1.50015,1.50015 0 0 0 -0.34375,0.125 l -0.8125,0.34375 0,-1.875 c 1.29822,-0.353761 2.52736,-0.619714 3.75,-0.875 z m 6.53125,6.21875 0,2.65625 c -2.92742,0.1056107 -5.88362,0.3239949 -9.03125,0.8125 a 1.50015,1.50015 0 0 0 -0.0937,0 l -1,0.21875 A 1.50015,1.50015 0 0 0 242.90625,-0.75 l 0,-2.625 a 1.50015,1.50015 0 0 0 0.90625,0.25 l 1.125,-0.09375 a 1.50015,1.50015 0 0 0 0.3125,-0.0625 c 0.73286,-0.2289177 1.48255,-0.41551 2.25,-0.53125 0.74676,-0.112584 1.50006,-0.2387436 2.25,-0.375 0.0304,-0.00553 0.0633,0.0056 0.0937,0 l 0.375,0 a 1.50015,1.50015 0 0 0 0.1875,0 c 0.75608,-0.1000723 1.48929,-0.2031 2.1875,-0.25 0.20204,-0.013559 0.39564,-0.022987 0.59375,-0.03125 z m 5.0625,0 c 0.21413,0.00846 0.44943,0.01689 0.65625,0.03125 0.66821,0.046449 1.32469,0.1499732 2.03125,0.25 a 1.50015,1.50015 0 0 0 0.21875,0 l 0.3125,0 c 0.0207,0.00359 0.0418,-0.00356 0.0625,0 0.80603,0.1386709 1.59473,0.2609625 2.375,0.375 0.79947,0.116902 1.5889,0.29983 2.375,0.53125 a 1.50015,1.50015 0 0 0 0.28125,0.0625 l 0.96875,0.09375 a 1.50015,1.50015 0 0 0 0.9375,-0.21875 l 0,2.53125 a 1.50015,1.50015 0 0 0 -0.0312,0 l -0.84375,-0.25 A 1.50015,1.50015 0 0 0 267.375,-1.09375 c -1.66239,-0.260117 -3.34164,-0.4706006 -5.0625,-0.625 -1.28086,-0.1148863 -2.67154,-0.128492 -4.0625,-0.15625 l 0,-2.59375 z m -2.40625,7.5 c 1.24352,1.25e-5 2.36642,0.073212 3.5,0.125 l 0,2.875 -2.59375,0 -2.0625,0 -2.65625,0 0,-2.71875 c 1.29339,-0.135254 2.57598,-0.2812372 3.8125,-0.28125 z m 8.71875,0.5625 c 0.0332,0.00496 0.0602,-0.00515 0.0937,0 0.63993,0.098417 1.23223,0.2121512 1.78125,0.3125 l 1.125,0.21875 A 1.50015,1.50015 0 0 0 268.46875,4 l 0,2.125 A 1.50015,1.50015 0 0 0 268,6.03125 l -1.0625,0 -2.375,0 0,-2.4375 z m -17.75,0.25 c 0.022,-0.00367 0.0406,0.00364 0.0625,0 l 0,2.1875 -3.34375,0 a 1.50015,1.50015 0 0 0 -0.625,0.15625 l 0,-2.09375 a 1.50015,1.50015 0 0 0 0.8125,0.15625 l 1.0625,-0.09375 A 1.50015,1.50015 0 0 0 244.875,4.125 c 0.62759,-0.097221 1.28442,-0.1723892 1.9375,-0.28125 z m -3.90625,7.25 a 1.50015,1.50015 0 0 0 0.625,0.125 l 9.65625,0 0,2.875 -10.28125,0 0,-3 z m 25.53125,0.0625 a 1.50015,1.50015 0 0 0 0.0312,0 l 0,2.9375 -10.21875,0 0,-2.875 9.75,0 a 1.50015,1.50015 0 0 0 0.4375,-0.0625 z M 240.75,19.125 l 29.90625,0 c 1.06592,0.231686 1.87601,0.511528 2.1875,0.6875 0.28366,0.160283 0.61654,0.46677 0.9375,0.75 l 0,0.28125 -36.0625,0 0,-0.28125 c 0.32987,-0.289734 0.65647,-0.607243 0.9375,-0.78125 0.22309,-0.138137 0.99671,-0.425131 2.09375,-0.65625 z m -5.375,6.78125 40.71875,0 c 0.54553,0.04226 1.02371,0.130687 1.4375,0.28125 0.21037,0.07656 0.3483,0.164374 0.53125,0.25 l 0,1.65625 c -0.36427,0.0048 -0.44928,-0.0098 -0.96875,0 -1.32807,0.02493 -2.90031,0.06839 -4.6875,0.09375 -1.79378,0.02543 -3.67129,0.04232 -5.6875,0.09375 -2.00133,0.05103 -3.87683,0.09966 -5.5625,0.125 -1.71092,0.0257 -3.12171,0.06924 -4.25,0.09375 -0.56715,0.01231 -0.99661,0.02657 -1.28125,0.03125 -0.2643,0.0043 -0.38771,-2.16e-4 -0.40625,0 -5.6e-4,0 -0.0304,3e-6 -0.0312,0 -0.0589,-1.86e-4 -0.78752,-0.007 -2.15625,-0.03125 -1.38099,-0.02453 -3.20442,-0.07391 -5.4375,-0.125 -2.22819,-0.051 -4.45088,-0.105206 -6.65625,-0.15625 -2.20262,-0.051 -4.1717,-0.100098 -5.90625,-0.125 -0.89823,-0.01291 -1.10204,-0.02657 -1.625,-0.03125 l 0,-1.59375 c 0.20038,-0.09329 0.38353,-0.201202 0.59375,-0.28125 0.37302,-0.142061 0.83014,-0.239048 1.375,-0.28125 z"
         id="path3727-7"
         style="font-size:76px;font-style:normal;font-variant:normal;font-weight:normal;font-stretch:normal;line-height:125%;letter-spacing:0px;word-spacing:0px;fill:#4d4d4d;fill-opacity:1;stroke:none;font-family:DiagramTTOldstyle;-inkscape-font-specification:DiagramTTOldstyle"
         inkscape:original="M 250.53125 -26.75 L 250.53125 -20.65625 C 248.80873 -20.65621 247.29184 -20.5955 246 -20.46875 C 244.7081 -20.34192 243.4898 -20.092571 242.375 -19.6875 L 242.375 -25.21875 L 241.3125 -25.21875 C 240.2997 -25.320756 239.17336 -25.187089 237.90625 -24.78125 C 236.6391 -24.375323 235.41429 -23.857623 234.25 -23.25 L 233.71875 -22.9375 L 233.71875 -16.25 L 233.78125 -16.03125 C 233.93276 -15.728155 234.21336 -15.362351 234.59375 -14.90625 C 234.9741 -14.45008 235.43109 -13.981615 235.9375 -13.5 C 236.44387 -13.018319 236.97955 -12.555592 237.5625 -12.125 C 238.14541 -11.694346 238.73606 -11.3473 239.34375 -11.09375 L 239.34375 15.59375 L 239.34375 15.8125 C 238.07737 16.115563 237.12742 16.475629 236.46875 16.90625 C 235.81004 17.336875 235.11595 17.915285 234.40625 18.625 L 234.1875 18.9375 L 234.1875 22.34375 C 233.42674 22.495277 232.68342 22.733151 232 23.0625 C 231.31656 23.391842 230.71442 23.849605 230.15625 24.40625 L 229.84375 24.71875 L 229.84375 31.625 L 255.21875 32.0625 L 281.59375 31.625 L 281.59375 24.71875 L 281.28125 24.40625 C 280.77403 23.849605 280.18337 23.391842 279.5 23.0625 C 278.81651 22.733151 278.10443 22.495277 277.34375 22.34375 L 277.34375 18.9375 L 277.03125 18.625 C 276.32147 17.915285 275.65863 17.336875 275 16.90625 C 274.34125 16.475629 273.34858 16.115563 272.03125 15.8125 L 272.03125 15.59375 L 272.03125 -11.09375 C 272.64041 -11.3473 273.23603 -11.694346 273.84375 -12.125 C 274.45136 -12.555592 275.0248 -13.018319 275.53125 -13.5 C 276.03758 -13.981615 276.46906 -14.45008 276.875 -14.90625 C 277.28082 -15.362351 277.56716 -15.728155 277.71875 -16.03125 L 277.8125 -16.25 L 277.8125 -22.9375 L 277.125 -23.25 C 276.06114 -23.857623 274.88556 -24.375323 273.59375 -24.78125 C 272.30183 -25.187089 271.13927 -25.320756 270.125 -25.21875 L 269.125 -25.21875 L 269.125 -19.6875 C 268.01012 -20.092571 266.81733 -20.34192 265.5 -20.46875 C 264.18257 -20.5955 262.67142 -20.65621 261 -20.65625 L 261 -26.75 L 260.03125 -26.75 L 250.53125 -26.75 z M 252.65625 -24.625 L 258.875 -24.625 L 258.875 -18.6875 L 260.03125 -18.6875 C 262.61495 -18.687462 264.61254 -18.577517 266.03125 -18.375 C 267.44986 -18.172407 268.64188 -17.819624 269.65625 -17.3125 L 271.1875 -16.625 L 271.1875 -23.1875 C 271.89716 -23.086953 272.64623 -22.909789 273.40625 -22.65625 C 274.16616 -22.402628 274.88552 -22.072794 275.59375 -21.71875 L 275.59375 -16.78125 C 275.44216 -16.527633 275.20429 -16.224086 274.875 -15.84375 C 274.5456 -15.463344 274.18057 -15.067064 273.75 -14.6875 C 273.31932 -14.307868 272.85582 -13.948575 272.375 -13.59375 C 271.89407 -13.238859 271.42483 -12.995248 270.96875 -12.84375 C 268.38341 -13.704964 265.86315 -14.350593 263.40625 -14.78125 C 260.94926 -15.211839 258.48319 -15.437465 256 -15.4375 C 253.56775 -15.437465 251.06393 -15.211839 248.53125 -14.78125 C 245.99851 -14.350593 243.35032 -13.704964 240.5625 -12.84375 C 240.10634 -12.995248 239.63137 -13.238859 239.125 -13.59375 C 238.61859 -13.948575 238.14935 -14.307868 237.71875 -14.6875 C 237.28811 -15.067064 236.89183 -15.463344 236.5625 -15.84375 C 236.23314 -16.224086 236.03799 -16.527633 235.9375 -16.78125 L 235.9375 -21.71875 C 236.64565 -22.072794 237.36501 -22.402628 238.125 -22.65625 C 238.88495 -22.909789 239.63401 -23.086953 240.34375 -23.1875 L 240.34375 -16.625 L 241.78125 -17.3125 C 242.794 -17.819624 244.02455 -18.172407 245.46875 -18.375 C 246.91289 -18.577517 248.91623 -18.687462 251.5 -18.6875 L 252.65625 -18.6875 L 252.65625 -24.625 z M 255.90625 -13.28125 C 258.23637 -13.281217 260.56954 -13.098316 262.875 -12.71875 C 265.18037 -12.33912 267.53649 -11.760711 269.96875 -11 L 269.96875 15.59375 L 241.40625 15.59375 L 241.40625 -11 C 244.04099 -11.760711 246.52504 -12.33912 248.90625 -12.71875 C 251.2874 -13.098316 253.62553 -13.281217 255.90625 -13.28125 z M 248.15625 -11.46875 L 248.15625 -7.4375 C 247.49753 -7.3369688 246.85764 -7.2640115 246.25 -7.1875 C 245.64231 -7.1109355 244.99094 -7.0067282 244.28125 -6.90625 L 243.375 -6.53125 L 243.6875 -4.625 L 244.8125 -4.71875 C 245.62424 -4.9723065 246.44549 -5.1552083 247.28125 -5.28125 C 248.11695 -5.4072425 248.93975 -5.534399 249.75 -5.6875 L 250.21875 -5.6875 C 250.97791 -5.7879795 251.74 -5.8864494 252.5 -5.9375 C 253.25993 -5.9885001 253.97775 -5.9999747 254.6875 -6 L 254.6875 -0.4375 C 251.39401 -0.3864549 247.97149 -0.089417444 244.375 0.46875 L 243.375 0.6875 L 243.59375 2.75 L 244.65625 2.65625 C 245.31491 2.554216 245.95481 2.4762945 246.5625 2.375 C 247.17014 2.2737394 247.76576 2.1760425 248.375 2.125 L 248.375 7.53125 L 243.53125 7.53125 L 243.53125 9.71875 L 254.6875 9.71875 L 254.6875 14.8125 L 256.75 14.8125 L 256.75 9.71875 L 268 9.71875 L 268 7.53125 L 266.9375 7.53125 L 263.0625 7.53125 L 263.0625 1.90625 C 263.61909 1.9572927 264.21626 2.0237396 264.875 2.125 C 265.53364 2.2262947 266.16051 2.3354662 266.71875 2.4375 L 267.84375 2.65625 L 268 0.625 L 267.15625 0.375 C 265.53576 0.12143845 263.88521 -0.06642756 262.1875 -0.21875 C 260.4897 -0.37103338 258.67501 -0.43748024 256.75 -0.4375 L 256.75 -6 C 257.5107 -5.9999747 258.2655 -5.9885001 259 -5.9375 C 259.73441 -5.8864494 260.44649 -5.7879795 261.15625 -5.6875 L 261.53125 -5.6875 C 262.39245 -5.534399 263.26293 -5.4072425 264.125 -5.28125 C 264.98697 -5.1552083 265.85746 -4.9723065 266.71875 -4.71875 L 267.6875 -4.625 L 268.15625 -6.53125 L 267.15625 -6.90625 C 266.44648 -7.0067282 265.79512 -7.1109355 265.1875 -7.1875 C 264.57979 -7.2640115 263.9399 -7.3369688 263.28125 -7.4375 L 263.28125 -11.46875 L 261.15625 -11.46875 L 261.15625 -7.75 C 257.55815 -8.2061086 253.91728 -8.2061086 250.21875 -7.75 L 250.21875 -11.46875 L 248.15625 -11.46875 z M 255.84375 1.53125 C 257.61723 1.5312678 259.27429 1.585467 260.84375 1.6875 L 260.84375 7.53125 L 256.75 7.53125 L 254.6875 7.53125 L 250.53125 7.53125 L 250.53125 1.90625 C 252.35576 1.6526869 254.12122 1.5312678 255.84375 1.53125 z M 240.5625 17.625 L 270.875 17.625 C 272.09028 17.878582 273.01077 18.170655 273.59375 18.5 C 274.17662 18.829346 274.72455 19.287109 275.28125 19.84375 L 275.28125 22.34375 L 236.21875 22.34375 L 236.21875 19.84375 C 236.77537 19.287109 237.34308 18.829346 237.875 18.5 C 238.40688 18.170655 239.29612 17.878582 240.5625 17.625 z M 235.25 24.40625 L 276.21875 24.40625 C 276.87738 24.45727 277.47455 24.578689 278.03125 24.78125 C 278.58783 24.9838 279.1063 25.226638 279.5625 25.53125 L 279.5625 29.5625 C 279.25938 29.56249 278.44232 29.569 277.125 29.59375 C 275.80756 29.618479 274.23648 29.661977 272.4375 29.6875 C 270.63842 29.713002 268.75076 29.730214 266.75 29.78125 C 264.74914 29.832265 262.88521 29.880727 261.1875 29.90625 C 259.4897 29.931752 258.07703 29.97525 256.9375 30 C 255.79789 30.024729 255.21871 30.031239 255.21875 30.03125 C 255.11666 30.031239 254.39311 30.024729 253 30 C 251.60682 29.97525 249.79212 29.926015 247.5625 29.875 C 245.33282 29.823964 243.11037 29.769765 240.90625 29.71875 C 238.70209 29.667714 236.72247 29.618479 235 29.59375 C 233.27749 29.569 232.26032 29.56249 231.90625 29.5625 L 231.90625 25.53125 C 232.4134 25.226638 232.93683 24.9838 233.46875 24.78125 C 234.00063 24.578689 234.59129 24.45727 235.25 24.40625 z "
         inkscape:radius="1.5"
         sodipodi:type="inkscape:offset" />
      <path
         transform="translate(-3.5318037,27.923115)"
         d="m 250.375,-28.25 a 1.50015,1.50015 0 0 0 -1.34375,1.5 l 0,4.65625 c -1.1092,0.02743 -2.26335,0.03433 -3.1875,0.125 -0.69023,0.06776 -1.30704,0.29734 -1.96875,0.4375 l 0,-3.6875 a 1.50015,1.50015 0 0 0 -1.5,-1.5 l -0.90625,0 -0.15625,0 0,0.03125 c -1.21056,-0.09886 -2.50872,0.03115 -3.875,0.46875 -1.35258,0.433294 -2.63799,0.979428 -3.875,1.625 a 1.50015,1.50015 0 0 0 -0.0625,0.0625 l -0.53125,0.3125 a 1.50015,1.50015 0 0 0 -0.75,1.28125 l 0,6.6875 a 1.50015,1.50015 0 0 0 0.0625,0.40625 l 0.0625,0.21875 a 1.50015,1.50015 0 0 0 0.0937,0.25 c 0.26687,0.53388 0.59933,0.957087 1,1.4375 0.43533,0.522108 0.93691,1.025447 1.46875,1.53125 0.54155,0.515147 1.10719,1.025194 1.75,1.5 0.36932,0.272857 0.79639,0.43626 1.1875,0.65625 l 0,25.0625 c -0.77247,0.251478 -1.60595,0.463546 -2.1875,0.84375 -0.76968,0.503171 -1.54517,1.1389 -2.3125,1.90625 A 1.50015,1.50015 0 0 0 233.1875,17.75 l -0.21875,0.3125 a 1.50015,1.50015 0 0 0 -0.28125,0.875 l 0,2.34375 c -0.44691,0.142919 -0.91833,0.232486 -1.34375,0.4375 -0.86272,0.415736 -1.60105,0.977823 -2.25,1.625 l -0.3125,0.3125 a 1.50015,1.50015 0 0 0 -0.4375,1.0625 l 0,6.90625 a 1.50015,1.50015 0 0 0 1.46875,1.5 l 25.375,0.4375 a 1.50015,1.50015 0 0 0 0.0625,0 l 26.375,-0.4375 a 1.50015,1.50015 0 0 0 1.46875,-1.5 l 0,-6.90625 a 1.50015,1.50015 0 0 0 -0.4375,-1.0625 l -0.28125,-0.25 -0.0312,-0.0625 -0.0312,0.03125 c -0.61269,-0.660942 -1.3091,-1.247975 -2.15625,-1.65625 -0.41278,-0.198903 -0.87707,-0.294543 -1.3125,-0.4375 l 0,-2.34375 a 1.50015,1.50015 0 0 0 -0.4375,-1.0625 l -0.3125,-0.3125 c -0.75181,-0.751743 -1.49351,-1.391209 -2.28125,-1.90625 -0.60816,-0.397553 -1.46577,-0.62347 -2.28125,-0.875 l 0,-25.03125 c 0.39146,-0.217328 0.81141,-0.389738 1.1875,-0.65625 0.65798,-0.466288 1.2752,-0.959255 1.84375,-1.5 0.54994,-0.523096 1.01969,-1.030488 1.4375,-1.5 0.43766,-0.491881 0.78886,-0.921622 1.0625,-1.46875 a 1.50015,1.50015 0 0 0 0.0312,-0.0625 l 0.0937,-0.21875 a 1.50015,1.50015 0 0 0 0.125,-0.59375 l 0,-6.6875 a 1.50015,1.50015 0 0 0 -0.875,-1.375 l -0.5625,-0.25 c -0.0386,-0.02206 -0.0861,-0.04067 -0.125,-0.0625 -1.1274,-0.633081 -2.37365,-1.171078 -3.71875,-1.59375 -1.39135,-0.437073 -2.68959,-0.568164 -3.90625,-0.46875 l 0,-0.03125 -0.15625,0 -0.84375,0 a 1.50015,1.50015 0 0 0 -1.5,1.5 l 0,3.6875 c -0.65994,-0.140545 -1.26506,-0.36975 -1.96875,-0.4375 -0.93597,-0.09005 -2.06689,-0.09743 -3.15625,-0.125 l 0,-4.65625 a 1.50015,1.50015 0 0 0 -1.5,-1.5 l -0.96875,0 -9.5,0 a 1.50015,1.50015 0 0 0 -0.15625,0 z m 3.78125,5.125 3.21875,0 0,4.4375 a 1.50015,1.50015 0 0 0 1.5,1.5 l 1.15625,0 c 2.54116,3.7e-5 4.48236,0.127086 5.78125,0.3125 1.29377,0.184764 2.34467,0.484883 3.1875,0.90625 a 1.50015,1.50015 0 0 0 0.0312,0.03125 l 1.53125,0.6875 a 1.50015,1.50015 0 0 0 2.125,-1.375 l 0,-4.65625 c 0.0858,0.02653 0.16363,0.03369 0.25,0.0625 0.38249,0.127657 0.77137,0.327209 1.15625,0.5 l 0,3.4375 c -0.0997,0.134481 -0.1548,0.250507 -0.34375,0.46875 -0.30788,0.355552 -0.64246,0.684814 -1,1 -0.38239,0.337063 -0.81912,0.658966 -1.28125,1 -0.26207,0.193386 -0.46572,0.276198 -0.6875,0.375 -2.41792,-0.774836 -4.80194,-1.405304 -7.125,-1.8125 -2.53733,-0.444668 -5.08221,-0.687464 -7.65625,-0.6875 -2.525,3.6e-5 -5.11039,0.244044 -7.71875,0.6875 -2.4065,0.409192 -4.92598,1.032643 -7.53125,1.8125 -0.23404,-0.102128 -0.45398,-0.167534 -0.75,-0.375 -0.47331,-0.331636 -0.90398,-0.667382 -1.28125,-1 -0.38456,-0.338949 -0.75425,-0.680038 -1.03125,-1 -0.18714,-0.216099 -0.20437,-0.296207 -0.25,-0.375 l 0,-3.53125 c 0.38485,-0.172781 0.77373,-0.372345 1.15625,-0.5 0.0864,-0.02881 0.16419,-0.03597 0.25,-0.0625 l 0,4.65625 A 1.50015,1.50015 0 0 0 241,-15.28125 l 1.4375,-0.6875 c 0.82681,-0.414018 1.92695,-0.720653 3.25,-0.90625 1.32915,-0.186391 3.27127,-0.312463 5.8125,-0.3125 l 1.15625,0 a 1.50015,1.50015 0 0 0 1.5,-1.5 l 0,-4.4375 z m 1.75,11.34375 c 1.25633,1.8e-5 2.49883,0.169056 3.75,0.28125 a 1.50015,1.50015 0 0 0 0,0.03125 l 0,2.125 c -2.62251,-0.2317924 -5.26876,-0.2324458 -7.9375,0 l 0,-2.09375 c 1.4074,-0.139336 2.82199,-0.34373 4.1875,-0.34375 z m 8.875,1.0625 c 1.21098,0.259956 2.43269,0.539448 3.6875,0.90625 l 0,1.78125 -0.78125,-0.28125 a 1.50015,1.50015 0 0 0 -0.3125,-0.09375 c -0.69336,-0.098155 -1.35681,-0.2002031 -2,-0.28125 -0.19605,-0.024684 -0.39693,-0.038173 -0.59375,-0.0625 l 0,-1.96875 z m -18.125,0.03125 0,1.9375 c -0.19682,0.024328 -0.39771,0.037816 -0.59375,0.0625 -0.64327,0.081048 -1.3067,0.1830928 -2,0.28125 a 1.50015,1.50015 0 0 0 -0.34375,0.125 l -0.8125,0.34375 0,-1.875 c 1.29822,-0.353761 2.52736,-0.619714 3.75,-0.875 z m 6.53125,6.21875 0,2.65625 c -2.92742,0.1056107 -5.88362,0.3239949 -9.03125,0.8125 a 1.50015,1.50015 0 0 0 -0.0937,0 l -1,0.21875 A 1.50015,1.50015 0 0 0 242.90625,-0.75 l 0,-2.625 a 1.50015,1.50015 0 0 0 0.90625,0.25 l 1.125,-0.09375 a 1.50015,1.50015 0 0 0 0.3125,-0.0625 c 0.73286,-0.2289177 1.48255,-0.41551 2.25,-0.53125 0.74676,-0.112584 1.50006,-0.2387436 2.25,-0.375 0.0304,-0.00553 0.0633,0.0056 0.0937,0 l 0.375,0 a 1.50015,1.50015 0 0 0 0.1875,0 c 0.75608,-0.1000723 1.48929,-0.2031 2.1875,-0.25 0.20204,-0.013559 0.39564,-0.022987 0.59375,-0.03125 z m 5.0625,0 c 0.21413,0.00846 0.44943,0.01689 0.65625,0.03125 0.66821,0.046449 1.32469,0.1499732 2.03125,0.25 a 1.50015,1.50015 0 0 0 0.21875,0 l 0.3125,0 c 0.0207,0.00359 0.0418,-0.00356 0.0625,0 0.80603,0.1386709 1.59473,0.2609625 2.375,0.375 0.79947,0.116902 1.5889,0.29983 2.375,0.53125 a 1.50015,1.50015 0 0 0 0.28125,0.0625 l 0.96875,0.09375 a 1.50015,1.50015 0 0 0 0.9375,-0.21875 l 0,2.53125 a 1.50015,1.50015 0 0 0 -0.0312,0 l -0.84375,-0.25 A 1.50015,1.50015 0 0 0 267.375,-1.09375 c -1.66239,-0.260117 -3.34164,-0.4706006 -5.0625,-0.625 -1.28086,-0.1148863 -2.67154,-0.128492 -4.0625,-0.15625 l 0,-2.59375 z m -2.40625,7.5 c 1.24352,1.25e-5 2.36642,0.073212 3.5,0.125 l 0,2.875 -2.59375,0 -2.0625,0 -2.65625,0 0,-2.71875 c 1.29339,-0.135254 2.57598,-0.2812372 3.8125,-0.28125 z m 8.71875,0.5625 c 0.0332,0.00496 0.0602,-0.00515 0.0937,0 0.63993,0.098417 1.23223,0.2121512 1.78125,0.3125 l 1.125,0.21875 A 1.50015,1.50015 0 0 0 268.46875,4 l 0,2.125 A 1.50015,1.50015 0 0 0 268,6.03125 l -1.0625,0 -2.375,0 0,-2.4375 z m -17.75,0.25 c 0.022,-0.00367 0.0406,0.00364 0.0625,0 l 0,2.1875 -3.34375,0 a 1.50015,1.50015 0 0 0 -0.625,0.15625 l 0,-2.09375 a 1.50015,1.50015 0 0 0 0.8125,0.15625 l 1.0625,-0.09375 A 1.50015,1.50015 0 0 0 244.875,4.125 c 0.62759,-0.097221 1.28442,-0.1723892 1.9375,-0.28125 z m -3.90625,7.25 a 1.50015,1.50015 0 0 0 0.625,0.125 l 9.65625,0 0,2.875 -10.28125,0 0,-3 z m 25.53125,0.0625 a 1.50015,1.50015 0 0 0 0.0312,0 l 0,2.9375 -10.21875,0 0,-2.875 9.75,0 a 1.50015,1.50015 0 0 0 0.4375,-0.0625 z M 240.75,19.125 l 29.90625,0 c 1.06592,0.231686 1.87601,0.511528 2.1875,0.6875 0.28366,0.160283 0.61654,0.46677 0.9375,0.75 l 0,0.28125 -36.0625,0 0,-0.28125 c 0.32987,-0.289734 0.65647,-0.607243 0.9375,-0.78125 0.22309,-0.138137 0.99671,-0.425131 2.09375,-0.65625 z m -5.375,6.78125 40.71875,0 c 0.54553,0.04226 1.02371,0.130687 1.4375,0.28125 0.21037,0.07656 0.3483,0.164374 0.53125,0.25 l 0,1.65625 c -0.36427,0.0048 -0.44928,-0.0098 -0.96875,0 -1.32807,0.02493 -2.90031,0.06839 -4.6875,0.09375 -1.79378,0.02543 -3.67129,0.04232 -5.6875,0.09375 -2.00133,0.05103 -3.87683,0.09966 -5.5625,0.125 -1.71092,0.0257 -3.12171,0.06924 -4.25,0.09375 -0.56715,0.01231 -0.99661,0.02657 -1.28125,0.03125 -0.2643,0.0043 -0.38771,-2.16e-4 -0.40625,0 -5.6e-4,0 -0.0304,3e-6 -0.0312,0 -0.0589,-1.86e-4 -0.78752,-0.007 -2.15625,-0.03125 -1.38099,-0.02453 -3.20442,-0.07391 -5.4375,-0.125 -2.22819,-0.051 -4.45088,-0.105206 -6.65625,-0.15625 -2.20262,-0.051 -4.1717,-0.100098 -5.90625,-0.125 -0.89823,-0.01291 -1.10204,-0.02657 -1.625,-0.03125 l 0,-1.59375 c 0.20038,-0.09329 0.38353,-0.201202 0.59375,-0.28125 0.37302,-0.142061 0.83014,-0.239048 1.375,-0.28125 z"
         id="path3727"
         style="font-size:76px;font-style:normal;font-variant:normal;font-weight:normal;font-stretch:normal;line-height:125%;letter-spacing:0px;word-spacing:0px;fill:#ffffff;fill-opacity:1;stroke:none;font-family:DiagramTTOldstyle;-inkscape-font-specification:DiagramTTOldstyle"
         inkscape:original="M 250.53125 -26.75 L 250.53125 -20.65625 C 248.80873 -20.65621 247.29184 -20.5955 246 -20.46875 C 244.7081 -20.34192 243.4898 -20.092571 242.375 -19.6875 L 242.375 -25.21875 L 241.3125 -25.21875 C 240.2997 -25.320756 239.17336 -25.187089 237.90625 -24.78125 C 236.6391 -24.375323 235.41429 -23.857623 234.25 -23.25 L 233.71875 -22.9375 L 233.71875 -16.25 L 233.78125 -16.03125 C 233.93276 -15.728155 234.21336 -15.362351 234.59375 -14.90625 C 234.9741 -14.45008 235.43109 -13.981615 235.9375 -13.5 C 236.44387 -13.018319 236.97955 -12.555592 237.5625 -12.125 C 238.14541 -11.694346 238.73606 -11.3473 239.34375 -11.09375 L 239.34375 15.59375 L 239.34375 15.8125 C 238.07737 16.115563 237.12742 16.475629 236.46875 16.90625 C 235.81004 17.336875 235.11595 17.915285 234.40625 18.625 L 234.1875 18.9375 L 234.1875 22.34375 C 233.42674 22.495277 232.68342 22.733151 232 23.0625 C 231.31656 23.391842 230.71442 23.849605 230.15625 24.40625 L 229.84375 24.71875 L 229.84375 31.625 L 255.21875 32.0625 L 281.59375 31.625 L 281.59375 24.71875 L 281.28125 24.40625 C 280.77403 23.849605 280.18337 23.391842 279.5 23.0625 C 278.81651 22.733151 278.10443 22.495277 277.34375 22.34375 L 277.34375 18.9375 L 277.03125 18.625 C 276.32147 17.915285 275.65863 17.336875 275 16.90625 C 274.34125 16.475629 273.34858 16.115563 272.03125 15.8125 L 272.03125 15.59375 L 272.03125 -11.09375 C 272.64041 -11.3473 273.23603 -11.694346 273.84375 -12.125 C 274.45136 -12.555592 275.0248 -13.018319 275.53125 -13.5 C 276.03758 -13.981615 276.46906 -14.45008 276.875 -14.90625 C 277.28082 -15.362351 277.56716 -15.728155 277.71875 -16.03125 L 277.8125 -16.25 L 277.8125 -22.9375 L 277.125 -23.25 C 276.06114 -23.857623 274.88556 -24.375323 273.59375 -24.78125 C 272.30183 -25.187089 271.13927 -25.320756 270.125 -25.21875 L 269.125 -25.21875 L 269.125 -19.6875 C 268.01012 -20.092571 266.81733 -20.34192 265.5 -20.46875 C 264.18257 -20.5955 262.67142 -20.65621 261 -20.65625 L 261 -26.75 L 260.03125 -26.75 L 250.53125 -26.75 z M 252.65625 -24.625 L 258.875 -24.625 L 258.875 -18.6875 L 260.03125 -18.6875 C 262.61495 -18.687462 264.61254 -18.577517 266.03125 -18.375 C 267.44986 -18.172407 268.64188 -17.819624 269.65625 -17.3125 L 271.1875 -16.625 L 271.1875 -23.1875 C 271.89716 -23.086953 272.64623 -22.909789 273.40625 -22.65625 C 274.16616 -22.402628 274.88552 -22.072794 275.59375 -21.71875 L 275.59375 -16.78125 C 275.44216 -16.527633 275.20429 -16.224086 274.875 -15.84375 C 274.5456 -15.463344 274.18057 -15.067064 273.75 -14.6875 C 273.31932 -14.307868 272.85582 -13.948575 272.375 -13.59375 C 271.89407 -13.238859 271.42483 -12.995248 270.96875 -12.84375 C 268.38341 -13.704964 265.86315 -14.350593 263.40625 -14.78125 C 260.94926 -15.211839 258.48319 -15.437465 256 -15.4375 C 253.56775 -15.437465 251.06393 -15.211839 248.53125 -14.78125 C 245.99851 -14.350593 243.35032 -13.704964 240.5625 -12.84375 C 240.10634 -12.995248 239.63137 -13.238859 239.125 -13.59375 C 238.61859 -13.948575 238.14935 -14.307868 237.71875 -14.6875 C 237.28811 -15.067064 236.89183 -15.463344 236.5625 -15.84375 C 236.23314 -16.224086 236.03799 -16.527633 235.9375 -16.78125 L 235.9375 -21.71875 C 236.64565 -22.072794 237.36501 -22.402628 238.125 -22.65625 C 238.88495 -22.909789 239.63401 -23.086953 240.34375 -23.1875 L 240.34375 -16.625 L 241.78125 -17.3125 C 242.794 -17.819624 244.02455 -18.172407 245.46875 -18.375 C 246.91289 -18.577517 248.91623 -18.687462 251.5 -18.6875 L 252.65625 -18.6875 L 252.65625 -24.625 z M 255.90625 -13.28125 C 258.23637 -13.281217 260.56954 -13.098316 262.875 -12.71875 C 265.18037 -12.33912 267.53649 -11.760711 269.96875 -11 L 269.96875 15.59375 L 241.40625 15.59375 L 241.40625 -11 C 244.04099 -11.760711 246.52504 -12.33912 248.90625 -12.71875 C 251.2874 -13.098316 253.62553 -13.281217 255.90625 -13.28125 z M 248.15625 -11.46875 L 248.15625 -7.4375 C 247.49753 -7.3369688 246.85764 -7.2640115 246.25 -7.1875 C 245.64231 -7.1109355 244.99094 -7.0067282 244.28125 -6.90625 L 243.375 -6.53125 L 243.6875 -4.625 L 244.8125 -4.71875 C 245.62424 -4.9723065 246.44549 -5.1552083 247.28125 -5.28125 C 248.11695 -5.4072425 248.93975 -5.534399 249.75 -5.6875 L 250.21875 -5.6875 C 250.97791 -5.7879795 251.74 -5.8864494 252.5 -5.9375 C 253.25993 -5.9885001 253.97775 -5.9999747 254.6875 -6 L 254.6875 -0.4375 C 251.39401 -0.3864549 247.97149 -0.089417444 244.375 0.46875 L 243.375 0.6875 L 243.59375 2.75 L 244.65625 2.65625 C 245.31491 2.554216 245.95481 2.4762945 246.5625 2.375 C 247.17014 2.2737394 247.76576 2.1760425 248.375 2.125 L 248.375 7.53125 L 243.53125 7.53125 L 243.53125 9.71875 L 254.6875 9.71875 L 254.6875 14.8125 L 256.75 14.8125 L 256.75 9.71875 L 268 9.71875 L 268 7.53125 L 266.9375 7.53125 L 263.0625 7.53125 L 263.0625 1.90625 C 263.61909 1.9572927 264.21626 2.0237396 264.875 2.125 C 265.53364 2.2262947 266.16051 2.3354662 266.71875 2.4375 L 267.84375 2.65625 L 268 0.625 L 267.15625 0.375 C 265.53576 0.12143845 263.88521 -0.06642756 262.1875 -0.21875 C 260.4897 -0.37103338 258.67501 -0.43748024 256.75 -0.4375 L 256.75 -6 C 257.5107 -5.9999747 258.2655 -5.9885001 259 -5.9375 C 259.73441 -5.8864494 260.44649 -5.7879795 261.15625 -5.6875 L 261.53125 -5.6875 C 262.39245 -5.534399 263.26293 -5.4072425 264.125 -5.28125 C 264.98697 -5.1552083 265.85746 -4.9723065 266.71875 -4.71875 L 267.6875 -4.625 L 268.15625 -6.53125 L 267.15625 -6.90625 C 266.44648 -7.0067282 265.79512 -7.1109355 265.1875 -7.1875 C 264.57979 -7.2640115 263.9399 -7.3369688 263.28125 -7.4375 L 263.28125 -11.46875 L 261.15625 -11.46875 L 261.15625 -7.75 C 257.55815 -8.2061086 253.91728 -8.2061086 250.21875 -7.75 L 250.21875 -11.46875 L 248.15625 -11.46875 z M 255.84375 1.53125 C 257.61723 1.5312678 259.27429 1.585467 260.84375 1.6875 L 260.84375 7.53125 L 256.75 7.53125 L 254.6875 7.53125 L 250.53125 7.53125 L 250.53125 1.90625 C 252.35576 1.6526869 254.12122 1.5312678 255.84375 1.53125 z M 240.5625 17.625 L 270.875 17.625 C 272.09028 17.878582 273.01077 18.170655 273.59375 18.5 C 274.17662 18.829346 274.72455 19.287109 275.28125 19.84375 L 275.28125 22.34375 L 236.21875 22.34375 L 236.21875 19.84375 C 236.77537 19.287109 237.34308 18.829346 237.875 18.5 C 238.40688 18.170655 239.29612 17.878582 240.5625 17.625 z M 235.25 24.40625 L 276.21875 24.40625 C 276.87738 24.45727 277.47455 24.578689 278.03125 24.78125 C 278.58783 24.9838 279.1063 25.226638 279.5625 25.53125 L 279.5625 29.5625 C 279.25938 29.56249 278.44232 29.569 277.125 29.59375 C 275.80756 29.618479 274.23648 29.661977 272.4375 29.6875 C 270.63842 29.713002 268.75076 29.730214 266.75 29.78125 C 264.74914 29.832265 262.88521 29.880727 261.1875 29.90625 C 259.4897 29.931752 258.07703 29.97525 256.9375 30 C 255.79789 30.024729 255.21871 30.031239 255.21875 30.03125 C 255.11666 30.031239 254.39311 30.024729 253 30 C 251.60682 29.97525 249.79212 29.926015 247.5625 29.875 C 245.33282 29.823964 243.11037 29.769765 240.90625 29.71875 C 238.70209 29.667714 236.72247 29.618479 235 29.59375 C 233.27749 29.569 232.26032 29.56249 231.90625 29.5625 L 231.90625 25.53125 C 232.4134 25.226638 232.93683 24.9838 233.46875 24.78125 C 234.00063 24.578689 234.59129 24.45727 235.25 24.40625 z "
         inkscape:radius="1.5"
         sodipodi:type="inkscape:offset" />
      <path
         transform="translate(0,-8)"
         inkscape:connector-curvature="0"
         id="path67369"
         d="m 237.67787,59.976332 c -2.51104,0.0451 -5.03768,-0.07749 -7.53696,0.202764 -0.81852,0.144102 -1.51974,0.647244 -2.25413,0.996106 -0.43774,0.448544 -0.12913,1.185128 -0.22173,1.75722 0.0493,0.982708 -0.10168,1.9979 0.081,2.958955 0.39297,0.48012 1.13986,0.175215 1.6904,0.274498 6.68082,0.06939 13.35924,0.28957 20.03912,0.392294 8.32977,-0.02172 16.65672,-0.266933 24.98525,-0.389746 0.56625,-0.09636 1.28969,0.166633 1.74229,-0.261234 0.31109,-0.707022 0.12279,-1.553934 0.18408,-2.315783 -0.0555,-0.766634 0.11856,-1.570504 -0.10138,-2.310446 -0.8695,-0.601754 -1.88616,-1.045695 -2.91607,-1.270041 -11.89728,-0.0082 -23.79458,-0.03725 -35.69186,-0.03459 z"
         style="fill:#ffffff;fill-opacity:1;fill-rule:nonzero;stroke:none" />
      <path
         transform="translate(0,-8)"
         inkscape:connector-curvature="0"
         id="path67371"
         d="m 236.88282,53.146376 c -1.50895,0.299772 -3.05589,0.776565 -4.17522,1.886821 -0.45483,0.311446 -0.8299,0.762325 -0.68845,1.349404 0.0536,0.776715 -0.11584,1.589629 0.10138,2.339794 0.54694,0.396456 1.29824,0.106102 1.93427,0.19476 12.52158,0 25.04317,0 37.56475,0 0.76508,-0.135961 0.42612,-1.064664 0.49891,-1.608775 -0.0797,-0.712998 0.28054,-1.687463 -0.50622,-2.104046 -1.19777,-1.069554 -2.73641,-1.754627 -4.3041,-2.023544 -10.14151,-0.007 -20.28507,-0.04999 -30.42532,-0.03441 z"
         style="fill:#ffffff;fill-opacity:1;fill-rule:nonzero;stroke:none" />
      <path
         transform="translate(0,-8)"
         inkscape:connector-curvature="0"
         id="path67373"
         d="m 251.94074,22.24616 c -4.89799,0.02913 -9.74986,0.96445 -14.44162,2.31845 -0.62035,0.344953 -0.26198,1.183299 -0.3575,1.760848 0.0182,8.451019 -0.0449,16.903435 0.0587,25.353544 0.2307,0.699075 1.09281,0.37434 1.64346,0.45622 9.14655,0.04725 18.29327,-0.0012 27.43988,-0.0053 0.76464,-0.135961 0.4268,-1.064663 0.50069,-1.608773 0.0136,-8.490313 0.0273,-16.980624 0.0409,-25.470936 -0.15066,-0.674294 -1.01943,-0.605294 -1.53855,-0.85135 -4.33213,-1.24316 -8.83014,-1.979035 -13.34596,-1.952667 z m -6.44577,2.862712 c 0.76805,-0.251356 0.47848,0.554904 0.52559,1.024493 0.0558,0.832386 -0.11893,1.702184 0.10138,2.507875 0.51562,0.408353 1.20674,-0.0027 1.80354,0.04002 3.1356,-0.229734 6.32071,-0.237048 9.4312,0.141402 0.74724,-0.09302 0.53704,-1.048757 0.58652,-1.592753 0.007,-0.706972 0.001,-1.41403 0.003,-2.121036 0.42092,0.100218 1.33947,-0.297184 1.13655,0.426872 0.0564,1.073617 -0.11474,2.181457 0.10939,3.236225 0.30647,0.611274 1.14032,0.380136 1.68347,0.554934 0.98702,0.147977 2.00571,0.209701 2.95076,0.520251 -0.0913,0.328362 -0.10912,0.792455 -0.29615,1.019158 -1.33754,-0.195172 -2.65378,-0.612212 -4.00993,-0.763035 -2.1749,-0.32741 -4.38201,-0.555402 -6.57833,-0.52806 -0.69724,0.173377 -0.35023,1.062548 -0.43304,1.584569 0.0181,1.513342 -0.0362,3.038447 0.027,4.544476 0.20194,0.681882 1.06652,0.335122 1.60046,0.420582 3.1565,0.09824 6.31759,0.351408 9.41563,0.881148 0.42143,0.05758 0.0397,0.706007 0.11162,1.015766 -0.28249,0.118649 -0.84248,-0.141078 -1.22231,-0.145188 -1.06959,-0.148047 -2.14574,-0.402228 -3.21934,-0.414431 -0.65872,0.201442 -0.30835,1.063022 -0.38862,1.578736 0.0321,1.547849 -0.0115,3.108162 0.0636,4.648351 0.19468,0.67396 1.05676,0.336412 1.57576,0.425112 1.10189,0.0092 2.20376,0.01981 3.30563,0.03037 -0.10059,0.421437 0.2979,1.341951 -0.42687,1.139215 -3.47341,0.01805 -6.95852,-0.03597 -10.42464,0.027 -0.68056,0.192123 -0.33372,1.061087 -0.41791,1.581777 0,1.171231 0,2.342462 0,3.513692 -0.52484,0.0037 -1.2072,0.164915 -0.9658,-0.597621 -0.0351,-1.393196 0.071,-2.809306 -0.054,-4.187926 -0.28544,-0.595454 -1.10865,-0.240999 -1.64015,-0.33692 -3.1633,0 -6.3266,0 -9.48991,0 0.10037,-0.422639 -0.29731,-1.338491 0.42686,-1.143371 1.32634,-0.03197 2.66539,0.01186 3.98393,-0.06372 0.67035,-0.198925 0.33362,-1.058904 0.42158,-1.578219 -0.007,-1.469061 0.0606,-2.94923 0.0103,-4.411325 -0.19253,-0.696778 -1.03718,-0.313098 -1.55687,-0.30143 -1.10023,0.147757 -2.18522,0.35671 -3.29379,0.433326 0.0616,-0.334668 -0.30907,-0.980423 0.0469,-1.100434 3.50696,-0.650825 7.10125,-0.851174 10.67296,-1.028591 0.75753,-0.19286 0.38443,-1.129593 0.47223,-1.694149 -0.0182,-1.4742 0.0363,-2.960208 -0.027,-4.427087 -0.19572,-0.691941 -1.0726,-0.316348 -1.59723,-0.38273 -3.06404,0.0439 -6.12021,0.582574 -9.08493,1.240097 -0.47129,0.208767 -0.48708,-0.216866 -0.52559,-0.581613 -0.22519,-0.43816 0.1522,-0.505503 0.49624,-0.554934 1.26211,-0.307103 2.60979,-0.294004 3.85762,-0.646492 0.55869,-0.3596 0.20944,-1.161269 0.30706,-1.719981 0,-0.738134 0,-1.476267 0,-2.2144 0.17519,0 0.35039,0 0.52558,0 z"
         style="fill:#ffffff;fill-opacity:1;fill-rule:nonzero;stroke:none" />
      <path
         transform="translate(0,-8)"
         inkscape:connector-curvature="0"
         id="path67375"
         d="m 252.98391,37.10665 c -2.09046,0.05034 -4.20769,0.0031 -6.26991,0.355751 -0.62816,0.219236 -0.3282,1.059933 -0.42347,1.583805 -0.005,1.53961 -0.0517,3.084183 0.0448,4.620938 0.21704,0.670004 1.05226,0.376659 1.57408,0.45498 3.10613,0.0047 6.22402,0.02559 9.32271,-0.04465 0.67625,-0.195804 0.33167,-1.061271 0.41532,-1.581562 -0.0182,-1.61916 0.0363,-3.250117 -0.027,-4.861963 -0.20891,-0.680987 -1.1051,-0.359919 -1.64314,-0.48728 -0.9969,-0.04867 -1.99563,-0.04467 -2.99344,-0.04002 z"
         style="fill:#ffffff;fill-opacity:1;fill-rule:nonzero;stroke:none" />
      <path
         transform="translate(0,-8)"
         inkscape:connector-curvature="0"
         id="path67377"
         d="m 248.64849,11.022087 c -0.39535,0.545994 -0.11344,1.29645 -0.20588,1.931557 -0.008,1.294875 -0.0204,2.589723 -0.0316,3.884578 -3.30036,0.133452 -6.74812,-0.13073 -9.8724,1.141621 -0.46873,0.18914 -0.9271,0.402996 -1.38635,0.613891 -0.0301,-1.942721 0.0102,-3.897833 -0.0677,-5.832882 -0.18929,-0.703982 -1.01637,-0.270938 -1.50643,-0.199357 -1.28851,0.304054 -2.55958,0.772761 -3.72206,1.385254 -0.36628,0.461219 -0.095,1.157135 -0.17849,1.714906 0.032,1.260936 -0.0643,2.540172 0.0478,3.789683 0.77892,1.439038 2.12164,2.483332 3.42781,3.434135 0.70029,0.425485 1.53837,1.106017 2.39185,0.658225 5.7439,-1.70571 11.76869,-2.745399 17.78131,-2.263337 4.02534,0.279321 7.98131,1.190498 11.81903,2.441176 0.94137,-0.08152 1.6908,-0.796508 2.4305,-1.333976 1.01023,-0.864097 2.07995,-1.746741 2.75257,-2.901543 0.10613,-1.335684 -0.0105,-2.707142 0.0133,-4.056427 -0.0698,-0.592239 0.24515,-1.53211 -0.54687,-1.728132 -1.40351,-0.584944 -2.85088,-1.217736 -4.38348,-1.290205 -0.74368,0.12603 -0.39524,1.060865 -0.47411,1.588267 -0.003,1.53052 0.0115,3.061289 -0.024,4.591545 -1.86474,-0.920597 -3.9001,-1.470982 -5.97621,-1.582095 -1.73297,-0.140192 -3.47261,-0.165284 -5.21051,-0.154742 -0.0352,-1.837764 0.006,-3.6879 -0.0703,-5.518063 -0.19585,-0.677245 -1.0607,-0.331361 -1.58114,-0.415461 -1.73299,0.0182 -3.47777,-0.03625 -5.20346,0.027 -0.0744,0.02479 -0.14877,0.04959 -0.22315,0.07438 z"
         style="fill:#ffffff;fill-opacity:1;fill-rule:nonzero;stroke:none" />
      <text
         sodipodi:linespacing="125%"
         id="text3061"
         y="47.35738"
         x="214.05585"
         style="font-size:76px;font-style:normal;font-variant:normal;font-weight:normal;font-stretch:normal;line-height:125%;letter-spacing:0px;word-spacing:0px;fill:#000000;fill-opacity:1;stroke:none;font-family:DiagramTTOldstyle;-inkscape-font-specification:DiagramTTOldstyle"
         xml:space="preserve"><tspan
           y="47.35738"
           x="214.05585"
           id="tspan3063"
           sodipodi:role="line">R</tspan></text>
    </g>
  </g>
</svg>
