<?xml version="1.0" encoding="UTF-8" standalone="no"?>
<!-- Created with Inkscape (http://www.inkscape.org/) -->

<svg
   xmlns:dc="http://purl.org/dc/elements/1.1/"
   xmlns:cc="http://creativecommons.org/ns#"
   xmlns:rdf="http://www.w3.org/1999/02/22-rdf-syntax-ns#"
   xmlns:svg="http://www.w3.org/2000/svg"
   xmlns="http://www.w3.org/2000/svg"
   xmlns:sodipodi="http://sodipodi.sourceforge.net/DTD/sodipodi-0.dtd"
   xmlns:inkscape="http://www.inkscape.org/namespaces/inkscape"
   width="64px"
   height="64px"
   id="svg4261"
   version="1.1"
   inkscape:version="0.48.2 r9819"
   sodipodi:docname="wk.svg">
  <defs
     id="defs4263" />
  <sodipodi:namedview
     id="base"
     pagecolor="#ffffff"
     bordercolor="#666666"
     borderopacity="1.0"
     inkscape:pageopacity="0.0"
     inkscape:pageshadow="2"
     inkscape:zoom="5.5"
     inkscape:cx="34.363636"
     inkscape:cy="32"
     inkscape:current-layer="layer1"
     showgrid="true"
     inkscape:document-units="px"
     inkscape:grid-bbox="true"
     inkscape:window-width="984"
     inkscape:window-height="614"
     inkscape:window-x="324"
     inkscape:window-y="105"
     inkscape:window-maximized="0" />
  <metadata
     id="metadata4266">
    <rdf:RDF>
      <cc:Work
         rdf:about="">
        <dc:format>image/svg+xml</dc:format>
        <dc:type
           rdf:resource="http://purl.org/dc/dcmitype/StillImage" />
        <dc:title></dc:title>
      </cc:Work>
    </rdf:RDF>
  </metadata>
  <g
     id="layer1"
     inkscape:label="Layer 1"
     inkscape:groupmode="layer">
    <g
       id="g3944"
       transform="matrix(0.88,0,0,0.88,-380.67695,6.409558)">
      <g
         style="fill:#4d4d4d"
         transform="translate(437.96875,1.4220932)"
         id="layer1-9-2-2"
         inkscape:label="Layer 1">
        <path
           d="m 32.03125,1.6875 c -1.892939,5.65e-5 -3.653489,0.7780657 -5,2.09375 -1.356881,1.3258418 -2.12504,3.0720518 -2.125,4.96875 -4e-5,1.1964089 0.289908,2.335197 0.84375,3.3125 0.177791,0.313808 0.44768,0.528225 0.65625,0.8125 -0.140513,0.101347 -0.301863,0.176467 -0.4375,0.28125 -0.549303,0.424366 -1.038935,0.830681 -1.46875,1.25 -0.03929,0.03833 -0.08663,0.08663 -0.125,0.125 l -1.40625,1.09375 -1.5625,0.96875 -0.03125,0 -4.59375,2.71875 0.03125,0.0625 c -0.555095,0.278161 -1.06061,0.720613 -1.21875,1.25 -0.156949,0.525196 -0.153984,1.208146 0.0625,1.75 0.224761,0.562951 0.703851,1.043707 1.1875,1.3125 0.20762,0.115458 0.465086,0.230317 0.84375,0.28125 0.212327,0.02856 0.463758,-0.09112 0.71875,-0.15625 l 0.03125,0.09375 c 1.412927,-0.292976 2.857135,-0.504374 4.3125,-0.625 0.469005,-0.03886 0.864112,-0.05698 1.3125,-0.09375 -0.312977,0.473641 -0.389632,0.716882 -0.8125,1.28125 a 1.50015,1.50015 0 0 0 -0.03125,0.0625 c -0.937374,1.35361 -1.849723,2.795267 -2.75,4.3125 -1.008535,1.699618 -1.56253,3.553831 -1.5625,5.5 -3e-5,2.433774 0.804317,4.61704 2.4375,6.15625 1.060197,0.999253 2.359203,1.693023 3.75,2.25 -0.210899,0.264914 -0.414058,0.534888 -0.65625,0.75 -0.409428,0.363606 -0.821157,0.692254 -1.28125,1.03125 -0.46316,0.341218 -0.930799,0.65957 -1.34375,0.9375 -0.01097,0.0074 -0.02032,0.02392 -0.03125,0.03125 l -0.8125,0.5 a 1.50015,1.50015 0 0 0 0,0.03125 l -0.875,0.5625 -0.03125,0.03125 c -0.702195,0.433589 -1.473445,0.953111 -2.34375,1.59375 C 16.73424,48.943411 15.826526,49.855893 15,50.875 c -0.862538,1.06344 -1.586068,2.293556 -2.1875,3.6875 -0.638094,1.478795 -1.0066,3.174717 -1.0625,5.0625 a 1.50015,1.50015 0 0 0 0,0.03125 l 0,1.15625 a 1.50015,1.50015 0 0 0 1.5,1.5 l 37.5,0 a 1.50015,1.50015 0 0 0 1.5,-1.5 l 0,-1.15625 c -6.2e-5,-1.885376 -0.322246,-3.568035 -0.9375,-5.0625 -0.580415,-1.40956 -1.288061,-2.676976 -2.1875,-3.75 -0.845113,-1.008081 -1.768162,-1.902241 -2.75,-2.625 -0.835754,-0.615151 -1.569874,-1.106946 -2.25,-1.53125 L 44,46.59375 l -0.65625,-0.5 A 1.50015,1.50015 0 0 0 43.25,46.03125 L 42.4375,45.5 A 1.50015,1.50015 0 0 0 42.40625,45.46875 C 41.561946,44.952179 40.651779,44.295146 39.6875,43.5 39.338241,43.212029 39.306498,42.984179 39.09375,42.71875 40.463807,42.163603 41.72683,41.48334 42.75,40.5 c 1.603039,-1.540727 2.406193,-3.725201 2.40625,-6.15625 -5.8e-5,-1.924018 -0.484161,-3.791433 -1.46875,-5.5 -0.890419,-1.544939 -1.85283,-2.986324 -2.84375,-4.34375 -0.357291,-0.486891 -0.60242,-0.914374 -0.875,-1.34375 0.47796,0.03953 0.908441,0.08303 1.40625,0.125 1.383376,0.116682 2.739993,0.314947 4.0625,0.59375 0.0372,0.01144 0.08631,0.02073 0.125,0.03125 0.532925,0.144902 1.174837,0.173885 1.8125,-0.1875 0.578202,-0.327687 0.859896,-0.866178 1,-1.375 l 0.03125,0.03125 c 0.01593,-0.03959 -0.01481,-0.113367 0,-0.15625 0.01171,-0.05159 0.05432,-0.106792 0.0625,-0.15625 l -0.03125,0 c 0.12282,-0.422833 0.219732,-0.916152 0.0625,-1.4375 -0.150908,-0.499578 -0.585644,-0.958961 -1.125,-1.25 l 0.03125,-0.0625 -4.5625,-2.71875 a 1.50015,1.50015 0 0 0 -0.0625,-0.03125 l -1.71875,-0.96875 -1.25,-1.125 C 39.319344,14.030839 38.781608,13.617955 38.25,13.1875 38.105456,13.070497 37.904192,12.987494 37.75,12.875 37.966619,12.579412 38.263531,12.35759 38.4375,12.03125 38.9526,11.064891 39.249946,9.9403749 39.25,8.75 39.249945,6.8571198 38.482441,5.1075455 37.15625,3.78125 35.811863,2.4369692 34.001502,1.6875552 32.03125,1.6875 z"
           id="path3921-1"
           style="font-size:76px;font-style:normal;font-variant:normal;font-weight:normal;font-stretch:normal;line-height:125%;letter-spacing:0px;word-spacing:0px;fill:#4d4d4d;fill-opacity:1;stroke:none;font-family:DiagramTTOldstyle;-inkscape-font-specification:DiagramTTOldstyle"
           inkscape:original="M 32.03125 3.1875 C 30.511275 3.1875454 29.208542 3.7544801 28.09375 4.84375 C 26.97889 5.9331075 26.406218 7.2301033 26.40625 8.75 C 26.406218 9.7117902 26.631844 10.552569 27.0625 11.3125 C 27.49309 12.072506 28.0173 12.711624 28.625 13.21875 C 28.0173 13.523391 27.43238 13.913161 26.875 14.34375 C 26.317554 14.774407 25.842579 15.188673 25.4375 15.59375 L 23.90625 16.8125 L 22.15625 17.875 L 17.53125 20.59375 C 17.277646 20.643257 17.106992 20.808947 17.03125 21.0625 C 16.955462 21.316108 16.961199 21.558946 17.0625 21.8125 C 17.163754 22.066107 17.334409 22.248236 17.5625 22.375 C 17.790544 22.501816 17.973446 22.539577 18.125 22.4375 C 19.593887 22.13292 21.104262 21.907294 22.625 21.78125 C 24.145681 21.65526 25.557586 21.539578 26.875 21.4375 C 26.468311 22.450303 25.6528 23.753036 24.4375 25.375 C 23.525198 26.692405 22.636731 28.099345 21.75 29.59375 C 20.863214 31.088193 20.406224 32.670752 20.40625 34.34375 C 20.406224 36.471366 21.05759 38.164643 22.375 39.40625 C 23.692353 40.647876 25.32492 41.514167 27.25 41.96875 C 27.149462 42.424892 26.923063 42.85637 26.59375 43.3125 C 26.264372 43.768641 25.893604 44.219894 25.4375 44.625 C 24.981333 45.030114 24.512868 45.395145 24.03125 45.75 C 23.549572 46.104861 23.079561 46.445396 22.625 46.75 L 21.78125 47.28125 L 20.875 47.875 C 20.216282 48.280111 19.454971 48.803548 18.59375 49.4375 C 17.732479 50.07145 16.916196 50.875486 16.15625 51.8125 C 15.396259 52.749508 14.744893 53.864375 14.1875 55.15625 C 13.630067 56.448112 13.301006 57.933747 13.25 59.65625 L 13.25 60.8125 L 50.75 60.8125 L 50.75 59.65625 C 50.749943 57.933747 50.469345 56.448112 49.9375 55.15625 C 49.405544 53.864375 48.754177 52.749508 47.96875 51.8125 C 47.183215 50.875486 46.361194 50.07145 45.5 49.4375 C 44.638703 48.803548 43.877391 48.280111 43.21875 47.875 L 42.4375 47.28125 L 41.625 46.75 C 40.712681 46.191816 39.732254 45.491987 38.71875 44.65625 C 37.705156 43.820521 37.066038 42.932053 36.8125 41.96875 C 38.788529 41.514167 40.426833 40.647876 41.71875 39.40625 C 43.010571 38.164643 43.6562 36.471366 43.65625 34.34375 C 43.6562 32.670752 43.236197 31.088193 42.375 29.59375 C 41.513706 28.099345 40.586705 26.692405 39.625 25.375 C 39.066768 24.614282 38.598303 23.907943 38.21875 23.25 C 37.839108 22.592108 37.534787 21.995713 37.28125 21.4375 C 38.598588 21.539578 40.005529 21.65526 41.5 21.78125 C 42.994376 21.907294 44.455516 22.13292 45.875 22.4375 C 46.533639 22.640081 46.899442 22.420192 47 21.8125 C 47.101998 21.558946 47.138985 21.316108 47.0625 21.0625 C 46.985909 20.808947 46.827502 20.643257 46.625 20.59375 L 42.0625 17.875 L 40.15625 16.8125 L 38.8125 15.59375 C 38.35632 15.188673 37.844357 14.774407 37.3125 14.34375 C 36.780556 13.913161 36.189899 13.523391 35.53125 13.21875 C 36.189899 12.711624 36.719847 12.072506 37.125 11.3125 C 37.530067 10.552569 37.749956 9.7117902 37.75 8.75 C 37.749956 7.2301033 37.183022 5.9331075 36.09375 4.84375 C 35.004394 3.7544801 33.651653 3.1875454 32.03125 3.1875 z "
           inkscape:radius="1.5"
           sodipodi:type="inkscape:offset" />
      </g>
      <g
         style="fill:#ffffff"
         transform="translate(435.93349,-0.5540325)"
         id="layer1-9-2"
         inkscape:label="Layer 1">
        <path
           d="m 32.03125,1.6875 c -1.892939,5.65e-5 -3.653489,0.7780657 -5,2.09375 -1.356881,1.3258418 -2.12504,3.0720518 -2.125,4.96875 -4e-5,1.1964089 0.289908,2.335197 0.84375,3.3125 0.177791,0.313808 0.44768,0.528225 0.65625,0.8125 -0.140513,0.101347 -0.301863,0.176467 -0.4375,0.28125 -0.549303,0.424366 -1.038935,0.830681 -1.46875,1.25 -0.03929,0.03833 -0.08663,0.08663 -0.125,0.125 l -1.40625,1.09375 -1.5625,0.96875 -0.03125,0 -4.59375,2.71875 0.03125,0.0625 c -0.555095,0.278161 -1.06061,0.720613 -1.21875,1.25 -0.156949,0.525196 -0.153984,1.208146 0.0625,1.75 0.224761,0.562951 0.703851,1.043707 1.1875,1.3125 0.20762,0.115458 0.465086,0.230317 0.84375,0.28125 0.212327,0.02856 0.463758,-0.09112 0.71875,-0.15625 l 0.03125,0.09375 c 1.412927,-0.292976 2.857135,-0.504374 4.3125,-0.625 0.469005,-0.03886 0.864112,-0.05698 1.3125,-0.09375 -0.312977,0.473641 -0.389632,0.716882 -0.8125,1.28125 a 1.50015,1.50015 0 0 0 -0.03125,0.0625 c -0.937374,1.35361 -1.849723,2.795267 -2.75,4.3125 -1.008535,1.699618 -1.56253,3.553831 -1.5625,5.5 -3e-5,2.433774 0.804317,4.61704 2.4375,6.15625 1.060197,0.999253 2.359203,1.693023 3.75,2.25 -0.210899,0.264914 -0.414058,0.534888 -0.65625,0.75 -0.409428,0.363606 -0.821157,0.692254 -1.28125,1.03125 -0.46316,0.341218 -0.930799,0.65957 -1.34375,0.9375 -0.01097,0.0074 -0.02032,0.02392 -0.03125,0.03125 l -0.8125,0.5 a 1.50015,1.50015 0 0 0 0,0.03125 l -0.875,0.5625 -0.03125,0.03125 c -0.702195,0.433589 -1.473445,0.953111 -2.34375,1.59375 C 16.73424,48.943411 15.826526,49.855893 15,50.875 c -0.862538,1.06344 -1.586068,2.293556 -2.1875,3.6875 -0.638094,1.478795 -1.0066,3.174717 -1.0625,5.0625 a 1.50015,1.50015 0 0 0 0,0.03125 l 0,1.15625 a 1.50015,1.50015 0 0 0 1.5,1.5 l 37.5,0 a 1.50015,1.50015 0 0 0 1.5,-1.5 l 0,-1.15625 c -6.2e-5,-1.885376 -0.322246,-3.568035 -0.9375,-5.0625 -0.580415,-1.40956 -1.288061,-2.676976 -2.1875,-3.75 -0.845113,-1.008081 -1.768162,-1.902241 -2.75,-2.625 -0.835754,-0.615151 -1.569874,-1.106946 -2.25,-1.53125 L 44,46.59375 l -0.65625,-0.5 A 1.50015,1.50015 0 0 0 43.25,46.03125 L 42.4375,45.5 A 1.50015,1.50015 0 0 0 42.40625,45.46875 C 41.561946,44.952179 40.651779,44.295146 39.6875,43.5 39.338241,43.212029 39.306498,42.984179 39.09375,42.71875 40.463807,42.163603 41.72683,41.48334 42.75,40.5 c 1.603039,-1.540727 2.406193,-3.725201 2.40625,-6.15625 -5.8e-5,-1.924018 -0.484161,-3.791433 -1.46875,-5.5 -0.890419,-1.544939 -1.85283,-2.986324 -2.84375,-4.34375 -0.357291,-0.486891 -0.60242,-0.914374 -0.875,-1.34375 0.47796,0.03953 0.908441,0.08303 1.40625,0.125 1.383376,0.116682 2.739993,0.314947 4.0625,0.59375 0.0372,0.01144 0.08631,0.02073 0.125,0.03125 0.532925,0.144902 1.174837,0.173885 1.8125,-0.1875 0.578202,-0.327687 0.859896,-0.866178 1,-1.375 l 0.03125,0.03125 c 0.01593,-0.03959 -0.01481,-0.113367 0,-0.15625 0.01171,-0.05159 0.05432,-0.106792 0.0625,-0.15625 l -0.03125,0 c 0.12282,-0.422833 0.219732,-0.916152 0.0625,-1.4375 -0.150908,-0.499578 -0.585644,-0.958961 -1.125,-1.25 l 0.03125,-0.0625 -4.5625,-2.71875 a 1.50015,1.50015 0 0 0 -0.0625,-0.03125 l -1.71875,-0.96875 -1.25,-1.125 C 39.319344,14.030839 38.781608,13.617955 38.25,13.1875 38.105456,13.070497 37.904192,12.987494 37.75,12.875 37.966619,12.579412 38.263531,12.35759 38.4375,12.03125 38.9526,11.064891 39.249946,9.9403749 39.25,8.75 39.249945,6.8571198 38.482441,5.1075455 37.15625,3.78125 35.811863,2.4369692 34.001502,1.6875552 32.03125,1.6875 z"
           id="path3921"
           style="font-size:76px;font-style:normal;font-variant:normal;font-weight:normal;font-stretch:normal;line-height:125%;letter-spacing:0px;word-spacing:0px;fill:#ffffff;fill-opacity:1;stroke:none;font-family:DiagramTTOldstyle;-inkscape-font-specification:DiagramTTOldstyle"
           inkscape:original="M 32.03125 3.1875 C 30.511275 3.1875454 29.208542 3.7544801 28.09375 4.84375 C 26.97889 5.9331075 26.406218 7.2301033 26.40625 8.75 C 26.406218 9.7117902 26.631844 10.552569 27.0625 11.3125 C 27.49309 12.072506 28.0173 12.711624 28.625 13.21875 C 28.0173 13.523391 27.43238 13.913161 26.875 14.34375 C 26.317554 14.774407 25.842579 15.188673 25.4375 15.59375 L 23.90625 16.8125 L 22.15625 17.875 L 17.53125 20.59375 C 17.277646 20.643257 17.106992 20.808947 17.03125 21.0625 C 16.955462 21.316108 16.961199 21.558946 17.0625 21.8125 C 17.163754 22.066107 17.334409 22.248236 17.5625 22.375 C 17.790544 22.501816 17.973446 22.539577 18.125 22.4375 C 19.593887 22.13292 21.104262 21.907294 22.625 21.78125 C 24.145681 21.65526 25.557586 21.539578 26.875 21.4375 C 26.468311 22.450303 25.6528 23.753036 24.4375 25.375 C 23.525198 26.692405 22.636731 28.099345 21.75 29.59375 C 20.863214 31.088193 20.406224 32.670752 20.40625 34.34375 C 20.406224 36.471366 21.05759 38.164643 22.375 39.40625 C 23.692353 40.647876 25.32492 41.514167 27.25 41.96875 C 27.149462 42.424892 26.923063 42.85637 26.59375 43.3125 C 26.264372 43.768641 25.893604 44.219894 25.4375 44.625 C 24.981333 45.030114 24.512868 45.395145 24.03125 45.75 C 23.549572 46.104861 23.079561 46.445396 22.625 46.75 L 21.78125 47.28125 L 20.875 47.875 C 20.216282 48.280111 19.454971 48.803548 18.59375 49.4375 C 17.732479 50.07145 16.916196 50.875486 16.15625 51.8125 C 15.396259 52.749508 14.744893 53.864375 14.1875 55.15625 C 13.630067 56.448112 13.301006 57.933747 13.25 59.65625 L 13.25 60.8125 L 50.75 60.8125 L 50.75 59.65625 C 50.749943 57.933747 50.469345 56.448112 49.9375 55.15625 C 49.405544 53.864375 48.754177 52.749508 47.96875 51.8125 C 47.183215 50.875486 46.361194 50.07145 45.5 49.4375 C 44.638703 48.803548 43.877391 48.280111 43.21875 47.875 L 42.4375 47.28125 L 41.625 46.75 C 40.712681 46.191816 39.732254 45.491987 38.71875 44.65625 C 37.705156 43.820521 37.066038 42.932053 36.8125 41.96875 C 38.788529 41.514167 40.426833 40.647876 41.71875 39.40625 C 43.010571 38.164643 43.6562 36.471366 43.65625 34.34375 C 43.6562 32.670752 43.236197 31.088193 42.375 29.59375 C 41.513706 28.099345 40.586705 26.692405 39.625 25.375 C 39.066768 24.614282 38.598303 23.907943 38.21875 23.25 C 37.839108 22.592108 37.534787 21.995713 37.28125 21.4375 C 38.598588 21.539578 40.005529 21.65526 41.5 21.78125 C 42.994376 21.907294 44.455516 22.13292 45.875 22.4375 C 46.533639 22.640081 46.899442 22.420192 47 21.8125 C 47.101998 21.558946 47.138985 21.316108 47.0625 21.0625 C 46.985909 20.808947 46.827502 20.643257 46.625 20.59375 L 42.0625 17.875 L 40.15625 16.8125 L 38.8125 15.59375 C 38.35632 15.188673 37.844357 14.774407 37.3125 14.34375 C 36.780556 13.913161 36.189899 13.523391 35.53125 13.21875 C 36.189899 12.711624 36.719847 12.072506 37.125 11.3125 C 37.530067 10.552569 37.749956 9.7117902 37.75 8.75 C 37.749956 7.2301033 37.183022 5.9331075 36.09375 4.84375 C 35.004394 3.7544801 33.651653 3.1875454 32.03125 3.1875 z "
           inkscape:radius="1.5"
           sodipodi:type="inkscape:offset" />
      </g>
      <g
         transform="translate(435.83032,-0.6785095)"
         id="layer1-9"
         inkscape:label="Layer 1">
        <text
           xml:space="preserve"
           style="font-size:76px;font-style:normal;font-variant:normal;font-weight:normal;font-stretch:normal;line-height:125%;letter-spacing:0px;word-spacing:0px;fill:#000000;fill-opacity:1;stroke:none;font-family:DiagramTTOldstyle;-inkscape-font-specification:DiagramTTOldstyle"
           x="-6.038269"
           y="48.643555"
           id="text3075"
           sodipodi:linespacing="125%"><tspan
             sodipodi:role="line"
             id="tspan3077"
             x="-6.038269"
             y="48.643555">p</tspan></text>
      </g>
    </g>
  </g>
</svg>
