<?xml version="1.0" encoding="UTF-8" standalone="no"?>
<!-- Created with Inkscape (http://www.inkscape.org/) -->

<svg
   xmlns:dc="http://purl.org/dc/elements/1.1/"
   xmlns:cc="http://creativecommons.org/ns#"
   xmlns:rdf="http://www.w3.org/1999/02/22-rdf-syntax-ns#"
   xmlns:svg="http://www.w3.org/2000/svg"
   xmlns="http://www.w3.org/2000/svg"
   xmlns:sodipodi="http://sodipodi.sourceforge.net/DTD/sodipodi-0.dtd"
   xmlns:inkscape="http://www.inkscape.org/namespaces/inkscape"
   width="64px"
   height="64px"
   id="svg4261"
   version="1.1"
   inkscape:version="0.48.2 r9819"
   sodipodi:docname="bb.svg">
  <defs
     id="defs4263" />
  <sodipodi:namedview
     id="base"
     pagecolor="#ffffff"
     bordercolor="#666666"
     borderopacity="1.0"
     inkscape:pageopacity="0.0"
     inkscape:pageshadow="2"
     inkscape:zoom="5.5"
     inkscape:cx="34.363636"
     inkscape:cy="32"
     inkscape:current-layer="layer1"
     showgrid="true"
     inkscape:document-units="px"
     inkscape:grid-bbox="true"
     inkscape:window-width="984"
     inkscape:window-height="614"
     inkscape:window-x="324"
     inkscape:window-y="105"
     inkscape:window-maximized="0" />
  <metadata
     id="metadata4266">
    <rdf:RDF>
      <cc:Work
         rdf:about="">
        <dc:format>image/svg+xml</dc:format>
        <dc:type
           rdf:resource="http://purl.org/dc/dcmitype/StillImage" />
        <dc:title></dc:title>
      </cc:Work>
    </rdf:RDF>
  </metadata>
  <g
     id="layer1"
     inkscape:label="Layer 1"
     inkscape:groupmode="layer">
    <g
       id="g4118"
       transform="matrix(0.88,0,0,0.88,-570.78625,6.5871461)">
      <g
         transform="translate(674.38032,-22.556341)"
         style="font-size:76px;font-style:normal;font-variant:normal;font-weight:normal;font-stretch:normal;line-height:125%;letter-spacing:0px;word-spacing:0px;fill:#4d4d4d;fill-opacity:1;stroke:none;font-family:DiagramTTOldstyle;-inkscape-font-specification:DiagramTTOldstyle"
         id="text3041-2-9">
        <path
           transform="translate(-20.41157,23.182554)"
           d="m 26.625,1.09375 a 1.50015,1.50015 0 0 0 -1.34375,1.5 l 0,4.625 c -1.123775,0.027257 -2.289228,0.034314 -3.25,0.125 -0.705854,0.066663 -1.245852,0.2726155 -1.875,0.40625 l 0,-3.65625 a 1.50015,1.50015 0 0 0 -1.40625,-1.5 l -1.0625,-0.0625 a 1.50015,1.50015 0 0 0 -0.09375,0 C 16.406838,2.5313022 15.135379,2.7444975 13.75,3.125 12.354041,3.5084916 11.057867,4.0710265 9.84375,4.78125 L 9.78125,4.8125 9.3125,5.0625 A 1.50015,1.50015 0 0 0 8.5,6.375 l 0,6.78125 a 1.50015,1.50015 0 0 0 0.0625,0.40625 l 0.0625,0.21875 a 1.50015,1.50015 0 0 0 0.09375,0.25 c 0.2713861,0.545665 0.619669,0.9716 1.03125,1.4375 0.395088,0.447339 0.856396,0.945813 1.40625,1.46875 0.563883,0.53639 1.159057,1.040418 1.78125,1.5 0.369326,0.27286 0.796393,0.43626 1.1875,0.65625 l 0,25.15625 c -0.757108,0.19838 -1.570003,0.326936 -2.15625,0.6875 -0.742892,0.456887 -1.466916,1.096309 -2.1875,1.84375 l -0.21875,0.125 a 1.50015,1.50015 0 0 0 -0.75,1.28125 l 0,2.5 C 8.3843348,50.830018 7.9352679,50.907335 7.53125,51.125 6.7809393,51.529203 6.1214732,51.993852 5.5,52.5 a 1.50015,1.50015 0 0 0 -0.125,0.09375 l -0.3125,0.3125 a 1.50015,1.50015 0 0 0 -0.4375,1.0625 l 0,6.90625 a 1.50015,1.50015 0 0 0 1.46875,1.5 l 25.375,0.53125 a 1.50015,1.50015 0 0 0 0.0625,0 l 26.375,-0.53125 a 1.50015,1.50015 0 0 0 1.46875,-1.5 l 0,-6.90625 a 1.50015,1.50015 0 0 0 -0.4375,-1.0625 l -0.3125,-0.3125 a 1.50015,1.50015 0 0 0 -0.0625,-0.0625 c -0.604981,-0.542208 -1.305444,-1.028155 -2.09375,-1.4375 -0.418701,-0.217385 -0.895059,-0.295109 -1.34375,-0.4375 l 0,-2.46875 A 1.50015,1.50015 0 0 0 54.5,46.96875 L 54.1875,46.75 C 53.471912,46.013249 52.732572,45.390304 51.96875,44.9375 51.37881,44.587839 50.571443,44.448263 49.8125,44.25 l 0,-25.15625 C 50.203961,18.876422 50.62391,18.704012 51,18.4375 c 0.657976,-0.466285 1.275196,-0.959248 1.84375,-1.5 0.55383,-0.526797 1.017337,-1.028092 1.40625,-1.5 0.340825,-0.41363 0.59814,-0.801836 0.8125,-1.1875 l 0.15625,-0.21875 A 1.50015,1.50015 0 0 0 55.5,13.15625 L 55.5,6.375 A 1.50015,1.50015 0 0 0 54.65625,5.03125 L 54.1875,4.8125 C 54.148999,4.7886639 54.101305,4.7734852 54.0625,4.75 52.893342,4.0424129 51.588854,3.5025401 50.1875,3.125 48.783447,2.7468586 47.552562,2.531303 46.40625,2.53125 a 1.50015,1.50015 0 0 0 -0.09375,0 l -1,0.0625 a 1.50015,1.50015 0 0 0 -1.40625,1.5 l 0,3.65625 c -0.666411,-0.1397161 -1.279299,-0.3368625 -2,-0.40625 -0.931447,-0.089615 -2.048346,-0.097283 -3.125,-0.125 l 0,-4.625 a 1.50015,1.50015 0 0 0 -1.5,-1.5 l -1,0 -9.5,0 a 1.50015,1.50015 0 0 0 -0.15625,0 z m 5.40625,11.125 c 1.22294,3.7e-5 2.660363,0.05623 4.3125,0.15625 1.627846,0.09863 3.283263,0.253604 4.9375,0.5 1.641995,0.244658 3.22841,0.605259 4.78125,1 0.618563,0.157281 1.022616,0.400893 1.5625,0.59375 -0.207452,0.136974 -0.405593,0.257818 -0.59375,0.34375 -2.544297,-0.686639 -5.016264,-1.259801 -7.34375,-1.6875 -2.567074,-0.47164 -5.128968,-0.718715 -7.65625,-0.71875 a 1.50015,1.50015 0 0 0 -0.03125,0 c -2.508443,0.05266 -5.038245,0.306736 -7.59375,0.75 -2.348693,0.407446 -4.821357,0.997007 -7.375,1.6875 -0.23331,-0.09327 -0.452297,-0.234002 -0.6875,-0.375 0.540486,-0.191096 0.93865,-0.437553 1.5625,-0.59375 1.579904,-0.395511 3.176438,-0.75526 4.84375,-1 1.681885,-0.246815 3.340622,-0.40136 4.96875,-0.5 1.652054,-0.10002 3.08948,-0.156213 4.3125,-0.15625 z"
           id="path4095-5"
           style="fill:#4d4d4d"
           inkscape:original="M 26.78125 2.59375 L 26.78125 8.65625 C 25.058726 8.6562899 23.530366 8.7169994 22.1875 8.84375 C 20.844578 8.9705799 19.669001 9.239704 18.65625 9.59375 L 18.65625 4.09375 L 17.59375 4.03125 C 16.580951 4.0312945 15.448099 4.207686 14.15625 4.5625 C 12.864361 4.917402 11.64606 5.4351017 10.53125 6.09375 L 10 6.375 L 10 13.15625 L 10.0625 13.375 C 10.214013 13.679641 10.494613 14.038161 10.875 14.46875 C 11.255354 14.899407 11.681094 15.362134 12.1875 15.84375 C 12.69387 16.325431 13.260804 16.788158 13.84375 17.21875 C 14.426656 17.649404 15.017313 17.99645 15.625 18.25 L 15.625 45.0625 L 15.625 45.3125 C 14.358623 45.515058 13.408672 45.813642 12.75 46.21875 C 12.091291 46.623863 11.397199 47.208009 10.6875 47.96875 L 10.3125 48.1875 L 10.3125 51.53125 L 10.3125 51.75 C 9.6043139 51.852047 8.9086765 52.082638 8.25 52.4375 C 7.591295 52.792354 6.9956739 53.201655 6.4375 53.65625 L 6.125 53.96875 L 6.125 60.875 L 31.5 61.40625 L 57.875 60.875 L 57.875 53.96875 L 57.5625 53.65625 C 57.055275 53.201655 56.464619 52.792354 55.78125 52.4375 C 55.097758 52.082638 54.385682 51.852047 53.625 51.75 L 53.625 51.53125 L 53.625 48.1875 L 53.3125 47.96875 C 52.602725 47.208009 51.902123 46.623863 51.21875 46.21875 C 50.535262 45.813642 49.580348 45.515058 48.3125 45.3125 L 48.3125 45.0625 L 48.3125 18.25 C 48.921657 17.99645 49.517279 17.649404 50.125 17.21875 C 50.732609 16.788158 51.306054 16.325431 51.8125 15.84375 C 52.31883 15.362134 52.738833 14.899407 53.09375 14.46875 C 53.448549 14.038161 53.692161 13.679641 53.84375 13.375 L 54 13.15625 L 54 6.375 L 53.40625 6.09375 C 52.34239 5.4351017 51.129826 4.917402 49.8125 4.5625 C 48.495063 4.207686 47.369494 4.0312945 46.40625 4.03125 L 45.40625 4.09375 L 45.40625 9.59375 C 44.291373 9.2397041 43.067334 8.9705799 41.75 8.84375 C 40.432571 8.7169995 38.952673 8.6562899 37.28125 8.65625 L 37.28125 2.59375 L 36.28125 2.59375 L 26.78125 2.59375 z M 32.03125 10.71875 C 33.297568 10.718788 34.765218 10.773763 36.4375 10.875 C 38.109697 10.976315 39.802973 11.15348 41.5 11.40625 C 43.196932 11.659094 44.840973 12.000403 46.4375 12.40625 C 48.033922 12.81217 49.429388 13.341344 50.59375 14 C 50.088079 14.505649 49.520371 14.981397 48.9375 15.4375 C 48.35452 15.893668 47.806587 16.203727 47.25 16.40625 C 44.513133 15.647087 41.888665 15.049919 39.40625 14.59375 C 36.923745 14.137648 34.46342 13.906284 32.03125 13.90625 C 29.599004 13.95731 27.138679 14.194411 24.65625 14.625 C 22.173759 15.055657 19.580541 15.647087 16.84375 16.40625 C 16.236062 16.203727 15.607645 15.893668 15 15.4375 C 14.392314 14.981397 13.850892 14.505649 13.34375 14 C 14.509582 13.341344 15.910012 12.81217 17.53125 12.40625 C 19.152441 12.000403 20.80873 11.659094 22.53125 11.40625 C 24.253713 11.15348 25.952727 10.976315 27.625 10.875 C 29.297206 10.77376 30.764856 10.718788 32.03125 10.71875 z M 30.96875 16.1875 L 33.03125 16.1875 C 35.209839 16.187532 37.383827 16.358187 39.5625 16.6875 C 41.741082 17.016878 43.969269 17.553335 46.25 18.3125 L 46.25 20.0625 C 45.843291 19.960476 45.442047 19.851306 45.0625 19.75 C 44.682852 19.648751 44.311311 19.569284 43.90625 19.46875 L 43.90625 23.09375 C 44.20926 23.19428 44.514354 23.292749 44.84375 23.34375 C 45.173044 23.3948 45.465118 23.46202 45.71875 23.5625 L 46.25 23.5625 L 46.25 25.6875 L 45.1875 25.53125 C 44.933869 25.430768 44.702505 25.375023 44.5 25.375 C 44.297395 25.375023 44.108756 25.36355 43.90625 25.3125 C 43.550569 25.210472 43.197786 25.149763 42.84375 25.125 C 42.489616 25.10028 42.148308 25.039575 41.84375 24.9375 C 41.387567 24.8865 40.973301 24.837268 40.59375 24.8125 C 40.214106 24.78778 39.812861 24.727075 39.40625 24.625 L 39.40625 29.1875 C 40.166946 29.339049 40.982456 29.406269 41.84375 29.40625 C 42.148308 29.4573 42.489616 29.511494 42.84375 29.5625 C 43.197786 29.61354 43.550569 29.65627 43.90625 29.65625 C 44.716421 29.70729 45.489206 29.841734 46.25 30.09375 L 46.25 32.15625 C 45.945342 32.055761 45.586822 31.994279 45.15625 31.96875 C 44.725576 31.94325 44.311311 31.883316 43.90625 31.78125 L 43.90625 36.5 C 44.311311 36.500012 44.682852 36.50575 45.0625 36.53125 C 45.442047 36.55677 45.843291 36.56251 46.25 36.5625 L 46.25 38.625 C 45.945342 38.62501 45.586822 38.58725 45.15625 38.5625 C 44.725576 38.53777 44.311311 38.53126 43.90625 38.53125 C 43.550569 38.48024 43.197786 38.46876 42.84375 38.46875 C 42.489616 38.46876 42.148308 38.46876 41.84375 38.46875 L 39.40625 38.46875 L 39.40625 42.875 C 40.825636 42.875005 42.171095 42.88648 43.4375 42.9375 C 44.703807 42.98853 45.640736 43.03125 46.25 43.03125 L 46.25 45.0625 L 44.4375 45.0625 C 43.778759 44.960453 42.974723 44.906253 42.0625 44.90625 L 39.40625 44.90625 C 39.001094 44.85523 38.646765 44.84376 38.34375 44.84375 L 37.28125 44.84375 L 32.03125 44.84375 L 26.71875 44.84375 L 25.65625 44.84375 C 25.302134 44.843753 24.959279 44.85523 24.65625 44.90625 L 21.84375 44.90625 C 20.982476 44.906253 20.221165 44.960454 19.5625 45.0625 L 17.6875 45.0625 L 17.6875 43.03125 C 18.295141 43.031255 19.245092 42.98853 20.5625 42.9375 C 21.879855 42.88648 23.236788 42.87501 24.65625 42.875 L 24.65625 38.46875 L 22.25 38.46875 C 21.844862 38.46876 21.449354 38.46876 21.09375 38.46875 C 20.739638 38.46876 20.398329 38.48023 20.09375 38.53125 C 19.688613 38.53126 19.280085 38.53777 18.875 38.5625 C 18.469864 38.58725 18.092586 38.62501 17.6875 38.625 L 17.6875 36.5625 C 18.092586 36.562512 18.469864 36.55678 18.875 36.53125 C 19.280085 36.50575 19.688613 36.50001 20.09375 36.5 L 20.09375 31.78125 C 19.639134 31.883318 19.224096 31.943254 18.84375 31.96875 C 18.463355 31.99428 18.092586 32.055764 17.6875 32.15625 L 17.6875 30.09375 C 18.092586 29.993264 18.469864 29.919534 18.875 29.84375 C 19.280085 29.768 19.688613 29.707295 20.09375 29.65625 C 20.398329 29.656269 20.738865 29.61355 21.09375 29.5625 C 21.448581 29.51149 21.844862 29.457295 22.25 29.40625 C 22.959688 29.406269 23.743949 29.339045 24.65625 29.1875 L 24.65625 24.625 C 24.249563 24.727074 23.842581 24.787784 23.4375 24.8125 C 23.03236 24.83726 22.655082 24.886502 22.25 24.9375 C 21.844862 25.039574 21.460055 25.100284 21.15625 25.125 C 20.85239 25.14976 20.50038 25.210472 20.09375 25.3125 C 19.942194 25.36355 19.765029 25.37502 19.5625 25.375 C 19.359919 25.375023 19.128555 25.430773 18.875 25.53125 L 17.6875 25.6875 L 17.6875 23.5625 L 18.28125 23.5625 C 18.534806 23.46202 18.821142 23.3948 19.125 23.34375 C 19.428808 23.29275 19.739639 23.19428 20.09375 23.09375 L 20.09375 19.46875 C 19.739639 19.569284 19.373835 19.648751 18.96875 19.75 C 18.563614 19.851306 18.143612 19.960478 17.6875 20.0625 L 17.6875 18.3125 C 22.298311 16.995149 26.713509 16.288037 30.96875 16.1875 z M 30.96875 17.9375 C 29.550827 17.988556 28.125902 18.109975 26.65625 18.3125 C 25.186533 18.515085 23.718883 18.746449 22.25 19 L 22.25 22.875 C 22.604057 22.825547 22.957612 22.7698 23.3125 22.71875 C 23.667328 22.66775 24.020885 22.61355 24.375 22.5625 L 24.65625 22.5625 C 24.908254 22.51305 25.238088 22.50003 25.59375 22.5 C 25.947804 22.500026 26.313607 22.445827 26.71875 22.34375 C 27.377408 22.29275 28.071499 22.281277 28.78125 22.28125 C 29.54041 22.281277 30.258997 22.281277 30.96875 22.28125 L 30.96875 17.9375 z M 33.03125 17.9375 L 33.03125 22.28125 C 33.791953 22.28128 34.504028 22.28701 35.1875 22.3125 C 35.870889 22.33804 36.57149 22.343777 37.28125 22.34375 C 37.686317 22.445827 38.081824 22.500026 38.4375 22.5 C 38.79154 22.500026 39.103145 22.51305 39.40625 22.5625 L 39.71875 22.5625 C 40.021764 22.613552 40.332596 22.66775 40.6875 22.71875 C 41.042312 22.769796 41.438592 22.82555 41.84375 22.875 L 41.84375 18.84375 C 38.90588 18.336619 35.97058 18.039581 33.03125 17.9375 z M 30.96875 24.15625 C 30.258997 24.258325 29.54041 24.312524 28.78125 24.3125 C 28.071499 24.312524 27.377408 24.35525 26.71875 24.40625 L 26.71875 29.125 C 27.479459 29.024515 28.227749 28.96877 28.9375 28.96875 C 29.645635 28.96877 30.310022 28.96877 30.96875 28.96875 L 32.03125 28.96875 L 33.03125 28.96875 C 33.689902 28.96877 34.383993 28.96877 35.09375 28.96875 C 35.801879 28.96877 36.520465 29.024513 37.28125 29.125 L 37.28125 24.40625 C 36.57149 24.35525 35.865152 24.301049 35.15625 24.25 C 34.447266 24.199 33.740927 24.15628 33.03125 24.15625 L 32.03125 24.15625 L 30.96875 24.15625 z M 28.9375 31 C 28.227749 31.000017 27.479459 31.055763 26.71875 31.15625 C 26.364633 31.2073 26.01185 31.250018 25.65625 31.25 C 25.302134 31.250018 24.959279 31.305763 24.65625 31.40625 C 24.200084 31.40627 23.786591 31.41201 23.40625 31.4375 C 23.02585 31.46303 22.655082 31.468768 22.25 31.46875 L 22.25 36.34375 L 24.65625 36.34375 L 26.71875 36.25 L 30.28125 36.25 L 30.96875 36.25 L 30.96875 31 C 30.310022 31.000017 29.645635 31.000017 28.9375 31 z M 33.03125 31 L 33.03125 36.25 L 33.625 36.25 L 37.28125 36.25 C 37.686317 36.250012 38.0391 36.250012 38.34375 36.25 C 38.646765 36.250012 39.001094 36.29428 39.40625 36.34375 L 41.84375 36.34375 L 41.84375 31.46875 C 41.438592 31.468768 41.030064 31.46303 40.625 31.4375 C 40.219843 31.41201 39.812861 31.40627 39.40625 31.40625 C 39.001094 31.305763 38.646765 31.250018 38.34375 31.25 C 38.0391 31.250018 37.686317 31.2073 37.28125 31.15625 C 36.520465 31.055763 35.801879 31.000017 35.09375 31 C 34.383993 31.000017 33.689902 31.000017 33.03125 31 z M 26.71875 38.3125 L 26.71875 42.78125 L 32.03125 42.78125 L 37.28125 42.78125 L 37.28125 38.3125 L 33.625 38.3125 L 33.03125 38.3125 L 30.96875 38.3125 L 30.28125 38.3125 L 26.71875 38.3125 z M 13.46875 51.40625 C 13.879326 51.44239 50.28125 51.4375 50.28125 51.4375 L 50.375 53.71875 L 32.0625 54.3125 L 13.46875 53.71875 L 13.46875 51.40625 z "
           inkscape:radius="1.5"
           sodipodi:type="inkscape:offset" />
      </g>
      <g
         transform="translate(672.41157,-24.573416)"
         style="font-size:76px;font-style:normal;font-variant:normal;font-weight:normal;font-stretch:normal;line-height:125%;letter-spacing:0px;word-spacing:0px;fill:#ffffff;fill-opacity:1;stroke:none;font-family:DiagramTTOldstyle;-inkscape-font-specification:DiagramTTOldstyle"
         id="text3041-2">
        <path
           transform="translate(-20.41157,23.182554)"
           d="m 26.625,1.09375 a 1.50015,1.50015 0 0 0 -1.34375,1.5 l 0,4.625 c -1.123775,0.027257 -2.289228,0.034314 -3.25,0.125 -0.705854,0.066663 -1.245852,0.2726155 -1.875,0.40625 l 0,-3.65625 a 1.50015,1.50015 0 0 0 -1.40625,-1.5 l -1.0625,-0.0625 a 1.50015,1.50015 0 0 0 -0.09375,0 C 16.406838,2.5313022 15.135379,2.7444975 13.75,3.125 12.354041,3.5084916 11.057867,4.0710265 9.84375,4.78125 L 9.78125,4.8125 9.3125,5.0625 A 1.50015,1.50015 0 0 0 8.5,6.375 l 0,6.78125 a 1.50015,1.50015 0 0 0 0.0625,0.40625 l 0.0625,0.21875 a 1.50015,1.50015 0 0 0 0.09375,0.25 c 0.2713861,0.545665 0.619669,0.9716 1.03125,1.4375 0.395088,0.447339 0.856396,0.945813 1.40625,1.46875 0.563883,0.53639 1.159057,1.040418 1.78125,1.5 0.369326,0.27286 0.796393,0.43626 1.1875,0.65625 l 0,25.15625 c -0.757108,0.19838 -1.570003,0.326936 -2.15625,0.6875 -0.742892,0.456887 -1.466916,1.096309 -2.1875,1.84375 l -0.21875,0.125 a 1.50015,1.50015 0 0 0 -0.75,1.28125 l 0,2.5 C 8.3843348,50.830018 7.9352679,50.907335 7.53125,51.125 6.7809393,51.529203 6.1214732,51.993852 5.5,52.5 a 1.50015,1.50015 0 0 0 -0.125,0.09375 l -0.3125,0.3125 a 1.50015,1.50015 0 0 0 -0.4375,1.0625 l 0,6.90625 a 1.50015,1.50015 0 0 0 1.46875,1.5 l 25.375,0.53125 a 1.50015,1.50015 0 0 0 0.0625,0 l 26.375,-0.53125 a 1.50015,1.50015 0 0 0 1.46875,-1.5 l 0,-6.90625 a 1.50015,1.50015 0 0 0 -0.4375,-1.0625 l -0.3125,-0.3125 a 1.50015,1.50015 0 0 0 -0.0625,-0.0625 c -0.604981,-0.542208 -1.305444,-1.028155 -2.09375,-1.4375 -0.418701,-0.217385 -0.895059,-0.295109 -1.34375,-0.4375 l 0,-2.46875 A 1.50015,1.50015 0 0 0 54.5,46.96875 L 54.1875,46.75 C 53.471912,46.013249 52.732572,45.390304 51.96875,44.9375 51.37881,44.587839 50.571443,44.448263 49.8125,44.25 l 0,-25.15625 C 50.203961,18.876422 50.62391,18.704012 51,18.4375 c 0.657976,-0.466285 1.275196,-0.959248 1.84375,-1.5 0.55383,-0.526797 1.017337,-1.028092 1.40625,-1.5 0.340825,-0.41363 0.59814,-0.801836 0.8125,-1.1875 l 0.15625,-0.21875 A 1.50015,1.50015 0 0 0 55.5,13.15625 L 55.5,6.375 A 1.50015,1.50015 0 0 0 54.65625,5.03125 L 54.1875,4.8125 C 54.148999,4.7886639 54.101305,4.7734852 54.0625,4.75 52.893342,4.0424129 51.588854,3.5025401 50.1875,3.125 48.783447,2.7468586 47.552562,2.531303 46.40625,2.53125 a 1.50015,1.50015 0 0 0 -0.09375,0 l -1,0.0625 a 1.50015,1.50015 0 0 0 -1.40625,1.5 l 0,3.65625 c -0.666411,-0.1397161 -1.279299,-0.3368625 -2,-0.40625 -0.931447,-0.089615 -2.048346,-0.097283 -3.125,-0.125 l 0,-4.625 a 1.50015,1.50015 0 0 0 -1.5,-1.5 l -1,0 -9.5,0 a 1.50015,1.50015 0 0 0 -0.15625,0 z m 5.40625,11.125 c 1.22294,3.7e-5 2.660363,0.05623 4.3125,0.15625 1.627846,0.09863 3.283263,0.253604 4.9375,0.5 1.641995,0.244658 3.22841,0.605259 4.78125,1 0.618563,0.157281 1.022616,0.400893 1.5625,0.59375 -0.207452,0.136974 -0.405593,0.257818 -0.59375,0.34375 -2.544297,-0.686639 -5.016264,-1.259801 -7.34375,-1.6875 -2.567074,-0.47164 -5.128968,-0.718715 -7.65625,-0.71875 a 1.50015,1.50015 0 0 0 -0.03125,0 c -2.508443,0.05266 -5.038245,0.306736 -7.59375,0.75 -2.348693,0.407446 -4.821357,0.997007 -7.375,1.6875 -0.23331,-0.09327 -0.452297,-0.234002 -0.6875,-0.375 0.540486,-0.191096 0.93865,-0.437553 1.5625,-0.59375 1.579904,-0.395511 3.176438,-0.75526 4.84375,-1 1.681885,-0.246815 3.340622,-0.40136 4.96875,-0.5 1.652054,-0.10002 3.08948,-0.156213 4.3125,-0.15625 z"
           id="path4095"
           style="fill:#ffffff"
           inkscape:original="M 26.78125 2.59375 L 26.78125 8.65625 C 25.058726 8.6562899 23.530366 8.7169994 22.1875 8.84375 C 20.844578 8.9705799 19.669001 9.239704 18.65625 9.59375 L 18.65625 4.09375 L 17.59375 4.03125 C 16.580951 4.0312945 15.448099 4.207686 14.15625 4.5625 C 12.864361 4.917402 11.64606 5.4351017 10.53125 6.09375 L 10 6.375 L 10 13.15625 L 10.0625 13.375 C 10.214013 13.679641 10.494613 14.038161 10.875 14.46875 C 11.255354 14.899407 11.681094 15.362134 12.1875 15.84375 C 12.69387 16.325431 13.260804 16.788158 13.84375 17.21875 C 14.426656 17.649404 15.017313 17.99645 15.625 18.25 L 15.625 45.0625 L 15.625 45.3125 C 14.358623 45.515058 13.408672 45.813642 12.75 46.21875 C 12.091291 46.623863 11.397199 47.208009 10.6875 47.96875 L 10.3125 48.1875 L 10.3125 51.53125 L 10.3125 51.75 C 9.6043139 51.852047 8.9086765 52.082638 8.25 52.4375 C 7.591295 52.792354 6.9956739 53.201655 6.4375 53.65625 L 6.125 53.96875 L 6.125 60.875 L 31.5 61.40625 L 57.875 60.875 L 57.875 53.96875 L 57.5625 53.65625 C 57.055275 53.201655 56.464619 52.792354 55.78125 52.4375 C 55.097758 52.082638 54.385682 51.852047 53.625 51.75 L 53.625 51.53125 L 53.625 48.1875 L 53.3125 47.96875 C 52.602725 47.208009 51.902123 46.623863 51.21875 46.21875 C 50.535262 45.813642 49.580348 45.515058 48.3125 45.3125 L 48.3125 45.0625 L 48.3125 18.25 C 48.921657 17.99645 49.517279 17.649404 50.125 17.21875 C 50.732609 16.788158 51.306054 16.325431 51.8125 15.84375 C 52.31883 15.362134 52.738833 14.899407 53.09375 14.46875 C 53.448549 14.038161 53.692161 13.679641 53.84375 13.375 L 54 13.15625 L 54 6.375 L 53.40625 6.09375 C 52.34239 5.4351017 51.129826 4.917402 49.8125 4.5625 C 48.495063 4.207686 47.369494 4.0312945 46.40625 4.03125 L 45.40625 4.09375 L 45.40625 9.59375 C 44.291373 9.2397041 43.067334 8.9705799 41.75 8.84375 C 40.432571 8.7169995 38.952673 8.6562899 37.28125 8.65625 L 37.28125 2.59375 L 36.28125 2.59375 L 26.78125 2.59375 z M 32.03125 10.71875 C 33.297568 10.718788 34.765218 10.773763 36.4375 10.875 C 38.109697 10.976315 39.802973 11.15348 41.5 11.40625 C 43.196932 11.659094 44.840973 12.000403 46.4375 12.40625 C 48.033922 12.81217 49.429388 13.341344 50.59375 14 C 50.088079 14.505649 49.520371 14.981397 48.9375 15.4375 C 48.35452 15.893668 47.806587 16.203727 47.25 16.40625 C 44.513133 15.647087 41.888665 15.049919 39.40625 14.59375 C 36.923745 14.137648 34.46342 13.906284 32.03125 13.90625 C 29.599004 13.95731 27.138679 14.194411 24.65625 14.625 C 22.173759 15.055657 19.580541 15.647087 16.84375 16.40625 C 16.236062 16.203727 15.607645 15.893668 15 15.4375 C 14.392314 14.981397 13.850892 14.505649 13.34375 14 C 14.509582 13.341344 15.910012 12.81217 17.53125 12.40625 C 19.152441 12.000403 20.80873 11.659094 22.53125 11.40625 C 24.253713 11.15348 25.952727 10.976315 27.625 10.875 C 29.297206 10.77376 30.764856 10.718788 32.03125 10.71875 z M 30.96875 16.1875 L 33.03125 16.1875 C 35.209839 16.187532 37.383827 16.358187 39.5625 16.6875 C 41.741082 17.016878 43.969269 17.553335 46.25 18.3125 L 46.25 20.0625 C 45.843291 19.960476 45.442047 19.851306 45.0625 19.75 C 44.682852 19.648751 44.311311 19.569284 43.90625 19.46875 L 43.90625 23.09375 C 44.20926 23.19428 44.514354 23.292749 44.84375 23.34375 C 45.173044 23.3948 45.465118 23.46202 45.71875 23.5625 L 46.25 23.5625 L 46.25 25.6875 L 45.1875 25.53125 C 44.933869 25.430768 44.702505 25.375023 44.5 25.375 C 44.297395 25.375023 44.108756 25.36355 43.90625 25.3125 C 43.550569 25.210472 43.197786 25.149763 42.84375 25.125 C 42.489616 25.10028 42.148308 25.039575 41.84375 24.9375 C 41.387567 24.8865 40.973301 24.837268 40.59375 24.8125 C 40.214106 24.78778 39.812861 24.727075 39.40625 24.625 L 39.40625 29.1875 C 40.166946 29.339049 40.982456 29.406269 41.84375 29.40625 C 42.148308 29.4573 42.489616 29.511494 42.84375 29.5625 C 43.197786 29.61354 43.550569 29.65627 43.90625 29.65625 C 44.716421 29.70729 45.489206 29.841734 46.25 30.09375 L 46.25 32.15625 C 45.945342 32.055761 45.586822 31.994279 45.15625 31.96875 C 44.725576 31.94325 44.311311 31.883316 43.90625 31.78125 L 43.90625 36.5 C 44.311311 36.500012 44.682852 36.50575 45.0625 36.53125 C 45.442047 36.55677 45.843291 36.56251 46.25 36.5625 L 46.25 38.625 C 45.945342 38.62501 45.586822 38.58725 45.15625 38.5625 C 44.725576 38.53777 44.311311 38.53126 43.90625 38.53125 C 43.550569 38.48024 43.197786 38.46876 42.84375 38.46875 C 42.489616 38.46876 42.148308 38.46876 41.84375 38.46875 L 39.40625 38.46875 L 39.40625 42.875 C 40.825636 42.875005 42.171095 42.88648 43.4375 42.9375 C 44.703807 42.98853 45.640736 43.03125 46.25 43.03125 L 46.25 45.0625 L 44.4375 45.0625 C 43.778759 44.960453 42.974723 44.906253 42.0625 44.90625 L 39.40625 44.90625 C 39.001094 44.85523 38.646765 44.84376 38.34375 44.84375 L 37.28125 44.84375 L 32.03125 44.84375 L 26.71875 44.84375 L 25.65625 44.84375 C 25.302134 44.843753 24.959279 44.85523 24.65625 44.90625 L 21.84375 44.90625 C 20.982476 44.906253 20.221165 44.960454 19.5625 45.0625 L 17.6875 45.0625 L 17.6875 43.03125 C 18.295141 43.031255 19.245092 42.98853 20.5625 42.9375 C 21.879855 42.88648 23.236788 42.87501 24.65625 42.875 L 24.65625 38.46875 L 22.25 38.46875 C 21.844862 38.46876 21.449354 38.46876 21.09375 38.46875 C 20.739638 38.46876 20.398329 38.48023 20.09375 38.53125 C 19.688613 38.53126 19.280085 38.53777 18.875 38.5625 C 18.469864 38.58725 18.092586 38.62501 17.6875 38.625 L 17.6875 36.5625 C 18.092586 36.562512 18.469864 36.55678 18.875 36.53125 C 19.280085 36.50575 19.688613 36.50001 20.09375 36.5 L 20.09375 31.78125 C 19.639134 31.883318 19.224096 31.943254 18.84375 31.96875 C 18.463355 31.99428 18.092586 32.055764 17.6875 32.15625 L 17.6875 30.09375 C 18.092586 29.993264 18.469864 29.919534 18.875 29.84375 C 19.280085 29.768 19.688613 29.707295 20.09375 29.65625 C 20.398329 29.656269 20.738865 29.61355 21.09375 29.5625 C 21.448581 29.51149 21.844862 29.457295 22.25 29.40625 C 22.959688 29.406269 23.743949 29.339045 24.65625 29.1875 L 24.65625 24.625 C 24.249563 24.727074 23.842581 24.787784 23.4375 24.8125 C 23.03236 24.83726 22.655082 24.886502 22.25 24.9375 C 21.844862 25.039574 21.460055 25.100284 21.15625 25.125 C 20.85239 25.14976 20.50038 25.210472 20.09375 25.3125 C 19.942194 25.36355 19.765029 25.37502 19.5625 25.375 C 19.359919 25.375023 19.128555 25.430773 18.875 25.53125 L 17.6875 25.6875 L 17.6875 23.5625 L 18.28125 23.5625 C 18.534806 23.46202 18.821142 23.3948 19.125 23.34375 C 19.428808 23.29275 19.739639 23.19428 20.09375 23.09375 L 20.09375 19.46875 C 19.739639 19.569284 19.373835 19.648751 18.96875 19.75 C 18.563614 19.851306 18.143612 19.960478 17.6875 20.0625 L 17.6875 18.3125 C 22.298311 16.995149 26.713509 16.288037 30.96875 16.1875 z M 30.96875 17.9375 C 29.550827 17.988556 28.125902 18.109975 26.65625 18.3125 C 25.186533 18.515085 23.718883 18.746449 22.25 19 L 22.25 22.875 C 22.604057 22.825547 22.957612 22.7698 23.3125 22.71875 C 23.667328 22.66775 24.020885 22.61355 24.375 22.5625 L 24.65625 22.5625 C 24.908254 22.51305 25.238088 22.50003 25.59375 22.5 C 25.947804 22.500026 26.313607 22.445827 26.71875 22.34375 C 27.377408 22.29275 28.071499 22.281277 28.78125 22.28125 C 29.54041 22.281277 30.258997 22.281277 30.96875 22.28125 L 30.96875 17.9375 z M 33.03125 17.9375 L 33.03125 22.28125 C 33.791953 22.28128 34.504028 22.28701 35.1875 22.3125 C 35.870889 22.33804 36.57149 22.343777 37.28125 22.34375 C 37.686317 22.445827 38.081824 22.500026 38.4375 22.5 C 38.79154 22.500026 39.103145 22.51305 39.40625 22.5625 L 39.71875 22.5625 C 40.021764 22.613552 40.332596 22.66775 40.6875 22.71875 C 41.042312 22.769796 41.438592 22.82555 41.84375 22.875 L 41.84375 18.84375 C 38.90588 18.336619 35.97058 18.039581 33.03125 17.9375 z M 30.96875 24.15625 C 30.258997 24.258325 29.54041 24.312524 28.78125 24.3125 C 28.071499 24.312524 27.377408 24.35525 26.71875 24.40625 L 26.71875 29.125 C 27.479459 29.024515 28.227749 28.96877 28.9375 28.96875 C 29.645635 28.96877 30.310022 28.96877 30.96875 28.96875 L 32.03125 28.96875 L 33.03125 28.96875 C 33.689902 28.96877 34.383993 28.96877 35.09375 28.96875 C 35.801879 28.96877 36.520465 29.024513 37.28125 29.125 L 37.28125 24.40625 C 36.57149 24.35525 35.865152 24.301049 35.15625 24.25 C 34.447266 24.199 33.740927 24.15628 33.03125 24.15625 L 32.03125 24.15625 L 30.96875 24.15625 z M 28.9375 31 C 28.227749 31.000017 27.479459 31.055763 26.71875 31.15625 C 26.364633 31.2073 26.01185 31.250018 25.65625 31.25 C 25.302134 31.250018 24.959279 31.305763 24.65625 31.40625 C 24.200084 31.40627 23.786591 31.41201 23.40625 31.4375 C 23.02585 31.46303 22.655082 31.468768 22.25 31.46875 L 22.25 36.34375 L 24.65625 36.34375 L 26.71875 36.25 L 30.28125 36.25 L 30.96875 36.25 L 30.96875 31 C 30.310022 31.000017 29.645635 31.000017 28.9375 31 z M 33.03125 31 L 33.03125 36.25 L 33.625 36.25 L 37.28125 36.25 C 37.686317 36.250012 38.0391 36.250012 38.34375 36.25 C 38.646765 36.250012 39.001094 36.29428 39.40625 36.34375 L 41.84375 36.34375 L 41.84375 31.46875 C 41.438592 31.468768 41.030064 31.46303 40.625 31.4375 C 40.219843 31.41201 39.812861 31.40627 39.40625 31.40625 C 39.001094 31.305763 38.646765 31.250018 38.34375 31.25 C 38.0391 31.250018 37.686317 31.2073 37.28125 31.15625 C 36.520465 31.055763 35.801879 31.000017 35.09375 31 C 34.383993 31.000017 33.689902 31.000017 33.03125 31 z M 26.71875 38.3125 L 26.71875 42.78125 L 32.03125 42.78125 L 37.28125 42.78125 L 37.28125 38.3125 L 33.625 38.3125 L 33.03125 38.3125 L 30.96875 38.3125 L 30.28125 38.3125 L 26.71875 38.3125 z M 13.46875 51.40625 C 13.879326 51.44239 50.28125 51.4375 50.28125 51.4375 L 50.375 53.71875 L 32.0625 54.3125 L 13.46875 53.71875 L 13.46875 51.40625 z "
           inkscape:radius="1.5"
           sodipodi:type="inkscape:offset" />
      </g>
      <path
         transform="translate(0,-8)"
         inkscape:connector-curvature="0"
         id="path67477"
         d="m 665.0153,57.725082 c -0.3957,0.539105 -0.0684,1.27167 -0.11274,1.898956 0.0429,0.463067 -0.0615,1.248966 0.59297,1.291914 6.06929,0.227446 12.1398,0.452999 18.21144,0.594954 6.21101,-0.164751 12.423,-0.328059 18.63031,-0.600289 0.74274,-0.191753 0.40516,-1.09889 0.45622,-1.664802 -0.0999,-0.557341 0.13524,-1.476368 -0.59229,-1.622115 -12.29392,0 -24.58784,0 -36.88176,0 -0.10139,0.03379 -0.20277,0.06759 -0.30415,0.101382 z"
         style="fill:#ffffff;fill-opacity:1;fill-rule:nonzero;stroke:none" />
      <path
         transform="translate(0,-8)"
         inkscape:connector-curvature="0"
         id="path67479"
         d="m 683.89906,22.380059 c -4.89972,0.06007 -9.81106,0.774277 -14.49065,2.204042 -0.52156,0.365063 -0.22101,1.130272 -0.2898,1.683163 -0.0471,0.449927 0.11275,1.131944 0.70701,1.00315 0.55924,-0.130544 1.11632,-0.270299 1.6728,-0.413532 -0.009,0.85376 -0.0205,1.707499 -0.032,2.561233 -0.71101,0.213805 -1.45607,0.305632 -2.16638,0.480231 -0.38379,0.56776 -0.10039,1.326097 -0.18676,1.976953 -0.10121,0.488139 0.0953,1.225138 0.73223,1.034233 2.09342,-0.321217 4.15374,-0.748665 6.26848,-0.951527 0,1.163227 0,2.326454 0,3.489681 -2.22302,0.264046 -4.51323,0.296283 -6.67931,0.902585 -0.56944,0.335431 -0.23444,1.133444 -0.31926,1.685314 0.0251,0.474145 -0.10212,1.285413 0.56614,1.344662 0.58827,-0.116839 1.19883,-0.175079 1.7982,-0.272131 0.0377,1.191249 0.0192,2.383401 0.024,3.575055 -0.74003,0.04858 -1.52879,-0.03252 -2.22507,0.237448 -0.35102,0.612365 -0.0807,1.384859 -0.16542,2.064994 -0.14421,0.586079 0.39087,0.978599 0.93373,0.822901 2.02233,-0.03235 4.04465,-0.06475 6.06698,-0.09722 0,1.124986 0,2.249973 0,3.374959 -2.19665,0.0189 -4.40508,0.03389 -6.59295,0.140542 -0.67677,0.214615 -0.31879,1.088453 -0.40776,1.620306 0.042,0.50719 -0.21012,1.399914 0.51759,1.478045 9.51591,-0.366986 19.04716,-0.366186 28.56309,0 0.78496,-0.113943 0.44736,-1.065015 0.51758,-1.614111 -0.0476,-0.516749 0.15285,-1.387718 -0.56294,-1.488717 -2.08774,-0.09097 -4.17802,-0.103415 -6.26702,-0.152073 0,-1.11965 0,-2.239301 0,-3.358951 2.13345,0.01695 4.27758,0.106872 6.40446,0.07834 0.68497,-0.1808 0.34454,-1.051547 0.4255,-1.569726 -0.0253,-0.502982 0.18334,-1.384745 -0.54398,-1.4343 -0.61427,-0.05228 -1.22963,-0.102121 -1.84651,-0.10244 0.005,-1.196991 -0.0109,-2.394241 0.0107,-3.591063 0.63116,0.06465 1.28913,0.236135 1.89253,0.255805 0.67391,-0.166111 0.42071,-1.05692 0.48728,-1.581777 -0.0503,-0.51097 0.17514,-1.335388 -0.50424,-1.488717 -2.06298,-0.549817 -4.21977,-0.57637 -6.32572,-0.816393 0,-1.164117 0,-2.328233 0,-3.492349 2.10636,0.186366 4.17902,0.6268 6.26169,0.963131 0.80048,-0.03065 0.5242,-0.988813 0.56827,-1.520733 -0.0401,-0.536246 0.18321,-1.433549 -0.53092,-1.608775 -0.61793,-0.06647 -1.21711,-0.251537 -1.82221,-0.389521 -0.0119,-0.860827 -0.0237,-1.721662 -0.0267,-2.582577 0.6872,0.117009 1.35409,0.48367 2.05699,0.416201 0.54367,-0.375168 0.2367,-1.130856 0.32282,-1.683478 0.0909,-0.503732 -0.0822,-1.080319 -0.67207,-1.120606 -4.55304,-1.494657 -9.35531,-2.120885 -14.1404,-2.06226 z m 1.92893,2.828028 c 2.49222,0.168946 4.97664,0.408286 7.44625,0.792382 -0.0126,0.991298 0.0249,2.040501 -0.0187,2.99611 -2.56817,-0.398658 -5.17405,-0.460106 -7.76908,-0.536258 -0.0103,-1.090254 -0.008,-2.180609 -0.008,-3.270909 0.1165,0.0062 0.233,0.01245 0.3495,0.01867 z m -3.3963,1.584764 c 0,0.546041 0,1.092081 0,1.638122 -2.57693,0.03067 -5.16097,0.187199 -7.71038,0.557602 0,-0.945344 0,-1.890688 0,-2.836033 2.56211,-0.389587 5.12138,-0.801074 7.71038,-0.957794 0,0.532701 0,1.065402 0,1.598103 z m 1.4567,4.615556 c 1.59184,0.0097 3.19337,0.05358 4.77563,0.178753 0,1.207692 0,2.415386 0,3.623078 -3.16709,0.0052 -6.33891,-0.09676 -9.50324,0.04002 0,-1.208583 0,-2.417165 0,-3.625747 1.57605,-0.06416 3.1508,-0.175242 4.72761,-0.216104 z m -1.4567,8.900287 c 0,0.706117 0,1.412236 0,2.118353 -2.57049,-0.007 -5.14048,0.05457 -7.71038,0.101383 0.002,-1.279713 -0.005,-2.559573 0.0107,-3.839183 2.56909,-0.125434 5.12504,-0.455732 7.69971,-0.480231 0,0.699893 0,1.399785 0,2.099678 z m 4.25805,-2.059659 c 2.19975,0.06068 4.37444,0.360381 6.57383,0.44288 0.0162,1.270712 0.009,2.541685 0.0107,3.812503 -2.59851,-0.03121 -5.19713,-0.05419 -7.79575,-0.0747 0,-1.4069 0,-2.813799 0,-4.220699 0.40375,0.01334 0.8075,0.02668 1.21125,0.04002 z m -2.77734,7.310188 c 1.58388,0 3.16775,0 4.75162,0 0,1.147219 0,2.294438 0,3.441657 -3.16774,0 -6.33549,0 -9.50324,0 0,-1.147219 0,-2.294438 0,-3.441657 1.58387,0 3.16775,0 4.75162,0 z"
         style="fill:#ffffff;fill-opacity:1;fill-rule:nonzero;stroke:none" />
      <path
         transform="translate(0,-8)"
         inkscape:connector-curvature="0"
         id="path67481"
         d="m 683.40549,16.926766 c -5.27532,0.111075 -10.60095,0.60251 -15.65821,2.150369 -0.96908,0.345064 -1.95817,0.716313 -2.82618,1.257079 -0.44533,0.504921 0.27231,0.987605 0.61979,1.32283 0.92217,0.732959 1.8533,1.566771 2.99877,1.912921 1.15902,0.0054 2.26001,-0.483698 3.38861,-0.702796 5.49371,-1.321117 11.22407,-2.17945 16.87923,-1.405622 3.45926,0.434827 6.85188,1.296486 10.23486,2.159109 1.27063,-0.195535 2.25337,-1.170519 3.20954,-1.963612 0.35858,-0.311978 1.0114,-0.787626 0.57628,-1.301961 -1.16258,-0.821761 -2.57652,-1.206371 -3.92078,-1.620561 -5.03718,-1.353193 -10.29619,-1.82322 -15.50191,-1.807756 z"
         style="fill:#ffffff;fill-opacity:1;fill-rule:nonzero;stroke:none" />
      <g
         transform="translate(651.94311,-1.2873352)"
         style="font-size:76px;font-style:normal;font-variant:normal;font-weight:normal;font-stretch:normal;line-height:125%;letter-spacing:0px;word-spacing:0px;fill:#000000;fill-opacity:1;stroke:none;font-family:DiagramTTOldstyle;-inkscape-font-specification:DiagramTTOldstyle"
         id="text3041">
        <path
           d="m 6.1220093,53.965271 0,6.91394 25.3851317,0.533448 26.37085,-0.533448 0,-6.91394 -0.303833,-0.306152 C 57.066933,53.204524 56.471638,52.7998 55.788269,52.444946 55.104777,52.090084 54.382691,51.86163 53.622009,51.759583 l 0,-0.227295 0,-3.344483 -0.303833,-0.227295 C 52.608401,47.199769 51.911828,46.616844 51.228455,46.211731 50.544967,45.806623 49.569301,45.50279 48.301453,45.300232 l 0,-0.227295 0,-26.827759 c 0.609157,-0.25355 1.217596,-0.595652 1.825317,-1.026306 0.607609,-0.430592 1.164636,-0.886727 1.671082,-1.368408 0.50633,-0.481616 0.936953,-0.937751 1.29187,-1.368408 0.354799,-0.430589 0.607993,-0.798204 0.759582,-1.102845 l 0.153076,-0.227294 0,-6.7631841 -0.607666,-0.303833 C 52.330854,5.4262516 51.140263,4.9194772 49.822937,4.5645752 48.5055,4.2097612 47.365161,4.0323321 46.401917,4.0322876 l -0.988038,0.076538 0,5.4713135 C 44.299002,9.2260932 43.082898,8.9856556 41.765564,8.8588257 40.448135,8.7320752 38.953711,8.66868 37.282288,8.6686401 l 0,-6.0812988 -0.988038,0 -9.5,0 0,6.0812988 c -1.722524,3.99e-5 -3.255217,0.063435 -4.598083,0.1901856 -1.342922,0.1268299 -2.520757,0.3672675 -3.533508,0.7213135 l 0,-5.4713135 -1.064576,-0.076538 c -1.012799,4.45e-5 -2.165121,0.1774736 -3.45697,0.5322876 -1.291889,0.354902 -2.495236,0.8616764 -3.610046,1.5203247 l -0.5334474,0.303833 0,6.763184 0.076538,0.227294 c 0.151513,0.304641 0.417464,0.672256 0.797851,1.102845 0.380354,0.430657 0.823733,0.886792 1.330139,1.368408 0.50637,0.481681 1.051027,0.937816 1.633973,1.368408 0.582906,0.430654 1.178201,0.772756 1.785888,1.026306 l 0,26.827759 0,0.227295 c -1.266377,0.202558 -2.228901,0.506391 -2.887573,0.911499 -0.658709,0.405113 -1.342913,0.988038 -2.052612,1.748779 l -0.380371,0.227295 0,3.344483 0,0.227295 C 9.5932665,51.86163 8.9098362,52.090084 8.2511597,52.444946 7.5924547,52.7998 6.9840162,53.204524 6.4258423,53.659119 z M 32.038269,13.912659 c -2.432246,0.05106 -4.88958,0.291884 -7.372009,0.722473 -2.482491,0.430657 -5.092128,1.025566 -7.828919,1.784729 -0.607688,-0.202523 -1.215353,-0.531869 -1.822998,-0.988037 -0.607686,-0.456103 -1.165099,-0.936978 -1.672241,-1.442627 1.165832,-0.658656 2.559365,-1.190943 4.180603,-1.596863 1.621191,-0.405847 3.293044,-0.735193 5.015564,-0.988037 1.722463,-0.25277 3.419829,-0.429813 5.092102,-0.531128 1.672206,-0.10124 3.141504,-0.151879 4.407898,-0.151917 1.266318,3.8e-5 2.735616,0.05068 4.407898,0.151917 1.672197,0.101315 3.356806,0.278358 5.053833,0.531128 1.696932,0.252844 3.343659,0.58219 4.940186,0.988037 1.596422,0.40592 2.976812,0.938207 4.141174,1.596863 -0.505671,0.505649 -1.049942,0.986524 -1.632813,1.442627 -0.58298,0.456168 -1.152763,0.785514 -1.70935,0.988037 -2.736867,-0.759163 -5.346504,-1.366829 -7.828919,-1.822998 -2.482505,-0.456102 -4.939839,-0.68417 -7.372009,-0.684204 z m -7.37085,8.662719 c 0.252004,-0.04945 0.555837,-0.07419 0.911499,-0.07422 0.354054,2.6e-5 0.733651,-0.051 1.138794,-0.153077 z m 12.614869,-0.227295 c 0.405067,0.102077 0.785437,0.153103 1.141113,0.153077 0.35404,2.6e-5 0.682613,0.02477 0.985718,0.07422 z M 24.667419,36.33136 c 0.303029,-0.04947 0.631602,-0.07421 0.985718,-0.07422 0.3556,1.2e-5 0.710458,1.2e-5 1.064575,0 z m 6.306275,1.976074 1.064575,0 0.988037,0 z M 20.105286,25.312195 c -0.151556,0.05105 -0.328599,0.07656 -0.531128,0.07654 -0.202581,2.3e-5 -0.430649,0.05028 -0.684204,0.150757 l -1.215332,0.153076 0,-2.12915 0.607666,0 c 0.253556,-0.10048 0.532262,-0.176245 0.83612,-0.227295 0.303808,-0.051 0.632767,-0.126765 0.986878,-0.227295 l 0,-3.648316 c -0.354111,0.100534 -0.733709,0.201425 -1.138794,0.302674 -0.405136,0.101306 -0.835758,0.20297 -1.29187,0.304992 l 0,-1.748779 c 4.610811,-1.317351 9.043831,-2.026294 13.299072,-2.126831 l 2.052612,0 c 2.178589,3.2e-5 4.357216,0.164705 6.535889,0.494018 2.178582,0.329378 4.408234,0.873648 6.688965,1.632813 l 0,1.748779 C 45.844451,19.966154 45.451324,19.86449 45.071777,19.763184 44.692129,19.661935 44.299775,19.561044 43.894714,19.46051 l 0,3.648316 c 0.30301,0.10053 0.619213,0.176294 0.948609,0.227295 0.329294,0.05105 0.620757,0.126815 0.874389,0.227295 l 0.533448,0 0,2.12915 -1.064576,-0.153076 c -0.253631,-0.100482 -0.481699,-0.150734 -0.684204,-0.150757 -0.202605,2.3e-5 -0.40516,-0.02549 -0.607666,-0.07654 -0.355681,-0.102028 -0.710539,-0.165423 -1.064575,-0.190186 -0.354134,-0.02472 -0.683479,-0.08811 -0.988037,-0.190185 -0.456183,-0.051 -0.87405,-0.08888 -1.253601,-0.113648 -0.379644,-0.02472 -0.772771,-0.08811 -1.179382,-0.190185 l 0,4.559814 c 0.760696,0.151549 1.571689,0.227314 2.432983,0.227295 0.304558,0.05105 0.633903,0.10207 0.988037,0.153076 0.354036,0.05104 0.708894,0.07656 1.064575,0.07654 0.810171,0.05104 1.595652,0.202574 2.356446,0.45459 l 0,2.052613 c -0.304658,-0.100489 -0.672273,-0.163497 -1.102845,-0.189026 -0.430674,-0.0255 -0.84854,-0.08928 -1.253601,-0.191346 l 0,4.712891 c 0.405061,1.2e-5 0.797415,0.01277 1.177063,0.03827 0.379547,0.02552 0.772674,0.03828 1.179383,0.03827 l 0,2.050293 c -0.304658,1e-5 -0.672273,-0.01236 -1.102845,-0.03711 -0.430674,-0.02473 -0.84854,-0.0371 -1.253601,-0.03711 -0.355681,-0.05101 -0.710539,-0.07653 -1.064575,-0.07654 -0.354134,10e-6 -0.683479,10e-6 -0.988037,0 l -2.432983,0 0,4.406739 c 1.419386,5e-6 2.762281,0.02552 4.028686,0.07654 1.266307,0.05103 2.204091,0.07654 2.813355,0.07654 l 0,2.052612 -1.825318,0 c -0.658741,-0.102047 -1.444222,-0.153073 -2.356445,-0.153076 -0.861294,3e-6 -1.748052,3e-6 -2.660278,0 -0.405156,-0.05102 -0.759241,-0.07653 -1.062256,-0.07654 -0.30465,3e-6 -0.659508,3e-6 -1.064575,0 l -5.244019,0 -5.320557,0 c -0.354117,3e-6 -0.708975,3e-6 -1.064575,0 -0.354116,3e-6 -0.682689,0.02552 -0.985718,0.07654 -1.014352,3e-6 -1.952136,3e-6 -2.813354,0 -0.861274,3e-6 -1.621242,0.05103 -2.279907,0.153076 l -1.899536,0 0,-2.052612 c 0.607641,5e-6 1.570165,-0.02551 2.887573,-0.07654 1.317355,-0.05102 2.685762,-0.07653 4.105224,-0.07654 l 0,-4.406739 -2.432983,0 c -0.405138,10e-6 -0.785509,10e-6 -1.141113,0 -0.354112,10e-6 -0.683458,0.02552 -0.988037,0.07654 -0.405137,10e-6 -0.810247,0.01238 -1.215332,0.03711 -0.405136,0.02475 -0.810246,0.03712 -1.215332,0.03711 l 0,-2.050293 c 0.405086,1.2e-5 0.810196,-0.01274 1.215332,-0.03827 0.405085,-0.0255 0.810195,-0.03826 1.215332,-0.03827 l 0,-4.712891 c -0.454616,0.102068 -0.872096,0.16585 -1.252442,0.191346 -0.380395,0.02553 -0.773136,0.08854 -1.178222,0.189026 l 0,-2.052613 c 0.405086,-0.100486 0.810196,-0.18862 1.215332,-0.264404 0.405085,-0.07575 0.810195,-0.139141 1.215332,-0.190186 0.304579,1.9e-5 0.634311,-0.02549 0.989196,-0.07654 0.354831,-0.05101 0.734816,-0.102031 1.139954,-0.153076 0.709688,1.9e-5 1.520682,-0.07575 2.432983,-0.227295 l 0,-4.559814 c -0.406687,0.102074 -0.81257,0.165469 -1.217651,0.190185 -0.40514,0.02476 -0.81025,0.06265 -1.215332,0.113648 -0.405138,0.102074 -0.75961,0.165469 -1.063415,0.190185 -0.30386,0.02476 -0.659105,0.08816 -1.065735,0.190188 z m 19.303833,11.019165 2.432983,0 0,-4.863648 c -0.405158,1.8e-5 -0.810268,-0.01274 -1.215332,-0.03827 -0.405157,-0.02549 -0.81104,-0.03825 -1.217651,-0.03827 -0.405156,-0.100487 -0.759241,-0.150739 -1.062256,-0.150757 -0.30465,1.8e-5 -0.659508,-0.02549 -1.064575,-0.07654 -0.760785,-0.100487 -1.495241,-0.150739 -2.20337,-0.150756 -0.709757,1.7e-5 -1.39396,1.7e-5 -2.052612,0 l 0,5.244018 0.607666,0 3.648316,0 c 0.405067,1.2e-5 0.759925,1.2e-5 1.064575,0 0.303015,1.2e-5 0.6571,0.02475 1.062256,0.07422 z m -6.382813,1.976074 0.607666,0 3.648316,0 0,4.485596 -5.244019,0 -5.320557,0 0,-4.485596 3.571778,0 0.684204,0 z m -8.358887,-1.976074 -2.432983,0 0,-4.863648 c 0.405082,1.8e-5 0.797823,-0.01274 1.178223,-0.03827 0.380341,-0.02549 0.798594,-0.03825 1.25476,-0.03827 0.303029,-0.100487 0.631602,-0.150739 0.985718,-0.150757 0.3556,1.8e-5 0.710458,-0.02549 1.064575,-0.07654 0.760709,-0.100487 1.495938,-0.150739 2.205689,-0.150756 0.708135,1.7e-5 1.391565,1.7e-5 2.050293,0 l 0,5.244018 -0.684204,0 -3.571778,0 z m -11.21164,15.078699 c 0.410576,0.03614 36.820041,0.02689 36.820041,0.02689 l 0.08538,2.26872 -18.30431,0.595289 -18.586488,-0.595289 z M 30.973694,24.171082 c -0.709753,0.102075 -1.444209,0.1531 -2.203369,0.153076 -0.709751,2.4e-5 -1.393955,0.02554 -2.052613,0.07654 l 0,4.710571 c 0.760709,-0.100485 1.495938,-0.150737 2.205689,-0.150757 0.708135,2e-5 1.391565,2e-5 2.050293,0 l 1.064575,0 0.988037,0 c 0.658652,2e-5 1.342855,2e-5 2.052612,0 0.708129,2e-5 1.442585,0.05027 2.20337,0.150757 l 0,-4.710571 c -0.70976,-0.051 -1.419089,-0.102027 -2.127991,-0.153076 -0.708984,-0.051 -1.418314,-0.07651 -2.127991,-0.07654 l -0.988037,0 z m -6.306275,-1.595704 -0.306152,0 c -0.354115,0.05105 -0.708587,0.102077 -1.063415,0.153077 -0.354888,0.05105 -0.709359,0.101303 -1.063416,0.150756 l 0,-3.87561 c 1.468883,-0.253551 2.938181,-0.481619 4.407898,-0.684204 1.469652,-0.202525 2.913437,-0.329315 4.33136,-0.380371 l 0,4.332519 c -0.709753,2.7e-5 -1.444209,2.7e-5 -2.203369,0 -0.709751,2.7e-5 -1.393955,0.02554 -2.052613,0.07654 z m 12.614869,-0.227295 c -0.70976,2.7e-5 -1.406333,-0.01273 -2.089722,-0.03827 -0.683472,-0.02549 -1.405557,-0.03824 -2.16626,-0.03827 l 0,-4.332519 c 2.93933,0.102081 5.877926,0.406687 8.815796,0.913818 l 0,4.026367 c -0.405158,-0.04945 -0.785142,-0.09971 -1.139954,-0.150756 -0.354904,-0.051 -0.683863,-0.102025 -0.986877,-0.153077 l -0.306152,0 z"
           id="path67315"
           inkscape:connector-curvature="0"
           sodipodi:nodetypes="cccccccccccccccccccccccccccccccccccccccccccccccccccccccccccccccccccccccccccccccccccccccccccccccccccccccccccccccccccccccccccccccccccccccccccccsccscsccscccsccccccccccccccccccccccccccccccccccccccccccccccccccccccccccccccccccccccccccccccccccccccccccccccccccccccc" />
      </g>
    </g>
  </g>
</svg>
