<?xml version="1.0" encoding="UTF-8" standalone="no"?>
<!-- Created with Inkscape (http://www.inkscape.org/) -->

<svg
   xmlns:dc="http://purl.org/dc/elements/1.1/"
   xmlns:cc="http://creativecommons.org/ns#"
   xmlns:rdf="http://www.w3.org/1999/02/22-rdf-syntax-ns#"
   xmlns:svg="http://www.w3.org/2000/svg"
   xmlns="http://www.w3.org/2000/svg"
   xmlns:sodipodi="http://sodipodi.sourceforge.net/DTD/sodipodi-0.dtd"
   xmlns:inkscape="http://www.inkscape.org/namespaces/inkscape"
   width="64px"
   height="64px"
   id="svg4261"
   version="1.1"
   inkscape:version="0.48.2 r9819"
   sodipodi:docname="wp.svg">
  <defs
     id="defs4263" />
  <sodipodi:namedview
     id="base"
     pagecolor="#ffffff"
     bordercolor="#666666"
     borderopacity="1.0"
     inkscape:pageopacity="0.0"
     inkscape:pageshadow="2"
     inkscape:zoom="5.5"
     inkscape:cx="34.363636"
     inkscape:cy="32"
     inkscape:current-layer="layer1"
     showgrid="true"
     inkscape:document-units="px"
     inkscape:grid-bbox="true"
     inkscape:window-width="984"
     inkscape:window-height="614"
     inkscape:window-x="324"
     inkscape:window-y="105"
     inkscape:window-maximized="0" />
  <metadata
     id="metadata4266">
    <rdf:RDF>
      <cc:Work
         rdf:about="">
        <dc:format>image/svg+xml</dc:format>
        <dc:type
           rdf:resource="http://purl.org/dc/dcmitype/StillImage" />
        <dc:title />
      </cc:Work>
    </rdf:RDF>
  </metadata>
  <g
     id="layer1"
     inkscape:label="Layer 1"
     inkscape:groupmode="layer">
    <g
       id="g3572"
       transform="matrix(0.88,0,0,0.88,-0.42587242,6.3226916)">
      <path
         transform="translate(-12.975,12.677055)"
         d="m 50.875,-9.4375 c -1.872379,5.59e-5 -3.664459,0.7270006 -5.03125,2.0625 -1.366902,1.3356341 -2.09379,3.0926124 -2.09375,4.96875 -4e-5,1.19641 0.281211,2.35110033 0.84375,3.34375 C 44.763314,1.2367852 45.052358,1.4403917 45.25,1.71875 45.107628,1.8203526 44.952108,1.8921501 44.8125,2 c -0.535695,0.4138536 -1.041754,0.8368149 -1.5,1.28125 -0.03623,0.035141 -0.08944,0.058187 -0.125,0.09375 l -1.21875,1 -1.71875,1.0625 -0.03125,0 -4.625,2.75 L 35.625,8.25 c -0.527674,0.2850544 -1.048121,0.7521671 -1.1875,1.21875 -0.166628,0.557585 -0.169738,1.199964 0.0625,1.78125 0.224761,0.562944 0.703849,1.043706 1.1875,1.3125 0.380864,0.211799 0.991467,0.231805 1.5625,0.09375 L 37.28125,12.75 c 1.41897,-0.29392 2.828378,-0.50452 4.28125,-0.625 0.475832,-0.03944 0.884423,-0.05644 1.34375,-0.09375 -0.314852,0.481851 -0.38648,0.744648 -0.8125,1.3125 a 1.50015,1.50015 0 0 0 -0.03125,0.0625 c -0.928246,1.340429 -1.873081,2.781966 -2.78125,4.3125 -1.016427,1.712918 -1.53128,3.57251 -1.53125,5.5 -3e-5,2.433774 0.804317,4.61704 2.4375,6.15625 1.06212,1.001065 2.368326,1.67339 3.75,2.21875 -0.207935,0.246483 -0.401017,0.49555 -0.6875,0.75 -0.437435,0.388479 -0.885813,0.747613 -1.3125,1.0625 -0.433962,0.320222 -0.858904,0.634664 -1.3125,0.9375 -0.0072,0.0048 -0.02403,-0.0048 -0.03125,0 L 39.8125,34.875 a 1.50015,1.50015 0 0 0 -0.03125,0 l -0.875,0.59375 -0.0625,0.03125 c -0.697208,0.431528 -1.450114,0.958941 -2.3125,1.59375 -0.979505,0.720979 -1.863369,1.608845 -2.6875,2.625 -0.849864,1.047815 -1.609239,2.27483 -2.21875,3.6875 -0.649659,1.505599 -0.975902,3.224622 -1.03125,5.09375 a 1.50015,1.50015 0 0 0 0,0.03125 l 0,1.125 a 1.50015,1.50015 0 0 0 1.5,1.5 l 37.46875,0 a 1.50015,1.50015 0 0 0 1.5,-1.5 l 0,-1.125 c -6.2e-5,-1.867233 -0.27988,-3.572284 -0.90625,-5.09375 -0.58829,-1.428685 -1.331894,-2.691988 -2.21875,-3.75 -0.855662,-1.020664 -1.787115,-1.884942 -2.75,-2.59375 -0.814495,-0.599503 -1.521084,-1.081715 -2.1875,-1.5 l -0.75,-0.625 a 1.50015,1.50015 0 0 0 -0.15625,-0.125 L 61.25,34.3125 a 1.50015,1.50015 0 0 0 -0.03125,0 c -0.831297,-0.508612 -1.711544,-1.163975 -2.6875,-1.96875 -0.333681,-0.275127 -0.35396,-0.495524 -0.5625,-0.75 1.357932,-0.54324 2.601314,-1.235502 3.625,-2.21875 1.604217,-1.540938 2.406193,-3.725564 2.40625,-6.15625 -5.7e-5,-1.923555 -0.482959,-3.790884 -1.46875,-5.5 C 61.640428,16.174497 60.678646,14.732735 59.6875,13.375 59.320567,12.87497 59.058846,12.439351 58.78125,12 c 0.488056,0.04034 0.928708,0.08211 1.4375,0.125 1.383376,0.116682 2.739993,0.314947 4.0625,0.59375 0.04131,0.0087 0.08376,0.0224 0.125,0.03125 l 0,-0.03125 c 0.512381,0.143471 1.126965,0.249625 1.78125,-0.09375 0.589101,-0.309166 0.85241,-0.891903 1,-1.40625 L 67.25,11.25 c 0.02062,-0.05127 -0.01716,-0.104371 0,-0.15625 0.01197,-0.05167 0.05434,-0.10693 0.0625,-0.15625 l -0.0625,0 C 67.379581,10.444883 67.449081,9.9262487 67.3125,9.46875 67.182801,9.0350053 66.722529,8.5475502 66.21875,8.25 L 66.25,8.1875 61.6875,5.4375 A 1.50015,1.50015 0 0 0 61.625,5.40625 L 59.90625,4.4375 58.625,3.3125 C 58.157275,2.8971715 57.64769,2.4797881 57.09375,2.03125 c -0.152115,-0.1231316 -0.340667,-0.1996302 -0.5,-0.3125 0.210821,-0.2896189 0.517302,-0.4938431 0.6875,-0.8125 0.539851,-1.01086532 0.781197,-2.1554218 0.78125,-3.3125 C 58.062446,-4.2785696 57.336334,-6.038561 56,-7.375 54.645971,-8.7289217 52.827198,-9.4374454 50.875,-9.4375 z m 0,5.1875 c 0.675758,2.88e-5 1.068113,0.1780188 1.5,0.59375 0.444494,0.4279724 0.562476,0.718165 0.5625,1.25 -2.8e-5,0.6701974 -0.177515,1.0837629 -0.59375,1.5 -0.432493,0.43249114 -0.798722,0.59377402 -1.46875,0.59375 -0.53187,2.116e-5 -0.926438,-0.14885643 -1.4375,-0.625 -0.451331,-0.4204069 -0.625022,-0.8107098 -0.625,-1.46875 -1.9e-5,-0.518338 0.11235,-0.787003 0.59375,-1.21875 0.511996,-0.4591726 0.930513,-0.6249745 1.46875,-0.625 z m 0,9.0625 c 0.915307,2.69e-5 1.587378,0.1970027 2.15625,0.59375 0.547706,0.3820669 1.013518,0.8403513 1.5,1.28125 -1.402239,-0.021086 -2.516299,-0.031222 -3.1875,-0.03125 l -0.46875,0 -0.375,0 c -0.692484,2.86e-5 -1.816125,0.00861 -3.28125,0.03125 0.486431,-0.4408722 0.952262,-0.8991958 1.5,-1.28125 C 49.287504,5.0095491 49.9596,4.8125269 50.875,4.8125 z m 0.15625,6.90625 c 0.882651,1.9e-5 1.456757,0.01148 2.0625,0.03125 0.221145,0.610138 0.36141,1.258277 0.71875,1.8125 0.507136,0.786732 1.104369,1.64555 1.8125,2.5625 0.02541,0.0329 0.0368,0.06072 0.0625,0.09375 0.784084,1.22708 1.560715,2.464807 2.3125,3.75 0.6698,1.145203 0.937462,2.214041 0.9375,3.25 -3.9e-5,1.156437 -0.261815,1.82431 -0.75,2.34375 -0.639055,0.679908 -1.367974,1.175388 -2.21875,1.5 -0.944622,0.360405 -1.891828,0.57413 -2.84375,0.6875 -1.031037,0.122799 -1.802492,0.187506 -2.25,0.1875 -0.447599,6e-6 -1.215688,-0.06509 -2.21875,-0.1875 -0.926096,-0.112995 -1.866303,-0.326469 -2.8125,-0.6875 -0.841701,-0.321126 -1.534955,-0.805672 -2.1875,-1.5 -0.501825,-0.533903 -0.781272,-1.209395 -0.78125,-2.34375 -2.2e-5,-1.012178 0.290144,-2.089853 0.96875,-3.25 0.760367,-1.299989 1.572001,-2.55298 2.40625,-3.78125 0.0092,-0.0128 0.02204,-0.01847 0.03125,-0.03125 0.664009,-0.921164 1.237333,-1.798558 1.75,-2.59375 0.364774,-0.565838 0.546344,-1.200307 0.78125,-1.8125 0.669984,-0.02111 1.316008,-0.03123 2.21875,-0.03125 z m -2.0625,21.21875 c 0.560217,0.02669 1.077626,0.0625 1.75,0.0625 0.734153,4e-6 1.3764,-0.03429 2.03125,-0.0625 0.516185,1.143252 1.232384,2.194547 2.25,3.03125 1.160262,0.954066 2.246529,1.810738 3.34375,2.59375 a 1.50015,1.50015 0 0 0 0.09375,0.0625 l 0.75,0.4375 0.03125,0.03125 0.875,0.5625 a 1.50015,1.50015 0 0 0 0.0625,0.03125 c 0.534449,0.312012 1.145548,0.751318 1.84375,1.25 0.624804,0.446318 1.23437,0.959444 1.78125,1.59375 0.522881,0.606564 0.963515,1.368955 1.34375,2.21875 0.146737,0.328024 0.179728,0.823768 0.28125,1.21875 l -29.125,0 c 0.117965,-0.37778 0.152763,-0.867787 0.3125,-1.1875 0.426309,-0.853348 0.940579,-1.595009 1.5,-2.21875 0.581378,-0.648277 1.184604,-1.177009 1.8125,-1.625 0.721996,-0.515171 1.322106,-0.967959 1.8125,-1.28125 a 1.50015,1.50015 0 0 0 0.0625,-0.03125 l 0.75,-0.53125 L 42.5625,39.0625 42.625,39.03125 43.28125,38.625 A 1.50015,1.50015 0 0 0 43.375,38.5625 c 0.511235,-0.358042 1.089753,-0.74595 1.6875,-1.1875 0.611009,-0.451391 1.173068,-0.915103 1.75,-1.4375 0.607889,-0.550488 1.159248,-1.172586 1.625,-1.8125 0.260576,-0.358071 0.349067,-0.789746 0.53125,-1.1875 z"
         id="path3552-4"
         style="font-size:76px;font-style:normal;font-variant:normal;font-weight:normal;font-stretch:normal;line-height:125%;letter-spacing:0px;word-spacing:0px;fill:#4d4d4d;fill-opacity:1;stroke:none;font-family:DiagramTTOldstyle;-inkscape-font-specification:DiagramTTOldstyle"
         inkscape:original="M 50.875 -7.9375 C 49.355025 -7.9374546 48.021042 -7.4017699 46.90625 -6.3125 C 45.79139 -5.2231425 45.249968 -3.9261467 45.25 -2.40625 C 45.249968 -1.4444598 45.475594 -0.572431 45.90625 0.1875 C 46.33684 0.94750563 46.8298 1.5866245 47.4375 2.09375 C 46.8298 2.3983912 46.27613 2.7569114 45.71875 3.1875 C 45.161304 3.6181573 44.655079 4.0324228 44.25 4.4375 L 42.75 5.65625 L 41 6.71875 L 36.34375 9.46875 C 36.090146 9.5182572 35.950742 9.6526971 35.875 9.90625 C 35.799212 10.159858 35.804949 10.433946 35.90625 10.6875 C 36.007505 10.941107 36.178159 11.123236 36.40625 11.25 C 36.634294 11.376816 36.817196 11.383327 36.96875 11.28125 C 38.439183 10.97667 39.917535 10.751044 41.4375 10.625 C 42.957408 10.49901 44.401336 10.383328 45.71875 10.28125 C 45.313607 11.294053 44.498097 12.628036 43.28125 14.25 C 42.368948 15.567405 41.449231 16.974345 40.5625 18.46875 C 39.675714 19.963193 39.249974 21.545752 39.25 23.21875 C 39.249974 25.346366 39.90134 27.039643 41.21875 28.28125 C 42.536103 29.522876 44.167124 30.357917 46.09375 30.8125 C 45.991666 31.268642 45.766813 31.73137 45.4375 32.1875 C 45.108122 32.643641 44.706104 33.063644 44.25 33.46875 C 43.793833 33.873864 43.324595 34.270145 42.84375 34.625 C 42.362845 34.979861 41.893607 35.289146 41.4375 35.59375 L 40.625 36.125 L 39.6875 36.75 C 39.028782 37.155111 38.267471 37.678548 37.40625 38.3125 C 36.54498 38.94645 35.759946 39.719236 35 40.65625 C 34.24001 41.593258 33.557393 42.708125 33 44 C 32.442567 45.291862 32.144756 46.808747 32.09375 48.53125 L 32.09375 49.65625 L 69.5625 49.65625 L 69.5625 48.53125 C 69.562443 46.808747 69.313095 45.291862 68.78125 44 C 68.249294 42.708125 67.566677 41.593258 66.78125 40.65625 C 65.995715 39.719236 65.173694 38.94645 64.3125 38.3125 C 63.451203 37.678548 62.689892 37.155111 62.03125 36.75 L 61.28125 36.125 L 60.4375 35.59375 C 59.525181 35.035566 58.576004 34.335737 57.5625 33.5 C 56.548907 32.664271 55.909788 31.775803 55.65625 30.8125 C 57.632279 30.357917 59.26981 29.522876 60.5625 28.28125 C 61.855094 27.039643 62.49995 25.346366 62.5 23.21875 C 62.49995 21.545752 62.080721 19.963193 61.21875 18.46875 C 60.356683 16.974345 59.430455 15.567405 58.46875 14.25 C 57.910518 13.489282 57.442053 12.782943 57.0625 12.125 C 56.682858 11.467108 56.378537 10.839463 56.125 10.28125 C 57.442338 10.383328 58.849279 10.49901 60.34375 10.625 C 61.838126 10.751044 63.299266 10.97667 64.71875 11.28125 C 65.377389 11.483831 65.743193 11.295192 65.84375 10.6875 C 65.945748 10.433946 65.950712 10.159858 65.875 9.90625 C 65.799182 9.6526971 65.672799 9.5182572 65.46875 9.46875 L 60.90625 6.71875 L 59 5.65625 L 57.625 4.4375 C 57.16882 4.0324228 56.688107 3.6181573 56.15625 3.1875 C 55.624306 2.7569114 55.033649 2.3983912 54.375 2.09375 C 55.033649 1.5866245 55.562824 0.94750563 55.96875 0.1875 C 56.37459 -0.572431 56.562456 -1.4444598 56.5625 -2.40625 C 56.562456 -3.9261467 56.026772 -5.2231425 54.9375 -6.3125 C 53.848144 -7.4017699 52.496949 -7.9374546 50.875 -7.9375 z M 50.875 -5.75 C 51.887738 -5.7499568 52.722006 -5.4086485 53.40625 -4.75 C 54.090413 -4.091267 54.437458 -3.3184813 54.4375 -2.40625 C 54.437458 -1.3934344 54.090413 -0.52791606 53.40625 0.15625 C 52.722006 0.84049077 51.887738 1.1875363 50.875 1.1875 C 49.962691 1.1875363 49.14067 0.84049077 48.40625 0.15625 C 47.671759 -0.52791606 47.312466 -1.3934344 47.3125 -2.40625 C 47.312466 -3.3184813 47.671759 -4.091267 48.40625 -4.75 C 49.14067 -5.4086485 49.962691 -5.7499568 50.875 -5.75 z M 50.875 3.3125 C 52.040814 3.3125342 53.039226 3.6046075 53.875 4.1875 C 54.710692 4.7704592 55.477741 5.4153153 56.1875 6.125 L 57.9375 7.40625 L 59.78125 8.46875 C 57.956661 8.315703 56.264157 8.2122689 54.71875 8.1875 C 53.173259 8.1627897 52.051881 8.1562793 51.34375 8.15625 L 50.875 8.15625 L 50.5 8.15625 C 49.790246 8.1562793 48.669642 8.1627897 47.125 8.1875 C 45.58029 8.2122689 43.844289 8.315703 41.96875 8.46875 L 43.96875 7.40625 L 45.5625 6.125 C 46.272183 5.4153153 47.039232 4.7704592 47.875 4.1875 C 48.710698 3.6046075 49.70911 3.3125342 50.875 3.3125 z M 51.03125 10.21875 C 52.297568 10.218777 53.303264 10.230252 54.0625 10.28125 C 54.215535 11.142523 54.55607 11.964544 55.0625 12.75 C 55.568846 13.535506 56.16524 14.400251 56.875 15.3125 C 57.685177 16.578878 58.495723 17.875874 59.28125 19.21875 C 60.066685 20.561662 60.437452 21.901383 60.4375 23.21875 C 60.437452 24.63665 60.066685 25.758028 59.28125 26.59375 C 58.495723 27.429494 57.563757 28.062876 56.5 28.46875 C 55.436155 28.874642 54.377034 29.123218 53.3125 29.25 C 52.247885 29.376798 51.431602 29.437508 50.875 29.4375 C 50.318322 29.437508 49.507776 29.376798 48.46875 29.25 C 47.429653 29.123218 46.376269 28.874642 45.3125 28.46875 C 44.248667 28.062876 43.347951 27.429494 42.5625 26.59375 C 41.776989 25.758028 41.374972 24.63665 41.375 23.21875 C 41.374972 21.901383 41.776989 20.561662 42.5625 19.21875 C 43.347951 17.875874 44.169972 16.578878 45.03125 15.3125 C 45.689909 14.400251 46.274828 13.535506 46.78125 12.75 C 47.287604 11.964544 47.64116 11.142523 47.84375 10.28125 C 48.704961 10.230252 49.763309 10.218777 51.03125 10.21875 z M 48.0625 31.40625 C 48.82166 31.455735 49.705936 31.500006 50.71875 31.5 C 51.784059 31.500006 52.776734 31.455735 53.6875 31.40625 C 54.04309 32.723638 54.797891 33.875492 55.9375 34.8125 C 57.077023 35.749513 58.154903 36.584555 59.21875 37.34375 L 60 37.8125 L 60.90625 38.40625 C 61.515414 38.76188 62.166007 39.21236 62.875 39.71875 C 63.583893 40.225136 64.27302 40.82804 64.90625 41.5625 C 65.539376 42.296952 66.069323 43.16247 66.5 44.125 C 66.930569 45.087517 67.179145 46.200838 67.28125 47.46875 L 34.3125 47.46875 C 34.464008 46.200838 34.769102 45.087517 35.25 44.125 C 35.730853 43.16247 36.310035 42.296952 36.96875 41.5625 C 37.627417 40.82804 38.321508 40.225136 39.03125 39.71875 C 39.74094 39.21236 40.349582 38.76188 40.90625 38.40625 L 41.75 37.8125 L 42.5 37.34375 C 43.005585 36.989665 43.573293 36.586874 44.15625 36.15625 C 44.739145 35.725628 45.280567 35.294151 45.8125 34.8125 C 46.344368 34.330854 46.813605 33.806644 47.21875 33.25 C 47.623826 32.693364 47.909389 32.064947 48.0625 31.40625 z "
         inkscape:radius="1.5"
         sodipodi:type="inkscape:offset" />
      <path
         transform="translate(-14.986004,10.675)"
         d="m 50.875,-9.4375 c -1.872379,5.59e-5 -3.664459,0.7270006 -5.03125,2.0625 -1.366902,1.3356341 -2.09379,3.0926124 -2.09375,4.96875 -4e-5,1.19641 0.281211,2.35110033 0.84375,3.34375 C 44.763314,1.2367852 45.052358,1.4403917 45.25,1.71875 45.107628,1.8203526 44.952108,1.8921501 44.8125,2 c -0.535695,0.4138536 -1.041754,0.8368149 -1.5,1.28125 -0.03623,0.035141 -0.08944,0.058187 -0.125,0.09375 l -1.21875,1 -1.71875,1.0625 -0.03125,0 -4.625,2.75 L 35.625,8.25 c -0.527674,0.2850544 -1.048121,0.7521671 -1.1875,1.21875 -0.166628,0.557585 -0.169738,1.199964 0.0625,1.78125 0.224761,0.562944 0.703849,1.043706 1.1875,1.3125 0.380864,0.211799 0.991467,0.231805 1.5625,0.09375 L 37.28125,12.75 c 1.41897,-0.29392 2.828378,-0.50452 4.28125,-0.625 0.475832,-0.03944 0.884423,-0.05644 1.34375,-0.09375 -0.314852,0.481851 -0.38648,0.744648 -0.8125,1.3125 a 1.50015,1.50015 0 0 0 -0.03125,0.0625 c -0.928246,1.340429 -1.873081,2.781966 -2.78125,4.3125 -1.016427,1.712918 -1.53128,3.57251 -1.53125,5.5 -3e-5,2.433774 0.804317,4.61704 2.4375,6.15625 1.06212,1.001065 2.368326,1.67339 3.75,2.21875 -0.207935,0.246483 -0.401017,0.49555 -0.6875,0.75 -0.437435,0.388479 -0.885813,0.747613 -1.3125,1.0625 -0.433962,0.320222 -0.858904,0.634664 -1.3125,0.9375 -0.0072,0.0048 -0.02403,-0.0048 -0.03125,0 L 39.8125,34.875 a 1.50015,1.50015 0 0 0 -0.03125,0 l -0.875,0.59375 -0.0625,0.03125 c -0.697208,0.431528 -1.450114,0.958941 -2.3125,1.59375 -0.979505,0.720979 -1.863369,1.608845 -2.6875,2.625 -0.849864,1.047815 -1.609239,2.27483 -2.21875,3.6875 -0.649659,1.505599 -0.975902,3.224622 -1.03125,5.09375 a 1.50015,1.50015 0 0 0 0,0.03125 l 0,1.125 a 1.50015,1.50015 0 0 0 1.5,1.5 l 37.46875,0 a 1.50015,1.50015 0 0 0 1.5,-1.5 l 0,-1.125 c -6.2e-5,-1.867233 -0.27988,-3.572284 -0.90625,-5.09375 -0.58829,-1.428685 -1.331894,-2.691988 -2.21875,-3.75 -0.855662,-1.020664 -1.787115,-1.884942 -2.75,-2.59375 -0.814495,-0.599503 -1.521084,-1.081715 -2.1875,-1.5 l -0.75,-0.625 a 1.50015,1.50015 0 0 0 -0.15625,-0.125 L 61.25,34.3125 a 1.50015,1.50015 0 0 0 -0.03125,0 c -0.831297,-0.508612 -1.711544,-1.163975 -2.6875,-1.96875 -0.333681,-0.275127 -0.35396,-0.495524 -0.5625,-0.75 1.357932,-0.54324 2.601314,-1.235502 3.625,-2.21875 1.604217,-1.540938 2.406193,-3.725564 2.40625,-6.15625 -5.7e-5,-1.923555 -0.482959,-3.790884 -1.46875,-5.5 C 61.640428,16.174497 60.678646,14.732735 59.6875,13.375 59.320567,12.87497 59.058846,12.439351 58.78125,12 c 0.488056,0.04034 0.928708,0.08211 1.4375,0.125 1.383376,0.116682 2.739993,0.314947 4.0625,0.59375 0.04131,0.0087 0.08376,0.0224 0.125,0.03125 l 0,-0.03125 c 0.512381,0.143471 1.126965,0.249625 1.78125,-0.09375 0.589101,-0.309166 0.85241,-0.891903 1,-1.40625 L 67.25,11.25 c 0.02062,-0.05127 -0.01716,-0.104371 0,-0.15625 0.01197,-0.05167 0.05434,-0.10693 0.0625,-0.15625 l -0.0625,0 C 67.379581,10.444883 67.449081,9.9262487 67.3125,9.46875 67.182801,9.0350053 66.722529,8.5475502 66.21875,8.25 L 66.25,8.1875 61.6875,5.4375 A 1.50015,1.50015 0 0 0 61.625,5.40625 L 59.90625,4.4375 58.625,3.3125 C 58.157275,2.8971715 57.64769,2.4797881 57.09375,2.03125 c -0.152115,-0.1231316 -0.340667,-0.1996302 -0.5,-0.3125 0.210821,-0.2896189 0.517302,-0.4938431 0.6875,-0.8125 0.539851,-1.01086532 0.781197,-2.1554218 0.78125,-3.3125 C 58.062446,-4.2785696 57.336334,-6.038561 56,-7.375 54.645971,-8.7289217 52.827198,-9.4374454 50.875,-9.4375 z m 0,5.1875 c 0.675758,2.88e-5 1.068113,0.1780188 1.5,0.59375 0.444494,0.4279724 0.562476,0.718165 0.5625,1.25 -2.8e-5,0.6701974 -0.177515,1.0837629 -0.59375,1.5 -0.432493,0.43249114 -0.798722,0.59377402 -1.46875,0.59375 -0.53187,2.116e-5 -0.926438,-0.14885643 -1.4375,-0.625 -0.451331,-0.4204069 -0.625022,-0.8107098 -0.625,-1.46875 -1.9e-5,-0.518338 0.11235,-0.787003 0.59375,-1.21875 0.511996,-0.4591726 0.930513,-0.6249745 1.46875,-0.625 z m 0,9.0625 c 0.915307,2.69e-5 1.587378,0.1970027 2.15625,0.59375 0.547706,0.3820669 1.013518,0.8403513 1.5,1.28125 -1.402239,-0.021086 -2.516299,-0.031222 -3.1875,-0.03125 l -0.46875,0 -0.375,0 c -0.692484,2.86e-5 -1.816125,0.00861 -3.28125,0.03125 0.486431,-0.4408722 0.952262,-0.8991958 1.5,-1.28125 C 49.287504,5.0095491 49.9596,4.8125269 50.875,4.8125 z m 0.15625,6.90625 c 0.882651,1.9e-5 1.456757,0.01148 2.0625,0.03125 0.221145,0.610138 0.36141,1.258277 0.71875,1.8125 0.507136,0.786732 1.104369,1.64555 1.8125,2.5625 0.02541,0.0329 0.0368,0.06072 0.0625,0.09375 0.784084,1.22708 1.560715,2.464807 2.3125,3.75 0.6698,1.145203 0.937462,2.214041 0.9375,3.25 -3.9e-5,1.156437 -0.261815,1.82431 -0.75,2.34375 -0.639055,0.679908 -1.367974,1.175388 -2.21875,1.5 -0.944622,0.360405 -1.891828,0.57413 -2.84375,0.6875 -1.031037,0.122799 -1.802492,0.187506 -2.25,0.1875 -0.447599,6e-6 -1.215688,-0.06509 -2.21875,-0.1875 -0.926096,-0.112995 -1.866303,-0.326469 -2.8125,-0.6875 -0.841701,-0.321126 -1.534955,-0.805672 -2.1875,-1.5 -0.501825,-0.533903 -0.781272,-1.209395 -0.78125,-2.34375 -2.2e-5,-1.012178 0.290144,-2.089853 0.96875,-3.25 0.760367,-1.299989 1.572001,-2.55298 2.40625,-3.78125 0.0092,-0.0128 0.02204,-0.01847 0.03125,-0.03125 0.664009,-0.921164 1.237333,-1.798558 1.75,-2.59375 0.364774,-0.565838 0.546344,-1.200307 0.78125,-1.8125 0.669984,-0.02111 1.316008,-0.03123 2.21875,-0.03125 z m -2.0625,21.21875 c 0.560217,0.02669 1.077626,0.0625 1.75,0.0625 0.734153,4e-6 1.3764,-0.03429 2.03125,-0.0625 0.516185,1.143252 1.232384,2.194547 2.25,3.03125 1.160262,0.954066 2.246529,1.810738 3.34375,2.59375 a 1.50015,1.50015 0 0 0 0.09375,0.0625 l 0.75,0.4375 0.03125,0.03125 0.875,0.5625 a 1.50015,1.50015 0 0 0 0.0625,0.03125 c 0.534449,0.312012 1.145548,0.751318 1.84375,1.25 0.624804,0.446318 1.23437,0.959444 1.78125,1.59375 0.522881,0.606564 0.963515,1.368955 1.34375,2.21875 0.146737,0.328024 0.179728,0.823768 0.28125,1.21875 l -29.125,0 c 0.117965,-0.37778 0.152763,-0.867787 0.3125,-1.1875 0.426309,-0.853348 0.940579,-1.595009 1.5,-2.21875 0.581378,-0.648277 1.184604,-1.177009 1.8125,-1.625 0.721996,-0.515171 1.322106,-0.967959 1.8125,-1.28125 a 1.50015,1.50015 0 0 0 0.0625,-0.03125 l 0.75,-0.53125 L 42.5625,39.0625 42.625,39.03125 43.28125,38.625 A 1.50015,1.50015 0 0 0 43.375,38.5625 c 0.511235,-0.358042 1.089753,-0.74595 1.6875,-1.1875 0.611009,-0.451391 1.173068,-0.915103 1.75,-1.4375 0.607889,-0.550488 1.159248,-1.172586 1.625,-1.8125 0.260576,-0.358071 0.349067,-0.789746 0.53125,-1.1875 z"
         id="path3552"
         style="font-size:76px;font-style:normal;font-variant:normal;font-weight:normal;font-stretch:normal;line-height:125%;letter-spacing:0px;word-spacing:0px;fill:#ffffff;fill-opacity:1;stroke:none;font-family:DiagramTTOldstyle;-inkscape-font-specification:DiagramTTOldstyle"
         inkscape:original="M 50.875 -7.9375 C 49.355025 -7.9374546 48.021042 -7.4017699 46.90625 -6.3125 C 45.79139 -5.2231425 45.249968 -3.9261467 45.25 -2.40625 C 45.249968 -1.4444598 45.475594 -0.572431 45.90625 0.1875 C 46.33684 0.94750563 46.8298 1.5866245 47.4375 2.09375 C 46.8298 2.3983912 46.27613 2.7569114 45.71875 3.1875 C 45.161304 3.6181573 44.655079 4.0324228 44.25 4.4375 L 42.75 5.65625 L 41 6.71875 L 36.34375 9.46875 C 36.090146 9.5182572 35.950742 9.6526971 35.875 9.90625 C 35.799212 10.159858 35.804949 10.433946 35.90625 10.6875 C 36.007505 10.941107 36.178159 11.123236 36.40625 11.25 C 36.634294 11.376816 36.817196 11.383327 36.96875 11.28125 C 38.439183 10.97667 39.917535 10.751044 41.4375 10.625 C 42.957408 10.49901 44.401336 10.383328 45.71875 10.28125 C 45.313607 11.294053 44.498097 12.628036 43.28125 14.25 C 42.368948 15.567405 41.449231 16.974345 40.5625 18.46875 C 39.675714 19.963193 39.249974 21.545752 39.25 23.21875 C 39.249974 25.346366 39.90134 27.039643 41.21875 28.28125 C 42.536103 29.522876 44.167124 30.357917 46.09375 30.8125 C 45.991666 31.268642 45.766813 31.73137 45.4375 32.1875 C 45.108122 32.643641 44.706104 33.063644 44.25 33.46875 C 43.793833 33.873864 43.324595 34.270145 42.84375 34.625 C 42.362845 34.979861 41.893607 35.289146 41.4375 35.59375 L 40.625 36.125 L 39.6875 36.75 C 39.028782 37.155111 38.267471 37.678548 37.40625 38.3125 C 36.54498 38.94645 35.759946 39.719236 35 40.65625 C 34.24001 41.593258 33.557393 42.708125 33 44 C 32.442567 45.291862 32.144756 46.808747 32.09375 48.53125 L 32.09375 49.65625 L 69.5625 49.65625 L 69.5625 48.53125 C 69.562443 46.808747 69.313095 45.291862 68.78125 44 C 68.249294 42.708125 67.566677 41.593258 66.78125 40.65625 C 65.995715 39.719236 65.173694 38.94645 64.3125 38.3125 C 63.451203 37.678548 62.689892 37.155111 62.03125 36.75 L 61.28125 36.125 L 60.4375 35.59375 C 59.525181 35.035566 58.576004 34.335737 57.5625 33.5 C 56.548907 32.664271 55.909788 31.775803 55.65625 30.8125 C 57.632279 30.357917 59.26981 29.522876 60.5625 28.28125 C 61.855094 27.039643 62.49995 25.346366 62.5 23.21875 C 62.49995 21.545752 62.080721 19.963193 61.21875 18.46875 C 60.356683 16.974345 59.430455 15.567405 58.46875 14.25 C 57.910518 13.489282 57.442053 12.782943 57.0625 12.125 C 56.682858 11.467108 56.378537 10.839463 56.125 10.28125 C 57.442338 10.383328 58.849279 10.49901 60.34375 10.625 C 61.838126 10.751044 63.299266 10.97667 64.71875 11.28125 C 65.377389 11.483831 65.743193 11.295192 65.84375 10.6875 C 65.945748 10.433946 65.950712 10.159858 65.875 9.90625 C 65.799182 9.6526971 65.672799 9.5182572 65.46875 9.46875 L 60.90625 6.71875 L 59 5.65625 L 57.625 4.4375 C 57.16882 4.0324228 56.688107 3.6181573 56.15625 3.1875 C 55.624306 2.7569114 55.033649 2.3983912 54.375 2.09375 C 55.033649 1.5866245 55.562824 0.94750563 55.96875 0.1875 C 56.37459 -0.572431 56.562456 -1.4444598 56.5625 -2.40625 C 56.562456 -3.9261467 56.026772 -5.2231425 54.9375 -6.3125 C 53.848144 -7.4017699 52.496949 -7.9374546 50.875 -7.9375 z M 50.875 -5.75 C 51.887738 -5.7499568 52.722006 -5.4086485 53.40625 -4.75 C 54.090413 -4.091267 54.437458 -3.3184813 54.4375 -2.40625 C 54.437458 -1.3934344 54.090413 -0.52791606 53.40625 0.15625 C 52.722006 0.84049077 51.887738 1.1875363 50.875 1.1875 C 49.962691 1.1875363 49.14067 0.84049077 48.40625 0.15625 C 47.671759 -0.52791606 47.312466 -1.3934344 47.3125 -2.40625 C 47.312466 -3.3184813 47.671759 -4.091267 48.40625 -4.75 C 49.14067 -5.4086485 49.962691 -5.7499568 50.875 -5.75 z M 50.875 3.3125 C 52.040814 3.3125342 53.039226 3.6046075 53.875 4.1875 C 54.710692 4.7704592 55.477741 5.4153153 56.1875 6.125 L 57.9375 7.40625 L 59.78125 8.46875 C 57.956661 8.315703 56.264157 8.2122689 54.71875 8.1875 C 53.173259 8.1627897 52.051881 8.1562793 51.34375 8.15625 L 50.875 8.15625 L 50.5 8.15625 C 49.790246 8.1562793 48.669642 8.1627897 47.125 8.1875 C 45.58029 8.2122689 43.844289 8.315703 41.96875 8.46875 L 43.96875 7.40625 L 45.5625 6.125 C 46.272183 5.4153153 47.039232 4.7704592 47.875 4.1875 C 48.710698 3.6046075 49.70911 3.3125342 50.875 3.3125 z M 51.03125 10.21875 C 52.297568 10.218777 53.303264 10.230252 54.0625 10.28125 C 54.215535 11.142523 54.55607 11.964544 55.0625 12.75 C 55.568846 13.535506 56.16524 14.400251 56.875 15.3125 C 57.685177 16.578878 58.495723 17.875874 59.28125 19.21875 C 60.066685 20.561662 60.437452 21.901383 60.4375 23.21875 C 60.437452 24.63665 60.066685 25.758028 59.28125 26.59375 C 58.495723 27.429494 57.563757 28.062876 56.5 28.46875 C 55.436155 28.874642 54.377034 29.123218 53.3125 29.25 C 52.247885 29.376798 51.431602 29.437508 50.875 29.4375 C 50.318322 29.437508 49.507776 29.376798 48.46875 29.25 C 47.429653 29.123218 46.376269 28.874642 45.3125 28.46875 C 44.248667 28.062876 43.347951 27.429494 42.5625 26.59375 C 41.776989 25.758028 41.374972 24.63665 41.375 23.21875 C 41.374972 21.901383 41.776989 20.561662 42.5625 19.21875 C 43.347951 17.875874 44.169972 16.578878 45.03125 15.3125 C 45.689909 14.400251 46.274828 13.535506 46.78125 12.75 C 47.287604 11.964544 47.64116 11.142523 47.84375 10.28125 C 48.704961 10.230252 49.763309 10.218777 51.03125 10.21875 z M 48.0625 31.40625 C 48.82166 31.455735 49.705936 31.500006 50.71875 31.5 C 51.784059 31.500006 52.776734 31.455735 53.6875 31.40625 C 54.04309 32.723638 54.797891 33.875492 55.9375 34.8125 C 57.077023 35.749513 58.154903 36.584555 59.21875 37.34375 L 60 37.8125 L 60.90625 38.40625 C 61.515414 38.76188 62.166007 39.21236 62.875 39.71875 C 63.583893 40.225136 64.27302 40.82804 64.90625 41.5625 C 65.539376 42.296952 66.069323 43.16247 66.5 44.125 C 66.930569 45.087517 67.179145 46.200838 67.28125 47.46875 L 34.3125 47.46875 C 34.464008 46.200838 34.769102 45.087517 35.25 44.125 C 35.730853 43.16247 36.310035 42.296952 36.96875 41.5625 C 37.627417 40.82804 38.321508 40.225136 39.03125 39.71875 C 39.74094 39.21236 40.349582 38.76188 40.90625 38.40625 L 41.75 37.8125 L 42.5 37.34375 C 43.005585 36.989665 43.573293 36.586874 44.15625 36.15625 C 44.739145 35.725628 45.280567 35.294151 45.8125 34.8125 C 46.344368 34.330854 46.813605 33.806644 47.21875 33.25 C 47.623826 32.693364 47.909389 32.064947 48.0625 31.40625 z "
         inkscape:radius="1.5"
         sodipodi:type="inkscape:offset" />
      <path
         transform="translate(0,-8)"
         inkscape:connector-curvature="0"
         id="path67317"
         d="m 35.723077,12.582692 c -4.46082,-0.28693 -5.000402,6.467674 -0.995192,7.572116 5.38283,1.860892 8.188228,-7.813485 0.995192,-7.572116 z"
         style="fill:#ffffff;fill-opacity:1;fill-rule:nonzero;stroke:none" />
      <path
         inkscape:connector-curvature="0"
         id="path67319"
         d="m 35.496899,13.539423 c -3.50696,0.708721 -6.779714,2.757272 -8.992447,5.277961 3.044963,1.675888 7.741216,0.317485 11.338304,0.789439 2.371087,-0.472178 5.848577,0.787076 7.624033,-0.811995 -2.41686,-2.53193 -6.09697,-5.222455 -9.96989,-5.255405 z"
         style="fill:#ffffff;fill-opacity:1;fill-rule:nonzero;stroke:none" />
      <path
         inkscape:connector-curvature="0"
         id="path67321"
         d="m 35.117308,19.544108 c -4.16386,0.472088 -5.316589,5.971573 -7.463943,9.029751 -2.295884,3.53113 -2.081971,9.333684 2.379808,10.754026 4.935465,2.479439 12.921999,2.099456 15.620192,-3.584676 1.04249,-5.864161 -3.219325,-11.286283 -6.490384,-15.541154 -1.156684,-0.887266 -2.694704,-0.66222 -4.045673,-0.657947 z"
         style="fill:#ffffff;fill-opacity:1;fill-rule:nonzero;stroke:none" />
      <path
         transform="translate(0,-8)"
         inkscape:connector-curvature="0"
         id="path67323"
         d="m 35.441827,49.101923 c -3.450556,-0.0057 -4.217759,4.27611 -7.096154,5.451923 -3.687549,3.047198 -9.682858,6.115672 -9.043269,11.769231 5.045969,1.198157 11.026997,0.138879 16.420673,0.497596 5.66021,-0.361015 11.984595,0.716235 17.237399,-0.527014 -0.10865,-7.902155 -9.242281,-10.046556 -13.018649,-15.547505 -0.870437,-1.554888 -2.921898,-1.723799 -4.5,-1.644231 z"
         style="fill:#ffffff;fill-opacity:1;fill-rule:nonzero;stroke:none" />
      <text
         sodipodi:linespacing="125%"
         id="text3079"
         y="47.964989"
         x="-1.9568979"
         style="font-size:76px;font-style:normal;font-variant:normal;font-weight:normal;font-stretch:normal;line-height:125%;letter-spacing:0px;word-spacing:0px;fill:#000000;fill-opacity:1;stroke:none;font-family:DiagramTTOldstyle;-inkscape-font-specification:DiagramTTOldstyle"
         xml:space="preserve"><tspan
           y="47.964989"
           x="-1.9568979"
           id="tspan3081"
           sodipodi:role="line">P</tspan></text>
    </g>
  </g>
</svg>
