<?xml version="1.0" encoding="UTF-8" standalone="no"?>
<!-- Created with Inkscape (http://www.inkscape.org/) -->

<svg
   xmlns:dc="http://purl.org/dc/elements/1.1/"
   xmlns:cc="http://creativecommons.org/ns#"
   xmlns:rdf="http://www.w3.org/1999/02/22-rdf-syntax-ns#"
   xmlns:svg="http://www.w3.org/2000/svg"
   xmlns="http://www.w3.org/2000/svg"
   xmlns:sodipodi="http://sodipodi.sourceforge.net/DTD/sodipodi-0.dtd"
   xmlns:inkscape="http://www.inkscape.org/namespaces/inkscape"
   width="64px"
   height="64px"
   id="svg2985"
   version="1.1"
   inkscape:version="0.48.1 "
   sodipodi:docname="bn.svg">
  <defs
     id="defs2987" />
  <sodipodi:namedview
     id="base"
     pagecolor="#ffffff"
     bordercolor="#666666"
     borderopacity="1.0"
     inkscape:pageopacity="0.0"
     inkscape:pageshadow="2"
     inkscape:zoom="7.7781746"
     inkscape:cx="39.101887"
     inkscape:cy="30.091188"
     inkscape:current-layer="layer1"
     showgrid="true"
     inkscape:document-units="px"
     inkscape:grid-bbox="true"
     inkscape:window-width="1365"
     inkscape:window-height="878"
     inkscape:window-x="-8"
     inkscape:window-y="-8"
     inkscape:window-maximized="1" />
  <metadata
     id="metadata2990">
    <rdf:RDF>
      <cc:Work
         rdf:about="">
        <dc:format>image/svg+xml</dc:format>
        <dc:type
           rdf:resource="http://purl.org/dc/dcmitype/StillImage" />
        <dc:title></dc:title>
      </cc:Work>
    </rdf:RDF>
  </metadata>
  <g
     id="layer1"
     inkscape:label="Layer 1"
     inkscape:groupmode="layer">
    <path
       style="fill:#000000"
       d="m 12.789232,56.884384 c 0,-1.128099 0.398485,-2.626057 1.004308,-3.775329 1.433145,-2.718735 4.801937,-4.336187 9.64595,-4.631297 l 1.842091,-0.112226 0.103398,-1.25525 c 0.09833,-1.193757 0.0772,-1.279439 -0.431432,-1.749007 -2.223472,-2.052718 -1.897475,-6.189594 0.954779,-12.116062 l 1.130905,-2.34982 0,-1.97268 0,-1.972681 -5.781069,0 c -6.566147,0 -6.03783,0.156699 -5.765319,-1.71 0.227675,-1.559576 1.333455,-3.657165 2.589981,-4.913021 1.061268,-1.060702 2.992838,-2.217838 4.491408,-2.690643 0.418,-0.131881 1.40965,-0.612508 2.20367,-1.06806 0.794019,-0.455552 1.523119,-0.828276 1.620224,-0.828276 0.0971,0 0.360086,-0.128551 0.584402,-0.285669 l 0.40785,-0.285669 -0.670657,-1.281831 c -0.599587,-1.145996 -0.660501,-1.396165 -0.574822,-2.360753 0.339707,-3.8244673 4.777516,-6.2073922 8.399332,-4.5101032 1.270406,0.5953498 2.634868,2.0162952 3.019166,3.1441472 0.580383,1.703331 0.195569,4.247385 -0.719959,4.75974 -0.274208,0.153455 -0.274649,0.207785 -0.0048,0.593036 0.402186,0.574203 1.733176,1.222272 3.786958,1.843902 2.747335,0.831551 4.388867,1.71448 5.811019,3.125567 1.492195,1.480586 2.054926,2.750693 2.213131,4.995133 l 0.103793,1.4725 -5.822151,0 -5.822148,0 0,2.093602 0,2.093603 0.932523,1.943897 c 2.883605,6.011038 3.250457,10.428608 1.023308,12.322498 -0.504507,0.429014 -0.527703,0.519712 -0.46774,1.8289 l 0.06309,1.3775 1.551909,0.0025 c 2.128362,0.0034 4.865295,0.600461 6.535331,1.425623 2.717771,1.34285 4.24582,3.475186 4.388777,6.12438 l 0.07433,1.377508 -19.210766,0 -19.210767,0 0,-0.655648 z m 34.959999,-1.821922 c 0,-0.462897 -0.804673,-1.717165 -1.386206,-2.160722 -1.45394,-1.108974 -3.538955,-1.702267 -7.070219,-2.011834 -1.24008,-0.10871 -2.28641,-0.229377 -2.325179,-0.268147 -0.03877,-0.03877 -0.250052,-1.149133 -0.469517,-2.467476 l -0.399025,-2.396987 0.694952,-0.616132 c 0.549963,-0.487588 0.759,-0.872754 1.001953,-1.84616 0.573105,-2.296186 -0.02013,-4.885286 -2.129527,-9.294063 l -1.217231,-2.54409 0,-2.25341 0,-2.253409 -2.47,0 -2.47,0 0,2.282922 0,2.28292 -1.118375,2.231018 c -1.798765,3.58831 -2.361447,5.327534 -2.380544,7.35814 -0.0188,1.999091 0.367652,3.24455 1.23257,3.97233 0.652083,0.548693 0.66198,0.723417 0.200099,3.53267 l -0.328006,1.995 -1.035372,0.127446 c -0.569455,0.0701 -1.862492,0.21869 -2.873416,0.330209 -2.265267,0.24989 -4.369409,0.899971 -5.556469,1.71669 -0.925744,0.636927 -1.628528,1.563244 -1.629777,2.148155 -6.65e-4,0.314017 0.881162,0.3325 15.86429,0.3325 10.85521,0 15.864999,-0.06239 15.864999,-0.19757 z M 45.569088,23.964098 c -0.189546,-1.010365 -0.538582,-1.60125 -1.411936,-2.390273 -0.911933,-0.823877 -2.466129,-1.628909 -4.292921,-2.223622 -2.511417,-0.817593 -4.513274,-2.041756 -5.616312,-3.434454 l -0.596359,-0.752964 0.6731,-0.745041 c 0.738931,-0.817907 0.981939,-1.672321 0.838238,-2.947228 -0.340677,-3.0224963 -4.597479,-3.7677846 -5.999956,-1.050484 -0.754586,1.46201 -0.331156,3.680935 0.837765,4.390195 l 0.444811,0.269895 -0.6454,0.81559 c -1.274405,1.610463 -2.757753,2.521959 -5.63351,3.461713 -1.88906,0.617316 -2.923054,1.165152 -4.099107,2.17181 -0.818399,0.700518 -1.578269,2.012869 -1.578269,2.725783 l 0,0.415014 13.606145,0 13.606144,0 -0.132433,-0.705934 z"
       id="path3238"
       inkscape:connector-curvature="0" />
    <path
       style="fill:#ffffff"
       d="m 18.908285,55.111233 c -1.426189,-0.04357 -2.633611,-0.119909 -2.683161,-0.16965 -0.303906,-0.305074 0.581211,-1.497908 1.593501,-2.147492 1.586731,-1.018203 3.914548,-1.569797 8.51533,-2.017775 l 0.847088,-0.08248 0.284286,-1.825331 c 0.156357,-1.003932 0.295855,-2.14524 0.309995,-2.536239 0.02371,-0.65569 -0.0113,-0.751907 -0.450839,-1.238801 -0.972348,-1.077111 -1.355299,-2.464403 -1.20879,-4.379007 0.15164,-1.981663 0.594634,-3.2864 2.37995,-7.009593 l 1.041016,-2.170989 0,-2.232357 0,-2.232357 2.442732,0 2.442733,0 0,2.236664 0,2.236665 1.01066,2.166682 c 1.987323,4.260481 2.37534,5.521489 2.387544,7.759254 0.01124,2.060234 -0.199606,2.73984 -1.125393,3.627477 l -0.646795,0.620141 0.152475,0.993888 c 0.08386,0.54664 0.276087,1.664602 0.427165,2.48436 l 0.274689,1.49047 2.00609,0.224668 c 4.81514,0.539262 6.945957,1.270504 8.038269,2.758532 0.622826,0.848459 0.766504,1.252555 0.485148,1.364481 -0.284201,0.113057 -25.153211,0.181752 -28.523693,0.07879 l 0,0 z"
       id="path3240"
       inkscape:connector-curvature="0" />
    <path
       style="fill:#ffffff"
       d="m 18.608647,24.23646 c 0,-0.918856 1.120458,-2.440473 2.473818,-3.359523 0.834906,-0.566974 1.363334,-0.809037 3.375883,-1.546431 2.839229,-1.040288 4.620651,-2.208377 5.663984,-3.713906 l 0.369877,-0.533734 -0.48412,-0.388375 c -1.361212,-1.092002 -1.499551,-3.634018 -0.266842,-4.9032977 0.592888,-0.6104783 1.092589,-0.856178 1.913619,-0.9409157 1.286559,-0.1327847 2.607378,0.5712878 3.141477,1.6745884 0.346202,0.715159 0.387082,2.126868 0.08268,2.855393 -0.117314,0.280773 -0.441672,0.781334 -0.720795,1.112357 -0.279122,0.331023 -0.507496,0.660501 -0.507496,0.732173 0,0.237862 1.448298,1.699135 2.240831,2.260905 1.029606,0.729815 1.838715,1.126924 3.834608,1.882018 3.856687,1.459075 5.475459,2.789633 5.811266,4.776598 l 0.08148,0.482118 -13.505138,0 -13.505136,0 0,-0.389968 z"
       id="path3242"
       inkscape:connector-curvature="0" />
  </g>
</svg>
