<?xml version="1.0" encoding="UTF-8" standalone="no"?>
<!-- Created with Inkscape (http://www.inkscape.org/) -->

<svg
   xmlns:dc="http://purl.org/dc/elements/1.1/"
   xmlns:cc="http://creativecommons.org/ns#"
   xmlns:rdf="http://www.w3.org/1999/02/22-rdf-syntax-ns#"
   xmlns:svg="http://www.w3.org/2000/svg"
   xmlns="http://www.w3.org/2000/svg"
   xmlns:sodipodi="http://sodipodi.sourceforge.net/DTD/sodipodi-0.dtd"
   xmlns:inkscape="http://www.inkscape.org/namespaces/inkscape"
   width="64px"
   height="64px"
   id="svg3072"
   version="1.1"
   inkscape:version="0.48.1 "
   sodipodi:docname="wk.svg">
  <defs
     id="defs3074" />
  <sodipodi:namedview
     id="base"
     pagecolor="#ffffff"
     bordercolor="#666666"
     borderopacity="1.0"
     inkscape:pageopacity="0.0"
     inkscape:pageshadow="2"
     inkscape:zoom="5.5"
     inkscape:cx="35.611581"
     inkscape:cy="35.738366"
     inkscape:current-layer="layer1"
     showgrid="true"
     inkscape:document-units="px"
     inkscape:grid-bbox="true"
     inkscape:window-width="1365"
     inkscape:window-height="878"
     inkscape:window-x="-8"
     inkscape:window-y="-8"
     inkscape:window-maximized="1" />
  <metadata
     id="metadata3077">
    <rdf:RDF>
      <cc:Work
         rdf:about="">
        <dc:format>image/svg+xml</dc:format>
        <dc:type
           rdf:resource="http://purl.org/dc/dcmitype/StillImage" />
        <dc:title></dc:title>
      </cc:Work>
    </rdf:RDF>
  </metadata>
  <g
     id="layer1"
     inkscape:label="Layer 1"
     inkscape:groupmode="layer">
    <path
       style="fill:#000000"
       d="m 9.3201321,60.550068 c -0.932544,-0.626455 -1.6742964,-1.617075 -2.0775065,-2.774533 -0.5515862,-1.583388 -0.5515862,-2.017017 0,-3.600405 0.8114385,-2.329323 2.8467444,-3.748864 5.3750384,-3.748864 1.820744,0 1.84101,-0.01613 1.418044,-1.128612 -0.567826,-1.493497 0.167125,-3.708954 1.605821,-4.84063 0.897497,-0.705974 1.730948,-0.860379 4.644138,-0.860379 l 3.550345,0 -2.025473,-2.027543 c -2.530995,-2.533584 -4.032752,-5.585053 -4.254006,-8.64385 -0.251632,-3.478774 1.659129,-8.030026 6.353735,-15.133997 3.651711,-5.52584 3.80626,-5.853284 3.182791,-6.74341 -0.360408,-0.514555 -0.655287,-1.8104899 -0.655287,-2.8798559 0,-5.4075186 6.194794,-7.68914595 9.782464,-3.6030159 1.505736,1.7149391 1.771632,4.2126419 0.672762,6.3196278 -0.869555,1.667297 -0.838059,1.813558 1.06268,4.934945 l 1.670183,2.742768 -3.819512,4.142643 c -3.723087,4.038061 -4.356773,5.24389 -3.307289,6.293374 1.20316,1.20316 2.394922,0.531908 5.721732,-3.222727 1.820151,-2.054222 3.456779,-3.79553 3.636948,-3.869574 0.470109,-0.193201 2.47377,3.095066 3.81789,6.265657 1.071376,2.527233 1.115888,2.869401 0.639731,4.917764 -0.747873,3.217244 -2.321017,6.112872 -4.589945,8.448537 l -1.999829,2.058657 3.756386,0 c 3.119758,0 3.941754,0.145817 4.850175,0.860379 1.438698,1.131676 2.173646,3.347133 1.605819,4.84063 -0.42193,1.109758 -0.39897,1.128637 1.374457,1.130208 1.010754,8.54e-4 2.381471,0.354009 3.118272,0.803309 1.393332,0.849651 2.740368,3.181659 2.740368,4.744161 0,1.562502 -1.347036,3.89451 -2.740368,4.744162 -1.239555,0.755877 -2.525205,0.801806 -22.487446,0.803309 l -21.172728,0.0016 -1.4503899,-0.974331 z M 47.780336,51.112211 c 0,-0.561804 -0.303833,-1.138053 -0.675189,-1.280553 -0.371352,-0.142505 -7.174592,-0.259095 -15.118309,-0.259095 -7.943716,0 -14.746955,0.11659 -15.118309,0.259095 -0.371354,0.1425 -0.675188,0.718749 -0.675188,1.280553 l 0,1.02146 15.793497,0 15.793498,0 0,-1.02146 z m -9.639065,-6.494106 c 0.371354,-0.1425 0.675188,-0.71875 0.675188,-1.280554 l 0,-1.02146 -6.829621,0 -6.82962,0 0,1.031559 c 0,0.567354 0.240104,1.128441 0.533564,1.246854 0.77019,0.310778 11.648381,0.331399 12.450489,0.0236 z M 34.463075,14.632244 c 0.428517,-0.271807 0.446677,-0.590927 0.07949,-1.396816 -0.414978,-0.910779 -0.730743,-1.034388 -2.466054,-0.965361 -1.518425,0.0604 -2.136866,0.300147 -2.609178,1.011488 -0.535245,0.806121 -0.536623,0.984485 -0.01018,1.317653 0.762277,0.482422 4.261046,0.505512 5.005926,0.03303 z"
       id="path3288"
       inkscape:connector-curvature="0" />
    <path
       style="fill:#ffffff;fill-opacity:1;fill-rule:evenodd"
       d="m 16.240441,51.206531 c 0.174644,-1.549442 -0.923979,-1.427994 13.550256,-1.497924 13.819033,-0.06676 17.15271,0.01992 17.590168,0.457375 0.154484,0.154484 0.26708,0.606537 0.26708,1.072275 l 0,0.805195 -15.750919,0 -15.750918,0 0.09433,-0.836921 z"
       id="path3290"
       inkscape:connector-curvature="0" />
    <path
       style="fill:#ffffff;fill-opacity:1;fill-rule:evenodd"
       d="M 26.557036,44.646534 C 25.5662,44.556084 25.284309,44.233597 25.284309,43.19052 l 0,-0.783431 6.727272,0 6.727273,0 0,0.70713 c 0,0.425112 -0.138542,0.878317 -0.347378,1.136363 l -0.347378,0.429234 -5.33444,0.0207 c -2.933942,0.01139 -5.702622,-0.01291 -6.152622,-0.05399 z"
       id="path3292"
       inkscape:connector-curvature="0" />
    <path
       style="fill:#ffffff;fill-opacity:1;fill-rule:evenodd"
       d="m 30.414064,14.780321 c -0.428634,-0.06969 -0.912475,-0.259849 -1.075203,-0.422576 -0.273279,-0.273279 -0.262363,-0.344945 0.142971,-0.938662 0.553417,-0.81062 1.133154,-1.011994 2.913434,-1.011994 1.216158,0 1.472322,0.05581 1.782001,0.388206 0.437116,0.469189 0.668673,1.395617 0.412787,1.651503 -0.427598,0.427598 -2.553198,0.597363 -4.17599,0.333523 z"
       id="path3294"
       inkscape:connector-curvature="0" />
  </g>
</svg>
