<?xml version="1.0" encoding="UTF-8" standalone="no"?>
<!-- Created with Inkscape (http://www.inkscape.org/) -->

<svg
   xmlns:dc="http://purl.org/dc/elements/1.1/"
   xmlns:cc="http://creativecommons.org/ns#"
   xmlns:rdf="http://www.w3.org/1999/02/22-rdf-syntax-ns#"
   xmlns:svg="http://www.w3.org/2000/svg"
   xmlns="http://www.w3.org/2000/svg"
   xmlns:sodipodi="http://sodipodi.sourceforge.net/DTD/sodipodi-0.dtd"
   xmlns:inkscape="http://www.inkscape.org/namespaces/inkscape"
   width="64px"
   height="64px"
   id="svg4261"
   version="1.1"
   inkscape:version="0.48.2 r9819"
   sodipodi:docname="bn.svg">
  <defs
     id="defs4263" />
  <sodipodi:namedview
     id="base"
     pagecolor="#ffffff"
     bordercolor="#666666"
     borderopacity="1.0"
     inkscape:pageopacity="0.0"
     inkscape:pageshadow="2"
     inkscape:zoom="5.5"
     inkscape:cx="34.363636"
     inkscape:cy="32"
     inkscape:current-layer="layer1"
     showgrid="true"
     inkscape:document-units="px"
     inkscape:grid-bbox="true"
     inkscape:window-width="984"
     inkscape:window-height="614"
     inkscape:window-x="324"
     inkscape:window-y="105"
     inkscape:window-maximized="0" />
  <metadata
     id="metadata4266">
    <rdf:RDF>
      <cc:Work
         rdf:about="">
        <dc:format>image/svg+xml</dc:format>
        <dc:type
           rdf:resource="http://purl.org/dc/dcmitype/StillImage" />
        <dc:title></dc:title>
      </cc:Work>
    </rdf:RDF>
  </metadata>
  <g
     id="layer1"
     inkscape:label="Layer 1"
     inkscape:groupmode="layer">
    <g
       id="g4059"
       transform="matrix(0.88,0,0,0.88,-507.48735,6.3894546)">
      <path
         transform="translate(-3.4921952,30.882438)"
         d="m 616.09375,-32.875 c -1.36483,6.1e-5 -2.69577,0.509329 -3.65625,1.46875 -0.96866,0.967617 -1.46879,2.320355 -1.46875,3.71875 -4e-5,1.160743 0.39937,2.270324 1.09375,3.15625 -0.72925,0.379049 -1.46356,0.794265 -2.15625,1.34375 -1.53211,1.215386 -2.88376,2.651423 -4.0625,4.25 -1.17545,1.59411 -2.13071,3.262709 -2.84375,5.03125 -0.71579,1.775296 -1.09377,3.450521 -1.09375,5.03125 -2e-5,2.1071623 0.17858,3.934047 0.5625,5.46875 0.3635,1.4533347 0.8067,2.71980303 1.34375,3.875 0.50098,1.0777503 1.04045,2.1135894 1.59375,3.0625 0.44524,0.7636806 0.79017,1.5631594 1.09375,2.40625 0.14847,0.5909935 0.31108,1.1143806 0.4375,1.59375 0.096,0.3640747 0.13742,0.7277235 0.15625,1.09375 0.0197,0.3841361 6.2e-4,0.8060162 -0.0625,1.3125 -0.0631,0.505606 -0.18885,1.130313 -0.375,1.875 A 1.50015,1.50015 0 0 0 606.625,12 c -0.1346,0.990133 -0.31924,1.715767 -0.53125,2.15625 -0.48837,1.014487 -0.56528,2.174132 -0.3125,3.3125 a 1.50015,1.50015 0 0 0 0,0.03125 c 0.33604,1.460983 1.56228,2.176336 3,2.8125 1.04821,0.46383 2.48679,0.630976 3.875,0.84375 -0.15119,0.386372 -0.35765,0.743887 -0.6875,1.15625 -0.31402,0.392482 -0.63286,0.687778 -0.96875,0.90625 -0.29449,0.191509 -0.54203,0.249996 -0.75,0.25 -0.35829,-6e-6 -1.0215,-0.09453 -1.90625,-0.34375 -0.95299,-0.26845 -1.98109,-0.552762 -3.09375,-0.84375 -0.0185,-0.0058 -0.0439,0.0058 -0.0625,0 -1.72087,-0.539369 -3.4854,-1.091298 -5.34375,-1.5625 -1.94789,-0.493911 -3.78666,-0.718758 -5.5,-0.71875 -1.04628,-8e-6 -2.09235,0.17796 -3.09375,0.53125 -0.92259,0.32546 -1.77951,0.713046 -2.59375,1.21875 -0.78889,0.489927 -1.49235,1.047707 -2.125,1.625 -0.61226,0.558653 -1.15158,1.068989 -1.5625,1.6875 a 1.50015,1.50015 0 0 0 1.59375,2.3125 c -0.20298,0.273901 -0.40307,0.525929 -0.59375,0.84375 -0.35339,0.588955 -0.66041,1.250305 -0.96875,1.96875 a 1.50015,1.50015 0 0 0 2.1875,1.84375 c 1.89272,-1.246342 3.66329,-1.991246 5.25,-2.3125 1.76298,-0.356972 3.16766,-0.531261 4.125,-0.53125 0.82476,-1.1e-5 1.6798,0.137284 2.625,0.4375 l 3.34375,1.125 0.0937,0.03125 c 1.24201,0.543996 2.46642,1.036869 3.71875,1.4375 1.36371,0.436245 2.76311,0.656231 4.15625,0.65625 1.8807,-1.9e-5 3.54725,-0.317985 5,-1 0.81477,-0.382548 1.50673,-0.849634 2.125,-1.375 0.62088,0.523347 1.30003,0.994542 2.09375,1.375 1.44112,0.690788 3.13677,0.999981 5.0625,1 1.39308,-1.9e-5 2.79249,-0.220014 4.15625,-0.65625 1.25225,-0.400628 2.4767,-0.893516 3.71875,-1.4375 0.0316,-0.01098 0.0622,-0.02031 0.0937,-0.03125 1.08292,-0.375212 2.14049,-0.703597 3.21875,-1.0625 0.99299,-0.330577 1.86906,-0.50001 2.59375,-0.5 1.01569,-1.1e-5 2.42657,0.174558 4.1875,0.53125 1.59061,0.322189 3.40075,1.063755 5.34375,2.3125 a 1.50015,1.50015 0 0 0 2.1875,-1.84375 c -0.3235,-0.753572 -0.67081,-1.419995 -1,-1.96875 -0.1906,-0.317603 -0.41314,-0.566021 -0.625,-0.84375 a 1.50015,1.50015 0 0 0 1.5,-2.3125 c -0.40975,-0.613458 -0.94937,-1.12798 -1.5625,-1.6875 -0.63267,-0.577242 -1.33621,-1.135088 -2.125,-1.625 -0.81079,-0.503506 -1.66902,-0.893907 -2.5625,-1.21875 C 642.9355,20.178348 641.94378,19.999992 640.9375,20 c -1.71341,-8e-6 -3.55218,0.224835 -5.5,0.71875 -1.85843,0.471204 -3.62295,1.023126 -5.34375,1.5625 -0.0186,0.0058 -0.044,-0.0058 -0.0625,0 -1.10687,0.289101 -2.17625,0.574621 -3.15625,0.84375 -0.91762,0.251957 -1.58749,0.343745 -1.875,0.34375 -0.20809,-4e-6 -0.42288,-0.05934 -0.78125,-0.28125 -0.37364,-0.231339 -0.71538,-0.519192 -1,-0.875 -0.27468,-0.343317 -0.414,-0.649503 -0.5625,-0.96875 1.51066,-0.181392 2.92055,-0.47512 4.09375,-0.96875 0.80328,-0.338011 1.45436,-0.710215 2,-1.21875 0.54564,-0.508535 0.99994,-1.246321 1,-2.09375 -6e-5,-1.023312 -0.13993,-1.954678 -0.40625,-2.8125 -0.19584,-0.630539 -0.41226,-1.552145 -0.65625,-2.625 a 1.50015,1.50015 0 0 0 0,-0.03125 c -0.18689,-0.74738 -0.30536,-1.310975 -0.34375,-1.75 -0.0424,-0.4841527 -0.0369,-0.9335921 0,-1.28125 0.0362,-0.3413048 0.10743,-0.7246489 0.21875,-1.125 0.14188,-0.5106227 0.26677,-1.0033201 0.40625,-1.5625 0.25168,-0.8635953 0.61434,-1.639692 1.0625,-2.3125 0.58757,-0.8822485 1.11216,-1.8564254 1.625,-2.90625 0.54515,-1.11614345 0.98831,-2.3614464 1.375,-3.78125 0.41784,-1.5345362 0.62495,-3.3885402 0.625,-5.59375 -5e-5,-1.803066 -0.2479,-3.643378 -0.75,-5.46875 -0.49129,-1.785653 -1.116,-3.420946 -1.875,-4.9375 -0.75309,-1.504463 -1.5705,-2.841911 -2.53125,-3.96875 -0.25155,-0.294987 -0.52942,-0.375012 -0.78125,-0.625 0.21935,-0.170274 0.46775,-0.297126 0.65625,-0.5 0.86615,-0.932245 1.37493,-2.181397 1.375,-3.46875 -6e-5,-1.398334 -0.50021,-2.751137 -1.46875,-3.71875 -0.93778,-0.936638 -2.23044,-1.468688 -3.5625,-1.46875 -1.43469,5.8e-5 -2.80639,0.466347 -3.8125,1.4375 -0.24467,0.236172 -0.37578,0.564868 -0.5625,0.84375 -0.19276,-0.279871 -0.3101,-0.608266 -0.5625,-0.84375 -0.99392,-0.927074 -2.32272,-1.437439 -3.6875,-1.4375 z m 4.25,8.0625 c 0.0276,0.03714 0.0338,0.08873 0.0625,0.125 0.0408,0.05167 0.1139,0.07447 0.15625,0.125 -0.063,0.04887 -0.126,0.104527 -0.1875,0.15625 -0.0623,-0.04029 -0.12488,-0.08641 -0.1875,-0.125 0.0705,-0.08158 0.0919,-0.195301 0.15625,-0.28125 z m -3.90625,13.15625 a 1.50015,1.50015 0 0 0 0.96875,0.71875 1.50015,1.50015 0 0 0 -0.96875,0.71875 1.50015,1.50015 0 0 0 -1,-0.71875 1.50015,1.50015 0 0 0 1,-0.71875 z"
         id="path4039-9"
         style="font-size:73.72000122px;font-style:normal;font-variant:normal;font-weight:normal;font-stretch:normal;line-height:125%;letter-spacing:0px;word-spacing:0px;fill:#4d4d4d;fill-opacity:1;stroke:none;font-family:DiagramTTOldstyle;-inkscape-font-specification:DiagramTTOldstyle"
         inkscape:original="M 616.09375 -31.375 C 615.06183 -31.374954 614.18839 -31.03138 613.5 -30.34375 C 612.81154 -29.65603 612.46872 -28.768839 612.46875 -27.6875 C 612.46872 -26.802555 612.73402 -26.04514 613.25 -25.40625 C 613.76591 -24.76728 614.4313 -24.32144 615.21875 -24.125 C 613.74438 -23.830993 612.26931 -23.13084 610.84375 -22 C 609.41813 -20.869087 608.16785 -19.561553 607.0625 -18.0625 C 605.95709 -16.563382 605.0699 -14.989792 604.40625 -13.34375 C 603.74255 -11.697652 603.40623 -10.202331 603.40625 -8.875 C 603.40623 -6.8606971 603.59326 -5.157331 603.9375 -3.78125 C 604.28169 -2.4051323 604.69628 -1.2128696 605.1875 -0.15625 C 605.67867 0.900399 606.17153 1.8963587 606.6875 2.78125 C 607.20342 3.6661649 607.62526 4.5801166 607.96875 5.5625 C 608.11721 6.1534443 608.25199 6.6898085 608.375 7.15625 C 608.49796 7.6227063 608.56972 8.0953072 608.59375 8.5625 C 608.61772 9.0297048 608.60471 9.535569 608.53125 10.125 C 608.45773 10.71444 608.32145 11.401588 608.125 12.1875 C 607.97799 13.268884 607.75694 14.148822 607.4375 14.8125 C 607.11801 15.476177 607.0535 16.271344 607.25 17.15625 C 607.39696 17.795177 608.09711 18.372058 609.375 18.9375 C 610.65283 19.502934 612.34244 19.884261 614.40625 20.03125 C 614.40622 20.571185 614.28369 21.122055 614.0625 21.6875 C 613.84124 22.252931 613.51792 22.758795 613.125 23.25 C 612.73201 23.741188 612.30367 24.149275 611.8125 24.46875 C 611.32127 24.788205 610.79141 24.96874 610.25 24.96875 C 609.66054 24.96874 608.89587 24.83246 607.9375 24.5625 C 606.97908 24.29252 605.94335 24.014209 604.8125 23.71875 C 603.09216 23.1788 601.31128 22.654691 599.46875 22.1875 C 597.62618 21.720294 595.91706 21.499993 594.34375 21.5 C 593.45883 21.499993 592.5854 21.642775 591.75 21.9375 C 590.91458 22.23221 590.14991 22.58879 589.4375 23.03125 C 588.72507 23.473693 588.09668 23.952797 587.53125 24.46875 C 586.96581 24.984684 586.51271 25.463787 586.21875 25.90625 C 587.05415 25.463787 587.87033 25.191979 588.65625 25.09375 C 589.44216 24.9955 590.25683 25.039006 591.09375 25.1875 C 590.40532 25.677936 589.84869 26.099778 589.40625 26.46875 C 588.96379 26.837698 588.56295 27.238533 588.21875 27.65625 C 587.87453 28.073941 587.54471 28.508789 587.25 29 C 586.95528 29.491182 586.67046 30.092809 586.375 30.78125 C 588.39077 29.453879 590.30644 28.618196 592.125 28.25 C 593.94354 27.881777 595.43311 27.687487 596.5625 27.6875 C 597.54638 27.687487 598.57485 27.844024 599.65625 28.1875 L 603.125 29.375 C 604.35334 29.916426 605.58411 30.388277 606.8125 30.78125 C 608.04084 31.174191 609.2701 31.374983 610.5 31.375 C 612.21878 31.374983 613.6706 31.096672 614.875 30.53125 C 616.07933 29.965796 616.98603 29.241645 617.625 28.40625 C 618.26389 29.241645 619.19534 29.965796 620.375 30.53125 C 621.55458 31.096672 623.0129 31.374983 624.78125 31.375 C 626.01107 31.374983 627.24034 31.174191 628.46875 30.78125 C 629.69707 30.388277 630.92783 29.916426 632.15625 29.375 C 633.28707 28.982028 634.39382 28.618196 635.5 28.25 C 636.60607 27.881777 637.62954 27.687487 638.5625 27.6875 C 639.74281 27.687487 641.24464 27.881777 643.0625 28.25 C 644.88024 28.618196 646.84091 29.453879 648.90625 30.78125 C 648.61071 30.092809 648.29465 29.491182 648 29 C 647.70522 28.508789 647.36889 28.073941 647 27.65625 C 646.63097 27.238533 646.22364 26.837698 645.78125 26.46875 C 645.33873 26.099778 644.82637 25.677936 644.1875 25.1875 C 645.02434 25.039006 645.80127 24.9955 646.5625 25.09375 C 647.3236 25.191979 648.11877 25.463787 648.90625 25.90625 C 648.61071 25.463787 648.15912 24.984684 647.59375 24.46875 C 647.02825 23.952797 646.39986 23.473693 645.6875 23.03125 C 644.97501 22.58879 644.21685 22.23221 643.40625 21.9375 C 642.59553 21.642775 641.77285 21.499993 640.9375 21.5 C 639.36411 21.499993 637.65499 21.720294 635.8125 22.1875 C 633.9699 22.654691 632.18901 23.1788 630.46875 23.71875 C 629.33782 24.014209 628.26435 24.29252 627.28125 24.5625 C 626.29806 24.83246 625.5399 24.96874 625 24.96875 C 624.45852 24.96874 623.9534 24.788205 623.4375 24.46875 C 622.92151 24.149275 622.45542 23.741188 622.0625 23.25 C 621.6695 22.758795 621.34619 22.252931 621.125 21.6875 C 620.90373 21.122055 620.81246 20.571185 620.8125 20.03125 C 622.97522 19.932255 624.75536 19.589431 626.15625 19 C 627.55705 18.41056 628.24995 17.750922 628.25 17.0625 C 628.24995 16.177594 628.12743 15.399922 627.90625 14.6875 C 627.68498 13.975078 627.46468 13.050134 627.21875 11.96875 C 627.02223 11.182839 626.8932 10.534193 626.84375 9.96875 C 626.79421 9.4033165 626.79421 8.8727051 626.84375 8.40625 C 626.8932 7.9398072 627.00197 7.4737091 627.125 7.03125 C 627.24794 6.588806 627.35297 6.0894445 627.5 5.5 C 627.79542 4.4666222 628.24126 3.5294231 628.78125 2.71875 C 629.32114 1.9081006 629.8205 1.0071543 630.3125 0 C 630.8044 -1.0071252 631.22549 -2.17913 631.59375 -3.53125 C 631.96191 -4.8833338 632.1562 -6.6054581 632.15625 -8.71875 C 632.1562 -10.389544 631.93515 -12.085657 631.46875 -13.78125 C 631.00225 -15.476786 630.40062 -17.043873 629.6875 -18.46875 C 628.97428 -19.893561 628.20311 -21.117074 627.34375 -22.125 C 626.4843 -23.132853 625.67538 -23.781499 624.9375 -24.125 C 625.87185 -24.174456 626.64227 -24.562285 627.28125 -25.25 C 627.92013 -25.937635 628.24995 -26.75306 628.25 -27.6875 C 628.24995 -28.768839 627.90713 -29.65603 627.21875 -30.34375 C 626.53028 -31.03138 625.7011 -31.374954 624.71875 -31.375 C 623.58783 -31.374954 622.64988 -31.03138 621.9375 -30.34375 C 621.22504 -29.65603 620.87496 -28.768839 620.875 -27.6875 C 620.87496 -26.901544 621.12726 -26.215145 621.59375 -25.625 C 622.06016 -25.034774 622.62403 -24.562174 623.3125 -24.21875 C 622.28057 -24.169217 621.33537 -23.612595 620.5 -22.53125 C 619.36908 -23.465611 618.25434 -24.022233 617.125 -24.21875 C 617.86138 -24.464684 618.49052 -24.885777 619.03125 -25.5 C 619.5719 -26.114143 619.84371 -26.852049 619.84375 -27.6875 C 619.84371 -28.768839 619.48713 -29.65603 618.75 -30.34375 C 618.01279 -31.03138 617.1256 -31.374954 616.09375 -31.375 z M 622.5625 -22.375 C 622.61195 -22.374963 622.857 -22.232931 623.25 -21.9375 L 623.96875 -21.1875 C 624.60764 -20.40155 625.22952 -19.500604 625.84375 -18.46875 C 626.45789 -17.43683 626.9885 -16.206815 627.40625 -14.78125 C 627.82391 -13.355627 628.09572 -11.653011 628.21875 -9.6875 C 628.34169 -7.721941 628.26267 -5.404692 627.96875 -2.75 L 627.8125 -1.71875 C 627.81245 -1.5222552 627.68343 -1.4962445 627.4375 -1.59375 C 627.29047 -1.6432284 627.2187 -1.9417974 627.21875 -2.53125 C 627.46468 -7.0037431 627.18637 -10.564763 626.375 -13.21875 C 625.56354 -15.872682 624.35304 -18.060904 622.78125 -19.78125 L 622.34375 -20.53125 L 621.625 -21.25 L 621.75 -21.5625 C 621.84895 -21.758942 622.03674 -21.959735 622.28125 -22.15625 C 622.42969 -22.304697 622.51446 -22.374963 622.5625 -22.375 z M 615.125 -18.09375 L 617.71875 -18.09375 L 617.71875 -12.40625 L 621.53125 -12.40625 L 621.53125 -9.46875 L 617.71875 -9.46875 L 617.71875 -1.875 L 615.125 -1.875 L 615.125 -9.46875 L 611.28125 -9.46875 L 611.28125 -12.40625 L 615.125 -12.40625 L 615.125 -18.09375 z M 617.625 3.28125 C 619.49226 3.2812613 621.1101 3.4167905 622.4375 3.6875 C 623.76481 3.9582312 624.85205 4.4365848 625.6875 5.125 L 624.78125 7.5 C 624.29076 7.0575555 623.40282 6.6559706 622.125 6.3125 C 620.8471 5.9690459 619.34527 5.7812588 617.625 5.78125 C 615.90465 5.7812588 614.40283 5.9690459 613.125 6.3125 C 611.84711 6.6559706 610.99042 7.0575555 610.5 7.5 L 609.75 5.34375 C 610.53588 4.60584 611.57236 4.0694758 612.875 3.75 C 614.17758 3.4305458 615.75767 3.2812613 617.625 3.28125 z M 617.625 6.8125 C 618.31339 7.8443947 619.24558 8.5040328 620.375 8.75 C 619.24558 8.9959789 618.31339 9.6243669 617.625 10.65625 C 616.93654 9.6243669 615.97833 8.9959789 614.75 8.75 C 615.97833 8.5040328 616.93654 7.8443947 617.625 6.8125 z M 610.5 8.65625 C 610.79394 9.0492129 611.13826 9.3935371 611.53125 9.6875 C 611.87618 9.9829725 612.29077 10.183765 612.78125 10.28125 C 611.65184 10.527227 610.79141 11.070844 610.25 11.90625 C 610.39845 11.169833 610.51373 10.625467 610.5625 10.28125 C 610.61121 9.937042 610.59746 9.3926753 610.5 8.65625 z M 624.78125 8.65625 C 624.63422 9.3926753 624.56896 9.937042 624.59375 10.28125 C 624.61845 10.625467 624.75398 11.169833 625 11.90625 C 624.26204 11.022849 623.41985 10.479233 622.4375 10.28125 C 622.87991 10.183765 623.288 9.9822226 623.65625 9.6875 C 624.02442 9.3927871 624.38825 9.0492129 624.78125 8.65625 z M 617.625 11.25 C 618.90282 11.250003 620.31988 11.450046 621.84375 11.84375 C 623.36754 12.23746 624.68308 12.781826 625.8125 13.46875 L 626.5625 16.40625 C 625.72705 15.767318 624.44552 15.165691 622.75 14.625 C 621.05439 14.084309 619.34527 13.812501 617.625 13.8125 C 616.74006 13.812501 615.85287 13.883517 614.96875 14.03125 C 614.08456 14.178984 613.25538 14.379027 612.46875 14.625 C 611.68205 14.870973 610.97615 15.180534 610.3125 15.5 C 609.64879 15.819464 609.11168 16.11228 608.71875 16.40625 L 609.46875 13.46875 C 610.5981 12.781826 611.90713 12.23746 613.40625 11.84375 C 614.9053 11.450046 616.29761 11.250003 617.625 11.25 z "
         inkscape:radius="1.5"
         sodipodi:type="inkscape:offset" />
      <path
         transform="translate(-5.509543,28.913496)"
         d="m 616.09375,-32.875 c -1.36483,6.1e-5 -2.69577,0.509329 -3.65625,1.46875 -0.96866,0.967617 -1.46879,2.320355 -1.46875,3.71875 -4e-5,1.160743 0.39937,2.270324 1.09375,3.15625 -0.72925,0.379049 -1.46356,0.794265 -2.15625,1.34375 -1.53211,1.215386 -2.88376,2.651423 -4.0625,4.25 -1.17545,1.59411 -2.13071,3.262709 -2.84375,5.03125 -0.71579,1.775296 -1.09377,3.450521 -1.09375,5.03125 -2e-5,2.1071623 0.17858,3.934047 0.5625,5.46875 0.3635,1.4533347 0.8067,2.71980303 1.34375,3.875 0.50098,1.0777503 1.04045,2.1135894 1.59375,3.0625 0.44524,0.7636806 0.79017,1.5631594 1.09375,2.40625 0.14847,0.5909935 0.31108,1.1143806 0.4375,1.59375 0.096,0.3640747 0.13742,0.7277235 0.15625,1.09375 0.0197,0.3841361 6.2e-4,0.8060162 -0.0625,1.3125 -0.0631,0.505606 -0.18885,1.130313 -0.375,1.875 A 1.50015,1.50015 0 0 0 606.625,12 c -0.1346,0.990133 -0.31924,1.715767 -0.53125,2.15625 -0.48837,1.014487 -0.56528,2.174132 -0.3125,3.3125 a 1.50015,1.50015 0 0 0 0,0.03125 c 0.33604,1.460983 1.56228,2.176336 3,2.8125 1.04821,0.46383 2.48679,0.630976 3.875,0.84375 -0.15119,0.386372 -0.35765,0.743887 -0.6875,1.15625 -0.31402,0.392482 -0.63286,0.687778 -0.96875,0.90625 -0.29449,0.191509 -0.54203,0.249996 -0.75,0.25 -0.35829,-6e-6 -1.0215,-0.09453 -1.90625,-0.34375 -0.95299,-0.26845 -1.98109,-0.552762 -3.09375,-0.84375 -0.0185,-0.0058 -0.0439,0.0058 -0.0625,0 -1.72087,-0.539369 -3.4854,-1.091298 -5.34375,-1.5625 -1.94789,-0.493911 -3.78666,-0.718758 -5.5,-0.71875 -1.04628,-8e-6 -2.09235,0.17796 -3.09375,0.53125 -0.92259,0.32546 -1.77951,0.713046 -2.59375,1.21875 -0.78889,0.489927 -1.49235,1.047707 -2.125,1.625 -0.61226,0.558653 -1.15158,1.068989 -1.5625,1.6875 a 1.50015,1.50015 0 0 0 1.59375,2.3125 c -0.20298,0.273901 -0.40307,0.525929 -0.59375,0.84375 -0.35339,0.588955 -0.66041,1.250305 -0.96875,1.96875 a 1.50015,1.50015 0 0 0 2.1875,1.84375 c 1.89272,-1.246342 3.66329,-1.991246 5.25,-2.3125 1.76298,-0.356972 3.16766,-0.531261 4.125,-0.53125 0.82476,-1.1e-5 1.6798,0.137284 2.625,0.4375 l 3.34375,1.125 0.0937,0.03125 c 1.24201,0.543996 2.46642,1.036869 3.71875,1.4375 1.36371,0.436245 2.76311,0.656231 4.15625,0.65625 1.8807,-1.9e-5 3.54725,-0.317985 5,-1 0.81477,-0.382548 1.50673,-0.849634 2.125,-1.375 0.62088,0.523347 1.30003,0.994542 2.09375,1.375 1.44112,0.690788 3.13677,0.999981 5.0625,1 1.39308,-1.9e-5 2.79249,-0.220014 4.15625,-0.65625 1.25225,-0.400628 2.4767,-0.893516 3.71875,-1.4375 0.0316,-0.01098 0.0622,-0.02031 0.0937,-0.03125 1.08292,-0.375212 2.14049,-0.703597 3.21875,-1.0625 0.99299,-0.330577 1.86906,-0.50001 2.59375,-0.5 1.01569,-1.1e-5 2.42657,0.174558 4.1875,0.53125 1.59061,0.322189 3.40075,1.063755 5.34375,2.3125 a 1.50015,1.50015 0 0 0 2.1875,-1.84375 c -0.3235,-0.753572 -0.67081,-1.419995 -1,-1.96875 -0.1906,-0.317603 -0.41314,-0.566021 -0.625,-0.84375 a 1.50015,1.50015 0 0 0 1.5,-2.3125 c -0.40975,-0.613458 -0.94937,-1.12798 -1.5625,-1.6875 -0.63267,-0.577242 -1.33621,-1.135088 -2.125,-1.625 -0.81079,-0.503506 -1.66902,-0.893907 -2.5625,-1.21875 C 642.9355,20.178348 641.94378,19.999992 640.9375,20 c -1.71341,-8e-6 -3.55218,0.224835 -5.5,0.71875 -1.85843,0.471204 -3.62295,1.023126 -5.34375,1.5625 -0.0186,0.0058 -0.044,-0.0058 -0.0625,0 -1.10687,0.289101 -2.17625,0.574621 -3.15625,0.84375 -0.91762,0.251957 -1.58749,0.343745 -1.875,0.34375 -0.20809,-4e-6 -0.42288,-0.05934 -0.78125,-0.28125 -0.37364,-0.231339 -0.71538,-0.519192 -1,-0.875 -0.27468,-0.343317 -0.414,-0.649503 -0.5625,-0.96875 1.51066,-0.181392 2.92055,-0.47512 4.09375,-0.96875 0.80328,-0.338011 1.45436,-0.710215 2,-1.21875 0.54564,-0.508535 0.99994,-1.246321 1,-2.09375 -6e-5,-1.023312 -0.13993,-1.954678 -0.40625,-2.8125 -0.19584,-0.630539 -0.41226,-1.552145 -0.65625,-2.625 a 1.50015,1.50015 0 0 0 0,-0.03125 c -0.18689,-0.74738 -0.30536,-1.310975 -0.34375,-1.75 -0.0424,-0.4841527 -0.0369,-0.9335921 0,-1.28125 0.0362,-0.3413048 0.10743,-0.7246489 0.21875,-1.125 0.14188,-0.5106227 0.26677,-1.0033201 0.40625,-1.5625 0.25168,-0.8635953 0.61434,-1.639692 1.0625,-2.3125 0.58757,-0.8822485 1.11216,-1.8564254 1.625,-2.90625 0.54515,-1.11614345 0.98831,-2.3614464 1.375,-3.78125 0.41784,-1.5345362 0.62495,-3.3885402 0.625,-5.59375 -5e-5,-1.803066 -0.2479,-3.643378 -0.75,-5.46875 -0.49129,-1.785653 -1.116,-3.420946 -1.875,-4.9375 -0.75309,-1.504463 -1.5705,-2.841911 -2.53125,-3.96875 -0.25155,-0.294987 -0.52942,-0.375012 -0.78125,-0.625 0.21935,-0.170274 0.46775,-0.297126 0.65625,-0.5 0.86615,-0.932245 1.37493,-2.181397 1.375,-3.46875 -6e-5,-1.398334 -0.50021,-2.751137 -1.46875,-3.71875 -0.93778,-0.936638 -2.23044,-1.468688 -3.5625,-1.46875 -1.43469,5.8e-5 -2.80639,0.466347 -3.8125,1.4375 -0.24467,0.236172 -0.37578,0.564868 -0.5625,0.84375 -0.19276,-0.279871 -0.3101,-0.608266 -0.5625,-0.84375 -0.99392,-0.927074 -2.32272,-1.437439 -3.6875,-1.4375 z m 4.25,8.0625 c 0.0276,0.03714 0.0338,0.08873 0.0625,0.125 0.0408,0.05167 0.1139,0.07447 0.15625,0.125 -0.063,0.04887 -0.126,0.104527 -0.1875,0.15625 -0.0623,-0.04029 -0.12488,-0.08641 -0.1875,-0.125 0.0705,-0.08158 0.0919,-0.195301 0.15625,-0.28125 z m -3.90625,13.15625 a 1.50015,1.50015 0 0 0 0.96875,0.71875 1.50015,1.50015 0 0 0 -0.96875,0.71875 1.50015,1.50015 0 0 0 -1,-0.71875 1.50015,1.50015 0 0 0 1,-0.71875 z"
         id="path4039"
         style="font-size:73.72000122px;font-style:normal;font-variant:normal;font-weight:normal;font-stretch:normal;line-height:125%;letter-spacing:0px;word-spacing:0px;fill:#ffffff;fill-opacity:1;stroke:none;font-family:DiagramTTOldstyle;-inkscape-font-specification:DiagramTTOldstyle"
         inkscape:original="M 616.09375 -31.375 C 615.06183 -31.374954 614.18839 -31.03138 613.5 -30.34375 C 612.81154 -29.65603 612.46872 -28.768839 612.46875 -27.6875 C 612.46872 -26.802555 612.73402 -26.04514 613.25 -25.40625 C 613.76591 -24.76728 614.4313 -24.32144 615.21875 -24.125 C 613.74438 -23.830993 612.26931 -23.13084 610.84375 -22 C 609.41813 -20.869087 608.16785 -19.561553 607.0625 -18.0625 C 605.95709 -16.563382 605.0699 -14.989792 604.40625 -13.34375 C 603.74255 -11.697652 603.40623 -10.202331 603.40625 -8.875 C 603.40623 -6.8606971 603.59326 -5.157331 603.9375 -3.78125 C 604.28169 -2.4051323 604.69628 -1.2128696 605.1875 -0.15625 C 605.67867 0.900399 606.17153 1.8963587 606.6875 2.78125 C 607.20342 3.6661649 607.62526 4.5801166 607.96875 5.5625 C 608.11721 6.1534443 608.25199 6.6898085 608.375 7.15625 C 608.49796 7.6227063 608.56972 8.0953072 608.59375 8.5625 C 608.61772 9.0297048 608.60471 9.535569 608.53125 10.125 C 608.45773 10.71444 608.32145 11.401588 608.125 12.1875 C 607.97799 13.268884 607.75694 14.148822 607.4375 14.8125 C 607.11801 15.476177 607.0535 16.271344 607.25 17.15625 C 607.39696 17.795177 608.09711 18.372058 609.375 18.9375 C 610.65283 19.502934 612.34244 19.884261 614.40625 20.03125 C 614.40622 20.571185 614.28369 21.122055 614.0625 21.6875 C 613.84124 22.252931 613.51792 22.758795 613.125 23.25 C 612.73201 23.741188 612.30367 24.149275 611.8125 24.46875 C 611.32127 24.788205 610.79141 24.96874 610.25 24.96875 C 609.66054 24.96874 608.89587 24.83246 607.9375 24.5625 C 606.97908 24.29252 605.94335 24.014209 604.8125 23.71875 C 603.09216 23.1788 601.31128 22.654691 599.46875 22.1875 C 597.62618 21.720294 595.91706 21.499993 594.34375 21.5 C 593.45883 21.499993 592.5854 21.642775 591.75 21.9375 C 590.91458 22.23221 590.14991 22.58879 589.4375 23.03125 C 588.72507 23.473693 588.09668 23.952797 587.53125 24.46875 C 586.96581 24.984684 586.51271 25.463787 586.21875 25.90625 C 587.05415 25.463787 587.87033 25.191979 588.65625 25.09375 C 589.44216 24.9955 590.25683 25.039006 591.09375 25.1875 C 590.40532 25.677936 589.84869 26.099778 589.40625 26.46875 C 588.96379 26.837698 588.56295 27.238533 588.21875 27.65625 C 587.87453 28.073941 587.54471 28.508789 587.25 29 C 586.95528 29.491182 586.67046 30.092809 586.375 30.78125 C 588.39077 29.453879 590.30644 28.618196 592.125 28.25 C 593.94354 27.881777 595.43311 27.687487 596.5625 27.6875 C 597.54638 27.687487 598.57485 27.844024 599.65625 28.1875 L 603.125 29.375 C 604.35334 29.916426 605.58411 30.388277 606.8125 30.78125 C 608.04084 31.174191 609.2701 31.374983 610.5 31.375 C 612.21878 31.374983 613.6706 31.096672 614.875 30.53125 C 616.07933 29.965796 616.98603 29.241645 617.625 28.40625 C 618.26389 29.241645 619.19534 29.965796 620.375 30.53125 C 621.55458 31.096672 623.0129 31.374983 624.78125 31.375 C 626.01107 31.374983 627.24034 31.174191 628.46875 30.78125 C 629.69707 30.388277 630.92783 29.916426 632.15625 29.375 C 633.28707 28.982028 634.39382 28.618196 635.5 28.25 C 636.60607 27.881777 637.62954 27.687487 638.5625 27.6875 C 639.74281 27.687487 641.24464 27.881777 643.0625 28.25 C 644.88024 28.618196 646.84091 29.453879 648.90625 30.78125 C 648.61071 30.092809 648.29465 29.491182 648 29 C 647.70522 28.508789 647.36889 28.073941 647 27.65625 C 646.63097 27.238533 646.22364 26.837698 645.78125 26.46875 C 645.33873 26.099778 644.82637 25.677936 644.1875 25.1875 C 645.02434 25.039006 645.80127 24.9955 646.5625 25.09375 C 647.3236 25.191979 648.11877 25.463787 648.90625 25.90625 C 648.61071 25.463787 648.15912 24.984684 647.59375 24.46875 C 647.02825 23.952797 646.39986 23.473693 645.6875 23.03125 C 644.97501 22.58879 644.21685 22.23221 643.40625 21.9375 C 642.59553 21.642775 641.77285 21.499993 640.9375 21.5 C 639.36411 21.499993 637.65499 21.720294 635.8125 22.1875 C 633.9699 22.654691 632.18901 23.1788 630.46875 23.71875 C 629.33782 24.014209 628.26435 24.29252 627.28125 24.5625 C 626.29806 24.83246 625.5399 24.96874 625 24.96875 C 624.45852 24.96874 623.9534 24.788205 623.4375 24.46875 C 622.92151 24.149275 622.45542 23.741188 622.0625 23.25 C 621.6695 22.758795 621.34619 22.252931 621.125 21.6875 C 620.90373 21.122055 620.81246 20.571185 620.8125 20.03125 C 622.97522 19.932255 624.75536 19.589431 626.15625 19 C 627.55705 18.41056 628.24995 17.750922 628.25 17.0625 C 628.24995 16.177594 628.12743 15.399922 627.90625 14.6875 C 627.68498 13.975078 627.46468 13.050134 627.21875 11.96875 C 627.02223 11.182839 626.8932 10.534193 626.84375 9.96875 C 626.79421 9.4033165 626.79421 8.8727051 626.84375 8.40625 C 626.8932 7.9398072 627.00197 7.4737091 627.125 7.03125 C 627.24794 6.588806 627.35297 6.0894445 627.5 5.5 C 627.79542 4.4666222 628.24126 3.5294231 628.78125 2.71875 C 629.32114 1.9081006 629.8205 1.0071543 630.3125 0 C 630.8044 -1.0071252 631.22549 -2.17913 631.59375 -3.53125 C 631.96191 -4.8833338 632.1562 -6.6054581 632.15625 -8.71875 C 632.1562 -10.389544 631.93515 -12.085657 631.46875 -13.78125 C 631.00225 -15.476786 630.40062 -17.043873 629.6875 -18.46875 C 628.97428 -19.893561 628.20311 -21.117074 627.34375 -22.125 C 626.4843 -23.132853 625.67538 -23.781499 624.9375 -24.125 C 625.87185 -24.174456 626.64227 -24.562285 627.28125 -25.25 C 627.92013 -25.937635 628.24995 -26.75306 628.25 -27.6875 C 628.24995 -28.768839 627.90713 -29.65603 627.21875 -30.34375 C 626.53028 -31.03138 625.7011 -31.374954 624.71875 -31.375 C 623.58783 -31.374954 622.64988 -31.03138 621.9375 -30.34375 C 621.22504 -29.65603 620.87496 -28.768839 620.875 -27.6875 C 620.87496 -26.901544 621.12726 -26.215145 621.59375 -25.625 C 622.06016 -25.034774 622.62403 -24.562174 623.3125 -24.21875 C 622.28057 -24.169217 621.33537 -23.612595 620.5 -22.53125 C 619.36908 -23.465611 618.25434 -24.022233 617.125 -24.21875 C 617.86138 -24.464684 618.49052 -24.885777 619.03125 -25.5 C 619.5719 -26.114143 619.84371 -26.852049 619.84375 -27.6875 C 619.84371 -28.768839 619.48713 -29.65603 618.75 -30.34375 C 618.01279 -31.03138 617.1256 -31.374954 616.09375 -31.375 z M 622.5625 -22.375 C 622.61195 -22.374963 622.857 -22.232931 623.25 -21.9375 L 623.96875 -21.1875 C 624.60764 -20.40155 625.22952 -19.500604 625.84375 -18.46875 C 626.45789 -17.43683 626.9885 -16.206815 627.40625 -14.78125 C 627.82391 -13.355627 628.09572 -11.653011 628.21875 -9.6875 C 628.34169 -7.721941 628.26267 -5.404692 627.96875 -2.75 L 627.8125 -1.71875 C 627.81245 -1.5222552 627.68343 -1.4962445 627.4375 -1.59375 C 627.29047 -1.6432284 627.2187 -1.9417974 627.21875 -2.53125 C 627.46468 -7.0037431 627.18637 -10.564763 626.375 -13.21875 C 625.56354 -15.872682 624.35304 -18.060904 622.78125 -19.78125 L 622.34375 -20.53125 L 621.625 -21.25 L 621.75 -21.5625 C 621.84895 -21.758942 622.03674 -21.959735 622.28125 -22.15625 C 622.42969 -22.304697 622.51446 -22.374963 622.5625 -22.375 z M 615.125 -18.09375 L 617.71875 -18.09375 L 617.71875 -12.40625 L 621.53125 -12.40625 L 621.53125 -9.46875 L 617.71875 -9.46875 L 617.71875 -1.875 L 615.125 -1.875 L 615.125 -9.46875 L 611.28125 -9.46875 L 611.28125 -12.40625 L 615.125 -12.40625 L 615.125 -18.09375 z M 617.625 3.28125 C 619.49226 3.2812613 621.1101 3.4167905 622.4375 3.6875 C 623.76481 3.9582312 624.85205 4.4365848 625.6875 5.125 L 624.78125 7.5 C 624.29076 7.0575555 623.40282 6.6559706 622.125 6.3125 C 620.8471 5.9690459 619.34527 5.7812588 617.625 5.78125 C 615.90465 5.7812588 614.40283 5.9690459 613.125 6.3125 C 611.84711 6.6559706 610.99042 7.0575555 610.5 7.5 L 609.75 5.34375 C 610.53588 4.60584 611.57236 4.0694758 612.875 3.75 C 614.17758 3.4305458 615.75767 3.2812613 617.625 3.28125 z M 617.625 6.8125 C 618.31339 7.8443947 619.24558 8.5040328 620.375 8.75 C 619.24558 8.9959789 618.31339 9.6243669 617.625 10.65625 C 616.93654 9.6243669 615.97833 8.9959789 614.75 8.75 C 615.97833 8.5040328 616.93654 7.8443947 617.625 6.8125 z M 610.5 8.65625 C 610.79394 9.0492129 611.13826 9.3935371 611.53125 9.6875 C 611.87618 9.9829725 612.29077 10.183765 612.78125 10.28125 C 611.65184 10.527227 610.79141 11.070844 610.25 11.90625 C 610.39845 11.169833 610.51373 10.625467 610.5625 10.28125 C 610.61121 9.937042 610.59746 9.3926753 610.5 8.65625 z M 624.78125 8.65625 C 624.63422 9.3926753 624.56896 9.937042 624.59375 10.28125 C 624.61845 10.625467 624.75398 11.169833 625 11.90625 C 624.26204 11.022849 623.41985 10.479233 622.4375 10.28125 C 622.87991 10.183765 623.288 9.9822226 623.65625 9.6875 C 624.02442 9.3927871 624.38825 9.0492129 624.78125 8.65625 z M 617.625 11.25 C 618.90282 11.250003 620.31988 11.450046 621.84375 11.84375 C 623.36754 12.23746 624.68308 12.781826 625.8125 13.46875 L 626.5625 16.40625 C 625.72705 15.767318 624.44552 15.165691 622.75 14.625 C 621.05439 14.084309 619.34527 13.812501 617.625 13.8125 C 616.74006 13.812501 615.85287 13.883517 614.96875 14.03125 C 614.08456 14.178984 613.25538 14.379027 612.46875 14.625 C 611.68205 14.870973 610.97615 15.180534 610.3125 15.5 C 609.64879 15.819464 609.11168 16.11228 608.71875 16.40625 L 609.46875 13.46875 C 610.5981 12.781826 611.90713 12.23746 613.40625 11.84375 C 614.9053 11.450046 616.29761 11.250003 617.625 11.25 z "
         inkscape:radius="1.5"
         sodipodi:type="inkscape:offset" />
      <path
         transform="translate(0,-8)"
         inkscape:connector-curvature="0"
         id="path67463"
         d="m 611.62218,47.504062 c -2.81307,0.108901 -5.60963,0.900713 -8.05426,2.287394 -0.42864,0.497774 -0.37325,1.263864 -0.60102,1.872378 -0.0512,0.552662 -0.45344,1.120549 -0.26902,1.669703 0.37578,0.583422 1.02217,0.07083 1.42469,-0.186757 3.91715,-2.1405 8.70638,-2.61273 12.96091,-1.219254 1.29251,0.393904 2.52786,0.967621 3.66843,1.678142 0.55246,0.187546 0.87552,-0.487669 0.6218,-0.923696 -0.26327,-0.909123 -0.39005,-1.876292 -0.73453,-2.750235 -0.51358,-0.478419 -1.25569,-0.703359 -1.88881,-1.021808 -2.24701,-0.931918 -4.69203,-1.438031 -7.12819,-1.405867 z"
         style="fill:#ffffff;fill-opacity:1;fill-rule:nonzero;stroke:none" />
      <path
         transform="translate(0,-8)"
         inkscape:connector-curvature="0"
         id="path67465"
         d="m 604.62681,45.033539 c -0.48598,0.491627 -0.0372,1.231913 -0.18409,1.846223 -0.024,0.623784 -0.25891,1.222669 -0.26145,1.840886 0.12157,0.518623 0.82878,0.49065 1.05117,0.06403 0.50602,-0.703465 1.34098,-0.974408 2.09167,-1.309964 0.44526,-0.321121 0.15367,-0.967629 -0.33616,-1.013822 -0.83092,-0.285652 -1.2882,-1.117644 -2.04899,-1.496721 -0.10405,0.02312 -0.2081,0.04624 -0.31215,0.06937 z"
         style="fill:#ffffff;fill-opacity:1;fill-rule:nonzero;stroke:none" />
      <path
         transform="translate(0,-8)"
         inkscape:connector-curvature="0"
         id="path67467"
         d="m 611.85163,43.187317 c -0.77069,0.726924 -1.54598,1.596653 -2.64661,1.771519 -0.56396,0.121161 -0.53607,0.975375 0.0294,1.080521 0.95238,0.274555 1.823,0.838647 2.39582,1.659466 0.57083,0.499106 1.0127,-0.300418 1.398,-0.642977 0.50981,-0.569984 1.2361,-0.846591 1.93404,-1.075544 0.46745,-0.27499 0.17661,-0.933722 -0.28257,-1.029469 -0.90497,-0.281715 -1.67311,-0.882668 -2.23575,-1.640791 -0.19041,-0.152634 -0.35682,-0.183513 -0.59228,-0.122725 z"
         style="fill:#ffffff;fill-opacity:1;fill-rule:nonzero;stroke:none" />
      <path
         transform="translate(0,-8)"
         inkscape:connector-curvature="0"
         id="path67469"
         d="m 618.96172,45.076226 c -0.77155,0.481619 -1.37333,1.24685 -2.27577,1.512729 -0.49218,0.32463 -0.15623,1.000955 0.34951,1.061845 0.84549,0.22287 1.47296,0.846264 2.09967,1.408678 0.52767,0.28805 0.95349,-0.373598 0.691,-0.824397 -0.37869,-0.846614 -0.27327,-1.773655 -0.16808,-2.662616 0.006,-0.33978 -0.368,-0.62443 -0.69633,-0.496239 z"
         style="fill:#ffffff;fill-opacity:1;fill-rule:nonzero;stroke:none" />
      <path
         transform="translate(0,-8)"
         inkscape:connector-curvature="0"
         id="path67471"
         d="m 611.43276,39.585582 c -2.39484,-9.2e-5 -4.92843,0.270834 -6.97136,1.622114 -0.41464,0.319107 -1.06427,0.73474 -0.71322,1.330307 0.29577,0.658941 0.38009,1.450339 0.81333,2.028608 0.52216,0.424598 1.01733,-0.294279 1.51934,-0.424168 2.71125,-1.164465 5.78031,-1.191151 8.67618,-0.88576 1.50308,0.206202 2.96647,0.646931 4.27672,1.416683 0.71565,0.16291 0.79036,-0.708951 1.00233,-1.163658 0.14988,-0.57947 0.50918,-1.152861 0.4834,-1.753368 -0.19248,-0.547097 -0.86086,-0.727307 -1.31498,-1.026207 -2.40925,-1.171592 -5.15118,-1.180608 -7.77174,-1.144551 z"
         style="fill:#ffffff;fill-opacity:1;fill-rule:nonzero;stroke:none" />
      <path
         transform="translate(0,-8)"
         inkscape:connector-curvature="0"
         id="path67473"
         d="m 609.26371,18.255308 c -0.3953,0.545995 -0.11373,1.296448 -0.20632,1.931554 -0.009,1.214826 -0.0188,2.429645 -0.0285,3.644465 -1.16624,0.0362 -2.35596,-0.07222 -3.50759,0.054 -0.59546,0.285446 -0.241,1.108651 -0.33692,1.640154 0.0512,0.69617 -0.11371,1.427426 0.10138,2.09701 0.54693,0.396456 1.29824,0.106102 1.93426,0.19476 0.60207,0 1.20414,0 1.80621,0 0.0181,2.391987 -0.0361,4.795726 0.027,7.180412 0.19213,0.680559 1.06109,0.333721 1.58178,0.417914 0.61774,-0.07756 1.35891,0.178016 1.88874,-0.172086 0.31601,-0.544305 0.0684,-1.252154 0.14691,-1.863561 0,-1.855116 0,-3.710231 0,-5.565347 1.15244,-0.04904 2.33017,0.04493 3.467,-0.09573 0.58737,-0.292024 0.2374,-1.10734 0.33216,-1.638442 -0.049,-0.668083 0.10903,-1.369752 -0.10138,-2.011636 -0.54506,-0.394608 -1.29463,-0.118907 -1.92881,-0.214184 -0.59054,-0.0076 -1.18109,-0.01369 -1.77164,-0.0206 -0.0328,-1.75325 0.009,-3.518982 -0.0676,-5.264608 -0.19585,-0.677245 -1.06071,-0.331361 -1.58114,-0.415461 -0.58172,0.04421 -1.20065,-0.102066 -1.75552,0.101382 z"
         style="fill:#ffffff;fill-opacity:1;fill-rule:nonzero;stroke:none" />
      <path
         transform="translate(0,-8)"
         inkscape:connector-curvature="0"
         id="path67475"
         d="m 616.94475,13.957238 c -0.72734,0.136689 -1.22307,0.872009 -1.46471,1.512729 0.24048,0.621539 0.89342,0.985846 1.18457,1.598103 1.02587,1.265533 1.9901,2.608011 2.65195,4.111313 1.41767,2.903517 1.83406,6.167283 1.83315,9.369821 0.0623,1.541412 -0.0968,3.101521 0.10645,4.63159 0.15838,0.636072 1.15062,0.777046 1.39,0.125393 0.29641,-1.091842 0.33723,-2.249506 0.41724,-3.377546 0.0754,-2.925282 0.23919,-5.900516 -0.44055,-8.77217 -0.68806,-3.231666 -2.25038,-6.328577 -4.61092,-8.652303 -0.30133,-0.255773 -0.63445,-0.595434 -1.06718,-0.54693 z"
         style="fill:#ffffff;fill-opacity:1;fill-rule:nonzero;stroke:none" />
      <text
         sodipodi:linespacing="125%"
         id="text3091"
         y="43.317398"
         x="575.1853"
         style="font-size:73.72000122px;font-style:normal;font-variant:normal;font-weight:normal;font-stretch:normal;line-height:125%;letter-spacing:0px;word-spacing:0px;fill:#000000;fill-opacity:1;stroke:none;font-family:DiagramTTOldstyle;-inkscape-font-specification:DiagramTTOldstyle"
         xml:space="preserve"><tspan
           y="43.317398"
           x="575.1853"
           id="tspan3093"
           sodipodi:role="line">l</tspan></text>
    </g>
  </g>
</svg>
