<?xml version="1.0" encoding="UTF-8" standalone="no"?>
<!-- Created with Inkscape (http://www.inkscape.org/) -->

<svg
   xmlns:dc="http://purl.org/dc/elements/1.1/"
   xmlns:cc="http://creativecommons.org/ns#"
   xmlns:rdf="http://www.w3.org/1999/02/22-rdf-syntax-ns#"
   xmlns:svg="http://www.w3.org/2000/svg"
   xmlns="http://www.w3.org/2000/svg"
   xmlns:sodipodi="http://sodipodi.sourceforge.net/DTD/sodipodi-0.dtd"
   xmlns:inkscape="http://www.inkscape.org/namespaces/inkscape"
   width="64px"
   height="64px"
   id="svg4261"
   version="1.1"
   inkscape:version="0.48.2 r9819"
   sodipodi:docname="bq.svg">
  <defs
     id="defs4263" />
  <sodipodi:namedview
     id="base"
     pagecolor="#ffffff"
     bordercolor="#666666"
     borderopacity="1.0"
     inkscape:pageopacity="0.0"
     inkscape:pageshadow="2"
     inkscape:zoom="5.5"
     inkscape:cx="34.363636"
     inkscape:cy="32"
     inkscape:current-layer="layer1"
     showgrid="true"
     inkscape:document-units="px"
     inkscape:grid-bbox="true"
     inkscape:window-width="984"
     inkscape:window-height="614"
     inkscape:window-x="324"
     inkscape:window-y="105"
     inkscape:window-maximized="0" />
  <metadata
     id="metadata4266">
    <rdf:RDF>
      <cc:Work
         rdf:about="">
        <dc:format>image/svg+xml</dc:format>
        <dc:type
           rdf:resource="http://purl.org/dc/dcmitype/StillImage" />
        <dc:title></dc:title>
      </cc:Work>
    </rdf:RDF>
  </metadata>
  <g
     id="layer1"
     inkscape:label="Layer 1"
     inkscape:groupmode="layer">
    <g
       id="g4230"
       transform="matrix(0.88,0,0,0.88,-697.5104,6.4501042)">
      <g
         style="fill:#4d4d4d"
         transform="translate(825.83364,-6.3306902)"
         id="layer1-28-2-4"
         inkscape:label="Layer 1">
        <path
           transform="translate(-27.833647,6.4567081)"
           d="m 26.21875,0.4375 a 1.50015,1.50015 0 0 0 -1.34375,1.5 l 0,13.8125 C 24.074288,14.910819 23.263638,14.091506 22.28125,13.34375 21.037883,12.397463 19.705693,11.592877 18.3125,10.9375 16.860108,10.254381 15.421911,9.8750451 14,9.875 c -1.775714,4.05e-5 -3.476536,0.269517 -5.0625,0.875 -1.5597622,0.595548 -2.9644123,1.45833 -4.125,2.53125 -1.1698555,1.081541 -2.0636798,2.39262 -2.71875,3.875 -0.6672309,1.509919 -1.0000097,3.131161 -1,4.84375 -9.5e-6,1.729714 0.2779584,3.441516 0.875,5.0625 0.5707785,1.54978 1.3321401,3.038442 2.25,4.46875 0.9017853,1.405333 1.8838355,2.72565 2.96875,3.96875 0.5806487,0.665344 1.1403541,1.271838 1.71875,1.90625 -0.055005,0.03477 -0.1340895,0.05738 -0.1875,0.09375 -0.6236317,0.424626 -1.1776344,1.011424 -1.40625,1.8125 a 1.50015,1.50015 0 0 0 -0.03125,0.125 c -0.047483,0.235915 -0.1250421,0.441388 -0.125,0.875 -1.47e-5,0.151643 -1.47e-5,0.315578 0,0.46875 -2.13e-5,0.879083 0.2874153,1.75027 0.8125,2.40625 0.360089,0.449912 0.7690493,0.848863 1.25,1.21875 l 0,0.03125 c 0.018393,0.01405 0.043929,0.01734 0.0625,0.03125 0.5576885,0.467234 0.990861,0.865878 1.25,1.125 0.283481,0.283499 0.495165,0.524486 0.59375,0.65625 a 1.50015,1.50015 0 0 0 0.03125,0.03125 c 0.271046,0.330783 0.565271,0.899015 0.78125,1.71875 0.218942,0.831111 0.312482,1.699111 0.3125,2.59375 -1.8e-5,0.624202 -0.04347,1.252828 -0.15625,1.90625 -0.101164,0.585917 -0.261471,1.024883 -0.40625,1.34375 -0.0071,0.01563 -0.02413,0.0476 -0.03125,0.0625 -0.07907,0.07197 -0.18393,0.120396 -0.25,0.1875 -0.161084,0.159431 -0.336816,0.336791 -0.5625,0.5625 -0.520564,0.520504 -0.781281,1.309297 -0.78125,2 -3.1e-5,1.208691 0.687677,2.338179 1.65625,3.125 0.0097,0.0082 0.02153,0.02311 0.03125,0.03125 0.874573,0.732294 1.993275,1.276728 3.375,1.71875 1.346696,0.430805 2.907984,0.780868 4.65625,1.09375 1.755721,0.314199 3.64795,0.563092 5.71875,0.71875 2.071711,0.155702 4.240514,0.218736 6.5,0.21875 2.259411,-1.4e-5 4.428218,-0.06305 6.5,-0.21875 2.070723,-0.155658 3.962964,-0.404554 5.71875,-0.71875 1.748186,-0.312881 3.309501,-0.662954 4.65625,-1.09375 1.381643,-0.442023 2.50041,-0.986524 3.375,-1.71875 0.0097,-0.0081 0.0216,-0.02307 0.03125,-0.03125 0.968476,-0.786819 1.656151,-1.916406 1.65625,-3.125 -9.9e-5,-0.690562 -0.260871,-1.479507 -0.78125,-2 -0.225666,-0.225616 -0.401703,-0.403274 -0.5625,-0.5625 A 1.50015,1.50015 0 0 0 52.5,54 c -0.102717,-0.08593 -0.167538,-0.182841 -0.21875,-0.25 -0.140343,-0.326398 -0.289422,-0.746033 -0.40625,-1.3125 -0.138785,-0.672435 -0.218795,-1.272861 -0.21875,-1.84375 -4.9e-5,-0.893805 0.104316,-1.739314 0.3125,-2.46875 0.198386,-0.695415 0.495645,-1.200611 0.875,-1.65625 a 1.50015,1.50015 0 0 0 0.28125,-0.5 1.50015,1.50015 0 0 0 0,-0.03125 c 0.244682,-0.249361 0.507253,-0.490395 0.71875,-0.65625 0.357797,-0.280667 0.618428,-0.560819 0.875,-0.8125 0.05555,-0.04161 0.102291,-0.08211 0.15625,-0.125 0.44307,-0.352146 0.819001,-0.734981 1.15625,-1.15625 0.524922,-0.65594 0.812412,-1.527266 0.8125,-2.40625 -6.1e-5,-0.152642 -6.1e-5,-0.317648 0,-0.46875 -1.74e-4,-0.432993 -0.07763,-0.6393 -0.125,-0.875 A 1.50015,1.50015 0 0 0 56.6875,39.3125 C 56.458821,38.511501 55.904865,37.924615 55.28125,37.5 c -0.05341,-0.03637 -0.132497,-0.05898 -0.1875,-0.09375 0.578378,-0.634397 1.138072,-1.240922 1.71875,-1.90625 1.084815,-1.243077 2.066909,-2.563453 2.96875,-3.96875 0.91776,-1.430279 1.679157,-2.919017 2.25,-4.46875 0.596943,-1.620948 0.874926,-3.332832 0.875,-5.0625 -7.5e-5,-1.712543 -0.332872,-3.333866 -1,-4.84375 -0.655134,-1.482332 -1.548996,-2.793472 -2.71875,-3.875 C 58.026865,12.208367 56.622177,11.345548 55.0625,10.75 53.476485,10.14453 51.775646,9.8750405 50,9.875 c -1.461026,4.45e-5 -2.918827,0.377973 -4.375,1.0625 -1.395985,0.656258 -2.713036,1.453423 -3.9375,2.40625 -0.944289,0.734799 -1.765762,1.555841 -2.5625,2.375 l 0,-13.78125 a 1.50015,1.50015 0 0 0 -1.5,-1.5 l -11.25,0 a 1.50015,1.50015 0 0 0 -0.15625,0 z M 11,15.5625 c -0.01647,0.01949 -0.139504,0.03126 0.03125,0.03125 0.170698,1.1e-5 0.09955,0.0037 0.125,0.03125 0.02829,0.03067 0.03124,-0.02483 0.03125,0.21875 -5e-6,0.277453 -0.02508,0.209635 0.0625,0.125 0.08758,-0.08464 0.100962,-0.03124 -0.21875,-0.03125 -0.282823,8e-6 -0.213757,-0.05751 -0.125,0.03125 0.08876,0.08876 0.03125,0.157838 0.03125,-0.125 -8e-6,-0.254842 0.03737,-0.251512 0.0625,-0.28125 z m 42,0 c 0.02515,0.02976 0.06247,0.02628 0.0625,0.28125 -1.6e-5,0.282856 -0.05748,0.213732 0.03125,0.125 0.08873,-0.08873 0.157768,-0.03124 -0.125,-0.03125 -0.254952,1.6e-5 -0.251718,-0.03754 -0.28125,-0.0625 0.01951,0.01648 0.03123,0.139386 0.03125,-0.03125 -1.9e-5,-0.170527 -0.0062,-0.118786 0.0625,-0.1875 0.06855,-0.06856 0.01667,-0.06249 0.1875,-0.0625 0.170627,1.1e-5 0.04758,-0.01193 0.03125,-0.03125 z m -34.90625,0.34375 c 0.170686,1.1e-5 0.09953,0.0037 0.125,0.03125 0.02829,0.03067 0.03124,-0.02484 0.03125,0.21875 -9e-6,0.163198 0.01344,0.161313 -0.0625,0.25 -0.03238,0.03782 0.06552,9e-6 -0.09375,0 0.03033,-2e-6 0.01775,0.03769 -0.15625,-0.125 -0.1364,-0.127491 -0.09375,-0.06983 -0.09375,-0.125 -6e-6,-0.146434 -0.05914,-0.04657 0.03125,-0.125 0.176569,-0.153188 0.234761,-0.125001 0.21875,-0.125 z m 27.8125,0 c -0.01617,-10e-7 -0.0957,-0.06441 0.03125,0.0625 0.06871,0.06873 0.06248,0.01679 0.0625,0.1875 -1e-5,0.08217 0.02155,0.06326 -0.09375,0.1875 -0.128003,0.137909 -0.03048,0.0625 0,0.0625 -0.1594,9e-6 -0.0615,0.03768 -0.09375,0 -0.07593,-0.08866 -0.06252,-0.08695 -0.0625,-0.25 -2.4e-5,-0.243473 0.003,-0.188091 0.03125,-0.21875 0.02532,-0.02745 -0.04581,-0.03124 0.125,-0.03125 z m -39.625,4.5 C 6.1966328,20.318685 6.249996,20.305285 6.25,20.625 c -3.7e-6,0.282842 -0.057496,0.213746 0.03125,0.125 0.088746,-0.08875 0.1578037,-0.03124 -0.125,-0.03125 -0.25489,1.3e-5 -0.2516135,-0.03745 -0.28125,-0.0625 0.019502,0.01648 0.031246,0.139452 0.03125,-0.03125 -3.5e-6,-0.168035 -0.03451,-0.03293 0.03125,-0.09375 0.06708,-0.06204 0.035175,-0.06249 0.21875,-0.0625 0.2774231,8e-6 0.2096172,0.02507 0.125,-0.0625 z m 51.4375,0 c -0.08464,0.08759 -0.152479,0.06251 0.125,0.0625 0.277385,8e-6 0.2096,0.02505 0.125,-0.0625 -0.0846,-0.08755 -0.03127,-0.100976 -0.03125,0.21875 -1.7e-5,0.282854 -0.05748,0.213729 0.03125,0.125 0.08873,-0.08873 0.157766,-0.03124 -0.125,-0.03125 -0.28286,7e-6 -0.213771,-0.05752 -0.125,0.03125 0.08877,0.08877 0.03123,0.157825 0.03125,-0.125 -1.8e-5,-0.319699 0.05339,-0.30634 -0.03125,-0.21875 z M 13.125,20.84375 c -0.497276,0.246784 -0.989445,0.502028 -1.375,0.90625 -1.079713,1.131987 -1.53126,2.717019 -1.53125,4.5 -5e-6,0.401964 0.09866,0.793943 0.15625,1.1875 -0.347735,-0.956882 -0.500012,-1.894761 -0.5,-2.78125 -9.8e-6,-0.446999 0.07418,-0.848652 0.3125,-1.34375 0.243715,-0.506314 0.607005,-0.976794 1.0625,-1.375 0.447742,-0.391409 1.027436,-0.751888 1.78125,-1.0625 0.02859,-0.01178 0.06492,-0.01996 0.09375,-0.03125 z m 37.75,0 c 0.02884,0.01129 0.06516,0.01947 0.09375,0.03125 0.753758,0.310616 1.33338,0.671028 1.78125,1.0625 0.45546,0.398226 0.81868,0.868587 1.0625,1.375 0.238291,0.495151 0.312458,0.896635 0.3125,1.34375 -4.4e-5,0.761605 -0.200599,1.564823 -0.46875,2.375 0.02584,-0.263257 0.124988,-0.515 0.125,-0.78125 -3.3e-5,-1.782975 -0.451546,-3.368022 -1.53125,-4.5 -0.385552,-0.404218 -0.877729,-0.659466 -1.375,-0.90625 z M 16,25.1875 c 0.01207,0.0018 0.04208,-0.0034 0.0625,0 0.03268,0.0054 0.0435,0.02244 0.09375,0.03125 0.163297,0.02864 0.425805,0.06261 0.75,0.125 0.358447,0.06901 0.914944,0.324499 1.625,0.8125 0.561073,0.385666 1.173423,1.051641 1.75,2.09375 0.06021,0.108841 0.101532,0.309663 0.15625,0.4375 -0.02895,0.008 -0.06569,-0.0093 -0.09375,0 A 1.50015,1.50015 0 0 0 19.75,29.0625 c -0.230507,0.230501 -0.421096,0.33228 -0.65625,0.375 0.22551,-0.04098 0.235375,0.02466 0.03125,-0.09375 -0.204125,-0.118412 -0.543645,-0.388059 -0.96875,-0.8125 A 1.50015,1.50015 0 0 0 17.5625,28.1875 c -0.444592,-0.149671 -0.986771,-0.06216 -1.5,0.125 -0.0342,-0.04823 -0.09177,-0.108371 -0.125,-0.15625 C 15.433714,27.430444 15.249988,26.794438 15.25,26.25 c -1.7e-5,-0.837807 0.223353,-1.098638 0.09375,-0.96875 -0.08187,0.08205 0.216183,-0.05367 0.65625,-0.09375 z m 16,0 c 0.363575,1.4e-5 0.539342,0.07556 0.78125,0.28125 0.18229,0.155037 0.218729,0.196021 0.21875,0.5625 -1.8e-5,0.288939 -0.03682,0.392876 -0.28125,0.625 -0.267325,0.253847 -0.421276,0.312509 -0.71875,0.3125 -0.297591,9e-6 -0.451549,-0.05873 -0.71875,-0.3125 -0.244464,-0.232121 -0.281265,-0.336162 -0.28125,-0.625 -1.8e-5,-0.366392 0.03642,-0.407456 0.21875,-0.5625 C 31.460527,25.263144 31.636315,25.187514 32,25.1875 z m 15.9375,0 c 0.483168,0.01827 0.693869,0.130953 0.6875,0.125 -0.09626,-0.09 0.124956,0.136165 0.125,0.9375 -3.3e-5,0.538233 -0.197984,1.153706 -0.71875,1.875 -0.035,0.04847 -0.08925,0.107473 -0.125,0.15625 C 47.402393,28.106958 46.870261,28.041776 46.4375,28.1875 A 1.50015,1.50015 0 0 0 45.875,28.5 c -0.449899,0.426567 -0.836941,0.717048 -1.0625,0.84375 -0.225559,0.126702 -0.241031,0.04189 0.03125,0.09375 -0.190693,-0.0363 -0.3311,-0.112306 -0.59375,-0.375 a 1.50015,1.50015 0 0 0 -0.59375,-0.375 c -0.04676,-0.01542 -0.107082,0.01194 -0.15625,0 0.05603,-0.128659 0.0951,-0.326981 0.15625,-0.4375 0.586215,-1.059651 1.172456,-1.718278 1.71875,-2.09375 0.692401,-0.475912 1.291036,-0.739022 1.6875,-0.8125 0.338101,-0.06265 0.580694,-0.09606 0.75,-0.125 0.0572,-0.0098 0.08983,-0.02565 0.125,-0.03125 z m -9.15625,1.59375 c -0.676117,1.617563 -1.000045,3.516125 -1,5.78125 -2.8e-5,0.445056 0.243592,0.925681 0.5,1.375 -0.333605,-0.0121 -0.624803,-0.0238 -0.96875,-0.03125 0.06526,-2.900725 0.484251,-5.292668 1.3125,-6.875 0.05047,-0.09643 0.105126,-0.156212 0.15625,-0.25 z M 25.3125,27.375 c 0.275583,0.629754 0.630577,1.086801 0.84375,1.84375 0.350519,1.244842 0.411638,2.953538 0.46875,4.6875 -0.345908,0.0077 -0.634463,0.01897 -0.96875,0.03125 0.251937,-0.454184 0.468731,-0.940617 0.46875,-1.375 -2.7e-5,-2.001518 -0.288465,-3.679408 -0.8125,-5.1875 z M 32,31.875 c -0.01618,-1e-6 0.03985,-0.02988 0.21875,0.125 0.136596,0.11829 0.03124,-0.02274 0.03125,0.03125 -1.2e-5,0.148146 -0.0018,0.132944 -0.09375,0.21875 -0.176252,0.164421 -0.186668,0.124999 -0.15625,0.125 -0.159402,4e-6 -0.08422,0.01512 -0.15625,-0.0625 -0.07449,-0.08024 -0.09376,-0.110614 -0.09375,-0.28125 -6e-6,-0.07909 -0.05039,0.01914 0.0625,-0.09375 0.06859,-0.06859 0.01674,-0.06249 0.1875,-0.0625 z m -10.71875,1.15625 c 0.08583,0.403683 0.199821,0.798719 0.46875,1.125 -0.204454,0.02262 -0.488779,0.0061 -0.6875,0.03125 -0.495678,0.0628 -1.07971,0.150301 -1.59375,0.21875 0.07149,-0.210501 0.18748,-0.414981 0.1875,-0.625 -1e-6,-0.0084 1.03e-4,-0.02278 0,-0.03125 0.456656,-0.08923 0.898496,-0.270347 1.28125,-0.5 0.120313,-0.07219 0.22611,-0.146688 0.34375,-0.21875 z m 21.375,0 c 0.09253,0.06094 0.190303,0.12693 0.28125,0.1875 0.400371,0.266731 0.879166,0.414256 1.375,0.5 3.4e-5,0.05378 -0.03612,0.10305 -0.03125,0.15625 0.01766,0.193583 0.150788,0.351347 0.21875,0.53125 -0.515798,-0.06813 -1.094101,-0.156218 -1.59375,-0.21875 -0.201654,-0.02523 -0.48059,-0.0086 -0.6875,-0.03125 0.267349,-0.35197 0.375986,-0.731654 0.4375,-1.125 z M 32,37.65625 c 0.07512,2e-6 0.104621,0.0089 0.25,0.125 0.0087,0.03934 0.0374,0.0343 -0.03125,0.09375 C 32.03986,38.029881 31.983757,38 32,38 c -0.170721,3e-6 -0.118915,0.0061 -0.1875,-0.0625 -0.06864,-0.06863 -0.06251,-0.01687 -0.0625,-0.1875 -6e-6,-0.08192 -0.01016,-0.0243 0.03125,-0.0625 0.03053,-0.02816 -0.02493,-0.03124 0.21875,-0.03125 z m -8.875,0.625 c 0.07191,0.08511 0.09374,0.111544 0.09375,0.21875 -7e-6,0.107239 -0.02187,0.133685 -0.09375,0.21875 0.04657,-0.0551 0.200982,-0.0625 -0.03125,-0.0625 -0.150551,3e-6 -0.03451,0.0505 -0.15625,-0.0625 -0.122589,-0.113763 -0.09375,-0.09287 -0.09375,-0.09375 0,-8.47e-4 -0.02887,0.02005 0.09375,-0.09375 0.156422,-0.145182 0.07417,-0.09375 0.15625,-0.09375 0.170639,4e-6 0.04763,-0.01187 0.03125,-0.03125 z m 17.75,0 c -0.01652,0.01955 -0.139516,0.03125 0.03125,0.03125 0.08194,2e-6 -3.14e-4,-0.05153 0.15625,0.09375 0.122609,0.113813 0.09375,0.09276 0.09375,0.09375 0,0.001 0.02883,-0.02003 -0.09375,0.09375 -0.121878,0.113104 -0.0058,0.0625 -0.15625,0.0625 -0.23235,4e-6 -0.07796,0.0072 -0.03125,0.0625 -0.07186,-0.08502 -0.09376,-0.111658 -0.09375,-0.21875 -1.1e-5,-0.107059 0.02186,-0.133685 0.09375,-0.21875 z m -26.65625,1.9375 c -0.002,0 -0.0661,-0.05613 0.0625,0.0625 0.02757,0.02544 0.03124,-0.04569 0.03125,0.125 -7e-6,0.170721 0.0061,0.118851 -0.0625,0.1875 -0.126879,0.126874 -0.04745,0.0625 -0.03125,0.0625 -0.16812,2e-6 -0.251047,-0.01767 -0.375,-0.125 -0.0898,-0.07775 -0.03125,0.02303 -0.03125,-0.125 -5e-6,-0.148006 -0.0515,0.0099 0,-0.03125 0.128612,-0.102735 0.226757,-0.156247 0.40625,-0.15625 z m 35.5625,0 c 0.179366,3e-6 0.152075,0.001 0.21875,0.0625 0.02757,0.02544 0.03123,-0.04575 0.03125,0.125 -2e-5,0.170779 0.0061,0.118845 -0.0625,0.1875 -0.06711,0.0671 -0.01951,0.0625 -0.1875,0.0625 0.01604,0 0.09549,0.06426 -0.03125,-0.0625 -0.06865,-0.06864 -0.06252,-0.0169 -0.0625,-0.1875 -1.8e-5,-0.170573 0.0037,-0.09956 0.03125,-0.125 0.128451,-0.118517 0.06435,-0.0625 0.0625,-0.0625 z M 32,47.75 c 0.469524,0.456507 0.933391,0.94989 1.4375,1.3125 C 32.933226,49.436242 32.472399,49.924265 32,50.375 31.527613,49.924283 31.066718,49.436232 30.5625,49.0625 31.066555,48.699899 31.530488,48.206489 32,47.75 z m 0,6.6875 c 4.078241,-5e-6 7.457741,0.107032 10.125,0.28125 2.409132,0.157354 4.181356,0.511803 5.5625,0.96875 0.03746,0.08168 0.07824,0.171442 0.125,0.25 l -0.03125,0 c 0.01815,0.04583 0.07374,0.0789 0.09375,0.125 -0.719787,-0.281725 -1.389201,-0.571983 -2.34375,-0.71875 -1.36066,-0.20921 -2.853671,-0.395833 -4.46875,-0.5 -1.596452,-0.102977 -3.193894,-0.161641 -4.8125,-0.1875 -1.607007,-0.02569 -3.029979,-0.03126 -4.25,-0.03125 -1.220097,-8e-6 -2.643068,0.0056 -4.25,0.03125 -1.618747,0.02586 -3.208419,0.08442 -4.78125,0.1875 -1.59175,0.104301 -3.04991,0.291442 -4.40625,0.5 -0.895,0.137603 -1.521356,0.433232 -2.21875,0.6875 0.0046,-0.01116 0.02682,-0.02024 0.03125,-0.03125 a 1.50015,1.50015 0 0 0 0.0625,-0.3125 c 1.378106,-0.448009 3.159384,-0.81269 5.59375,-0.96875 C 24.75301,54.544252 28.074186,54.437495 32,54.4375 z m -15.59375,1.25 c -0.01518,0.09246 0.008,0.142532 -0.0625,0.28125 -0.07657,0.150972 -0.142034,0.212645 -0.0625,0.09375 0.03312,-0.04952 0.07419,-0.251292 0.125,-0.375 z"
           id="path4207-1"
           style="font-size:76px;font-style:normal;font-variant:normal;font-weight:normal;font-stretch:normal;line-height:125%;letter-spacing:0px;word-spacing:0px;fill:#4d4d4d;fill-opacity:1;stroke:none;font-family:DiagramTTOldstyle;-inkscape-font-specification:DiagramTTOldstyle"
           inkscape:original="M 26.375 1.9375 L 26.375 20.09375 C 25.969857 19.283558 25.324228 18.38858 24.4375 17.375 C 23.550711 16.361482 22.540051 15.418042 21.375 14.53125 C 20.209894 13.644525 18.979345 12.888951 17.6875 12.28125 C 16.395608 11.673621 15.165832 11.375037 14 11.375 C 12.377993 11.375037 10.861881 11.624386 9.46875 12.15625 C 8.0755881 12.688187 6.8572869 13.438023 5.84375 14.375 C 4.8301894 15.312045 4.0508933 16.432649 3.46875 17.75 C 2.8865878 19.067412 2.5937414 20.48009 2.59375 22 C 2.5937414 23.570988 2.8430901 25.0871 3.375 26.53125 C 3.9068911 27.975443 4.6074926 29.376646 5.46875 30.71875 C 6.3299844 32.060889 7.2734242 33.309422 8.3125 34.5 C 9.3515471 35.690605 10.393457 36.840913 11.40625 37.90625 C 9.8352706 38.411875 8.9525404 39.009042 8.75 39.71875 C 8.6989599 39.972339 8.6562353 40.160978 8.65625 40.3125 C 8.6562353 40.464038 8.6562353 40.628181 8.65625 40.78125 C 8.6562353 41.388923 8.8211522 41.870408 9.125 42.25 C 9.4288176 42.629604 9.7808273 42.976649 10.1875 43.28125 C 10.795149 43.788416 11.264387 44.201908 11.59375 44.53125 C 11.923078 44.860599 12.160952 45.141198 12.3125 45.34375 C 12.768617 45.900393 13.1214 46.662477 13.375 47.625 C 13.628561 48.587524 13.74998 49.579426 13.75 50.59375 C 13.74998 51.303464 13.689271 52.01554 13.5625 52.75 C 13.43569 53.484451 13.253561 54.117833 13 54.625 C 12.948956 54.725498 12.882509 54.799228 12.78125 54.875 C 12.679954 54.950758 12.569236 55.054192 12.46875 55.15625 C 12.315656 55.307773 12.1343 55.490675 11.90625 55.71875 C 11.678164 55.94681 11.562482 56.251131 11.5625 56.65625 C 11.562482 57.365958 11.92674 58.017324 12.6875 58.625 C 13.346172 59.183176 14.327372 59.688628 15.59375 60.09375 C 16.860085 60.498848 18.333472 60.852404 20.03125 61.15625 C 21.728976 61.46007 23.598644 61.691433 25.625 61.84375 C 27.651293 61.996039 29.770309 62.062486 32 62.0625 C 34.229615 62.062486 36.348631 61.996039 38.375 61.84375 C 40.40128 61.691433 42.270948 61.46007 43.96875 61.15625 C 45.666452 60.852404 47.139839 60.498848 48.40625 60.09375 C 49.672552 59.688628 50.653752 59.183176 51.3125 58.625 C 52.073184 58.017324 52.437442 57.365958 52.4375 56.65625 C 52.437442 56.251131 52.32176 55.94681 52.09375 55.71875 C 51.865624 55.490675 51.684268 55.307773 51.53125 55.15625 C 51.228133 54.902663 51.050968 54.725498 51 54.625 C 50.746363 54.117833 50.557723 53.484451 50.40625 52.75 C 50.254664 52.01554 50.156194 51.303464 50.15625 50.59375 C 50.156194 49.579426 50.278386 48.604736 50.53125 47.71875 C 50.784001 46.832765 51.180281 46.109214 51.6875 45.5 L 51.75 45.1875 C 52.155053 44.731367 52.551333 44.372074 52.90625 44.09375 C 53.261049 43.815434 53.560406 43.534835 53.8125 43.28125 C 54.219097 42.976649 54.571106 42.629604 54.875 42.25 C 55.178772 41.870408 55.343689 41.388923 55.34375 40.78125 C 55.343689 40.628181 55.343689 40.464038 55.34375 40.3125 C 55.343689 40.160978 55.300964 39.972339 55.25 39.71875 C 55.047384 39.009042 54.164653 38.411875 52.59375 37.90625 C 53.606467 36.840913 54.648377 35.690605 55.6875 34.5 C 56.7265 33.309422 57.66994 32.060889 58.53125 30.71875 C 59.392431 29.376646 60.093033 27.975443 60.625 26.53125 C 61.156834 25.0871 61.406183 23.570988 61.40625 22 C 61.406183 20.48009 61.113336 19.067412 60.53125 17.75 C 59.949031 16.432649 59.169735 15.312045 58.15625 14.375 C 57.142637 13.438023 55.924336 12.688187 54.53125 12.15625 C 53.138043 11.624386 51.621931 11.375037 50 11.375 C 48.784613 11.375037 47.54259 11.673621 46.25 12.28125 C 44.957306 12.888951 43.733267 13.644525 42.59375 14.53125 C 41.454135 15.418042 40.443476 16.361482 39.53125 17.375 C 38.618933 18.38858 37.979041 19.283558 37.625 20.09375 L 37.625 1.9375 L 26.375 1.9375 z M 28.125 4.75 L 29.5 4.75 L 32 7.34375 L 34.5 4.75 L 35.875 4.75 L 35.875 6.1875 L 33.28125 8.78125 L 35.875 11.28125 L 35.875 12.59375 L 34.5 12.59375 L 32 10 L 29.5 12.59375 L 28.125 12.59375 L 28.125 11.28125 L 30.71875 8.78125 L 28.125 6.1875 L 28.125 4.75 z M 32 13.5625 C 33.012738 13.562535 33.896241 13.916091 34.65625 14.625 C 35.416178 15.333977 35.812458 16.260204 35.8125 17.375 C 35.812458 18.389353 35.416178 19.27131 34.65625 20.03125 C 33.896241 20.791247 33.012738 21.156277 32 21.15625 C 30.885136 21.156277 29.958908 20.791247 29.25 20.03125 C 28.541022 19.27131 28.187466 18.389353 28.1875 17.375 C 28.187466 16.260204 28.541022 15.333977 29.25 14.625 C 29.958908 13.916091 30.885136 13.562535 32 13.5625 z M 11.03125 14.09375 C 11.538394 14.093784 11.946149 14.264438 12.25 14.59375 C 12.553814 14.923129 12.687481 15.336621 12.6875 15.84375 C 12.687481 16.907583 12.146059 17.437531 11.03125 17.4375 C 9.967432 17.437531 9.4374846 16.907583 9.4375 15.84375 C 9.4374846 15.336621 9.5654141 14.923129 9.84375 14.59375 C 10.122054 14.264438 10.524072 14.093784 11.03125 14.09375 z M 52.96875 14.09375 C 53.475852 14.093784 53.87787 14.264438 54.15625 14.59375 C 54.43451 14.923129 54.562439 15.336621 54.5625 15.84375 C 54.562439 16.907583 54.032492 17.437531 52.96875 17.4375 C 52.46153 17.437531 52.048038 17.309601 51.71875 17.03125 C 51.389347 16.752961 51.218693 16.350943 51.21875 15.84375 C 51.218693 15.336621 51.389347 14.923129 51.71875 14.59375 C 52.048038 14.264438 52.46153 14.093784 52.96875 14.09375 z M 18.09375 14.40625 C 18.600887 14.406284 19.008642 14.576938 19.3125 14.90625 C 19.616307 15.235629 19.749974 15.649121 19.75 16.15625 C 19.749974 16.612418 19.616307 17.020173 19.3125 17.375 C 19.008642 17.729889 18.600887 17.90628 18.09375 17.90625 C 17.688616 17.90628 17.285825 17.729889 16.90625 17.375 C 16.526629 17.020173 16.343728 16.612418 16.34375 16.15625 C 16.343728 15.649121 16.526629 15.235629 16.90625 14.90625 C 17.285825 14.576938 17.688616 14.406284 18.09375 14.40625 z M 45.90625 14.40625 C 46.311308 14.406284 46.670602 14.576938 47 14.90625 C 47.329292 15.235629 47.499946 15.649121 47.5 16.15625 C 47.499946 16.612418 47.329292 17.020173 47 17.375 C 46.670602 17.729889 46.311308 17.90628 45.90625 17.90625 C 45.399037 17.90628 44.991282 17.729889 44.6875 17.375 C 44.383617 17.020173 44.24995 16.612418 44.25 16.15625 C 44.24995 15.649121 44.383617 15.235629 44.6875 14.90625 C 44.991282 14.576938 45.399037 14.406284 45.90625 14.40625 z M 32 15.40625 C 31.443322 15.406283 30.974084 15.588412 30.59375 15.96875 C 30.213343 16.349153 30.031214 16.818391 30.03125 17.375 C 30.031214 17.933217 30.213343 18.401682 30.59375 18.78125 C 30.974084 19.160877 31.443322 19.343779 32 19.34375 C 32.556602 19.343779 33.02584 19.160877 33.40625 18.78125 C 33.786581 18.401682 33.96871 17.933217 33.96875 17.375 C 33.96871 16.818391 33.786581 16.349153 33.40625 15.96875 C 33.02584 15.588412 32.556602 15.406283 32 15.40625 z M 6.15625 18.96875 C 7.2200389 18.968779 7.7499862 19.510201 7.75 20.625 C 7.7499862 21.688829 7.2200389 22.218776 6.15625 22.21875 C 5.6490769 22.218776 5.2355845 22.090846 4.90625 21.8125 C 4.5768937 21.534206 4.4062396 21.132189 4.40625 20.625 C 4.4062396 20.119413 4.5768937 19.742135 4.90625 19.4375 C 5.2355845 19.132923 5.6490769 18.968779 6.15625 18.96875 z M 15.28125 18.96875 C 15.635314 18.968779 16.214496 19.023752 17 19.125 C 17.785458 19.226307 18.668188 19.463408 19.65625 19.84375 C 20.64426 20.224149 21.64841 20.753323 22.6875 21.4375 C 23.726533 22.12173 24.669973 23.06517 25.53125 24.28125 C 26.392464 25.497378 27.087329 27.014263 27.59375 28.8125 C 28.100104 30.610776 28.332241 32.779801 28.28125 35.3125 C 25.596974 35.312513 23.251558 35.433932 21.25 35.6875 C 19.248388 35.941093 17.093157 36.239677 14.8125 36.59375 C 14.104309 35.936617 13.38495 35.156548 12.625 34.21875 C 11.865013 33.28098 11.165185 32.251318 10.53125 31.1875 C 9.8972823 30.123716 9.3738453 29.052347 8.96875 27.9375 C 8.5636248 26.822694 8.3749856 25.720075 8.375 24.65625 C 8.3749856 23.997583 8.5143898 23.340479 8.84375 22.65625 C 9.1730805 21.972072 9.6415452 21.344428 10.25 20.8125 C 10.858422 20.280627 11.607486 19.854887 12.46875 19.5 C 13.329977 19.145171 14.268453 18.968779 15.28125 18.96875 z M 48.71875 18.96875 C 49.731471 18.968779 50.669947 19.145171 51.53125 19.5 C 52.392438 19.854887 53.141502 20.280627 53.75 20.8125 C 54.358379 21.344428 54.826843 21.972072 55.15625 22.65625 C 55.485534 23.340479 55.624938 23.997583 55.625 24.65625 C 55.624938 25.720075 55.430562 26.822694 55 27.9375 C 54.569316 29.052347 54.039369 30.123716 53.40625 31.1875 C 52.773013 32.251318 52.072411 33.28098 51.3125 34.21875 C 50.552474 35.156548 49.846136 35.936617 49.1875 36.59375 C 46.906767 36.239677 44.745026 35.941093 42.71875 35.6875 C 40.692377 35.433932 38.353471 35.312513 35.71875 35.3125 C 35.616658 31.513444 36.140868 28.522399 37.28125 26.34375 C 38.421546 24.165145 39.761266 22.52684 41.28125 21.4375 C 42.801139 20.348213 44.281037 19.654122 45.75 19.375 C 47.21886 19.095936 48.211534 18.968779 48.71875 18.96875 z M 57.84375 18.96875 C 58.907487 18.968779 59.437435 19.510201 59.4375 20.625 C 59.437435 21.688829 58.907487 22.218776 57.84375 22.21875 C 56.779885 22.218776 56.249938 21.688829 56.25 20.625 C 56.249938 19.510201 56.779885 18.968779 57.84375 18.96875 z M 16.125 21.625 C 13.187155 21.625027 11.718732 23.159123 11.71875 26.25 C 11.718732 27.567403 12.078026 28.791442 12.8125 29.90625 C 13.546937 31.021095 14.380432 32.179459 15.34375 33.34375 L 16.28125 34.3125 C 16.534808 34.516615 16.777646 34.637261 17.03125 34.6875 C 17.284807 34.737766 17.529192 34.659844 17.78125 34.40625 C 18.034807 34.254734 18.156226 34.034845 18.15625 33.78125 C 18.156226 33.476659 18.077531 33.23382 17.875 33.03125 L 17.09375 31.875 C 16.131977 30.862241 15.351907 29.91229 14.71875 29 C 14.085551 28.087748 13.74998 27.162293 13.75 26.25 C 13.74998 25.237246 13.927145 24.573632 14.28125 24.21875 C 14.635315 23.863916 15.263732 23.687525 16.125 23.6875 C 16.176003 23.687525 16.528786 23.748234 17.1875 23.875 C 17.846168 24.001815 18.563981 24.34886 19.375 24.90625 C 20.185968 25.463687 20.935032 26.340679 21.59375 27.53125 C 22.252413 28.721862 22.562471 30.383888 22.5625 32.5625 C 22.562471 32.865575 22.678153 33.140437 22.90625 33.34375 C 23.134289 33.547093 23.40264 33.625015 23.65625 33.625 C 24.314911 33.625015 24.624969 33.272232 24.625 32.5625 C 24.624969 30.281838 24.314911 28.44993 23.65625 27.03125 C 22.99753 25.612612 22.193494 24.504255 21.28125 23.71875 C 20.368951 22.933294 19.431249 22.397609 18.46875 22.09375 C 17.506202 21.789943 16.73419 21.625027 16.125 21.625 z M 47.875 21.625 C 47.265734 21.625027 46.493722 21.789943 45.53125 22.09375 C 44.568675 22.397609 43.624462 22.933294 42.6875 23.71875 C 41.750441 24.504255 40.939894 25.612612 40.28125 27.03125 C 39.622513 28.44993 39.281205 30.281838 39.28125 32.5625 C 39.281205 33.272232 39.622513 33.625015 40.28125 33.625 C 40.989374 33.625015 41.343703 33.272232 41.34375 32.5625 C 41.343703 30.383888 41.685011 28.721862 42.34375 27.53125 C 43.002392 26.340679 43.720206 25.463687 44.53125 24.90625 C 45.342193 24.34886 46.096994 24.001815 46.78125 23.875 C 47.465401 23.748234 47.823921 23.687525 47.875 23.6875 C 48.685167 23.687525 49.276597 23.863916 49.65625 24.21875 C 50.035792 24.573632 50.249944 25.237246 50.25 26.25 C 50.249944 27.162293 49.908635 28.087748 49.25 29 C 48.591254 29.91229 47.816922 30.862241 46.90625 31.875 L 46.125 33.03125 C 45.871367 33.23382 45.755686 33.470921 45.78125 33.75 C 45.806711 34.029108 45.965117 34.254734 46.21875 34.40625 C 46.470732 34.659844 46.715117 34.737766 46.96875 34.6875 C 47.222278 34.637261 47.453641 34.516615 47.65625 34.3125 L 48.65625 33.34375 C 49.568467 32.179459 50.396225 31.021095 51.15625 29.90625 C 51.916161 28.791442 52.281192 27.567403 52.28125 26.25 C 52.281192 23.159123 50.812769 21.625027 47.875 21.625 z M 32 23.6875 C 32.658653 23.687525 33.243572 23.881901 33.75 24.3125 C 34.256348 24.743147 34.499959 25.321556 34.5 26.03125 C 34.499959 26.689963 34.256348 27.269145 33.75 27.75 C 33.243572 28.230896 32.658653 28.46877 32 28.46875 C 31.341271 28.46877 30.756352 28.230896 30.25 27.75 C 29.743576 27.269145 29.499965 26.689963 29.5 26.03125 C 29.499965 25.321556 29.743576 24.743147 30.25 24.3125 C 30.756352 23.881901 31.341271 23.687525 32 23.6875 z M 17.09375 29.59375 C 16.790667 29.491718 16.546283 29.547463 16.34375 29.75 C 16.241677 29.852069 16.193215 29.972715 16.21875 30.125 C 16.24424 30.277321 16.292702 30.430763 16.34375 30.53125 C 16.748838 30.936378 17.151629 31.295671 17.53125 31.625 C 17.910824 31.954362 18.32509 32.179215 18.78125 32.28125 C 19.187882 32.38177 19.649836 32.272599 20.15625 31.96875 C 20.662612 31.664934 21.137587 31.367123 21.59375 31.0625 C 21.847303 30.810483 21.847303 30.534848 21.59375 30.28125 C 21.391167 30.078713 21.117079 30.024514 20.8125 30.125 C 20.407363 30.530128 19.932388 30.80499 19.375 30.90625 C 18.817561 31.007545 18.057023 30.555519 17.09375 29.59375 z M 46.90625 29.59375 C 45.891875 30.555519 45.09435 31.007545 44.5625 30.90625 C 44.030549 30.80499 43.592561 30.530128 43.1875 30.125 C 42.882845 30.024514 42.608757 30.078713 42.40625 30.28125 C 42.152621 30.534848 42.152621 30.810483 42.40625 31.0625 C 42.862337 31.367123 43.325065 31.664934 43.78125 31.96875 C 44.237336 32.272599 44.711538 32.38177 45.21875 32.28125 C 45.674834 32.179215 46.076852 31.954362 46.40625 31.625 C 46.735543 31.295671 47.094836 30.936378 47.5 30.53125 C 47.803006 30.226662 47.858751 29.952574 47.65625 29.75 C 47.453641 29.547463 47.209257 29.491718 46.90625 29.59375 z M 32 30.375 C 32.405072 30.375018 32.80709 30.545672 33.1875 30.875 C 33.567832 31.204363 33.74996 31.576677 33.75 32.03125 C 33.74996 32.538427 33.567832 32.988907 33.1875 33.34375 C 32.80709 33.698623 32.405072 33.875014 32 33.875 C 31.492801 33.875014 31.079309 33.698623 30.75 33.34375 C 30.420618 32.988907 30.249964 32.538427 30.25 32.03125 C 30.249964 31.576677 30.420618 31.204363 30.75 30.875 C 31.079309 30.545672 31.492801 30.375018 32 30.375 z M 32 36.15625 C 32.405072 36.156262 32.80709 36.289929 33.1875 36.59375 C 33.567832 36.897594 33.74996 37.293875 33.75 37.75 C 33.74996 38.257171 33.567832 38.670664 33.1875 39 C 32.80709 39.329355 32.405072 39.500009 32 39.5 C 31.492801 39.500009 31.079309 39.329355 30.75 39 C 30.420618 38.670664 30.249964 38.257171 30.25 37.75 C 30.249964 37.293875 30.420618 36.897594 30.75 36.59375 C 31.079309 36.289929 31.492801 36.156262 32 36.15625 z M 23.09375 36.8125 C 23.600882 36.812511 24.0029 36.983166 24.28125 37.3125 C 24.55954 37.641856 24.718719 38.043874 24.71875 38.5 C 24.718719 38.956145 24.55954 39.358163 24.28125 39.6875 C 24.0029 40.016854 23.600882 40.156258 23.09375 40.15625 C 22.637585 40.156258 22.26108 40.016854 21.90625 39.6875 C 21.551364 39.358163 21.343723 38.956145 21.34375 38.5 C 21.343723 38.043874 21.551364 37.641856 21.90625 37.3125 C 22.26108 36.983166 22.637585 36.812511 23.09375 36.8125 z M 40.90625 36.8125 C 41.362339 36.812511 41.738844 36.983166 42.09375 37.3125 C 42.44856 37.641856 42.656201 38.043874 42.65625 38.5 C 42.656201 38.956145 42.44856 39.358163 42.09375 39.6875 C 41.738844 40.016854 41.362339 40.156258 40.90625 40.15625 C 40.399042 40.156258 39.997024 40.016854 39.71875 39.6875 C 39.440384 39.358163 39.281205 38.956145 39.28125 38.5 C 39.281205 38.043874 39.440384 37.641856 39.71875 37.3125 C 39.997024 36.983166 40.399042 36.812511 40.90625 36.8125 z M 14.21875 38.71875 C 14.62384 38.718759 14.983133 38.883676 15.3125 39.1875 C 15.641824 39.491342 15.812478 39.899097 15.8125 40.40625 C 15.812478 40.913419 15.641824 41.326911 15.3125 41.65625 C 14.983133 41.985602 14.62384 42.156256 14.21875 42.15625 C 13.713115 42.156256 13.255352 41.985602 12.875 41.65625 C 12.49461 41.326911 12.312482 40.913419 12.3125 40.40625 C 12.312482 39.899097 12.49461 39.491342 12.875 39.1875 C 13.255352 38.883676 13.713115 38.718759 14.21875 38.71875 z M 49.78125 38.71875 C 50.286809 38.718759 50.701848 38.883676 51.03125 39.1875 C 51.360538 39.491342 51.531192 39.899097 51.53125 40.40625 C 51.531192 40.913419 51.360538 41.326911 51.03125 41.65625 C 50.701848 41.985602 50.286809 42.156256 49.78125 42.15625 C 49.376084 42.156256 49.016791 41.985602 48.6875 41.65625 C 48.3581 41.326911 48.187446 40.913419 48.1875 40.40625 C 48.187446 39.899097 48.3581 39.491342 48.6875 39.1875 C 49.016791 38.883676 49.376084 38.718759 49.78125 38.71875 z M 32 40.9375 C 34.178589 40.937507 36.218911 41.003954 38.09375 41.15625 C 39.968501 41.30856 41.667514 41.527676 43.1875 41.78125 L 43.3125 41.78125 C 44.731883 42.135341 46.07083 42.501145 47.3125 42.90625 C 48.554063 43.311366 49.443304 43.774093 50 44.28125 C 49.594834 44.83944 49.339748 45.252933 49.1875 45.53125 C 49.035142 45.809573 48.85875 46.224611 48.65625 46.78125 C 48.353136 46.529217 47.730456 46.22986 46.84375 45.875 C 45.956939 45.520144 44.819122 45.173099 43.375 44.84375 C 41.930779 44.514408 40.237503 44.228072 38.3125 44 C 36.387409 43.771936 34.28064 43.656255 32 43.65625 C 29.719284 43.656255 27.612515 43.771936 25.6875 44 C 23.762421 44.228072 22.069145 44.514408 20.625 44.84375 C 19.180802 45.173099 18.005225 45.520144 17.09375 45.875 C 16.182229 46.22986 15.585835 46.529217 15.28125 46.78125 C 15.027648 46.224611 14.851257 45.809573 14.75 45.53125 C 14.648702 45.252933 14.40509 44.83944 14 44.28125 C 14.507141 43.774093 15.384134 43.311366 16.625 42.90625 C 17.865821 42.501145 19.174291 42.135341 20.59375 41.78125 L 20.8125 41.78125 C 22.33241 41.527676 24.019949 41.30856 25.84375 41.15625 C 27.667487 41.003954 29.719284 40.937507 32 40.9375 z M 32 45.71875 C 32.760703 46.629478 33.570476 47.385824 34.40625 47.96875 C 35.241943 48.551676 36.19763 48.910969 37.3125 49.0625 C 36.19763 49.215575 35.241943 49.579833 34.40625 50.1875 C 33.570476 50.795163 32.760703 51.545 32 52.40625 C 31.239221 51.545 30.429448 50.795163 29.59375 50.1875 C 28.757981 49.579833 27.759569 49.215575 26.59375 49.0625 C 27.759569 48.910969 28.757981 48.551676 29.59375 47.96875 C 30.429448 47.385824 31.239221 46.629478 32 45.71875 z M 15.59375 47.78125 C 16.303445 48.541992 17.064756 49.192585 17.875 49.75 C 18.685197 50.307412 19.579401 50.660968 20.59375 50.8125 C 18.718156 51.117103 17.116839 52.011308 15.75 53.53125 C 15.850483 53.126134 15.917703 52.749629 15.96875 52.34375 C 16.019753 51.937863 16.031228 51.530107 16.03125 51.125 C 16.031228 50.517332 15.976256 49.932412 15.875 49.375 C 15.773701 48.817586 15.695779 48.288411 15.59375 47.78125 z M 48.40625 47.78125 C 48.304145 48.288411 48.226223 48.817586 48.125 49.375 C 48.023668 49.932412 47.968696 50.517332 47.96875 51.125 C 47.968696 51.986243 48.03437 52.770503 48.1875 53.53125 C 46.870064 52.011308 45.281768 51.117103 43.40625 50.8125 C 44.420523 50.660968 45.314727 50.307412 46.125 49.75 C 46.935168 49.192585 47.696479 48.541992 48.40625 47.78125 z M 32 52.9375 C 36.103636 52.937495 39.508174 53.041703 42.21875 53.21875 C 44.92923 53.395787 47.096708 53.767328 48.71875 54.375 C 48.769721 54.477045 48.83043 54.646926 48.90625 54.875 C 48.98196 55.103061 49.085394 55.274488 49.1875 55.375 C 49.287949 55.628573 49.416652 55.865674 49.59375 56.09375 C 49.770737 56.32181 49.897893 56.493237 50 56.59375 C 49.848414 56.746818 49.61705 56.928173 49.3125 57.15625 C 49.007839 57.384309 48.655056 57.567211 48.25 57.71875 C 47.591255 57.31363 46.62983 57.015047 45.3125 56.8125 C 43.995067 56.609936 42.538892 56.445019 40.96875 56.34375 C 39.398514 56.242464 37.815182 56.181755 36.21875 56.15625 C 34.622233 56.130729 33.215293 56.124992 32 56.125 C 30.784631 56.124992 29.377691 56.130729 27.78125 56.15625 C 26.184742 56.181755 24.60792 56.242464 23.0625 56.34375 C 21.517022 56.445019 20.098607 56.609936 18.78125 56.8125 C 17.463844 57.015047 16.471169 57.31363 15.8125 57.71875 C 15.407368 57.567211 15.103047 57.433544 14.875 57.28125 C 14.646911 57.128938 14.421285 57.006746 14.21875 56.90625 C 14.118225 56.753165 13.996806 56.589022 13.84375 56.4375 L 14 56.4375 C 14.15151 56.335441 14.328674 56.214022 14.53125 56.0625 C 14.733785 55.910962 14.866678 55.691073 14.96875 55.4375 C 14.968729 55.386467 14.974466 55.331495 15 55.28125 C 15.025492 55.230991 15.062479 55.207268 15.0625 55.15625 C 15.162983 55.054192 15.224466 54.901523 15.25 54.75 C 15.275491 54.598464 15.292703 54.477045 15.34375 54.375 C 16.96417 53.767328 19.175919 53.395787 21.9375 53.21875 C 24.699025 53.041703 28.047818 52.937495 32 52.9375 z "
           inkscape:radius="1.5"
           sodipodi:type="inkscape:offset" />
      </g>
      <g
         style="fill:#ffffff"
         transform="translate(823.81184,-8.3362935)"
         id="layer1-28-2"
         inkscape:label="Layer 1">
        <path
           transform="translate(-27.833647,6.4567081)"
           d="m 26.21875,0.4375 a 1.50015,1.50015 0 0 0 -1.34375,1.5 l 0,13.8125 C 24.074288,14.910819 23.263638,14.091506 22.28125,13.34375 21.037883,12.397463 19.705693,11.592877 18.3125,10.9375 16.860108,10.254381 15.421911,9.8750451 14,9.875 c -1.775714,4.05e-5 -3.476536,0.269517 -5.0625,0.875 -1.5597622,0.595548 -2.9644123,1.45833 -4.125,2.53125 -1.1698555,1.081541 -2.0636798,2.39262 -2.71875,3.875 -0.6672309,1.509919 -1.0000097,3.131161 -1,4.84375 -9.5e-6,1.729714 0.2779584,3.441516 0.875,5.0625 0.5707785,1.54978 1.3321401,3.038442 2.25,4.46875 0.9017853,1.405333 1.8838355,2.72565 2.96875,3.96875 0.5806487,0.665344 1.1403541,1.271838 1.71875,1.90625 -0.055005,0.03477 -0.1340895,0.05738 -0.1875,0.09375 -0.6236317,0.424626 -1.1776344,1.011424 -1.40625,1.8125 a 1.50015,1.50015 0 0 0 -0.03125,0.125 c -0.047483,0.235915 -0.1250421,0.441388 -0.125,0.875 -1.47e-5,0.151643 -1.47e-5,0.315578 0,0.46875 -2.13e-5,0.879083 0.2874153,1.75027 0.8125,2.40625 0.360089,0.449912 0.7690493,0.848863 1.25,1.21875 l 0,0.03125 c 0.018393,0.01405 0.043929,0.01734 0.0625,0.03125 0.5576885,0.467234 0.990861,0.865878 1.25,1.125 0.283481,0.283499 0.495165,0.524486 0.59375,0.65625 a 1.50015,1.50015 0 0 0 0.03125,0.03125 c 0.271046,0.330783 0.565271,0.899015 0.78125,1.71875 0.218942,0.831111 0.312482,1.699111 0.3125,2.59375 -1.8e-5,0.624202 -0.04347,1.252828 -0.15625,1.90625 -0.101164,0.585917 -0.261471,1.024883 -0.40625,1.34375 -0.0071,0.01563 -0.02413,0.0476 -0.03125,0.0625 -0.07907,0.07197 -0.18393,0.120396 -0.25,0.1875 -0.161084,0.159431 -0.336816,0.336791 -0.5625,0.5625 -0.520564,0.520504 -0.781281,1.309297 -0.78125,2 -3.1e-5,1.208691 0.687677,2.338179 1.65625,3.125 0.0097,0.0082 0.02153,0.02311 0.03125,0.03125 0.874573,0.732294 1.993275,1.276728 3.375,1.71875 1.346696,0.430805 2.907984,0.780868 4.65625,1.09375 1.755721,0.314199 3.64795,0.563092 5.71875,0.71875 2.071711,0.155702 4.240514,0.218736 6.5,0.21875 2.259411,-1.4e-5 4.428218,-0.06305 6.5,-0.21875 2.070723,-0.155658 3.962964,-0.404554 5.71875,-0.71875 1.748186,-0.312881 3.309501,-0.662954 4.65625,-1.09375 1.381643,-0.442023 2.50041,-0.986524 3.375,-1.71875 0.0097,-0.0081 0.0216,-0.02307 0.03125,-0.03125 0.968476,-0.786819 1.656151,-1.916406 1.65625,-3.125 -9.9e-5,-0.690562 -0.260871,-1.479507 -0.78125,-2 -0.225666,-0.225616 -0.401703,-0.403274 -0.5625,-0.5625 A 1.50015,1.50015 0 0 0 52.5,54 c -0.102717,-0.08593 -0.167538,-0.182841 -0.21875,-0.25 -0.140343,-0.326398 -0.289422,-0.746033 -0.40625,-1.3125 -0.138785,-0.672435 -0.218795,-1.272861 -0.21875,-1.84375 -4.9e-5,-0.893805 0.104316,-1.739314 0.3125,-2.46875 0.198386,-0.695415 0.495645,-1.200611 0.875,-1.65625 a 1.50015,1.50015 0 0 0 0.28125,-0.5 1.50015,1.50015 0 0 0 0,-0.03125 c 0.244682,-0.249361 0.507253,-0.490395 0.71875,-0.65625 0.357797,-0.280667 0.618428,-0.560819 0.875,-0.8125 0.05555,-0.04161 0.102291,-0.08211 0.15625,-0.125 0.44307,-0.352146 0.819001,-0.734981 1.15625,-1.15625 0.524922,-0.65594 0.812412,-1.527266 0.8125,-2.40625 -6.1e-5,-0.152642 -6.1e-5,-0.317648 0,-0.46875 -1.74e-4,-0.432993 -0.07763,-0.6393 -0.125,-0.875 A 1.50015,1.50015 0 0 0 56.6875,39.3125 C 56.458821,38.511501 55.904865,37.924615 55.28125,37.5 c -0.05341,-0.03637 -0.132497,-0.05898 -0.1875,-0.09375 0.578378,-0.634397 1.138072,-1.240922 1.71875,-1.90625 1.084815,-1.243077 2.066909,-2.563453 2.96875,-3.96875 0.91776,-1.430279 1.679157,-2.919017 2.25,-4.46875 0.596943,-1.620948 0.874926,-3.332832 0.875,-5.0625 -7.5e-5,-1.712543 -0.332872,-3.333866 -1,-4.84375 -0.655134,-1.482332 -1.548996,-2.793472 -2.71875,-3.875 C 58.026865,12.208367 56.622177,11.345548 55.0625,10.75 53.476485,10.14453 51.775646,9.8750405 50,9.875 c -1.461026,4.45e-5 -2.918827,0.377973 -4.375,1.0625 -1.395985,0.656258 -2.713036,1.453423 -3.9375,2.40625 -0.944289,0.734799 -1.765762,1.555841 -2.5625,2.375 l 0,-13.78125 a 1.50015,1.50015 0 0 0 -1.5,-1.5 l -11.25,0 a 1.50015,1.50015 0 0 0 -0.15625,0 z M 11,15.5625 c -0.01647,0.01949 -0.139504,0.03126 0.03125,0.03125 0.170698,1.1e-5 0.09955,0.0037 0.125,0.03125 0.02829,0.03067 0.03124,-0.02483 0.03125,0.21875 -5e-6,0.277453 -0.02508,0.209635 0.0625,0.125 0.08758,-0.08464 0.100962,-0.03124 -0.21875,-0.03125 -0.282823,8e-6 -0.213757,-0.05751 -0.125,0.03125 0.08876,0.08876 0.03125,0.157838 0.03125,-0.125 -8e-6,-0.254842 0.03737,-0.251512 0.0625,-0.28125 z m 42,0 c 0.02515,0.02976 0.06247,0.02628 0.0625,0.28125 -1.6e-5,0.282856 -0.05748,0.213732 0.03125,0.125 0.08873,-0.08873 0.157768,-0.03124 -0.125,-0.03125 -0.254952,1.6e-5 -0.251718,-0.03754 -0.28125,-0.0625 0.01951,0.01648 0.03123,0.139386 0.03125,-0.03125 -1.9e-5,-0.170527 -0.0062,-0.118786 0.0625,-0.1875 0.06855,-0.06856 0.01667,-0.06249 0.1875,-0.0625 0.170627,1.1e-5 0.04758,-0.01193 0.03125,-0.03125 z m -34.90625,0.34375 c 0.170686,1.1e-5 0.09953,0.0037 0.125,0.03125 0.02829,0.03067 0.03124,-0.02484 0.03125,0.21875 -9e-6,0.163198 0.01344,0.161313 -0.0625,0.25 -0.03238,0.03782 0.06552,9e-6 -0.09375,0 0.03033,-2e-6 0.01775,0.03769 -0.15625,-0.125 -0.1364,-0.127491 -0.09375,-0.06983 -0.09375,-0.125 -6e-6,-0.146434 -0.05914,-0.04657 0.03125,-0.125 0.176569,-0.153188 0.234761,-0.125001 0.21875,-0.125 z m 27.8125,0 c -0.01617,-10e-7 -0.0957,-0.06441 0.03125,0.0625 0.06871,0.06873 0.06248,0.01679 0.0625,0.1875 -1e-5,0.08217 0.02155,0.06326 -0.09375,0.1875 -0.128003,0.137909 -0.03048,0.0625 0,0.0625 -0.1594,9e-6 -0.0615,0.03768 -0.09375,0 -0.07593,-0.08866 -0.06252,-0.08695 -0.0625,-0.25 -2.4e-5,-0.243473 0.003,-0.188091 0.03125,-0.21875 0.02532,-0.02745 -0.04581,-0.03124 0.125,-0.03125 z m -39.625,4.5 C 6.1966328,20.318685 6.249996,20.305285 6.25,20.625 c -3.7e-6,0.282842 -0.057496,0.213746 0.03125,0.125 0.088746,-0.08875 0.1578037,-0.03124 -0.125,-0.03125 -0.25489,1.3e-5 -0.2516135,-0.03745 -0.28125,-0.0625 0.019502,0.01648 0.031246,0.139452 0.03125,-0.03125 -3.5e-6,-0.168035 -0.03451,-0.03293 0.03125,-0.09375 0.06708,-0.06204 0.035175,-0.06249 0.21875,-0.0625 0.2774231,8e-6 0.2096172,0.02507 0.125,-0.0625 z m 51.4375,0 c -0.08464,0.08759 -0.152479,0.06251 0.125,0.0625 0.277385,8e-6 0.2096,0.02505 0.125,-0.0625 -0.0846,-0.08755 -0.03127,-0.100976 -0.03125,0.21875 -1.7e-5,0.282854 -0.05748,0.213729 0.03125,0.125 0.08873,-0.08873 0.157766,-0.03124 -0.125,-0.03125 -0.28286,7e-6 -0.213771,-0.05752 -0.125,0.03125 0.08877,0.08877 0.03123,0.157825 0.03125,-0.125 -1.8e-5,-0.319699 0.05339,-0.30634 -0.03125,-0.21875 z M 13.125,20.84375 c -0.497276,0.246784 -0.989445,0.502028 -1.375,0.90625 -1.079713,1.131987 -1.53126,2.717019 -1.53125,4.5 -5e-6,0.401964 0.09866,0.793943 0.15625,1.1875 -0.347735,-0.956882 -0.500012,-1.894761 -0.5,-2.78125 -9.8e-6,-0.446999 0.07418,-0.848652 0.3125,-1.34375 0.243715,-0.506314 0.607005,-0.976794 1.0625,-1.375 0.447742,-0.391409 1.027436,-0.751888 1.78125,-1.0625 0.02859,-0.01178 0.06492,-0.01996 0.09375,-0.03125 z m 37.75,0 c 0.02884,0.01129 0.06516,0.01947 0.09375,0.03125 0.753758,0.310616 1.33338,0.671028 1.78125,1.0625 0.45546,0.398226 0.81868,0.868587 1.0625,1.375 0.238291,0.495151 0.312458,0.896635 0.3125,1.34375 -4.4e-5,0.761605 -0.200599,1.564823 -0.46875,2.375 0.02584,-0.263257 0.124988,-0.515 0.125,-0.78125 -3.3e-5,-1.782975 -0.451546,-3.368022 -1.53125,-4.5 -0.385552,-0.404218 -0.877729,-0.659466 -1.375,-0.90625 z M 16,25.1875 c 0.01207,0.0018 0.04208,-0.0034 0.0625,0 0.03268,0.0054 0.0435,0.02244 0.09375,0.03125 0.163297,0.02864 0.425805,0.06261 0.75,0.125 0.358447,0.06901 0.914944,0.324499 1.625,0.8125 0.561073,0.385666 1.173423,1.051641 1.75,2.09375 0.06021,0.108841 0.101532,0.309663 0.15625,0.4375 -0.02895,0.008 -0.06569,-0.0093 -0.09375,0 A 1.50015,1.50015 0 0 0 19.75,29.0625 c -0.230507,0.230501 -0.421096,0.33228 -0.65625,0.375 0.22551,-0.04098 0.235375,0.02466 0.03125,-0.09375 -0.204125,-0.118412 -0.543645,-0.388059 -0.96875,-0.8125 A 1.50015,1.50015 0 0 0 17.5625,28.1875 c -0.444592,-0.149671 -0.986771,-0.06216 -1.5,0.125 -0.0342,-0.04823 -0.09177,-0.108371 -0.125,-0.15625 C 15.433714,27.430444 15.249988,26.794438 15.25,26.25 c -1.7e-5,-0.837807 0.223353,-1.098638 0.09375,-0.96875 -0.08187,0.08205 0.216183,-0.05367 0.65625,-0.09375 z m 16,0 c 0.363575,1.4e-5 0.539342,0.07556 0.78125,0.28125 0.18229,0.155037 0.218729,0.196021 0.21875,0.5625 -1.8e-5,0.288939 -0.03682,0.392876 -0.28125,0.625 -0.267325,0.253847 -0.421276,0.312509 -0.71875,0.3125 -0.297591,9e-6 -0.451549,-0.05873 -0.71875,-0.3125 -0.244464,-0.232121 -0.281265,-0.336162 -0.28125,-0.625 -1.8e-5,-0.366392 0.03642,-0.407456 0.21875,-0.5625 C 31.460527,25.263144 31.636315,25.187514 32,25.1875 z m 15.9375,0 c 0.483168,0.01827 0.693869,0.130953 0.6875,0.125 -0.09626,-0.09 0.124956,0.136165 0.125,0.9375 -3.3e-5,0.538233 -0.197984,1.153706 -0.71875,1.875 -0.035,0.04847 -0.08925,0.107473 -0.125,0.15625 C 47.402393,28.106958 46.870261,28.041776 46.4375,28.1875 A 1.50015,1.50015 0 0 0 45.875,28.5 c -0.449899,0.426567 -0.836941,0.717048 -1.0625,0.84375 -0.225559,0.126702 -0.241031,0.04189 0.03125,0.09375 -0.190693,-0.0363 -0.3311,-0.112306 -0.59375,-0.375 a 1.50015,1.50015 0 0 0 -0.59375,-0.375 c -0.04676,-0.01542 -0.107082,0.01194 -0.15625,0 0.05603,-0.128659 0.0951,-0.326981 0.15625,-0.4375 0.586215,-1.059651 1.172456,-1.718278 1.71875,-2.09375 0.692401,-0.475912 1.291036,-0.739022 1.6875,-0.8125 0.338101,-0.06265 0.580694,-0.09606 0.75,-0.125 0.0572,-0.0098 0.08983,-0.02565 0.125,-0.03125 z m -9.15625,1.59375 c -0.676117,1.617563 -1.000045,3.516125 -1,5.78125 -2.8e-5,0.445056 0.243592,0.925681 0.5,1.375 -0.333605,-0.0121 -0.624803,-0.0238 -0.96875,-0.03125 0.06526,-2.900725 0.484251,-5.292668 1.3125,-6.875 0.05047,-0.09643 0.105126,-0.156212 0.15625,-0.25 z M 25.3125,27.375 c 0.275583,0.629754 0.630577,1.086801 0.84375,1.84375 0.350519,1.244842 0.411638,2.953538 0.46875,4.6875 -0.345908,0.0077 -0.634463,0.01897 -0.96875,0.03125 0.251937,-0.454184 0.468731,-0.940617 0.46875,-1.375 -2.7e-5,-2.001518 -0.288465,-3.679408 -0.8125,-5.1875 z M 32,31.875 c -0.01618,-1e-6 0.03985,-0.02988 0.21875,0.125 0.136596,0.11829 0.03124,-0.02274 0.03125,0.03125 -1.2e-5,0.148146 -0.0018,0.132944 -0.09375,0.21875 -0.176252,0.164421 -0.186668,0.124999 -0.15625,0.125 -0.159402,4e-6 -0.08422,0.01512 -0.15625,-0.0625 -0.07449,-0.08024 -0.09376,-0.110614 -0.09375,-0.28125 -6e-6,-0.07909 -0.05039,0.01914 0.0625,-0.09375 0.06859,-0.06859 0.01674,-0.06249 0.1875,-0.0625 z m -10.71875,1.15625 c 0.08583,0.403683 0.199821,0.798719 0.46875,1.125 -0.204454,0.02262 -0.488779,0.0061 -0.6875,0.03125 -0.495678,0.0628 -1.07971,0.150301 -1.59375,0.21875 0.07149,-0.210501 0.18748,-0.414981 0.1875,-0.625 -1e-6,-0.0084 1.03e-4,-0.02278 0,-0.03125 0.456656,-0.08923 0.898496,-0.270347 1.28125,-0.5 0.120313,-0.07219 0.22611,-0.146688 0.34375,-0.21875 z m 21.375,0 c 0.09253,0.06094 0.190303,0.12693 0.28125,0.1875 0.400371,0.266731 0.879166,0.414256 1.375,0.5 3.4e-5,0.05378 -0.03612,0.10305 -0.03125,0.15625 0.01766,0.193583 0.150788,0.351347 0.21875,0.53125 -0.515798,-0.06813 -1.094101,-0.156218 -1.59375,-0.21875 -0.201654,-0.02523 -0.48059,-0.0086 -0.6875,-0.03125 0.267349,-0.35197 0.375986,-0.731654 0.4375,-1.125 z M 32,37.65625 c 0.07512,2e-6 0.104621,0.0089 0.25,0.125 0.0087,0.03934 0.0374,0.0343 -0.03125,0.09375 C 32.03986,38.029881 31.983757,38 32,38 c -0.170721,3e-6 -0.118915,0.0061 -0.1875,-0.0625 -0.06864,-0.06863 -0.06251,-0.01687 -0.0625,-0.1875 -6e-6,-0.08192 -0.01016,-0.0243 0.03125,-0.0625 0.03053,-0.02816 -0.02493,-0.03124 0.21875,-0.03125 z m -8.875,0.625 c 0.07191,0.08511 0.09374,0.111544 0.09375,0.21875 -7e-6,0.107239 -0.02187,0.133685 -0.09375,0.21875 0.04657,-0.0551 0.200982,-0.0625 -0.03125,-0.0625 -0.150551,3e-6 -0.03451,0.0505 -0.15625,-0.0625 -0.122589,-0.113763 -0.09375,-0.09287 -0.09375,-0.09375 0,-8.47e-4 -0.02887,0.02005 0.09375,-0.09375 0.156422,-0.145182 0.07417,-0.09375 0.15625,-0.09375 0.170639,4e-6 0.04763,-0.01187 0.03125,-0.03125 z m 17.75,0 c -0.01652,0.01955 -0.139516,0.03125 0.03125,0.03125 0.08194,2e-6 -3.14e-4,-0.05153 0.15625,0.09375 0.122609,0.113813 0.09375,0.09276 0.09375,0.09375 0,0.001 0.02883,-0.02003 -0.09375,0.09375 -0.121878,0.113104 -0.0058,0.0625 -0.15625,0.0625 -0.23235,4e-6 -0.07796,0.0072 -0.03125,0.0625 -0.07186,-0.08502 -0.09376,-0.111658 -0.09375,-0.21875 -1.1e-5,-0.107059 0.02186,-0.133685 0.09375,-0.21875 z m -26.65625,1.9375 c -0.002,0 -0.0661,-0.05613 0.0625,0.0625 0.02757,0.02544 0.03124,-0.04569 0.03125,0.125 -7e-6,0.170721 0.0061,0.118851 -0.0625,0.1875 -0.126879,0.126874 -0.04745,0.0625 -0.03125,0.0625 -0.16812,2e-6 -0.251047,-0.01767 -0.375,-0.125 -0.0898,-0.07775 -0.03125,0.02303 -0.03125,-0.125 -5e-6,-0.148006 -0.0515,0.0099 0,-0.03125 0.128612,-0.102735 0.226757,-0.156247 0.40625,-0.15625 z m 35.5625,0 c 0.179366,3e-6 0.152075,0.001 0.21875,0.0625 0.02757,0.02544 0.03123,-0.04575 0.03125,0.125 -2e-5,0.170779 0.0061,0.118845 -0.0625,0.1875 -0.06711,0.0671 -0.01951,0.0625 -0.1875,0.0625 0.01604,0 0.09549,0.06426 -0.03125,-0.0625 -0.06865,-0.06864 -0.06252,-0.0169 -0.0625,-0.1875 -1.8e-5,-0.170573 0.0037,-0.09956 0.03125,-0.125 0.128451,-0.118517 0.06435,-0.0625 0.0625,-0.0625 z M 32,47.75 c 0.469524,0.456507 0.933391,0.94989 1.4375,1.3125 C 32.933226,49.436242 32.472399,49.924265 32,50.375 31.527613,49.924283 31.066718,49.436232 30.5625,49.0625 31.066555,48.699899 31.530488,48.206489 32,47.75 z m 0,6.6875 c 4.078241,-5e-6 7.457741,0.107032 10.125,0.28125 2.409132,0.157354 4.181356,0.511803 5.5625,0.96875 0.03746,0.08168 0.07824,0.171442 0.125,0.25 l -0.03125,0 c 0.01815,0.04583 0.07374,0.0789 0.09375,0.125 -0.719787,-0.281725 -1.389201,-0.571983 -2.34375,-0.71875 -1.36066,-0.20921 -2.853671,-0.395833 -4.46875,-0.5 -1.596452,-0.102977 -3.193894,-0.161641 -4.8125,-0.1875 -1.607007,-0.02569 -3.029979,-0.03126 -4.25,-0.03125 -1.220097,-8e-6 -2.643068,0.0056 -4.25,0.03125 -1.618747,0.02586 -3.208419,0.08442 -4.78125,0.1875 -1.59175,0.104301 -3.04991,0.291442 -4.40625,0.5 -0.895,0.137603 -1.521356,0.433232 -2.21875,0.6875 0.0046,-0.01116 0.02682,-0.02024 0.03125,-0.03125 a 1.50015,1.50015 0 0 0 0.0625,-0.3125 c 1.378106,-0.448009 3.159384,-0.81269 5.59375,-0.96875 C 24.75301,54.544252 28.074186,54.437495 32,54.4375 z m -15.59375,1.25 c -0.01518,0.09246 0.008,0.142532 -0.0625,0.28125 -0.07657,0.150972 -0.142034,0.212645 -0.0625,0.09375 0.03312,-0.04952 0.07419,-0.251292 0.125,-0.375 z"
           id="path4207"
           style="font-size:76px;font-style:normal;font-variant:normal;font-weight:normal;font-stretch:normal;line-height:125%;letter-spacing:0px;word-spacing:0px;fill:#ffffff;fill-opacity:1;stroke:none;font-family:DiagramTTOldstyle;-inkscape-font-specification:DiagramTTOldstyle"
           inkscape:original="M 26.375 1.9375 L 26.375 20.09375 C 25.969857 19.283558 25.324228 18.38858 24.4375 17.375 C 23.550711 16.361482 22.540051 15.418042 21.375 14.53125 C 20.209894 13.644525 18.979345 12.888951 17.6875 12.28125 C 16.395608 11.673621 15.165832 11.375037 14 11.375 C 12.377993 11.375037 10.861881 11.624386 9.46875 12.15625 C 8.0755881 12.688187 6.8572869 13.438023 5.84375 14.375 C 4.8301894 15.312045 4.0508933 16.432649 3.46875 17.75 C 2.8865878 19.067412 2.5937414 20.48009 2.59375 22 C 2.5937414 23.570988 2.8430901 25.0871 3.375 26.53125 C 3.9068911 27.975443 4.6074926 29.376646 5.46875 30.71875 C 6.3299844 32.060889 7.2734242 33.309422 8.3125 34.5 C 9.3515471 35.690605 10.393457 36.840913 11.40625 37.90625 C 9.8352706 38.411875 8.9525404 39.009042 8.75 39.71875 C 8.6989599 39.972339 8.6562353 40.160978 8.65625 40.3125 C 8.6562353 40.464038 8.6562353 40.628181 8.65625 40.78125 C 8.6562353 41.388923 8.8211522 41.870408 9.125 42.25 C 9.4288176 42.629604 9.7808273 42.976649 10.1875 43.28125 C 10.795149 43.788416 11.264387 44.201908 11.59375 44.53125 C 11.923078 44.860599 12.160952 45.141198 12.3125 45.34375 C 12.768617 45.900393 13.1214 46.662477 13.375 47.625 C 13.628561 48.587524 13.74998 49.579426 13.75 50.59375 C 13.74998 51.303464 13.689271 52.01554 13.5625 52.75 C 13.43569 53.484451 13.253561 54.117833 13 54.625 C 12.948956 54.725498 12.882509 54.799228 12.78125 54.875 C 12.679954 54.950758 12.569236 55.054192 12.46875 55.15625 C 12.315656 55.307773 12.1343 55.490675 11.90625 55.71875 C 11.678164 55.94681 11.562482 56.251131 11.5625 56.65625 C 11.562482 57.365958 11.92674 58.017324 12.6875 58.625 C 13.346172 59.183176 14.327372 59.688628 15.59375 60.09375 C 16.860085 60.498848 18.333472 60.852404 20.03125 61.15625 C 21.728976 61.46007 23.598644 61.691433 25.625 61.84375 C 27.651293 61.996039 29.770309 62.062486 32 62.0625 C 34.229615 62.062486 36.348631 61.996039 38.375 61.84375 C 40.40128 61.691433 42.270948 61.46007 43.96875 61.15625 C 45.666452 60.852404 47.139839 60.498848 48.40625 60.09375 C 49.672552 59.688628 50.653752 59.183176 51.3125 58.625 C 52.073184 58.017324 52.437442 57.365958 52.4375 56.65625 C 52.437442 56.251131 52.32176 55.94681 52.09375 55.71875 C 51.865624 55.490675 51.684268 55.307773 51.53125 55.15625 C 51.228133 54.902663 51.050968 54.725498 51 54.625 C 50.746363 54.117833 50.557723 53.484451 50.40625 52.75 C 50.254664 52.01554 50.156194 51.303464 50.15625 50.59375 C 50.156194 49.579426 50.278386 48.604736 50.53125 47.71875 C 50.784001 46.832765 51.180281 46.109214 51.6875 45.5 L 51.75 45.1875 C 52.155053 44.731367 52.551333 44.372074 52.90625 44.09375 C 53.261049 43.815434 53.560406 43.534835 53.8125 43.28125 C 54.219097 42.976649 54.571106 42.629604 54.875 42.25 C 55.178772 41.870408 55.343689 41.388923 55.34375 40.78125 C 55.343689 40.628181 55.343689 40.464038 55.34375 40.3125 C 55.343689 40.160978 55.300964 39.972339 55.25 39.71875 C 55.047384 39.009042 54.164653 38.411875 52.59375 37.90625 C 53.606467 36.840913 54.648377 35.690605 55.6875 34.5 C 56.7265 33.309422 57.66994 32.060889 58.53125 30.71875 C 59.392431 29.376646 60.093033 27.975443 60.625 26.53125 C 61.156834 25.0871 61.406183 23.570988 61.40625 22 C 61.406183 20.48009 61.113336 19.067412 60.53125 17.75 C 59.949031 16.432649 59.169735 15.312045 58.15625 14.375 C 57.142637 13.438023 55.924336 12.688187 54.53125 12.15625 C 53.138043 11.624386 51.621931 11.375037 50 11.375 C 48.784613 11.375037 47.54259 11.673621 46.25 12.28125 C 44.957306 12.888951 43.733267 13.644525 42.59375 14.53125 C 41.454135 15.418042 40.443476 16.361482 39.53125 17.375 C 38.618933 18.38858 37.979041 19.283558 37.625 20.09375 L 37.625 1.9375 L 26.375 1.9375 z M 28.125 4.75 L 29.5 4.75 L 32 7.34375 L 34.5 4.75 L 35.875 4.75 L 35.875 6.1875 L 33.28125 8.78125 L 35.875 11.28125 L 35.875 12.59375 L 34.5 12.59375 L 32 10 L 29.5 12.59375 L 28.125 12.59375 L 28.125 11.28125 L 30.71875 8.78125 L 28.125 6.1875 L 28.125 4.75 z M 32 13.5625 C 33.012738 13.562535 33.896241 13.916091 34.65625 14.625 C 35.416178 15.333977 35.812458 16.260204 35.8125 17.375 C 35.812458 18.389353 35.416178 19.27131 34.65625 20.03125 C 33.896241 20.791247 33.012738 21.156277 32 21.15625 C 30.885136 21.156277 29.958908 20.791247 29.25 20.03125 C 28.541022 19.27131 28.187466 18.389353 28.1875 17.375 C 28.187466 16.260204 28.541022 15.333977 29.25 14.625 C 29.958908 13.916091 30.885136 13.562535 32 13.5625 z M 11.03125 14.09375 C 11.538394 14.093784 11.946149 14.264438 12.25 14.59375 C 12.553814 14.923129 12.687481 15.336621 12.6875 15.84375 C 12.687481 16.907583 12.146059 17.437531 11.03125 17.4375 C 9.967432 17.437531 9.4374846 16.907583 9.4375 15.84375 C 9.4374846 15.336621 9.5654141 14.923129 9.84375 14.59375 C 10.122054 14.264438 10.524072 14.093784 11.03125 14.09375 z M 52.96875 14.09375 C 53.475852 14.093784 53.87787 14.264438 54.15625 14.59375 C 54.43451 14.923129 54.562439 15.336621 54.5625 15.84375 C 54.562439 16.907583 54.032492 17.437531 52.96875 17.4375 C 52.46153 17.437531 52.048038 17.309601 51.71875 17.03125 C 51.389347 16.752961 51.218693 16.350943 51.21875 15.84375 C 51.218693 15.336621 51.389347 14.923129 51.71875 14.59375 C 52.048038 14.264438 52.46153 14.093784 52.96875 14.09375 z M 18.09375 14.40625 C 18.600887 14.406284 19.008642 14.576938 19.3125 14.90625 C 19.616307 15.235629 19.749974 15.649121 19.75 16.15625 C 19.749974 16.612418 19.616307 17.020173 19.3125 17.375 C 19.008642 17.729889 18.600887 17.90628 18.09375 17.90625 C 17.688616 17.90628 17.285825 17.729889 16.90625 17.375 C 16.526629 17.020173 16.343728 16.612418 16.34375 16.15625 C 16.343728 15.649121 16.526629 15.235629 16.90625 14.90625 C 17.285825 14.576938 17.688616 14.406284 18.09375 14.40625 z M 45.90625 14.40625 C 46.311308 14.406284 46.670602 14.576938 47 14.90625 C 47.329292 15.235629 47.499946 15.649121 47.5 16.15625 C 47.499946 16.612418 47.329292 17.020173 47 17.375 C 46.670602 17.729889 46.311308 17.90628 45.90625 17.90625 C 45.399037 17.90628 44.991282 17.729889 44.6875 17.375 C 44.383617 17.020173 44.24995 16.612418 44.25 16.15625 C 44.24995 15.649121 44.383617 15.235629 44.6875 14.90625 C 44.991282 14.576938 45.399037 14.406284 45.90625 14.40625 z M 32 15.40625 C 31.443322 15.406283 30.974084 15.588412 30.59375 15.96875 C 30.213343 16.349153 30.031214 16.818391 30.03125 17.375 C 30.031214 17.933217 30.213343 18.401682 30.59375 18.78125 C 30.974084 19.160877 31.443322 19.343779 32 19.34375 C 32.556602 19.343779 33.02584 19.160877 33.40625 18.78125 C 33.786581 18.401682 33.96871 17.933217 33.96875 17.375 C 33.96871 16.818391 33.786581 16.349153 33.40625 15.96875 C 33.02584 15.588412 32.556602 15.406283 32 15.40625 z M 6.15625 18.96875 C 7.2200389 18.968779 7.7499862 19.510201 7.75 20.625 C 7.7499862 21.688829 7.2200389 22.218776 6.15625 22.21875 C 5.6490769 22.218776 5.2355845 22.090846 4.90625 21.8125 C 4.5768937 21.534206 4.4062396 21.132189 4.40625 20.625 C 4.4062396 20.119413 4.5768937 19.742135 4.90625 19.4375 C 5.2355845 19.132923 5.6490769 18.968779 6.15625 18.96875 z M 15.28125 18.96875 C 15.635314 18.968779 16.214496 19.023752 17 19.125 C 17.785458 19.226307 18.668188 19.463408 19.65625 19.84375 C 20.64426 20.224149 21.64841 20.753323 22.6875 21.4375 C 23.726533 22.12173 24.669973 23.06517 25.53125 24.28125 C 26.392464 25.497378 27.087329 27.014263 27.59375 28.8125 C 28.100104 30.610776 28.332241 32.779801 28.28125 35.3125 C 25.596974 35.312513 23.251558 35.433932 21.25 35.6875 C 19.248388 35.941093 17.093157 36.239677 14.8125 36.59375 C 14.104309 35.936617 13.38495 35.156548 12.625 34.21875 C 11.865013 33.28098 11.165185 32.251318 10.53125 31.1875 C 9.8972823 30.123716 9.3738453 29.052347 8.96875 27.9375 C 8.5636248 26.822694 8.3749856 25.720075 8.375 24.65625 C 8.3749856 23.997583 8.5143898 23.340479 8.84375 22.65625 C 9.1730805 21.972072 9.6415452 21.344428 10.25 20.8125 C 10.858422 20.280627 11.607486 19.854887 12.46875 19.5 C 13.329977 19.145171 14.268453 18.968779 15.28125 18.96875 z M 48.71875 18.96875 C 49.731471 18.968779 50.669947 19.145171 51.53125 19.5 C 52.392438 19.854887 53.141502 20.280627 53.75 20.8125 C 54.358379 21.344428 54.826843 21.972072 55.15625 22.65625 C 55.485534 23.340479 55.624938 23.997583 55.625 24.65625 C 55.624938 25.720075 55.430562 26.822694 55 27.9375 C 54.569316 29.052347 54.039369 30.123716 53.40625 31.1875 C 52.773013 32.251318 52.072411 33.28098 51.3125 34.21875 C 50.552474 35.156548 49.846136 35.936617 49.1875 36.59375 C 46.906767 36.239677 44.745026 35.941093 42.71875 35.6875 C 40.692377 35.433932 38.353471 35.312513 35.71875 35.3125 C 35.616658 31.513444 36.140868 28.522399 37.28125 26.34375 C 38.421546 24.165145 39.761266 22.52684 41.28125 21.4375 C 42.801139 20.348213 44.281037 19.654122 45.75 19.375 C 47.21886 19.095936 48.211534 18.968779 48.71875 18.96875 z M 57.84375 18.96875 C 58.907487 18.968779 59.437435 19.510201 59.4375 20.625 C 59.437435 21.688829 58.907487 22.218776 57.84375 22.21875 C 56.779885 22.218776 56.249938 21.688829 56.25 20.625 C 56.249938 19.510201 56.779885 18.968779 57.84375 18.96875 z M 16.125 21.625 C 13.187155 21.625027 11.718732 23.159123 11.71875 26.25 C 11.718732 27.567403 12.078026 28.791442 12.8125 29.90625 C 13.546937 31.021095 14.380432 32.179459 15.34375 33.34375 L 16.28125 34.3125 C 16.534808 34.516615 16.777646 34.637261 17.03125 34.6875 C 17.284807 34.737766 17.529192 34.659844 17.78125 34.40625 C 18.034807 34.254734 18.156226 34.034845 18.15625 33.78125 C 18.156226 33.476659 18.077531 33.23382 17.875 33.03125 L 17.09375 31.875 C 16.131977 30.862241 15.351907 29.91229 14.71875 29 C 14.085551 28.087748 13.74998 27.162293 13.75 26.25 C 13.74998 25.237246 13.927145 24.573632 14.28125 24.21875 C 14.635315 23.863916 15.263732 23.687525 16.125 23.6875 C 16.176003 23.687525 16.528786 23.748234 17.1875 23.875 C 17.846168 24.001815 18.563981 24.34886 19.375 24.90625 C 20.185968 25.463687 20.935032 26.340679 21.59375 27.53125 C 22.252413 28.721862 22.562471 30.383888 22.5625 32.5625 C 22.562471 32.865575 22.678153 33.140437 22.90625 33.34375 C 23.134289 33.547093 23.40264 33.625015 23.65625 33.625 C 24.314911 33.625015 24.624969 33.272232 24.625 32.5625 C 24.624969 30.281838 24.314911 28.44993 23.65625 27.03125 C 22.99753 25.612612 22.193494 24.504255 21.28125 23.71875 C 20.368951 22.933294 19.431249 22.397609 18.46875 22.09375 C 17.506202 21.789943 16.73419 21.625027 16.125 21.625 z M 47.875 21.625 C 47.265734 21.625027 46.493722 21.789943 45.53125 22.09375 C 44.568675 22.397609 43.624462 22.933294 42.6875 23.71875 C 41.750441 24.504255 40.939894 25.612612 40.28125 27.03125 C 39.622513 28.44993 39.281205 30.281838 39.28125 32.5625 C 39.281205 33.272232 39.622513 33.625015 40.28125 33.625 C 40.989374 33.625015 41.343703 33.272232 41.34375 32.5625 C 41.343703 30.383888 41.685011 28.721862 42.34375 27.53125 C 43.002392 26.340679 43.720206 25.463687 44.53125 24.90625 C 45.342193 24.34886 46.096994 24.001815 46.78125 23.875 C 47.465401 23.748234 47.823921 23.687525 47.875 23.6875 C 48.685167 23.687525 49.276597 23.863916 49.65625 24.21875 C 50.035792 24.573632 50.249944 25.237246 50.25 26.25 C 50.249944 27.162293 49.908635 28.087748 49.25 29 C 48.591254 29.91229 47.816922 30.862241 46.90625 31.875 L 46.125 33.03125 C 45.871367 33.23382 45.755686 33.470921 45.78125 33.75 C 45.806711 34.029108 45.965117 34.254734 46.21875 34.40625 C 46.470732 34.659844 46.715117 34.737766 46.96875 34.6875 C 47.222278 34.637261 47.453641 34.516615 47.65625 34.3125 L 48.65625 33.34375 C 49.568467 32.179459 50.396225 31.021095 51.15625 29.90625 C 51.916161 28.791442 52.281192 27.567403 52.28125 26.25 C 52.281192 23.159123 50.812769 21.625027 47.875 21.625 z M 32 23.6875 C 32.658653 23.687525 33.243572 23.881901 33.75 24.3125 C 34.256348 24.743147 34.499959 25.321556 34.5 26.03125 C 34.499959 26.689963 34.256348 27.269145 33.75 27.75 C 33.243572 28.230896 32.658653 28.46877 32 28.46875 C 31.341271 28.46877 30.756352 28.230896 30.25 27.75 C 29.743576 27.269145 29.499965 26.689963 29.5 26.03125 C 29.499965 25.321556 29.743576 24.743147 30.25 24.3125 C 30.756352 23.881901 31.341271 23.687525 32 23.6875 z M 17.09375 29.59375 C 16.790667 29.491718 16.546283 29.547463 16.34375 29.75 C 16.241677 29.852069 16.193215 29.972715 16.21875 30.125 C 16.24424 30.277321 16.292702 30.430763 16.34375 30.53125 C 16.748838 30.936378 17.151629 31.295671 17.53125 31.625 C 17.910824 31.954362 18.32509 32.179215 18.78125 32.28125 C 19.187882 32.38177 19.649836 32.272599 20.15625 31.96875 C 20.662612 31.664934 21.137587 31.367123 21.59375 31.0625 C 21.847303 30.810483 21.847303 30.534848 21.59375 30.28125 C 21.391167 30.078713 21.117079 30.024514 20.8125 30.125 C 20.407363 30.530128 19.932388 30.80499 19.375 30.90625 C 18.817561 31.007545 18.057023 30.555519 17.09375 29.59375 z M 46.90625 29.59375 C 45.891875 30.555519 45.09435 31.007545 44.5625 30.90625 C 44.030549 30.80499 43.592561 30.530128 43.1875 30.125 C 42.882845 30.024514 42.608757 30.078713 42.40625 30.28125 C 42.152621 30.534848 42.152621 30.810483 42.40625 31.0625 C 42.862337 31.367123 43.325065 31.664934 43.78125 31.96875 C 44.237336 32.272599 44.711538 32.38177 45.21875 32.28125 C 45.674834 32.179215 46.076852 31.954362 46.40625 31.625 C 46.735543 31.295671 47.094836 30.936378 47.5 30.53125 C 47.803006 30.226662 47.858751 29.952574 47.65625 29.75 C 47.453641 29.547463 47.209257 29.491718 46.90625 29.59375 z M 32 30.375 C 32.405072 30.375018 32.80709 30.545672 33.1875 30.875 C 33.567832 31.204363 33.74996 31.576677 33.75 32.03125 C 33.74996 32.538427 33.567832 32.988907 33.1875 33.34375 C 32.80709 33.698623 32.405072 33.875014 32 33.875 C 31.492801 33.875014 31.079309 33.698623 30.75 33.34375 C 30.420618 32.988907 30.249964 32.538427 30.25 32.03125 C 30.249964 31.576677 30.420618 31.204363 30.75 30.875 C 31.079309 30.545672 31.492801 30.375018 32 30.375 z M 32 36.15625 C 32.405072 36.156262 32.80709 36.289929 33.1875 36.59375 C 33.567832 36.897594 33.74996 37.293875 33.75 37.75 C 33.74996 38.257171 33.567832 38.670664 33.1875 39 C 32.80709 39.329355 32.405072 39.500009 32 39.5 C 31.492801 39.500009 31.079309 39.329355 30.75 39 C 30.420618 38.670664 30.249964 38.257171 30.25 37.75 C 30.249964 37.293875 30.420618 36.897594 30.75 36.59375 C 31.079309 36.289929 31.492801 36.156262 32 36.15625 z M 23.09375 36.8125 C 23.600882 36.812511 24.0029 36.983166 24.28125 37.3125 C 24.55954 37.641856 24.718719 38.043874 24.71875 38.5 C 24.718719 38.956145 24.55954 39.358163 24.28125 39.6875 C 24.0029 40.016854 23.600882 40.156258 23.09375 40.15625 C 22.637585 40.156258 22.26108 40.016854 21.90625 39.6875 C 21.551364 39.358163 21.343723 38.956145 21.34375 38.5 C 21.343723 38.043874 21.551364 37.641856 21.90625 37.3125 C 22.26108 36.983166 22.637585 36.812511 23.09375 36.8125 z M 40.90625 36.8125 C 41.362339 36.812511 41.738844 36.983166 42.09375 37.3125 C 42.44856 37.641856 42.656201 38.043874 42.65625 38.5 C 42.656201 38.956145 42.44856 39.358163 42.09375 39.6875 C 41.738844 40.016854 41.362339 40.156258 40.90625 40.15625 C 40.399042 40.156258 39.997024 40.016854 39.71875 39.6875 C 39.440384 39.358163 39.281205 38.956145 39.28125 38.5 C 39.281205 38.043874 39.440384 37.641856 39.71875 37.3125 C 39.997024 36.983166 40.399042 36.812511 40.90625 36.8125 z M 14.21875 38.71875 C 14.62384 38.718759 14.983133 38.883676 15.3125 39.1875 C 15.641824 39.491342 15.812478 39.899097 15.8125 40.40625 C 15.812478 40.913419 15.641824 41.326911 15.3125 41.65625 C 14.983133 41.985602 14.62384 42.156256 14.21875 42.15625 C 13.713115 42.156256 13.255352 41.985602 12.875 41.65625 C 12.49461 41.326911 12.312482 40.913419 12.3125 40.40625 C 12.312482 39.899097 12.49461 39.491342 12.875 39.1875 C 13.255352 38.883676 13.713115 38.718759 14.21875 38.71875 z M 49.78125 38.71875 C 50.286809 38.718759 50.701848 38.883676 51.03125 39.1875 C 51.360538 39.491342 51.531192 39.899097 51.53125 40.40625 C 51.531192 40.913419 51.360538 41.326911 51.03125 41.65625 C 50.701848 41.985602 50.286809 42.156256 49.78125 42.15625 C 49.376084 42.156256 49.016791 41.985602 48.6875 41.65625 C 48.3581 41.326911 48.187446 40.913419 48.1875 40.40625 C 48.187446 39.899097 48.3581 39.491342 48.6875 39.1875 C 49.016791 38.883676 49.376084 38.718759 49.78125 38.71875 z M 32 40.9375 C 34.178589 40.937507 36.218911 41.003954 38.09375 41.15625 C 39.968501 41.30856 41.667514 41.527676 43.1875 41.78125 L 43.3125 41.78125 C 44.731883 42.135341 46.07083 42.501145 47.3125 42.90625 C 48.554063 43.311366 49.443304 43.774093 50 44.28125 C 49.594834 44.83944 49.339748 45.252933 49.1875 45.53125 C 49.035142 45.809573 48.85875 46.224611 48.65625 46.78125 C 48.353136 46.529217 47.730456 46.22986 46.84375 45.875 C 45.956939 45.520144 44.819122 45.173099 43.375 44.84375 C 41.930779 44.514408 40.237503 44.228072 38.3125 44 C 36.387409 43.771936 34.28064 43.656255 32 43.65625 C 29.719284 43.656255 27.612515 43.771936 25.6875 44 C 23.762421 44.228072 22.069145 44.514408 20.625 44.84375 C 19.180802 45.173099 18.005225 45.520144 17.09375 45.875 C 16.182229 46.22986 15.585835 46.529217 15.28125 46.78125 C 15.027648 46.224611 14.851257 45.809573 14.75 45.53125 C 14.648702 45.252933 14.40509 44.83944 14 44.28125 C 14.507141 43.774093 15.384134 43.311366 16.625 42.90625 C 17.865821 42.501145 19.174291 42.135341 20.59375 41.78125 L 20.8125 41.78125 C 22.33241 41.527676 24.019949 41.30856 25.84375 41.15625 C 27.667487 41.003954 29.719284 40.937507 32 40.9375 z M 32 45.71875 C 32.760703 46.629478 33.570476 47.385824 34.40625 47.96875 C 35.241943 48.551676 36.19763 48.910969 37.3125 49.0625 C 36.19763 49.215575 35.241943 49.579833 34.40625 50.1875 C 33.570476 50.795163 32.760703 51.545 32 52.40625 C 31.239221 51.545 30.429448 50.795163 29.59375 50.1875 C 28.757981 49.579833 27.759569 49.215575 26.59375 49.0625 C 27.759569 48.910969 28.757981 48.551676 29.59375 47.96875 C 30.429448 47.385824 31.239221 46.629478 32 45.71875 z M 15.59375 47.78125 C 16.303445 48.541992 17.064756 49.192585 17.875 49.75 C 18.685197 50.307412 19.579401 50.660968 20.59375 50.8125 C 18.718156 51.117103 17.116839 52.011308 15.75 53.53125 C 15.850483 53.126134 15.917703 52.749629 15.96875 52.34375 C 16.019753 51.937863 16.031228 51.530107 16.03125 51.125 C 16.031228 50.517332 15.976256 49.932412 15.875 49.375 C 15.773701 48.817586 15.695779 48.288411 15.59375 47.78125 z M 48.40625 47.78125 C 48.304145 48.288411 48.226223 48.817586 48.125 49.375 C 48.023668 49.932412 47.968696 50.517332 47.96875 51.125 C 47.968696 51.986243 48.03437 52.770503 48.1875 53.53125 C 46.870064 52.011308 45.281768 51.117103 43.40625 50.8125 C 44.420523 50.660968 45.314727 50.307412 46.125 49.75 C 46.935168 49.192585 47.696479 48.541992 48.40625 47.78125 z M 32 52.9375 C 36.103636 52.937495 39.508174 53.041703 42.21875 53.21875 C 44.92923 53.395787 47.096708 53.767328 48.71875 54.375 C 48.769721 54.477045 48.83043 54.646926 48.90625 54.875 C 48.98196 55.103061 49.085394 55.274488 49.1875 55.375 C 49.287949 55.628573 49.416652 55.865674 49.59375 56.09375 C 49.770737 56.32181 49.897893 56.493237 50 56.59375 C 49.848414 56.746818 49.61705 56.928173 49.3125 57.15625 C 49.007839 57.384309 48.655056 57.567211 48.25 57.71875 C 47.591255 57.31363 46.62983 57.015047 45.3125 56.8125 C 43.995067 56.609936 42.538892 56.445019 40.96875 56.34375 C 39.398514 56.242464 37.815182 56.181755 36.21875 56.15625 C 34.622233 56.130729 33.215293 56.124992 32 56.125 C 30.784631 56.124992 29.377691 56.130729 27.78125 56.15625 C 26.184742 56.181755 24.60792 56.242464 23.0625 56.34375 C 21.517022 56.445019 20.098607 56.609936 18.78125 56.8125 C 17.463844 57.015047 16.471169 57.31363 15.8125 57.71875 C 15.407368 57.567211 15.103047 57.433544 14.875 57.28125 C 14.646911 57.128938 14.421285 57.006746 14.21875 56.90625 C 14.118225 56.753165 13.996806 56.589022 13.84375 56.4375 L 14 56.4375 C 14.15151 56.335441 14.328674 56.214022 14.53125 56.0625 C 14.733785 55.910962 14.866678 55.691073 14.96875 55.4375 C 14.968729 55.386467 14.974466 55.331495 15 55.28125 C 15.025492 55.230991 15.062479 55.207268 15.0625 55.15625 C 15.162983 55.054192 15.224466 54.901523 15.25 54.75 C 15.275491 54.598464 15.292703 54.477045 15.34375 54.375 C 16.96417 53.767328 19.175919 53.395787 21.9375 53.21875 C 24.699025 53.041703 28.047818 52.937495 32 52.9375 z "
           inkscape:radius="1.5"
           sodipodi:type="inkscape:offset" />
      </g>
      <path
         transform="translate(0,-8)"
         inkscape:connector-curvature="0"
         id="path67493"
         d="m 825.4321,58.552002 c -4.22187,0.03458 -8.49618,0.01766 -12.63809,0.931115 -0.64085,0.222768 -1.43102,0.264057 -1.91779,0.75332 -0.25233,0.66574 -0.41027,1.488904 -1.14517,1.799854 -0.55232,0.247874 -0.3583,0.905054 0.0535,1.187294 0.58764,0.441093 1.21772,0.968898 1.97162,1.040501 0.76272,-0.146292 1.4456,-0.582821 2.22607,-0.683875 3.35845,-0.634611 6.8001,-0.741735 10.21725,-0.805568 4.25009,-0.0075 8.50651,-0.06133 12.75119,0.1812 2.42416,0.193335 4.89831,0.356535 7.16508,1.294903 0.81186,0.06741 1.4618,-0.595371 2.05699,-1.064512 0.45454,-0.335071 0.23049,-0.912886 -0.096,-1.248602 -0.62095,-0.651366 -0.66071,-1.84278 -1.64346,-2.126357 -3.65772,-1.102719 -7.52455,-1.166278 -11.32012,-1.23793 -2.56026,-0.02911 -5.12064,-0.03319 -7.68103,-0.02134 z"
         style="fill:#ffffff;fill-opacity:1;fill-rule:nonzero;stroke:none" />
      <path
         transform="translate(0,-8)"
         inkscape:connector-curvature="0"
         id="path67495"
         d="m 811.26794,53.602951 c -0.43087,0.493046 0.0441,1.153852 0.0478,1.72515 0.2491,1.413902 0.1772,2.875242 -0.0878,4.264402 0.0773,0.592005 0.85599,0.533425 1.12053,0.112054 1.12126,-1.123873 2.55666,-1.933459 4.10598,-2.294439 0.56434,-0.142001 0.55732,-1.037545 -0.0507,-1.101864 -0.91367,-0.111859 -1.76175,-0.581394 -2.51346,-1.103313 -0.77201,-0.509929 -1.35578,-1.27268 -2.1848,-1.690032 -0.15503,-0.05147 -0.29141,0.05514 -0.43755,0.08804 z"
         style="fill:#ffffff;fill-opacity:1;fill-rule:nonzero;stroke:none" />
      <path
         transform="translate(0,-8)"
         inkscape:connector-curvature="0"
         id="path67499"
         d="m 827.76122,51.372544 c -1.2581,1.156496 -2.43256,2.591729 -4.17001,3.020121 -0.38658,0.190029 -0.85691,0.107721 -1.2179,0.31418 -0.47876,0.358378 -0.0331,0.968097 0.45439,0.986743 1.53868,0.267166 2.86469,1.183639 3.93838,2.29014 0.45509,0.336875 0.85094,1.246858 1.51166,0.887894 1.31679,-1.276594 2.66939,-2.744385 4.54725,-3.112966 0.45527,-0.0023 1.03614,-0.428848 0.69474,-0.909877 -0.48093,-0.446103 -1.235,-0.369759 -1.7977,-0.687173 -1.39081,-0.556458 -2.39809,-1.718906 -3.43897,-2.735004 -0.16367,-0.140463 -0.32925,-0.09477 -0.52184,-0.05406 z"
         style="fill:#ffffff;fill-opacity:1;fill-rule:nonzero;stroke:none" />
      <path
         transform="translate(0,-8)"
         inkscape:connector-curvature="0"
         id="path67501"
         d="m 844.25717,53.47489 c -0.6488,0.279353 -1.08959,0.966792 -1.69415,1.357987 -0.85924,0.762403 -1.89794,1.265404 -3.01746,1.507393 -0.5841,0.04504 -0.65831,0.949465 -0.072,1.06718 1.08653,0.274435 2.15835,0.657299 3.02812,1.390003 0.5515,0.332241 0.91334,0.936685 1.48929,1.224749 0.5662,0.155719 0.75501,-0.533781 0.61306,-0.957954 -0.25885,-1.701889 -0.0563,-3.426046 0.28547,-5.090451 9.8e-4,-0.322097 -0.319,-0.579137 -0.6323,-0.498907 z"
         style="fill:#ffffff;fill-opacity:1;fill-rule:nonzero;stroke:none" />
      <path
         transform="translate(0,-8)"
         inkscape:connector-curvature="0"
         id="path67503"
         d="m 827.34235,46.484856 c -3.77709,0.05877 -7.57205,0.280544 -11.28411,0.999847 -2.01028,0.481123 -4.06856,0.994582 -5.87082,2.02561 -0.44887,0.269946 -0.94857,0.837261 -0.49488,1.329304 0.51533,0.715451 0.73361,1.596388 1.21288,2.323454 0.53881,0.438846 1.10407,-0.243888 1.63541,-0.406672 3.22349,-1.375447 6.74892,-1.85588 10.21379,-2.262875 3.11,-0.232429 6.25117,-0.212399 9.37121,-0.09759 3.51647,0.332423 7.08015,0.791335 10.40746,1.9998 0.70027,0.229 1.33013,0.616106 1.97466,0.948426 0.7394,0.02481 0.72575,-0.901121 1.06207,-1.358579 0.25312,-0.595211 0.78503,-1.048761 0.94423,-1.67755 -0.26452,-0.653848 -1.03856,-0.912488 -1.62211,-1.23793 -4.26953,-1.887164 -8.98892,-2.286464 -13.5984,-2.515103 -1.31618,-0.05815 -2.63396,-0.08178 -3.95139,-0.07014 z"
         style="fill:#ffffff;fill-opacity:1;fill-rule:nonzero;stroke:none" />
      <path
         transform="translate(0,-8)"
         inkscape:connector-curvature="0"
         id="path67505"
         d="m 845.66585,44.331819 c -1.18381,0.01538 -2.17309,1.177232 -1.96629,2.353134 -0.0145,1.431219 1.71123,2.512559 2.99611,1.856894 1.39837,-0.563552 1.82331,-2.664568 0.64298,-3.657762 -0.43557,-0.449307 -1.06921,-0.576561 -1.6728,-0.552266 z"
         style="fill:#ffffff;fill-opacity:1;fill-rule:nonzero;stroke:none" />
      <path
         transform="translate(0,-8)"
         inkscape:connector-curvature="0"
         id="path67507"
         d="m 836.76289,42.40289 c -1.29152,0.01005 -2.21529,1.382545 -1.93693,2.598585 0.13666,1.050141 1.13253,1.912408 2.21173,1.747508 1.41837,-0.0525 2.52246,-1.67118 1.90492,-2.985437 -0.34411,-0.855229 -1.25887,-1.429733 -2.17972,-1.360656 z"
         style="fill:#ffffff;fill-opacity:1;fill-rule:nonzero;stroke:none" />
      <path
         transform="translate(0,-8)"
         inkscape:connector-curvature="0"
         id="path67509"
         d="m 827.87594,41.711891 c -1.21549,0.0037 -2.31771,1.125469 -2.12902,2.355801 0.0913,1.470536 1.90968,2.543039 3.1962,1.734169 1.08897,-0.453174 1.62597,-1.870039 1.04317,-2.908068 -0.45552,-0.694754 -1.25621,-1.226226 -2.11035,-1.181902 z"
         style="fill:#ffffff;fill-opacity:1;fill-rule:nonzero;stroke:none" />
      <path
         transform="translate(0,-8)"
         inkscape:connector-curvature="0"
         id="path67511"
         d="m 818.96765,42.40289 c -1.34121,0.06689 -2.48326,1.472966 -2.03031,2.798681 0.42314,1.349091 2.27526,2.067576 3.42032,1.155224 1.25813,-0.967931 1.04459,-3.340066 -0.54427,-3.852523 -0.27035,-0.09709 -0.56059,-0.122068 -0.84574,-0.101382 z"
         style="fill:#ffffff;fill-opacity:1;fill-rule:nonzero;stroke:none" />
      <path
         transform="translate(0,-8)"
         inkscape:connector-curvature="0"
         id="path67513"
         d="m 809.998,44.331819 c -1.36967,-0.03624 -2.53194,1.388091 -2.12369,2.718643 0.39126,1.520761 2.54752,2.259891 3.70312,1.12054 1.21692,-1.03009 0.84353,-3.409175 -0.80839,-3.761812 -0.25091,-0.06635 -0.51221,-0.08715 -0.77104,-0.07737 z"
         style="fill:#ffffff;fill-opacity:1;fill-rule:nonzero;stroke:none" />
      <path
         transform="translate(0,-8)"
         inkscape:connector-curvature="0"
         id="path67515"
         d="m 810.99848,24.540954 c -3.02327,0.07003 -6.15135,1.985817 -7.0007,4.991737 -0.36358,1.926797 0.0755,3.905071 0.88372,5.662911 1.31834,2.909832 3.19007,5.588138 5.53537,7.767558 0.60556,0.45689 1.3838,-0.02228 2.05503,-0.01464 3.46854,-0.503605 6.95077,-1.022295 10.46808,-1.025925 0.56662,-0.10726 1.34146,0.184166 1.75111,-0.290901 0.20852,-0.64072 -0.002,-1.382046 0.0395,-2.06213 -0.0574,-4.014298 -1.28041,-8.185067 -4.1473,-11.10096 -1.88387,-1.904737 -4.41044,-3.110056 -7.01029,-3.674192 -0.84678,-0.161376 -1.71066,-0.277325 -2.57457,-0.253455 z m 1.26995,3.716457 c 2.19125,0.150293 4.34891,1.245826 5.66673,3.036129 1.46379,1.887434 2.12989,4.272038 2.10234,6.645867 -0.0602,0.355698 0.11621,0.819983 -0.0774,1.128544 -0.36789,0.32305 -0.93074,-0.103033 -0.86175,-0.549598 -0.11063,-1.904184 -0.24015,-3.911084 -1.30853,-5.558517 -1.1117,-1.984183 -3.14703,-3.419535 -5.42004,-3.6806 -1.12464,-0.145564 -2.57651,0.249306 -2.92941,1.464705 -0.4991,1.672524 -0.0412,3.515539 1.01382,4.879684 0.96405,1.451128 2.41078,2.586482 3.14285,4.178012 0.007,0.316351 -0.49686,0.531481 -0.76571,0.349502 -1.13911,-0.980579 -2.02533,-2.250774 -2.9214,-3.446994 -1.07584,-1.376063 -1.83566,-3.078553 -1.68882,-4.85834 0.0683,-1.43857 0.81475,-3.091671 2.35047,-3.422981 0.55599,-0.133324 1.12403,-0.149387 1.69682,-0.165413 z m 0.48823,7.939824 c 0.78698,0.464064 1.47619,1.289282 2.47319,1.272613 0.69662,0.0086 1.30725,-0.396047 1.85156,-0.757699 0.24187,4.9e-4 -0.24706,0.232284 -0.28814,0.296143 -0.6925,0.449401 -1.55596,1.130612 -2.40649,0.653648 -0.59964,-0.374509 -1.23458,-0.910901 -1.63012,-1.464705 z"
         style="fill:#ffffff;fill-opacity:1;fill-rule:nonzero;stroke:none" />
      <path
         transform="translate(0,-8)"
         inkscape:connector-curvature="0"
         id="path67517"
         d="m 844.44926,24.543622 c -2.54479,0.196719 -5.13687,0.839076 -7.22481,2.379813 -2.49979,1.754907 -4.28286,4.428657 -5.24305,7.303919 -0.72217,2.34178 -0.7904,4.828241 -0.79082,7.254001 0.18684,0.70136 1.08474,0.343729 1.61574,0.430632 4.11173,-0.0032 8.17832,0.69013 12.22989,1.269945 0.71086,-0.148284 1.11217,-0.868145 1.60877,-1.339312 2.38414,-2.757255 4.51699,-5.916214 5.33857,-9.511247 0.45891,-1.777238 -0.0423,-3.740977 -1.269,-5.107658 -1.53387,-1.787047 -3.92171,-2.7712 -6.26529,-2.680093 z m -0.30682,3.713789 c 1.43415,-0.06358 2.97506,0.769371 3.35186,2.217823 0.55793,1.832233 0.19174,3.902587 -0.94803,5.455205 -1.06065,1.524793 -2.15311,3.084608 -3.56705,4.298071 -0.2876,0.03549 -0.73979,-0.234897 -0.65098,-0.54693 1.21715,-1.991675 3.12992,-3.527056 4.07396,-5.696077 0.429,-1.172086 0.48178,-2.582924 -0.12539,-3.700449 -0.75523,-1.1223 -2.30236,-1.180896 -3.49235,-0.859081 -2.6887,0.524229 -4.72588,2.829086 -5.49854,5.375176 -0.44028,1.362138 -0.35772,2.818828 -0.57906,4.210775 -0.19006,0.293293 -0.95179,0.239816 -0.87242,-0.245452 -0.0842,-2.605985 0.44196,-5.322964 2.0853,-7.417671 1.45962,-1.890324 3.82119,-3.113482 6.2227,-3.09139 z m -1.09386,8.011858 c -0.60238,0.58364 -1.155,1.379506 -2.00363,1.566088 -0.87306,0.0345 -1.59434,-0.610471 -2.25442,-1.099196 0.36153,-0.03651 0.61991,0.434739 0.98448,0.514915 0.83214,0.435314 1.80995,0.157252 2.50787,-0.397525 0.25113,-0.166609 0.57005,-0.468259 0.7657,-0.584282 z"
         style="fill:#ffffff;fill-opacity:1;fill-rule:nonzero;stroke:none" />
      <path
         transform="translate(0,-8)"
         inkscape:connector-curvature="0"
         id="path67519"
         d="m 827.76656,35.967791 c -1.40283,0.04286 -2.43563,1.634709 -1.91026,2.940083 0.38244,1.223156 1.95115,1.978197 3.08416,1.259273 1.24532,-0.555442 1.74139,-2.380863 0.7657,-3.398971 -0.47312,-0.554867 -1.21124,-0.861167 -1.9396,-0.800385 z"
         style="fill:#ffffff;fill-opacity:1;fill-rule:nonzero;stroke:none" />
      <path
         transform="translate(0,-8)"
         inkscape:connector-curvature="0"
         id="path67521"
         d="m 827.80658,29.268564 c -1.60243,0.02204 -3.11399,1.551646 -2.8227,3.201542 0.24309,1.734065 2.17402,3.048069 3.86587,2.441176 1.32901,-0.366045 2.27776,-1.701341 2.12902,-3.078816 -0.0743,-1.554348 -1.67491,-2.71012 -3.17219,-2.563902 z"
         style="fill:#ffffff;fill-opacity:1;fill-rule:nonzero;stroke:none" />
      <path
         transform="translate(0,-8)"
         inkscape:connector-curvature="0"
         id="path67523"
         d="m 802.06885,24.535618 c -1.27277,-0.01843 -2.41736,1.207472 -2.16371,2.491867 0.1575,1.19469 1.42801,1.995279 2.58524,1.779524 1.05076,-0.07216 1.85366,-1.050287 1.77953,-2.089007 0.052,-1.218934 -0.9452,-2.319477 -2.20106,-2.182384 z"
         style="fill:#ffffff;fill-opacity:1;fill-rule:nonzero;stroke:none" />
      <path
         transform="translate(0,-8)"
         inkscape:connector-curvature="0"
         id="path67525"
         d="m 806.83648,19.690618 c -1.43124,0.01426 -2.25696,1.686458 -1.83822,2.937415 0.22697,0.954645 1.21794,1.525757 2.16361,1.391277 0.92876,0.03612 1.82797,-0.609223 1.97438,-1.548687 0.30541,-1.242651 -0.56516,-2.760861 -1.92893,-2.780005 -0.12337,-0.0053 -0.24769,-0.01101 -0.37084,0 z"
         style="fill:#ffffff;fill-opacity:1;fill-rule:nonzero;stroke:none" />
      <path
         transform="translate(0,-8)"
         inkscape:connector-curvature="0"
         id="path67527"
         d="m 813.98659,20.01344 c -1.50781,-0.0098 -2.75417,1.876032 -1.88358,3.196206 0.55236,1.080087 2.03394,1.689391 3.09483,0.957795 1.45052,-0.859818 1.38152,-3.404603 -0.25346,-4.017936 -0.30237,-0.122276 -0.63427,-0.153836 -0.95779,-0.136065 z"
         style="fill:#ffffff;fill-opacity:1;fill-rule:nonzero;stroke:none" />
      <path
         transform="translate(0,-8)"
         inkscape:connector-curvature="0"
         id="path67529"
         d="m 827.71853,19.135684 c -2.0678,0.03365 -3.90783,1.794969 -4.03394,3.85519 -0.21636,1.931226 1.00428,3.865371 2.82003,4.535518 0.84714,0.289168 1.79759,0.235592 2.66528,0.06403 1.51845,-0.504654 2.82798,-1.868325 3.04947,-3.481677 0.0449,-0.971043 0.0843,-2.013705 -0.50424,-2.846705 -0.80887,-1.380254 -2.40639,-2.205572 -3.9966,-2.126357 z m 0.31482,2.892059 c 0.87114,-0.06717 1.54849,0.845192 1.35799,1.66747 -0.0663,0.809125 -0.93062,1.334707 -1.69949,1.147219 -0.79502,-0.07766 -1.32278,-0.958114 -1.10186,-1.712825 0.0879,-0.698106 0.75763,-1.154023 1.44336,-1.101864 z"
         style="fill:#ffffff;fill-opacity:1;fill-rule:nonzero;stroke:none" />
      <path
         transform="translate(0,-8)"
         inkscape:connector-curvature="0"
         id="path67531"
         d="m 823.78597,10.451501 c -0.38841,0.505382 -0.11062,1.20995 -0.19476,1.803536 0.24921,0.692737 0.98291,1.084421 1.43803,1.648794 0.18962,0.371801 1.15149,0.750356 0.75487,1.11703 -0.69218,0.719051 -1.50322,1.350698 -2.11888,2.126987 -0.13534,0.537469 -0.0953,1.166756 -0.02,1.717614 0.27966,0.591699 1.09333,0.243381 1.61881,0.336921 0.71799,-0.03693 1.05586,-0.834348 1.58667,-1.229583 0.37808,-0.377322 0.75644,-0.754358 1.13464,-1.131555 0.78964,0.748328 1.49099,1.617226 2.33453,2.291908 0.53335,0.125579 1.15583,0.09297 1.70132,0.01523 0.5917,-0.279662 0.24338,-1.093331 0.33692,-1.61881 -0.0328,-0.722573 -0.83694,-1.060252 -1.23451,-1.592414 -0.36829,-0.367546 -0.73687,-0.734798 -1.10528,-1.102217 0.74138,-0.762644 1.59909,-1.438483 2.26636,-2.256576 0.14919,-0.569106 0.0634,-1.220721 0.0464,-1.810337 -0.20199,-0.688077 -1.08367,-0.33035 -1.61646,-0.417914 -0.81192,-0.08348 -1.15887,0.835797 -1.71085,1.270037 -0.35729,0.292795 -0.71411,0.921047 -1.0723,1.005551 -0.74171,-0.721199 -1.39918,-1.556074 -2.1974,-2.202155 -0.54068,-0.146782 -1.16395,-0.06495 -1.72496,-0.04644 -0.0744,0.02479 -0.14877,0.04959 -0.22316,0.07438 z"
         style="fill:#ffffff;fill-opacity:1;fill-rule:nonzero;stroke:none" />
      <path
         transform="translate(0,-8)"
         inkscape:connector-curvature="0"
         id="path67533"
         d="m 841.78664,19.989428 c -1.14515,-5.12e-4 -2.17468,1.067945 -2.01697,2.22774 -0.20941,1.566525 1.76419,2.862592 3.10283,1.984956 0.76766,-0.448527 1.18945,-1.338965 1.0485,-2.217068 0.0315,-1.129191 -1.03957,-2.04667 -2.13436,-1.995628 z"
         style="fill:#ffffff;fill-opacity:1;fill-rule:nonzero;stroke:none" />
      <path
         transform="translate(0,-8)"
         inkscape:connector-curvature="0"
         id="path67535"
         d="m 848.84871,19.663938 c -1.21809,0.01141 -2.23599,1.155584 -2.11302,2.369141 -0.0719,1.314209 1.37911,2.233381 2.58525,1.971617 0.9428,-0.0423 1.67079,-0.862678 1.72083,-1.78486 0.18081,-1.146167 -0.57613,-2.439829 -1.7982,-2.53989 -0.13097,-0.01504 -0.26307,-0.02431 -0.39486,-0.01601 z"
         style="fill:#ffffff;fill-opacity:1;fill-rule:nonzero;stroke:none" />
      <path
         transform="translate(0,-8)"
         inkscape:connector-curvature="0"
         id="path67537"
         d="m 853.58699,24.543622 c -1.02494,0.01578 -1.89154,0.92845 -1.84088,1.958276 -0.11336,0.920108 0.32449,1.943884 1.27261,2.206396 0.97373,0.281059 2.31665,0.07411 2.70797,-0.997814 0.43457,-1.060987 0.16451,-2.655771 -1.05918,-3.038796 -0.34909,-0.104225 -0.71653,-0.151529 -1.08052,-0.128062 z"
         style="fill:#ffffff;fill-opacity:1;fill-rule:nonzero;stroke:none" />
      <g
         transform="translate(795.98491,-1.9332703)"
         id="layer1-28"
         inkscape:label="Layer 1">
        <text
           xml:space="preserve"
           style="font-size:76px;font-style:normal;font-variant:normal;font-weight:normal;font-stretch:normal;line-height:125%;letter-spacing:0px;word-spacing:0px;fill:#000000;fill-opacity:1;stroke:none;font-family:DiagramTTOldstyle;-inkscape-font-specification:DiagramTTOldstyle"
           x="-6"
           y="48.226074"
           id="text3164"
           sodipodi:linespacing="125%"><tspan
             sodipodi:role="line"
             id="tspan3166"
             x="-6"
             y="48.226074">k</tspan></text>
      </g>
    </g>
  </g>
</svg>
