<?xml version="1.0" encoding="UTF-8" standalone="no"?>
<!-- Created with Inkscape (http://www.inkscape.org/) -->

<svg
   xmlns:dc="http://purl.org/dc/elements/1.1/"
   xmlns:cc="http://creativecommons.org/ns#"
   xmlns:rdf="http://www.w3.org/1999/02/22-rdf-syntax-ns#"
   xmlns:svg="http://www.w3.org/2000/svg"
   xmlns="http://www.w3.org/2000/svg"
   xmlns:sodipodi="http://sodipodi.sourceforge.net/DTD/sodipodi-0.dtd"
   xmlns:inkscape="http://www.inkscape.org/namespaces/inkscape"
   width="64px"
   height="64px"
   id="svg3072"
   version="1.1"
   inkscape:version="0.48.1 "
   sodipodi:docname="wn.svg">
  <defs
     id="defs3074" />
  <sodipodi:namedview
     id="base"
     pagecolor="#ffffff"
     bordercolor="#666666"
     borderopacity="1.0"
     inkscape:pageopacity="0.0"
     inkscape:pageshadow="2"
     inkscape:zoom="5.5"
     inkscape:cx="16.727273"
     inkscape:cy="17.590577"
     inkscape:current-layer="layer1"
     showgrid="true"
     inkscape:document-units="px"
     inkscape:grid-bbox="true"
     inkscape:window-width="1365"
     inkscape:window-height="878"
     inkscape:window-x="-8"
     inkscape:window-y="-8"
     inkscape:window-maximized="1" />
  <metadata
     id="metadata3077">
    <rdf:RDF>
      <cc:Work
         rdf:about="">
        <dc:format>image/svg+xml</dc:format>
        <dc:type
           rdf:resource="http://purl.org/dc/dcmitype/StillImage" />
        <dc:title></dc:title>
      </cc:Work>
    </rdf:RDF>
  </metadata>
  <g
     id="layer1"
     inkscape:label="Layer 1"
     inkscape:groupmode="layer">
    <path
       style="fill:#000000"
       d="M 9.7259655,60.739255 C 5.0634583,57.8456 7.0778201,50.359815 12.518985,50.359815 c 1.539753,0 1.539857,-1.28e-4 1.287272,-1.600692 -0.32238,-2.042851 1.140139,-4.406143 3.083882,-4.983258 l 1.329047,-0.394611 0.176459,-5.154458 c 0.152086,-4.442507 0.332081,-5.49261 1.303148,-7.602648 1.59906,-3.474605 3.149508,-5.337426 5.613827,-6.744856 1.28679,-0.734916 1.895456,-1.293982 1.522596,-1.398521 -0.341649,-0.09579 -1.620162,-0.504946 -2.84114,-0.909241 -1.886963,-0.624818 -2.55926,-0.659842 -4.481939,-0.23349 -3.511252,0.778615 -5.085353,0.473708 -5.641426,-1.092757 -0.254218,-0.716138 -0.894402,-1.898288 -1.422631,-2.627 -1.161127,-1.601821 -1.240382,-3.581998 -0.181714,-4.540079 0.792216,-0.716946 6.700931,-2.415558 8.40265,-2.415558 0.514038,0 1.779873,-0.575786 2.812966,-1.2795254 1.033094,-0.703739 2.629015,-1.487648 3.546494,-1.74202 2.096551,-0.5812726 4.09435,-2.5275044 4.09435,-3.9886667 0,-0.6397084 0.241497,-1.0999629 0.577153,-1.0999629 1.158921,0 3.456155,1.956297 3.830669,3.2621512 0.299678,1.0449161 0.733832,1.4317936 2.048915,1.8258024 2.132355,0.638869 5.797171,3.8417504 7.305736,6.3848814 0.964919,1.626657 1.170968,2.480399 1.173841,4.863702 0.003,2.560679 -0.201943,3.291702 -1.795789,6.402769 -1.606203,3.135184 -1.800869,3.836888 -1.814118,6.539266 -0.0131,2.668577 0.175017,3.40184 1.587759,6.189343 0.881435,1.73917 1.601747,3.576061 1.600692,4.081983 -0.0013,0.636631 0.575776,1.258404 1.874326,2.019403 2.080136,1.219041 2.948586,2.922933 2.537469,4.978512 -0.246114,1.230574 -0.211765,1.259531 1.494001,1.259531 3.333841,0 6.082098,3.703418 5.147362,6.936334 -0.471069,1.629261 -1.061904,2.438883 -2.506309,3.434398 -0.960061,0.661696 -2.965008,0.726377 -22.196268,0.716043 C 13.200251,61.43647 10.72258,61.35777 9.7259655,60.739255 z M 48.375393,52.234977 c 0.371357,-0.1425 0.67519,-0.6982 0.67519,-1.234885 0,-0.536684 -0.303833,-1.092385 -0.67519,-1.234885 -0.371352,-0.142504 -7.750843,-0.259094 -16.398864,-0.259094 -8.648022,0 -16.027512,0.11659 -16.398865,0.259094 -0.800776,0.307286 -0.906735,2.137441 -0.141624,2.44617 0.769304,0.310419 32.133351,0.332892 32.939353,0.02361 z m -3.899999,-8.811495 c 0.105223,-0.29346 0.01844,-0.86971 -0.192873,-1.280554 -0.352007,-0.684418 -1.382823,-0.74699 -12.305992,-0.74699 -10.92317,0 -11.953983,0.06257 -12.305991,0.74699 -0.906469,1.762469 -0.556096,1.814118 12.305991,1.814118 9.459436,0 12.351819,-0.123471 12.498865,-0.533564 z M 28.98857,38.194554 c -0.117384,-0.469537 -0.213426,-2.119391 -0.213426,-3.666344 0,-2.546557 0.154319,-3.044957 1.631231,-5.268355 1.54624,-2.327767 1.787548,-3.657414 0.663756,-3.657414 -0.912497,0 -3.659281,3.288626 -5.018258,6.008181 -2.238793,4.48022 -1.535366,7.828244 1.589988,7.567696 1.319214,-0.109977 1.527177,-0.261893 1.346709,-0.983764 z m 5.415112,-15.985678 c 1.589537,-0.96921 2.37583,-2.24853 2.188301,-3.560427 -0.209109,-1.462875 -1.427532,-1.388891 -2.054503,0.124751 -0.54352,1.312173 -2.315839,2.560728 -3.634944,2.560728 -1.035063,0 -2.399503,0.840269 -2.114156,1.30197 0.451974,0.73131 4.18063,0.44776 5.615302,-0.427022 z m -7.50578,-9.106503 c 1.72759,-1.16144 2.214523,-2.866578 0.818604,-2.866578 -1.982469,0 -4.579082,2.011924 -4.124729,3.195948 0.354732,0.924417 1.630178,0.797352 3.306125,-0.32937 z"
       id="path3347"
       inkscape:connector-curvature="0" />
    <path
       style="fill:#ffffff;fill-opacity:1;fill-rule:evenodd"
       d="m 16.769713,52.202822 c -1.537455,-0.102362 -1.539581,-0.103202 -1.701988,-0.672017 -0.1144,-0.400676 -0.08885,-0.723418 0.08618,-1.088598 0.212196,-0.442732 0.395656,-0.540396 1.247442,-0.664071 0.549262,-0.07975 7.980284,-0.121699 16.513383,-0.09322 15.11669,0.05045 15.521344,0.06083 15.772728,0.404712 0.291262,0.398429 0.337123,1.331367 0.08504,1.729873 -0.106533,0.16841 -0.650898,0.313062 -1.497217,0.39785 -1.525889,0.15287 -28.181963,0.140174 -30.505563,-0.01453 l 0,0 z"
       id="path3349"
       inkscape:connector-curvature="0" />
    <path
       style="fill:#ffffff;fill-opacity:1;fill-rule:evenodd"
       d="m 20.790298,43.64635 c -0.535336,-0.08098 -1.057073,-0.230975 -1.159415,-0.333317 -0.294355,-0.294355 0.0014,-1.086927 0.536558,-1.437674 0.448579,-0.294026 1.29259,-0.325416 10.224386,-0.380257 10.486509,-0.06439 13.362542,0.06451 13.766511,0.616966 0.345813,0.472928 0.303455,1.28358 -0.07652,1.464457 -0.414749,0.197429 -22.019825,0.262198 -23.29152,0.06983 l 0,0 z"
       id="path3351"
       inkscape:connector-curvature="0" />
    <path
       style="fill:#ffffff;fill-opacity:1;fill-rule:evenodd"
       d="m 26.129522,38.879772 c -1.695056,-0.982656 -1.69247,-3.746796 0.0067,-7.170578 1.92282,-3.874412 5.265872,-7.241869 5.50595,-5.546145 0.08142,0.575124 -0.220634,1.277115 -1.365835,3.174234 -1.484757,2.459619 -1.582027,2.889476 -1.468682,6.490453 0.09473,3.009443 0.08997,3.060914 -0.292049,3.163424 -0.648805,0.174098 -2.002656,0.110897 -2.386093,-0.111388 l 0,0 z"
       id="path3353"
       inkscape:connector-curvature="0" />
    <path
       style="fill:#ffffff;fill-opacity:1;fill-rule:evenodd"
       d="m 28.988245,22.697345 c -0.180102,-0.217009 -0.161867,-0.322693 0.09422,-0.546051 0.484199,-0.422324 1.066524,-0.686467 1.53286,-0.695306 1.344326,-0.02548 3.017954,-1.125655 3.885884,-2.554422 0.923671,-1.520527 1.74497,-1.624274 2.002237,-0.252925 0.245559,1.308944 -0.870826,2.878871 -2.618823,3.682744 -1.236575,0.568678 -4.524202,0.814399 -4.896373,0.36596 z"
       id="path3355"
       inkscape:connector-curvature="0" />
    <path
       style="fill:#ffffff;fill-opacity:1;fill-rule:evenodd"
       d="M 23.990909,13.819479 C 23.432985,13.483229 23.593813,12.633792 24.360575,11.86703 25.276182,10.951422 26.292,10.485786 27.4,10.473802 c 0.80976,-0.0088 0.915481,0.03518 0.967573,0.402172 0.192893,1.358929 -3.209295,3.647055 -4.376664,2.943505 z"
       id="path3357"
       inkscape:connector-curvature="0" />
  </g>
</svg>
