<?xml version="1.0" encoding="UTF-8" standalone="no"?>
<!-- Created with Inkscape (http://www.inkscape.org/) -->

<svg
   xmlns:dc="http://purl.org/dc/elements/1.1/"
   xmlns:cc="http://creativecommons.org/ns#"
   xmlns:rdf="http://www.w3.org/1999/02/22-rdf-syntax-ns#"
   xmlns:svg="http://www.w3.org/2000/svg"
   xmlns="http://www.w3.org/2000/svg"
   xmlns:sodipodi="http://sodipodi.sourceforge.net/DTD/sodipodi-0.dtd"
   xmlns:inkscape="http://www.inkscape.org/namespaces/inkscape"
   width="64px"
   height="64px"
   id="svg4261"
   version="1.1"
   inkscape:version="0.48.2 r9819"
   sodipodi:docname="bp.svg">
  <defs
     id="defs4263" />
  <sodipodi:namedview
     id="base"
     pagecolor="#ffffff"
     bordercolor="#666666"
     borderopacity="1.0"
     inkscape:pageopacity="0.0"
     inkscape:pageshadow="2"
     inkscape:zoom="5.5"
     inkscape:cx="34.363636"
     inkscape:cy="32"
     inkscape:current-layer="layer1"
     showgrid="true"
     inkscape:document-units="px"
     inkscape:grid-bbox="true"
     inkscape:window-width="984"
     inkscape:window-height="614"
     inkscape:window-x="324"
     inkscape:window-y="105"
     inkscape:window-maximized="0" />
  <metadata
     id="metadata4266">
    <rdf:RDF>
      <cc:Work
         rdf:about="">
        <dc:format>image/svg+xml</dc:format>
        <dc:type
           rdf:resource="http://purl.org/dc/dcmitype/StillImage" />
        <dc:title></dc:title>
      </cc:Work>
    </rdf:RDF>
  </metadata>
  <g
     id="layer1"
     inkscape:label="Layer 1"
     inkscape:groupmode="layer">
    <g
       id="g4000"
       transform="matrix(0.88,0,0,0.88,-444.16127,6.7091436)">
      <g
         style="fill:#4d4d4d"
         transform="translate(510.09632,0.0023319)"
         id="layer1-43-6-7"
         inkscape:label="Layer 1">
        <path
           d="M 24.25,0.46875 C 23.591992,0.63212069 23.277788,1.0398827 23,1.375 L 22.96875,1.34375 c -0.03272,0.032727 -0.0032,0.031973 -0.03125,0.0625 -0.01966,0.024159 -0.07495,0.038966 -0.09375,0.0625 L 22.875,1.5 C 22.609809,1.8385725 22.535307,2.0979802 22.5,2.28125 22.45729,2.5029473 22.437478,2.7154639 22.4375,2.9375 22.437454,3.560038 22.686374,4.2321182 23.125,4.75 22.71885,4.4731399 22.33085,4.1909603 21.875,3.9375 21.000599,3.4514668 19.907684,3.1835986 18.625,2.96875 l 0,-0.03125 c -0.04522,-0.015069 -0.108711,0.013012 -0.15625,0 -0.038,-0.00604 -0.05534,-0.025344 -0.09375,-0.03125 l 0,0.03125 c -0.409793,-0.097698 -0.851271,-0.1616021 -1.3125,0 -0.428402,0.1501006 -0.712058,0.4994933 -0.96875,0.8125 l -0.0625,-0.0625 c -0.08166,0.080437 -0.06365,0.1423724 -0.125,0.21875 -0.01941,0.02841 -0.07592,0.034018 -0.09375,0.0625 L 15.84375,4 c -0.373712,0.5246167 -0.40628,0.9748569 -0.40625,1.375 -1.35e-4,0.5904123 0.262854,0.958459 0.34375,1.09375 0.09638,0.1613959 0.303233,0.2678208 0.4375,0.40625 L 16.1875,6.90625 c 0.420612,0.5147809 0.761233,1.0090769 1.09375,1.46875 0.279703,0.3867882 0.510598,0.7787292 0.65625,1.125 0.16521,0.3929268 0.298396,0.826978 0.40625,1.34375 0.06857,0.328706 0.124718,0.800728 0.1875,1.21875 -1.328988,0.900017 -2.690465,2.101621 -4.25,3.875 -1.873855,2.130811 -3.8038,4.501961 -5.75,7.0625 L 6.8125,25.28125 A 1.50015,1.50015 0 0 0 6.78125,25.3125 C 5.9470371,26.458155 5.0522406,27.749636 4.125,29.21875 3.1752398,30.723544 2.3330266,32.306579 1.59375,33.96875 0.8355944,35.673354 0.36768342,37.269834 0.25,38.8125 a 1.50015,1.50015 0 0 0 0,0.125 l 0,0.78125 c -8.84e-6,0.988918 0.11490892,1.905757 0.375,2.71875 0.23470636,0.733717 0.5174943,1.32256 0.84375,1.84375 A 1.50015,1.50015 0 0 0 1.75,44.625 c 0.7628394,0.688207 1.8101184,1.062506 2.875,1.0625 1.3015114,7e-6 2.4300091,-0.668321 3.5625,-1.65625 0.1097323,-0.09573 0.2038771,-0.21506 0.3125,-0.3125 0.029122,0.896693 0.09054,1.62217 0.59375,2.375 a 1.50015,1.50015 0 0 0 0.1875,0.21875 c 0.884119,0.884145 2.086195,1.437503 3.34375,1.4375 1.420969,3e-6 2.864587,-0.541479 3.5625,-1.75 0.403851,-0.699386 0.726979,-1.338231 1,-1.9375 A 1.50015,1.50015 0 0 0 17.28125,43.75 l 0.1875,-0.8125 c 0.290686,-0.64153 0.656011,-1.239921 1.15625,-1.84375 0.534564,-0.645299 1.164298,-1.250353 1.84375,-1.8125 0.6942,-0.57437 1.335356,-1.055976 2,-1.46875 0.477895,-0.296801 0.833857,-0.523461 1.21875,-0.75 0.724099,0.340226 1.492562,0.593761 2.3125,0.59375 1.386893,1.3e-5 2.657945,-0.15552 3.8125,-0.4375 0.155524,-0.03798 0.284613,-0.115451 0.4375,-0.15625 -0.103988,0.306132 -0.165454,0.601081 -0.3125,0.90625 -0.258674,0.536726 -0.645272,1.12276 -1.15625,1.75 -0.432196,0.530476 -0.986755,1.006439 -1.71875,1.4375 a 1.50015,1.50015 0 0 0 -0.03125,0 c -0.553253,0.34629 -1.181522,0.85357 -2.09375,1.5625 -0.92558,0.719265 -1.990552,1.583032 -3.15625,2.59375 -1.185465,1.027807 -2.356217,2.142839 -3.5625,3.375 -1.222267,1.24843 -2.376546,2.523953 -3.40625,3.84375 -1.034427,1.32578 -1.907127,2.655174 -2.59375,4 -0.718353,1.406866 -1.093774,2.807077 -1.09375,4.15625 -5.3e-5,0.709853 0.379946,1.400586 0.84375,1.8125 0.431181,0.382954 1.115747,0.687469 1.78125,0.6875 l 42.5625,0 c 0.463469,-3.2e-5 0.763429,-0.100557 1.03125,-0.25 l 0.25,0.09375 0.21875,0.09375 0.03125,-0.03125 c 0.390496,0.194185 0.81939,0.35086 1.3125,0.28125 0.58774,-0.08297 1.073847,-0.38497 1.40625,-0.71875 0.305826,-0.305921 0.619763,-0.775089 0.75,-1.375 0.648397,-0.05816 1.302759,-0.350016 1.75,-0.84375 l 0.03125,0.03125 c 0.02823,-0.02824 0.0053,-0.0647 0.03125,-0.09375 0.03274,-0.03917 0.09553,-0.05261 0.125,-0.09375 l -0.0625,-0.0625 c 0.362347,-0.490194 0.5624,-1.049904 0.5625,-1.5 -1.13e-4,-0.421884 -0.0304,-0.785671 -0.25,-1.21875 a 1.50015,1.50015 0 0 0 -0.1875,-0.25 c 0.0033,0.0047 -0.03442,-0.03293 -0.03125,-0.03125 a 1.50015,1.50015 0 0 0 0,-0.03125 C 63.26726,57.166448 63.26981,57.155579 63.25,57.125 63.170761,57.002685 63.058169,56.803377 62.90625,56.5625 62.639445,56.139634 62.245845,55.552453 61.8125,54.90625 62.05552,54.79522 62.34319,54.572976 62.625,54.1875 l 0.0625,0.03125 c 0.02721,-0.03629 0.0063,-0.08734 0.03125,-0.125 0.04127,-0.0672 0.08274,-0.01063 0.125,-0.09375 l -0.0625,-0.03125 c 0.248311,-0.428171 0.437384,-0.912766 0.4375,-1.34375 -1.28e-4,-0.381104 -0.241837,-0.782493 -0.46875,-1.15625 l 0.09375,-0.0625 c -0.118705,-0.233514 -0.25798,-0.439425 -0.53125,-0.9375 -0.24781,-0.451458 -0.576304,-1.036626 -0.9375,-1.65625 0.599326,-0.161283 1.152153,-0.463423 1.53125,-0.90625 a 1.50015,1.50015 0 0 0 0.375,-0.96875 c 0.04605,-0.193101 0.156179,-0.426993 0.15625,-0.53125 -1.42e-4,-0.213735 -0.01741,-0.560784 -0.15625,-0.90625 -0.07345,-0.182278 -0.164017,-0.326168 -0.21875,-0.4375 a 1.50015,1.50015 0 0 0 -0.28125,-0.40625 c 0.07575,0.07565 -0.200737,-0.22235 -0.5625,-0.65625 -0.305332,-0.366083 -0.792458,-0.938987 -1.3125,-1.59375 0.07632,-0.03236 0.141749,-0.01994 0.21875,-0.0625 0.343777,-0.190025 0.550778,-0.581327 0.75,-0.9375 l 0.09375,0.0625 c 0.06154,-0.09284 0.04322,-0.241988 0.09375,-0.34375 0.01455,-0.03981 0.08238,-0.05416 0.09375,-0.09375 l -0.0625,0 c 0.12095,-0.269617 0.281097,-0.527893 0.28125,-0.875 -1.02e-4,-0.232721 -0.0088,-0.598466 -0.15625,-0.96875 C 62.146153,39.005702 62.060731,38.87163 62,38.75 a 1.50015,1.50015 0 0 0 -0.28125,-0.40625 c -0.0036,-0.0036 -0.251574,-0.258459 -0.625,-0.65625 -0.294361,-0.313445 -0.734325,-0.788007 -1.1875,-1.28125 0.06667,-0.04315 0.15725,-0.01174 0.21875,-0.0625 0.438817,-0.362169 0.677993,-0.832618 0.8125,-1.28125 A 1.50015,1.50015 0 0 0 61,34.625 l 0,-0.3125 C 60.99988,33.749716 60.770119,32.98906 60.28125,32.5 60.063844,32.28293 60.046933,32.299944 59.90625,32.1875 59.765567,32.075056 59.605279,31.929486 59.375,31.75 58.924487,31.398986 58.361445,30.986622 57.6875,30.4375 57.559318,30.333084 57.49501,30.284562 57.375,30.1875 l 0.375,-0.40625 -0.09375,-0.0625 c 0.220517,-0.239573 0.524436,-0.481557 0.59375,-0.65625 0.0552,-0.139419 0.187174,-0.378717 0.1875,-0.90625 l 0,-0.21875 a 1.50015,1.50015 0 0 0 -0.03125,-0.375 c -0.126851,-0.510963 -0.510406,-1.017199 -1,-1.40625 L 57.4375,26.125 C 57.179544,25.875274 57.147895,25.877413 57,25.78125 c -0.0061,-0.004 -0.02499,0.004 -0.03125,0 -0.144606,-0.09339 -0.282648,-0.221356 -0.5,-0.34375 -0.410029,-0.23078 -0.962478,-0.521155 -1.59375,-0.875 -0.03838,-0.0215 -0.05609,-0.04141 -0.09375,-0.0625 0.01677,-0.02161 0.04582,-0.04102 0.0625,-0.0625 L 55.375,23.75 c 0.355867,-0.474617 0.531128,-1.081359 0.53125,-1.59375 -7.7e-5,-0.258947 0.07909,-0.528452 -0.21875,-1.125 A 1.50015,1.50015 0 0 0 55.40625,20.625 c -0.07525,-0.07405 -0.07431,-0.06568 -0.03125,0 -0.261843,-0.398198 -0.449961,-0.540354 -0.71875,-0.71875 a 1.50015,1.50015 0 0 0 -0.8125,-0.25 c 0.107186,0.02539 0.24345,-7.3e-5 -0.03125,0 C 53.703859,19.629902 53.563568,19.566133 53.34375,19.5 52.812937,19.340398 52.174936,19.171957 51.4375,18.96875 51.312226,18.934244 51.242667,18.90741 51.125,18.875 l 0.1875,-0.59375 A 1.50015,1.50015 0 0 0 51.375,17.8125 l 0,-0.21875 c -4.6e-5,-0.537375 -0.08827,-1.150721 -0.53125,-1.6875 -0.442977,-0.536779 -1.190749,-0.781216 -1.75,-0.78125 0.346432,-2.1e-4 0.285062,0.01695 0.28125,0.03125 -0.115187,-0.04034 -0.318943,-0.1374 -0.5625,-0.21875 -0.498601,-0.166427 -1.101804,-0.315847 -1.8125,-0.5 -0.198148,-0.05132 -0.32112,-0.08243 -0.5,-0.125 4e-6,-0.04204 -5e-6,-0.08258 0,-0.125 l 0.0625,-0.5625 a 1.50015,1.50015 0 0 0 0,-0.125 c -9.3e-5,-1.016218 -0.802824,-2.194992 -1.8125,-2.5625 a 1.50015,1.50015 0 0 0 -0.5,-0.09375 c 0.06749,-2.4e-5 -0.202868,0.0047 -0.625,-0.0625 -0.460408,-0.07324 -1.105479,-0.186147 -1.8125,-0.3125 -0.24815,-0.04432 -0.40578,-0.03157 -0.625,-0.0625 l 0,-0.34375 A 1.50015,1.50015 0 0 0 41.15625,9.78125 C 41.057434,9.2410339 40.764821,8.6380624 40.25,8.25 39.735179,7.8619376 39.138061,7.7500327 38.625,7.75 a 1.50015,1.50015 0 0 0 -0.09375,0 L 34.71875,8 C 34.643973,7.9769501 34.579928,7.9602095 34.5,7.9375 34.204466,7.8536978 33.965732,7.8505642 33.75,7.84375 l 0,-0.03125 -0.15625,0 -0.3125,-0.0625 -0.3125,-1 A 1.50015,1.50015 0 0 0 32.875,6.53125 C 32.280061,5.3433211 31.423667,4.2472668 30.34375,3.3125 29.248781,2.3648782 27.812489,1.4891601 25.96875,0.59375 a 1.50015,1.50015 0 0 0 -0.375,-0.125 c -0.418873,-0.0816452 -0.878769,-0.11526935 -1.34375,0 z m 0.53125,20.96875 c 0.166043,8e-6 0.223631,0.01125 0.4375,0.25 0.264873,0.295766 0.281241,0.378549 0.28125,0.53125 -1.3e-5,0.24021 -0.03245,0.314035 -0.21875,0.5 -0.187488,0.187149 -0.263716,0.218759 -0.5,0.21875 -0.151324,6e-6 -0.108073,0.0093 -0.21875,-0.125 -0.13115,-0.15913 -0.187515,-0.274083 -0.1875,-0.59375 -1.2e-5,-0.239666 0.04422,-0.376951 0.25,-0.65625 0.142652,-0.193627 0.0816,-0.124996 0.15625,-0.125 z m 10.875,12.875 c -0.03859,0.03842 -0.08704,0.121635 -0.09375,0.125 l -0.03125,-0.03125 c 0.04681,-0.01967 0.07874,-0.07267 0.125,-0.09375 z m 17.03125,18.25 c 0.0312,2.017925 -0.01311,3.823846 -0.0625,5.5625 l -0.09375,0 c 0.06502,-1.755269 0.135477,-3.546343 0.15625,-5.5625 z"
           id="path3977-6"
           style="font-size:76px;font-style:normal;font-variant:normal;font-weight:normal;font-stretch:normal;line-height:125%;letter-spacing:0px;word-spacing:0px;fill:#4d4d4d;fill-opacity:1;stroke:none;font-family:DiagramTTOldstyle;-inkscape-font-specification:DiagramTTOldstyle"
           inkscape:original="M 24.625 1.9375 C 24.422414 1.9877982 24.233775 2.152715 24.03125 2.40625 C 23.980195 2.4573209 23.93747 2.6344854 23.9375 2.9375 C 23.93747 3.3426553 24.047415 3.6396927 24.25 3.84375 C 24.50355 3.9953239 24.630707 4.2217234 24.65625 4.5 C 24.681732 4.7783635 24.718719 5.1491313 24.71875 5.65625 L 24.71875 7.71875 C 24.514618 7.3136799 24.064911 6.9723717 23.40625 6.71875 L 22.96875 6.4375 C 22.46156 6.0324312 21.840426 5.6304134 21.15625 5.25 C 20.472019 4.869672 19.473607 4.5775987 18.15625 4.375 C 17.701637 4.2235138 17.347307 4.3449329 17.09375 4.75 C 16.991676 4.8505476 16.937477 5.0704367 16.9375 5.375 C 16.937477 5.475547 16.986712 5.560752 17.0625 5.6875 C 17.138242 5.8143325 17.241676 5.9177666 17.34375 5.96875 C 17.799862 6.5269782 18.17063 7.0446779 18.5 7.5 C 18.829321 7.9554029 19.10992 8.4246407 19.3125 8.90625 C 19.51503 9.3879373 19.685684 9.923622 19.8125 10.53125 C 19.939265 11.138953 20.055719 11.857539 20.15625 12.71875 C 18.838842 13.428501 17.255511 14.834668 15.40625 16.9375 C 13.556947 19.040393 11.643781 21.373562 9.71875 23.90625 L 8 26.1875 C 7.1882193 27.302348 6.3177368 28.587096 5.40625 30.03125 C 4.4947406 31.47544 3.6784572 32.998062 2.96875 34.59375 C 2.259025 36.189465 1.8504968 37.620127 1.75 38.9375 L 1.75 39.71875 C 1.7499923 40.580004 1.8599369 41.335578 2.0625 41.96875 C 2.2650472 42.601934 2.4964109 43.094894 2.75 43.5 C 3.2556061 43.95614 3.864248 44.187504 4.625 44.1875 C 5.3347055 44.187504 6.2002239 43.767501 7.1875 42.90625 C 8.1747499 42.045009 9.1189628 41.106534 10.03125 40.09375 C 10.031234 40.245288 10.024724 40.410204 10 40.5625 C 9.9752445 40.71481 9.9687341 40.837003 9.96875 40.9375 C 9.9687341 41.951829 9.9752445 42.839523 10 43.625 C 10.024724 44.410485 10.141179 44.946943 10.34375 45.25 C 11.002424 45.908693 11.763736 46.250002 12.625 46.25 C 13.739808 46.250002 14.494609 45.908693 14.875 45.25 C 15.25535 44.591312 15.558898 43.994145 15.8125 43.4375 L 16.03125 42.4375 C 16.385313 41.625739 16.860288 40.859463 17.46875 40.125 C 18.077165 39.390552 18.765519 38.732675 19.5 38.125 C 20.23443 37.517344 20.953017 36.987397 21.6875 36.53125 C 22.421928 36.075126 23.066784 35.679618 23.625 35.375 C 24.334687 35.882173 25.138722 36.156262 26 36.15625 C 27.266324 36.156262 28.430426 36.003593 29.46875 35.75 C 30.507003 35.496432 31.451216 35.186373 32.3125 34.78125 C 32.262983 35.288424 32.152265 35.878308 32 36.5625 C 31.847659 37.246715 31.610558 37.941579 31.28125 38.625 C 30.951867 39.30844 30.494877 39.972054 29.9375 40.65625 C 29.380051 41.340461 28.673712 41.930345 27.8125 42.4375 C 27.407356 42.691086 26.755989 43.197311 25.84375 43.90625 C 24.931447 44.615197 23.889537 45.449465 22.75 46.4375 C 21.610405 47.425538 20.471816 48.533894 19.28125 49.75 C 18.090634 50.966102 16.988014 52.202388 16 53.46875 C 15.011942 54.735101 14.196432 55.977124 13.5625 57.21875 C 12.928529 58.460357 12.624981 59.623686 12.625 60.6875 C 12.624981 60.941068 12.740663 61.172431 12.96875 61.375 C 13.196799 61.577542 13.445375 61.687486 13.75 61.6875 L 56.3125 61.6875 C 56.514993 61.687486 56.789081 61.523343 57.09375 61.21875 L 58.375 61.75 C 58.780046 62.003567 59.14585 61.949367 59.5 61.59375 C 59.753515 61.340156 59.906184 61.095771 59.90625 60.84375 C 59.906184 60.741686 59.862686 60.676013 59.8125 60.625 C 59.762182 60.573962 59.70721 60.475492 59.65625 60.375 L 59.4375 60 C 59.33693 59.797433 59.17124 59.566069 58.96875 59.3125 C 59.475846 59.414539 59.938573 59.524484 60.34375 59.625 L 61.03125 59.84375 C 61.436293 59.893217 61.777602 59.760323 62.03125 59.40625 C 62.182712 59.254709 62.249932 59.023345 62.25 58.71875 C 62.249932 58.465159 62.207207 58.287994 62.15625 58.1875 C 62.105157 58.136464 61.928765 57.856639 61.625 57.375 C 61.3211 56.893342 60.906834 56.25345 60.375 55.46875 C 59.843033 54.684035 59.373795 53.971185 58.96875 53.3125 C 59.32277 53.361974 59.664078 53.417719 59.96875 53.46875 L 60.5 53.625 C 60.702489 53.725499 60.891128 53.726272 61.09375 53.625 C 61.296238 53.523717 61.448907 53.412999 61.5 53.3125 C 61.653009 53.108393 61.718682 52.87703 61.71875 52.625 C 61.718682 52.42244 61.653009 52.246822 61.5 52.09375 C 61.448907 51.993241 61.278253 51.694658 61 51.1875 C 60.721613 50.680336 60.325333 50.023232 59.84375 49.1875 C 59.362036 48.351766 58.94777 47.596192 58.59375 46.9375 L 60.71875 47.46875 C 61.123794 47.46875 61.478123 47.291586 61.78125 46.9375 C 61.781182 46.83545 61.823907 46.732016 61.875 46.65625 C 61.925958 46.580486 61.937432 46.506756 61.9375 46.40625 C 61.937432 46.304201 61.925958 46.189292 61.875 46.0625 C 61.823907 45.935712 61.768161 45.819257 61.71875 45.71875 C 61.667657 45.667727 61.442804 45.424889 61.0625 44.96875 C 60.682062 44.512617 60.20135 43.884973 59.59375 43.125 C 58.986019 42.365036 58.456072 41.701422 58 41.09375 C 58.456072 41.093757 58.8646 41.105231 59.21875 41.15625 L 59.75 41.15625 C 60.306574 41.156257 60.616633 40.980638 60.71875 40.625 C 60.819188 40.473478 60.874933 40.307788 60.875 40.15625 C 60.874933 40.003182 60.862685 39.876025 60.8125 39.75 C 60.762181 39.623991 60.707209 39.508309 60.65625 39.40625 C 60.605158 39.355233 60.380305 39.123869 60 38.71875 C 59.619563 38.313649 59.138851 37.783702 58.53125 37.125 C 57.92352 36.46632 57.350848 35.869153 56.84375 35.3125 C 57.250344 35.312513 57.645851 35.325533 58 35.375 L 58.59375 35.375 C 59.049821 35.375013 59.348405 35.130628 59.5 34.625 L 59.5 34.3125 C 59.499935 34.007908 59.42124 33.765069 59.21875 33.5625 C 59.16766 33.511489 58.892798 33.292373 58.4375 32.9375 C 57.982073 32.582657 57.434141 32.15118 56.75 31.59375 C 56.065734 31.036353 55.498799 30.584327 55.09375 30.28125 C 55.498799 29.976662 55.853128 29.666604 56.15625 29.3125 L 56.625 28.78125 C 56.726988 28.73179 56.793435 28.62681 56.84375 28.5 C 56.893939 28.373229 56.937437 28.25832 56.9375 28.15625 L 56.9375 27.9375 C 56.836933 27.53241 56.659768 27.289571 56.40625 27.1875 C 56.355162 27.138042 56.123799 26.978089 55.71875 26.75 C 55.313578 26.521953 54.789368 26.22988 54.15625 25.875 C 53.523012 25.520164 52.987327 25.222353 52.53125 24.96875 C 52.936302 24.461612 53.302105 23.98741 53.65625 23.53125 L 54.1875 22.84375 C 54.340516 22.639674 54.40619 22.40831 54.40625 22.15625 C 54.40619 21.953721 54.394715 21.789577 54.34375 21.6875 C 54.241639 21.587022 54.175192 21.514064 54.125 21.4375 C 54.074688 21.360988 53.96397 21.256781 53.8125 21.15625 C 53.71039 21.156277 53.412579 21.08983 52.90625 20.9375 C 52.399803 20.785224 51.766422 20.608833 51.03125 20.40625 C 50.295964 20.203722 49.704534 20.039579 49.25 19.9375 C 49.401475 19.481392 49.52444 19.048369 49.625 18.59375 L 49.875 17.8125 L 49.875 17.59375 C 49.874944 16.93509 49.600856 16.625031 49.09375 16.625 C 49.04267 16.625031 48.799831 16.527334 48.34375 16.375 C 47.88756 16.222729 47.308378 16.052074 46.625 15.875 C 45.941517 15.69799 45.405059 15.582308 45 15.53125 C 44.999949 15.075147 44.999949 14.643669 45 14.1875 L 45.0625 13.5 C 45.062449 12.943394 44.80659 12.546341 44.25 12.34375 C 44.147899 12.343786 43.855826 12.326574 43.375 12.25 C 42.894076 12.173498 42.272169 12.064326 41.5625 11.9375 C 40.852736 11.810746 40.311314 11.750036 39.90625 11.75 C 39.8057 11.395951 39.73848 11.041622 39.6875 10.6875 L 39.6875 10.0625 C 39.585404 9.5043516 39.232621 9.2500387 38.625 9.25 L 34.59375 9.53125 C 34.44218 9.480263 34.270752 9.4252908 34.09375 9.375 C 33.916668 9.3247863 33.746786 9.3125386 33.59375 9.3125 L 33 9.25 C 32.645876 9.1495342 32.316042 9.0395897 32.0625 8.9375 L 31.53125 7.1875 C 31.024052 6.1747651 30.311975 5.2485371 29.375 4.4375 C 28.437954 3.6265498 27.085986 2.7987919 25.3125 1.9375 C 25.058888 1.8880669 24.827525 1.8872938 24.625 1.9375 z M 36.84375 15.03125 C 37.059062 14.942342 37.321146 14.966976 37.625 15.09375 C 40.259719 16.259635 42.500155 17.854441 44.375 19.90625 C 46.249744 21.958115 47.821602 24.247786 49.0625 26.78125 C 50.303289 29.314757 51.290226 32.049943 52 34.9375 C 52.709658 37.825083 53.238832 40.705411 53.59375 43.59375 C 53.948549 46.482098 54.137188 49.300943 54.1875 52.0625 C 54.237692 54.824049 54.225444 57.345856 54.125 59.625 L 51 59.625 C 51.101994 57.446361 51.16193 55.041009 51.1875 52.40625 C 51.212956 49.771483 51.097274 47.073284 50.84375 44.3125 C 50.590113 41.551723 50.17662 38.798552 49.59375 36.0625 C 49.010769 33.326471 48.183011 30.756202 47.09375 28.375 C 46.004383 25.993837 44.60318 23.869083 42.90625 21.96875 C 41.209222 20.068469 39.150915 18.595081 36.71875 17.53125 C 36.465127 17.328725 36.300983 16.999665 36.25 16.59375 C 36.198932 16.187898 36.241657 15.877067 36.34375 15.625 C 36.470519 15.32041 36.628438 15.120158 36.84375 15.03125 z M 26.4375 16.90625 C 26.793099 17.108836 26.999967 17.3402 27 17.59375 C 26.999967 17.998891 26.768603 18.164581 26.3125 18.0625 C 25.754281 18.011505 25.18812 18.090199 24.65625 18.34375 C 24.124319 18.59736 23.649344 18.944406 23.21875 19.375 C 22.788098 19.805651 22.38608 20.268379 22.03125 20.75 C 21.676364 21.231675 21.421278 21.70014 21.21875 22.15625 C 21.118218 22.307806 20.941054 22.429998 20.6875 22.53125 C 20.433893 22.632553 20.258275 22.676051 20.15625 22.625 C 20.004694 22.625025 19.839004 22.526555 19.6875 22.375 C 19.535945 22.223496 19.52447 22.090602 19.625 21.9375 C 19.676 21.329861 19.913101 20.701443 20.34375 20.09375 C 20.774347 19.486112 21.304294 18.950428 21.9375 18.46875 C 22.57065 17.987131 23.276989 17.585113 24.0625 17.28125 C 24.847951 16.977448 25.627247 16.855256 26.4375 16.90625 z M 24.78125 19.9375 C 25.388885 19.937528 25.912322 20.205879 26.34375 20.6875 C 26.775114 21.169176 26.999967 21.662136 27 22.21875 C 26.999967 22.827987 26.775114 23.350651 26.34375 23.78125 C 25.912322 24.211897 25.388885 24.437523 24.78125 24.4375 C 24.224579 24.437523 23.761079 24.211897 23.40625 23.78125 C 23.051363 23.350651 22.874971 22.827987 22.875 22.21875 C 22.874971 21.662136 23.051363 21.169176 23.40625 20.6875 C 23.761079 20.205879 24.224579 19.937528 24.78125 19.9375 z M 41.1875 23.90625 C 41.441033 23.957299 41.660149 24.12718 41.8125 24.40625 C 41.964755 24.685367 42.019727 24.935488 41.96875 25.1875 C 41.917677 25.594179 41.741285 26.232525 41.4375 27.09375 C 41.13362 27.955017 40.682367 28.881245 40.125 29.84375 C 39.567541 30.806292 38.916174 31.701269 38.15625 32.5625 C 37.396238 33.423761 36.525755 34.052179 35.5625 34.40625 C 35.308878 34.508314 35.077514 34.586236 34.875 34.6875 C 34.672404 34.788791 34.537964 34.710869 34.4375 34.40625 C 34.234905 33.798598 34.369344 33.347345 34.875 33.09375 C 35.53365 32.840184 36.161294 32.370947 36.71875 31.6875 C 37.276121 31.004086 37.756833 30.242775 38.1875 29.40625 C 38.618079 28.569762 38.976599 27.736267 39.28125 26.875 C 39.585811 26.013775 39.8057 25.306663 39.90625 24.75 C 40.008255 24.191837 40.428258 23.906274 41.1875 23.90625 z M 43.5625 32.03125 C 43.916535 32.133317 44.0937 32.308935 44.09375 32.5625 C 44.0937 32.76507 44.037955 32.996434 43.9375 33.25 C 43.632844 33.959731 43.280061 34.550388 42.875 35.03125 C 42.469841 35.512138 41.994866 35.908419 41.4375 36.1875 C 40.880039 36.466605 40.197423 36.660981 39.4375 36.8125 C 38.677486 36.964041 37.782508 37.073985 36.71875 37.125 C 36.414102 37.225515 36.116291 37.226288 35.8125 37.125 C 35.508626 37.023733 35.343709 36.834321 35.34375 36.53125 C 35.343709 36.277681 35.507852 36.156262 35.8125 36.15625 L 36.625 36.15625 C 38.550004 36.004732 39.901972 35.619926 40.6875 35.0625 C 41.472934 34.5051 42.094841 33.733087 42.5 32.71875 C 42.753532 32.060074 43.106315 31.828711 43.5625 32.03125 z M 7.90625 34 C 8.4636493 33.747207 8.8828791 33.74798 9.1875 34 C 9.4410654 34.204115 9.4903003 34.60536 9.3125 35.1875 C 9.1346692 35.769665 8.7753759 36.348075 8.21875 36.90625 C 7.7115749 37.564952 7.1824006 37.990692 6.625 38.21875 C 6.0675743 38.446827 5.6598192 38.496836 5.40625 38.34375 C 5.1542044 38.090179 5.098459 37.670176 5.25 37.0625 C 5.4015186 36.454845 5.7543015 35.869153 6.3125 35.3125 C 6.8181025 34.703301 7.348823 34.252821 7.90625 34 z M 42.9375 37.5 C 43.241284 37.652313 43.417675 37.882904 43.46875 38.1875 C 43.468701 38.541595 43.291536 38.882903 42.9375 39.1875 C 42.481316 39.643644 41.994866 39.953703 41.4375 40.15625 C 40.880039 40.358813 40.313105 40.512255 39.78125 40.5625 C 39.249304 40.61276 38.725094 40.570035 38.21875 40.46875 C 37.712318 40.36748 37.293088 40.256762 36.9375 40.15625 C 36.683877 40.054207 36.379556 39.927051 36 39.75 C 35.62036 39.572966 35.461181 39.347339 35.5625 39.09375 C 35.663736 38.840178 35.779418 38.724496 35.90625 38.75 C 36.032998 38.775522 36.270873 38.823984 36.625 38.875 C 37.132118 39.127043 37.936154 39.243498 39 39.21875 C 40.063756 39.194019 41.013706 38.736256 41.875 37.875 C 42.280062 37.468354 42.633618 37.347708 42.9375 37.5 z "
           inkscape:radius="1.5"
           sodipodi:type="inkscape:offset" />
      </g>
      <g
         style="fill:#ffffff"
         transform="translate(508.08969,-2.0184756)"
         id="layer1-43-6"
         inkscape:label="Layer 1">
        <path
           d="M 24.25,0.46875 C 23.591992,0.63212069 23.277788,1.0398827 23,1.375 L 22.96875,1.34375 c -0.03272,0.032727 -0.0032,0.031973 -0.03125,0.0625 -0.01966,0.024159 -0.07495,0.038966 -0.09375,0.0625 L 22.875,1.5 C 22.609809,1.8385725 22.535307,2.0979802 22.5,2.28125 22.45729,2.5029473 22.437478,2.7154639 22.4375,2.9375 22.437454,3.560038 22.686374,4.2321182 23.125,4.75 22.71885,4.4731399 22.33085,4.1909603 21.875,3.9375 21.000599,3.4514668 19.907684,3.1835986 18.625,2.96875 l 0,-0.03125 c -0.04522,-0.015069 -0.108711,0.013012 -0.15625,0 -0.038,-0.00604 -0.05534,-0.025344 -0.09375,-0.03125 l 0,0.03125 c -0.409793,-0.097698 -0.851271,-0.1616021 -1.3125,0 -0.428402,0.1501006 -0.712058,0.4994933 -0.96875,0.8125 l -0.0625,-0.0625 c -0.08166,0.080437 -0.06365,0.1423724 -0.125,0.21875 -0.01941,0.02841 -0.07592,0.034018 -0.09375,0.0625 L 15.84375,4 c -0.373712,0.5246167 -0.40628,0.9748569 -0.40625,1.375 -1.35e-4,0.5904123 0.262854,0.958459 0.34375,1.09375 0.09638,0.1613959 0.303233,0.2678208 0.4375,0.40625 L 16.1875,6.90625 c 0.420612,0.5147809 0.761233,1.0090769 1.09375,1.46875 0.279703,0.3867882 0.510598,0.7787292 0.65625,1.125 0.16521,0.3929268 0.298396,0.826978 0.40625,1.34375 0.06857,0.328706 0.124718,0.800728 0.1875,1.21875 -1.328988,0.900017 -2.690465,2.101621 -4.25,3.875 -1.873855,2.130811 -3.8038,4.501961 -5.75,7.0625 L 6.8125,25.28125 A 1.50015,1.50015 0 0 0 6.78125,25.3125 C 5.9470371,26.458155 5.0522406,27.749636 4.125,29.21875 3.1752398,30.723544 2.3330266,32.306579 1.59375,33.96875 0.8355944,35.673354 0.36768342,37.269834 0.25,38.8125 a 1.50015,1.50015 0 0 0 0,0.125 l 0,0.78125 c -8.84e-6,0.988918 0.11490892,1.905757 0.375,2.71875 0.23470636,0.733717 0.5174943,1.32256 0.84375,1.84375 A 1.50015,1.50015 0 0 0 1.75,44.625 c 0.7628394,0.688207 1.8101184,1.062506 2.875,1.0625 1.3015114,7e-6 2.4300091,-0.668321 3.5625,-1.65625 0.1097323,-0.09573 0.2038771,-0.21506 0.3125,-0.3125 0.029122,0.896693 0.09054,1.62217 0.59375,2.375 a 1.50015,1.50015 0 0 0 0.1875,0.21875 c 0.884119,0.884145 2.086195,1.437503 3.34375,1.4375 1.420969,3e-6 2.864587,-0.541479 3.5625,-1.75 0.403851,-0.699386 0.726979,-1.338231 1,-1.9375 A 1.50015,1.50015 0 0 0 17.28125,43.75 l 0.1875,-0.8125 c 0.290686,-0.64153 0.656011,-1.239921 1.15625,-1.84375 0.534564,-0.645299 1.164298,-1.250353 1.84375,-1.8125 0.6942,-0.57437 1.335356,-1.055976 2,-1.46875 0.477895,-0.296801 0.833857,-0.523461 1.21875,-0.75 0.724099,0.340226 1.492562,0.593761 2.3125,0.59375 1.386893,1.3e-5 2.657945,-0.15552 3.8125,-0.4375 0.155524,-0.03798 0.284613,-0.115451 0.4375,-0.15625 -0.103988,0.306132 -0.165454,0.601081 -0.3125,0.90625 -0.258674,0.536726 -0.645272,1.12276 -1.15625,1.75 -0.432196,0.530476 -0.986755,1.006439 -1.71875,1.4375 a 1.50015,1.50015 0 0 0 -0.03125,0 c -0.553253,0.34629 -1.181522,0.85357 -2.09375,1.5625 -0.92558,0.719265 -1.990552,1.583032 -3.15625,2.59375 -1.185465,1.027807 -2.356217,2.142839 -3.5625,3.375 -1.222267,1.24843 -2.376546,2.523953 -3.40625,3.84375 -1.034427,1.32578 -1.907127,2.655174 -2.59375,4 -0.718353,1.406866 -1.093774,2.807077 -1.09375,4.15625 -5.3e-5,0.709853 0.379946,1.400586 0.84375,1.8125 0.431181,0.382954 1.115747,0.687469 1.78125,0.6875 l 42.5625,0 c 0.463469,-3.2e-5 0.763429,-0.100557 1.03125,-0.25 l 0.25,0.09375 0.21875,0.09375 0.03125,-0.03125 c 0.390496,0.194185 0.81939,0.35086 1.3125,0.28125 0.58774,-0.08297 1.073847,-0.38497 1.40625,-0.71875 0.305826,-0.305921 0.619763,-0.775089 0.75,-1.375 0.648397,-0.05816 1.302759,-0.350016 1.75,-0.84375 l 0.03125,0.03125 c 0.02823,-0.02824 0.0053,-0.0647 0.03125,-0.09375 0.03274,-0.03917 0.09553,-0.05261 0.125,-0.09375 l -0.0625,-0.0625 c 0.362347,-0.490194 0.5624,-1.049904 0.5625,-1.5 -1.13e-4,-0.421884 -0.0304,-0.785671 -0.25,-1.21875 a 1.50015,1.50015 0 0 0 -0.1875,-0.25 c 0.0033,0.0047 -0.03442,-0.03293 -0.03125,-0.03125 a 1.50015,1.50015 0 0 0 0,-0.03125 C 63.26726,57.166448 63.26981,57.155579 63.25,57.125 63.170761,57.002685 63.058169,56.803377 62.90625,56.5625 62.639445,56.139634 62.245845,55.552453 61.8125,54.90625 62.05552,54.79522 62.34319,54.572976 62.625,54.1875 l 0.0625,0.03125 c 0.02721,-0.03629 0.0063,-0.08734 0.03125,-0.125 0.04127,-0.0672 0.08274,-0.01063 0.125,-0.09375 l -0.0625,-0.03125 c 0.248311,-0.428171 0.437384,-0.912766 0.4375,-1.34375 -1.28e-4,-0.381104 -0.241837,-0.782493 -0.46875,-1.15625 l 0.09375,-0.0625 c -0.118705,-0.233514 -0.25798,-0.439425 -0.53125,-0.9375 -0.24781,-0.451458 -0.576304,-1.036626 -0.9375,-1.65625 0.599326,-0.161283 1.152153,-0.463423 1.53125,-0.90625 a 1.50015,1.50015 0 0 0 0.375,-0.96875 c 0.04605,-0.193101 0.156179,-0.426993 0.15625,-0.53125 -1.42e-4,-0.213735 -0.01741,-0.560784 -0.15625,-0.90625 -0.07345,-0.182278 -0.164017,-0.326168 -0.21875,-0.4375 a 1.50015,1.50015 0 0 0 -0.28125,-0.40625 c 0.07575,0.07565 -0.200737,-0.22235 -0.5625,-0.65625 -0.305332,-0.366083 -0.792458,-0.938987 -1.3125,-1.59375 0.07632,-0.03236 0.141749,-0.01994 0.21875,-0.0625 0.343777,-0.190025 0.550778,-0.581327 0.75,-0.9375 l 0.09375,0.0625 c 0.06154,-0.09284 0.04322,-0.241988 0.09375,-0.34375 0.01455,-0.03981 0.08238,-0.05416 0.09375,-0.09375 l -0.0625,0 c 0.12095,-0.269617 0.281097,-0.527893 0.28125,-0.875 -1.02e-4,-0.232721 -0.0088,-0.598466 -0.15625,-0.96875 C 62.146153,39.005702 62.060731,38.87163 62,38.75 a 1.50015,1.50015 0 0 0 -0.28125,-0.40625 c -0.0036,-0.0036 -0.251574,-0.258459 -0.625,-0.65625 -0.294361,-0.313445 -0.734325,-0.788007 -1.1875,-1.28125 0.06667,-0.04315 0.15725,-0.01174 0.21875,-0.0625 0.438817,-0.362169 0.677993,-0.832618 0.8125,-1.28125 A 1.50015,1.50015 0 0 0 61,34.625 l 0,-0.3125 C 60.99988,33.749716 60.770119,32.98906 60.28125,32.5 60.063844,32.28293 60.046933,32.299944 59.90625,32.1875 59.765567,32.075056 59.605279,31.929486 59.375,31.75 58.924487,31.398986 58.361445,30.986622 57.6875,30.4375 57.559318,30.333084 57.49501,30.284562 57.375,30.1875 l 0.375,-0.40625 -0.09375,-0.0625 c 0.220517,-0.239573 0.524436,-0.481557 0.59375,-0.65625 0.0552,-0.139419 0.187174,-0.378717 0.1875,-0.90625 l 0,-0.21875 a 1.50015,1.50015 0 0 0 -0.03125,-0.375 c -0.126851,-0.510963 -0.510406,-1.017199 -1,-1.40625 L 57.4375,26.125 C 57.179544,25.875274 57.147895,25.877413 57,25.78125 c -0.0061,-0.004 -0.02499,0.004 -0.03125,0 -0.144606,-0.09339 -0.282648,-0.221356 -0.5,-0.34375 -0.410029,-0.23078 -0.962478,-0.521155 -1.59375,-0.875 -0.03838,-0.0215 -0.05609,-0.04141 -0.09375,-0.0625 0.01677,-0.02161 0.04582,-0.04102 0.0625,-0.0625 L 55.375,23.75 c 0.355867,-0.474617 0.531128,-1.081359 0.53125,-1.59375 -7.7e-5,-0.258947 0.07909,-0.528452 -0.21875,-1.125 A 1.50015,1.50015 0 0 0 55.40625,20.625 c -0.07525,-0.07405 -0.07431,-0.06568 -0.03125,0 -0.261843,-0.398198 -0.449961,-0.540354 -0.71875,-0.71875 a 1.50015,1.50015 0 0 0 -0.8125,-0.25 c 0.107186,0.02539 0.24345,-7.3e-5 -0.03125,0 C 53.703859,19.629902 53.563568,19.566133 53.34375,19.5 52.812937,19.340398 52.174936,19.171957 51.4375,18.96875 51.312226,18.934244 51.242667,18.90741 51.125,18.875 l 0.1875,-0.59375 A 1.50015,1.50015 0 0 0 51.375,17.8125 l 0,-0.21875 c -4.6e-5,-0.537375 -0.08827,-1.150721 -0.53125,-1.6875 -0.442977,-0.536779 -1.190749,-0.781216 -1.75,-0.78125 0.346432,-2.1e-4 0.285062,0.01695 0.28125,0.03125 -0.115187,-0.04034 -0.318943,-0.1374 -0.5625,-0.21875 -0.498601,-0.166427 -1.101804,-0.315847 -1.8125,-0.5 -0.198148,-0.05132 -0.32112,-0.08243 -0.5,-0.125 4e-6,-0.04204 -5e-6,-0.08258 0,-0.125 l 0.0625,-0.5625 a 1.50015,1.50015 0 0 0 0,-0.125 c -9.3e-5,-1.016218 -0.802824,-2.194992 -1.8125,-2.5625 a 1.50015,1.50015 0 0 0 -0.5,-0.09375 c 0.06749,-2.4e-5 -0.202868,0.0047 -0.625,-0.0625 -0.460408,-0.07324 -1.105479,-0.186147 -1.8125,-0.3125 -0.24815,-0.04432 -0.40578,-0.03157 -0.625,-0.0625 l 0,-0.34375 A 1.50015,1.50015 0 0 0 41.15625,9.78125 C 41.057434,9.2410339 40.764821,8.6380624 40.25,8.25 39.735179,7.8619376 39.138061,7.7500327 38.625,7.75 a 1.50015,1.50015 0 0 0 -0.09375,0 L 34.71875,8 C 34.643973,7.9769501 34.579928,7.9602095 34.5,7.9375 34.204466,7.8536978 33.965732,7.8505642 33.75,7.84375 l 0,-0.03125 -0.15625,0 -0.3125,-0.0625 -0.3125,-1 A 1.50015,1.50015 0 0 0 32.875,6.53125 C 32.280061,5.3433211 31.423667,4.2472668 30.34375,3.3125 29.248781,2.3648782 27.812489,1.4891601 25.96875,0.59375 a 1.50015,1.50015 0 0 0 -0.375,-0.125 c -0.418873,-0.0816452 -0.878769,-0.11526935 -1.34375,0 z m 0.53125,20.96875 c 0.166043,8e-6 0.223631,0.01125 0.4375,0.25 0.264873,0.295766 0.281241,0.378549 0.28125,0.53125 -1.3e-5,0.24021 -0.03245,0.314035 -0.21875,0.5 -0.187488,0.187149 -0.263716,0.218759 -0.5,0.21875 -0.151324,6e-6 -0.108073,0.0093 -0.21875,-0.125 -0.13115,-0.15913 -0.187515,-0.274083 -0.1875,-0.59375 -1.2e-5,-0.239666 0.04422,-0.376951 0.25,-0.65625 0.142652,-0.193627 0.0816,-0.124996 0.15625,-0.125 z m 10.875,12.875 c -0.03859,0.03842 -0.08704,0.121635 -0.09375,0.125 l -0.03125,-0.03125 c 0.04681,-0.01967 0.07874,-0.07267 0.125,-0.09375 z m 17.03125,18.25 c 0.0312,2.017925 -0.01311,3.823846 -0.0625,5.5625 l -0.09375,0 c 0.06502,-1.755269 0.135477,-3.546343 0.15625,-5.5625 z"
           id="path3977"
           style="font-size:76px;font-style:normal;font-variant:normal;font-weight:normal;font-stretch:normal;line-height:125%;letter-spacing:0px;word-spacing:0px;fill:#ffffff;fill-opacity:1;stroke:none;font-family:DiagramTTOldstyle;-inkscape-font-specification:DiagramTTOldstyle"
           inkscape:original="M 24.625 1.9375 C 24.422414 1.9877982 24.233775 2.152715 24.03125 2.40625 C 23.980195 2.4573209 23.93747 2.6344854 23.9375 2.9375 C 23.93747 3.3426553 24.047415 3.6396927 24.25 3.84375 C 24.50355 3.9953239 24.630707 4.2217234 24.65625 4.5 C 24.681732 4.7783635 24.718719 5.1491313 24.71875 5.65625 L 24.71875 7.71875 C 24.514618 7.3136799 24.064911 6.9723717 23.40625 6.71875 L 22.96875 6.4375 C 22.46156 6.0324312 21.840426 5.6304134 21.15625 5.25 C 20.472019 4.869672 19.473607 4.5775987 18.15625 4.375 C 17.701637 4.2235138 17.347307 4.3449329 17.09375 4.75 C 16.991676 4.8505476 16.937477 5.0704367 16.9375 5.375 C 16.937477 5.475547 16.986712 5.560752 17.0625 5.6875 C 17.138242 5.8143325 17.241676 5.9177666 17.34375 5.96875 C 17.799862 6.5269782 18.17063 7.0446779 18.5 7.5 C 18.829321 7.9554029 19.10992 8.4246407 19.3125 8.90625 C 19.51503 9.3879373 19.685684 9.923622 19.8125 10.53125 C 19.939265 11.138953 20.055719 11.857539 20.15625 12.71875 C 18.838842 13.428501 17.255511 14.834668 15.40625 16.9375 C 13.556947 19.040393 11.643781 21.373562 9.71875 23.90625 L 8 26.1875 C 7.1882193 27.302348 6.3177368 28.587096 5.40625 30.03125 C 4.4947406 31.47544 3.6784572 32.998062 2.96875 34.59375 C 2.259025 36.189465 1.8504968 37.620127 1.75 38.9375 L 1.75 39.71875 C 1.7499923 40.580004 1.8599369 41.335578 2.0625 41.96875 C 2.2650472 42.601934 2.4964109 43.094894 2.75 43.5 C 3.2556061 43.95614 3.864248 44.187504 4.625 44.1875 C 5.3347055 44.187504 6.2002239 43.767501 7.1875 42.90625 C 8.1747499 42.045009 9.1189628 41.106534 10.03125 40.09375 C 10.031234 40.245288 10.024724 40.410204 10 40.5625 C 9.9752445 40.71481 9.9687341 40.837003 9.96875 40.9375 C 9.9687341 41.951829 9.9752445 42.839523 10 43.625 C 10.024724 44.410485 10.141179 44.946943 10.34375 45.25 C 11.002424 45.908693 11.763736 46.250002 12.625 46.25 C 13.739808 46.250002 14.494609 45.908693 14.875 45.25 C 15.25535 44.591312 15.558898 43.994145 15.8125 43.4375 L 16.03125 42.4375 C 16.385313 41.625739 16.860288 40.859463 17.46875 40.125 C 18.077165 39.390552 18.765519 38.732675 19.5 38.125 C 20.23443 37.517344 20.953017 36.987397 21.6875 36.53125 C 22.421928 36.075126 23.066784 35.679618 23.625 35.375 C 24.334687 35.882173 25.138722 36.156262 26 36.15625 C 27.266324 36.156262 28.430426 36.003593 29.46875 35.75 C 30.507003 35.496432 31.451216 35.186373 32.3125 34.78125 C 32.262983 35.288424 32.152265 35.878308 32 36.5625 C 31.847659 37.246715 31.610558 37.941579 31.28125 38.625 C 30.951867 39.30844 30.494877 39.972054 29.9375 40.65625 C 29.380051 41.340461 28.673712 41.930345 27.8125 42.4375 C 27.407356 42.691086 26.755989 43.197311 25.84375 43.90625 C 24.931447 44.615197 23.889537 45.449465 22.75 46.4375 C 21.610405 47.425538 20.471816 48.533894 19.28125 49.75 C 18.090634 50.966102 16.988014 52.202388 16 53.46875 C 15.011942 54.735101 14.196432 55.977124 13.5625 57.21875 C 12.928529 58.460357 12.624981 59.623686 12.625 60.6875 C 12.624981 60.941068 12.740663 61.172431 12.96875 61.375 C 13.196799 61.577542 13.445375 61.687486 13.75 61.6875 L 56.3125 61.6875 C 56.514993 61.687486 56.789081 61.523343 57.09375 61.21875 L 58.375 61.75 C 58.780046 62.003567 59.14585 61.949367 59.5 61.59375 C 59.753515 61.340156 59.906184 61.095771 59.90625 60.84375 C 59.906184 60.741686 59.862686 60.676013 59.8125 60.625 C 59.762182 60.573962 59.70721 60.475492 59.65625 60.375 L 59.4375 60 C 59.33693 59.797433 59.17124 59.566069 58.96875 59.3125 C 59.475846 59.414539 59.938573 59.524484 60.34375 59.625 L 61.03125 59.84375 C 61.436293 59.893217 61.777602 59.760323 62.03125 59.40625 C 62.182712 59.254709 62.249932 59.023345 62.25 58.71875 C 62.249932 58.465159 62.207207 58.287994 62.15625 58.1875 C 62.105157 58.136464 61.928765 57.856639 61.625 57.375 C 61.3211 56.893342 60.906834 56.25345 60.375 55.46875 C 59.843033 54.684035 59.373795 53.971185 58.96875 53.3125 C 59.32277 53.361974 59.664078 53.417719 59.96875 53.46875 L 60.5 53.625 C 60.702489 53.725499 60.891128 53.726272 61.09375 53.625 C 61.296238 53.523717 61.448907 53.412999 61.5 53.3125 C 61.653009 53.108393 61.718682 52.87703 61.71875 52.625 C 61.718682 52.42244 61.653009 52.246822 61.5 52.09375 C 61.448907 51.993241 61.278253 51.694658 61 51.1875 C 60.721613 50.680336 60.325333 50.023232 59.84375 49.1875 C 59.362036 48.351766 58.94777 47.596192 58.59375 46.9375 L 60.71875 47.46875 C 61.123794 47.46875 61.478123 47.291586 61.78125 46.9375 C 61.781182 46.83545 61.823907 46.732016 61.875 46.65625 C 61.925958 46.580486 61.937432 46.506756 61.9375 46.40625 C 61.937432 46.304201 61.925958 46.189292 61.875 46.0625 C 61.823907 45.935712 61.768161 45.819257 61.71875 45.71875 C 61.667657 45.667727 61.442804 45.424889 61.0625 44.96875 C 60.682062 44.512617 60.20135 43.884973 59.59375 43.125 C 58.986019 42.365036 58.456072 41.701422 58 41.09375 C 58.456072 41.093757 58.8646 41.105231 59.21875 41.15625 L 59.75 41.15625 C 60.306574 41.156257 60.616633 40.980638 60.71875 40.625 C 60.819188 40.473478 60.874933 40.307788 60.875 40.15625 C 60.874933 40.003182 60.862685 39.876025 60.8125 39.75 C 60.762181 39.623991 60.707209 39.508309 60.65625 39.40625 C 60.605158 39.355233 60.380305 39.123869 60 38.71875 C 59.619563 38.313649 59.138851 37.783702 58.53125 37.125 C 57.92352 36.46632 57.350848 35.869153 56.84375 35.3125 C 57.250344 35.312513 57.645851 35.325533 58 35.375 L 58.59375 35.375 C 59.049821 35.375013 59.348405 35.130628 59.5 34.625 L 59.5 34.3125 C 59.499935 34.007908 59.42124 33.765069 59.21875 33.5625 C 59.16766 33.511489 58.892798 33.292373 58.4375 32.9375 C 57.982073 32.582657 57.434141 32.15118 56.75 31.59375 C 56.065734 31.036353 55.498799 30.584327 55.09375 30.28125 C 55.498799 29.976662 55.853128 29.666604 56.15625 29.3125 L 56.625 28.78125 C 56.726988 28.73179 56.793435 28.62681 56.84375 28.5 C 56.893939 28.373229 56.937437 28.25832 56.9375 28.15625 L 56.9375 27.9375 C 56.836933 27.53241 56.659768 27.289571 56.40625 27.1875 C 56.355162 27.138042 56.123799 26.978089 55.71875 26.75 C 55.313578 26.521953 54.789368 26.22988 54.15625 25.875 C 53.523012 25.520164 52.987327 25.222353 52.53125 24.96875 C 52.936302 24.461612 53.302105 23.98741 53.65625 23.53125 L 54.1875 22.84375 C 54.340516 22.639674 54.40619 22.40831 54.40625 22.15625 C 54.40619 21.953721 54.394715 21.789577 54.34375 21.6875 C 54.241639 21.587022 54.175192 21.514064 54.125 21.4375 C 54.074688 21.360988 53.96397 21.256781 53.8125 21.15625 C 53.71039 21.156277 53.412579 21.08983 52.90625 20.9375 C 52.399803 20.785224 51.766422 20.608833 51.03125 20.40625 C 50.295964 20.203722 49.704534 20.039579 49.25 19.9375 C 49.401475 19.481392 49.52444 19.048369 49.625 18.59375 L 49.875 17.8125 L 49.875 17.59375 C 49.874944 16.93509 49.600856 16.625031 49.09375 16.625 C 49.04267 16.625031 48.799831 16.527334 48.34375 16.375 C 47.88756 16.222729 47.308378 16.052074 46.625 15.875 C 45.941517 15.69799 45.405059 15.582308 45 15.53125 C 44.999949 15.075147 44.999949 14.643669 45 14.1875 L 45.0625 13.5 C 45.062449 12.943394 44.80659 12.546341 44.25 12.34375 C 44.147899 12.343786 43.855826 12.326574 43.375 12.25 C 42.894076 12.173498 42.272169 12.064326 41.5625 11.9375 C 40.852736 11.810746 40.311314 11.750036 39.90625 11.75 C 39.8057 11.395951 39.73848 11.041622 39.6875 10.6875 L 39.6875 10.0625 C 39.585404 9.5043516 39.232621 9.2500387 38.625 9.25 L 34.59375 9.53125 C 34.44218 9.480263 34.270752 9.4252908 34.09375 9.375 C 33.916668 9.3247863 33.746786 9.3125386 33.59375 9.3125 L 33 9.25 C 32.645876 9.1495342 32.316042 9.0395897 32.0625 8.9375 L 31.53125 7.1875 C 31.024052 6.1747651 30.311975 5.2485371 29.375 4.4375 C 28.437954 3.6265498 27.085986 2.7987919 25.3125 1.9375 C 25.058888 1.8880669 24.827525 1.8872938 24.625 1.9375 z M 36.84375 15.03125 C 37.059062 14.942342 37.321146 14.966976 37.625 15.09375 C 40.259719 16.259635 42.500155 17.854441 44.375 19.90625 C 46.249744 21.958115 47.821602 24.247786 49.0625 26.78125 C 50.303289 29.314757 51.290226 32.049943 52 34.9375 C 52.709658 37.825083 53.238832 40.705411 53.59375 43.59375 C 53.948549 46.482098 54.137188 49.300943 54.1875 52.0625 C 54.237692 54.824049 54.225444 57.345856 54.125 59.625 L 51 59.625 C 51.101994 57.446361 51.16193 55.041009 51.1875 52.40625 C 51.212956 49.771483 51.097274 47.073284 50.84375 44.3125 C 50.590113 41.551723 50.17662 38.798552 49.59375 36.0625 C 49.010769 33.326471 48.183011 30.756202 47.09375 28.375 C 46.004383 25.993837 44.60318 23.869083 42.90625 21.96875 C 41.209222 20.068469 39.150915 18.595081 36.71875 17.53125 C 36.465127 17.328725 36.300983 16.999665 36.25 16.59375 C 36.198932 16.187898 36.241657 15.877067 36.34375 15.625 C 36.470519 15.32041 36.628438 15.120158 36.84375 15.03125 z M 26.4375 16.90625 C 26.793099 17.108836 26.999967 17.3402 27 17.59375 C 26.999967 17.998891 26.768603 18.164581 26.3125 18.0625 C 25.754281 18.011505 25.18812 18.090199 24.65625 18.34375 C 24.124319 18.59736 23.649344 18.944406 23.21875 19.375 C 22.788098 19.805651 22.38608 20.268379 22.03125 20.75 C 21.676364 21.231675 21.421278 21.70014 21.21875 22.15625 C 21.118218 22.307806 20.941054 22.429998 20.6875 22.53125 C 20.433893 22.632553 20.258275 22.676051 20.15625 22.625 C 20.004694 22.625025 19.839004 22.526555 19.6875 22.375 C 19.535945 22.223496 19.52447 22.090602 19.625 21.9375 C 19.676 21.329861 19.913101 20.701443 20.34375 20.09375 C 20.774347 19.486112 21.304294 18.950428 21.9375 18.46875 C 22.57065 17.987131 23.276989 17.585113 24.0625 17.28125 C 24.847951 16.977448 25.627247 16.855256 26.4375 16.90625 z M 24.78125 19.9375 C 25.388885 19.937528 25.912322 20.205879 26.34375 20.6875 C 26.775114 21.169176 26.999967 21.662136 27 22.21875 C 26.999967 22.827987 26.775114 23.350651 26.34375 23.78125 C 25.912322 24.211897 25.388885 24.437523 24.78125 24.4375 C 24.224579 24.437523 23.761079 24.211897 23.40625 23.78125 C 23.051363 23.350651 22.874971 22.827987 22.875 22.21875 C 22.874971 21.662136 23.051363 21.169176 23.40625 20.6875 C 23.761079 20.205879 24.224579 19.937528 24.78125 19.9375 z M 41.1875 23.90625 C 41.441033 23.957299 41.660149 24.12718 41.8125 24.40625 C 41.964755 24.685367 42.019727 24.935488 41.96875 25.1875 C 41.917677 25.594179 41.741285 26.232525 41.4375 27.09375 C 41.13362 27.955017 40.682367 28.881245 40.125 29.84375 C 39.567541 30.806292 38.916174 31.701269 38.15625 32.5625 C 37.396238 33.423761 36.525755 34.052179 35.5625 34.40625 C 35.308878 34.508314 35.077514 34.586236 34.875 34.6875 C 34.672404 34.788791 34.537964 34.710869 34.4375 34.40625 C 34.234905 33.798598 34.369344 33.347345 34.875 33.09375 C 35.53365 32.840184 36.161294 32.370947 36.71875 31.6875 C 37.276121 31.004086 37.756833 30.242775 38.1875 29.40625 C 38.618079 28.569762 38.976599 27.736267 39.28125 26.875 C 39.585811 26.013775 39.8057 25.306663 39.90625 24.75 C 40.008255 24.191837 40.428258 23.906274 41.1875 23.90625 z M 43.5625 32.03125 C 43.916535 32.133317 44.0937 32.308935 44.09375 32.5625 C 44.0937 32.76507 44.037955 32.996434 43.9375 33.25 C 43.632844 33.959731 43.280061 34.550388 42.875 35.03125 C 42.469841 35.512138 41.994866 35.908419 41.4375 36.1875 C 40.880039 36.466605 40.197423 36.660981 39.4375 36.8125 C 38.677486 36.964041 37.782508 37.073985 36.71875 37.125 C 36.414102 37.225515 36.116291 37.226288 35.8125 37.125 C 35.508626 37.023733 35.343709 36.834321 35.34375 36.53125 C 35.343709 36.277681 35.507852 36.156262 35.8125 36.15625 L 36.625 36.15625 C 38.550004 36.004732 39.901972 35.619926 40.6875 35.0625 C 41.472934 34.5051 42.094841 33.733087 42.5 32.71875 C 42.753532 32.060074 43.106315 31.828711 43.5625 32.03125 z M 7.90625 34 C 8.4636493 33.747207 8.8828791 33.74798 9.1875 34 C 9.4410654 34.204115 9.4903003 34.60536 9.3125 35.1875 C 9.1346692 35.769665 8.7753759 36.348075 8.21875 36.90625 C 7.7115749 37.564952 7.1824006 37.990692 6.625 38.21875 C 6.0675743 38.446827 5.6598192 38.496836 5.40625 38.34375 C 5.1542044 38.090179 5.098459 37.670176 5.25 37.0625 C 5.4015186 36.454845 5.7543015 35.869153 6.3125 35.3125 C 6.8181025 34.703301 7.348823 34.252821 7.90625 34 z M 42.9375 37.5 C 43.241284 37.652313 43.417675 37.882904 43.46875 38.1875 C 43.468701 38.541595 43.291536 38.882903 42.9375 39.1875 C 42.481316 39.643644 41.994866 39.953703 41.4375 40.15625 C 40.880039 40.358813 40.313105 40.512255 39.78125 40.5625 C 39.249304 40.61276 38.725094 40.570035 38.21875 40.46875 C 37.712318 40.36748 37.293088 40.256762 36.9375 40.15625 C 36.683877 40.054207 36.379556 39.927051 36 39.75 C 35.62036 39.572966 35.461181 39.347339 35.5625 39.09375 C 35.663736 38.840178 35.779418 38.724496 35.90625 38.75 C 36.032998 38.775522 36.270873 38.823984 36.625 38.875 C 37.132118 39.127043 37.936154 39.243498 39 39.21875 C 40.063756 39.194019 41.013706 38.736256 41.875 37.875 C 42.280062 37.468354 42.633618 37.347708 42.9375 37.5 z "
           inkscape:radius="1.5"
           sodipodi:type="inkscape:offset" />
      </g>
      <path
         transform="translate(0,-8)"
         inkscape:connector-curvature="0"
         id="path67449"
         d="m 544.85433,20.483145 c -1.09452,0.164777 -1.43974,1.552667 -1.14989,2.473191 0.25135,1.057027 1.47236,1.318697 2.28085,1.829322 4.07107,2.260892 6.95119,6.20637 8.78235,10.415545 2.52134,5.896258 3.33826,12.333807 3.71262,18.692634 0.0619,3.733955 0.0715,7.481189 -0.0754,11.208132 -0.15374,0.458888 0.0151,1.139618 0.61629,1.032497 1.04617,-0.03631 2.11583,0.07211 3.14743,-0.054 0.55457,-0.27625 0.32144,-1.051581 0.41162,-1.576123 0.0765,-4.76726 0.084,-9.552614 -0.50709,-14.291172 -0.66851,-5.551682 -1.75001,-11.115181 -4.00441,-16.259542 -1.959,-4.356564 -4.75208,-8.48529 -8.69753,-11.272096 -1.28071,-0.865313 -2.62264,-1.713971 -4.10864,-2.169044 -0.13396,-0.02817 -0.2716,-0.03769 -0.4082,-0.02935 z"
         style="fill:#ffffff;fill-opacity:1;fill-rule:nonzero;stroke:none" />
      <path
         transform="translate(0,-8)"
         inkscape:connector-curvature="0"
         id="path67451"
         d="m 550.57709,42.93129 c -1.08083,0.187687 -1.67227,1.307448 -2.73199,1.568756 -1.2239,0.412951 -2.52851,0.08321 -3.73246,-0.226776 -0.87571,-0.294739 -1.61862,1.015408 -0.8911,1.595435 1.01677,0.79246 2.35227,1.078589 3.61241,1.189907 1.83951,0.08176 3.94991,-0.57577 4.9037,-2.259756 0.43419,-0.802127 -0.27787,-1.879079 -1.16056,-1.867566 z"
         style="fill:#ffffff;fill-opacity:1;fill-rule:nonzero;stroke:none" />
      <path
         transform="translate(0,-8)"
         inkscape:connector-curvature="0"
         id="path67453"
         d="m 551.01196,37.488669 c -0.92926,0.122022 -1.09364,1.21364 -1.5394,1.856894 -0.56874,0.991085 -1.55641,1.696892 -2.67863,1.910254 -1.18029,0.355128 -2.43998,0.256445 -3.62574,0.544262 -0.83565,0.456211 -0.30427,1.799451 0.5576,1.84889 1.63912,0.03159 3.30378,-0.163818 4.87701,-0.63764 1.365,-0.386936 2.52451,-1.3275 3.19804,-2.572719 0.38928,-0.715783 0.98001,-1.649331 0.46773,-2.445698 -0.2822,-0.390005 -0.79694,-0.523577 -1.25661,-0.504243 z"
         style="fill:#ffffff;fill-opacity:1;fill-rule:nonzero;stroke:none" />
      <path
         transform="translate(0,-8)"
         inkscape:connector-curvature="0"
         id="path67455"
         d="m 548.7949,29.394104 c -0.83557,-0.0069 -1.40609,0.728364 -1.55542,1.488717 -0.58135,2.198094 -1.43997,4.375864 -2.8307,6.194983 -0.60472,0.763165 -1.36443,1.360103 -2.2144,1.819543 -0.6677,0.522636 -0.57806,1.7721 0.1254,2.222404 0.7216,0.231279 1.38988,-0.334481 2.04365,-0.56027 2.20066,-1.215912 3.56538,-3.442076 4.70385,-5.607312 0.63864,-1.316165 1.22227,-2.719388 1.34172,-4.18273 -0.19339,-0.710294 -0.78305,-1.479823 -1.6141,-1.375335 z"
         style="fill:#ffffff;fill-opacity:1;fill-rule:nonzero;stroke:none" />
      <path
         transform="translate(0,-8)"
         inkscape:connector-curvature="0"
         id="path67457"
         d="m 532.48037,25.448203 c -1.58335,0.175065 -2.456,2.018465 -2.13169,3.468337 0.21903,1.106692 1.25052,2.182566 2.45451,2.008968 1.54356,-0.0096 2.87533,-1.605565 2.52389,-3.129507 -0.21781,-1.326312 -1.45534,-2.494906 -2.84671,-2.347798 z"
         style="fill:#ffffff;fill-opacity:1;fill-rule:nonzero;stroke:none" />
      <path
         transform="translate(0,-8)"
         inkscape:connector-curvature="0"
         id="path67459"
         d="m 533.81702,22.364051 c -2.63226,0.22611 -5.11405,1.844558 -6.41376,4.137993 -0.29538,0.650462 -0.58269,1.484353 -0.24012,2.161041 0.6095,0.713403 1.81214,0.564407 2.29978,-0.216104 0.92748,-1.453062 1.94135,-3.090755 3.62574,-3.724461 0.66414,-0.318167 1.54072,0.06112 2.10235,-0.477563 0.63438,-0.881992 -0.3957,-2.055247 -1.37399,-1.880906 z"
         style="fill:#ffffff;fill-opacity:1;fill-rule:nonzero;stroke:none" />
      <path
         transform="translate(0,-8)"
         inkscape:connector-curvature="0"
         id="path67461"
         d="m 516.43264,39.305544 c -1.22069,0.199192 -2.16229,1.145564 -2.94542,2.038315 -0.68922,0.84629 -1.295,2.141615 -0.66165,3.174863 0.54893,0.749901 1.61839,0.353895 2.27576,-0.02134 1.06879,-0.796833 2.08428,-1.804348 2.56124,-3.076148 0.30404,-0.733722 0.15572,-1.84678 -0.72835,-2.072999 -0.16259,-0.04646 -0.33347,-0.05102 -0.50158,-0.04269 z"
         style="fill:#ffffff;fill-opacity:1;fill-rule:nonzero;stroke:none" />
      <g
         transform="translate(507.90125,-2.0086487)"
         id="layer1-43"
         inkscape:label="Layer 1">
        <text
           xml:space="preserve"
           style="font-size:76px;font-style:normal;font-variant:normal;font-weight:normal;font-stretch:normal;line-height:125%;letter-spacing:0px;word-spacing:0px;fill:#000000;fill-opacity:1;stroke:none;font-family:DiagramTTOldstyle;-inkscape-font-specification:DiagramTTOldstyle"
           x="-5.9246216"
           y="47.921082"
           id="text3308"
           sodipodi:linespacing="125%"><tspan
             sodipodi:role="line"
             id="tspan3310"
             x="-5.9246216"
             y="47.921082">n</tspan></text>
      </g>
    </g>
  </g>
</svg>
