<?xml version="1.0" encoding="UTF-8" standalone="no"?>
<!-- Created with Inkscape (http://www.inkscape.org/) -->

<svg
   xmlns:dc="http://purl.org/dc/elements/1.1/"
   xmlns:cc="http://creativecommons.org/ns#"
   xmlns:rdf="http://www.w3.org/1999/02/22-rdf-syntax-ns#"
   xmlns:svg="http://www.w3.org/2000/svg"
   xmlns="http://www.w3.org/2000/svg"
   xmlns:sodipodi="http://sodipodi.sourceforge.net/DTD/sodipodi-0.dtd"
   xmlns:inkscape="http://www.inkscape.org/namespaces/inkscape"
   width="64px"
   height="64px"
   id="svg3072"
   version="1.1"
   inkscape:version="0.48.1 "
   sodipodi:docname="br.svg">
  <defs
     id="defs3074" />
  <sodipodi:namedview
     id="base"
     pagecolor="#ffffff"
     bordercolor="#666666"
     borderopacity="1.0"
     inkscape:pageopacity="0.0"
     inkscape:pageshadow="2"
     inkscape:zoom="5.5"
     inkscape:cx="9.6392431"
     inkscape:cy="13.031733"
     inkscape:current-layer="layer1"
     showgrid="true"
     inkscape:document-units="px"
     inkscape:grid-bbox="true"
     inkscape:window-width="1365"
     inkscape:window-height="878"
     inkscape:window-x="-8"
     inkscape:window-y="-8"
     inkscape:window-maximized="1" />
  <metadata
     id="metadata3077">
    <rdf:RDF>
      <cc:Work
         rdf:about="">
        <dc:format>image/svg+xml</dc:format>
        <dc:type
           rdf:resource="http://purl.org/dc/dcmitype/StillImage" />
        <dc:title></dc:title>
      </cc:Work>
    </rdf:RDF>
  </metadata>
  <g
     id="layer1"
     inkscape:label="Layer 1"
     inkscape:groupmode="layer">
    <path
       style="fill:#000000"
       d="m 9.3201314,60.542063 c -0.932543,-0.626455 -1.674296,-1.617075 -2.0775061,-2.774533 -0.5515862,-1.583388 -0.5515862,-2.017018 0,-3.600406 C 8.0274624,51.914165 10.099767,50.41826 12.436,50.41826 c 3.18431,0 5.545645,-2.009317 7.526271,-6.404276 1.35333,-3.003009 2.409365,-7.195048 2.876049,-11.416765 l 0.294911,-2.66782 -2.722956,-6.83e-4 c -3.677581,-8.97e-4 -5.519873,-0.94077 -6.307102,-3.217667 -0.526685,-1.523329 -0.51426,-1.897003 0.106588,-3.205342 1.066552,-2.247592 2.106501,-2.688438 6.816756,-2.889695 l 4.192899,-0.179151 -1.075584,-1.122946 C 20.91772,15.945745 20.925061,9.8390223 24.159767,6.0599985 27.12596,2.5946682 32.373954,1.4823293 36.449299,3.4551701 42.374261,6.3233944 44.176124,14.776255 39.829845,19.313915 l -1.075584,1.122946 4.286793,0.17218 c 4.02245,0.161563 4.365272,0.247366 5.559427,1.391439 1.645968,1.576938 1.996443,3.206411 1.097225,5.101374 -0.918662,1.935949 -2.857105,2.827545 -6.147407,2.827545 l -2.607041,0 0.26148,2.454395 c 0.669845,6.287446 2.284705,11.574764 4.446741,14.559368 1.675126,2.312445 2.903621,3.053246 5.69044,3.431427 1.280553,0.173776 2.799137,0.624471 3.37463,1.001547 1.172907,0.76852 2.454515,3.165781 2.454515,4.591191 0,1.562502 -1.347036,3.89451 -2.740368,4.744162 -1.239555,0.755877 -2.525206,0.801806 -22.487447,0.803308 l -21.172727,0.0016 -1.4503906,-0.974331 z M 46.711995,50.848932 c 0.148356,-0.467436 0.149966,-1.043686 0.0034,-1.280554 -0.364706,-0.590105 -29.092756,-0.590105 -29.45746,0 -0.146393,0.236868 -0.144785,0.813118 0.0036,1.280554 0.262489,0.826568 0.66643,0.849882 14.725303,0.849882 14.058872,0 14.462814,-0.02331 14.725157,-0.849882 z M 39.944737,30.991091 c 0.136281,-0.355142 0.01069,-0.931391 -0.279087,-1.280554 -0.427964,-0.515664 -1.869487,-0.634841 -7.678812,-0.634841 -5.809325,0 -7.250849,0.119177 -7.678812,0.634841 -0.289779,0.349163 -0.415368,0.925412 -0.279088,1.280554 0.208525,0.543406 1.469382,0.645713 7.9579,0.645713 6.488518,0 7.749375,-0.102307 7.957899,-0.645713 z m -1.932632,-9.049292 c 0.902183,-0.90425 -1.639777,-1.526034 -6.238693,-1.526034 -5.51221,0 -8.408969,1.113938 -5.122215,1.96973 1.703983,0.443676 10.83121,0.08722 11.360908,-0.443696 z"
       id="path3225"
       inkscape:connector-curvature="0" />
    <path
       style="fill:#ffffff;fill-opacity:1;fill-rule:evenodd"
       d="m 19.675607,51.47779 c -2.079091,-0.146179 -2.303078,-0.232661 -2.40523,-0.928669 -0.167489,-1.141176 -0.364418,-1.108342 7.511823,-1.252449 7.297694,-0.133521 21.419736,0.03504 21.783743,0.260005 0.280756,0.173516 0.250202,1.056035 -0.05081,1.467698 -0.211154,0.288771 -0.596707,0.364871 -2.409091,0.475507 -2.659705,0.162359 -22.056472,0.144819 -24.430432,-0.02209 z"
       id="path3227"
       inkscape:connector-curvature="0" />
    <path
       style="fill:#ffffff;fill-opacity:1;fill-rule:evenodd"
       d="m 27.493789,31.48304 c -1.55,-0.06694 -2.961364,-0.186174 -3.136364,-0.264966 -0.408251,-0.18381 -0.408251,-0.862097 0,-1.365498 0.485245,-0.59834 3.150926,-0.799021 9.136364,-0.687815 5.345765,0.09932 6.104575,0.214259 6.289924,0.952748 0.188706,0.751864 0.01774,1.064056 -0.654522,1.195176 -0.997856,0.194627 -8.522431,0.304795 -11.635402,0.170355 z"
       id="path3229"
       inkscape:connector-curvature="0" />
    <path
       style="fill:#ffffff;fill-opacity:1;fill-rule:evenodd"
       d="m 27.173636,22.383386 c -1.016015,-0.148195 -1.943454,-0.626597 -1.767296,-0.911627 0.411701,-0.666146 4.644227,-1.090971 8.632903,-0.866496 2.67533,0.150562 3.909091,0.452894 3.909091,0.957919 0,0.476034 -0.530978,0.584536 -3.96798,0.810833 -3.273563,0.215536 -5.373435,0.218427 -6.806718,0.0094 z"
       id="path3231"
       inkscape:connector-curvature="0" />
  </g>
</svg>
