<?xml version="1.0" encoding="UTF-8" standalone="no"?>
<!-- Created with Inkscape (http://www.inkscape.org/) -->

<svg
   xmlns:dc="http://purl.org/dc/elements/1.1/"
   xmlns:cc="http://creativecommons.org/ns#"
   xmlns:rdf="http://www.w3.org/1999/02/22-rdf-syntax-ns#"
   xmlns:svg="http://www.w3.org/2000/svg"
   xmlns="http://www.w3.org/2000/svg"
   xmlns:sodipodi="http://sodipodi.sourceforge.net/DTD/sodipodi-0.dtd"
   xmlns:inkscape="http://www.inkscape.org/namespaces/inkscape"
   width="64px"
   height="64px"
   id="svg3072"
   version="1.1"
   inkscape:version="0.48.1 "
   sodipodi:docname="wb.svg">
  <defs
     id="defs3074" />
  <sodipodi:namedview
     id="base"
     pagecolor="#ffffff"
     bordercolor="#666666"
     borderopacity="1.0"
     inkscape:pageopacity="0.0"
     inkscape:pageshadow="2"
     inkscape:zoom="5.5"
     inkscape:cx="16.727273"
     inkscape:cy="48.755143"
     inkscape:current-layer="layer1"
     showgrid="true"
     inkscape:document-units="px"
     inkscape:grid-bbox="true"
     inkscape:window-width="1365"
     inkscape:window-height="878"
     inkscape:window-x="-8"
     inkscape:window-y="-8"
     inkscape:window-maximized="1" />
  <metadata
     id="metadata3077">
    <rdf:RDF>
      <cc:Work
         rdf:about="">
        <dc:format>image/svg+xml</dc:format>
        <dc:type
           rdf:resource="http://purl.org/dc/dcmitype/StillImage" />
        <dc:title></dc:title>
      </cc:Work>
    </rdf:RDF>
  </metadata>
  <g
     id="layer1"
     inkscape:label="Layer 1"
     inkscape:groupmode="layer">
    <path
       style="fill:#000000"
       d="M 9.7259655,60.577116 C 5.0634583,57.699787 7.0778201,50.256234 12.518985,50.256234 c 1.539753,0 1.539857,-1.27e-4 1.287272,-1.591662 -0.32238,-2.031325 1.140139,-4.381284 3.083882,-4.955144 l 1.329047,-0.392385 0.176459,-5.125377 c 0.152086,-4.417444 0.332081,-5.461623 1.303148,-7.559757 1.59906,-3.455002 3.149508,-5.307313 5.613827,-6.706804 1.28679,-0.730769 1.895456,-1.286681 1.522596,-1.39063 -0.341649,-0.09525 -1.620162,-0.502098 -2.84114,-0.904112 -1.886963,-0.621293 -2.55926,-0.656119 -4.481939,-0.232173 -3.511252,0.774223 -5.085353,0.471036 -5.641426,-1.086591 -0.254218,-0.712098 -0.894402,-1.887579 -1.422631,-2.61218 -1.161127,-1.592784 -1.240382,-3.561789 -0.181714,-4.514465 0.792216,-0.712902 6.700931,-2.40193 8.40265,-2.40193 0.514038,0 1.779873,-0.572538 2.812966,-1.2723066 1.033094,-0.699768 2.629015,-1.479254 3.546494,-1.732192 2.096551,-0.5779929 4.09435,-2.5132447 4.09435,-3.9661636 0,-0.6360994 0.241497,-1.0937573 0.577153,-1.0937573 1.158921,0 3.456155,1.9452602 3.830669,3.2437472 0.299678,1.039021 0.733832,1.4237159 2.048915,1.8155017 2.132355,0.635265 5.797171,3.8200756 7.305736,6.3488596 0.964919,1.61748 1.170968,2.466405 1.173841,4.836262 0.003,2.546233 -0.201943,3.273131 -1.795789,6.366647 -1.606203,3.117496 -1.800869,3.815241 -1.814118,6.502373 -0.0131,2.653522 0.175017,3.382648 1.587759,6.154425 0.881435,1.729358 1.601747,3.555886 1.600692,4.058953 -0.0013,0.63304 0.575776,1.251305 1.874326,2.008011 2.080136,1.212163 2.948586,2.906442 2.537469,4.950425 -0.246114,1.223631 -0.211765,1.252425 1.494001,1.252425 3.333841,0 6.082098,3.682524 5.147362,6.897201 -0.471069,1.62007 -1.061904,2.425124 -2.506309,3.415023 -0.960061,0.657963 -2.965008,0.722279 -22.196268,0.712003 C 13.200251,61.270401 10.72258,61.192151 9.7259655,60.577116 z M 53.81905,58.467091 c 0.524259,-0.471773 0.7806,-1.298109 0.7806,-2.516341 0,-1.940172 -0.707066,-2.991085 -2.270819,-3.375112 -0.511812,-0.125695 -10.118123,-0.173729 -21.347355,-0.106752 -19.642521,0.117167 -20.439757,0.153029 -21.0224285,0.945685 -0.829551,1.128505 -0.770995,4.020889 0.1007945,4.978773 0.666263,0.732058 1.908321,0.776196 21.84252,0.776196 19.068343,0 21.212451,-0.06872 21.916688,-0.702449 z m -6.874663,-8.650232 c 0.946423,-0.503653 1.147534,-2.890759 0.31342,-3.720167 -0.733996,-0.729856 -29.828561,-0.729856 -30.562556,0 -0.787743,0.783297 -0.634599,3.197597 0.234768,3.701101 1.024663,0.593444 28.901767,0.611152 30.014368,0.01906 z m -3.764662,-7.518933 c -0.111874,-0.641971 -0.839446,-2.454053 -1.616828,-4.026849 -2.575536,-5.210835 -2.417742,-7.760482 0.932726,-15.071126 2.283966,-4.983556 1.969812,-6.7836 -1.867808,-10.702121 -1.887421,-1.927214 -2.93509,-2.6392526 -4.489485,-3.0512436 -1.497574,-0.39693 -2.027544,-0.743568 -2.027544,-1.326156 0,-0.433817 -0.209496,-1.1779963 -0.465546,-1.6537308 -0.450498,-0.8370146 -0.502236,-0.8219375 -1.600693,0.4664664 -0.62433,0.7322914 -2.191603,1.7603634 -3.482829,2.2846054 -1.291225,0.524241 -3.116014,1.4601316 -4.055087,2.0797556 -0.939073,0.619624 -2.955946,1.437406 -4.481939,1.817292 -6.025195,1.499935 -5.975919,1.480324 -5.975919,2.378327 0,0.471578 0.624135,1.629686 1.386966,2.573573 1.34903,1.669216 1.439515,1.707958 3.308098,1.416395 3.206935,-0.500391 5.218071,-0.27503 7.805268,0.874631 1.787747,0.794414 2.848114,1.022973 3.841662,0.82806 2.450403,-0.480717 3.594852,-1.0992 4.18238,-2.260241 0.31707,-0.626576 0.626232,-1.214196 0.687027,-1.305823 0.249005,-0.37529 1.41172,0.959671 1.41172,1.620854 0,1.15646 -2.622966,3.315155 -4.688217,3.858391 -4.239775,1.115215 -8.201515,4.101234 -9.980876,7.522724 -0.718407,1.38141 -1.551258,7.074547 -1.551258,10.603975 l 0,2.239459 11.465794,0 11.465795,0 -0.203407,-1.167218 z M 27.49459,41.007394 c -1.189526,-0.260715 -1.47996,-0.858339 -1.487106,-3.06001 -0.01015,-3.127302 3.521058,-9.762192 5.195615,-9.762192 1.073501,0 0.987068,0.436262 -0.72055,3.636921 -1.56085,2.925567 -1.913457,5.397367 -1.080651,7.575453 0.331413,0.866763 0.267967,1.151947 -0.320138,1.438972 -0.403407,0.196882 -1.117633,0.273766 -1.58717,0.170856 z M 24.720056,13.747887 c 0,-0.938648 2.361692,-2.624357 3.409909,-2.433897 1.227822,0.223093 0.955766,1.544913 -0.499563,2.427191 -1.831806,1.110514 -2.910346,1.112999 -2.910346,0.0067 z"
       id="path3328"
       inkscape:connector-curvature="0" />
    <path
       style="fill:#ffffff;fill-opacity:1;fill-rule:evenodd"
       d="m 11.589692,58.84583 c -1.306279,-0.172064 -1.8314714,-0.670352 -2.018071,-1.914688 -0.3118255,-2.0794 0.1940848,-3.62372 1.295239,-3.95379 0.863888,-0.258949 18.93326,-0.528783 30.624049,-0.457317 10.307075,0.06301 10.852304,0.08298 11.540393,0.42275 1.052487,0.519703 1.425633,1.288257 1.44202,2.970076 0.01605,1.646913 -0.315747,2.410433 -1.204162,2.771003 -0.482395,0.195784 -4.420456,0.248048 -20.596433,0.273346 -11,0.0172 -20.487366,-0.03292 -21.083035,-0.11138 z"
       id="path3330"
       inkscape:connector-curvature="0" />
    <path
       style="fill:#ffffff;fill-opacity:1;fill-rule:evenodd"
       d="m 18.984628,49.949234 c -2.399138,-0.162994 -2.642789,-0.3563 -2.662202,-2.112116 -0.01937,-1.752013 0.109085,-1.826063 3.483254,-2.00798 3.59007,-0.193556 23.308767,-0.139462 25.559089,0.07012 0.980624,0.09133 1.873653,0.256753 1.984511,0.367611 0.33666,0.336659 0.391758,2.062546 0.08898,2.787196 -0.211873,0.507082 -0.409165,0.682169 -0.882827,0.783464 -0.81562,0.174424 -25.193813,0.273197 -27.570805,0.111709 l 0,0 z"
       id="path3332"
       inkscape:connector-curvature="0" />
    <path
       style="fill:#ffffff;fill-opacity:1;fill-rule:evenodd"
       d="m 20.581818,41.066701 c 0,-2.553922 0.367855,-5.967935 0.911356,-8.458165 0.432804,-1.983035 1.242303,-3.382168 2.939587,-5.08076 1.931273,-1.932764 3.931882,-3.131437 7.021094,-4.206722 3.38014,-1.176549 5.750252,-3.281245 5.105269,-4.533556 -0.291802,-0.566565 -0.912757,-1.215368 -1.163204,-1.215368 -0.117382,0 -0.360005,0.325069 -0.539165,0.722374 -0.532584,1.18106 -1.415206,1.915757 -2.876904,2.394746 -1.866808,0.611739 -3.062347,0.545325 -5.216215,-0.289769 -3.110002,-1.205806 -4.600555,-1.395054 -7.849335,-0.996592 -1.338627,0.164182 -1.6597,0.150402 -2.127085,-0.09129 -0.598642,-0.30957 -2.03823,-2.20406 -2.482138,-3.26648 -0.512939,-1.227636 -0.295845,-1.348148 4.790097,-2.659061 2.599525,-0.670033 4.01784,-1.215355 5.674093,-2.181605 0.653097,-0.381015 2.228097,-1.191966 3.499998,-1.8021138 1.882659,-0.9031361 2.552639,-1.3358492 3.60409,-2.3277354 1.226277,-1.1568066 1.304459,-1.2007111 1.547142,-0.8688217 0.270969,0.3705725 0.613157,1.4441744 0.614851,1.9290804 0.0016,0.4672324 0.580431,0.86319 1.935487,1.324074 1.905864,0.6482265 2.270737,0.8839865 4.152989,2.6834325 2.54949,2.437327 3.726837,4.377237 3.729706,6.145421 0.0016,1.05172 -0.547924,2.906023 -1.539378,5.193434 -1.989018,4.588916 -2.515324,6.398751 -2.496531,8.584947 0.01684,1.959055 0.370862,3.269006 1.6598,6.141618 0.934945,2.083682 1.831669,4.541235 1.831669,5.01986 0,0.09394 -4.801038,0.162666 -11.363636,0.162666 l -11.363637,0 0,-2.323611 0,0 z m 8.74686,-0.382962 0.423508,-0.342936 -0.318993,-1.011962 c -0.386991,-1.227675 -0.438909,-2.980504 -0.127774,-4.3138 0.126854,-0.5436 0.678071,-1.929275 1.224928,-3.079275 1.328411,-2.793552 1.52778,-3.360054 1.272389,-3.615445 -0.853787,-0.853787 -2.937892,1.438016 -4.527845,4.979082 -1.010647,2.250865 -1.287106,3.453011 -1.212404,5.271989 0.06018,1.465291 0.101134,1.608944 0.574928,2.016484 0.654933,0.563349 2.052466,0.61313 2.691263,0.09586 l 0,0 z M 26.862364,14.142961 c 1.218575,-0.576489 2.131331,-1.508345 2.046996,-2.089829 -0.03015,-0.207867 -0.271463,-0.49914 -0.536257,-0.647272 -0.435277,-0.243504 -0.557317,-0.235491 -1.272727,0.08357 -1.155138,0.515166 -2.33674,1.653572 -2.33674,2.251316 0,0.54424 0.294492,0.92237 0.718182,0.922155 0.155,-7.9e-5 0.776246,-0.23405 1.380546,-0.519935 l 0,0 z"
       id="path3334"
       inkscape:connector-curvature="0" />
  </g>
</svg>
